%TF.GenerationSoftware,KiCad,Pcbnew,5.99.0-unknown-4e273827f0~131~ubuntu20.04.1*%
%TF.CreationDate,2021-08-17T12:46:55+02:00*%
%TF.ProjectId,CDEM,4344454d-2e6b-4696-9361-645f70636258,rev?*%
%TF.SameCoordinates,Original*%
%TF.FileFunction,Copper,L2,Bot*%
%TF.FilePolarity,Positive*%
%FSLAX46Y46*%
G04 Gerber Fmt 4.6, Leading zero omitted, Abs format (unit mm)*
G04 Created by KiCad (PCBNEW 5.99.0-unknown-4e273827f0~131~ubuntu20.04.1) date 2021-08-17 12:46:55*
%MOMM*%
%LPD*%
G01*
G04 APERTURE LIST*
%TA.AperFunction,ComponentPad*%
%ADD10O,1.000000X1.600000*%
%TD*%
%TA.AperFunction,ComponentPad*%
%ADD11O,1.000000X2.100000*%
%TD*%
%TA.AperFunction,ComponentPad*%
%ADD12R,1.700000X1.700000*%
%TD*%
%TA.AperFunction,ComponentPad*%
%ADD13O,1.700000X1.700000*%
%TD*%
%TA.AperFunction,ComponentPad*%
%ADD14R,1.520000X1.520000*%
%TD*%
%TA.AperFunction,ComponentPad*%
%ADD15C,1.520000*%
%TD*%
%TA.AperFunction,ViaPad*%
%ADD16C,0.600000*%
%TD*%
%TA.AperFunction,ViaPad*%
%ADD17C,0.800000*%
%TD*%
%TA.AperFunction,Conductor*%
%ADD18C,0.500000*%
%TD*%
%TA.AperFunction,Conductor*%
%ADD19C,0.400000*%
%TD*%
%TA.AperFunction,Conductor*%
%ADD20C,0.750000*%
%TD*%
%TA.AperFunction,Conductor*%
%ADD21C,0.200000*%
%TD*%
G04 APERTURE END LIST*
D10*
%TO.P,J1,S1,SHIELD*%
%TO.N,GND*%
X65670000Y-129350000D03*
D11*
X65670000Y-125170000D03*
X57030000Y-125170000D03*
D10*
X57030000Y-129350000D03*
%TD*%
D12*
%TO.P,J3,1,Pin_1*%
%TO.N,+3V3*%
X71300000Y-117400000D03*
D13*
%TO.P,J3,2,Pin_2*%
%TO.N,/SM-USB-TX*%
X71300000Y-119940000D03*
%TO.P,J3,3,Pin_3*%
%TO.N,/USB-RX*%
X71300000Y-122480000D03*
%TO.P,J3,4,Pin_4*%
%TO.N,GND*%
X71300000Y-125020000D03*
%TD*%
D12*
%TO.P,J4,1,Pin_1*%
%TO.N,/SM-DATA*%
X77216000Y-84836000D03*
D13*
%TO.P,J4,2,Pin_2*%
%TO.N,/SM-USB-TX*%
X77216000Y-87376000D03*
%TO.P,J4,3,Pin_3*%
%TO.N,/USB-TX*%
X77216000Y-89916000D03*
%TD*%
D14*
%TO.P,J2,1*%
%TO.N,VCC*%
X43700000Y-102600000D03*
D15*
%TO.P,J2,2*%
%TO.N,/SM-DATA-REQ*%
X41160000Y-103870000D03*
%TO.P,J2,3*%
%TO.N,GND*%
X43700000Y-105140000D03*
%TO.P,J2,4*%
%TO.N,unconnected-(J2-Pad4)*%
X41160000Y-106410000D03*
%TO.P,J2,5*%
%TO.N,/SM-DATA-ORIGINAL*%
X43700000Y-107680000D03*
%TO.P,J2,6*%
%TO.N,GND*%
X41160000Y-108950000D03*
%TD*%
D16*
%TO.N,GND*%
X76835000Y-109016800D03*
X71755000Y-100584000D03*
D17*
X80200000Y-100600000D03*
D16*
X92659200Y-103632000D03*
X57962800Y-117297200D03*
X78841600Y-116103400D03*
X98100000Y-100300000D03*
X55067200Y-120269000D03*
X75100000Y-104900000D03*
D17*
X66100000Y-109400000D03*
D16*
X97700000Y-130900000D03*
D17*
X64500000Y-107800000D03*
D16*
X80568800Y-104876600D03*
X60900000Y-114000000D03*
X62400000Y-101600000D03*
X27600000Y-122700000D03*
X72300000Y-93200000D03*
D17*
X66100000Y-107800000D03*
D16*
X50190400Y-89154000D03*
X47500000Y-94400000D03*
X70916800Y-108432600D03*
X53543200Y-102082600D03*
X57500000Y-85300000D03*
X41500000Y-81800000D03*
X56200000Y-82000000D03*
X82600000Y-82100000D03*
X74168000Y-99060000D03*
X67868800Y-87122000D03*
X63220600Y-98171000D03*
X84988400Y-106883200D03*
X34700000Y-88400000D03*
X69570600Y-108432600D03*
X66800000Y-113800000D03*
D17*
X64900000Y-104500000D03*
D16*
X69300000Y-113500000D03*
D17*
X77900000Y-100400000D03*
X80350000Y-113050000D03*
D16*
X53568600Y-100609400D03*
X98300000Y-119500000D03*
X53441600Y-94183200D03*
X68707000Y-105638600D03*
X84800000Y-95200000D03*
X93319600Y-117678200D03*
X56540400Y-88011000D03*
X64900000Y-92700000D03*
X76600000Y-131200000D03*
X52552600Y-110617000D03*
D17*
X64500000Y-109400000D03*
D16*
X98300000Y-91200000D03*
X71400000Y-81900000D03*
D17*
X79300000Y-100600000D03*
D16*
X35700000Y-131200000D03*
X98100000Y-103800000D03*
X52552600Y-109677200D03*
X27400000Y-94100000D03*
X78900000Y-108700000D03*
X52552600Y-111607600D03*
X52552600Y-112699800D03*
X57200000Y-111100000D03*
X27300000Y-89900000D03*
X46500000Y-98000000D03*
X93300000Y-82300000D03*
X51130200Y-116306600D03*
X27600000Y-113400000D03*
D17*
X79100000Y-111800000D03*
X79750000Y-112450000D03*
D16*
X58000000Y-99400000D03*
X98100000Y-111200000D03*
X73939400Y-111252000D03*
D17*
X65300000Y-108700000D03*
D16*
X85000000Y-108700000D03*
X46200000Y-83100000D03*
X41600000Y-131100000D03*
D17*
X59350000Y-112160050D03*
D16*
X35500000Y-81900000D03*
X88300000Y-131000000D03*
X46710600Y-103047800D03*
X98100000Y-107100000D03*
X98300000Y-88200000D03*
X72300000Y-95100000D03*
X49657000Y-106553000D03*
X50200000Y-131200000D03*
X48615600Y-103047800D03*
X98400000Y-123200000D03*
X69200000Y-93800000D03*
X63703200Y-100203000D03*
X84700000Y-93200000D03*
X53900000Y-97700000D03*
X35500000Y-123500000D03*
X27700000Y-104300000D03*
X92506800Y-111048800D03*
X74168000Y-106426000D03*
X65800000Y-100200000D03*
X95800000Y-96100000D03*
X63042800Y-94335600D03*
X87100000Y-117800000D03*
X46482000Y-114274600D03*
X98400000Y-95100000D03*
D17*
X61800000Y-113700000D03*
D16*
X98300000Y-116400000D03*
%TO.N,VBUS*%
X62700000Y-114800000D03*
X62700000Y-114100000D03*
X60000000Y-107200000D03*
X59300000Y-107200000D03*
D17*
%TO.N,+3V3*%
X53594000Y-103632000D03*
X69600000Y-101000000D03*
D16*
X59300000Y-120200000D03*
D17*
X71156401Y-97524999D03*
X64108000Y-88698000D03*
D16*
X65000000Y-120100000D03*
%TO.N,/GPIO0*%
X67495736Y-96800000D03*
X61800000Y-102800000D03*
X68000000Y-102700000D03*
%TO.N,Net-(D3-Pad2)*%
X51300000Y-93800000D03*
X57600000Y-106600000D03*
%TO.N,Net-(D4-Pad2)*%
X57500000Y-105100000D03*
X49500000Y-93800000D03*
%TO.N,Net-(D5-Pad2)*%
X55600000Y-110700000D03*
X50400000Y-93800000D03*
%TO.N,/LED-COMM*%
X66300000Y-93900000D03*
X70205600Y-96088200D03*
%TO.N,/SM-DATA-REQ*%
X55600000Y-105900000D03*
X77038200Y-105968800D03*
%TO.N,Net-(R3-Pad2)*%
X62600000Y-105200000D03*
X69200000Y-103700000D03*
%TO.N,/RESET*%
X62000000Y-99200000D03*
D17*
X62230000Y-82245200D03*
X71628000Y-89992200D03*
D16*
X57600000Y-102700000D03*
%TO.N,/SM-USB-TX*%
X94386400Y-116103400D03*
X94400000Y-117500000D03*
%TO.N,/USB-TX*%
X71678800Y-106730800D03*
%TO.N,/LED-DATA*%
X69900000Y-98400000D03*
X66400000Y-94700000D03*
%TO.N,/RTS*%
X67700000Y-105300000D03*
X64000000Y-104800000D03*
%TD*%
D18*
%TO.N,VBUS*%
X60000000Y-107200000D02*
X59300000Y-107200000D01*
X59300000Y-107200000D02*
X59300000Y-108000000D01*
X60000000Y-107200000D02*
X59300000Y-107900000D01*
X59300000Y-108000000D02*
X59300000Y-109400000D01*
X59300000Y-107900000D02*
X59300000Y-108000000D01*
X59300000Y-109400000D02*
X62700000Y-112800000D01*
X62700000Y-112800000D02*
X62700000Y-114800000D01*
D19*
%TO.N,+3V3*%
X64800000Y-120200000D02*
X64900000Y-120100000D01*
D20*
X65408000Y-88698000D02*
X64108000Y-88698000D01*
X53594000Y-103632000D02*
X53626000Y-103600000D01*
X69600000Y-101100000D02*
X69600000Y-100700000D01*
D19*
X64900000Y-120100000D02*
X65000000Y-120100000D01*
D20*
X58300000Y-103600000D02*
X61024990Y-106324990D01*
X61024990Y-106324990D02*
X66615601Y-106324991D01*
X71400000Y-102900000D02*
X69600000Y-101100000D01*
X69600000Y-100700000D02*
X71145400Y-99154600D01*
X66615601Y-106324991D02*
X67090610Y-106800000D01*
X65410000Y-88700000D02*
X65408000Y-88698000D01*
X66500000Y-88700000D02*
X65410000Y-88700000D01*
X71145400Y-93345400D02*
X66500000Y-88700000D01*
X71400000Y-105300000D02*
X71400000Y-102900000D01*
X69900000Y-106800000D02*
X71400000Y-105300000D01*
X53626000Y-103600000D02*
X58300000Y-103600000D01*
X71145400Y-99154600D02*
X71145400Y-93345400D01*
D19*
X59300000Y-120200000D02*
X64800000Y-120200000D01*
D20*
X67090610Y-106800000D02*
X69900000Y-106800000D01*
D21*
%TO.N,/GPIO0*%
X65000000Y-99300000D02*
X65000000Y-100200000D01*
X62500000Y-102700000D02*
X61900000Y-102700000D01*
X67495736Y-96804264D02*
X65000000Y-99300000D01*
X66500000Y-97795736D02*
X67495736Y-96800000D01*
X65000000Y-100200000D02*
X62500000Y-102700000D01*
X66900000Y-102700000D02*
X64700000Y-100500000D01*
X67495736Y-96800000D02*
X67495736Y-96804264D01*
X68000000Y-102700000D02*
X66900000Y-102700000D01*
X61900000Y-102700000D02*
X61800000Y-102800000D01*
%TO.N,Net-(D3-Pad2)*%
X54411998Y-105600000D02*
X51300000Y-105600000D01*
X57600000Y-106600000D02*
X55411998Y-106600000D01*
X50500000Y-104800000D02*
X50500000Y-95500000D01*
X55411998Y-106600000D02*
X54411998Y-105600000D01*
X51300000Y-105600000D02*
X50500000Y-104800000D01*
X50500000Y-95500000D02*
X51300000Y-94700000D01*
X51300000Y-94700000D02*
X51300000Y-93900000D01*
%TO.N,Net-(D4-Pad2)*%
X57500000Y-105100000D02*
X51900000Y-105100000D01*
X51099999Y-96100001D02*
X52300000Y-94900000D01*
X50200000Y-93100000D02*
X49500000Y-93800000D01*
X51900000Y-105100000D02*
X51099999Y-104299999D01*
X51465699Y-93100000D02*
X50200000Y-93100000D01*
X52300000Y-94900000D02*
X52300000Y-93934301D01*
X51099999Y-104299999D02*
X51099999Y-96100001D01*
X52300000Y-93934301D02*
X51465699Y-93100000D01*
%TO.N,Net-(D5-Pad2)*%
X55600000Y-110700000D02*
X55600000Y-108163998D01*
X49800000Y-105000000D02*
X49800000Y-95300000D01*
X55600000Y-108163998D02*
X53636002Y-106200000D01*
X53636002Y-106200000D02*
X51000000Y-106200000D01*
X49800000Y-95300000D02*
X50300000Y-94800000D01*
X50400000Y-94700000D02*
X50300000Y-94800000D01*
X50400000Y-93800000D02*
X50400000Y-94700000D01*
X51000000Y-106200000D02*
X49800000Y-105000000D01*
%TO.N,/LED-COMM*%
X67800000Y-93900000D02*
X66300000Y-93900000D01*
X69988200Y-96088200D02*
X67800000Y-93900000D01*
X70205600Y-96088200D02*
X69988200Y-96088200D01*
%TO.N,/SM-DATA-REQ*%
X75507000Y-107500000D02*
X66800001Y-107500000D01*
X66800001Y-107463999D02*
X66336002Y-107000000D01*
X60688002Y-107000000D02*
X59588002Y-105900000D01*
X59588002Y-105900000D02*
X55600000Y-105900000D01*
X66800001Y-107500000D02*
X66800001Y-107463999D01*
X66336002Y-107000000D02*
X60688002Y-107000000D01*
X77038200Y-105968800D02*
X75507000Y-107500000D01*
%TO.N,Net-(R3-Pad2)*%
X69200000Y-103700000D02*
X68900000Y-103400000D01*
X68900000Y-103400000D02*
X64400000Y-103400000D01*
X64400000Y-103400000D02*
X62600000Y-105200000D01*
%TO.N,/RESET*%
X59000000Y-100300000D02*
X60900000Y-100300000D01*
X57600000Y-101700000D02*
X59000000Y-100300000D01*
X71628000Y-88112600D02*
X65760600Y-82245200D01*
X65760600Y-82245200D02*
X62230000Y-82245200D01*
X71628000Y-89992200D02*
X71628000Y-88112600D01*
X62000000Y-99200000D02*
X62000000Y-82475200D01*
X60900000Y-100300000D02*
X62000000Y-99200000D01*
X57600000Y-102700000D02*
X57600000Y-101700000D01*
X62000000Y-82475200D02*
X62230000Y-82245200D01*
%TO.N,/SM-USB-TX*%
X94386400Y-116103400D02*
X94382511Y-116099511D01*
X78765400Y-90932000D02*
X78765400Y-88468200D01*
X78765400Y-88468200D02*
X77673200Y-87376000D01*
X80945911Y-116099511D02*
X78003400Y-113157000D01*
X94400000Y-117500000D02*
X94400000Y-116117000D01*
X94400000Y-116117000D02*
X94386400Y-116103400D01*
X76784200Y-92913200D02*
X78765400Y-90932000D01*
X78003400Y-104038400D02*
X76784200Y-102819200D01*
X76784200Y-102819200D02*
X76784200Y-92913200D01*
X94382511Y-116099511D02*
X80945911Y-116099511D01*
X78003400Y-113157000D02*
X78003400Y-104038400D01*
X77673200Y-87376000D02*
X77216000Y-87376000D01*
%TO.N,/USB-TX*%
X73152000Y-91948000D02*
X75184000Y-89916000D01*
X75184000Y-89916000D02*
X77216000Y-89916000D01*
X73152000Y-105257600D02*
X73152000Y-91948000D01*
X71678800Y-106730800D02*
X73152000Y-105257600D01*
%TO.N,/LED-DATA*%
X67711998Y-94700000D02*
X66400000Y-94700000D01*
X69900000Y-96888002D02*
X67711998Y-94700000D01*
X69900000Y-98400000D02*
X69900000Y-96888002D01*
%TO.N,/RTS*%
X67700000Y-105300000D02*
X64500000Y-105300000D01*
X64500000Y-105300000D02*
X64000000Y-104800000D01*
%TD*%
%TA.AperFunction,Conductor*%
%TO.N,GND*%
G36*
X61801294Y-81228002D02*
G01*
X61847787Y-81281658D01*
X61857891Y-81351932D01*
X61828397Y-81416512D01*
X61784422Y-81449107D01*
X61779278Y-81451397D01*
X61779276Y-81451398D01*
X61773248Y-81454082D01*
X61618747Y-81566334D01*
X61490960Y-81708256D01*
X61395473Y-81873644D01*
X61336458Y-82055272D01*
X61316496Y-82245200D01*
X61336458Y-82435128D01*
X61385333Y-82585548D01*
X61391500Y-82624485D01*
X61391500Y-98615164D01*
X61371498Y-98683285D01*
X61370188Y-98685090D01*
X61369493Y-98685771D01*
X61367894Y-98688253D01*
X61367892Y-98688255D01*
X61300295Y-98793146D01*
X61271235Y-98838238D01*
X61268826Y-98844858D01*
X61268824Y-98844861D01*
X61217246Y-98986571D01*
X61209197Y-99008685D01*
X61208314Y-99015675D01*
X61197025Y-99105034D01*
X61168643Y-99170111D01*
X61161114Y-99178337D01*
X60684856Y-99654595D01*
X60622544Y-99688621D01*
X60595761Y-99691500D01*
X59048136Y-99691500D01*
X59031693Y-99690422D01*
X59000000Y-99686250D01*
X58991811Y-99687328D01*
X58960126Y-99691499D01*
X58960117Y-99691500D01*
X58960115Y-99691500D01*
X58960109Y-99691501D01*
X58960107Y-99691501D01*
X58860543Y-99704609D01*
X58849336Y-99706084D01*
X58849334Y-99706085D01*
X58841149Y-99707162D01*
X58693124Y-99768476D01*
X58597928Y-99841523D01*
X58597925Y-99841526D01*
X58566013Y-99866013D01*
X58560983Y-99872568D01*
X58546548Y-99891379D01*
X58535681Y-99903770D01*
X57203766Y-101235685D01*
X57191375Y-101246552D01*
X57166013Y-101266013D01*
X57141526Y-101297925D01*
X57141523Y-101297928D01*
X57141517Y-101297936D01*
X57073764Y-101386233D01*
X57068476Y-101393124D01*
X57008904Y-101536944D01*
X57007162Y-101541150D01*
X56991500Y-101660115D01*
X56991500Y-101660120D01*
X56986250Y-101700000D01*
X56987328Y-101708188D01*
X56990422Y-101731690D01*
X56991500Y-101748136D01*
X56991500Y-102115164D01*
X56971498Y-102183285D01*
X56970188Y-102185090D01*
X56969493Y-102185771D01*
X56967894Y-102188253D01*
X56967892Y-102188255D01*
X56902848Y-102289184D01*
X56871235Y-102338238D01*
X56868826Y-102344858D01*
X56868824Y-102344861D01*
X56826603Y-102460863D01*
X56809197Y-102508685D01*
X56808314Y-102515675D01*
X56796866Y-102606292D01*
X56768484Y-102671369D01*
X56709424Y-102710770D01*
X56671860Y-102716500D01*
X53705457Y-102716500D01*
X53685745Y-102714949D01*
X53679008Y-102713882D01*
X53679009Y-102713882D01*
X53672493Y-102712850D01*
X53665906Y-102713195D01*
X53665902Y-102713195D01*
X53606150Y-102716327D01*
X53599555Y-102716500D01*
X53579694Y-102716500D01*
X53559931Y-102718577D01*
X53553372Y-102719093D01*
X53537573Y-102719921D01*
X53493623Y-102722224D01*
X53493619Y-102722225D01*
X53487029Y-102722570D01*
X53474071Y-102726042D01*
X53454628Y-102729645D01*
X53447870Y-102730355D01*
X53447867Y-102730356D01*
X53441298Y-102731046D01*
X53435015Y-102733088D01*
X53435008Y-102733089D01*
X53406502Y-102742351D01*
X53393764Y-102745765D01*
X53318169Y-102761833D01*
X53318164Y-102761835D01*
X53311712Y-102763206D01*
X53305682Y-102765891D01*
X53305681Y-102765891D01*
X53143278Y-102838197D01*
X53143276Y-102838198D01*
X53137248Y-102840882D01*
X53131907Y-102844762D01*
X53131906Y-102844763D01*
X53091936Y-102873803D01*
X52982747Y-102953134D01*
X52978326Y-102958044D01*
X52978325Y-102958045D01*
X52876697Y-103070915D01*
X52854960Y-103095056D01*
X52828277Y-103141273D01*
X52774346Y-103234684D01*
X52759473Y-103260444D01*
X52700458Y-103442072D01*
X52699768Y-103448633D01*
X52699768Y-103448635D01*
X52691559Y-103526744D01*
X52680496Y-103632000D01*
X52681186Y-103638565D01*
X52698070Y-103799204D01*
X52700458Y-103821928D01*
X52759473Y-104003556D01*
X52762776Y-104009278D01*
X52762777Y-104009279D01*
X52774863Y-104030212D01*
X52854960Y-104168944D01*
X52956028Y-104281192D01*
X52986744Y-104345197D01*
X52977980Y-104415651D01*
X52932518Y-104470182D01*
X52862391Y-104491500D01*
X52204239Y-104491500D01*
X52136118Y-104471498D01*
X52115144Y-104454595D01*
X51745404Y-104084855D01*
X51711378Y-104022543D01*
X51708499Y-103995760D01*
X51708499Y-96404240D01*
X51728501Y-96336119D01*
X51745404Y-96315145D01*
X52696234Y-95364315D01*
X52708625Y-95353448D01*
X52727437Y-95339013D01*
X52733987Y-95333987D01*
X52758474Y-95302075D01*
X52758478Y-95302071D01*
X52831524Y-95206876D01*
X52892838Y-95058851D01*
X52913751Y-94900000D01*
X52909578Y-94868301D01*
X52908500Y-94851856D01*
X52908500Y-93982437D01*
X52909578Y-93965991D01*
X52912672Y-93942489D01*
X52913750Y-93934301D01*
X52908500Y-93894421D01*
X52908500Y-93894416D01*
X52892838Y-93775451D01*
X52887908Y-93763547D01*
X52837209Y-93641150D01*
X52834684Y-93635055D01*
X52831524Y-93627425D01*
X52758478Y-93532230D01*
X52758474Y-93532226D01*
X52743685Y-93512952D01*
X52739016Y-93506867D01*
X52739013Y-93506864D01*
X52733987Y-93500314D01*
X52724669Y-93493164D01*
X52708621Y-93480849D01*
X52696230Y-93469982D01*
X51930014Y-92703766D01*
X51919147Y-92691375D01*
X51904712Y-92672563D01*
X51899686Y-92666013D01*
X51867774Y-92641526D01*
X51867771Y-92641523D01*
X51813359Y-92599771D01*
X51779128Y-92573504D01*
X51779126Y-92573503D01*
X51772575Y-92568476D01*
X51624550Y-92507162D01*
X51616363Y-92506084D01*
X51616362Y-92506084D01*
X51605157Y-92504609D01*
X51573961Y-92500502D01*
X51505584Y-92491500D01*
X51505581Y-92491500D01*
X51505573Y-92491499D01*
X51473888Y-92487328D01*
X51465699Y-92486250D01*
X51434006Y-92490422D01*
X51417563Y-92491500D01*
X50248136Y-92491500D01*
X50231690Y-92490422D01*
X50208188Y-92487328D01*
X50200000Y-92486250D01*
X50191812Y-92487328D01*
X50160129Y-92491499D01*
X50160120Y-92491500D01*
X50160115Y-92491500D01*
X50041150Y-92507162D01*
X49893125Y-92568476D01*
X49893123Y-92568477D01*
X49893124Y-92568477D01*
X49797928Y-92641523D01*
X49797925Y-92641526D01*
X49766013Y-92666013D01*
X49760983Y-92672568D01*
X49746548Y-92691379D01*
X49735681Y-92703770D01*
X49478416Y-92961035D01*
X49416104Y-92995061D01*
X49402495Y-92997249D01*
X49380802Y-92999529D01*
X49332296Y-93004627D01*
X49332292Y-93004628D01*
X49325288Y-93005364D01*
X49153579Y-93063818D01*
X49098788Y-93097526D01*
X49005095Y-93155166D01*
X49005092Y-93155168D01*
X48999088Y-93158862D01*
X48994053Y-93163793D01*
X48994050Y-93163795D01*
X48893621Y-93262143D01*
X48869493Y-93285771D01*
X48771235Y-93438238D01*
X48768826Y-93444858D01*
X48768824Y-93444861D01*
X48734838Y-93538238D01*
X48709197Y-93608685D01*
X48686463Y-93788640D01*
X48704163Y-93969160D01*
X48761418Y-94141273D01*
X48765065Y-94147295D01*
X48765066Y-94147297D01*
X48821980Y-94241273D01*
X48855380Y-94296424D01*
X48981382Y-94426902D01*
X48987278Y-94430760D01*
X49106360Y-94508685D01*
X49133159Y-94526222D01*
X49139763Y-94528678D01*
X49139765Y-94528679D01*
X49296558Y-94586990D01*
X49296560Y-94586990D01*
X49303168Y-94589448D01*
X49310153Y-94590380D01*
X49310157Y-94590381D01*
X49338511Y-94594164D01*
X49356472Y-94596560D01*
X49421349Y-94625395D01*
X49460337Y-94684728D01*
X49461059Y-94755721D01*
X49428903Y-94810548D01*
X49403766Y-94835685D01*
X49391375Y-94846552D01*
X49366013Y-94866013D01*
X49341526Y-94897925D01*
X49341523Y-94897928D01*
X49268476Y-94993124D01*
X49210129Y-95133987D01*
X49207162Y-95141150D01*
X49191500Y-95260115D01*
X49191500Y-95260120D01*
X49186250Y-95300000D01*
X49190300Y-95330760D01*
X49190422Y-95331690D01*
X49191500Y-95348136D01*
X49191500Y-104951864D01*
X49190422Y-104968307D01*
X49186250Y-105000000D01*
X49191500Y-105039880D01*
X49191500Y-105039885D01*
X49196831Y-105080372D01*
X49200320Y-105106873D01*
X49200320Y-105106876D01*
X49205942Y-105149580D01*
X49207162Y-105158851D01*
X49268476Y-105306876D01*
X49273503Y-105313427D01*
X49273504Y-105313429D01*
X49341520Y-105402069D01*
X49341526Y-105402075D01*
X49366013Y-105433987D01*
X49372568Y-105439017D01*
X49391379Y-105453452D01*
X49403770Y-105464319D01*
X50535685Y-106596234D01*
X50546552Y-106608625D01*
X50566013Y-106633987D01*
X50597925Y-106658474D01*
X50597928Y-106658477D01*
X50645036Y-106694624D01*
X50693125Y-106731524D01*
X50841150Y-106792838D01*
X50960115Y-106808500D01*
X50960120Y-106808500D01*
X50960129Y-106808501D01*
X50991812Y-106812672D01*
X51000000Y-106813750D01*
X51031693Y-106809578D01*
X51048136Y-106808500D01*
X53331763Y-106808500D01*
X53399884Y-106828502D01*
X53420858Y-106845405D01*
X54954595Y-108379142D01*
X54988621Y-108441454D01*
X54991500Y-108468237D01*
X54991500Y-110115164D01*
X54971498Y-110183285D01*
X54970188Y-110185090D01*
X54969493Y-110185771D01*
X54967894Y-110188253D01*
X54967892Y-110188255D01*
X54912041Y-110274919D01*
X54871235Y-110338238D01*
X54868826Y-110344858D01*
X54868824Y-110344861D01*
X54811606Y-110502066D01*
X54809197Y-110508685D01*
X54786463Y-110688640D01*
X54804163Y-110869160D01*
X54861418Y-111041273D01*
X54865065Y-111047295D01*
X54865066Y-111047297D01*
X54948179Y-111184533D01*
X54955380Y-111196424D01*
X55081382Y-111326902D01*
X55233159Y-111426222D01*
X55239763Y-111428678D01*
X55239765Y-111428679D01*
X55396558Y-111486990D01*
X55396560Y-111486990D01*
X55403168Y-111489448D01*
X55486995Y-111500633D01*
X55575980Y-111512507D01*
X55575984Y-111512507D01*
X55582961Y-111513438D01*
X55589972Y-111512800D01*
X55589976Y-111512800D01*
X55732459Y-111499832D01*
X55763600Y-111496998D01*
X55770302Y-111494820D01*
X55770304Y-111494820D01*
X55929409Y-111443124D01*
X55929412Y-111443123D01*
X55936108Y-111440947D01*
X56091912Y-111348069D01*
X56223266Y-111222982D01*
X56323643Y-111071902D01*
X56388055Y-110902338D01*
X56389464Y-110892311D01*
X56412748Y-110726639D01*
X56412748Y-110726636D01*
X56413299Y-110722717D01*
X56413616Y-110700000D01*
X56393397Y-110519745D01*
X56391080Y-110513091D01*
X56336064Y-110355106D01*
X56336062Y-110355103D01*
X56333745Y-110348448D01*
X56237626Y-110194624D01*
X56235215Y-110192196D01*
X56209117Y-110127716D01*
X56208500Y-110115263D01*
X56208500Y-108212142D01*
X56209578Y-108195696D01*
X56212673Y-108172186D01*
X56213751Y-108163998D01*
X56192838Y-108005147D01*
X56131524Y-107857122D01*
X56058478Y-107761927D01*
X56058474Y-107761923D01*
X56048739Y-107749236D01*
X56039016Y-107736564D01*
X56039013Y-107736561D01*
X56033987Y-107730011D01*
X56017176Y-107717111D01*
X56008621Y-107710546D01*
X55996230Y-107699679D01*
X55720146Y-107423595D01*
X55686120Y-107361283D01*
X55691185Y-107290468D01*
X55733732Y-107233632D01*
X55800252Y-107208821D01*
X55809241Y-107208500D01*
X57015699Y-107208500D01*
X57084692Y-107229068D01*
X57233159Y-107326222D01*
X57239763Y-107328678D01*
X57239765Y-107328679D01*
X57396558Y-107386990D01*
X57396560Y-107386990D01*
X57403168Y-107389448D01*
X57486995Y-107400633D01*
X57575980Y-107412507D01*
X57575984Y-107412507D01*
X57582961Y-107413438D01*
X57589972Y-107412800D01*
X57589976Y-107412800D01*
X57732459Y-107399832D01*
X57763600Y-107396998D01*
X57770302Y-107394820D01*
X57770304Y-107394820D01*
X57929409Y-107343124D01*
X57929412Y-107343123D01*
X57936108Y-107340947D01*
X58091912Y-107248069D01*
X58223266Y-107122982D01*
X58261217Y-107065861D01*
X58315574Y-107020192D01*
X58385994Y-107011160D01*
X58450118Y-107041634D01*
X58487587Y-107101938D01*
X58491170Y-107151382D01*
X58486463Y-107188640D01*
X58504163Y-107369160D01*
X58522271Y-107423595D01*
X58535058Y-107462033D01*
X58541500Y-107501805D01*
X58541500Y-107812059D01*
X58541001Y-107823260D01*
X58540850Y-107824950D01*
X58539360Y-107832115D01*
X58540243Y-107864752D01*
X58541454Y-107909521D01*
X58541500Y-107912928D01*
X58541500Y-109332930D01*
X58540067Y-109351880D01*
X58536801Y-109373349D01*
X58537394Y-109380641D01*
X58537394Y-109380644D01*
X58541085Y-109426018D01*
X58541500Y-109436233D01*
X58541500Y-109444293D01*
X58541925Y-109447937D01*
X58544789Y-109472507D01*
X58545222Y-109476882D01*
X58551140Y-109549637D01*
X58553396Y-109556601D01*
X58554587Y-109562560D01*
X58555971Y-109568415D01*
X58556818Y-109575681D01*
X58581735Y-109644327D01*
X58583152Y-109648455D01*
X58605649Y-109717899D01*
X58609445Y-109724154D01*
X58611951Y-109729628D01*
X58614670Y-109735058D01*
X58617167Y-109741937D01*
X58621180Y-109748057D01*
X58621180Y-109748058D01*
X58657186Y-109802976D01*
X58659523Y-109806680D01*
X58697405Y-109869107D01*
X58701121Y-109873315D01*
X58701122Y-109873316D01*
X58704803Y-109877484D01*
X58704776Y-109877508D01*
X58707429Y-109880500D01*
X58710132Y-109883733D01*
X58714144Y-109889852D01*
X58719456Y-109894884D01*
X58770383Y-109943128D01*
X58772825Y-109945506D01*
X61904595Y-113077276D01*
X61938621Y-113139588D01*
X61941500Y-113166371D01*
X61941500Y-113797717D01*
X61933901Y-113840812D01*
X61909197Y-113908685D01*
X61886463Y-114088640D01*
X61904163Y-114269160D01*
X61906387Y-114275845D01*
X61935058Y-114362033D01*
X61941500Y-114401805D01*
X61941500Y-114497717D01*
X61933901Y-114540812D01*
X61909197Y-114608685D01*
X61886463Y-114788640D01*
X61904163Y-114969160D01*
X61961418Y-115141273D01*
X61965065Y-115147295D01*
X61965066Y-115147297D01*
X62051371Y-115289804D01*
X62055380Y-115296424D01*
X62060269Y-115301487D01*
X62060270Y-115301488D01*
X62068922Y-115310447D01*
X62181382Y-115426902D01*
X62333159Y-115526222D01*
X62339763Y-115528678D01*
X62339765Y-115528679D01*
X62496558Y-115586990D01*
X62496560Y-115586990D01*
X62503168Y-115589448D01*
X62586995Y-115600633D01*
X62675980Y-115612507D01*
X62675984Y-115612507D01*
X62682961Y-115613438D01*
X62689972Y-115612800D01*
X62689976Y-115612800D01*
X62832459Y-115599832D01*
X62863600Y-115596998D01*
X62870302Y-115594820D01*
X62870304Y-115594820D01*
X63029409Y-115543124D01*
X63029412Y-115543123D01*
X63036108Y-115540947D01*
X63168103Y-115462262D01*
X63185860Y-115451677D01*
X63185862Y-115451676D01*
X63191912Y-115448069D01*
X63323266Y-115322982D01*
X63423643Y-115171902D01*
X63488055Y-115002338D01*
X63489035Y-114995366D01*
X63512748Y-114826639D01*
X63512748Y-114826636D01*
X63513299Y-114822717D01*
X63513616Y-114800000D01*
X63493397Y-114619745D01*
X63489546Y-114608685D01*
X63465509Y-114539662D01*
X63458500Y-114498225D01*
X63458500Y-114403267D01*
X63466712Y-114358523D01*
X63485555Y-114308920D01*
X63485556Y-114308918D01*
X63488055Y-114302338D01*
X63513299Y-114122717D01*
X63513616Y-114100000D01*
X63493397Y-113919745D01*
X63489546Y-113908685D01*
X63465509Y-113839662D01*
X63458500Y-113798225D01*
X63458500Y-112867070D01*
X63459933Y-112848120D01*
X63462099Y-112833885D01*
X63462099Y-112833881D01*
X63463199Y-112826651D01*
X63458915Y-112773982D01*
X63458500Y-112763767D01*
X63458500Y-112755707D01*
X63456951Y-112742417D01*
X63455211Y-112727493D01*
X63454778Y-112723118D01*
X63449454Y-112657661D01*
X63449453Y-112657658D01*
X63448860Y-112650363D01*
X63446604Y-112643399D01*
X63445413Y-112637440D01*
X63444029Y-112631585D01*
X63443182Y-112624319D01*
X63418265Y-112555673D01*
X63416848Y-112551545D01*
X63396607Y-112489064D01*
X63396606Y-112489062D01*
X63394351Y-112482101D01*
X63390555Y-112475846D01*
X63388049Y-112470372D01*
X63385330Y-112464942D01*
X63382833Y-112458063D01*
X63378820Y-112451942D01*
X63342814Y-112397024D01*
X63340467Y-112393305D01*
X63338644Y-112390300D01*
X63302595Y-112330893D01*
X63295197Y-112322516D01*
X63295224Y-112322492D01*
X63292571Y-112319500D01*
X63289868Y-112316267D01*
X63285856Y-112310148D01*
X63229617Y-112256872D01*
X63227175Y-112254494D01*
X60095405Y-109122724D01*
X60061379Y-109060412D01*
X60058500Y-109033629D01*
X60058500Y-108266371D01*
X60078502Y-108198250D01*
X60095405Y-108177276D01*
X60314179Y-107958502D01*
X60338753Y-107939370D01*
X60491912Y-107848069D01*
X60623266Y-107722982D01*
X60631529Y-107710546D01*
X60661940Y-107664773D01*
X60716298Y-107619102D01*
X60766888Y-107608500D01*
X66031763Y-107608500D01*
X66099884Y-107628502D01*
X66120858Y-107645405D01*
X66240959Y-107765506D01*
X66259414Y-107793114D01*
X66261186Y-107792091D01*
X66265316Y-107799244D01*
X66268477Y-107806875D01*
X66302005Y-107850569D01*
X66360985Y-107927434D01*
X66360988Y-107927437D01*
X66366014Y-107933987D01*
X66372564Y-107939013D01*
X66372565Y-107939014D01*
X66397962Y-107958502D01*
X66493125Y-108031524D01*
X66500751Y-108034683D01*
X66500753Y-108034684D01*
X66633521Y-108089678D01*
X66633524Y-108089679D01*
X66641151Y-108092838D01*
X66800001Y-108113751D01*
X66808189Y-108112673D01*
X66831698Y-108109578D01*
X66848144Y-108108500D01*
X75458864Y-108108500D01*
X75475307Y-108109578D01*
X75507000Y-108113750D01*
X75515189Y-108112672D01*
X75546874Y-108108501D01*
X75546884Y-108108500D01*
X75546885Y-108108500D01*
X75646457Y-108095391D01*
X75657664Y-108093916D01*
X75657666Y-108093915D01*
X75665851Y-108092838D01*
X75813876Y-108031524D01*
X75837581Y-108013335D01*
X75909072Y-107958477D01*
X75909075Y-107958474D01*
X75929173Y-107943052D01*
X75940987Y-107933987D01*
X75946017Y-107927432D01*
X75960452Y-107908621D01*
X75971319Y-107896230D01*
X77059482Y-106808067D01*
X77121794Y-106774041D01*
X77137155Y-106771681D01*
X77201800Y-106765798D01*
X77208502Y-106763620D01*
X77208504Y-106763620D01*
X77229964Y-106756647D01*
X77300932Y-106754620D01*
X77361729Y-106791282D01*
X77393055Y-106854994D01*
X77394900Y-106876480D01*
X77394900Y-113108864D01*
X77393822Y-113125307D01*
X77389650Y-113157000D01*
X77394900Y-113196880D01*
X77394900Y-113196885D01*
X77406685Y-113286404D01*
X77410562Y-113315851D01*
X77471876Y-113463876D01*
X77476903Y-113470427D01*
X77476904Y-113470429D01*
X77544920Y-113559069D01*
X77544926Y-113559075D01*
X77569413Y-113590987D01*
X77575968Y-113596017D01*
X77594779Y-113610452D01*
X77607170Y-113621319D01*
X80481592Y-116495740D01*
X80492459Y-116508131D01*
X80506895Y-116526945D01*
X80506898Y-116526948D01*
X80511924Y-116533498D01*
X80518474Y-116538524D01*
X80518478Y-116538528D01*
X80543838Y-116557987D01*
X80543840Y-116557988D01*
X80639035Y-116631035D01*
X80646661Y-116634194D01*
X80646663Y-116634195D01*
X80713048Y-116661692D01*
X80787060Y-116692349D01*
X80795247Y-116693427D01*
X80795248Y-116693427D01*
X80806453Y-116694902D01*
X80837649Y-116699009D01*
X80906026Y-116708011D01*
X80906029Y-116708011D01*
X80906037Y-116708012D01*
X80937722Y-116712183D01*
X80945911Y-116713261D01*
X80977604Y-116709089D01*
X80994047Y-116708011D01*
X93665500Y-116708011D01*
X93733621Y-116728013D01*
X93780114Y-116781669D01*
X93791500Y-116834011D01*
X93791500Y-116915164D01*
X93771498Y-116983285D01*
X93770188Y-116985090D01*
X93769493Y-116985771D01*
X93767894Y-116988253D01*
X93767892Y-116988255D01*
X93759934Y-117000603D01*
X93671235Y-117138238D01*
X93668826Y-117144858D01*
X93668824Y-117144861D01*
X93611606Y-117302066D01*
X93609197Y-117308685D01*
X93586463Y-117488640D01*
X93604163Y-117669160D01*
X93661418Y-117841273D01*
X93665065Y-117847295D01*
X93665066Y-117847297D01*
X93675978Y-117865314D01*
X93755380Y-117996424D01*
X93881382Y-118126902D01*
X94033159Y-118226222D01*
X94039763Y-118228678D01*
X94039765Y-118228679D01*
X94196558Y-118286990D01*
X94196560Y-118286990D01*
X94203168Y-118289448D01*
X94286995Y-118300633D01*
X94375980Y-118312507D01*
X94375984Y-118312507D01*
X94382961Y-118313438D01*
X94389972Y-118312800D01*
X94389976Y-118312800D01*
X94532459Y-118299832D01*
X94563600Y-118296998D01*
X94570302Y-118294820D01*
X94570304Y-118294820D01*
X94729409Y-118243124D01*
X94729412Y-118243123D01*
X94736108Y-118240947D01*
X94891912Y-118148069D01*
X95023266Y-118022982D01*
X95123643Y-117871902D01*
X95188055Y-117702338D01*
X95189035Y-117695366D01*
X95212748Y-117526639D01*
X95212748Y-117526636D01*
X95213299Y-117522717D01*
X95213616Y-117500000D01*
X95193397Y-117319745D01*
X95191080Y-117313091D01*
X95136064Y-117155106D01*
X95136062Y-117155103D01*
X95133745Y-117148448D01*
X95037626Y-116994624D01*
X95035215Y-116992196D01*
X95009117Y-116927716D01*
X95008500Y-116915263D01*
X95008500Y-116666178D01*
X95029552Y-116596451D01*
X95071378Y-116533498D01*
X95110043Y-116475302D01*
X95174455Y-116305738D01*
X95191179Y-116186739D01*
X95199148Y-116130039D01*
X95199148Y-116130036D01*
X95199699Y-116126117D01*
X95200016Y-116103400D01*
X95179797Y-115923145D01*
X95120145Y-115751848D01*
X95024026Y-115598024D01*
X94963764Y-115537340D01*
X94901178Y-115474315D01*
X94901174Y-115474312D01*
X94896215Y-115469318D01*
X94888310Y-115464301D01*
X94821392Y-115421834D01*
X94743066Y-115372127D01*
X94713863Y-115361728D01*
X94578825Y-115313643D01*
X94578820Y-115313642D01*
X94572190Y-115311281D01*
X94565202Y-115310448D01*
X94565199Y-115310447D01*
X94442098Y-115295768D01*
X94392080Y-115289804D01*
X94385077Y-115290540D01*
X94385076Y-115290540D01*
X94218688Y-115308028D01*
X94218686Y-115308029D01*
X94211688Y-115308764D01*
X94039979Y-115367218D01*
X93885488Y-115462262D01*
X93882896Y-115464800D01*
X93818160Y-115490478D01*
X93806582Y-115491011D01*
X81250149Y-115491011D01*
X81182028Y-115471009D01*
X81161054Y-115454106D01*
X78648805Y-112941856D01*
X78614779Y-112879544D01*
X78611900Y-112852761D01*
X78611900Y-104086536D01*
X78612978Y-104070090D01*
X78616072Y-104046588D01*
X78617150Y-104038400D01*
X78611900Y-103998522D01*
X78611900Y-103998515D01*
X78596238Y-103879550D01*
X78592283Y-103870000D01*
X78540380Y-103744696D01*
X78538084Y-103739154D01*
X78534924Y-103731524D01*
X78525128Y-103718757D01*
X78467435Y-103643571D01*
X78461877Y-103636328D01*
X78461874Y-103636325D01*
X78437387Y-103604413D01*
X78429417Y-103598297D01*
X78412021Y-103584948D01*
X78399630Y-103574081D01*
X77429605Y-102604056D01*
X77395579Y-102541744D01*
X77392700Y-102514961D01*
X77392700Y-93217439D01*
X77412702Y-93149318D01*
X77429605Y-93128344D01*
X79161629Y-91396320D01*
X79174018Y-91385454D01*
X79192835Y-91371015D01*
X79192836Y-91371014D01*
X79199387Y-91365987D01*
X79204413Y-91359437D01*
X79204416Y-91359434D01*
X79267092Y-91277753D01*
X79291896Y-91245429D01*
X79291897Y-91245427D01*
X79296924Y-91238876D01*
X79313027Y-91200000D01*
X89587048Y-91200000D01*
X89587318Y-91204119D01*
X89606195Y-91492118D01*
X89606836Y-91501901D01*
X89607640Y-91505941D01*
X89607640Y-91505944D01*
X89662456Y-91781521D01*
X89665860Y-91798636D01*
X89667185Y-91802540D01*
X89667186Y-91802543D01*
X89730100Y-91987880D01*
X89763111Y-92085128D01*
X89896925Y-92356476D01*
X89899219Y-92359909D01*
X90059490Y-92599771D01*
X90065012Y-92608036D01*
X90264496Y-92835504D01*
X90491964Y-93034988D01*
X90495390Y-93037277D01*
X90495395Y-93037281D01*
X90597289Y-93105364D01*
X90743524Y-93203075D01*
X90747223Y-93204899D01*
X90747228Y-93204902D01*
X90772651Y-93217439D01*
X91014872Y-93336889D01*
X91018777Y-93338214D01*
X91018778Y-93338215D01*
X91297457Y-93432814D01*
X91297460Y-93432815D01*
X91301364Y-93434140D01*
X91305403Y-93434943D01*
X91305409Y-93434945D01*
X91594056Y-93492360D01*
X91594059Y-93492360D01*
X91598099Y-93493164D01*
X91602210Y-93493433D01*
X91602214Y-93493434D01*
X91895881Y-93512682D01*
X91900000Y-93512952D01*
X91904119Y-93512682D01*
X92197786Y-93493434D01*
X92197790Y-93493433D01*
X92201901Y-93493164D01*
X92205941Y-93492360D01*
X92205944Y-93492360D01*
X92494591Y-93434945D01*
X92494597Y-93434943D01*
X92498636Y-93434140D01*
X92502540Y-93432815D01*
X92502543Y-93432814D01*
X92781222Y-93338215D01*
X92781223Y-93338214D01*
X92785128Y-93336889D01*
X93027349Y-93217439D01*
X93052772Y-93204902D01*
X93052777Y-93204899D01*
X93056476Y-93203075D01*
X93202711Y-93105364D01*
X93304605Y-93037281D01*
X93304610Y-93037277D01*
X93308036Y-93034988D01*
X93535504Y-92835504D01*
X93734988Y-92608036D01*
X93740511Y-92599771D01*
X93900781Y-92359909D01*
X93903075Y-92356476D01*
X94036889Y-92085128D01*
X94069900Y-91987880D01*
X94132814Y-91802543D01*
X94132815Y-91802540D01*
X94134140Y-91798636D01*
X94137545Y-91781521D01*
X94192360Y-91505944D01*
X94192360Y-91505941D01*
X94193164Y-91501901D01*
X94193806Y-91492118D01*
X94212682Y-91204119D01*
X94212952Y-91200000D01*
X94198247Y-90975647D01*
X94193434Y-90902214D01*
X94193433Y-90902210D01*
X94193164Y-90898099D01*
X94192360Y-90894056D01*
X94134945Y-90605409D01*
X94134943Y-90605403D01*
X94134140Y-90601364D01*
X94128472Y-90584665D01*
X94038215Y-90318778D01*
X94038214Y-90318777D01*
X94036889Y-90314872D01*
X93903075Y-90043524D01*
X93734988Y-89791964D01*
X93535504Y-89564496D01*
X93308036Y-89365012D01*
X93304610Y-89362723D01*
X93304605Y-89362719D01*
X93080640Y-89213071D01*
X93056476Y-89196925D01*
X93052777Y-89195101D01*
X93052772Y-89195098D01*
X92791509Y-89066258D01*
X92785128Y-89063111D01*
X92709330Y-89037381D01*
X92502543Y-88967186D01*
X92502540Y-88967185D01*
X92498636Y-88965860D01*
X92494597Y-88965057D01*
X92494591Y-88965055D01*
X92205944Y-88907640D01*
X92205941Y-88907640D01*
X92201901Y-88906836D01*
X92197790Y-88906567D01*
X92197786Y-88906566D01*
X91904119Y-88887318D01*
X91900000Y-88887048D01*
X91895881Y-88887318D01*
X91602214Y-88906566D01*
X91602210Y-88906567D01*
X91598099Y-88906836D01*
X91594059Y-88907640D01*
X91594056Y-88907640D01*
X91305409Y-88965055D01*
X91305403Y-88965057D01*
X91301364Y-88965860D01*
X91297460Y-88967185D01*
X91297457Y-88967186D01*
X91090670Y-89037381D01*
X91014872Y-89063111D01*
X91008491Y-89066258D01*
X90747228Y-89195098D01*
X90747223Y-89195101D01*
X90743524Y-89196925D01*
X90719360Y-89213071D01*
X90495395Y-89362719D01*
X90495390Y-89362723D01*
X90491964Y-89365012D01*
X90264496Y-89564496D01*
X90065012Y-89791964D01*
X89896925Y-90043524D01*
X89763111Y-90314872D01*
X89761786Y-90318777D01*
X89761785Y-90318778D01*
X89671529Y-90584665D01*
X89665860Y-90601364D01*
X89665057Y-90605403D01*
X89665055Y-90605409D01*
X89607640Y-90894056D01*
X89606836Y-90898099D01*
X89606567Y-90902210D01*
X89606566Y-90902214D01*
X89601753Y-90975647D01*
X89587048Y-91200000D01*
X79313027Y-91200000D01*
X79358238Y-91090851D01*
X79360791Y-91071457D01*
X79365559Y-91035242D01*
X79373900Y-90971886D01*
X79373900Y-90971880D01*
X79378072Y-90940189D01*
X79379150Y-90932000D01*
X79374978Y-90900307D01*
X79373900Y-90883864D01*
X79373900Y-88516336D01*
X79374978Y-88499890D01*
X79378072Y-88476388D01*
X79379150Y-88468200D01*
X79373900Y-88428320D01*
X79373900Y-88428315D01*
X79368863Y-88390056D01*
X79360291Y-88324941D01*
X79360290Y-88324939D01*
X79358238Y-88309350D01*
X79358238Y-88309349D01*
X79296924Y-88161324D01*
X79290143Y-88152486D01*
X79223883Y-88066136D01*
X79223877Y-88066128D01*
X79223874Y-88066125D01*
X79199387Y-88034213D01*
X79192832Y-88029183D01*
X79174021Y-88014748D01*
X79161630Y-88003881D01*
X78615729Y-87457980D01*
X78581703Y-87395668D01*
X78579302Y-87375988D01*
X78579156Y-87376000D01*
X78566858Y-87226411D01*
X78560852Y-87153361D01*
X78506431Y-86936702D01*
X78417354Y-86731840D01*
X78296014Y-86544277D01*
X78292532Y-86540450D01*
X78148798Y-86382488D01*
X78117746Y-86318642D01*
X78126141Y-86248143D01*
X78171317Y-86193375D01*
X78197761Y-86179706D01*
X78304297Y-86139767D01*
X78312705Y-86136615D01*
X78429261Y-86049261D01*
X78516615Y-85932705D01*
X78567745Y-85796316D01*
X78574500Y-85734134D01*
X78574500Y-83937866D01*
X78567745Y-83875684D01*
X78516615Y-83739295D01*
X78429261Y-83622739D01*
X78312705Y-83535385D01*
X78176316Y-83484255D01*
X78114134Y-83477500D01*
X76317866Y-83477500D01*
X76255684Y-83484255D01*
X76119295Y-83535385D01*
X76002739Y-83622739D01*
X75915385Y-83739295D01*
X75864255Y-83875684D01*
X75857500Y-83937866D01*
X75857500Y-85734134D01*
X75864255Y-85796316D01*
X75915385Y-85932705D01*
X76002739Y-86049261D01*
X76119295Y-86136615D01*
X76127704Y-86139767D01*
X76127705Y-86139768D01*
X76236451Y-86180535D01*
X76293216Y-86223176D01*
X76317916Y-86289738D01*
X76302709Y-86359087D01*
X76283316Y-86385568D01*
X76156629Y-86518138D01*
X76030743Y-86702680D01*
X75936688Y-86905305D01*
X75876989Y-87120570D01*
X75853251Y-87342695D01*
X75853548Y-87347848D01*
X75853548Y-87347851D01*
X75861823Y-87491362D01*
X75866110Y-87565715D01*
X75867247Y-87570761D01*
X75867248Y-87570767D01*
X75884717Y-87648281D01*
X75915222Y-87783639D01*
X75966841Y-87910763D01*
X75995482Y-87981296D01*
X75999266Y-87990616D01*
X76025982Y-88034213D01*
X76103876Y-88161324D01*
X76115987Y-88181088D01*
X76262250Y-88349938D01*
X76434126Y-88492632D01*
X76471780Y-88514635D01*
X76507445Y-88535476D01*
X76556169Y-88587114D01*
X76569240Y-88656897D01*
X76542509Y-88722669D01*
X76502055Y-88756027D01*
X76489607Y-88762507D01*
X76485474Y-88765610D01*
X76485471Y-88765612D01*
X76315100Y-88893530D01*
X76310965Y-88896635D01*
X76156629Y-89058138D01*
X76153715Y-89062410D01*
X76153714Y-89062411D01*
X76152928Y-89063563D01*
X76030743Y-89242680D01*
X76029945Y-89244400D01*
X75979589Y-89293088D01*
X75921074Y-89307500D01*
X75232136Y-89307500D01*
X75215693Y-89306422D01*
X75184000Y-89302250D01*
X75175811Y-89303328D01*
X75144126Y-89307499D01*
X75144117Y-89307500D01*
X75144115Y-89307500D01*
X75144109Y-89307501D01*
X75144107Y-89307501D01*
X75044543Y-89320609D01*
X75033336Y-89322084D01*
X75033334Y-89322085D01*
X75025149Y-89323162D01*
X74998984Y-89334000D01*
X74884752Y-89381316D01*
X74884750Y-89381317D01*
X74877124Y-89384476D01*
X74809940Y-89436029D01*
X74750013Y-89482013D01*
X74744987Y-89488563D01*
X74744984Y-89488566D01*
X74730548Y-89507380D01*
X74719681Y-89519771D01*
X72755766Y-91483685D01*
X72743375Y-91494552D01*
X72718013Y-91514013D01*
X72693526Y-91545925D01*
X72693523Y-91545928D01*
X72620476Y-91641124D01*
X72620476Y-91641125D01*
X72559162Y-91789150D01*
X72543500Y-91908115D01*
X72543500Y-91908120D01*
X72538250Y-91948000D01*
X72539328Y-91956188D01*
X72542422Y-91979690D01*
X72543500Y-91996136D01*
X72543500Y-104953361D01*
X72523498Y-105021482D01*
X72506595Y-105042456D01*
X72498595Y-105050456D01*
X72436283Y-105084482D01*
X72365468Y-105079417D01*
X72308632Y-105036870D01*
X72283821Y-104970350D01*
X72283500Y-104961361D01*
X72283500Y-102979450D01*
X72285051Y-102959739D01*
X72286117Y-102953009D01*
X72287149Y-102946493D01*
X72286287Y-102930031D01*
X72283673Y-102880168D01*
X72283500Y-102873574D01*
X72283500Y-102853694D01*
X72281422Y-102833920D01*
X72280905Y-102827346D01*
X72277775Y-102767627D01*
X72277775Y-102767626D01*
X72277429Y-102761028D01*
X72275719Y-102754646D01*
X72275718Y-102754639D01*
X72273958Y-102748069D01*
X72270356Y-102728635D01*
X72269645Y-102721870D01*
X72269645Y-102721869D01*
X72268954Y-102715298D01*
X72248427Y-102652122D01*
X72246555Y-102645803D01*
X72231071Y-102588013D01*
X72231069Y-102588008D01*
X72229362Y-102581637D01*
X72226366Y-102575756D01*
X72226364Y-102575752D01*
X72223272Y-102569683D01*
X72215708Y-102551421D01*
X72213605Y-102544949D01*
X72213603Y-102544945D01*
X72211564Y-102538669D01*
X72204679Y-102526744D01*
X72178347Y-102481135D01*
X72175199Y-102475338D01*
X72166722Y-102458699D01*
X72145047Y-102416160D01*
X72136607Y-102405737D01*
X72125413Y-102389451D01*
X72118704Y-102377831D01*
X72114285Y-102372923D01*
X72114282Y-102372919D01*
X72074255Y-102328464D01*
X72069971Y-102323449D01*
X72059547Y-102310576D01*
X72059544Y-102310573D01*
X72057472Y-102308014D01*
X72043427Y-102293969D01*
X72038886Y-102289184D01*
X71998856Y-102244726D01*
X71998855Y-102244725D01*
X71994434Y-102239815D01*
X71983574Y-102231925D01*
X71968546Y-102219088D01*
X70738553Y-100989095D01*
X70704527Y-100926783D01*
X70709592Y-100855968D01*
X70738550Y-100810908D01*
X71713948Y-99835509D01*
X71728977Y-99822674D01*
X71734484Y-99818673D01*
X71734490Y-99818668D01*
X71739834Y-99814785D01*
X71784295Y-99765406D01*
X71788836Y-99760621D01*
X71802872Y-99746585D01*
X71815369Y-99731153D01*
X71819653Y-99726138D01*
X71859683Y-99681680D01*
X71859687Y-99681675D01*
X71864104Y-99676769D01*
X71870812Y-99665151D01*
X71882007Y-99648863D01*
X71886290Y-99643574D01*
X71886291Y-99643573D01*
X71890448Y-99638439D01*
X71920614Y-99579234D01*
X71923737Y-99573481D01*
X71956964Y-99515931D01*
X71959006Y-99509647D01*
X71959008Y-99509642D01*
X71961108Y-99503179D01*
X71968672Y-99484917D01*
X71971763Y-99478851D01*
X71971766Y-99478842D01*
X71974762Y-99472963D01*
X71991956Y-99408796D01*
X71993822Y-99402494D01*
X72014354Y-99339302D01*
X72015755Y-99325972D01*
X72019358Y-99306529D01*
X72022830Y-99293571D01*
X72026307Y-99227228D01*
X72026824Y-99220659D01*
X72028556Y-99204177D01*
X72028900Y-99200906D01*
X72028900Y-99181045D01*
X72029073Y-99174450D01*
X72032205Y-99114698D01*
X72032205Y-99114694D01*
X72032550Y-99108107D01*
X72030451Y-99094853D01*
X72028900Y-99075144D01*
X72028900Y-97799647D01*
X72035067Y-97760710D01*
X72049943Y-97714927D01*
X72069905Y-97524999D01*
X72062199Y-97451677D01*
X72050634Y-97341641D01*
X72050633Y-97341637D01*
X72049943Y-97335071D01*
X72035067Y-97289288D01*
X72028900Y-97250351D01*
X72028900Y-93424857D01*
X72030451Y-93405145D01*
X72031518Y-93398408D01*
X72032550Y-93391893D01*
X72031587Y-93373504D01*
X72029073Y-93325550D01*
X72028900Y-93318955D01*
X72028900Y-93299094D01*
X72026823Y-93279331D01*
X72026307Y-93272767D01*
X72026241Y-93271498D01*
X72022830Y-93206429D01*
X72019358Y-93193471D01*
X72015755Y-93174028D01*
X72015044Y-93167266D01*
X72014354Y-93160698D01*
X71993822Y-93097506D01*
X71991956Y-93091204D01*
X71977507Y-93037281D01*
X71974762Y-93027037D01*
X71971766Y-93021158D01*
X71971763Y-93021149D01*
X71968672Y-93015083D01*
X71961108Y-92996821D01*
X71959008Y-92990358D01*
X71959006Y-92990353D01*
X71956964Y-92984069D01*
X71923737Y-92926519D01*
X71920614Y-92920766D01*
X71890448Y-92861561D01*
X71882007Y-92851137D01*
X71870812Y-92834849D01*
X71867405Y-92828948D01*
X71867404Y-92828947D01*
X71864104Y-92823231D01*
X71859687Y-92818325D01*
X71859683Y-92818320D01*
X71819653Y-92773862D01*
X71815369Y-92768847D01*
X71804948Y-92755979D01*
X71802872Y-92753415D01*
X71788836Y-92739379D01*
X71784295Y-92734594D01*
X71744256Y-92690126D01*
X71744255Y-92690125D01*
X71739834Y-92685215D01*
X71734494Y-92681335D01*
X71734486Y-92681328D01*
X71728978Y-92677327D01*
X71713943Y-92664486D01*
X67180912Y-88131454D01*
X67168075Y-88116426D01*
X67160185Y-88105566D01*
X67110816Y-88061114D01*
X67106031Y-88056573D01*
X67091986Y-88042528D01*
X67089409Y-88040441D01*
X67076554Y-88030031D01*
X67071538Y-88025747D01*
X67027080Y-87985717D01*
X67027075Y-87985713D01*
X67022169Y-87981296D01*
X67010552Y-87974589D01*
X66994259Y-87963391D01*
X66988971Y-87959109D01*
X66983839Y-87954953D01*
X66924637Y-87924787D01*
X66918867Y-87921654D01*
X66867055Y-87891740D01*
X66867050Y-87891738D01*
X66861331Y-87888436D01*
X66855051Y-87886395D01*
X66855043Y-87886392D01*
X66848579Y-87884292D01*
X66830317Y-87876728D01*
X66824251Y-87873637D01*
X66824242Y-87873634D01*
X66818363Y-87870638D01*
X66807672Y-87867773D01*
X66754196Y-87853444D01*
X66747894Y-87851578D01*
X66684702Y-87831046D01*
X66671372Y-87829645D01*
X66651929Y-87826042D01*
X66638971Y-87822570D01*
X66632381Y-87822225D01*
X66632377Y-87822224D01*
X66588427Y-87819921D01*
X66572628Y-87819093D01*
X66566069Y-87818577D01*
X66546306Y-87816500D01*
X66526445Y-87816500D01*
X66519850Y-87816327D01*
X66460098Y-87813195D01*
X66460094Y-87813195D01*
X66453507Y-87812850D01*
X66440253Y-87814949D01*
X66420544Y-87816500D01*
X65479940Y-87816500D01*
X65466770Y-87815810D01*
X65466755Y-87815808D01*
X65454306Y-87814500D01*
X65434445Y-87814500D01*
X65427850Y-87814327D01*
X65368098Y-87811195D01*
X65368094Y-87811195D01*
X65361507Y-87810850D01*
X65348253Y-87812949D01*
X65328544Y-87814500D01*
X64334347Y-87814500D01*
X64308150Y-87811747D01*
X64209944Y-87790872D01*
X64209939Y-87790872D01*
X64203487Y-87789500D01*
X64012513Y-87789500D01*
X64006061Y-87790872D01*
X64006056Y-87790872D01*
X63919112Y-87809353D01*
X63825712Y-87829206D01*
X63819682Y-87831891D01*
X63819681Y-87831891D01*
X63657278Y-87904197D01*
X63657276Y-87904198D01*
X63651248Y-87906882D01*
X63645907Y-87910762D01*
X63645906Y-87910763D01*
X63626583Y-87924802D01*
X63496747Y-88019134D01*
X63492326Y-88024044D01*
X63492325Y-88024045D01*
X63395832Y-88131212D01*
X63368960Y-88161056D01*
X63273473Y-88326444D01*
X63214458Y-88508072D01*
X63194496Y-88698000D01*
X63195186Y-88704565D01*
X63206446Y-88811694D01*
X63214458Y-88887928D01*
X63273473Y-89069556D01*
X63368960Y-89234944D01*
X63373378Y-89239851D01*
X63373379Y-89239852D01*
X63488522Y-89367731D01*
X63496747Y-89376866D01*
X63651248Y-89489118D01*
X63657276Y-89491802D01*
X63657278Y-89491803D01*
X63720096Y-89519771D01*
X63825712Y-89566794D01*
X63905121Y-89583673D01*
X64006056Y-89605128D01*
X64006061Y-89605128D01*
X64012513Y-89606500D01*
X64203487Y-89606500D01*
X64209939Y-89605128D01*
X64209944Y-89605128D01*
X64308150Y-89584253D01*
X64334347Y-89581500D01*
X65338060Y-89581500D01*
X65351230Y-89582190D01*
X65363694Y-89583500D01*
X65383574Y-89583500D01*
X65390168Y-89583673D01*
X65449901Y-89586804D01*
X65449906Y-89586804D01*
X65456493Y-89587149D01*
X65469740Y-89585051D01*
X65489450Y-89583500D01*
X66081852Y-89583500D01*
X66149973Y-89603502D01*
X66170947Y-89620405D01*
X70224995Y-93674452D01*
X70259021Y-93736764D01*
X70261900Y-93763547D01*
X70261900Y-95155832D01*
X70241898Y-95223953D01*
X70188242Y-95270446D01*
X70149072Y-95281142D01*
X70111674Y-95285073D01*
X70041835Y-95272301D01*
X70009407Y-95248858D01*
X68264315Y-93503766D01*
X68253448Y-93491375D01*
X68239013Y-93472563D01*
X68233987Y-93466013D01*
X68202075Y-93441526D01*
X68202072Y-93441523D01*
X68145884Y-93398408D01*
X68113429Y-93373504D01*
X68113427Y-93373503D01*
X68106876Y-93368476D01*
X67958851Y-93307162D01*
X67950664Y-93306084D01*
X67950663Y-93306084D01*
X67939458Y-93304609D01*
X67908262Y-93300502D01*
X67839885Y-93291500D01*
X67839882Y-93291500D01*
X67839874Y-93291499D01*
X67808189Y-93287328D01*
X67800000Y-93286250D01*
X67768307Y-93290422D01*
X67751864Y-93291500D01*
X66884751Y-93291500D01*
X66816630Y-93271498D01*
X66812157Y-93268276D01*
X66809815Y-93265918D01*
X66798697Y-93258862D01*
X66733424Y-93217439D01*
X66656666Y-93168727D01*
X66602159Y-93149318D01*
X66492425Y-93110243D01*
X66492420Y-93110242D01*
X66485790Y-93107881D01*
X66478802Y-93107048D01*
X66478799Y-93107047D01*
X66355698Y-93092368D01*
X66305680Y-93086404D01*
X66298677Y-93087140D01*
X66298676Y-93087140D01*
X66132288Y-93104628D01*
X66132286Y-93104629D01*
X66125288Y-93105364D01*
X65953579Y-93163818D01*
X65905369Y-93193477D01*
X65805095Y-93255166D01*
X65805092Y-93255168D01*
X65799088Y-93258862D01*
X65794053Y-93263793D01*
X65794050Y-93263795D01*
X65674525Y-93380843D01*
X65669493Y-93385771D01*
X65571235Y-93538238D01*
X65568826Y-93544858D01*
X65568824Y-93544861D01*
X65538773Y-93627425D01*
X65509197Y-93708685D01*
X65486463Y-93888640D01*
X65504163Y-94069160D01*
X65561418Y-94241273D01*
X65565065Y-94247295D01*
X65565066Y-94247297D01*
X65620782Y-94339296D01*
X65638961Y-94407926D01*
X65631408Y-94447661D01*
X65609197Y-94508685D01*
X65586463Y-94688640D01*
X65604163Y-94869160D01*
X65661418Y-95041273D01*
X65665065Y-95047295D01*
X65665066Y-95047297D01*
X65730797Y-95155832D01*
X65755380Y-95196424D01*
X65760269Y-95201487D01*
X65760270Y-95201488D01*
X65806015Y-95248858D01*
X65881382Y-95326902D01*
X66033159Y-95426222D01*
X66039763Y-95428678D01*
X66039765Y-95428679D01*
X66196558Y-95486990D01*
X66196560Y-95486990D01*
X66203168Y-95489448D01*
X66286995Y-95500633D01*
X66375980Y-95512507D01*
X66375984Y-95512507D01*
X66382961Y-95513438D01*
X66389972Y-95512800D01*
X66389976Y-95512800D01*
X66532459Y-95499832D01*
X66563600Y-95496998D01*
X66570302Y-95494820D01*
X66570304Y-95494820D01*
X66729409Y-95443124D01*
X66729412Y-95443123D01*
X66736108Y-95440947D01*
X66891912Y-95348069D01*
X66897013Y-95343212D01*
X66902626Y-95338951D01*
X66903385Y-95339952D01*
X66960090Y-95310762D01*
X66983860Y-95308500D01*
X67407759Y-95308500D01*
X67475880Y-95328502D01*
X67496854Y-95345405D01*
X68051939Y-95900490D01*
X68085965Y-95962802D01*
X68080900Y-96033617D01*
X68038353Y-96090453D01*
X67971833Y-96115264D01*
X67902459Y-96100173D01*
X67895330Y-96095970D01*
X67852402Y-96068727D01*
X67823199Y-96058328D01*
X67688161Y-96010243D01*
X67688156Y-96010242D01*
X67681526Y-96007881D01*
X67674538Y-96007048D01*
X67674535Y-96007047D01*
X67551434Y-95992368D01*
X67501416Y-95986404D01*
X67494413Y-95987140D01*
X67494412Y-95987140D01*
X67328024Y-96004628D01*
X67328022Y-96004629D01*
X67321024Y-96005364D01*
X67149315Y-96063818D01*
X67143311Y-96067512D01*
X67000831Y-96155166D01*
X67000828Y-96155168D01*
X66994824Y-96158862D01*
X66989789Y-96163793D01*
X66989786Y-96163795D01*
X66870261Y-96280843D01*
X66865229Y-96285771D01*
X66766971Y-96438238D01*
X66764562Y-96444858D01*
X66764560Y-96444861D01*
X66707342Y-96602066D01*
X66704933Y-96608685D01*
X66704050Y-96615675D01*
X66692761Y-96705034D01*
X66664379Y-96770111D01*
X66656850Y-96778337D01*
X66041523Y-97393664D01*
X66039013Y-97396935D01*
X66032483Y-97405445D01*
X66021616Y-97417835D01*
X64603766Y-98835685D01*
X64591375Y-98846552D01*
X64566013Y-98866013D01*
X64541526Y-98897925D01*
X64541523Y-98897928D01*
X64468476Y-98993124D01*
X64407937Y-99139278D01*
X64407162Y-99141150D01*
X64391500Y-99260115D01*
X64391500Y-99260120D01*
X64386250Y-99300000D01*
X64390247Y-99330358D01*
X64390422Y-99331690D01*
X64391500Y-99348136D01*
X64391500Y-99895762D01*
X64371498Y-99963883D01*
X64354595Y-99984857D01*
X64303771Y-100035681D01*
X64291380Y-100046548D01*
X64266013Y-100066013D01*
X64260987Y-100072563D01*
X64246548Y-100091380D01*
X64235681Y-100103771D01*
X62296296Y-102043155D01*
X62233984Y-102077181D01*
X62163168Y-102072116D01*
X62159579Y-102070575D01*
X62156666Y-102068727D01*
X62075906Y-102039970D01*
X61992425Y-102010243D01*
X61992420Y-102010242D01*
X61985790Y-102007881D01*
X61978802Y-102007048D01*
X61978799Y-102007047D01*
X61855698Y-101992368D01*
X61805680Y-101986404D01*
X61798677Y-101987140D01*
X61798676Y-101987140D01*
X61632288Y-102004628D01*
X61632286Y-102004629D01*
X61625288Y-102005364D01*
X61453579Y-102063818D01*
X61431858Y-102077181D01*
X61305095Y-102155166D01*
X61305092Y-102155168D01*
X61299088Y-102158862D01*
X61294053Y-102163793D01*
X61294050Y-102163795D01*
X61179348Y-102276120D01*
X61169493Y-102285771D01*
X61071235Y-102438238D01*
X61068826Y-102444858D01*
X61068824Y-102444861D01*
X61013401Y-102597134D01*
X61009197Y-102608685D01*
X60986463Y-102788640D01*
X61004163Y-102969160D01*
X61061418Y-103141273D01*
X61065065Y-103147295D01*
X61065066Y-103147297D01*
X61151295Y-103289678D01*
X61155380Y-103296424D01*
X61160269Y-103301487D01*
X61160270Y-103301488D01*
X61173255Y-103314934D01*
X61281382Y-103426902D01*
X61304564Y-103442072D01*
X61413093Y-103513091D01*
X61433159Y-103526222D01*
X61439763Y-103528678D01*
X61439765Y-103528679D01*
X61596558Y-103586990D01*
X61596560Y-103586990D01*
X61603168Y-103589448D01*
X61677626Y-103599383D01*
X61775980Y-103612507D01*
X61775984Y-103612507D01*
X61782961Y-103613438D01*
X61789972Y-103612800D01*
X61789976Y-103612800D01*
X61937394Y-103599383D01*
X61963600Y-103596998D01*
X61970302Y-103594820D01*
X61970304Y-103594820D01*
X62129409Y-103543124D01*
X62129412Y-103543123D01*
X62136108Y-103540947D01*
X62232513Y-103483478D01*
X62285860Y-103451677D01*
X62285862Y-103451676D01*
X62291912Y-103448069D01*
X62297018Y-103443207D01*
X62397597Y-103347427D01*
X62460722Y-103314934D01*
X62484489Y-103312672D01*
X62491811Y-103312672D01*
X62500000Y-103313750D01*
X62508189Y-103312672D01*
X62539874Y-103308501D01*
X62539884Y-103308500D01*
X62539885Y-103308500D01*
X62639457Y-103295391D01*
X62650664Y-103293916D01*
X62650666Y-103293915D01*
X62658851Y-103292838D01*
X62806876Y-103231524D01*
X62820241Y-103221269D01*
X62902072Y-103158477D01*
X62902075Y-103158474D01*
X62927437Y-103139013D01*
X62933987Y-103133987D01*
X62953458Y-103108613D01*
X62964316Y-103096233D01*
X64610905Y-101449644D01*
X64673217Y-101415618D01*
X64744032Y-101420683D01*
X64789095Y-101449644D01*
X65915856Y-102576405D01*
X65949882Y-102638717D01*
X65944817Y-102709532D01*
X65902270Y-102766368D01*
X65835750Y-102791179D01*
X65826761Y-102791500D01*
X64448136Y-102791500D01*
X64431690Y-102790422D01*
X64416604Y-102788436D01*
X64400000Y-102786250D01*
X64383396Y-102788436D01*
X64360129Y-102791499D01*
X64360120Y-102791500D01*
X64360115Y-102791500D01*
X64241150Y-102807162D01*
X64093125Y-102868476D01*
X64093123Y-102868477D01*
X64093124Y-102868477D01*
X63997928Y-102941523D01*
X63997925Y-102941526D01*
X63966013Y-102966013D01*
X63960983Y-102972568D01*
X63946548Y-102991379D01*
X63935681Y-103003770D01*
X62578416Y-104361035D01*
X62516104Y-104395061D01*
X62502495Y-104397249D01*
X62480802Y-104399529D01*
X62432296Y-104404627D01*
X62432292Y-104404628D01*
X62425288Y-104405364D01*
X62356800Y-104428679D01*
X62279171Y-104455106D01*
X62253579Y-104463818D01*
X62221587Y-104483500D01*
X62105095Y-104555166D01*
X62105092Y-104555168D01*
X62099088Y-104558862D01*
X62094053Y-104563793D01*
X62094050Y-104563795D01*
X61993621Y-104662143D01*
X61969493Y-104685771D01*
X61871235Y-104838238D01*
X61868826Y-104844858D01*
X61868824Y-104844861D01*
X61822277Y-104972749D01*
X61809197Y-105008685D01*
X61786463Y-105188640D01*
X61791259Y-105237549D01*
X61797695Y-105303195D01*
X61784435Y-105372942D01*
X61735573Y-105424449D01*
X61672296Y-105441490D01*
X61443137Y-105441490D01*
X61375016Y-105421488D01*
X61354042Y-105404585D01*
X60177299Y-104227841D01*
X58980912Y-103031454D01*
X58968075Y-103016426D01*
X58960185Y-103005566D01*
X58929627Y-102978051D01*
X58910816Y-102961114D01*
X58906031Y-102956573D01*
X58891986Y-102942528D01*
X58888742Y-102939901D01*
X58876554Y-102930031D01*
X58871538Y-102925747D01*
X58827080Y-102885717D01*
X58827075Y-102885713D01*
X58822169Y-102881296D01*
X58810552Y-102874589D01*
X58794259Y-102863391D01*
X58788971Y-102859109D01*
X58783839Y-102854953D01*
X58724637Y-102824787D01*
X58718867Y-102821654D01*
X58667055Y-102791740D01*
X58667050Y-102791738D01*
X58661331Y-102788436D01*
X58655051Y-102786395D01*
X58655043Y-102786392D01*
X58648579Y-102784292D01*
X58630317Y-102776728D01*
X58624251Y-102773637D01*
X58624242Y-102773634D01*
X58618363Y-102770638D01*
X58605723Y-102767251D01*
X58554196Y-102753444D01*
X58547873Y-102751571D01*
X58491769Y-102733342D01*
X58433164Y-102693269D01*
X58405490Y-102627554D01*
X58394182Y-102526744D01*
X58393397Y-102519745D01*
X58391080Y-102513091D01*
X58336064Y-102355106D01*
X58336062Y-102355103D01*
X58333745Y-102348448D01*
X58237626Y-102194624D01*
X58235215Y-102192196D01*
X58209117Y-102127716D01*
X58208500Y-102115263D01*
X58208500Y-102004239D01*
X58228502Y-101936118D01*
X58245405Y-101915144D01*
X59215144Y-100945405D01*
X59277456Y-100911379D01*
X59304239Y-100908500D01*
X60851864Y-100908500D01*
X60868307Y-100909578D01*
X60900000Y-100913750D01*
X60908189Y-100912672D01*
X60939874Y-100908501D01*
X60939884Y-100908500D01*
X60939885Y-100908500D01*
X61004449Y-100900000D01*
X61039457Y-100895391D01*
X61050664Y-100893916D01*
X61050666Y-100893915D01*
X61058851Y-100892838D01*
X61206876Y-100831524D01*
X61251620Y-100797191D01*
X61302072Y-100758477D01*
X61302075Y-100758474D01*
X61327437Y-100739013D01*
X61333987Y-100733987D01*
X61353447Y-100708627D01*
X61364312Y-100696237D01*
X61690866Y-100369683D01*
X62021281Y-100039267D01*
X62083594Y-100005242D01*
X62098957Y-100002881D01*
X62156579Y-99997637D01*
X62163600Y-99996998D01*
X62170302Y-99994820D01*
X62170304Y-99994820D01*
X62329409Y-99943124D01*
X62329412Y-99943123D01*
X62336108Y-99940947D01*
X62461811Y-99866013D01*
X62485860Y-99851677D01*
X62485862Y-99851676D01*
X62491912Y-99848069D01*
X62623266Y-99722982D01*
X62723643Y-99571902D01*
X62788055Y-99402338D01*
X62795732Y-99347713D01*
X62812748Y-99226639D01*
X62812748Y-99226636D01*
X62813299Y-99222717D01*
X62813616Y-99200000D01*
X62793397Y-99019745D01*
X62791080Y-99013091D01*
X62736064Y-98855106D01*
X62736062Y-98855103D01*
X62733745Y-98848448D01*
X62637626Y-98694624D01*
X62635215Y-98692196D01*
X62609117Y-98627716D01*
X62608500Y-98615263D01*
X62608500Y-83152984D01*
X62628502Y-83084863D01*
X62676022Y-83044079D01*
X62674999Y-83042307D01*
X62680722Y-83039003D01*
X62686752Y-83036318D01*
X62841253Y-82924066D01*
X62867074Y-82895389D01*
X62927520Y-82858150D01*
X62960710Y-82853700D01*
X65456361Y-82853700D01*
X65524482Y-82873702D01*
X65545456Y-82890605D01*
X70982595Y-88327744D01*
X71016621Y-88390056D01*
X71019500Y-88416839D01*
X71019500Y-89261910D01*
X70999498Y-89330031D01*
X70987136Y-89346220D01*
X70948165Y-89389502D01*
X70888960Y-89455256D01*
X70851712Y-89519771D01*
X70813011Y-89586804D01*
X70793473Y-89620644D01*
X70734458Y-89802272D01*
X70714496Y-89992200D01*
X70734458Y-90182128D01*
X70793473Y-90363756D01*
X70888960Y-90529144D01*
X71016747Y-90671066D01*
X71171248Y-90783318D01*
X71177276Y-90786002D01*
X71177278Y-90786003D01*
X71339681Y-90858309D01*
X71345712Y-90860994D01*
X71439112Y-90880847D01*
X71526056Y-90899328D01*
X71526061Y-90899328D01*
X71532513Y-90900700D01*
X71723487Y-90900700D01*
X71729939Y-90899328D01*
X71729944Y-90899328D01*
X71816888Y-90880847D01*
X71910288Y-90860994D01*
X71916319Y-90858309D01*
X72078722Y-90786003D01*
X72078724Y-90786002D01*
X72084752Y-90783318D01*
X72239253Y-90671066D01*
X72367040Y-90529144D01*
X72462527Y-90363756D01*
X72521542Y-90182128D01*
X72541504Y-89992200D01*
X72521542Y-89802272D01*
X72462527Y-89620644D01*
X72442990Y-89586804D01*
X72404288Y-89519771D01*
X72367040Y-89455256D01*
X72307835Y-89389502D01*
X72268864Y-89346220D01*
X72238146Y-89282213D01*
X72236500Y-89261910D01*
X72236500Y-88160744D01*
X72237578Y-88144298D01*
X72240673Y-88120788D01*
X72241751Y-88112600D01*
X72220838Y-87953749D01*
X72159524Y-87805724D01*
X72086478Y-87710529D01*
X72086474Y-87710525D01*
X72086471Y-87710521D01*
X72067016Y-87685166D01*
X72067013Y-87685163D01*
X72061987Y-87678613D01*
X72055432Y-87673583D01*
X72036621Y-87659148D01*
X72024230Y-87648281D01*
X66224915Y-81848966D01*
X66214048Y-81836575D01*
X66199613Y-81817763D01*
X66194587Y-81811213D01*
X66162675Y-81786726D01*
X66162672Y-81786723D01*
X66067476Y-81713676D01*
X65919451Y-81652362D01*
X65911264Y-81651284D01*
X65911263Y-81651284D01*
X65900058Y-81649809D01*
X65868862Y-81645702D01*
X65800485Y-81636700D01*
X65800482Y-81636700D01*
X65800474Y-81636699D01*
X65768789Y-81632528D01*
X65760600Y-81631450D01*
X65728907Y-81635622D01*
X65712464Y-81636700D01*
X62960710Y-81636700D01*
X62892589Y-81616698D01*
X62867074Y-81595011D01*
X62845668Y-81571237D01*
X62845666Y-81571236D01*
X62841253Y-81566334D01*
X62686752Y-81454082D01*
X62680724Y-81451398D01*
X62680722Y-81451397D01*
X62675578Y-81449107D01*
X62621482Y-81403127D01*
X62600833Y-81335199D01*
X62620185Y-81266891D01*
X62673396Y-81219890D01*
X62726827Y-81208000D01*
X98466000Y-81208000D01*
X98534121Y-81228002D01*
X98580614Y-81281658D01*
X98592000Y-81334000D01*
X98592000Y-86900672D01*
X98590500Y-86920057D01*
X98588648Y-86931954D01*
X98586814Y-86943730D01*
X98587978Y-86952632D01*
X98587964Y-86953806D01*
X98588344Y-86957786D01*
X98588922Y-86967333D01*
X98604366Y-87222669D01*
X98653606Y-87491362D01*
X98734875Y-87752161D01*
X98736436Y-87755630D01*
X98736437Y-87755632D01*
X98838000Y-87981296D01*
X98846986Y-88001263D01*
X98848954Y-88004518D01*
X98848960Y-88004530D01*
X98983159Y-88226522D01*
X99001331Y-88291461D01*
X99008918Y-92213976D01*
X99070829Y-124221545D01*
X99071397Y-124515183D01*
X99051527Y-124583343D01*
X99044582Y-124593134D01*
X99011224Y-124635713D01*
X98988306Y-124664965D01*
X98986339Y-124668219D01*
X98848956Y-124895477D01*
X98848951Y-124895486D01*
X98846986Y-124898737D01*
X98845426Y-124902202D01*
X98845425Y-124902205D01*
X98736437Y-125144368D01*
X98734875Y-125147839D01*
X98653606Y-125408638D01*
X98652920Y-125412383D01*
X98652918Y-125412390D01*
X98649716Y-125429865D01*
X98604366Y-125677331D01*
X98604137Y-125681121D01*
X98604136Y-125681127D01*
X98589524Y-125922703D01*
X98588254Y-125934477D01*
X98588196Y-125934853D01*
X98586814Y-125943730D01*
X98587978Y-125952632D01*
X98587978Y-125952635D01*
X98590936Y-125975251D01*
X98592000Y-125991589D01*
X98592000Y-131566000D01*
X98571998Y-131634121D01*
X98518342Y-131680614D01*
X98466000Y-131692000D01*
X35034000Y-131692000D01*
X34965879Y-131671998D01*
X34919386Y-131618342D01*
X34908000Y-131566000D01*
X34908000Y-129617548D01*
X56022000Y-129617548D01*
X56022000Y-129696657D01*
X56022301Y-129702805D01*
X56035812Y-129840603D01*
X56038195Y-129852638D01*
X56091767Y-130030076D01*
X56096441Y-130041416D01*
X56183460Y-130205077D01*
X56190249Y-130215294D01*
X56307397Y-130358933D01*
X56316041Y-130367637D01*
X56458856Y-130485784D01*
X56469027Y-130492644D01*
X56632076Y-130580804D01*
X56643381Y-130585556D01*
X56758692Y-130621250D01*
X56772795Y-130621456D01*
X56776000Y-130614701D01*
X56776000Y-129622115D01*
X56774659Y-129617548D01*
X57284000Y-129617548D01*
X57284000Y-130607924D01*
X57287973Y-130621455D01*
X57295768Y-130622575D01*
X57403521Y-130590862D01*
X57414889Y-130586269D01*
X57579154Y-130500393D01*
X57589415Y-130493679D01*
X57733873Y-130377532D01*
X57742632Y-130368954D01*
X57861778Y-130226961D01*
X57868708Y-130216841D01*
X57958002Y-130054415D01*
X57962834Y-130043142D01*
X58018880Y-129866462D01*
X58021430Y-129854468D01*
X58037607Y-129710239D01*
X58038000Y-129703215D01*
X58038000Y-129622115D01*
X58036659Y-129617548D01*
X64662000Y-129617548D01*
X64662000Y-129696657D01*
X64662301Y-129702805D01*
X64675812Y-129840603D01*
X64678195Y-129852638D01*
X64731767Y-130030076D01*
X64736441Y-130041416D01*
X64823460Y-130205077D01*
X64830249Y-130215294D01*
X64947397Y-130358933D01*
X64956041Y-130367637D01*
X65098856Y-130485784D01*
X65109027Y-130492644D01*
X65272076Y-130580804D01*
X65283381Y-130585556D01*
X65398692Y-130621250D01*
X65412795Y-130621456D01*
X65416000Y-130614701D01*
X65416000Y-129622115D01*
X65414659Y-129617548D01*
X65924000Y-129617548D01*
X65924000Y-130607924D01*
X65927973Y-130621455D01*
X65935768Y-130622575D01*
X66043521Y-130590862D01*
X66054889Y-130586269D01*
X66219154Y-130500393D01*
X66229415Y-130493679D01*
X66373873Y-130377532D01*
X66382632Y-130368954D01*
X66501778Y-130226961D01*
X66508708Y-130216841D01*
X66598002Y-130054415D01*
X66602834Y-130043142D01*
X66658880Y-129866462D01*
X66661430Y-129854468D01*
X66677607Y-129710239D01*
X66678000Y-129703215D01*
X66678000Y-129622115D01*
X66673525Y-129606876D01*
X66672135Y-129605671D01*
X66664452Y-129604000D01*
X65942115Y-129604000D01*
X65926876Y-129608475D01*
X65925671Y-129609865D01*
X65924000Y-129617548D01*
X65414659Y-129617548D01*
X65411525Y-129606876D01*
X65410135Y-129605671D01*
X65402452Y-129604000D01*
X64680115Y-129604000D01*
X64664876Y-129608475D01*
X64663671Y-129609865D01*
X64662000Y-129617548D01*
X58036659Y-129617548D01*
X58033525Y-129606876D01*
X58032135Y-129605671D01*
X58024452Y-129604000D01*
X57302115Y-129604000D01*
X57286876Y-129608475D01*
X57285671Y-129609865D01*
X57284000Y-129617548D01*
X56774659Y-129617548D01*
X56771525Y-129606876D01*
X56770135Y-129605671D01*
X56762452Y-129604000D01*
X56040115Y-129604000D01*
X56024876Y-129608475D01*
X56023671Y-129609865D01*
X56022000Y-129617548D01*
X34908000Y-129617548D01*
X34908000Y-128996785D01*
X56022000Y-128996785D01*
X56022000Y-129077885D01*
X56026475Y-129093124D01*
X56027865Y-129094329D01*
X56035548Y-129096000D01*
X56757885Y-129096000D01*
X56773124Y-129091525D01*
X56774329Y-129090135D01*
X56776000Y-129082452D01*
X56776000Y-128092076D01*
X56774010Y-128085299D01*
X57284000Y-128085299D01*
X57284000Y-129077885D01*
X57288475Y-129093124D01*
X57289865Y-129094329D01*
X57297548Y-129096000D01*
X58019885Y-129096000D01*
X58035124Y-129091525D01*
X58036329Y-129090135D01*
X58038000Y-129082452D01*
X58038000Y-129003343D01*
X58037699Y-128997195D01*
X58037659Y-128996785D01*
X64662000Y-128996785D01*
X64662000Y-129077885D01*
X64666475Y-129093124D01*
X64667865Y-129094329D01*
X64675548Y-129096000D01*
X65397885Y-129096000D01*
X65413124Y-129091525D01*
X65414329Y-129090135D01*
X65416000Y-129082452D01*
X65416000Y-128092076D01*
X65414010Y-128085299D01*
X65924000Y-128085299D01*
X65924000Y-129077885D01*
X65928475Y-129093124D01*
X65929865Y-129094329D01*
X65937548Y-129096000D01*
X66659885Y-129096000D01*
X66675124Y-129091525D01*
X66676329Y-129090135D01*
X66678000Y-129082452D01*
X66678000Y-129003343D01*
X66677699Y-128997195D01*
X66664188Y-128859397D01*
X66661805Y-128847362D01*
X66608233Y-128669924D01*
X66603559Y-128658584D01*
X66516540Y-128494923D01*
X66509751Y-128484706D01*
X66392603Y-128341067D01*
X66383959Y-128332363D01*
X66241144Y-128214216D01*
X66230973Y-128207356D01*
X66067924Y-128119196D01*
X66056619Y-128114444D01*
X65941308Y-128078750D01*
X65927205Y-128078544D01*
X65924000Y-128085299D01*
X65414010Y-128085299D01*
X65412027Y-128078545D01*
X65404232Y-128077425D01*
X65296479Y-128109138D01*
X65285111Y-128113731D01*
X65120846Y-128199607D01*
X65110585Y-128206321D01*
X64966127Y-128322468D01*
X64957368Y-128331046D01*
X64838222Y-128473039D01*
X64831292Y-128483159D01*
X64741998Y-128645585D01*
X64737166Y-128656858D01*
X64681120Y-128833538D01*
X64678570Y-128845532D01*
X64662393Y-128989761D01*
X64662000Y-128996785D01*
X58037659Y-128996785D01*
X58024188Y-128859397D01*
X58021805Y-128847362D01*
X57968233Y-128669924D01*
X57963559Y-128658584D01*
X57876540Y-128494923D01*
X57869751Y-128484706D01*
X57752603Y-128341067D01*
X57743959Y-128332363D01*
X57601144Y-128214216D01*
X57590973Y-128207356D01*
X57427924Y-128119196D01*
X57416619Y-128114444D01*
X57301308Y-128078750D01*
X57287205Y-128078544D01*
X57284000Y-128085299D01*
X56774010Y-128085299D01*
X56772027Y-128078545D01*
X56764232Y-128077425D01*
X56656479Y-128109138D01*
X56645111Y-128113731D01*
X56480846Y-128199607D01*
X56470585Y-128206321D01*
X56326127Y-128322468D01*
X56317368Y-128331046D01*
X56198222Y-128473039D01*
X56191292Y-128483159D01*
X56101998Y-128645585D01*
X56097166Y-128656858D01*
X56041120Y-128833538D01*
X56038570Y-128845532D01*
X56022393Y-128989761D01*
X56022000Y-128996785D01*
X34908000Y-128996785D01*
X34908000Y-126003207D01*
X34909746Y-125982303D01*
X34912264Y-125967335D01*
X34913071Y-125962539D01*
X34913224Y-125950000D01*
X34912056Y-125941843D01*
X34911013Y-125931585D01*
X34895864Y-125681129D01*
X34895863Y-125681125D01*
X34895634Y-125677331D01*
X34869060Y-125532321D01*
X34851692Y-125437548D01*
X56022000Y-125437548D01*
X56022000Y-125766657D01*
X56022301Y-125772805D01*
X56035812Y-125910603D01*
X56038195Y-125922638D01*
X56091767Y-126100076D01*
X56096441Y-126111416D01*
X56183460Y-126275077D01*
X56190249Y-126285294D01*
X56307397Y-126428933D01*
X56316041Y-126437637D01*
X56458856Y-126555784D01*
X56469027Y-126562644D01*
X56632076Y-126650804D01*
X56643381Y-126655556D01*
X56758692Y-126691250D01*
X56772795Y-126691456D01*
X56776000Y-126684701D01*
X56776000Y-125442115D01*
X56771525Y-125426876D01*
X56770135Y-125425671D01*
X56762452Y-125424000D01*
X56040115Y-125424000D01*
X56024876Y-125428475D01*
X56023671Y-125429865D01*
X56022000Y-125437548D01*
X34851692Y-125437548D01*
X34847082Y-125412390D01*
X34847080Y-125412383D01*
X34846394Y-125408638D01*
X34765125Y-125147839D01*
X34763563Y-125144368D01*
X34654575Y-124902205D01*
X34654574Y-124902202D01*
X34653014Y-124898737D01*
X34651049Y-124895486D01*
X34651044Y-124895477D01*
X34513661Y-124668219D01*
X34511694Y-124664965D01*
X34488777Y-124635713D01*
X34434775Y-124566785D01*
X56022000Y-124566785D01*
X56022000Y-124897885D01*
X56026475Y-124913124D01*
X56027865Y-124914329D01*
X56035548Y-124916000D01*
X56757885Y-124916000D01*
X56773124Y-124911525D01*
X56774329Y-124910135D01*
X56776000Y-124902452D01*
X56776000Y-123662076D01*
X56774010Y-123655299D01*
X57284000Y-123655299D01*
X57284000Y-126677924D01*
X57287973Y-126691455D01*
X57295768Y-126692575D01*
X57403521Y-126660862D01*
X57414889Y-126656269D01*
X57579154Y-126570393D01*
X57589415Y-126563679D01*
X57733873Y-126447532D01*
X57742632Y-126438954D01*
X57786947Y-126386142D01*
X57846057Y-126346815D01*
X57917044Y-126345689D01*
X57957530Y-126365197D01*
X58035612Y-126421927D01*
X58040954Y-126425808D01*
X58046982Y-126428492D01*
X58046984Y-126428493D01*
X58194985Y-126494387D01*
X58201016Y-126497072D01*
X58286706Y-126515286D01*
X58365939Y-126532128D01*
X58365943Y-126532128D01*
X58372396Y-126533500D01*
X58547604Y-126533500D01*
X58554057Y-126532128D01*
X58554061Y-126532128D01*
X58633294Y-126515286D01*
X58718984Y-126497072D01*
X58725015Y-126494387D01*
X58873016Y-126428493D01*
X58873018Y-126428492D01*
X58879046Y-126425808D01*
X58931419Y-126387757D01*
X59015453Y-126326702D01*
X59020792Y-126322823D01*
X59044079Y-126296961D01*
X59133611Y-126197526D01*
X59133612Y-126197525D01*
X59138030Y-126192618D01*
X59141330Y-126186902D01*
X59141333Y-126186898D01*
X59222331Y-126046603D01*
X59225634Y-126040882D01*
X59237876Y-126003207D01*
X59253583Y-125954865D01*
X59279777Y-125874249D01*
X59284565Y-125828699D01*
X59297401Y-125706565D01*
X59298091Y-125700000D01*
X63401909Y-125700000D01*
X63402599Y-125706565D01*
X63415436Y-125828699D01*
X63420223Y-125874249D01*
X63446417Y-125954865D01*
X63462125Y-126003207D01*
X63474366Y-126040882D01*
X63477669Y-126046603D01*
X63558667Y-126186898D01*
X63558670Y-126186902D01*
X63561970Y-126192618D01*
X63566388Y-126197525D01*
X63566389Y-126197526D01*
X63655922Y-126296961D01*
X63679208Y-126322823D01*
X63684547Y-126326702D01*
X63768582Y-126387757D01*
X63820954Y-126425808D01*
X63826982Y-126428492D01*
X63826984Y-126428493D01*
X63974985Y-126494387D01*
X63981016Y-126497072D01*
X64066706Y-126515286D01*
X64145939Y-126532128D01*
X64145943Y-126532128D01*
X64152396Y-126533500D01*
X64327604Y-126533500D01*
X64334057Y-126532128D01*
X64334061Y-126532128D01*
X64413294Y-126515286D01*
X64498984Y-126497072D01*
X64505015Y-126494387D01*
X64653016Y-126428493D01*
X64653018Y-126428492D01*
X64659046Y-126425808D01*
X64742113Y-126365456D01*
X64808978Y-126341599D01*
X64878130Y-126357679D01*
X64913815Y-126387757D01*
X64947397Y-126428932D01*
X64956041Y-126437637D01*
X65098856Y-126555784D01*
X65109027Y-126562644D01*
X65272076Y-126650804D01*
X65283381Y-126655556D01*
X65398692Y-126691250D01*
X65412795Y-126691456D01*
X65416000Y-126684701D01*
X65416000Y-125437548D01*
X65924000Y-125437548D01*
X65924000Y-126677924D01*
X65927973Y-126691455D01*
X65935768Y-126692575D01*
X66043521Y-126660862D01*
X66054889Y-126656269D01*
X66219154Y-126570393D01*
X66229415Y-126563679D01*
X66373873Y-126447532D01*
X66382632Y-126438954D01*
X66501778Y-126296961D01*
X66508708Y-126286841D01*
X66598002Y-126124415D01*
X66602834Y-126113142D01*
X66658880Y-125936462D01*
X66661430Y-125924468D01*
X66677607Y-125780239D01*
X66678000Y-125773215D01*
X66678000Y-125442115D01*
X66673525Y-125426876D01*
X66672135Y-125425671D01*
X66664452Y-125424000D01*
X65942115Y-125424000D01*
X65926876Y-125428475D01*
X65925671Y-125429865D01*
X65924000Y-125437548D01*
X65416000Y-125437548D01*
X65416000Y-125287966D01*
X69968257Y-125287966D01*
X69998565Y-125422446D01*
X70001645Y-125432275D01*
X70081770Y-125629603D01*
X70086413Y-125638794D01*
X70197694Y-125820388D01*
X70203777Y-125828699D01*
X70343213Y-125989667D01*
X70350580Y-125996883D01*
X70514434Y-126132916D01*
X70522881Y-126138831D01*
X70706756Y-126246279D01*
X70716042Y-126250729D01*
X70915001Y-126326703D01*
X70924899Y-126329579D01*
X71028250Y-126350606D01*
X71042299Y-126349410D01*
X71046000Y-126339065D01*
X71046000Y-125292115D01*
X71044659Y-125287548D01*
X71554000Y-125287548D01*
X71554000Y-126338517D01*
X71558064Y-126352359D01*
X71571478Y-126354393D01*
X71578184Y-126353534D01*
X71588262Y-126351392D01*
X71792255Y-126290191D01*
X71801842Y-126286433D01*
X71993095Y-126192739D01*
X72001945Y-126187464D01*
X72175328Y-126063792D01*
X72183200Y-126057139D01*
X72334052Y-125906812D01*
X72340730Y-125898965D01*
X72465003Y-125726020D01*
X72470313Y-125717183D01*
X72564670Y-125526267D01*
X72568469Y-125516672D01*
X72630377Y-125312910D01*
X72632555Y-125302837D01*
X72633986Y-125291962D01*
X72631775Y-125277778D01*
X72618617Y-125274000D01*
X71572115Y-125274000D01*
X71556876Y-125278475D01*
X71555671Y-125279865D01*
X71554000Y-125287548D01*
X71044659Y-125287548D01*
X71041525Y-125276876D01*
X71040135Y-125275671D01*
X71032452Y-125274000D01*
X69983225Y-125274000D01*
X69969694Y-125277973D01*
X69968257Y-125287966D01*
X65416000Y-125287966D01*
X65416000Y-123662076D01*
X65414010Y-123655299D01*
X65924000Y-123655299D01*
X65924000Y-124897885D01*
X65928475Y-124913124D01*
X65929865Y-124914329D01*
X65937548Y-124916000D01*
X66659885Y-124916000D01*
X66675124Y-124911525D01*
X66676329Y-124910135D01*
X66678000Y-124902452D01*
X66678000Y-124573343D01*
X66677699Y-124567195D01*
X66664188Y-124429397D01*
X66661805Y-124417362D01*
X66608233Y-124239924D01*
X66603559Y-124228584D01*
X66516540Y-124064923D01*
X66509751Y-124054706D01*
X66392603Y-123911067D01*
X66383959Y-123902363D01*
X66241144Y-123784216D01*
X66230973Y-123777356D01*
X66067924Y-123689196D01*
X66056619Y-123684444D01*
X65941308Y-123648750D01*
X65927205Y-123648544D01*
X65924000Y-123655299D01*
X65414010Y-123655299D01*
X65412027Y-123648545D01*
X65404232Y-123647425D01*
X65296479Y-123679138D01*
X65285111Y-123683731D01*
X65120846Y-123769607D01*
X65110585Y-123776321D01*
X64966127Y-123892468D01*
X64957368Y-123901046D01*
X64838222Y-124043039D01*
X64831292Y-124053159D01*
X64741998Y-124215585D01*
X64737166Y-124226858D01*
X64681120Y-124403538D01*
X64678570Y-124415532D01*
X64662393Y-124559761D01*
X64662000Y-124566785D01*
X64662000Y-124783196D01*
X64641998Y-124851317D01*
X64588342Y-124897810D01*
X64518068Y-124907914D01*
X64501560Y-124904075D01*
X64498984Y-124902928D01*
X64418843Y-124885893D01*
X64334061Y-124867872D01*
X64334057Y-124867872D01*
X64327604Y-124866500D01*
X64152396Y-124866500D01*
X64145943Y-124867872D01*
X64145939Y-124867872D01*
X64066706Y-124884714D01*
X63981016Y-124902928D01*
X63974987Y-124905613D01*
X63974985Y-124905613D01*
X63826985Y-124971507D01*
X63826983Y-124971508D01*
X63820955Y-124974192D01*
X63679208Y-125077177D01*
X63561970Y-125207382D01*
X63558670Y-125213098D01*
X63558667Y-125213102D01*
X63501044Y-125312910D01*
X63474366Y-125359118D01*
X63420223Y-125525751D01*
X63419533Y-125532317D01*
X63419532Y-125532321D01*
X63409308Y-125629603D01*
X63401909Y-125700000D01*
X59298091Y-125700000D01*
X59290692Y-125629603D01*
X59280468Y-125532321D01*
X59280467Y-125532317D01*
X59279777Y-125525751D01*
X59225634Y-125359118D01*
X59198956Y-125312910D01*
X59141333Y-125213102D01*
X59141330Y-125213098D01*
X59138030Y-125207382D01*
X59020792Y-125077177D01*
X58879046Y-124974192D01*
X58873018Y-124971508D01*
X58873016Y-124971507D01*
X58725015Y-124905613D01*
X58725014Y-124905613D01*
X58718984Y-124902928D01*
X58633294Y-124884714D01*
X58554061Y-124867872D01*
X58554057Y-124867872D01*
X58547604Y-124866500D01*
X58372396Y-124866500D01*
X58365943Y-124867872D01*
X58365939Y-124867872D01*
X58281157Y-124885893D01*
X58201016Y-124902928D01*
X58200640Y-124903095D01*
X58131965Y-124905056D01*
X58071168Y-124868392D01*
X58039845Y-124804679D01*
X58038000Y-124783196D01*
X58038000Y-124573343D01*
X58037699Y-124567195D01*
X58024188Y-124429397D01*
X58021805Y-124417362D01*
X57968233Y-124239924D01*
X57963559Y-124228584D01*
X57876540Y-124064923D01*
X57869751Y-124054706D01*
X57752603Y-123911067D01*
X57743959Y-123902363D01*
X57601144Y-123784216D01*
X57590973Y-123777356D01*
X57427924Y-123689196D01*
X57416619Y-123684444D01*
X57301308Y-123648750D01*
X57287205Y-123648544D01*
X57284000Y-123655299D01*
X56774010Y-123655299D01*
X56772027Y-123648545D01*
X56764232Y-123647425D01*
X56656479Y-123679138D01*
X56645111Y-123683731D01*
X56480846Y-123769607D01*
X56470585Y-123776321D01*
X56326127Y-123892468D01*
X56317368Y-123901046D01*
X56198222Y-124043039D01*
X56191292Y-124053159D01*
X56101998Y-124215585D01*
X56097166Y-124226858D01*
X56041120Y-124403538D01*
X56038570Y-124415532D01*
X56022393Y-124559761D01*
X56022000Y-124566785D01*
X34434775Y-124566785D01*
X34345579Y-124452935D01*
X34345576Y-124452932D01*
X34343226Y-124449932D01*
X34150068Y-124256774D01*
X34128561Y-124239924D01*
X33938026Y-124090649D01*
X33938023Y-124090647D01*
X33935035Y-124088306D01*
X33860154Y-124043039D01*
X33704523Y-123948956D01*
X33704514Y-123948951D01*
X33701263Y-123946986D01*
X33672721Y-123934140D01*
X33455632Y-123836437D01*
X33455630Y-123836436D01*
X33452161Y-123834875D01*
X33191362Y-123753606D01*
X33187617Y-123752920D01*
X33187610Y-123752918D01*
X33024302Y-123722991D01*
X32922669Y-123704366D01*
X32918875Y-123704137D01*
X32918871Y-123704136D01*
X32824775Y-123698445D01*
X32685021Y-123689991D01*
X32671735Y-123688476D01*
X32662539Y-123686929D01*
X32656184Y-123686851D01*
X32654859Y-123686835D01*
X32654855Y-123686835D01*
X32650000Y-123686776D01*
X32622412Y-123690727D01*
X32604549Y-123692000D01*
X27034000Y-123692000D01*
X26965879Y-123671998D01*
X26919386Y-123618342D01*
X26908000Y-123566000D01*
X26908000Y-121700000D01*
X39287048Y-121700000D01*
X39287318Y-121704119D01*
X39295952Y-121835840D01*
X39306836Y-122001901D01*
X39307640Y-122005941D01*
X39307640Y-122005944D01*
X39358677Y-122262522D01*
X39365860Y-122298636D01*
X39367185Y-122302540D01*
X39367186Y-122302543D01*
X39426286Y-122476646D01*
X39463111Y-122585128D01*
X39526391Y-122713447D01*
X39555771Y-122773023D01*
X39596925Y-122856476D01*
X39620945Y-122892425D01*
X39758988Y-123099020D01*
X39765012Y-123108036D01*
X39964496Y-123335504D01*
X40191964Y-123534988D01*
X40195390Y-123537277D01*
X40195395Y-123537281D01*
X40361914Y-123648545D01*
X40443524Y-123703075D01*
X40447223Y-123704899D01*
X40447228Y-123704902D01*
X40545991Y-123753606D01*
X40714872Y-123836889D01*
X40718777Y-123838214D01*
X40718778Y-123838215D01*
X40997457Y-123932814D01*
X40997460Y-123932815D01*
X41001364Y-123934140D01*
X41005403Y-123934943D01*
X41005409Y-123934945D01*
X41294056Y-123992360D01*
X41294059Y-123992360D01*
X41298099Y-123993164D01*
X41302210Y-123993433D01*
X41302214Y-123993434D01*
X41595881Y-124012682D01*
X41600000Y-124012952D01*
X41604119Y-124012682D01*
X41897786Y-123993434D01*
X41897790Y-123993433D01*
X41901901Y-123993164D01*
X41905941Y-123992360D01*
X41905944Y-123992360D01*
X42194591Y-123934945D01*
X42194597Y-123934943D01*
X42198636Y-123934140D01*
X42202540Y-123932815D01*
X42202543Y-123932814D01*
X42481222Y-123838215D01*
X42481223Y-123838214D01*
X42485128Y-123836889D01*
X42654009Y-123753606D01*
X42752772Y-123704902D01*
X42752777Y-123704899D01*
X42756476Y-123703075D01*
X42838086Y-123648545D01*
X43004605Y-123537281D01*
X43004610Y-123537277D01*
X43008036Y-123534988D01*
X43235504Y-123335504D01*
X43434988Y-123108036D01*
X43441013Y-123099020D01*
X43579055Y-122892425D01*
X43603075Y-122856476D01*
X43644230Y-122773023D01*
X43673609Y-122713447D01*
X43736889Y-122585128D01*
X43773714Y-122476646D01*
X43832814Y-122302543D01*
X43832815Y-122302540D01*
X43834140Y-122298636D01*
X43841324Y-122262522D01*
X43892360Y-122005944D01*
X43892360Y-122005941D01*
X43893164Y-122001901D01*
X43904049Y-121835840D01*
X43912682Y-121704119D01*
X43912952Y-121700000D01*
X43907604Y-121618401D01*
X43893434Y-121402214D01*
X43893433Y-121402210D01*
X43893164Y-121398099D01*
X43878924Y-121326507D01*
X43834945Y-121105409D01*
X43834943Y-121105403D01*
X43834140Y-121101364D01*
X43819842Y-121059242D01*
X43738215Y-120818778D01*
X43738214Y-120818777D01*
X43736889Y-120814872D01*
X43644656Y-120627841D01*
X43604902Y-120547228D01*
X43604899Y-120547223D01*
X43603075Y-120543524D01*
X43535113Y-120441811D01*
X43437281Y-120295395D01*
X43437277Y-120295390D01*
X43434988Y-120291964D01*
X43344375Y-120188640D01*
X58486463Y-120188640D01*
X58504163Y-120369160D01*
X58561418Y-120541273D01*
X58565065Y-120547295D01*
X58565066Y-120547297D01*
X58622467Y-120642077D01*
X58655380Y-120696424D01*
X58660269Y-120701487D01*
X58660270Y-120701488D01*
X58737121Y-120781068D01*
X58781382Y-120826902D01*
X58787278Y-120830760D01*
X58912199Y-120912506D01*
X58933159Y-120926222D01*
X58939763Y-120928678D01*
X58939765Y-120928679D01*
X59096558Y-120986990D01*
X59096560Y-120986990D01*
X59103168Y-120989448D01*
X59186995Y-121000633D01*
X59275980Y-121012507D01*
X59275984Y-121012507D01*
X59282961Y-121013438D01*
X59289972Y-121012800D01*
X59289976Y-121012800D01*
X59432459Y-120999832D01*
X59463600Y-120996998D01*
X59470302Y-120994820D01*
X59470304Y-120994820D01*
X59629409Y-120943124D01*
X59629412Y-120943123D01*
X59636108Y-120940947D01*
X59660727Y-120926271D01*
X59725245Y-120908500D01*
X64771088Y-120908500D01*
X64779658Y-120908792D01*
X64829775Y-120912209D01*
X64829779Y-120912209D01*
X64837352Y-120912725D01*
X64859889Y-120908792D01*
X64879025Y-120905453D01*
X64917348Y-120904684D01*
X64948140Y-120908792D01*
X64982961Y-120913438D01*
X64989972Y-120912800D01*
X64989976Y-120912800D01*
X65132459Y-120899832D01*
X65163600Y-120896998D01*
X65170302Y-120894820D01*
X65170304Y-120894820D01*
X65329409Y-120843124D01*
X65329412Y-120843123D01*
X65336108Y-120840947D01*
X65491912Y-120748069D01*
X65623266Y-120622982D01*
X65723643Y-120471902D01*
X65788055Y-120302338D01*
X65805017Y-120181646D01*
X65812748Y-120126639D01*
X65812748Y-120126636D01*
X65813299Y-120122717D01*
X65813616Y-120100000D01*
X65793397Y-119919745D01*
X65788853Y-119906695D01*
X69937251Y-119906695D01*
X69937548Y-119911848D01*
X69937548Y-119911851D01*
X69949812Y-120124547D01*
X69950110Y-120129715D01*
X69951247Y-120134761D01*
X69951248Y-120134767D01*
X69964970Y-120195653D01*
X69999222Y-120347639D01*
X70083266Y-120554616D01*
X70199987Y-120745088D01*
X70346250Y-120913938D01*
X70518126Y-121056632D01*
X70587990Y-121097457D01*
X70591445Y-121099476D01*
X70640169Y-121151114D01*
X70653240Y-121220897D01*
X70626509Y-121286669D01*
X70586055Y-121320027D01*
X70573607Y-121326507D01*
X70569474Y-121329610D01*
X70569471Y-121329612D01*
X70399100Y-121457530D01*
X70394965Y-121460635D01*
X70240629Y-121622138D01*
X70114743Y-121806680D01*
X70099003Y-121840590D01*
X70024125Y-122001901D01*
X70020688Y-122009305D01*
X69960989Y-122224570D01*
X69937251Y-122446695D01*
X69937548Y-122451848D01*
X69937548Y-122451851D01*
X69943011Y-122546590D01*
X69950110Y-122669715D01*
X69951247Y-122674761D01*
X69951248Y-122674767D01*
X69954620Y-122689729D01*
X69999222Y-122887639D01*
X70083266Y-123094616D01*
X70199987Y-123285088D01*
X70346250Y-123453938D01*
X70518126Y-123596632D01*
X70591955Y-123639774D01*
X70640679Y-123691412D01*
X70653750Y-123761195D01*
X70627019Y-123826967D01*
X70586562Y-123860327D01*
X70578457Y-123864546D01*
X70569738Y-123870036D01*
X70399433Y-123997905D01*
X70391726Y-124004748D01*
X70244590Y-124158717D01*
X70238104Y-124166727D01*
X70118098Y-124342649D01*
X70113000Y-124351623D01*
X70023338Y-124544783D01*
X70019775Y-124554470D01*
X69964389Y-124754183D01*
X69965912Y-124762607D01*
X69978292Y-124766000D01*
X72618344Y-124766000D01*
X72631875Y-124762027D01*
X72633180Y-124752947D01*
X72591214Y-124585875D01*
X72587894Y-124576124D01*
X72502972Y-124380814D01*
X72498105Y-124371739D01*
X72382426Y-124192926D01*
X72376136Y-124184757D01*
X72232806Y-124027240D01*
X72225273Y-124020215D01*
X72058139Y-123888222D01*
X72049556Y-123882520D01*
X72012602Y-123862120D01*
X71962631Y-123811687D01*
X71947859Y-123742245D01*
X71972975Y-123675839D01*
X72000327Y-123649232D01*
X72043633Y-123618342D01*
X72179860Y-123521173D01*
X72338096Y-123363489D01*
X72397594Y-123280689D01*
X72465435Y-123186277D01*
X72468453Y-123182077D01*
X72562395Y-122992000D01*
X72565136Y-122986453D01*
X72565137Y-122986451D01*
X72567430Y-122981811D01*
X72632370Y-122768069D01*
X72661529Y-122546590D01*
X72663156Y-122480000D01*
X72644852Y-122257361D01*
X72590431Y-122040702D01*
X72501354Y-121835840D01*
X72413475Y-121700000D01*
X89587048Y-121700000D01*
X89587318Y-121704119D01*
X89595952Y-121835840D01*
X89606836Y-122001901D01*
X89607640Y-122005941D01*
X89607640Y-122005944D01*
X89658677Y-122262522D01*
X89665860Y-122298636D01*
X89667185Y-122302540D01*
X89667186Y-122302543D01*
X89726286Y-122476646D01*
X89763111Y-122585128D01*
X89826391Y-122713447D01*
X89855771Y-122773023D01*
X89896925Y-122856476D01*
X89920945Y-122892425D01*
X90058988Y-123099020D01*
X90065012Y-123108036D01*
X90264496Y-123335504D01*
X90491964Y-123534988D01*
X90495390Y-123537277D01*
X90495395Y-123537281D01*
X90661914Y-123648545D01*
X90743524Y-123703075D01*
X90747223Y-123704899D01*
X90747228Y-123704902D01*
X90845991Y-123753606D01*
X91014872Y-123836889D01*
X91018777Y-123838214D01*
X91018778Y-123838215D01*
X91297457Y-123932814D01*
X91297460Y-123932815D01*
X91301364Y-123934140D01*
X91305403Y-123934943D01*
X91305409Y-123934945D01*
X91594056Y-123992360D01*
X91594059Y-123992360D01*
X91598099Y-123993164D01*
X91602210Y-123993433D01*
X91602214Y-123993434D01*
X91895881Y-124012682D01*
X91900000Y-124012952D01*
X91904119Y-124012682D01*
X92197786Y-123993434D01*
X92197790Y-123993433D01*
X92201901Y-123993164D01*
X92205941Y-123992360D01*
X92205944Y-123992360D01*
X92494591Y-123934945D01*
X92494597Y-123934943D01*
X92498636Y-123934140D01*
X92502540Y-123932815D01*
X92502543Y-123932814D01*
X92781222Y-123838215D01*
X92781223Y-123838214D01*
X92785128Y-123836889D01*
X92954009Y-123753606D01*
X93052772Y-123704902D01*
X93052777Y-123704899D01*
X93056476Y-123703075D01*
X93138086Y-123648545D01*
X93304605Y-123537281D01*
X93304610Y-123537277D01*
X93308036Y-123534988D01*
X93535504Y-123335504D01*
X93734988Y-123108036D01*
X93741013Y-123099020D01*
X93879055Y-122892425D01*
X93903075Y-122856476D01*
X93944230Y-122773023D01*
X93973609Y-122713447D01*
X94036889Y-122585128D01*
X94073714Y-122476646D01*
X94132814Y-122302543D01*
X94132815Y-122302540D01*
X94134140Y-122298636D01*
X94141324Y-122262522D01*
X94192360Y-122005944D01*
X94192360Y-122005941D01*
X94193164Y-122001901D01*
X94204049Y-121835840D01*
X94212682Y-121704119D01*
X94212952Y-121700000D01*
X94207604Y-121618401D01*
X94193434Y-121402214D01*
X94193433Y-121402210D01*
X94193164Y-121398099D01*
X94178924Y-121326507D01*
X94134945Y-121105409D01*
X94134943Y-121105403D01*
X94134140Y-121101364D01*
X94119842Y-121059242D01*
X94038215Y-120818778D01*
X94038214Y-120818777D01*
X94036889Y-120814872D01*
X93944656Y-120627841D01*
X93904902Y-120547228D01*
X93904899Y-120547223D01*
X93903075Y-120543524D01*
X93835113Y-120441811D01*
X93737281Y-120295395D01*
X93737277Y-120295390D01*
X93734988Y-120291964D01*
X93535504Y-120064496D01*
X93308036Y-119865012D01*
X93304610Y-119862723D01*
X93304605Y-119862719D01*
X93059909Y-119699219D01*
X93056476Y-119696925D01*
X93052777Y-119695101D01*
X93052772Y-119695098D01*
X92838897Y-119589627D01*
X92785128Y-119563111D01*
X92616060Y-119505720D01*
X92502543Y-119467186D01*
X92502540Y-119467185D01*
X92498636Y-119465860D01*
X92494597Y-119465057D01*
X92494591Y-119465055D01*
X92205944Y-119407640D01*
X92205941Y-119407640D01*
X92201901Y-119406836D01*
X92197790Y-119406567D01*
X92197786Y-119406566D01*
X91904119Y-119387318D01*
X91900000Y-119387048D01*
X91895881Y-119387318D01*
X91602214Y-119406566D01*
X91602210Y-119406567D01*
X91598099Y-119406836D01*
X91594059Y-119407640D01*
X91594056Y-119407640D01*
X91305409Y-119465055D01*
X91305403Y-119465057D01*
X91301364Y-119465860D01*
X91297460Y-119467185D01*
X91297457Y-119467186D01*
X91183940Y-119505720D01*
X91014872Y-119563111D01*
X90961103Y-119589627D01*
X90747228Y-119695098D01*
X90747223Y-119695101D01*
X90743524Y-119696925D01*
X90740091Y-119699219D01*
X90495395Y-119862719D01*
X90495390Y-119862723D01*
X90491964Y-119865012D01*
X90264496Y-120064496D01*
X90065012Y-120291964D01*
X90062723Y-120295390D01*
X90062719Y-120295395D01*
X89964887Y-120441811D01*
X89896925Y-120543524D01*
X89895101Y-120547223D01*
X89895098Y-120547228D01*
X89855344Y-120627841D01*
X89763111Y-120814872D01*
X89761786Y-120818777D01*
X89761785Y-120818778D01*
X89680159Y-121059242D01*
X89665860Y-121101364D01*
X89665057Y-121105403D01*
X89665055Y-121105409D01*
X89621076Y-121326507D01*
X89606836Y-121398099D01*
X89606567Y-121402210D01*
X89606566Y-121402214D01*
X89592396Y-121618401D01*
X89587048Y-121700000D01*
X72413475Y-121700000D01*
X72382822Y-121652617D01*
X72382820Y-121652614D01*
X72380014Y-121648277D01*
X72229670Y-121483051D01*
X72225619Y-121479852D01*
X72225615Y-121479848D01*
X72058414Y-121347800D01*
X72058410Y-121347798D01*
X72054359Y-121344598D01*
X72013053Y-121321796D01*
X71963084Y-121271364D01*
X71948312Y-121201921D01*
X71973428Y-121135516D01*
X72000780Y-121108909D01*
X72044603Y-121077650D01*
X72179860Y-120981173D01*
X72223846Y-120937341D01*
X72320577Y-120840947D01*
X72338096Y-120823489D01*
X72392291Y-120748069D01*
X72465435Y-120646277D01*
X72468453Y-120642077D01*
X72477891Y-120622982D01*
X72565136Y-120446453D01*
X72565137Y-120446451D01*
X72567430Y-120441811D01*
X72632370Y-120228069D01*
X72661529Y-120006590D01*
X72663156Y-119940000D01*
X72644852Y-119717361D01*
X72590431Y-119500702D01*
X72501354Y-119295840D01*
X72380014Y-119108277D01*
X72376532Y-119104450D01*
X72232798Y-118946488D01*
X72201746Y-118882642D01*
X72210141Y-118812143D01*
X72255317Y-118757375D01*
X72281761Y-118743706D01*
X72388297Y-118703767D01*
X72396705Y-118700615D01*
X72513261Y-118613261D01*
X72600615Y-118496705D01*
X72651745Y-118360316D01*
X72658500Y-118298134D01*
X72658500Y-116501866D01*
X72651745Y-116439684D01*
X72600615Y-116303295D01*
X72513261Y-116186739D01*
X72396705Y-116099385D01*
X72260316Y-116048255D01*
X72198134Y-116041500D01*
X70401866Y-116041500D01*
X70339684Y-116048255D01*
X70203295Y-116099385D01*
X70086739Y-116186739D01*
X69999385Y-116303295D01*
X69948255Y-116439684D01*
X69941500Y-116501866D01*
X69941500Y-118298134D01*
X69948255Y-118360316D01*
X69999385Y-118496705D01*
X70086739Y-118613261D01*
X70203295Y-118700615D01*
X70211704Y-118703767D01*
X70211705Y-118703768D01*
X70320451Y-118744535D01*
X70377216Y-118787176D01*
X70401916Y-118853738D01*
X70386709Y-118923087D01*
X70367316Y-118949568D01*
X70240629Y-119082138D01*
X70114743Y-119266680D01*
X70095618Y-119307881D01*
X70048104Y-119410243D01*
X70020688Y-119469305D01*
X69960989Y-119684570D01*
X69937251Y-119906695D01*
X65788853Y-119906695D01*
X65774337Y-119865012D01*
X65736064Y-119755106D01*
X65736062Y-119755103D01*
X65733745Y-119748448D01*
X65637626Y-119594624D01*
X65632664Y-119589627D01*
X65514778Y-119470915D01*
X65514774Y-119470912D01*
X65509815Y-119465918D01*
X65502928Y-119461547D01*
X65413237Y-119404628D01*
X65356666Y-119368727D01*
X65327463Y-119358328D01*
X65192425Y-119310243D01*
X65192420Y-119310242D01*
X65185790Y-119307881D01*
X65178802Y-119307048D01*
X65178799Y-119307047D01*
X65048349Y-119291492D01*
X65005680Y-119286404D01*
X64998677Y-119287140D01*
X64998676Y-119287140D01*
X64832288Y-119304628D01*
X64832286Y-119304629D01*
X64825288Y-119305364D01*
X64653579Y-119363818D01*
X64499088Y-119458862D01*
X64494054Y-119463791D01*
X64492776Y-119464790D01*
X64426782Y-119490967D01*
X64415204Y-119491500D01*
X59729158Y-119491500D01*
X59669624Y-119474205D01*
X59668948Y-119475590D01*
X59662609Y-119472498D01*
X59656666Y-119468727D01*
X59650033Y-119466365D01*
X59492425Y-119410243D01*
X59492420Y-119410242D01*
X59485790Y-119407881D01*
X59478802Y-119407048D01*
X59478799Y-119407047D01*
X59355698Y-119392368D01*
X59305680Y-119386404D01*
X59298677Y-119387140D01*
X59298676Y-119387140D01*
X59132288Y-119404628D01*
X59132286Y-119404629D01*
X59125288Y-119405364D01*
X58953579Y-119463818D01*
X58936546Y-119474297D01*
X58805095Y-119555166D01*
X58805092Y-119555168D01*
X58799088Y-119558862D01*
X58794053Y-119563793D01*
X58794050Y-119563795D01*
X58675807Y-119679588D01*
X58669493Y-119685771D01*
X58571235Y-119838238D01*
X58568826Y-119844858D01*
X58568824Y-119844861D01*
X58511606Y-120002066D01*
X58509197Y-120008685D01*
X58486463Y-120188640D01*
X43344375Y-120188640D01*
X43235504Y-120064496D01*
X43008036Y-119865012D01*
X43004610Y-119862723D01*
X43004605Y-119862719D01*
X42759909Y-119699219D01*
X42756476Y-119696925D01*
X42752777Y-119695101D01*
X42752772Y-119695098D01*
X42538897Y-119589627D01*
X42485128Y-119563111D01*
X42316060Y-119505720D01*
X42202543Y-119467186D01*
X42202540Y-119467185D01*
X42198636Y-119465860D01*
X42194597Y-119465057D01*
X42194591Y-119465055D01*
X41905944Y-119407640D01*
X41905941Y-119407640D01*
X41901901Y-119406836D01*
X41897790Y-119406567D01*
X41897786Y-119406566D01*
X41604119Y-119387318D01*
X41600000Y-119387048D01*
X41595881Y-119387318D01*
X41302214Y-119406566D01*
X41302210Y-119406567D01*
X41298099Y-119406836D01*
X41294059Y-119407640D01*
X41294056Y-119407640D01*
X41005409Y-119465055D01*
X41005403Y-119465057D01*
X41001364Y-119465860D01*
X40997460Y-119467185D01*
X40997457Y-119467186D01*
X40883940Y-119505720D01*
X40714872Y-119563111D01*
X40661103Y-119589627D01*
X40447228Y-119695098D01*
X40447223Y-119695101D01*
X40443524Y-119696925D01*
X40440091Y-119699219D01*
X40195395Y-119862719D01*
X40195390Y-119862723D01*
X40191964Y-119865012D01*
X39964496Y-120064496D01*
X39765012Y-120291964D01*
X39762723Y-120295390D01*
X39762719Y-120295395D01*
X39664887Y-120441811D01*
X39596925Y-120543524D01*
X39595101Y-120547223D01*
X39595098Y-120547228D01*
X39555344Y-120627841D01*
X39463111Y-120814872D01*
X39461786Y-120818777D01*
X39461785Y-120818778D01*
X39380159Y-121059242D01*
X39365860Y-121101364D01*
X39365057Y-121105403D01*
X39365055Y-121105409D01*
X39321076Y-121326507D01*
X39306836Y-121398099D01*
X39306567Y-121402210D01*
X39306566Y-121402214D01*
X39292396Y-121618401D01*
X39287048Y-121700000D01*
X26908000Y-121700000D01*
X26908000Y-110827606D01*
X32671632Y-110827606D01*
X32688378Y-111118023D01*
X32689203Y-111122228D01*
X32689204Y-111122236D01*
X32702578Y-111190401D01*
X32744382Y-111403481D01*
X32745769Y-111407532D01*
X32745770Y-111407536D01*
X32837220Y-111674641D01*
X32837224Y-111674650D01*
X32838609Y-111678696D01*
X32969316Y-111938577D01*
X33134083Y-112178315D01*
X33329862Y-112393473D01*
X33333151Y-112396223D01*
X33549738Y-112577319D01*
X33549743Y-112577323D01*
X33553030Y-112580071D01*
X33618058Y-112620863D01*
X33795817Y-112732371D01*
X33795821Y-112732373D01*
X33799457Y-112734654D01*
X34064584Y-112854363D01*
X34107482Y-112867070D01*
X34339391Y-112935765D01*
X34339396Y-112935766D01*
X34343504Y-112936983D01*
X34347738Y-112937631D01*
X34347743Y-112937632D01*
X34603635Y-112976789D01*
X34631056Y-112980985D01*
X34779176Y-112983312D01*
X34917629Y-112985487D01*
X34917635Y-112985487D01*
X34921920Y-112985554D01*
X35210712Y-112950607D01*
X35492090Y-112876789D01*
X35760846Y-112765466D01*
X36012007Y-112618699D01*
X36240926Y-112439204D01*
X36281802Y-112397024D01*
X36440383Y-112233380D01*
X36443366Y-112230302D01*
X36615583Y-111995858D01*
X36754388Y-111740210D01*
X36857213Y-111468090D01*
X36889685Y-111326312D01*
X36921200Y-111188713D01*
X36921201Y-111188708D01*
X36922157Y-111184533D01*
X36948016Y-110894785D01*
X36948485Y-110850000D01*
X36938259Y-110700000D01*
X36928991Y-110564051D01*
X36928990Y-110564045D01*
X36928699Y-110559774D01*
X36920410Y-110519745D01*
X36870578Y-110279116D01*
X36869709Y-110274919D01*
X36774955Y-110007342D01*
X40467213Y-110007342D01*
X40476509Y-110019357D01*
X40519069Y-110049158D01*
X40528565Y-110054641D01*
X40719680Y-110143759D01*
X40729972Y-110147505D01*
X40933660Y-110202083D01*
X40944453Y-110203986D01*
X41154525Y-110222365D01*
X41165475Y-110222365D01*
X41375547Y-110203986D01*
X41386340Y-110202083D01*
X41590028Y-110147505D01*
X41600320Y-110143759D01*
X41791435Y-110054641D01*
X41800931Y-110049158D01*
X41844329Y-110018770D01*
X41852704Y-110008293D01*
X41845635Y-109994845D01*
X41172812Y-109322022D01*
X41158868Y-109314408D01*
X41157035Y-109314539D01*
X41150420Y-109318790D01*
X40473643Y-109995567D01*
X40467213Y-110007342D01*
X36774955Y-110007342D01*
X36772605Y-110000705D01*
X36639184Y-109742207D01*
X36630344Y-109729628D01*
X36522147Y-109575681D01*
X36471915Y-109504208D01*
X36312754Y-109332930D01*
X36276815Y-109294255D01*
X36276812Y-109294252D01*
X36273894Y-109291112D01*
X36270578Y-109288398D01*
X36270575Y-109288395D01*
X36052102Y-109109577D01*
X36048784Y-109106861D01*
X35800752Y-108954867D01*
X35796835Y-108953148D01*
X35796832Y-108953146D01*
X35777193Y-108944525D01*
X39887635Y-108944525D01*
X39887635Y-108955475D01*
X39906014Y-109165547D01*
X39907917Y-109176340D01*
X39962495Y-109380028D01*
X39966241Y-109390320D01*
X40055359Y-109581435D01*
X40060842Y-109590931D01*
X40091230Y-109634329D01*
X40101707Y-109642704D01*
X40115155Y-109635635D01*
X40787978Y-108962812D01*
X40794356Y-108951132D01*
X41524408Y-108951132D01*
X41524539Y-108952965D01*
X41528790Y-108959580D01*
X42205567Y-109636357D01*
X42217342Y-109642787D01*
X42229357Y-109633491D01*
X42259158Y-109590931D01*
X42264641Y-109581435D01*
X42353759Y-109390320D01*
X42357505Y-109380028D01*
X42412083Y-109176340D01*
X42413986Y-109165547D01*
X42432365Y-108955475D01*
X42432365Y-108944525D01*
X42413986Y-108734453D01*
X42412083Y-108723660D01*
X42357505Y-108519972D01*
X42353759Y-108509680D01*
X42264641Y-108318565D01*
X42259158Y-108309069D01*
X42228770Y-108265671D01*
X42218293Y-108257296D01*
X42204845Y-108264365D01*
X41532022Y-108937188D01*
X41524408Y-108951132D01*
X40794356Y-108951132D01*
X40795592Y-108948868D01*
X40795461Y-108947035D01*
X40791210Y-108940420D01*
X40114433Y-108263643D01*
X40102658Y-108257213D01*
X40090643Y-108266509D01*
X40060842Y-108309069D01*
X40055359Y-108318565D01*
X39966241Y-108509680D01*
X39962495Y-108519972D01*
X39907917Y-108723660D01*
X39906014Y-108734453D01*
X39887635Y-108944525D01*
X35777193Y-108944525D01*
X35679273Y-108901542D01*
X35534386Y-108837941D01*
X35530258Y-108836765D01*
X35530255Y-108836764D01*
X35444087Y-108812218D01*
X35254616Y-108758246D01*
X35250374Y-108757642D01*
X35250368Y-108757641D01*
X34970870Y-108717863D01*
X34966619Y-108717258D01*
X34813232Y-108716455D01*
X34680009Y-108715757D01*
X34680003Y-108715757D01*
X34675723Y-108715735D01*
X34671479Y-108716294D01*
X34671475Y-108716294D01*
X34544456Y-108733017D01*
X34387313Y-108753705D01*
X34383173Y-108754838D01*
X34383171Y-108754838D01*
X34366411Y-108759423D01*
X34106724Y-108830465D01*
X34102776Y-108832149D01*
X33843100Y-108942910D01*
X33843096Y-108942912D01*
X33839148Y-108944596D01*
X33589538Y-109093985D01*
X33586187Y-109096669D01*
X33586185Y-109096671D01*
X33500214Y-109165547D01*
X33362511Y-109275867D01*
X33253899Y-109390320D01*
X33175907Y-109472507D01*
X33162269Y-109486878D01*
X32992517Y-109723113D01*
X32984263Y-109738702D01*
X32876026Y-109943128D01*
X32856397Y-109980200D01*
X32854925Y-109984223D01*
X32854923Y-109984227D01*
X32775740Y-110200603D01*
X32756426Y-110253382D01*
X32694456Y-110537604D01*
X32671632Y-110827606D01*
X26908000Y-110827606D01*
X26908000Y-103870000D01*
X39886655Y-103870000D01*
X39906000Y-104091114D01*
X39907424Y-104096427D01*
X39907424Y-104096429D01*
X39947875Y-104247393D01*
X39963447Y-104305510D01*
X39965769Y-104310490D01*
X39965770Y-104310492D01*
X40054925Y-104501685D01*
X40054928Y-104501690D01*
X40057251Y-104506672D01*
X40060407Y-104511179D01*
X40060408Y-104511181D01*
X40179207Y-104680843D01*
X40184561Y-104688490D01*
X40341510Y-104845439D01*
X40346018Y-104848596D01*
X40346021Y-104848598D01*
X40393513Y-104881852D01*
X40523327Y-104972749D01*
X40528309Y-104975072D01*
X40528314Y-104975075D01*
X40637106Y-105025805D01*
X40690391Y-105072722D01*
X40709852Y-105141000D01*
X40689310Y-105208959D01*
X40637106Y-105254195D01*
X40528315Y-105304925D01*
X40528310Y-105304928D01*
X40523328Y-105307251D01*
X40518821Y-105310407D01*
X40518819Y-105310408D01*
X40346021Y-105431402D01*
X40346018Y-105431404D01*
X40341510Y-105434561D01*
X40184561Y-105591510D01*
X40181404Y-105596018D01*
X40181402Y-105596021D01*
X40060408Y-105768819D01*
X40057251Y-105773328D01*
X40054928Y-105778310D01*
X40054925Y-105778315D01*
X39991831Y-105913621D01*
X39963447Y-105974490D01*
X39906000Y-106188886D01*
X39886655Y-106410000D01*
X39906000Y-106631114D01*
X39907424Y-106636427D01*
X39907424Y-106636429D01*
X39953531Y-106808501D01*
X39963447Y-106845510D01*
X39965769Y-106850490D01*
X39965770Y-106850492D01*
X40054925Y-107041685D01*
X40054928Y-107041690D01*
X40057251Y-107046672D01*
X40060407Y-107051179D01*
X40060408Y-107051181D01*
X40170789Y-107208821D01*
X40184561Y-107228490D01*
X40341510Y-107385439D01*
X40346018Y-107388596D01*
X40346021Y-107388598D01*
X40396002Y-107423595D01*
X40523327Y-107512749D01*
X40528309Y-107515072D01*
X40528314Y-107515075D01*
X40637697Y-107566081D01*
X40690982Y-107612999D01*
X40710443Y-107681276D01*
X40689901Y-107749236D01*
X40637696Y-107794471D01*
X40528569Y-107845357D01*
X40519069Y-107850842D01*
X40475671Y-107881230D01*
X40467296Y-107891707D01*
X40474365Y-107905155D01*
X41147188Y-108577978D01*
X41161132Y-108585592D01*
X41162965Y-108585461D01*
X41169580Y-108581210D01*
X41846357Y-107904433D01*
X41852787Y-107892658D01*
X41843491Y-107880643D01*
X41800931Y-107850842D01*
X41791431Y-107845357D01*
X41682304Y-107794471D01*
X41629018Y-107747554D01*
X41609763Y-107680000D01*
X42426655Y-107680000D01*
X42446000Y-107901114D01*
X42447424Y-107906427D01*
X42447424Y-107906429D01*
X42501858Y-108109578D01*
X42503447Y-108115510D01*
X42505769Y-108120490D01*
X42505770Y-108120492D01*
X42594925Y-108311685D01*
X42594928Y-108311690D01*
X42597251Y-108316672D01*
X42600407Y-108321179D01*
X42600408Y-108321181D01*
X42703378Y-108468237D01*
X42724561Y-108498490D01*
X42881510Y-108655439D01*
X42886018Y-108658596D01*
X42886021Y-108658598D01*
X42961687Y-108711580D01*
X43063327Y-108782749D01*
X43068309Y-108785072D01*
X43068314Y-108785075D01*
X43259508Y-108874230D01*
X43264490Y-108876553D01*
X43269798Y-108877975D01*
X43269800Y-108877976D01*
X43473571Y-108932576D01*
X43473573Y-108932576D01*
X43478886Y-108934000D01*
X43700000Y-108953345D01*
X43921114Y-108934000D01*
X43926427Y-108932576D01*
X43926429Y-108932576D01*
X44130200Y-108877976D01*
X44130202Y-108877975D01*
X44135510Y-108876553D01*
X44140492Y-108874230D01*
X44331686Y-108785075D01*
X44331691Y-108785072D01*
X44336673Y-108782749D01*
X44438313Y-108711580D01*
X44513979Y-108658598D01*
X44513982Y-108658596D01*
X44518490Y-108655439D01*
X44675439Y-108498490D01*
X44696623Y-108468237D01*
X44799592Y-108321181D01*
X44799593Y-108321179D01*
X44802749Y-108316672D01*
X44805072Y-108311690D01*
X44805075Y-108311685D01*
X44894230Y-108120492D01*
X44894231Y-108120490D01*
X44896553Y-108115510D01*
X44898143Y-108109578D01*
X44952576Y-107906429D01*
X44952576Y-107906427D01*
X44954000Y-107901114D01*
X44973345Y-107680000D01*
X44954000Y-107458886D01*
X44941573Y-107412507D01*
X44897976Y-107249800D01*
X44897975Y-107249798D01*
X44896553Y-107244490D01*
X44879920Y-107208821D01*
X44805075Y-107048315D01*
X44805072Y-107048310D01*
X44802749Y-107043328D01*
X44752736Y-106971902D01*
X44678598Y-106866021D01*
X44678596Y-106866018D01*
X44675439Y-106861510D01*
X44518490Y-106704561D01*
X44513982Y-106701404D01*
X44513979Y-106701402D01*
X44401602Y-106622715D01*
X44336673Y-106577251D01*
X44331691Y-106574928D01*
X44331686Y-106574925D01*
X44222303Y-106523919D01*
X44169018Y-106477001D01*
X44149557Y-106408724D01*
X44170099Y-106340764D01*
X44222304Y-106295529D01*
X44331431Y-106244643D01*
X44340931Y-106239158D01*
X44384329Y-106208770D01*
X44392704Y-106198293D01*
X44385635Y-106184845D01*
X43712812Y-105512022D01*
X43698868Y-105504408D01*
X43697035Y-105504539D01*
X43690420Y-105508790D01*
X43013643Y-106185567D01*
X43007213Y-106197342D01*
X43016509Y-106209357D01*
X43059069Y-106239158D01*
X43068565Y-106244641D01*
X43177697Y-106295530D01*
X43230982Y-106342448D01*
X43250443Y-106410725D01*
X43229901Y-106478685D01*
X43177698Y-106523919D01*
X43123878Y-106549016D01*
X43068315Y-106574925D01*
X43068310Y-106574928D01*
X43063328Y-106577251D01*
X43058821Y-106580407D01*
X43058819Y-106580408D01*
X42886021Y-106701402D01*
X42886018Y-106701404D01*
X42881510Y-106704561D01*
X42724561Y-106861510D01*
X42721404Y-106866018D01*
X42721402Y-106866021D01*
X42647264Y-106971902D01*
X42597251Y-107043328D01*
X42594928Y-107048310D01*
X42594925Y-107048315D01*
X42520080Y-107208821D01*
X42503447Y-107244490D01*
X42502025Y-107249798D01*
X42502024Y-107249800D01*
X42458427Y-107412507D01*
X42446000Y-107458886D01*
X42426655Y-107680000D01*
X41609763Y-107680000D01*
X41609557Y-107679277D01*
X41630099Y-107611317D01*
X41682303Y-107566081D01*
X41791686Y-107515075D01*
X41791691Y-107515072D01*
X41796673Y-107512749D01*
X41923998Y-107423595D01*
X41973979Y-107388598D01*
X41973982Y-107388596D01*
X41978490Y-107385439D01*
X42135439Y-107228490D01*
X42149212Y-107208821D01*
X42259592Y-107051181D01*
X42259593Y-107051179D01*
X42262749Y-107046672D01*
X42265072Y-107041690D01*
X42265075Y-107041685D01*
X42354230Y-106850492D01*
X42354231Y-106850490D01*
X42356553Y-106845510D01*
X42366470Y-106808501D01*
X42412576Y-106636429D01*
X42412576Y-106636427D01*
X42414000Y-106631114D01*
X42433345Y-106410000D01*
X42414000Y-106188886D01*
X42356553Y-105974490D01*
X42328169Y-105913621D01*
X42265075Y-105778315D01*
X42265072Y-105778310D01*
X42262749Y-105773328D01*
X42259592Y-105768819D01*
X42138598Y-105596021D01*
X42138596Y-105596018D01*
X42135439Y-105591510D01*
X41978490Y-105434561D01*
X41973982Y-105431404D01*
X41973979Y-105431402D01*
X41885088Y-105369160D01*
X41796673Y-105307251D01*
X41791691Y-105304928D01*
X41791686Y-105304925D01*
X41682894Y-105254195D01*
X41629609Y-105207278D01*
X41610148Y-105139000D01*
X41611501Y-105134525D01*
X42427635Y-105134525D01*
X42427635Y-105145475D01*
X42446014Y-105355547D01*
X42447917Y-105366340D01*
X42502495Y-105570028D01*
X42506241Y-105580320D01*
X42595359Y-105771435D01*
X42600842Y-105780931D01*
X42631230Y-105824329D01*
X42641707Y-105832704D01*
X42655155Y-105825635D01*
X43327978Y-105152812D01*
X43334356Y-105141132D01*
X44064408Y-105141132D01*
X44064539Y-105142965D01*
X44068790Y-105149580D01*
X44745567Y-105826357D01*
X44757342Y-105832787D01*
X44769357Y-105823491D01*
X44799158Y-105780931D01*
X44804641Y-105771435D01*
X44893759Y-105580320D01*
X44897505Y-105570028D01*
X44952083Y-105366340D01*
X44953986Y-105355547D01*
X44972365Y-105145475D01*
X44972365Y-105134525D01*
X44953986Y-104924453D01*
X44952083Y-104913660D01*
X44897505Y-104709972D01*
X44893759Y-104699680D01*
X44804641Y-104508565D01*
X44799158Y-104499069D01*
X44768770Y-104455671D01*
X44758293Y-104447296D01*
X44744845Y-104454365D01*
X44072022Y-105127188D01*
X44064408Y-105141132D01*
X43334356Y-105141132D01*
X43335592Y-105138868D01*
X43335461Y-105137035D01*
X43331210Y-105130420D01*
X42654433Y-104453643D01*
X42642658Y-104447213D01*
X42630643Y-104456509D01*
X42600842Y-104499069D01*
X42595359Y-104508565D01*
X42506241Y-104699680D01*
X42502495Y-104709972D01*
X42447917Y-104913660D01*
X42446014Y-104924453D01*
X42427635Y-105134525D01*
X41611501Y-105134525D01*
X41630690Y-105071041D01*
X41682894Y-105025805D01*
X41791686Y-104975075D01*
X41791691Y-104975072D01*
X41796673Y-104972749D01*
X41926487Y-104881852D01*
X41973979Y-104848598D01*
X41973982Y-104848596D01*
X41978490Y-104845439D01*
X42135439Y-104688490D01*
X42140794Y-104680843D01*
X42259592Y-104511181D01*
X42259593Y-104511179D01*
X42262749Y-104506672D01*
X42265072Y-104501690D01*
X42265075Y-104501685D01*
X42354230Y-104310492D01*
X42354231Y-104310490D01*
X42356553Y-104305510D01*
X42372126Y-104247393D01*
X42412576Y-104096429D01*
X42412576Y-104096427D01*
X42414000Y-104091114D01*
X42433345Y-103870000D01*
X42433055Y-103866682D01*
X42452868Y-103799204D01*
X42506524Y-103752711D01*
X42576798Y-103742607D01*
X42634432Y-103766499D01*
X42693295Y-103810615D01*
X42829684Y-103861745D01*
X42891866Y-103868500D01*
X42915697Y-103868500D01*
X42983818Y-103888502D01*
X43030311Y-103942158D01*
X43040415Y-104012432D01*
X43014119Y-104073170D01*
X43007296Y-104081706D01*
X43014365Y-104095155D01*
X43687188Y-104767978D01*
X43701132Y-104775592D01*
X43702965Y-104775461D01*
X43709580Y-104771210D01*
X44386357Y-104094433D01*
X44392787Y-104082658D01*
X44384232Y-104071600D01*
X44358369Y-104005482D01*
X44372357Y-103935877D01*
X44421756Y-103884885D01*
X44483889Y-103868500D01*
X44508134Y-103868500D01*
X44570316Y-103861745D01*
X44706705Y-103810615D01*
X44823261Y-103723261D01*
X44910615Y-103606705D01*
X44961745Y-103470316D01*
X44968500Y-103408134D01*
X44968500Y-101791866D01*
X44961745Y-101729684D01*
X44910615Y-101593295D01*
X44823261Y-101476739D01*
X44706705Y-101389385D01*
X44570316Y-101338255D01*
X44508134Y-101331500D01*
X42891866Y-101331500D01*
X42829684Y-101338255D01*
X42693295Y-101389385D01*
X42576739Y-101476739D01*
X42489385Y-101593295D01*
X42438255Y-101729684D01*
X42431500Y-101791866D01*
X42431500Y-103074708D01*
X42411498Y-103142829D01*
X42357842Y-103189322D01*
X42287568Y-103199426D01*
X42222988Y-103169932D01*
X42202287Y-103146979D01*
X42138598Y-103056021D01*
X42138596Y-103056018D01*
X42135439Y-103051510D01*
X41978490Y-102894561D01*
X41973982Y-102891404D01*
X41973979Y-102891402D01*
X41874368Y-102821654D01*
X41796673Y-102767251D01*
X41791691Y-102764928D01*
X41791686Y-102764925D01*
X41600492Y-102675770D01*
X41600491Y-102675769D01*
X41595510Y-102673447D01*
X41590202Y-102672025D01*
X41590200Y-102672024D01*
X41386429Y-102617424D01*
X41386427Y-102617424D01*
X41381114Y-102616000D01*
X41160000Y-102596655D01*
X40938886Y-102616000D01*
X40933573Y-102617424D01*
X40933571Y-102617424D01*
X40729800Y-102672024D01*
X40729798Y-102672025D01*
X40724490Y-102673447D01*
X40719510Y-102675769D01*
X40719508Y-102675770D01*
X40528315Y-102764925D01*
X40528310Y-102764928D01*
X40523328Y-102767251D01*
X40518821Y-102770407D01*
X40518819Y-102770408D01*
X40346021Y-102891402D01*
X40346018Y-102891404D01*
X40341510Y-102894561D01*
X40184561Y-103051510D01*
X40181404Y-103056018D01*
X40181402Y-103056021D01*
X40062035Y-103226496D01*
X40057251Y-103233328D01*
X40054928Y-103238310D01*
X40054925Y-103238315D01*
X39966985Y-103426902D01*
X39963447Y-103434490D01*
X39962025Y-103439798D01*
X39962024Y-103439800D01*
X39909367Y-103636321D01*
X39906000Y-103648886D01*
X39886655Y-103870000D01*
X26908000Y-103870000D01*
X26908000Y-100667606D01*
X32671632Y-100667606D01*
X32688378Y-100958023D01*
X32689203Y-100962228D01*
X32689204Y-100962236D01*
X32721615Y-101127436D01*
X32744382Y-101243481D01*
X32745769Y-101247532D01*
X32745770Y-101247536D01*
X32837220Y-101514641D01*
X32837224Y-101514650D01*
X32838609Y-101518696D01*
X32969316Y-101778577D01*
X33051699Y-101898446D01*
X33126912Y-102007881D01*
X33134083Y-102018315D01*
X33136970Y-102021488D01*
X33136971Y-102021489D01*
X33170978Y-102058862D01*
X33329862Y-102233473D01*
X33333151Y-102236223D01*
X33549738Y-102417319D01*
X33549743Y-102417323D01*
X33553030Y-102420071D01*
X33650375Y-102481135D01*
X33795817Y-102572371D01*
X33795821Y-102572373D01*
X33799457Y-102574654D01*
X33803367Y-102576419D01*
X33803368Y-102576420D01*
X33829044Y-102588013D01*
X34064584Y-102694363D01*
X34114045Y-102709014D01*
X34339391Y-102775765D01*
X34339396Y-102775766D01*
X34343504Y-102776983D01*
X34347738Y-102777631D01*
X34347743Y-102777632D01*
X34603635Y-102816789D01*
X34631056Y-102820985D01*
X34778430Y-102823300D01*
X34917629Y-102825487D01*
X34917635Y-102825487D01*
X34921920Y-102825554D01*
X35210712Y-102790607D01*
X35492090Y-102716789D01*
X35760846Y-102605466D01*
X35915726Y-102514961D01*
X36008304Y-102460863D01*
X36008305Y-102460862D01*
X36012007Y-102458699D01*
X36240926Y-102279204D01*
X36274338Y-102244726D01*
X36440383Y-102073380D01*
X36443366Y-102070302D01*
X36615583Y-101835858D01*
X36656670Y-101760185D01*
X36752338Y-101583986D01*
X36752339Y-101583984D01*
X36754388Y-101580210D01*
X36857213Y-101308090D01*
X36922157Y-101024533D01*
X36948016Y-100734785D01*
X36948485Y-100690000D01*
X36948316Y-100687519D01*
X36928991Y-100404051D01*
X36928990Y-100404045D01*
X36928699Y-100399774D01*
X36903540Y-100278282D01*
X36880766Y-100168310D01*
X36869709Y-100114919D01*
X36772605Y-99840705D01*
X36703122Y-99706084D01*
X36641149Y-99586014D01*
X36641149Y-99586013D01*
X36639184Y-99582207D01*
X36633030Y-99573450D01*
X36517308Y-99408796D01*
X36471915Y-99344208D01*
X36362663Y-99226639D01*
X36276815Y-99134255D01*
X36276812Y-99134252D01*
X36273894Y-99131112D01*
X36270578Y-99128398D01*
X36270575Y-99128395D01*
X36052102Y-98949577D01*
X36048784Y-98946861D01*
X35800752Y-98794867D01*
X35796835Y-98793148D01*
X35796832Y-98793146D01*
X35678661Y-98741273D01*
X35534386Y-98677941D01*
X35530258Y-98676765D01*
X35530255Y-98676764D01*
X35444087Y-98652218D01*
X35254616Y-98598246D01*
X35250374Y-98597642D01*
X35250368Y-98597641D01*
X34970870Y-98557863D01*
X34966619Y-98557258D01*
X34813232Y-98556455D01*
X34680009Y-98555757D01*
X34680003Y-98555757D01*
X34675723Y-98555735D01*
X34671479Y-98556294D01*
X34671475Y-98556294D01*
X34573750Y-98569160D01*
X34387313Y-98593705D01*
X34383173Y-98594838D01*
X34383171Y-98594838D01*
X34366411Y-98599423D01*
X34106724Y-98670465D01*
X34102776Y-98672149D01*
X33843100Y-98782910D01*
X33843096Y-98782912D01*
X33839148Y-98784596D01*
X33589538Y-98933985D01*
X33586187Y-98936669D01*
X33586185Y-98936671D01*
X33515720Y-98993124D01*
X33362511Y-99115867D01*
X33162269Y-99326878D01*
X32992517Y-99563113D01*
X32982407Y-99582207D01*
X32896732Y-99744021D01*
X32856397Y-99820200D01*
X32854925Y-99824223D01*
X32854923Y-99824227D01*
X32773565Y-100046548D01*
X32756426Y-100093382D01*
X32694456Y-100377604D01*
X32692711Y-100399774D01*
X32674282Y-100633941D01*
X32671632Y-100667606D01*
X26908000Y-100667606D01*
X26908000Y-91200000D01*
X39287048Y-91200000D01*
X39287318Y-91204119D01*
X39306195Y-91492118D01*
X39306836Y-91501901D01*
X39307640Y-91505941D01*
X39307640Y-91505944D01*
X39362456Y-91781521D01*
X39365860Y-91798636D01*
X39367185Y-91802540D01*
X39367186Y-91802543D01*
X39430100Y-91987880D01*
X39463111Y-92085128D01*
X39596925Y-92356476D01*
X39599219Y-92359909D01*
X39759490Y-92599771D01*
X39765012Y-92608036D01*
X39964496Y-92835504D01*
X40191964Y-93034988D01*
X40195390Y-93037277D01*
X40195395Y-93037281D01*
X40297289Y-93105364D01*
X40443524Y-93203075D01*
X40447223Y-93204899D01*
X40447228Y-93204902D01*
X40472651Y-93217439D01*
X40714872Y-93336889D01*
X40718777Y-93338214D01*
X40718778Y-93338215D01*
X40997457Y-93432814D01*
X40997460Y-93432815D01*
X41001364Y-93434140D01*
X41005403Y-93434943D01*
X41005409Y-93434945D01*
X41294056Y-93492360D01*
X41294059Y-93492360D01*
X41298099Y-93493164D01*
X41302210Y-93493433D01*
X41302214Y-93493434D01*
X41595881Y-93512682D01*
X41600000Y-93512952D01*
X41604119Y-93512682D01*
X41897786Y-93493434D01*
X41897790Y-93493433D01*
X41901901Y-93493164D01*
X41905941Y-93492360D01*
X41905944Y-93492360D01*
X42194591Y-93434945D01*
X42194597Y-93434943D01*
X42198636Y-93434140D01*
X42202540Y-93432815D01*
X42202543Y-93432814D01*
X42481222Y-93338215D01*
X42481223Y-93338214D01*
X42485128Y-93336889D01*
X42727349Y-93217439D01*
X42752772Y-93204902D01*
X42752777Y-93204899D01*
X42756476Y-93203075D01*
X42902711Y-93105364D01*
X43004605Y-93037281D01*
X43004610Y-93037277D01*
X43008036Y-93034988D01*
X43235504Y-92835504D01*
X43434988Y-92608036D01*
X43440511Y-92599771D01*
X43600781Y-92359909D01*
X43603075Y-92356476D01*
X43736889Y-92085128D01*
X43769900Y-91987880D01*
X43832814Y-91802543D01*
X43832815Y-91802540D01*
X43834140Y-91798636D01*
X43837545Y-91781521D01*
X43892360Y-91505944D01*
X43892360Y-91505941D01*
X43893164Y-91501901D01*
X43893806Y-91492118D01*
X43912682Y-91204119D01*
X43912952Y-91200000D01*
X43898247Y-90975647D01*
X43893434Y-90902214D01*
X43893433Y-90902210D01*
X43893164Y-90898099D01*
X43892360Y-90894056D01*
X43834945Y-90605409D01*
X43834943Y-90605403D01*
X43834140Y-90601364D01*
X43828472Y-90584665D01*
X43738215Y-90318778D01*
X43738214Y-90318777D01*
X43736889Y-90314872D01*
X43603075Y-90043524D01*
X43434988Y-89791964D01*
X43235504Y-89564496D01*
X43008036Y-89365012D01*
X43004610Y-89362723D01*
X43004605Y-89362719D01*
X42780640Y-89213071D01*
X42756476Y-89196925D01*
X42752777Y-89195101D01*
X42752772Y-89195098D01*
X42491509Y-89066258D01*
X42485128Y-89063111D01*
X42409330Y-89037381D01*
X42202543Y-88967186D01*
X42202540Y-88967185D01*
X42198636Y-88965860D01*
X42194597Y-88965057D01*
X42194591Y-88965055D01*
X41905944Y-88907640D01*
X41905941Y-88907640D01*
X41901901Y-88906836D01*
X41897790Y-88906567D01*
X41897786Y-88906566D01*
X41604119Y-88887318D01*
X41600000Y-88887048D01*
X41595881Y-88887318D01*
X41302214Y-88906566D01*
X41302210Y-88906567D01*
X41298099Y-88906836D01*
X41294059Y-88907640D01*
X41294056Y-88907640D01*
X41005409Y-88965055D01*
X41005403Y-88965057D01*
X41001364Y-88965860D01*
X40997460Y-88967185D01*
X40997457Y-88967186D01*
X40790670Y-89037381D01*
X40714872Y-89063111D01*
X40708491Y-89066258D01*
X40447228Y-89195098D01*
X40447223Y-89195101D01*
X40443524Y-89196925D01*
X40419360Y-89213071D01*
X40195395Y-89362719D01*
X40195390Y-89362723D01*
X40191964Y-89365012D01*
X39964496Y-89564496D01*
X39765012Y-89791964D01*
X39596925Y-90043524D01*
X39463111Y-90314872D01*
X39461786Y-90318777D01*
X39461785Y-90318778D01*
X39371529Y-90584665D01*
X39365860Y-90601364D01*
X39365057Y-90605403D01*
X39365055Y-90605409D01*
X39307640Y-90894056D01*
X39306836Y-90898099D01*
X39306567Y-90902210D01*
X39306566Y-90902214D01*
X39301753Y-90975647D01*
X39287048Y-91200000D01*
X26908000Y-91200000D01*
X26908000Y-89334000D01*
X26928002Y-89265879D01*
X26981658Y-89219386D01*
X27034000Y-89208000D01*
X32596793Y-89208000D01*
X32617697Y-89209746D01*
X32637461Y-89213071D01*
X32643627Y-89213146D01*
X32645135Y-89213165D01*
X32645140Y-89213165D01*
X32650000Y-89213224D01*
X32658157Y-89212056D01*
X32668409Y-89211014D01*
X32788439Y-89203753D01*
X32918871Y-89195864D01*
X32918875Y-89195863D01*
X32922669Y-89195634D01*
X33024302Y-89177009D01*
X33187610Y-89147082D01*
X33187617Y-89147080D01*
X33191362Y-89146394D01*
X33452161Y-89065125D01*
X33455632Y-89063563D01*
X33697795Y-88954575D01*
X33697798Y-88954574D01*
X33701263Y-88953014D01*
X33704514Y-88951049D01*
X33704523Y-88951044D01*
X33931781Y-88813661D01*
X33935035Y-88811694D01*
X33986573Y-88771317D01*
X34147065Y-88645579D01*
X34147068Y-88645576D01*
X34150068Y-88643226D01*
X34343226Y-88450068D01*
X34360265Y-88428320D01*
X34509351Y-88238026D01*
X34509353Y-88238023D01*
X34511694Y-88235035D01*
X34556416Y-88161056D01*
X34651044Y-88004523D01*
X34651049Y-88004514D01*
X34653014Y-88001263D01*
X34662001Y-87981296D01*
X34763563Y-87755632D01*
X34763564Y-87755630D01*
X34765125Y-87752161D01*
X34846394Y-87491362D01*
X34872694Y-87347851D01*
X34894948Y-87226411D01*
X34894948Y-87226410D01*
X34895634Y-87222669D01*
X34910009Y-86985021D01*
X34911525Y-86971726D01*
X34913071Y-86962539D01*
X34913224Y-86950000D01*
X34909273Y-86922412D01*
X34908000Y-86904549D01*
X34908000Y-81334000D01*
X34928002Y-81265879D01*
X34981658Y-81219386D01*
X35034000Y-81208000D01*
X61733173Y-81208000D01*
X61801294Y-81228002D01*
G37*
%TD.AperFunction*%
%TA.AperFunction,Conductor*%
G36*
X75993075Y-90544502D02*
G01*
X76032387Y-90584665D01*
X76115987Y-90721088D01*
X76262250Y-90889938D01*
X76434126Y-91032632D01*
X76627000Y-91145338D01*
X76835692Y-91225030D01*
X76840760Y-91226061D01*
X76840763Y-91226062D01*
X76935956Y-91245429D01*
X77054597Y-91269567D01*
X77059772Y-91269757D01*
X77059774Y-91269757D01*
X77133141Y-91272447D01*
X77260256Y-91277108D01*
X77327597Y-91299592D01*
X77372093Y-91354916D01*
X77379615Y-91425513D01*
X77344733Y-91492118D01*
X76387966Y-92448885D01*
X76375575Y-92459752D01*
X76350213Y-92479213D01*
X76325726Y-92511125D01*
X76325723Y-92511128D01*
X76252676Y-92606324D01*
X76249516Y-92613954D01*
X76212313Y-92703770D01*
X76191749Y-92753415D01*
X76191362Y-92754350D01*
X76175700Y-92873315D01*
X76175700Y-92873320D01*
X76170450Y-92913200D01*
X76172208Y-92926550D01*
X76174622Y-92944890D01*
X76175700Y-92961336D01*
X76175700Y-102771064D01*
X76174622Y-102787507D01*
X76170450Y-102819200D01*
X76175700Y-102859080D01*
X76175700Y-102859085D01*
X76186556Y-102941538D01*
X76188082Y-102953131D01*
X76188082Y-102953134D01*
X76190241Y-102969532D01*
X76191362Y-102978051D01*
X76194521Y-102985677D01*
X76194521Y-102985678D01*
X76199594Y-102997926D01*
X76252676Y-103126076D01*
X76257703Y-103132627D01*
X76257704Y-103132629D01*
X76325720Y-103221269D01*
X76325726Y-103221275D01*
X76350213Y-103253187D01*
X76356768Y-103258217D01*
X76375579Y-103272652D01*
X76387970Y-103283519D01*
X77357995Y-104253544D01*
X77392021Y-104315856D01*
X77394900Y-104342639D01*
X77394900Y-105058923D01*
X77374898Y-105127044D01*
X77321242Y-105173537D01*
X77250968Y-105183641D01*
X77237559Y-105180325D01*
X77237482Y-105180652D01*
X77230624Y-105179043D01*
X77223990Y-105176681D01*
X77217002Y-105175848D01*
X77216999Y-105175847D01*
X77074464Y-105158851D01*
X77043880Y-105155204D01*
X77036877Y-105155940D01*
X77036876Y-105155940D01*
X76870488Y-105173428D01*
X76870486Y-105173429D01*
X76863488Y-105174164D01*
X76691779Y-105232618D01*
X76651172Y-105257600D01*
X76543295Y-105323966D01*
X76543292Y-105323968D01*
X76537288Y-105327662D01*
X76532253Y-105332593D01*
X76532250Y-105332595D01*
X76424147Y-105438458D01*
X76407693Y-105454571D01*
X76309435Y-105607038D01*
X76307026Y-105613658D01*
X76307024Y-105613661D01*
X76290271Y-105659689D01*
X76247397Y-105777485D01*
X76246514Y-105784475D01*
X76235225Y-105873834D01*
X76206843Y-105938911D01*
X76199314Y-105947137D01*
X75291856Y-106854595D01*
X75229544Y-106888621D01*
X75202761Y-106891500D01*
X72682839Y-106891500D01*
X72614718Y-106871498D01*
X72568225Y-106817842D01*
X72558121Y-106747568D01*
X72587615Y-106682988D01*
X72593744Y-106676405D01*
X73548234Y-105721915D01*
X73560625Y-105711048D01*
X73579437Y-105696613D01*
X73585987Y-105691587D01*
X73610474Y-105659675D01*
X73610477Y-105659672D01*
X73683523Y-105564476D01*
X73683524Y-105564475D01*
X73706590Y-105508790D01*
X73741678Y-105424079D01*
X73744838Y-105416450D01*
X73746731Y-105402075D01*
X73760500Y-105297485D01*
X73760500Y-105297478D01*
X73764672Y-105265788D01*
X73765750Y-105257600D01*
X73761578Y-105225907D01*
X73760500Y-105209464D01*
X73760500Y-92252239D01*
X73780502Y-92184118D01*
X73797405Y-92163144D01*
X75399143Y-90561405D01*
X75461455Y-90527380D01*
X75488238Y-90524500D01*
X75924954Y-90524500D01*
X75993075Y-90544502D01*
G37*
%TD.AperFunction*%
%TA.AperFunction,Conductor*%
G36*
X68389063Y-96237920D02*
G01*
X68394443Y-96242994D01*
X69254595Y-97103146D01*
X69288621Y-97165458D01*
X69291500Y-97192241D01*
X69291500Y-97815164D01*
X69271498Y-97883285D01*
X69270188Y-97885090D01*
X69269493Y-97885771D01*
X69171235Y-98038238D01*
X69109197Y-98208685D01*
X69086463Y-98388640D01*
X69104163Y-98569160D01*
X69161418Y-98741273D01*
X69165065Y-98747295D01*
X69165066Y-98747297D01*
X69236963Y-98866013D01*
X69255380Y-98896424D01*
X69260269Y-98901487D01*
X69260270Y-98901488D01*
X69337121Y-98981068D01*
X69381382Y-99026902D01*
X69387278Y-99030760D01*
X69522100Y-99118985D01*
X69533159Y-99126222D01*
X69623442Y-99159798D01*
X69634329Y-99163847D01*
X69691205Y-99206340D01*
X69716078Y-99272836D01*
X69701053Y-99342225D01*
X69679504Y-99371039D01*
X69345933Y-99704609D01*
X69031450Y-100019092D01*
X69016416Y-100031932D01*
X69010910Y-100035932D01*
X69010908Y-100035934D01*
X69005566Y-100039815D01*
X69001145Y-100044725D01*
X69001144Y-100044726D01*
X68961114Y-100089184D01*
X68956573Y-100093969D01*
X68942528Y-100108014D01*
X68940444Y-100110588D01*
X68940441Y-100110591D01*
X68930031Y-100123446D01*
X68925747Y-100128462D01*
X68885717Y-100172920D01*
X68885713Y-100172925D01*
X68881296Y-100177831D01*
X68874791Y-100189097D01*
X68874589Y-100189448D01*
X68863391Y-100205741D01*
X68854953Y-100216161D01*
X68824787Y-100275363D01*
X68821654Y-100281133D01*
X68791740Y-100332945D01*
X68791738Y-100332950D01*
X68788436Y-100338669D01*
X68786395Y-100344949D01*
X68786392Y-100344957D01*
X68784292Y-100351421D01*
X68776728Y-100369683D01*
X68773637Y-100375749D01*
X68773634Y-100375758D01*
X68770638Y-100381637D01*
X68768929Y-100388015D01*
X68753444Y-100445804D01*
X68751578Y-100452106D01*
X68731046Y-100515298D01*
X68730356Y-100521866D01*
X68729645Y-100528628D01*
X68726042Y-100548071D01*
X68722570Y-100561029D01*
X68722225Y-100567619D01*
X68722224Y-100567623D01*
X68719093Y-100627367D01*
X68718577Y-100633931D01*
X68716500Y-100653694D01*
X68716500Y-100673555D01*
X68716327Y-100680150D01*
X68713464Y-100734785D01*
X68712850Y-100746493D01*
X68713882Y-100753009D01*
X68714204Y-100759152D01*
X68709196Y-100797191D01*
X68709871Y-100797334D01*
X68708498Y-100803795D01*
X68706458Y-100810072D01*
X68686496Y-101000000D01*
X68706458Y-101189928D01*
X68722389Y-101238959D01*
X68724260Y-101245278D01*
X68726044Y-101251939D01*
X68729643Y-101271362D01*
X68730354Y-101278129D01*
X68730356Y-101278140D01*
X68731046Y-101284702D01*
X68751578Y-101347894D01*
X68753444Y-101354196D01*
X68770638Y-101418363D01*
X68773634Y-101424242D01*
X68773637Y-101424251D01*
X68776728Y-101430317D01*
X68784292Y-101448579D01*
X68786392Y-101455043D01*
X68786395Y-101455051D01*
X68788436Y-101461331D01*
X68791738Y-101467050D01*
X68791740Y-101467055D01*
X68821654Y-101518867D01*
X68824787Y-101524637D01*
X68854953Y-101583839D01*
X68859109Y-101588971D01*
X68863391Y-101594259D01*
X68874589Y-101610552D01*
X68881296Y-101622169D01*
X68885713Y-101627075D01*
X68885717Y-101627080D01*
X68925747Y-101671538D01*
X68930031Y-101676554D01*
X68940441Y-101689409D01*
X68942528Y-101691986D01*
X68956573Y-101706031D01*
X68961114Y-101710816D01*
X69005566Y-101760185D01*
X69016426Y-101768075D01*
X69031454Y-101780912D01*
X70479595Y-103229053D01*
X70513621Y-103291365D01*
X70516500Y-103318148D01*
X70516500Y-104881852D01*
X70496498Y-104949973D01*
X70479595Y-104970947D01*
X69570947Y-105879595D01*
X69508635Y-105913621D01*
X69481852Y-105916500D01*
X68496121Y-105916500D01*
X68428000Y-105896498D01*
X68381507Y-105842842D01*
X68371403Y-105772568D01*
X68391172Y-105720775D01*
X68423643Y-105671902D01*
X68468807Y-105553008D01*
X68485555Y-105508920D01*
X68485556Y-105508918D01*
X68488055Y-105502338D01*
X68494768Y-105454571D01*
X68512748Y-105326639D01*
X68512748Y-105326636D01*
X68513299Y-105322717D01*
X68513520Y-105306876D01*
X68513561Y-105303962D01*
X68513561Y-105303957D01*
X68513616Y-105300000D01*
X68493397Y-105119745D01*
X68488916Y-105106876D01*
X68436064Y-104955106D01*
X68436062Y-104955103D01*
X68433745Y-104948448D01*
X68371352Y-104848598D01*
X68341359Y-104800598D01*
X68337626Y-104794624D01*
X68332664Y-104789627D01*
X68214778Y-104670915D01*
X68214774Y-104670912D01*
X68209815Y-104665918D01*
X68198697Y-104658862D01*
X68134059Y-104617842D01*
X68056666Y-104568727D01*
X68018582Y-104555166D01*
X67892425Y-104510243D01*
X67892420Y-104510242D01*
X67885790Y-104507881D01*
X67878802Y-104507048D01*
X67878799Y-104507047D01*
X67739023Y-104490380D01*
X67705680Y-104486404D01*
X67698677Y-104487140D01*
X67698676Y-104487140D01*
X67532288Y-104504628D01*
X67532286Y-104504629D01*
X67525288Y-104505364D01*
X67353579Y-104563818D01*
X67199088Y-104658862D01*
X67194054Y-104663791D01*
X67192776Y-104664790D01*
X67126782Y-104690967D01*
X67115204Y-104691500D01*
X64907928Y-104691500D01*
X64839807Y-104671498D01*
X64793314Y-104617842D01*
X64788937Y-104606937D01*
X64736064Y-104455106D01*
X64736062Y-104455103D01*
X64733745Y-104448448D01*
X64713251Y-104415651D01*
X64641359Y-104300598D01*
X64637626Y-104294624D01*
X64632664Y-104289627D01*
X64590724Y-104247393D01*
X64556917Y-104184962D01*
X64562229Y-104114164D01*
X64591035Y-104069514D01*
X64615144Y-104045405D01*
X64677456Y-104011379D01*
X64704239Y-104008500D01*
X68370573Y-104008500D01*
X68438694Y-104028502D01*
X68478348Y-104069228D01*
X68505562Y-104114164D01*
X68538738Y-104168944D01*
X68555380Y-104196424D01*
X68560269Y-104201487D01*
X68560270Y-104201488D01*
X68637121Y-104281068D01*
X68681382Y-104326902D01*
X68687278Y-104330760D01*
X68801285Y-104405364D01*
X68833159Y-104426222D01*
X68839763Y-104428678D01*
X68839765Y-104428679D01*
X68996558Y-104486990D01*
X68996560Y-104486990D01*
X69003168Y-104489448D01*
X69075273Y-104499069D01*
X69175980Y-104512507D01*
X69175984Y-104512507D01*
X69182961Y-104513438D01*
X69189972Y-104512800D01*
X69189976Y-104512800D01*
X69340844Y-104499069D01*
X69363600Y-104496998D01*
X69370302Y-104494820D01*
X69370304Y-104494820D01*
X69529409Y-104443124D01*
X69529412Y-104443123D01*
X69536108Y-104440947D01*
X69632513Y-104383478D01*
X69685860Y-104351677D01*
X69685862Y-104351676D01*
X69691912Y-104348069D01*
X69823266Y-104222982D01*
X69923643Y-104071902D01*
X69988055Y-103902338D01*
X69992811Y-103868500D01*
X70012748Y-103726639D01*
X70012748Y-103726636D01*
X70013299Y-103722717D01*
X70013616Y-103700000D01*
X69993397Y-103519745D01*
X69966744Y-103443207D01*
X69936064Y-103355106D01*
X69936062Y-103355103D01*
X69933745Y-103348448D01*
X69912803Y-103314934D01*
X69841359Y-103200598D01*
X69837626Y-103194624D01*
X69813106Y-103169932D01*
X69714778Y-103070915D01*
X69714774Y-103070912D01*
X69709815Y-103065918D01*
X69556666Y-102968727D01*
X69526667Y-102958045D01*
X69392425Y-102910243D01*
X69392420Y-102910242D01*
X69385790Y-102907881D01*
X69296866Y-102897277D01*
X69269101Y-102893966D01*
X69222173Y-102874869D01*
X69220578Y-102877632D01*
X69213431Y-102873506D01*
X69206876Y-102868476D01*
X69058851Y-102807162D01*
X69050664Y-102806084D01*
X69050663Y-102806084D01*
X69039458Y-102804609D01*
X69008262Y-102800502D01*
X68939885Y-102791500D01*
X68939882Y-102791500D01*
X68939874Y-102791499D01*
X68919918Y-102788872D01*
X68854991Y-102760151D01*
X68815898Y-102700886D01*
X68811148Y-102677995D01*
X68794182Y-102526744D01*
X68793397Y-102519745D01*
X68791080Y-102513091D01*
X68736064Y-102355106D01*
X68736062Y-102355103D01*
X68733745Y-102348448D01*
X68694580Y-102285771D01*
X68641359Y-102200598D01*
X68637626Y-102194624D01*
X68632664Y-102189627D01*
X68514778Y-102070915D01*
X68514774Y-102070912D01*
X68509815Y-102065918D01*
X68502928Y-102061547D01*
X68412624Y-102004239D01*
X68356666Y-101968727D01*
X68309829Y-101952049D01*
X68192425Y-101910243D01*
X68192420Y-101910242D01*
X68185790Y-101907881D01*
X68178802Y-101907048D01*
X68178799Y-101907047D01*
X68055698Y-101892368D01*
X68005680Y-101886404D01*
X67998677Y-101887140D01*
X67998676Y-101887140D01*
X67832288Y-101904628D01*
X67832286Y-101904629D01*
X67825288Y-101905364D01*
X67653579Y-101963818D01*
X67499088Y-102058862D01*
X67494054Y-102063791D01*
X67492776Y-102064790D01*
X67426782Y-102090967D01*
X67415204Y-102091500D01*
X67204239Y-102091500D01*
X67136118Y-102071498D01*
X67115144Y-102054595D01*
X65601571Y-100541022D01*
X65567545Y-100478710D01*
X65574257Y-100403710D01*
X65592838Y-100358851D01*
X65596249Y-100332945D01*
X65599472Y-100308459D01*
X65608500Y-100239885D01*
X65608500Y-100239880D01*
X65612672Y-100208189D01*
X65613750Y-100200000D01*
X65609578Y-100168307D01*
X65608500Y-100151864D01*
X65608500Y-99604239D01*
X65628502Y-99536118D01*
X65645405Y-99515144D01*
X67521709Y-97638840D01*
X67584021Y-97604814D01*
X67599382Y-97602454D01*
X67659336Y-97596998D01*
X67666038Y-97594820D01*
X67666040Y-97594820D01*
X67825145Y-97543124D01*
X67825148Y-97543123D01*
X67831844Y-97540947D01*
X67987648Y-97448069D01*
X68119002Y-97322982D01*
X68219379Y-97171902D01*
X68283791Y-97002338D01*
X68309035Y-96822717D01*
X68309352Y-96800000D01*
X68289133Y-96619745D01*
X68286816Y-96613091D01*
X68231800Y-96455106D01*
X68231798Y-96455103D01*
X68229481Y-96448448D01*
X68198494Y-96398858D01*
X68179358Y-96330489D01*
X68200224Y-96262628D01*
X68254465Y-96216820D01*
X68324862Y-96207609D01*
X68389063Y-96237920D01*
G37*
%TD.AperFunction*%
%TD*%
M02*
