%TF.GenerationSoftware,KiCad,Pcbnew,(5.99.0-7626-g1ca75c8fda)*%
%TF.CreationDate,2021-03-16T10:58:17+01:00*%
%TF.ProjectId,CDEM,4344454d-2e6b-4696-9361-645f70636258,rev?*%
%TF.SameCoordinates,Original*%
%TF.FileFunction,Copper,L2,Bot*%
%TF.FilePolarity,Positive*%
%FSLAX46Y46*%
G04 Gerber Fmt 4.6, Leading zero omitted, Abs format (unit mm)*
G04 Created by KiCad (PCBNEW (5.99.0-7626-g1ca75c8fda)) date 2021-03-16 10:58:17*
%MOMM*%
%LPD*%
G01*
G04 APERTURE LIST*
%TA.AperFunction,ComponentPad*%
%ADD10O,1.000000X1.600000*%
%TD*%
%TA.AperFunction,ComponentPad*%
%ADD11O,1.000000X2.100000*%
%TD*%
%TA.AperFunction,ComponentPad*%
%ADD12R,1.700000X1.700000*%
%TD*%
%TA.AperFunction,ComponentPad*%
%ADD13O,1.700000X1.700000*%
%TD*%
%TA.AperFunction,ComponentPad*%
%ADD14R,1.520000X1.520000*%
%TD*%
%TA.AperFunction,ComponentPad*%
%ADD15C,1.520000*%
%TD*%
%TA.AperFunction,ViaPad*%
%ADD16C,0.600000*%
%TD*%
%TA.AperFunction,ViaPad*%
%ADD17C,0.800000*%
%TD*%
%TA.AperFunction,Conductor*%
%ADD18C,0.500000*%
%TD*%
%TA.AperFunction,Conductor*%
%ADD19C,0.750000*%
%TD*%
%TA.AperFunction,Conductor*%
%ADD20C,0.400000*%
%TD*%
%TA.AperFunction,Conductor*%
%ADD21C,0.200000*%
%TD*%
G04 APERTURE END LIST*
D10*
%TO.P,J1,S1,SHIELD*%
%TO.N,GND*%
X65670000Y-129350000D03*
D11*
X57030000Y-125170000D03*
D10*
X57030000Y-129350000D03*
D11*
X65670000Y-125170000D03*
%TD*%
D12*
%TO.P,J3,1,Pin_1*%
%TO.N,+3V3*%
X71300000Y-117400000D03*
D13*
%TO.P,J3,2,Pin_2*%
%TO.N,/USB-TX*%
X71300000Y-119940000D03*
%TO.P,J3,3,Pin_3*%
%TO.N,/USB-RX*%
X71300000Y-122480000D03*
%TO.P,J3,4,Pin_4*%
%TO.N,GND*%
X71300000Y-125020000D03*
%TD*%
D14*
%TO.P,J2,1*%
%TO.N,VCC*%
X43700000Y-102600000D03*
D15*
%TO.P,J2,2*%
%TO.N,/SM-DATA-REQ*%
X41160000Y-103870000D03*
%TO.P,J2,3*%
%TO.N,GND*%
X43700000Y-105140000D03*
%TO.P,J2,4*%
%TO.N,Net-(J2-Pad4)*%
X41160000Y-106410000D03*
%TO.P,J2,5*%
%TO.N,/SM-DATA*%
X43700000Y-107680000D03*
%TO.P,J2,6*%
%TO.N,GND*%
X41160000Y-108950000D03*
%TD*%
D16*
%TO.N,GND*%
X77500000Y-109700000D03*
X92600000Y-115500000D03*
X71200000Y-100500000D03*
D17*
X80200000Y-100600000D03*
D16*
X93300000Y-102900000D03*
X79300000Y-115900000D03*
X98100000Y-100300000D03*
D17*
X47450000Y-103800000D03*
D16*
X75100000Y-104900000D03*
D17*
X66100000Y-109400000D03*
D16*
X97700000Y-130900000D03*
D17*
X64500000Y-107800000D03*
D16*
X60900000Y-114000000D03*
X62400000Y-101600000D03*
X27600000Y-122700000D03*
X72300000Y-93200000D03*
D17*
X66100000Y-107800000D03*
D16*
X61700000Y-107600000D03*
X49800000Y-89100000D03*
X47500000Y-94400000D03*
D17*
X48400000Y-103800000D03*
D16*
X71000000Y-107700000D03*
X53900000Y-102100000D03*
X57500000Y-85300000D03*
X41500000Y-81800000D03*
X56200000Y-82000000D03*
X82600000Y-82100000D03*
X73700000Y-98700000D03*
X63200000Y-98000000D03*
D17*
X53400000Y-107000000D03*
D16*
X84900000Y-106500000D03*
X34700000Y-88400000D03*
X69100000Y-107700000D03*
X66800000Y-113800000D03*
D17*
X64900000Y-104500000D03*
D16*
X69300000Y-113500000D03*
D17*
X77900000Y-100400000D03*
X80350000Y-113050000D03*
D16*
X53900000Y-100600000D03*
X98300000Y-119500000D03*
X53400000Y-94600000D03*
X84800000Y-95200000D03*
X93600000Y-117800000D03*
X56700000Y-87600000D03*
X64900000Y-92700000D03*
X76600000Y-131200000D03*
D17*
X64500000Y-109400000D03*
D16*
X98300000Y-91200000D03*
X71400000Y-81900000D03*
D17*
X79300000Y-100600000D03*
D16*
X35700000Y-131200000D03*
X98100000Y-103800000D03*
D17*
X48400000Y-109900000D03*
D16*
X27400000Y-94100000D03*
D17*
X46500000Y-103800000D03*
D16*
X78900000Y-108700000D03*
X57200000Y-111100000D03*
X27300000Y-89900000D03*
X46500000Y-98000000D03*
X93300000Y-82300000D03*
X27600000Y-113400000D03*
D17*
X52000000Y-109000000D03*
X79100000Y-111800000D03*
X79750000Y-112450000D03*
D16*
X58000000Y-97700000D03*
X98100000Y-111200000D03*
X74200000Y-111000000D03*
D17*
X65300000Y-108700000D03*
D16*
X85000000Y-108700000D03*
X46200000Y-83100000D03*
X41600000Y-131100000D03*
D17*
X59350000Y-112160050D03*
D16*
X35500000Y-81900000D03*
X56700000Y-96300000D03*
X88300000Y-131000000D03*
D17*
X53200000Y-109000000D03*
D16*
X98100000Y-107100000D03*
X98300000Y-88200000D03*
X72300000Y-95100000D03*
X50200000Y-131200000D03*
X45100000Y-110800000D03*
X98400000Y-123200000D03*
X69200000Y-93800000D03*
X84700000Y-93200000D03*
X35500000Y-123500000D03*
X27700000Y-104300000D03*
X93200000Y-111100000D03*
X71600000Y-103900000D03*
X65800000Y-100200000D03*
X95800000Y-96100000D03*
X63700000Y-94700000D03*
X87100000Y-117800000D03*
X98400000Y-95100000D03*
D17*
X61800000Y-113700000D03*
D16*
X98300000Y-116400000D03*
%TO.N,VBUS*%
X62700000Y-114800000D03*
X62700000Y-114100000D03*
X60000000Y-107200000D03*
X59300000Y-107200000D03*
D17*
%TO.N,+3V3*%
X68600000Y-101000000D03*
D16*
X59300000Y-120200000D03*
D17*
X65200000Y-88700000D03*
D16*
X65000000Y-120100000D03*
D17*
X52700000Y-103600000D03*
X51800000Y-103600000D03*
X53600000Y-103600000D03*
D16*
%TO.N,/GPIO0*%
X67495736Y-96295736D03*
X61800000Y-102800000D03*
X68000000Y-102700000D03*
%TO.N,Net-(D3-Pad2)*%
X51300000Y-93800000D03*
X57600000Y-106600000D03*
%TO.N,Net-(D4-Pad2)*%
X57500000Y-105100000D03*
X49500000Y-93800000D03*
%TO.N,Net-(D5-Pad2)*%
X55600000Y-110700000D03*
X50400000Y-93800000D03*
%TO.N,/LED-COMM*%
X66300000Y-93900000D03*
X70000000Y-96100000D03*
%TO.N,/SM-DATA-REQ*%
X55600000Y-105900000D03*
X79900000Y-106700000D03*
%TO.N,/USB-TX*%
X94400000Y-116000000D03*
X94400000Y-117500000D03*
%TO.N,/LED-DATA*%
X69900000Y-98400000D03*
X66400000Y-94700000D03*
%TD*%
D18*
%TO.N,VBUS*%
X60000000Y-107200000D02*
X59300000Y-107200000D01*
X59300000Y-107200000D02*
X59300000Y-108000000D01*
X60000000Y-107200000D02*
X59300000Y-107900000D01*
X59300000Y-108000000D02*
X59300000Y-109400000D01*
X59300000Y-107900000D02*
X59300000Y-108000000D01*
X59300000Y-109400000D02*
X62700000Y-112800000D01*
X62700000Y-112800000D02*
X62700000Y-114800000D01*
D19*
%TO.N,+3V3*%
X51800000Y-103600000D02*
X58800000Y-103600000D01*
D20*
X64800000Y-120200000D02*
X64900000Y-120100000D01*
X64900000Y-120100000D02*
X65000000Y-120100000D01*
D19*
X70100000Y-102500000D02*
X70100000Y-105000000D01*
X70900000Y-98700000D02*
X70900000Y-93100000D01*
X70100000Y-105000000D02*
X69500000Y-105600000D01*
X66500000Y-88700000D02*
X65200000Y-88700000D01*
X68600000Y-101000000D02*
X70900000Y-98700000D01*
X69500000Y-105600000D02*
X60800000Y-105600000D01*
X70900000Y-93100000D02*
X66500000Y-88700000D01*
X60800000Y-105600000D02*
X59400000Y-104200000D01*
X58800000Y-103600000D02*
X59400000Y-104200000D01*
X68600000Y-101000000D02*
X70100000Y-102500000D01*
D20*
X59300000Y-120200000D02*
X64800000Y-120200000D01*
D21*
%TO.N,/GPIO0*%
X61900000Y-102700000D02*
X61800000Y-102800000D01*
X68000000Y-102700000D02*
X63500000Y-102700000D01*
X67495736Y-96295736D02*
X67495736Y-102195736D01*
X62100000Y-102700000D02*
X61900000Y-102700000D01*
X63500000Y-102700000D02*
X62100000Y-102700000D01*
X67495736Y-102195736D02*
X68000000Y-102700000D01*
%TO.N,Net-(D3-Pad2)*%
X54411998Y-105600000D02*
X51300000Y-105600000D01*
X57600000Y-106600000D02*
X55411998Y-106600000D01*
X50500000Y-104800000D02*
X50500000Y-95500000D01*
X55411998Y-106600000D02*
X54411998Y-105600000D01*
X51300000Y-105600000D02*
X50500000Y-104800000D01*
X50500000Y-95500000D02*
X51300000Y-94700000D01*
X51300000Y-94700000D02*
X51300000Y-93900000D01*
%TO.N,Net-(D4-Pad2)*%
X57500000Y-105100000D02*
X51900000Y-105100000D01*
X51099999Y-96100001D02*
X52300000Y-94900000D01*
X50200000Y-93100000D02*
X49500000Y-93800000D01*
X51900000Y-105100000D02*
X51099999Y-104299999D01*
X51465699Y-93100000D02*
X50200000Y-93100000D01*
X52300000Y-94900000D02*
X52300000Y-93934301D01*
X51099999Y-104299999D02*
X51099999Y-96100001D01*
X52300000Y-93934301D02*
X51465699Y-93100000D01*
%TO.N,Net-(D5-Pad2)*%
X55600000Y-110700000D02*
X55600000Y-108163998D01*
X49800000Y-105000000D02*
X49800000Y-95300000D01*
X55600000Y-108163998D02*
X53636002Y-106200000D01*
X53636002Y-106200000D02*
X51000000Y-106200000D01*
X49800000Y-95300000D02*
X50300000Y-94800000D01*
X50400000Y-94700000D02*
X50300000Y-94800000D01*
X50400000Y-93800000D02*
X50400000Y-94700000D01*
X51000000Y-106200000D02*
X49800000Y-105000000D01*
%TO.N,/LED-COMM*%
X66300000Y-93900000D02*
X67800000Y-93900000D01*
X67800000Y-93900000D02*
X70000000Y-96100000D01*
%TO.N,/SM-DATA-REQ*%
X60388002Y-106700000D02*
X79900000Y-106700000D01*
X59588002Y-105900000D02*
X60244001Y-106555999D01*
X60244001Y-106555999D02*
X60388002Y-106700000D01*
X55600000Y-105900000D02*
X59588002Y-105900000D01*
%TO.N,/USB-TX*%
X94400000Y-117500000D02*
X94400000Y-116000000D01*
%TO.N,/LED-DATA*%
X69900000Y-97200000D02*
X69900000Y-98400000D01*
X69100000Y-96400000D02*
X69000000Y-96300000D01*
X67400000Y-94700000D02*
X66400000Y-94700000D01*
X69000000Y-96300000D02*
X69900000Y-97200000D01*
X69000000Y-96300000D02*
X67400000Y-94700000D01*
%TD*%
%TA.AperFunction,Conductor*%
%TO.N,GND*%
G36*
X98534121Y-81228002D02*
G01*
X98580614Y-81281658D01*
X98592000Y-81334000D01*
X98592000Y-86871808D01*
X98590881Y-86888560D01*
X98586956Y-86917819D01*
X98586309Y-86922643D01*
X98586412Y-86927504D01*
X98590156Y-87104953D01*
X98590184Y-87107279D01*
X98590244Y-87130031D01*
X98644700Y-87473848D01*
X98645215Y-87475518D01*
X98645455Y-87476509D01*
X98646229Y-87481316D01*
X98661420Y-87528069D01*
X98661913Y-87529626D01*
X98677608Y-87580485D01*
X98679029Y-87582636D01*
X98679692Y-87584307D01*
X98752412Y-87808117D01*
X98752415Y-87808123D01*
X98753798Y-87812381D01*
X98754557Y-87813928D01*
X98754963Y-87814905D01*
X98756477Y-87819521D01*
X98758684Y-87823852D01*
X98758685Y-87823855D01*
X98778748Y-87863231D01*
X98779584Y-87864902D01*
X98802982Y-87912558D01*
X98804723Y-87914461D01*
X98805638Y-87916005D01*
X98912479Y-88125694D01*
X98912482Y-88125699D01*
X98914512Y-88129683D01*
X98915508Y-88131098D01*
X98916056Y-88131989D01*
X98918275Y-88136316D01*
X98921133Y-88140249D01*
X98921135Y-88140253D01*
X98947143Y-88176050D01*
X98948232Y-88177572D01*
X98978358Y-88220359D01*
X99001333Y-88292654D01*
X99071390Y-124511755D01*
X99051520Y-124579915D01*
X99047326Y-124586060D01*
X98925879Y-124753218D01*
X98920202Y-124761032D01*
X98919394Y-124762563D01*
X98918850Y-124763452D01*
X98916000Y-124767396D01*
X98913791Y-124771732D01*
X98913790Y-124771733D01*
X98893711Y-124811139D01*
X98892886Y-124812731D01*
X98868067Y-124859705D01*
X98867551Y-124862231D01*
X98866840Y-124863878D01*
X98792764Y-125009261D01*
X98757965Y-125077558D01*
X98757402Y-125079208D01*
X98757011Y-125080156D01*
X98754811Y-125084501D01*
X98740946Y-125127175D01*
X98739656Y-125131144D01*
X98739071Y-125132901D01*
X98721908Y-125183172D01*
X98721793Y-125185748D01*
X98721347Y-125187492D01*
X98648631Y-125411291D01*
X98647242Y-125415567D01*
X98646946Y-125417271D01*
X98646705Y-125418282D01*
X98645213Y-125422914D01*
X98642172Y-125442115D01*
X98637533Y-125471405D01*
X98637227Y-125473249D01*
X98628151Y-125525521D01*
X98628441Y-125528082D01*
X98628274Y-125529865D01*
X98595176Y-125738833D01*
X98594790Y-125741128D01*
X98590823Y-125763493D01*
X98590720Y-125768353D01*
X98590720Y-125768357D01*
X98590457Y-125780818D01*
X98586378Y-125974080D01*
X98586920Y-125978532D01*
X98591077Y-126012680D01*
X98592000Y-126027906D01*
X98592000Y-131566000D01*
X98571998Y-131634121D01*
X98518342Y-131680614D01*
X98466000Y-131692000D01*
X35034000Y-131692000D01*
X34965879Y-131671998D01*
X34919386Y-131618342D01*
X34908000Y-131566000D01*
X34908000Y-129617548D01*
X56022000Y-129617548D01*
X56022000Y-129697912D01*
X56022301Y-129704060D01*
X56035691Y-129840628D01*
X56038073Y-129852657D01*
X56091656Y-130030129D01*
X56096329Y-130041464D01*
X56183358Y-130205144D01*
X56190145Y-130215360D01*
X56307311Y-130359019D01*
X56315955Y-130367723D01*
X56458789Y-130485886D01*
X56468960Y-130492746D01*
X56632032Y-130580918D01*
X56643331Y-130585668D01*
X56758693Y-130621380D01*
X56772794Y-130621586D01*
X56776000Y-130614829D01*
X56776000Y-129622115D01*
X56774659Y-129617548D01*
X57284000Y-129617548D01*
X57284000Y-130608052D01*
X57287973Y-130621583D01*
X57295768Y-130622703D01*
X57403557Y-130590979D01*
X57414941Y-130586380D01*
X57579222Y-130500496D01*
X57589483Y-130493782D01*
X57733959Y-130377620D01*
X57742719Y-130369042D01*
X57861881Y-130227030D01*
X57868807Y-130216916D01*
X57958118Y-130054458D01*
X57962946Y-130043194D01*
X58019002Y-129866483D01*
X58021550Y-129854496D01*
X58037607Y-129711338D01*
X58038000Y-129704314D01*
X58038000Y-129622115D01*
X58036659Y-129617548D01*
X64662000Y-129617548D01*
X64662000Y-129697912D01*
X64662301Y-129704060D01*
X64675691Y-129840628D01*
X64678073Y-129852657D01*
X64731656Y-130030129D01*
X64736329Y-130041464D01*
X64823358Y-130205144D01*
X64830145Y-130215360D01*
X64947311Y-130359019D01*
X64955955Y-130367723D01*
X65098789Y-130485886D01*
X65108960Y-130492746D01*
X65272032Y-130580918D01*
X65283331Y-130585668D01*
X65398693Y-130621380D01*
X65412794Y-130621586D01*
X65416000Y-130614829D01*
X65416000Y-129622115D01*
X65414659Y-129617548D01*
X65924000Y-129617548D01*
X65924000Y-130608052D01*
X65927973Y-130621583D01*
X65935768Y-130622703D01*
X66043557Y-130590979D01*
X66054941Y-130586380D01*
X66219222Y-130500496D01*
X66229483Y-130493782D01*
X66373959Y-130377620D01*
X66382719Y-130369042D01*
X66501881Y-130227030D01*
X66508807Y-130216916D01*
X66598118Y-130054458D01*
X66602946Y-130043194D01*
X66659002Y-129866483D01*
X66661550Y-129854496D01*
X66677607Y-129711338D01*
X66678000Y-129704314D01*
X66678000Y-129622115D01*
X66673525Y-129606876D01*
X66672135Y-129605671D01*
X66664452Y-129604000D01*
X65942115Y-129604000D01*
X65926876Y-129608475D01*
X65925671Y-129609865D01*
X65924000Y-129617548D01*
X65414659Y-129617548D01*
X65411525Y-129606876D01*
X65410135Y-129605671D01*
X65402452Y-129604000D01*
X64680115Y-129604000D01*
X64664876Y-129608475D01*
X64663671Y-129609865D01*
X64662000Y-129617548D01*
X58036659Y-129617548D01*
X58033525Y-129606876D01*
X58032135Y-129605671D01*
X58024452Y-129604000D01*
X57302115Y-129604000D01*
X57286876Y-129608475D01*
X57285671Y-129609865D01*
X57284000Y-129617548D01*
X56774659Y-129617548D01*
X56771525Y-129606876D01*
X56770135Y-129605671D01*
X56762452Y-129604000D01*
X56040115Y-129604000D01*
X56024876Y-129608475D01*
X56023671Y-129609865D01*
X56022000Y-129617548D01*
X34908000Y-129617548D01*
X34908000Y-128995686D01*
X56022000Y-128995686D01*
X56022000Y-129077885D01*
X56026475Y-129093124D01*
X56027865Y-129094329D01*
X56035548Y-129096000D01*
X56757885Y-129096000D01*
X56773124Y-129091525D01*
X56774329Y-129090135D01*
X56776000Y-129082452D01*
X56776000Y-128091948D01*
X56774011Y-128085171D01*
X57284000Y-128085171D01*
X57284000Y-129077885D01*
X57288475Y-129093124D01*
X57289865Y-129094329D01*
X57297548Y-129096000D01*
X58019885Y-129096000D01*
X58035124Y-129091525D01*
X58036329Y-129090135D01*
X58038000Y-129082452D01*
X58038000Y-129002088D01*
X58037699Y-128995940D01*
X58037675Y-128995686D01*
X64662000Y-128995686D01*
X64662000Y-129077885D01*
X64666475Y-129093124D01*
X64667865Y-129094329D01*
X64675548Y-129096000D01*
X65397885Y-129096000D01*
X65413124Y-129091525D01*
X65414329Y-129090135D01*
X65416000Y-129082452D01*
X65416000Y-128091948D01*
X65414011Y-128085171D01*
X65924000Y-128085171D01*
X65924000Y-129077885D01*
X65928475Y-129093124D01*
X65929865Y-129094329D01*
X65937548Y-129096000D01*
X66659885Y-129096000D01*
X66675124Y-129091525D01*
X66676329Y-129090135D01*
X66678000Y-129082452D01*
X66678000Y-129002088D01*
X66677699Y-128995940D01*
X66664309Y-128859374D01*
X66661926Y-128847339D01*
X66608346Y-128669876D01*
X66603671Y-128658534D01*
X66516643Y-128494856D01*
X66509856Y-128484640D01*
X66392690Y-128340981D01*
X66384046Y-128332277D01*
X66241211Y-128214113D01*
X66231040Y-128207253D01*
X66067970Y-128119082D01*
X66056669Y-128114332D01*
X65941307Y-128078620D01*
X65927206Y-128078414D01*
X65924000Y-128085171D01*
X65414011Y-128085171D01*
X65412027Y-128078417D01*
X65404232Y-128077297D01*
X65296443Y-128109021D01*
X65285059Y-128113620D01*
X65120778Y-128199504D01*
X65110517Y-128206218D01*
X64966041Y-128322380D01*
X64957281Y-128330958D01*
X64838123Y-128472965D01*
X64831189Y-128483092D01*
X64741887Y-128645533D01*
X64737051Y-128656816D01*
X64680998Y-128833517D01*
X64678450Y-128845504D01*
X64662393Y-128988662D01*
X64662000Y-128995686D01*
X58037675Y-128995686D01*
X58024309Y-128859374D01*
X58021926Y-128847339D01*
X57968346Y-128669876D01*
X57963671Y-128658534D01*
X57876643Y-128494856D01*
X57869856Y-128484640D01*
X57752690Y-128340981D01*
X57744046Y-128332277D01*
X57601211Y-128214113D01*
X57591040Y-128207253D01*
X57427970Y-128119082D01*
X57416669Y-128114332D01*
X57301307Y-128078620D01*
X57287206Y-128078414D01*
X57284000Y-128085171D01*
X56774011Y-128085171D01*
X56772027Y-128078417D01*
X56764232Y-128077297D01*
X56656443Y-128109021D01*
X56645059Y-128113620D01*
X56480778Y-128199504D01*
X56470517Y-128206218D01*
X56326041Y-128322380D01*
X56317281Y-128330958D01*
X56198123Y-128472965D01*
X56191189Y-128483092D01*
X56101887Y-128645533D01*
X56097051Y-128656816D01*
X56040998Y-128833517D01*
X56038450Y-128845504D01*
X56022393Y-128988662D01*
X56022000Y-128995686D01*
X34908000Y-128995686D01*
X34908000Y-126028193D01*
X34909119Y-126011441D01*
X34913044Y-125982182D01*
X34913044Y-125982180D01*
X34913691Y-125977358D01*
X34909844Y-125795049D01*
X34909816Y-125792723D01*
X34909769Y-125774825D01*
X34909769Y-125774822D01*
X34909756Y-125769968D01*
X34871039Y-125525521D01*
X34857106Y-125437548D01*
X56022001Y-125437548D01*
X56022001Y-125767912D01*
X56022302Y-125774060D01*
X56035692Y-125910626D01*
X56038075Y-125922661D01*
X56091655Y-126100124D01*
X56096330Y-126111466D01*
X56183358Y-126275144D01*
X56190145Y-126285360D01*
X56307311Y-126429019D01*
X56315955Y-126437723D01*
X56458789Y-126555886D01*
X56468960Y-126562746D01*
X56632032Y-126650918D01*
X56643331Y-126655668D01*
X56758693Y-126691380D01*
X56772794Y-126691586D01*
X56776000Y-126684829D01*
X56776000Y-125442115D01*
X56771525Y-125426876D01*
X56770135Y-125425671D01*
X56762452Y-125424000D01*
X56040116Y-125424000D01*
X56024877Y-125428475D01*
X56023672Y-125429865D01*
X56022001Y-125437548D01*
X34857106Y-125437548D01*
X34856003Y-125430589D01*
X34856002Y-125430586D01*
X34855300Y-125426152D01*
X34854790Y-125424500D01*
X34854543Y-125423478D01*
X34853771Y-125418683D01*
X34838611Y-125372025D01*
X34838052Y-125370259D01*
X34829466Y-125342437D01*
X34822392Y-125319515D01*
X34820970Y-125317363D01*
X34820308Y-125315696D01*
X34746202Y-125087618D01*
X34745444Y-125086073D01*
X34745036Y-125085093D01*
X34743523Y-125080478D01*
X34721221Y-125036707D01*
X34720397Y-125035059D01*
X34699981Y-124993477D01*
X34697018Y-124987442D01*
X34695276Y-124985538D01*
X34694363Y-124983997D01*
X34587521Y-124774306D01*
X34587518Y-124774301D01*
X34585488Y-124770317D01*
X34584488Y-124768897D01*
X34583947Y-124768016D01*
X34581725Y-124763684D01*
X34552807Y-124723883D01*
X34551862Y-124722562D01*
X34521238Y-124679068D01*
X34519220Y-124677460D01*
X34518075Y-124676078D01*
X34437871Y-124565686D01*
X56022000Y-124565686D01*
X56022000Y-124897885D01*
X56026475Y-124913124D01*
X56027865Y-124914329D01*
X56035548Y-124916000D01*
X56757885Y-124916000D01*
X56773124Y-124911525D01*
X56774329Y-124910135D01*
X56776000Y-124902452D01*
X56776000Y-123661948D01*
X56774011Y-123655171D01*
X57284000Y-123655171D01*
X57284000Y-126678052D01*
X57287973Y-126691583D01*
X57295768Y-126692703D01*
X57403557Y-126660979D01*
X57414941Y-126656380D01*
X57579222Y-126570496D01*
X57589483Y-126563782D01*
X57733959Y-126447620D01*
X57742718Y-126439042D01*
X57785791Y-126387710D01*
X57844901Y-126348383D01*
X57915888Y-126347257D01*
X57964309Y-126373032D01*
X57981086Y-126387412D01*
X57981095Y-126387418D01*
X57986275Y-126391858D01*
X57992290Y-126395083D01*
X57992294Y-126395086D01*
X58139877Y-126474219D01*
X58145892Y-126477444D01*
X58233028Y-126502101D01*
X58313596Y-126524900D01*
X58313601Y-126524901D01*
X58320164Y-126526758D01*
X58326973Y-126527163D01*
X58326976Y-126527163D01*
X58463982Y-126535302D01*
X58500961Y-126537499D01*
X58580507Y-126524900D01*
X58673112Y-126510233D01*
X58673116Y-126510232D01*
X58679846Y-126509166D01*
X58686192Y-126506679D01*
X58686196Y-126506678D01*
X58842119Y-126445573D01*
X58842123Y-126445571D01*
X58848474Y-126443082D01*
X58998977Y-126342328D01*
X59021396Y-126318950D01*
X59119608Y-126216537D01*
X59119611Y-126216533D01*
X59124335Y-126211607D01*
X59187254Y-126108528D01*
X59215144Y-126062837D01*
X59215144Y-126062836D01*
X59218697Y-126057016D01*
X59228622Y-126028193D01*
X59275440Y-125892225D01*
X59275441Y-125892222D01*
X59277663Y-125885768D01*
X59289016Y-125787647D01*
X63406093Y-125787647D01*
X63407536Y-125794319D01*
X63407536Y-125794323D01*
X63440571Y-125947113D01*
X63444367Y-125964672D01*
X63519762Y-126129348D01*
X63628760Y-126273993D01*
X63633939Y-126278432D01*
X63633940Y-126278433D01*
X63761088Y-126387412D01*
X63766275Y-126391858D01*
X63772290Y-126395083D01*
X63772294Y-126395086D01*
X63919877Y-126474219D01*
X63925892Y-126477444D01*
X64013028Y-126502101D01*
X64093596Y-126524900D01*
X64093601Y-126524901D01*
X64100164Y-126526758D01*
X64106973Y-126527163D01*
X64106976Y-126527163D01*
X64243982Y-126535302D01*
X64280961Y-126537499D01*
X64360507Y-126524900D01*
X64453112Y-126510233D01*
X64453116Y-126510232D01*
X64459846Y-126509166D01*
X64466192Y-126506679D01*
X64466196Y-126506678D01*
X64622119Y-126445573D01*
X64622123Y-126445571D01*
X64628474Y-126443082D01*
X64746855Y-126363832D01*
X64814589Y-126342558D01*
X64883073Y-126361281D01*
X64914593Y-126388901D01*
X64947313Y-126429020D01*
X64955955Y-126437723D01*
X65098789Y-126555886D01*
X65108960Y-126562746D01*
X65272032Y-126650918D01*
X65283331Y-126655668D01*
X65398693Y-126691380D01*
X65412794Y-126691586D01*
X65416000Y-126684829D01*
X65416000Y-125437548D01*
X65924000Y-125437548D01*
X65924000Y-126678052D01*
X65927973Y-126691583D01*
X65935768Y-126692703D01*
X66043557Y-126660979D01*
X66054941Y-126656380D01*
X66219222Y-126570496D01*
X66229483Y-126563782D01*
X66373959Y-126447620D01*
X66382719Y-126439042D01*
X66501881Y-126297030D01*
X66508807Y-126286916D01*
X66598118Y-126124458D01*
X66602946Y-126113194D01*
X66659002Y-125936484D01*
X66661550Y-125924497D01*
X66677607Y-125781339D01*
X66678000Y-125774315D01*
X66678000Y-125442115D01*
X66673525Y-125426876D01*
X66672135Y-125425671D01*
X66664452Y-125424000D01*
X65942115Y-125424000D01*
X65926876Y-125428475D01*
X65925671Y-125429865D01*
X65924000Y-125437548D01*
X65416000Y-125437548D01*
X65416000Y-125292423D01*
X69968255Y-125292423D01*
X69976638Y-125344471D01*
X69979212Y-125354793D01*
X70050230Y-125562810D01*
X70054497Y-125572533D01*
X70159556Y-125765625D01*
X70165402Y-125774491D01*
X70301486Y-125947113D01*
X70308750Y-125954875D01*
X70471967Y-126102094D01*
X70480444Y-126108528D01*
X70666122Y-126226136D01*
X70675567Y-126231053D01*
X70878406Y-126315694D01*
X70888545Y-126318950D01*
X71028345Y-126351096D01*
X71042422Y-126350257D01*
X71046000Y-126340999D01*
X71046000Y-125292115D01*
X71044659Y-125287548D01*
X71554000Y-125287548D01*
X71554000Y-126339941D01*
X71558151Y-126354079D01*
X71568798Y-126355774D01*
X71572192Y-126355096D01*
X71783333Y-126293954D01*
X71793259Y-126290143D01*
X71991065Y-126194307D01*
X72000212Y-126188876D01*
X72179041Y-126061083D01*
X72187149Y-126054182D01*
X72341893Y-125898082D01*
X72348706Y-125889933D01*
X72474940Y-125709988D01*
X72480295Y-125700787D01*
X72574399Y-125502156D01*
X72578123Y-125492197D01*
X72635968Y-125285718D01*
X72634430Y-125277351D01*
X72622137Y-125274000D01*
X71572115Y-125274000D01*
X71556876Y-125278475D01*
X71555671Y-125279865D01*
X71554000Y-125287548D01*
X71044659Y-125287548D01*
X71041525Y-125276876D01*
X71040135Y-125275671D01*
X71032452Y-125274000D01*
X69983403Y-125274000D01*
X69970222Y-125277870D01*
X69968255Y-125292423D01*
X65416000Y-125292423D01*
X65416000Y-123661948D01*
X65414011Y-123655171D01*
X65924000Y-123655171D01*
X65924000Y-124897885D01*
X65928475Y-124913124D01*
X65929865Y-124914329D01*
X65937548Y-124916000D01*
X66659885Y-124916000D01*
X66675124Y-124911525D01*
X66676329Y-124910135D01*
X66678000Y-124902452D01*
X66678000Y-124572088D01*
X66677699Y-124565940D01*
X66664309Y-124429374D01*
X66661926Y-124417339D01*
X66608346Y-124239876D01*
X66603671Y-124228534D01*
X66516643Y-124064856D01*
X66509856Y-124054640D01*
X66392690Y-123910981D01*
X66384046Y-123902277D01*
X66241211Y-123784113D01*
X66231040Y-123777253D01*
X66067970Y-123689082D01*
X66056669Y-123684332D01*
X65941307Y-123648620D01*
X65927206Y-123648414D01*
X65924000Y-123655171D01*
X65414011Y-123655171D01*
X65412027Y-123648417D01*
X65404232Y-123647297D01*
X65296443Y-123679021D01*
X65285059Y-123683620D01*
X65120778Y-123769504D01*
X65110517Y-123776218D01*
X64966041Y-123892380D01*
X64957281Y-123900958D01*
X64838123Y-124042965D01*
X64831189Y-124053092D01*
X64741887Y-124215533D01*
X64737051Y-124226816D01*
X64680998Y-124403517D01*
X64678450Y-124415504D01*
X64662393Y-124558662D01*
X64662000Y-124565686D01*
X64662000Y-124784886D01*
X64641998Y-124853007D01*
X64588342Y-124899500D01*
X64518068Y-124909604D01*
X64489211Y-124901876D01*
X64465489Y-124892388D01*
X64458762Y-124891274D01*
X64458757Y-124891273D01*
X64293544Y-124863922D01*
X64293540Y-124863922D01*
X64286806Y-124862807D01*
X64279989Y-124863164D01*
X64279985Y-124863164D01*
X64131905Y-124870925D01*
X64105940Y-124872286D01*
X64099367Y-124874097D01*
X64099364Y-124874097D01*
X63963483Y-124911525D01*
X63931328Y-124920382D01*
X63771117Y-125004852D01*
X63632782Y-125121754D01*
X63628639Y-125127173D01*
X63628637Y-125127175D01*
X63526923Y-125260211D01*
X63522777Y-125265634D01*
X63519894Y-125271817D01*
X63519892Y-125271820D01*
X63449115Y-125423603D01*
X63446235Y-125429780D01*
X63444749Y-125436428D01*
X63444748Y-125436431D01*
X63435843Y-125476269D01*
X63406726Y-125606533D01*
X63406093Y-125787647D01*
X59289016Y-125787647D01*
X59298480Y-125705854D01*
X59298500Y-125700000D01*
X59278940Y-125519944D01*
X59269602Y-125492197D01*
X59223349Y-125354759D01*
X59223347Y-125354754D01*
X59221171Y-125348289D01*
X59127890Y-125193044D01*
X59026921Y-125086271D01*
X59008136Y-125066406D01*
X59008134Y-125066404D01*
X59003449Y-125061450D01*
X58853652Y-124959648D01*
X58685489Y-124892388D01*
X58678762Y-124891274D01*
X58678757Y-124891273D01*
X58513544Y-124863922D01*
X58513540Y-124863922D01*
X58506806Y-124862807D01*
X58499989Y-124863164D01*
X58499985Y-124863164D01*
X58351905Y-124870925D01*
X58325940Y-124872286D01*
X58319367Y-124874097D01*
X58319364Y-124874097D01*
X58197460Y-124907675D01*
X58126473Y-124906481D01*
X58067401Y-124867098D01*
X58038999Y-124802030D01*
X58038000Y-124786199D01*
X58038000Y-124572088D01*
X58037699Y-124565940D01*
X58024309Y-124429374D01*
X58021926Y-124417339D01*
X57968346Y-124239876D01*
X57963671Y-124228534D01*
X57876643Y-124064856D01*
X57869856Y-124054640D01*
X57752690Y-123910981D01*
X57744046Y-123902277D01*
X57601211Y-123784113D01*
X57591040Y-123777253D01*
X57427970Y-123689082D01*
X57416669Y-123684332D01*
X57301307Y-123648620D01*
X57287206Y-123648414D01*
X57284000Y-123655171D01*
X56774011Y-123655171D01*
X56772027Y-123648417D01*
X56764232Y-123647297D01*
X56656443Y-123679021D01*
X56645059Y-123683620D01*
X56480778Y-123769504D01*
X56470517Y-123776218D01*
X56326041Y-123892380D01*
X56317281Y-123900958D01*
X56198123Y-124042965D01*
X56191189Y-124053092D01*
X56101887Y-124215533D01*
X56097051Y-124226816D01*
X56040998Y-124403517D01*
X56038450Y-124415504D01*
X56022393Y-124558662D01*
X56022000Y-124565686D01*
X34437871Y-124565686D01*
X34379751Y-124485692D01*
X34379748Y-124485689D01*
X34377114Y-124482063D01*
X34375895Y-124480808D01*
X34375238Y-124480040D01*
X34372361Y-124476102D01*
X34337683Y-124441424D01*
X34336371Y-124440093D01*
X34304062Y-124406811D01*
X34299381Y-124401989D01*
X34297139Y-124400718D01*
X34295788Y-124399529D01*
X34126216Y-124229957D01*
X34124830Y-124228918D01*
X34124042Y-124228247D01*
X34120589Y-124224812D01*
X34116656Y-124221955D01*
X34116653Y-124221952D01*
X34080830Y-124195926D01*
X34079324Y-124194814D01*
X34036913Y-124163028D01*
X34034501Y-124162124D01*
X34032989Y-124161166D01*
X33842605Y-124022844D01*
X33842601Y-124022841D01*
X33838968Y-124020202D01*
X33837437Y-124019394D01*
X33836548Y-124018850D01*
X33832604Y-124016000D01*
X33828267Y-124013790D01*
X33788861Y-123993711D01*
X33787269Y-123992886D01*
X33740295Y-123968067D01*
X33737769Y-123967551D01*
X33736122Y-123966840D01*
X33526438Y-123860001D01*
X33526437Y-123860001D01*
X33522442Y-123857965D01*
X33520792Y-123857402D01*
X33519844Y-123857011D01*
X33515499Y-123854811D01*
X33468838Y-123839650D01*
X33467082Y-123839065D01*
X33464722Y-123838259D01*
X33440229Y-123829897D01*
X33423191Y-123824080D01*
X33423187Y-123824079D01*
X33416828Y-123821908D01*
X33414252Y-123821793D01*
X33412508Y-123821347D01*
X33188709Y-123748631D01*
X33188705Y-123748630D01*
X33184433Y-123747242D01*
X33182729Y-123746946D01*
X33181718Y-123746705D01*
X33177086Y-123745213D01*
X33128579Y-123737530D01*
X33126751Y-123737227D01*
X33123088Y-123736591D01*
X33074479Y-123728151D01*
X33071918Y-123728441D01*
X33070136Y-123728274D01*
X32861165Y-123695176D01*
X32858870Y-123694790D01*
X32836507Y-123690823D01*
X32831647Y-123690720D01*
X32831643Y-123690720D01*
X32727693Y-123688526D01*
X32625920Y-123686378D01*
X32587320Y-123691077D01*
X32572094Y-123692000D01*
X27034000Y-123692000D01*
X26965879Y-123671998D01*
X26919386Y-123618342D01*
X26908000Y-123566000D01*
X26908000Y-121700000D01*
X39287000Y-121700000D01*
X39287270Y-121704119D01*
X39301762Y-121925222D01*
X39306788Y-122001907D01*
X39307590Y-122005940D01*
X39307591Y-122005946D01*
X39356190Y-122250265D01*
X39365814Y-122298648D01*
X39367141Y-122302557D01*
X39367142Y-122302561D01*
X39428380Y-122482963D01*
X39463067Y-122585147D01*
X39464891Y-122588845D01*
X39580479Y-122823235D01*
X39596883Y-122856500D01*
X39764974Y-123108065D01*
X39964462Y-123335538D01*
X40191935Y-123535026D01*
X40443500Y-123703117D01*
X40447199Y-123704941D01*
X40447204Y-123704944D01*
X40544525Y-123752937D01*
X40714853Y-123836933D01*
X40718758Y-123838258D01*
X40718759Y-123838259D01*
X40997439Y-123932858D01*
X40997443Y-123932859D01*
X41001352Y-123934186D01*
X41005396Y-123934990D01*
X41005402Y-123934992D01*
X41294054Y-123992409D01*
X41294060Y-123992410D01*
X41298093Y-123993212D01*
X41302198Y-123993481D01*
X41302205Y-123993482D01*
X41595881Y-124012730D01*
X41600000Y-124013000D01*
X41604119Y-124012730D01*
X41897795Y-123993482D01*
X41897802Y-123993481D01*
X41901907Y-123993212D01*
X41905940Y-123992410D01*
X41905946Y-123992409D01*
X42194598Y-123934992D01*
X42194604Y-123934990D01*
X42198648Y-123934186D01*
X42202557Y-123932859D01*
X42202561Y-123932858D01*
X42481241Y-123838259D01*
X42481242Y-123838258D01*
X42485147Y-123836933D01*
X42655475Y-123752937D01*
X42752796Y-123704944D01*
X42752801Y-123704941D01*
X42756500Y-123703117D01*
X43008065Y-123535026D01*
X43235538Y-123335538D01*
X43435026Y-123108065D01*
X43603117Y-122856500D01*
X43619522Y-122823235D01*
X43735109Y-122588845D01*
X43736933Y-122585147D01*
X43771620Y-122482963D01*
X43832858Y-122302561D01*
X43832859Y-122302557D01*
X43834186Y-122298648D01*
X43843810Y-122250265D01*
X43892409Y-122005946D01*
X43892410Y-122005940D01*
X43893212Y-122001907D01*
X43898239Y-121925222D01*
X43912730Y-121704119D01*
X43913000Y-121700000D01*
X43911720Y-121680475D01*
X43893482Y-121402205D01*
X43893481Y-121402198D01*
X43893212Y-121398093D01*
X43878546Y-121324360D01*
X43834992Y-121105402D01*
X43834990Y-121105396D01*
X43834186Y-121101352D01*
X43804088Y-121012684D01*
X43738259Y-120818759D01*
X43738258Y-120818758D01*
X43736933Y-120814853D01*
X43639381Y-120617037D01*
X43604944Y-120547204D01*
X43604941Y-120547199D01*
X43603117Y-120543500D01*
X43435026Y-120291935D01*
X43344441Y-120188642D01*
X58486579Y-120188642D01*
X58504277Y-120369136D01*
X58561523Y-120541224D01*
X58565170Y-120547246D01*
X58565171Y-120547248D01*
X58607437Y-120617037D01*
X58655472Y-120696353D01*
X58781456Y-120826813D01*
X58787348Y-120830668D01*
X58787352Y-120830672D01*
X58855429Y-120875220D01*
X58933211Y-120926119D01*
X59103197Y-120989336D01*
X59110178Y-120990267D01*
X59110180Y-120990268D01*
X59159766Y-120996884D01*
X59282963Y-121013322D01*
X59289974Y-121012684D01*
X59289978Y-121012684D01*
X59430059Y-120999934D01*
X59463577Y-120996884D01*
X59470279Y-120994706D01*
X59470281Y-120994706D01*
X59629361Y-120943018D01*
X59629364Y-120943017D01*
X59636060Y-120940841D01*
X59660504Y-120926270D01*
X59725019Y-120908500D01*
X64774061Y-120908500D01*
X64782632Y-120908792D01*
X64837341Y-120912522D01*
X64844817Y-120911217D01*
X64844821Y-120911217D01*
X64878735Y-120905298D01*
X64917061Y-120904529D01*
X64982963Y-120913322D01*
X64989974Y-120912684D01*
X64989978Y-120912684D01*
X65130059Y-120899934D01*
X65163577Y-120896884D01*
X65170279Y-120894706D01*
X65170281Y-120894706D01*
X65329361Y-120843018D01*
X65329364Y-120843017D01*
X65336060Y-120840841D01*
X65491841Y-120747977D01*
X65623177Y-120622908D01*
X65723540Y-120471849D01*
X65787942Y-120302309D01*
X65813183Y-120122714D01*
X65813500Y-120100000D01*
X65793284Y-119919770D01*
X65733641Y-119748498D01*
X65697881Y-119691270D01*
X65641267Y-119600668D01*
X65641266Y-119600666D01*
X65637535Y-119594696D01*
X65509742Y-119466009D01*
X65413198Y-119404740D01*
X65362570Y-119372610D01*
X65362569Y-119372609D01*
X65356615Y-119368831D01*
X65185763Y-119307994D01*
X65178771Y-119307160D01*
X65178770Y-119307160D01*
X65095721Y-119297257D01*
X65005679Y-119286520D01*
X64998676Y-119287256D01*
X64998675Y-119287256D01*
X64832321Y-119304740D01*
X64832317Y-119304741D01*
X64825313Y-119305477D01*
X64818642Y-119307748D01*
X64660299Y-119361652D01*
X64660296Y-119361653D01*
X64653629Y-119363923D01*
X64647630Y-119367613D01*
X64647629Y-119367614D01*
X64583348Y-119407160D01*
X64499159Y-119458953D01*
X64494125Y-119463883D01*
X64492965Y-119464789D01*
X64426971Y-119490967D01*
X64415391Y-119491500D01*
X59728942Y-119491500D01*
X59669599Y-119474258D01*
X59668898Y-119475695D01*
X59662561Y-119472605D01*
X59656615Y-119468831D01*
X59485763Y-119407994D01*
X59478771Y-119407160D01*
X59478770Y-119407160D01*
X59395721Y-119397257D01*
X59305679Y-119386520D01*
X59298676Y-119387256D01*
X59298675Y-119387256D01*
X59132321Y-119404740D01*
X59132317Y-119404741D01*
X59125313Y-119405477D01*
X59118642Y-119407748D01*
X58960299Y-119461652D01*
X58960296Y-119461653D01*
X58953629Y-119463923D01*
X58947630Y-119467613D01*
X58947629Y-119467614D01*
X58934494Y-119475695D01*
X58799159Y-119558953D01*
X58669583Y-119685844D01*
X58665772Y-119691758D01*
X58665770Y-119691760D01*
X58650422Y-119715576D01*
X58571338Y-119838289D01*
X58568927Y-119844914D01*
X58511720Y-120002089D01*
X58511719Y-120002093D01*
X58509310Y-120008712D01*
X58486579Y-120188642D01*
X43344441Y-120188642D01*
X43235538Y-120064462D01*
X43008065Y-119864974D01*
X42756500Y-119696883D01*
X42752801Y-119695059D01*
X42752796Y-119695056D01*
X42613591Y-119626408D01*
X42485147Y-119563067D01*
X42462157Y-119555263D01*
X42202561Y-119467142D01*
X42202557Y-119467141D01*
X42198648Y-119465814D01*
X42194604Y-119465010D01*
X42194598Y-119465008D01*
X41905946Y-119407591D01*
X41905940Y-119407590D01*
X41901907Y-119406788D01*
X41897802Y-119406519D01*
X41897795Y-119406518D01*
X41604119Y-119387270D01*
X41600000Y-119387000D01*
X41595881Y-119387270D01*
X41302205Y-119406518D01*
X41302198Y-119406519D01*
X41298093Y-119406788D01*
X41294060Y-119407590D01*
X41294054Y-119407591D01*
X41005402Y-119465008D01*
X41005396Y-119465010D01*
X41001352Y-119465814D01*
X40997443Y-119467141D01*
X40997439Y-119467142D01*
X40737843Y-119555263D01*
X40714853Y-119563067D01*
X40586409Y-119626408D01*
X40447204Y-119695056D01*
X40447199Y-119695059D01*
X40443500Y-119696883D01*
X40191935Y-119864974D01*
X39964462Y-120064462D01*
X39764974Y-120291935D01*
X39596883Y-120543500D01*
X39595059Y-120547199D01*
X39595056Y-120547204D01*
X39560619Y-120617037D01*
X39463067Y-120814853D01*
X39461742Y-120818758D01*
X39461741Y-120818759D01*
X39395913Y-121012684D01*
X39365814Y-121101352D01*
X39365010Y-121105396D01*
X39365008Y-121105402D01*
X39321455Y-121324360D01*
X39306788Y-121398093D01*
X39306519Y-121402198D01*
X39306518Y-121402205D01*
X39288280Y-121680475D01*
X39287000Y-121700000D01*
X26908000Y-121700000D01*
X26908000Y-116550000D01*
X69936500Y-116550000D01*
X69936500Y-118250000D01*
X69941727Y-118323079D01*
X69982904Y-118463316D01*
X69987775Y-118470895D01*
X70057051Y-118578691D01*
X70057053Y-118578694D01*
X70061923Y-118586271D01*
X70068733Y-118592172D01*
X70165569Y-118676082D01*
X70165572Y-118676084D01*
X70172381Y-118681984D01*
X70305330Y-118742700D01*
X70311639Y-118743607D01*
X70370244Y-118781269D01*
X70399738Y-118845849D01*
X70389636Y-118916123D01*
X70357601Y-118958949D01*
X70322492Y-118989415D01*
X70319109Y-118993541D01*
X70319105Y-118993545D01*
X70246768Y-119081767D01*
X70176304Y-119167705D01*
X70062245Y-119368077D01*
X69983578Y-119584802D01*
X69982629Y-119590051D01*
X69982628Y-119590054D01*
X69953977Y-119748498D01*
X69942551Y-119811683D01*
X69941464Y-119924946D01*
X69940593Y-120015704D01*
X69940338Y-120042233D01*
X69977002Y-120269861D01*
X70051494Y-120488056D01*
X70054044Y-120492743D01*
X70054045Y-120492745D01*
X70080422Y-120541224D01*
X70161685Y-120690580D01*
X70304424Y-120871644D01*
X70350631Y-120913322D01*
X70471659Y-121022489D01*
X70471665Y-121022494D01*
X70475629Y-121026069D01*
X70480142Y-121028928D01*
X70480144Y-121028929D01*
X70598242Y-121103731D01*
X70645087Y-121157079D01*
X70655654Y-121227285D01*
X70626587Y-121292058D01*
X70596186Y-121317894D01*
X70501196Y-121375535D01*
X70501189Y-121375540D01*
X70496631Y-121378306D01*
X70492601Y-121381803D01*
X70399426Y-121462656D01*
X70322492Y-121529415D01*
X70319109Y-121533541D01*
X70319105Y-121533545D01*
X70246768Y-121621767D01*
X70176304Y-121707705D01*
X70062245Y-121908077D01*
X69983578Y-122124802D01*
X69982629Y-122130051D01*
X69982628Y-122130054D01*
X69960890Y-122250265D01*
X69942551Y-122351683D01*
X69942500Y-122357023D01*
X69941097Y-122503210D01*
X69940338Y-122582233D01*
X69977002Y-122809861D01*
X70051494Y-123028056D01*
X70161685Y-123230580D01*
X70304424Y-123411644D01*
X70308389Y-123415220D01*
X70471659Y-123562489D01*
X70471665Y-123562494D01*
X70475629Y-123566069D01*
X70480142Y-123568928D01*
X70480144Y-123568929D01*
X70598712Y-123644029D01*
X70645557Y-123697377D01*
X70656124Y-123767583D01*
X70627057Y-123832357D01*
X70596656Y-123858192D01*
X70501486Y-123915942D01*
X70492896Y-123922206D01*
X70326884Y-124066264D01*
X70319464Y-124073895D01*
X70180100Y-124243860D01*
X70174075Y-124252627D01*
X70065342Y-124443644D01*
X70060877Y-124453308D01*
X69985882Y-124659916D01*
X69983111Y-124670184D01*
X69969008Y-124748174D01*
X69970427Y-124761414D01*
X69985062Y-124766000D01*
X72619079Y-124766000D01*
X72632610Y-124762027D01*
X72633876Y-124753218D01*
X72586954Y-124572433D01*
X72583419Y-124562395D01*
X72493147Y-124361998D01*
X72487967Y-124352692D01*
X72365218Y-124170366D01*
X72358557Y-124162080D01*
X72206830Y-124003030D01*
X72198873Y-123995990D01*
X72022524Y-123864783D01*
X72009981Y-123857005D01*
X71962628Y-123804107D01*
X71951391Y-123734005D01*
X71979838Y-123668957D01*
X72003122Y-123647409D01*
X72183711Y-123518357D01*
X72346030Y-123354617D01*
X72433043Y-123230580D01*
X72475375Y-123170236D01*
X72475376Y-123170234D01*
X72478439Y-123165868D01*
X72577153Y-122957508D01*
X72639349Y-122735494D01*
X72643720Y-122693560D01*
X72655322Y-122582233D01*
X72663249Y-122506176D01*
X72663500Y-122480000D01*
X72663250Y-122477052D01*
X72644458Y-122255576D01*
X72644457Y-122255572D01*
X72644007Y-122250265D01*
X72586084Y-122027098D01*
X72574737Y-122001907D01*
X72493578Y-121821743D01*
X72493577Y-121821741D01*
X72491388Y-121816882D01*
X72412699Y-121700000D01*
X89587000Y-121700000D01*
X89587270Y-121704119D01*
X89601762Y-121925222D01*
X89606788Y-122001907D01*
X89607590Y-122005940D01*
X89607591Y-122005946D01*
X89656190Y-122250265D01*
X89665814Y-122298648D01*
X89667141Y-122302557D01*
X89667142Y-122302561D01*
X89728380Y-122482963D01*
X89763067Y-122585147D01*
X89764891Y-122588845D01*
X89880479Y-122823235D01*
X89896883Y-122856500D01*
X90064974Y-123108065D01*
X90264462Y-123335538D01*
X90491935Y-123535026D01*
X90743500Y-123703117D01*
X90747199Y-123704941D01*
X90747204Y-123704944D01*
X90844525Y-123752937D01*
X91014853Y-123836933D01*
X91018758Y-123838258D01*
X91018759Y-123838259D01*
X91297439Y-123932858D01*
X91297443Y-123932859D01*
X91301352Y-123934186D01*
X91305396Y-123934990D01*
X91305402Y-123934992D01*
X91594054Y-123992409D01*
X91594060Y-123992410D01*
X91598093Y-123993212D01*
X91602198Y-123993481D01*
X91602205Y-123993482D01*
X91895881Y-124012730D01*
X91900000Y-124013000D01*
X91904119Y-124012730D01*
X92197795Y-123993482D01*
X92197802Y-123993481D01*
X92201907Y-123993212D01*
X92205940Y-123992410D01*
X92205946Y-123992409D01*
X92494598Y-123934992D01*
X92494604Y-123934990D01*
X92498648Y-123934186D01*
X92502557Y-123932859D01*
X92502561Y-123932858D01*
X92781241Y-123838259D01*
X92781242Y-123838258D01*
X92785147Y-123836933D01*
X92955475Y-123752937D01*
X93052796Y-123704944D01*
X93052801Y-123704941D01*
X93056500Y-123703117D01*
X93308065Y-123535026D01*
X93535538Y-123335538D01*
X93735026Y-123108065D01*
X93903117Y-122856500D01*
X93919522Y-122823235D01*
X94035109Y-122588845D01*
X94036933Y-122585147D01*
X94071620Y-122482963D01*
X94132858Y-122302561D01*
X94132859Y-122302557D01*
X94134186Y-122298648D01*
X94143810Y-122250265D01*
X94192409Y-122005946D01*
X94192410Y-122005940D01*
X94193212Y-122001907D01*
X94198239Y-121925222D01*
X94212730Y-121704119D01*
X94213000Y-121700000D01*
X94211720Y-121680475D01*
X94193482Y-121402205D01*
X94193481Y-121402198D01*
X94193212Y-121398093D01*
X94178546Y-121324360D01*
X94134992Y-121105402D01*
X94134990Y-121105396D01*
X94134186Y-121101352D01*
X94104088Y-121012684D01*
X94038259Y-120818759D01*
X94038258Y-120818758D01*
X94036933Y-120814853D01*
X93939381Y-120617037D01*
X93904944Y-120547204D01*
X93904941Y-120547199D01*
X93903117Y-120543500D01*
X93735026Y-120291935D01*
X93535538Y-120064462D01*
X93308065Y-119864974D01*
X93056500Y-119696883D01*
X93052801Y-119695059D01*
X93052796Y-119695056D01*
X92913591Y-119626408D01*
X92785147Y-119563067D01*
X92762157Y-119555263D01*
X92502561Y-119467142D01*
X92502557Y-119467141D01*
X92498648Y-119465814D01*
X92494604Y-119465010D01*
X92494598Y-119465008D01*
X92205946Y-119407591D01*
X92205940Y-119407590D01*
X92201907Y-119406788D01*
X92197802Y-119406519D01*
X92197795Y-119406518D01*
X91904119Y-119387270D01*
X91900000Y-119387000D01*
X91895881Y-119387270D01*
X91602205Y-119406518D01*
X91602198Y-119406519D01*
X91598093Y-119406788D01*
X91594060Y-119407590D01*
X91594054Y-119407591D01*
X91305402Y-119465008D01*
X91305396Y-119465010D01*
X91301352Y-119465814D01*
X91297443Y-119467141D01*
X91297439Y-119467142D01*
X91037843Y-119555263D01*
X91014853Y-119563067D01*
X90886409Y-119626408D01*
X90747204Y-119695056D01*
X90747199Y-119695059D01*
X90743500Y-119696883D01*
X90491935Y-119864974D01*
X90264462Y-120064462D01*
X90064974Y-120291935D01*
X89896883Y-120543500D01*
X89895059Y-120547199D01*
X89895056Y-120547204D01*
X89860619Y-120617037D01*
X89763067Y-120814853D01*
X89761742Y-120818758D01*
X89761741Y-120818759D01*
X89695913Y-121012684D01*
X89665814Y-121101352D01*
X89665010Y-121105396D01*
X89665008Y-121105402D01*
X89621455Y-121324360D01*
X89606788Y-121398093D01*
X89606519Y-121402198D01*
X89606518Y-121402205D01*
X89588280Y-121680475D01*
X89587000Y-121700000D01*
X72412699Y-121700000D01*
X72362627Y-121625626D01*
X72203482Y-121458799D01*
X72018504Y-121321171D01*
X72013743Y-121318751D01*
X72010425Y-121316693D01*
X71963071Y-121263796D01*
X71951832Y-121193695D01*
X71980277Y-121128645D01*
X72003564Y-121107093D01*
X72081358Y-121051500D01*
X72183711Y-120978357D01*
X72294792Y-120866304D01*
X72342277Y-120818403D01*
X72342278Y-120818402D01*
X72346030Y-120814617D01*
X72349090Y-120810255D01*
X72475375Y-120630236D01*
X72475376Y-120630234D01*
X72478439Y-120625868D01*
X72518541Y-120541224D01*
X72574868Y-120422331D01*
X72577153Y-120417508D01*
X72639349Y-120195494D01*
X72663249Y-119966176D01*
X72663500Y-119940000D01*
X72662377Y-119926769D01*
X72644458Y-119715576D01*
X72644457Y-119715572D01*
X72644007Y-119710265D01*
X72586084Y-119487098D01*
X72580948Y-119475695D01*
X72493578Y-119281743D01*
X72493577Y-119281741D01*
X72491388Y-119276882D01*
X72362627Y-119085626D01*
X72267508Y-118985915D01*
X72230868Y-118947507D01*
X72198321Y-118884410D01*
X72205052Y-118813733D01*
X72248926Y-118757916D01*
X72286538Y-118739640D01*
X72319545Y-118729948D01*
X72354670Y-118719635D01*
X72354672Y-118719634D01*
X72363316Y-118717096D01*
X72427135Y-118676082D01*
X72478691Y-118642949D01*
X72478694Y-118642947D01*
X72486271Y-118638077D01*
X72526048Y-118592172D01*
X72576082Y-118534431D01*
X72576084Y-118534428D01*
X72581984Y-118527619D01*
X72642700Y-118394670D01*
X72654530Y-118312390D01*
X72662861Y-118254448D01*
X72662862Y-118254441D01*
X72663500Y-118250000D01*
X72663500Y-116550000D01*
X72658273Y-116476921D01*
X72634846Y-116397136D01*
X72619635Y-116345330D01*
X72619634Y-116345328D01*
X72617096Y-116336684D01*
X72571393Y-116265569D01*
X72542949Y-116221309D01*
X72542947Y-116221306D01*
X72538077Y-116213729D01*
X72516848Y-116195334D01*
X72434431Y-116123918D01*
X72434428Y-116123916D01*
X72427619Y-116118016D01*
X72294670Y-116057300D01*
X72285755Y-116056018D01*
X72285754Y-116056018D01*
X72154448Y-116037139D01*
X72154441Y-116037138D01*
X72150000Y-116036500D01*
X70450000Y-116036500D01*
X70376921Y-116041727D01*
X70323884Y-116057300D01*
X70245330Y-116080365D01*
X70245328Y-116080366D01*
X70236684Y-116082904D01*
X70229105Y-116087775D01*
X70121309Y-116157051D01*
X70121306Y-116157053D01*
X70113729Y-116161923D01*
X70107828Y-116168733D01*
X70023918Y-116265569D01*
X70023916Y-116265572D01*
X70018016Y-116272381D01*
X69957300Y-116405330D01*
X69956018Y-116414245D01*
X69956018Y-116414246D01*
X69937139Y-116545552D01*
X69937138Y-116545559D01*
X69936500Y-116550000D01*
X26908000Y-116550000D01*
X26908000Y-115988642D01*
X93586579Y-115988642D01*
X93604277Y-116169136D01*
X93661523Y-116341224D01*
X93665170Y-116347246D01*
X93665171Y-116347248D01*
X93743704Y-116476921D01*
X93755472Y-116496353D01*
X93760362Y-116501417D01*
X93764664Y-116507003D01*
X93762309Y-116508817D01*
X93789076Y-116559970D01*
X93791501Y-116584570D01*
X93791500Y-116915347D01*
X93771498Y-116983468D01*
X93770242Y-116985199D01*
X93769583Y-116985844D01*
X93768073Y-116988188D01*
X93768068Y-116988194D01*
X93763878Y-116994696D01*
X93671338Y-117138289D01*
X93649958Y-117197032D01*
X93611720Y-117302089D01*
X93611719Y-117302093D01*
X93609310Y-117308712D01*
X93586579Y-117488642D01*
X93604277Y-117669136D01*
X93661523Y-117841224D01*
X93755472Y-117996353D01*
X93881456Y-118126813D01*
X93887348Y-118130668D01*
X93887352Y-118130672D01*
X93919311Y-118151585D01*
X94033211Y-118226119D01*
X94203197Y-118289336D01*
X94210178Y-118290267D01*
X94210180Y-118290268D01*
X94259766Y-118296884D01*
X94382963Y-118313322D01*
X94389974Y-118312684D01*
X94389978Y-118312684D01*
X94530059Y-118299934D01*
X94563577Y-118296884D01*
X94570279Y-118294706D01*
X94570281Y-118294706D01*
X94729361Y-118243018D01*
X94729364Y-118243017D01*
X94736060Y-118240841D01*
X94891841Y-118147977D01*
X95023177Y-118022908D01*
X95123540Y-117871849D01*
X95187942Y-117702309D01*
X95213183Y-117522714D01*
X95213500Y-117500000D01*
X95193284Y-117319770D01*
X95133641Y-117148498D01*
X95037535Y-116994696D01*
X95035200Y-116992345D01*
X95009117Y-116927903D01*
X95008500Y-116915449D01*
X95008500Y-116583040D01*
X95029552Y-116513313D01*
X95119639Y-116377721D01*
X95119640Y-116377719D01*
X95123540Y-116371849D01*
X95187942Y-116202309D01*
X95204724Y-116082904D01*
X95212632Y-116026636D01*
X95212632Y-116026633D01*
X95213183Y-116022714D01*
X95213500Y-116000000D01*
X95193284Y-115819770D01*
X95133641Y-115648498D01*
X95096673Y-115589336D01*
X95041267Y-115500668D01*
X95041266Y-115500666D01*
X95037535Y-115494696D01*
X95028745Y-115485844D01*
X94914710Y-115371012D01*
X94909742Y-115366009D01*
X94807962Y-115301417D01*
X94762570Y-115272610D01*
X94762569Y-115272609D01*
X94756615Y-115268831D01*
X94585763Y-115207994D01*
X94578771Y-115207160D01*
X94578770Y-115207160D01*
X94495721Y-115197257D01*
X94405679Y-115186520D01*
X94398676Y-115187256D01*
X94398675Y-115187256D01*
X94232321Y-115204740D01*
X94232317Y-115204741D01*
X94225313Y-115205477D01*
X94218642Y-115207748D01*
X94060299Y-115261652D01*
X94060296Y-115261653D01*
X94053629Y-115263923D01*
X93899159Y-115358953D01*
X93769583Y-115485844D01*
X93765772Y-115491758D01*
X93765770Y-115491760D01*
X93708102Y-115581243D01*
X93671338Y-115638289D01*
X93649958Y-115697032D01*
X93611720Y-115802089D01*
X93611719Y-115802093D01*
X93609310Y-115808712D01*
X93586579Y-115988642D01*
X26908000Y-115988642D01*
X26908000Y-110827606D01*
X32671617Y-110827606D01*
X32688363Y-111118025D01*
X32689188Y-111122230D01*
X32689189Y-111122238D01*
X32721501Y-111286931D01*
X32744368Y-111403485D01*
X32745755Y-111407535D01*
X32745756Y-111407540D01*
X32837207Y-111674646D01*
X32838596Y-111678702D01*
X32969303Y-111938585D01*
X32971729Y-111942114D01*
X32971732Y-111942120D01*
X33084099Y-112105614D01*
X33134072Y-112178325D01*
X33329852Y-112393484D01*
X33333141Y-112396234D01*
X33549729Y-112577331D01*
X33549734Y-112577335D01*
X33553021Y-112580083D01*
X33610385Y-112616067D01*
X33795810Y-112732384D01*
X33795814Y-112732386D01*
X33799450Y-112734667D01*
X33932015Y-112794523D01*
X34060667Y-112852612D01*
X34060671Y-112852614D01*
X34064579Y-112854378D01*
X34103767Y-112865986D01*
X34339388Y-112935780D01*
X34339392Y-112935781D01*
X34343501Y-112936998D01*
X34347735Y-112937646D01*
X34347740Y-112937647D01*
X34600840Y-112976376D01*
X34631055Y-112981000D01*
X34779177Y-112983327D01*
X34917629Y-112985502D01*
X34917635Y-112985502D01*
X34921920Y-112985569D01*
X35210715Y-112950621D01*
X35492094Y-112876803D01*
X35496054Y-112875163D01*
X35496059Y-112875161D01*
X35735471Y-112775993D01*
X35760852Y-112765480D01*
X36012015Y-112618712D01*
X36240936Y-112439215D01*
X36282588Y-112396234D01*
X36440395Y-112233389D01*
X36443378Y-112230311D01*
X36445911Y-112226863D01*
X36445915Y-112226858D01*
X36613057Y-111999321D01*
X36615595Y-111995866D01*
X36754401Y-111740216D01*
X36857228Y-111468094D01*
X36922172Y-111184535D01*
X36948031Y-110894785D01*
X36948500Y-110850000D01*
X36940090Y-110726636D01*
X36929006Y-110564049D01*
X36929005Y-110564043D01*
X36928714Y-110559772D01*
X36921880Y-110526769D01*
X36884219Y-110344914D01*
X36869723Y-110274915D01*
X36775550Y-110008978D01*
X40465852Y-110008978D01*
X40471133Y-110016032D01*
X40613139Y-110099014D01*
X40623254Y-110103774D01*
X40825259Y-110177698D01*
X40836044Y-110180588D01*
X41047954Y-110217571D01*
X41059088Y-110218506D01*
X41274185Y-110217379D01*
X41285321Y-110216327D01*
X41496816Y-110177129D01*
X41507584Y-110174123D01*
X41708803Y-110098088D01*
X41718863Y-110093225D01*
X41844170Y-110018230D01*
X41853741Y-110007871D01*
X41850198Y-109999408D01*
X41172812Y-109322022D01*
X41158868Y-109314408D01*
X41157035Y-109314539D01*
X41150420Y-109318790D01*
X40472612Y-109996598D01*
X40465852Y-110008978D01*
X36775550Y-110008978D01*
X36772618Y-110000699D01*
X36639196Y-109742199D01*
X36471927Y-109504198D01*
X36469002Y-109501050D01*
X36276825Y-109294244D01*
X36276822Y-109294242D01*
X36273904Y-109291101D01*
X36270588Y-109288387D01*
X36270585Y-109288384D01*
X36131096Y-109174214D01*
X36048793Y-109106849D01*
X35914128Y-109024326D01*
X39889659Y-109024326D01*
X39890361Y-109035478D01*
X39922897Y-109248102D01*
X39925564Y-109258963D01*
X39995240Y-109462468D01*
X39999788Y-109472682D01*
X40090496Y-109635653D01*
X40100548Y-109645544D01*
X40108152Y-109642638D01*
X40787978Y-108962812D01*
X40794355Y-108951132D01*
X41524408Y-108951132D01*
X41524539Y-108952965D01*
X41528790Y-108959580D01*
X42208682Y-109639472D01*
X42221062Y-109646232D01*
X42227326Y-109641543D01*
X42325628Y-109460495D01*
X42330061Y-109450249D01*
X42397603Y-109246022D01*
X42400157Y-109235130D01*
X42430743Y-109020219D01*
X42431350Y-109012996D01*
X42432905Y-108953631D01*
X42432677Y-108946379D01*
X42413380Y-108730166D01*
X42411398Y-108719152D01*
X42354640Y-108511679D01*
X42350746Y-108501206D01*
X42258142Y-108307057D01*
X42252447Y-108297428D01*
X42229292Y-108265205D01*
X42218500Y-108256792D01*
X42205463Y-108263747D01*
X41532022Y-108937188D01*
X41524408Y-108951132D01*
X40794355Y-108951132D01*
X40795592Y-108948868D01*
X40795461Y-108947035D01*
X40791210Y-108940420D01*
X40114544Y-108263754D01*
X40102164Y-108256994D01*
X40094192Y-108262962D01*
X40028728Y-108367322D01*
X40023657Y-108377274D01*
X39943425Y-108576857D01*
X39940194Y-108587557D01*
X39896574Y-108798188D01*
X39895289Y-108809295D01*
X39889659Y-109024326D01*
X35914128Y-109024326D01*
X35800759Y-108954854D01*
X35796456Y-108952965D01*
X35538319Y-108839650D01*
X35538315Y-108839649D01*
X35534391Y-108837926D01*
X35254619Y-108758231D01*
X34992288Y-108720896D01*
X34970872Y-108717848D01*
X34970870Y-108717848D01*
X34966620Y-108717243D01*
X34813229Y-108716440D01*
X34680008Y-108715742D01*
X34680002Y-108715742D01*
X34675722Y-108715720D01*
X34671478Y-108716279D01*
X34671474Y-108716279D01*
X34565993Y-108730166D01*
X34387310Y-108753690D01*
X34383170Y-108754823D01*
X34383168Y-108754823D01*
X34370711Y-108758231D01*
X34106719Y-108830451D01*
X34102771Y-108832135D01*
X33843093Y-108942897D01*
X33843089Y-108942899D01*
X33839141Y-108944583D01*
X33724831Y-109012996D01*
X33593211Y-109091768D01*
X33593207Y-109091771D01*
X33589529Y-109093972D01*
X33586186Y-109096650D01*
X33586182Y-109096653D01*
X33553639Y-109122725D01*
X33362501Y-109275856D01*
X33162257Y-109486869D01*
X32992504Y-109723105D01*
X32856383Y-109980194D01*
X32854911Y-109984217D01*
X32854909Y-109984221D01*
X32775700Y-110200670D01*
X32756412Y-110253378D01*
X32694441Y-110537601D01*
X32671617Y-110827606D01*
X26908000Y-110827606D01*
X26908000Y-103949964D01*
X39889013Y-103949964D01*
X39923260Y-104173772D01*
X39996600Y-104387979D01*
X40106713Y-104585813D01*
X40110265Y-104590153D01*
X40110268Y-104590157D01*
X40146188Y-104634042D01*
X40250119Y-104761021D01*
X40254382Y-104764662D01*
X40254383Y-104764663D01*
X40262049Y-104771210D01*
X40422285Y-104908065D01*
X40475936Y-104939416D01*
X40612923Y-105019465D01*
X40612926Y-105019466D01*
X40617770Y-105022297D01*
X40623040Y-105024226D01*
X40628118Y-105026615D01*
X40627303Y-105028347D01*
X40677534Y-105065472D01*
X40702752Y-105131840D01*
X40688085Y-105201305D01*
X40634919Y-105253563D01*
X40477625Y-105334748D01*
X40297998Y-105472580D01*
X40252805Y-105522247D01*
X40176071Y-105606577D01*
X40145619Y-105640043D01*
X40142638Y-105644794D01*
X40142638Y-105644795D01*
X40072138Y-105757182D01*
X40025303Y-105831843D01*
X39940854Y-106041918D01*
X39930586Y-106091500D01*
X39906868Y-106206032D01*
X39894940Y-106263628D01*
X39894793Y-106269237D01*
X39894793Y-106269238D01*
X39893066Y-106335172D01*
X39889013Y-106489964D01*
X39923260Y-106713772D01*
X39996600Y-106927979D01*
X40106713Y-107125813D01*
X40110265Y-107130153D01*
X40110268Y-107130157D01*
X40152414Y-107181649D01*
X40250119Y-107301021D01*
X40254382Y-107304662D01*
X40254383Y-107304663D01*
X40282958Y-107329068D01*
X40422285Y-107448065D01*
X40478703Y-107481033D01*
X40612923Y-107559465D01*
X40612926Y-107559466D01*
X40617770Y-107562297D01*
X40623040Y-107564226D01*
X40628118Y-107566615D01*
X40627385Y-107568174D01*
X40678161Y-107605693D01*
X40703386Y-107672057D01*
X40688727Y-107741524D01*
X40635555Y-107793795D01*
X40482875Y-107872599D01*
X40473442Y-107878586D01*
X40473303Y-107878693D01*
X40464839Y-107890285D01*
X40471471Y-107902261D01*
X41147188Y-108577978D01*
X41161132Y-108585592D01*
X41162965Y-108585461D01*
X41169580Y-108581210D01*
X41846022Y-107904768D01*
X41852247Y-107893369D01*
X41842437Y-107880938D01*
X41777929Y-107837592D01*
X41768139Y-107832210D01*
X41688469Y-107797237D01*
X41644149Y-107759964D01*
X42429013Y-107759964D01*
X42463260Y-107983772D01*
X42536600Y-108197979D01*
X42646713Y-108395813D01*
X42650265Y-108400153D01*
X42650268Y-108400157D01*
X42663275Y-108416048D01*
X42790119Y-108571021D01*
X42794382Y-108574662D01*
X42794383Y-108574663D01*
X42802049Y-108581210D01*
X42962285Y-108718065D01*
X43022292Y-108753130D01*
X43152923Y-108829465D01*
X43152926Y-108829466D01*
X43157770Y-108832297D01*
X43163040Y-108834226D01*
X43163041Y-108834226D01*
X43365130Y-108908181D01*
X43365134Y-108908182D01*
X43370394Y-108910107D01*
X43375910Y-108911070D01*
X43375915Y-108911071D01*
X43587912Y-108948070D01*
X43587913Y-108948070D01*
X43593436Y-108949034D01*
X43599042Y-108949005D01*
X43599046Y-108949005D01*
X43702436Y-108948463D01*
X43819847Y-108947848D01*
X43825365Y-108946825D01*
X43825368Y-108946825D01*
X44036950Y-108907611D01*
X44036951Y-108907611D01*
X44042469Y-108906588D01*
X44047714Y-108904606D01*
X44047718Y-108904605D01*
X44126380Y-108874881D01*
X44254267Y-108826556D01*
X44448545Y-108710283D01*
X44619162Y-108561444D01*
X44760725Y-108384744D01*
X44764781Y-108377274D01*
X44866087Y-108190694D01*
X44866089Y-108190688D01*
X44868761Y-108185768D01*
X44873253Y-108172187D01*
X44938093Y-107976127D01*
X44938093Y-107976126D01*
X44939853Y-107970805D01*
X44952643Y-107880938D01*
X44971244Y-107750241D01*
X44971244Y-107750240D01*
X44971755Y-107746650D01*
X44973500Y-107680000D01*
X44953373Y-107454483D01*
X44893629Y-107236093D01*
X44796155Y-107031736D01*
X44664033Y-106847869D01*
X44559662Y-106746726D01*
X44505473Y-106694213D01*
X44505471Y-106694212D01*
X44501440Y-106690305D01*
X44406697Y-106626640D01*
X44318173Y-106567154D01*
X44318170Y-106567152D01*
X44313513Y-106564023D01*
X44308373Y-106561767D01*
X44308370Y-106561765D01*
X44228484Y-106526697D01*
X44174149Y-106481001D01*
X44153144Y-106413183D01*
X44172139Y-106344774D01*
X44225103Y-106297495D01*
X44234593Y-106293458D01*
X44248799Y-106288090D01*
X44258863Y-106283225D01*
X44384170Y-106208230D01*
X44393741Y-106197871D01*
X44390198Y-106189408D01*
X43712812Y-105512022D01*
X43698868Y-105504408D01*
X43697035Y-105504539D01*
X43690420Y-105508790D01*
X43012612Y-106186598D01*
X43005852Y-106198978D01*
X43011133Y-106206032D01*
X43153139Y-106289014D01*
X43168329Y-106296162D01*
X43167565Y-106297785D01*
X43218142Y-106335172D01*
X43243353Y-106401542D01*
X43228679Y-106471006D01*
X43175519Y-106523253D01*
X43031509Y-106597582D01*
X43017625Y-106604748D01*
X42837998Y-106742580D01*
X42685619Y-106910043D01*
X42682638Y-106914794D01*
X42682638Y-106914795D01*
X42580435Y-107077721D01*
X42565303Y-107101843D01*
X42480854Y-107311918D01*
X42465330Y-107386881D01*
X42453675Y-107443162D01*
X42434940Y-107533628D01*
X42429013Y-107759964D01*
X41644149Y-107759964D01*
X41634133Y-107751541D01*
X41613128Y-107683723D01*
X41632122Y-107615314D01*
X41685086Y-107568034D01*
X41694574Y-107563998D01*
X41709017Y-107558540D01*
X41709019Y-107558539D01*
X41714267Y-107556556D01*
X41908545Y-107440283D01*
X42038618Y-107326813D01*
X42074930Y-107295136D01*
X42074931Y-107295135D01*
X42079162Y-107291444D01*
X42220725Y-107114744D01*
X42240827Y-107077721D01*
X42326087Y-106920694D01*
X42326089Y-106920688D01*
X42328761Y-106915768D01*
X42389765Y-106731307D01*
X42398093Y-106706127D01*
X42398093Y-106706126D01*
X42399853Y-106700805D01*
X42425618Y-106519770D01*
X42431244Y-106480241D01*
X42431244Y-106480240D01*
X42431755Y-106476650D01*
X42433500Y-106410000D01*
X42413373Y-106184483D01*
X42353629Y-105966093D01*
X42256155Y-105761736D01*
X42142984Y-105604242D01*
X42127310Y-105582429D01*
X42127308Y-105582427D01*
X42124033Y-105577869D01*
X42019662Y-105476726D01*
X41965473Y-105424213D01*
X41965471Y-105424212D01*
X41961440Y-105420305D01*
X41882272Y-105367106D01*
X41778173Y-105297154D01*
X41778170Y-105297152D01*
X41773513Y-105294023D01*
X41768373Y-105291767D01*
X41768370Y-105291765D01*
X41689135Y-105256983D01*
X41638414Y-105214326D01*
X42429659Y-105214326D01*
X42430361Y-105225478D01*
X42462897Y-105438102D01*
X42465564Y-105448963D01*
X42535240Y-105652468D01*
X42539788Y-105662682D01*
X42630496Y-105825653D01*
X42640548Y-105835544D01*
X42648152Y-105832638D01*
X43327978Y-105152812D01*
X43334355Y-105141132D01*
X44064408Y-105141132D01*
X44064539Y-105142965D01*
X44068790Y-105149580D01*
X44748682Y-105829472D01*
X44761062Y-105836232D01*
X44767326Y-105831543D01*
X44865628Y-105650495D01*
X44870061Y-105640249D01*
X44937603Y-105436022D01*
X44940157Y-105425130D01*
X44970743Y-105210219D01*
X44971350Y-105202996D01*
X44972905Y-105143631D01*
X44972677Y-105136379D01*
X44953380Y-104920166D01*
X44951398Y-104909152D01*
X44894640Y-104701679D01*
X44890746Y-104691206D01*
X44798142Y-104497057D01*
X44792447Y-104487428D01*
X44769292Y-104455205D01*
X44758500Y-104446792D01*
X44745463Y-104453747D01*
X44072022Y-105127188D01*
X44064408Y-105141132D01*
X43334355Y-105141132D01*
X43335592Y-105138868D01*
X43335461Y-105137035D01*
X43331210Y-105130420D01*
X42654544Y-104453754D01*
X42642164Y-104446994D01*
X42634192Y-104452962D01*
X42568728Y-104557322D01*
X42563657Y-104567274D01*
X42483425Y-104766857D01*
X42480194Y-104777557D01*
X42436574Y-104988188D01*
X42435289Y-104999295D01*
X42429659Y-105214326D01*
X41638414Y-105214326D01*
X41634800Y-105211287D01*
X41613795Y-105143469D01*
X41632790Y-105075061D01*
X41685753Y-105027781D01*
X41695236Y-105023747D01*
X41714267Y-105016556D01*
X41908545Y-104900283D01*
X42079162Y-104751444D01*
X42194161Y-104607901D01*
X42217216Y-104579124D01*
X42220725Y-104574744D01*
X42224781Y-104567274D01*
X42326087Y-104380694D01*
X42326089Y-104380688D01*
X42328761Y-104375768D01*
X42387446Y-104198321D01*
X42398093Y-104166127D01*
X42398093Y-104166126D01*
X42399853Y-104160805D01*
X42431755Y-103936650D01*
X42433500Y-103870000D01*
X42434268Y-103870020D01*
X42451250Y-103804658D01*
X42503418Y-103756503D01*
X42573340Y-103744197D01*
X42641848Y-103774192D01*
X42655569Y-103786082D01*
X42655572Y-103786084D01*
X42662381Y-103791984D01*
X42795330Y-103852700D01*
X42804245Y-103853982D01*
X42804246Y-103853982D01*
X42927945Y-103871767D01*
X42992525Y-103901261D01*
X43030909Y-103960987D01*
X43030909Y-104031983D01*
X43011775Y-104070785D01*
X43004839Y-104080285D01*
X43011471Y-104092261D01*
X43687188Y-104767978D01*
X43701132Y-104775592D01*
X43702965Y-104775461D01*
X43709580Y-104771210D01*
X44386022Y-104094768D01*
X44392247Y-104083369D01*
X44386478Y-104076059D01*
X44359981Y-104010193D01*
X44373300Y-103940457D01*
X44422208Y-103888992D01*
X44476401Y-103872327D01*
X44526340Y-103868755D01*
X44533079Y-103868273D01*
X44611165Y-103845345D01*
X44664670Y-103829635D01*
X44664672Y-103829634D01*
X44673316Y-103827096D01*
X44755636Y-103774192D01*
X44788691Y-103752949D01*
X44788694Y-103752947D01*
X44796271Y-103748077D01*
X44822220Y-103718131D01*
X44886082Y-103644431D01*
X44886084Y-103644428D01*
X44891984Y-103637619D01*
X44903080Y-103613322D01*
X44948958Y-103512864D01*
X44948958Y-103512863D01*
X44952700Y-103504670D01*
X44955258Y-103486881D01*
X44972861Y-103364448D01*
X44972862Y-103364441D01*
X44973500Y-103360000D01*
X44973500Y-101840000D01*
X44968273Y-101766921D01*
X44927096Y-101626684D01*
X44857700Y-101518702D01*
X44852949Y-101511309D01*
X44852947Y-101511306D01*
X44848077Y-101503729D01*
X44841267Y-101497828D01*
X44744431Y-101413918D01*
X44744428Y-101413916D01*
X44737619Y-101408016D01*
X44604670Y-101347300D01*
X44595755Y-101346018D01*
X44595754Y-101346018D01*
X44464448Y-101327139D01*
X44464441Y-101327138D01*
X44460000Y-101326500D01*
X42940000Y-101326500D01*
X42866921Y-101331727D01*
X42813884Y-101347300D01*
X42735330Y-101370365D01*
X42735328Y-101370366D01*
X42726684Y-101372904D01*
X42719105Y-101377775D01*
X42611309Y-101447051D01*
X42611306Y-101447053D01*
X42603729Y-101451923D01*
X42597828Y-101458733D01*
X42513918Y-101555569D01*
X42513916Y-101555572D01*
X42508016Y-101562381D01*
X42504272Y-101570579D01*
X42498147Y-101583992D01*
X42447300Y-101695330D01*
X42446018Y-101704245D01*
X42446018Y-101704246D01*
X42427139Y-101835552D01*
X42427138Y-101835559D01*
X42426500Y-101840000D01*
X42426500Y-103067527D01*
X42406498Y-103135648D01*
X42352842Y-103182141D01*
X42282568Y-103192245D01*
X42217988Y-103162751D01*
X42198183Y-103141060D01*
X42124033Y-103037869D01*
X42019662Y-102936726D01*
X41965473Y-102884213D01*
X41965471Y-102884212D01*
X41961440Y-102880305D01*
X41885171Y-102829054D01*
X41778173Y-102757154D01*
X41778170Y-102757152D01*
X41773513Y-102754023D01*
X41566195Y-102663017D01*
X41560744Y-102661708D01*
X41560740Y-102661707D01*
X41351494Y-102611472D01*
X41351493Y-102611472D01*
X41346037Y-102610162D01*
X41227312Y-102603316D01*
X41125604Y-102597451D01*
X41125601Y-102597451D01*
X41119998Y-102597128D01*
X40895224Y-102624329D01*
X40678820Y-102690904D01*
X40673840Y-102693474D01*
X40673836Y-102693476D01*
X40504060Y-102781104D01*
X40477625Y-102794748D01*
X40297998Y-102932580D01*
X40145619Y-103100043D01*
X40142638Y-103104794D01*
X40142638Y-103104795D01*
X40072229Y-103217037D01*
X40025303Y-103291843D01*
X39940854Y-103501918D01*
X39932343Y-103543018D01*
X39912752Y-103637619D01*
X39894940Y-103723628D01*
X39889013Y-103949964D01*
X26908000Y-103949964D01*
X26908000Y-100667606D01*
X32671617Y-100667606D01*
X32688363Y-100958025D01*
X32689188Y-100962230D01*
X32689189Y-100962238D01*
X32702231Y-101028713D01*
X32744368Y-101243485D01*
X32745755Y-101247535D01*
X32745756Y-101247540D01*
X32837207Y-101514646D01*
X32838596Y-101518702D01*
X32840523Y-101522533D01*
X32963437Y-101766921D01*
X32969303Y-101778585D01*
X32971729Y-101782114D01*
X32971732Y-101782120D01*
X33014602Y-101844496D01*
X33134072Y-102018325D01*
X33329852Y-102233484D01*
X33333141Y-102236234D01*
X33549729Y-102417331D01*
X33549734Y-102417335D01*
X33553021Y-102420083D01*
X33644777Y-102477641D01*
X33795810Y-102572384D01*
X33795814Y-102572386D01*
X33799450Y-102574667D01*
X33907946Y-102623655D01*
X34060667Y-102692612D01*
X34060671Y-102692614D01*
X34064579Y-102694378D01*
X34068699Y-102695598D01*
X34068698Y-102695598D01*
X34339388Y-102775780D01*
X34339392Y-102775781D01*
X34343501Y-102776998D01*
X34347735Y-102777646D01*
X34347740Y-102777647D01*
X34600840Y-102816376D01*
X34631055Y-102821000D01*
X34779177Y-102823327D01*
X34917629Y-102825502D01*
X34917635Y-102825502D01*
X34921920Y-102825569D01*
X35210715Y-102790621D01*
X35492094Y-102716803D01*
X35496054Y-102715163D01*
X35496059Y-102715161D01*
X35673957Y-102641473D01*
X35760852Y-102605480D01*
X36012015Y-102458712D01*
X36240936Y-102279215D01*
X36282588Y-102236234D01*
X36435721Y-102078212D01*
X36443378Y-102070311D01*
X36445911Y-102066863D01*
X36445915Y-102066858D01*
X36613057Y-101839321D01*
X36615595Y-101835866D01*
X36687059Y-101704246D01*
X36752351Y-101583992D01*
X36752352Y-101583990D01*
X36754401Y-101580216D01*
X36857228Y-101308094D01*
X36922172Y-101024535D01*
X36948031Y-100734785D01*
X36948500Y-100690000D01*
X36928714Y-100399772D01*
X36869723Y-100114915D01*
X36772618Y-99840699D01*
X36639196Y-99582199D01*
X36471927Y-99344198D01*
X36469002Y-99341050D01*
X36276825Y-99134244D01*
X36276822Y-99134242D01*
X36273904Y-99131101D01*
X36270588Y-99128387D01*
X36270585Y-99128384D01*
X36078638Y-98971277D01*
X36048793Y-98946849D01*
X35800759Y-98794854D01*
X35782389Y-98786790D01*
X35538319Y-98679650D01*
X35538315Y-98679649D01*
X35534391Y-98677926D01*
X35254619Y-98598231D01*
X35040790Y-98567799D01*
X34970872Y-98557848D01*
X34970870Y-98557848D01*
X34966620Y-98557243D01*
X34813229Y-98556440D01*
X34680008Y-98555742D01*
X34680002Y-98555742D01*
X34675722Y-98555720D01*
X34671478Y-98556279D01*
X34671474Y-98556279D01*
X34544629Y-98572979D01*
X34387310Y-98593690D01*
X34383170Y-98594823D01*
X34383168Y-98594823D01*
X34370711Y-98598231D01*
X34106719Y-98670451D01*
X34102771Y-98672135D01*
X33843093Y-98782897D01*
X33843089Y-98782899D01*
X33839141Y-98784583D01*
X33818230Y-98797098D01*
X33593211Y-98931768D01*
X33593207Y-98931771D01*
X33589529Y-98933972D01*
X33586186Y-98936650D01*
X33586182Y-98936653D01*
X33492097Y-99012030D01*
X33362501Y-99115856D01*
X33162257Y-99326869D01*
X32992504Y-99563105D01*
X32856383Y-99820194D01*
X32854911Y-99824217D01*
X32854909Y-99824221D01*
X32808476Y-99951106D01*
X32756412Y-100093378D01*
X32694441Y-100377601D01*
X32671617Y-100667606D01*
X26908000Y-100667606D01*
X26908000Y-93788642D01*
X48686579Y-93788642D01*
X48704277Y-93969136D01*
X48761523Y-94141224D01*
X48765170Y-94147246D01*
X48765171Y-94147248D01*
X48818038Y-94234541D01*
X48855472Y-94296353D01*
X48981456Y-94426813D01*
X48987348Y-94430668D01*
X48987352Y-94430672D01*
X49075361Y-94488263D01*
X49133211Y-94526119D01*
X49303197Y-94589336D01*
X49310178Y-94590267D01*
X49310180Y-94590268D01*
X49338203Y-94594007D01*
X49356576Y-94596458D01*
X49421452Y-94625293D01*
X49460440Y-94684627D01*
X49461161Y-94755620D01*
X49429006Y-94810446D01*
X49402426Y-94837026D01*
X49390035Y-94847894D01*
X49382388Y-94853762D01*
X49366191Y-94866190D01*
X49361165Y-94872740D01*
X49361162Y-94872743D01*
X49317442Y-94929720D01*
X49268694Y-94993250D01*
X49241549Y-95058785D01*
X49207405Y-95141215D01*
X49206328Y-95149399D01*
X49206327Y-95149401D01*
X49192300Y-95255952D01*
X49186501Y-95300000D01*
X49187579Y-95308188D01*
X49187579Y-95308189D01*
X49190423Y-95329792D01*
X49191501Y-95346238D01*
X49191500Y-104953770D01*
X49190422Y-104970216D01*
X49186501Y-105000000D01*
X49191500Y-105037972D01*
X49191500Y-105037977D01*
X49200718Y-105107994D01*
X49207405Y-105158785D01*
X49210566Y-105166415D01*
X49210566Y-105166416D01*
X49217921Y-105184171D01*
X49217920Y-105184171D01*
X49217922Y-105184174D01*
X49237278Y-105230904D01*
X49262487Y-105291765D01*
X49268693Y-105306749D01*
X49300827Y-105348627D01*
X49359530Y-105425130D01*
X49366190Y-105433810D01*
X49372740Y-105438836D01*
X49372743Y-105438839D01*
X49390035Y-105452107D01*
X49402427Y-105462974D01*
X50537033Y-106597582D01*
X50547894Y-106609966D01*
X50566190Y-106633810D01*
X50693250Y-106731307D01*
X50700880Y-106734467D01*
X50700881Y-106734468D01*
X50802059Y-106776376D01*
X50802061Y-106776377D01*
X50833587Y-106789436D01*
X50833589Y-106789436D01*
X50841214Y-106792595D01*
X50849400Y-106793673D01*
X50849401Y-106793673D01*
X50861274Y-106795236D01*
X50962019Y-106808500D01*
X50962032Y-106808501D01*
X50991809Y-106812421D01*
X50991811Y-106812421D01*
X50999999Y-106813499D01*
X51008187Y-106812421D01*
X51008188Y-106812421D01*
X51029783Y-106809578D01*
X51046229Y-106808500D01*
X53331764Y-106808500D01*
X53399885Y-106828502D01*
X53420860Y-106845405D01*
X53804522Y-107229068D01*
X54954597Y-108379144D01*
X54988622Y-108441456D01*
X54991501Y-108468239D01*
X54991500Y-109294244D01*
X54991500Y-110115347D01*
X54971498Y-110183468D01*
X54970242Y-110185199D01*
X54969583Y-110185844D01*
X54968073Y-110188188D01*
X54968068Y-110188194D01*
X54928658Y-110249347D01*
X54871338Y-110338289D01*
X54849958Y-110397032D01*
X54811720Y-110502089D01*
X54811719Y-110502093D01*
X54809310Y-110508712D01*
X54786579Y-110688642D01*
X54804277Y-110869136D01*
X54861523Y-111041224D01*
X54865170Y-111047246D01*
X54865171Y-111047248D01*
X54948315Y-111184535D01*
X54955472Y-111196353D01*
X55081456Y-111326813D01*
X55087348Y-111330668D01*
X55087352Y-111330672D01*
X55119311Y-111351585D01*
X55233211Y-111426119D01*
X55403197Y-111489336D01*
X55410178Y-111490267D01*
X55410180Y-111490268D01*
X55459766Y-111496884D01*
X55582963Y-111513322D01*
X55589974Y-111512684D01*
X55589978Y-111512684D01*
X55730059Y-111499934D01*
X55763577Y-111496884D01*
X55770279Y-111494706D01*
X55770281Y-111494706D01*
X55929361Y-111443018D01*
X55929364Y-111443017D01*
X55936060Y-111440841D01*
X56091841Y-111347977D01*
X56223177Y-111222908D01*
X56323540Y-111071849D01*
X56387942Y-110902309D01*
X56413183Y-110722714D01*
X56413500Y-110700000D01*
X56393284Y-110519770D01*
X56333641Y-110348498D01*
X56237535Y-110194696D01*
X56235200Y-110192345D01*
X56209117Y-110127903D01*
X56208500Y-110115449D01*
X56208500Y-108210236D01*
X56209578Y-108193790D01*
X56212422Y-108172187D01*
X56212422Y-108172186D01*
X56213500Y-108163998D01*
X56192596Y-108005212D01*
X56155483Y-107915615D01*
X56140145Y-107878586D01*
X56134468Y-107864879D01*
X56134467Y-107864878D01*
X56131307Y-107857248D01*
X56033810Y-107730188D01*
X56009966Y-107711892D01*
X55997582Y-107701031D01*
X55860549Y-107563998D01*
X55720145Y-107423595D01*
X55686121Y-107361283D01*
X55691185Y-107290468D01*
X55733732Y-107233632D01*
X55800252Y-107208821D01*
X55809241Y-107208500D01*
X57015909Y-107208500D01*
X57084902Y-107229068D01*
X57233211Y-107326119D01*
X57403197Y-107389336D01*
X57410178Y-107390267D01*
X57410180Y-107390268D01*
X57459766Y-107396884D01*
X57582963Y-107413322D01*
X57589974Y-107412684D01*
X57589978Y-107412684D01*
X57730059Y-107399934D01*
X57763577Y-107396884D01*
X57770279Y-107394706D01*
X57770281Y-107394706D01*
X57929361Y-107343018D01*
X57929364Y-107343017D01*
X57936060Y-107340841D01*
X58091841Y-107247977D01*
X58223177Y-107122908D01*
X58261393Y-107065388D01*
X58315750Y-107019719D01*
X58386169Y-107010687D01*
X58450293Y-107041161D01*
X58487763Y-107101464D01*
X58491346Y-107150909D01*
X58486579Y-107188642D01*
X58504277Y-107369136D01*
X58506502Y-107375824D01*
X58506502Y-107375825D01*
X58535058Y-107461669D01*
X58541500Y-107501440D01*
X58541500Y-107813901D01*
X58541005Y-107825003D01*
X58539523Y-107832130D01*
X58539721Y-107839444D01*
X58541454Y-107903494D01*
X58541500Y-107906902D01*
X58541500Y-107919412D01*
X58541501Y-109334007D01*
X58540068Y-109352957D01*
X58538065Y-109366120D01*
X58538065Y-109366126D01*
X58536965Y-109373355D01*
X58537558Y-109380647D01*
X58537558Y-109380650D01*
X58541086Y-109424019D01*
X58541501Y-109434234D01*
X58541501Y-109442886D01*
X58543118Y-109456759D01*
X58544949Y-109472464D01*
X58545382Y-109476838D01*
X58547894Y-109507714D01*
X58551301Y-109549604D01*
X58553556Y-109556565D01*
X58554741Y-109562495D01*
X58556132Y-109568381D01*
X58556979Y-109575643D01*
X58581889Y-109644268D01*
X58583303Y-109648390D01*
X58605798Y-109717830D01*
X58609594Y-109724085D01*
X58612096Y-109729552D01*
X58614817Y-109734985D01*
X58617314Y-109741864D01*
X58621326Y-109747983D01*
X58657322Y-109802886D01*
X58659663Y-109806595D01*
X58697535Y-109869006D01*
X58705330Y-109877832D01*
X58705752Y-109878310D01*
X58707973Y-109880894D01*
X58710256Y-109883624D01*
X58714270Y-109889747D01*
X58719585Y-109894782D01*
X58766133Y-109938877D01*
X58768575Y-109941255D01*
X61904595Y-113077276D01*
X61938621Y-113139588D01*
X61941500Y-113166371D01*
X61941501Y-113798051D01*
X61933902Y-113841146D01*
X61909310Y-113908712D01*
X61886579Y-114088642D01*
X61904277Y-114269136D01*
X61906501Y-114275821D01*
X61906501Y-114275822D01*
X61935059Y-114361670D01*
X61941501Y-114401442D01*
X61941501Y-114498051D01*
X61933902Y-114541145D01*
X61911720Y-114602089D01*
X61911719Y-114602093D01*
X61909310Y-114608712D01*
X61886579Y-114788642D01*
X61904277Y-114969136D01*
X61961523Y-115141224D01*
X61965170Y-115147246D01*
X61965171Y-115147248D01*
X62041093Y-115272610D01*
X62055472Y-115296353D01*
X62181456Y-115426813D01*
X62187348Y-115430668D01*
X62187352Y-115430672D01*
X62275361Y-115488263D01*
X62333211Y-115526119D01*
X62503197Y-115589336D01*
X62510178Y-115590267D01*
X62510180Y-115590268D01*
X62559766Y-115596884D01*
X62682963Y-115613322D01*
X62689974Y-115612684D01*
X62689978Y-115612684D01*
X62830059Y-115599934D01*
X62863577Y-115596884D01*
X62870279Y-115594706D01*
X62870281Y-115594706D01*
X63029361Y-115543018D01*
X63029364Y-115543017D01*
X63036060Y-115540841D01*
X63191841Y-115447977D01*
X63323177Y-115322908D01*
X63397955Y-115210358D01*
X63419639Y-115177721D01*
X63419640Y-115177719D01*
X63423540Y-115171849D01*
X63487942Y-115002309D01*
X63513183Y-114822714D01*
X63513500Y-114800000D01*
X63493284Y-114619770D01*
X63465509Y-114540011D01*
X63458500Y-114498574D01*
X63458500Y-114402941D01*
X63466712Y-114358198D01*
X63485440Y-114308895D01*
X63487942Y-114302309D01*
X63513183Y-114122714D01*
X63513500Y-114100000D01*
X63493284Y-113919770D01*
X63465509Y-113840011D01*
X63458500Y-113798574D01*
X63458500Y-112865986D01*
X63459933Y-112847035D01*
X63461935Y-112833878D01*
X63461935Y-112833875D01*
X63463035Y-112826645D01*
X63458915Y-112775993D01*
X63458500Y-112765778D01*
X63458500Y-112757114D01*
X63455045Y-112727480D01*
X63454616Y-112723140D01*
X63449293Y-112657692D01*
X63449292Y-112657688D01*
X63448699Y-112650395D01*
X63446444Y-112643434D01*
X63445259Y-112637503D01*
X63443870Y-112631627D01*
X63443022Y-112624357D01*
X63418109Y-112555722D01*
X63416697Y-112551608D01*
X63396459Y-112489134D01*
X63396457Y-112489129D01*
X63394202Y-112482169D01*
X63390404Y-112475911D01*
X63387898Y-112470437D01*
X63385186Y-112465020D01*
X63382687Y-112458136D01*
X63368264Y-112436136D01*
X63342664Y-112397089D01*
X63340319Y-112393372D01*
X63305375Y-112335788D01*
X63305374Y-112335786D01*
X63302465Y-112330993D01*
X63298756Y-112326793D01*
X63298752Y-112326788D01*
X63294253Y-112321695D01*
X63292027Y-112319106D01*
X63289749Y-112316381D01*
X63285731Y-112310253D01*
X63233894Y-112261148D01*
X63231451Y-112258770D01*
X61668335Y-110695654D01*
X60095405Y-109122725D01*
X60061379Y-109060413D01*
X60058500Y-109033630D01*
X60058500Y-108266370D01*
X60078502Y-108198249D01*
X60095405Y-108177275D01*
X60314510Y-107958170D01*
X60339088Y-107939036D01*
X60485789Y-107851585D01*
X60485791Y-107851584D01*
X60491841Y-107847977D01*
X60623177Y-107722908D01*
X60723540Y-107571849D01*
X60787942Y-107402309D01*
X60788103Y-107401162D01*
X60823227Y-107342158D01*
X60886760Y-107310470D01*
X60908953Y-107308500D01*
X79315909Y-107308500D01*
X79384902Y-107329068D01*
X79533211Y-107426119D01*
X79703197Y-107489336D01*
X79710178Y-107490267D01*
X79710180Y-107490268D01*
X79759766Y-107496884D01*
X79882963Y-107513322D01*
X79889974Y-107512684D01*
X79889978Y-107512684D01*
X80030059Y-107499934D01*
X80063577Y-107496884D01*
X80070279Y-107494706D01*
X80070281Y-107494706D01*
X80229361Y-107443018D01*
X80229364Y-107443017D01*
X80236060Y-107440841D01*
X80331910Y-107383703D01*
X80385789Y-107351585D01*
X80385791Y-107351584D01*
X80391841Y-107347977D01*
X80523177Y-107222908D01*
X80623540Y-107071849D01*
X80687942Y-106902309D01*
X80711531Y-106734468D01*
X80712632Y-106726636D01*
X80712632Y-106726633D01*
X80713183Y-106722714D01*
X80713385Y-106708221D01*
X80713445Y-106703962D01*
X80713445Y-106703957D01*
X80713500Y-106700000D01*
X80693284Y-106519770D01*
X80689360Y-106508500D01*
X80635959Y-106355155D01*
X80633641Y-106348498D01*
X80584114Y-106269238D01*
X80541267Y-106200668D01*
X80541266Y-106200666D01*
X80537535Y-106194696D01*
X80529494Y-106186598D01*
X80435056Y-106091500D01*
X80409742Y-106066009D01*
X80256615Y-105968831D01*
X80085763Y-105907994D01*
X80078771Y-105907160D01*
X80078770Y-105907160D01*
X79995721Y-105897257D01*
X79905679Y-105886520D01*
X79898676Y-105887256D01*
X79898675Y-105887256D01*
X79732321Y-105904740D01*
X79732317Y-105904741D01*
X79725313Y-105905477D01*
X79718642Y-105907748D01*
X79560299Y-105961652D01*
X79560296Y-105961653D01*
X79553629Y-105963923D01*
X79399159Y-106058953D01*
X79394125Y-106063883D01*
X79392965Y-106064789D01*
X79326971Y-106090967D01*
X79315391Y-106091500D01*
X70562149Y-106091500D01*
X70494028Y-106071498D01*
X70447535Y-106017842D01*
X70437431Y-105947568D01*
X70466925Y-105882988D01*
X70473054Y-105876405D01*
X70667951Y-105681508D01*
X70682979Y-105668671D01*
X70694523Y-105660284D01*
X70740675Y-105609027D01*
X70745216Y-105604242D01*
X70758367Y-105591091D01*
X70770072Y-105576637D01*
X70774354Y-105571623D01*
X70814392Y-105527156D01*
X70818812Y-105522247D01*
X70825519Y-105510630D01*
X70836720Y-105494332D01*
X70841003Y-105489043D01*
X70845158Y-105483912D01*
X70848157Y-105478027D01*
X70875319Y-105424720D01*
X70878465Y-105418925D01*
X70880953Y-105414615D01*
X70911685Y-105361386D01*
X70913726Y-105355105D01*
X70913728Y-105355100D01*
X70915831Y-105348627D01*
X70923395Y-105330366D01*
X70926487Y-105324298D01*
X70926490Y-105324289D01*
X70929486Y-105318410D01*
X70934656Y-105299118D01*
X70946680Y-105254243D01*
X70948553Y-105247919D01*
X70967043Y-105191012D01*
X70967043Y-105191011D01*
X70969084Y-105184730D01*
X70969774Y-105178163D01*
X70969776Y-105178155D01*
X70970488Y-105171384D01*
X70974090Y-105151949D01*
X70975852Y-105145374D01*
X70975853Y-105145367D01*
X70977561Y-105138993D01*
X70978011Y-105130420D01*
X70979911Y-105094140D01*
X70981038Y-105072643D01*
X70981555Y-105066070D01*
X70983155Y-105050857D01*
X70983155Y-105050850D01*
X70983500Y-105047572D01*
X70983500Y-105028961D01*
X70983673Y-105022367D01*
X70986937Y-104960093D01*
X70986937Y-104960089D01*
X70987282Y-104953501D01*
X70985051Y-104939414D01*
X70983500Y-104919705D01*
X70983500Y-102580295D01*
X70985051Y-102560584D01*
X70986250Y-102553015D01*
X70987282Y-102546499D01*
X70986937Y-102539912D01*
X70986937Y-102539907D01*
X70983673Y-102477641D01*
X70983500Y-102471046D01*
X70983500Y-102452428D01*
X70982014Y-102438289D01*
X70981553Y-102433898D01*
X70981036Y-102427324D01*
X70977906Y-102367600D01*
X70977905Y-102367596D01*
X70977560Y-102361007D01*
X70975851Y-102354628D01*
X70974090Y-102348055D01*
X70970486Y-102328610D01*
X70969775Y-102321841D01*
X70969774Y-102321837D01*
X70969084Y-102315270D01*
X70967044Y-102308992D01*
X70967043Y-102308987D01*
X70948551Y-102252078D01*
X70946677Y-102245751D01*
X70931196Y-102187971D01*
X70931195Y-102187969D01*
X70929486Y-102181590D01*
X70926487Y-102175704D01*
X70926485Y-102175699D01*
X70923395Y-102169634D01*
X70915831Y-102151373D01*
X70913728Y-102144900D01*
X70913726Y-102144895D01*
X70911685Y-102138614D01*
X70878465Y-102081075D01*
X70875319Y-102075280D01*
X70848157Y-102021973D01*
X70848155Y-102021970D01*
X70845158Y-102016088D01*
X70836720Y-102005668D01*
X70825519Y-101989370D01*
X70822116Y-101983475D01*
X70822114Y-101983472D01*
X70818812Y-101977753D01*
X70774353Y-101928376D01*
X70770071Y-101923362D01*
X70758367Y-101908909D01*
X70745216Y-101895758D01*
X70740675Y-101890973D01*
X70698945Y-101844627D01*
X70698944Y-101844626D01*
X70694523Y-101839716D01*
X70682979Y-101831329D01*
X70667951Y-101818492D01*
X69938553Y-101089094D01*
X69904527Y-101026782D01*
X69909592Y-100955967D01*
X69938553Y-100910904D01*
X71467948Y-99381510D01*
X71482982Y-99368669D01*
X71489179Y-99364167D01*
X71489181Y-99364165D01*
X71494523Y-99360284D01*
X71540675Y-99309027D01*
X71545216Y-99304242D01*
X71558367Y-99291091D01*
X71570072Y-99276637D01*
X71574354Y-99271623D01*
X71614392Y-99227156D01*
X71618812Y-99222247D01*
X71625519Y-99210630D01*
X71636720Y-99194332D01*
X71641003Y-99189043D01*
X71645158Y-99183912D01*
X71648157Y-99178027D01*
X71675319Y-99124720D01*
X71678465Y-99118925D01*
X71698051Y-99085000D01*
X71711685Y-99061386D01*
X71713726Y-99055105D01*
X71713728Y-99055100D01*
X71715831Y-99048627D01*
X71723395Y-99030366D01*
X71726487Y-99024298D01*
X71726490Y-99024289D01*
X71729486Y-99018410D01*
X71735104Y-98997446D01*
X71746680Y-98954243D01*
X71748553Y-98947919D01*
X71767043Y-98891012D01*
X71767043Y-98891011D01*
X71769084Y-98884730D01*
X71769774Y-98878163D01*
X71769776Y-98878155D01*
X71770488Y-98871384D01*
X71774090Y-98851949D01*
X71775852Y-98845374D01*
X71775853Y-98845367D01*
X71777561Y-98838993D01*
X71781038Y-98772643D01*
X71781555Y-98766070D01*
X71783155Y-98750857D01*
X71783155Y-98750850D01*
X71783500Y-98747572D01*
X71783500Y-98728961D01*
X71783673Y-98722367D01*
X71786937Y-98660093D01*
X71786937Y-98660089D01*
X71787282Y-98653501D01*
X71785051Y-98639414D01*
X71783500Y-98619705D01*
X71783500Y-93180296D01*
X71785051Y-93160585D01*
X71786250Y-93153016D01*
X71787282Y-93146500D01*
X71785221Y-93107160D01*
X71783673Y-93077634D01*
X71783500Y-93071040D01*
X71783500Y-93052428D01*
X71783155Y-93049143D01*
X71783154Y-93049130D01*
X71781554Y-93033912D01*
X71781036Y-93027330D01*
X71777907Y-92967602D01*
X71777906Y-92967598D01*
X71777561Y-92961007D01*
X71775853Y-92954633D01*
X71775852Y-92954626D01*
X71774090Y-92948051D01*
X71770488Y-92928616D01*
X71769776Y-92921845D01*
X71769774Y-92921837D01*
X71769084Y-92915270D01*
X71748553Y-92852081D01*
X71746680Y-92845757D01*
X71731195Y-92787966D01*
X71731193Y-92787962D01*
X71729486Y-92781590D01*
X71726491Y-92775711D01*
X71726488Y-92775704D01*
X71723395Y-92769633D01*
X71715834Y-92751379D01*
X71713727Y-92744896D01*
X71713724Y-92744890D01*
X71711685Y-92738614D01*
X71678466Y-92681077D01*
X71675319Y-92675281D01*
X71648155Y-92621968D01*
X71645159Y-92616088D01*
X71641005Y-92610958D01*
X71641001Y-92610952D01*
X71636718Y-92605663D01*
X71625518Y-92589368D01*
X71622111Y-92583467D01*
X71618812Y-92577753D01*
X71614398Y-92572850D01*
X71614393Y-92572844D01*
X71574352Y-92528375D01*
X71570080Y-92523374D01*
X71558367Y-92508909D01*
X71545216Y-92495758D01*
X71540675Y-92490973D01*
X71498945Y-92444627D01*
X71498944Y-92444626D01*
X71494523Y-92439716D01*
X71482981Y-92431330D01*
X71467948Y-92418490D01*
X70249458Y-91200000D01*
X89587000Y-91200000D01*
X89587270Y-91204119D01*
X89601762Y-91425222D01*
X89606788Y-91501907D01*
X89607590Y-91505940D01*
X89607591Y-91505946D01*
X89665008Y-91794598D01*
X89665814Y-91798648D01*
X89763067Y-92085147D01*
X89764891Y-92088845D01*
X89880479Y-92323235D01*
X89896883Y-92356500D01*
X90064974Y-92608065D01*
X90264462Y-92835538D01*
X90491935Y-93035026D01*
X90743500Y-93203117D01*
X90747199Y-93204941D01*
X90747204Y-93204944D01*
X90863384Y-93262237D01*
X91014853Y-93336933D01*
X91018758Y-93338258D01*
X91018759Y-93338259D01*
X91297439Y-93432858D01*
X91297443Y-93432859D01*
X91301352Y-93434186D01*
X91305396Y-93434990D01*
X91305402Y-93434992D01*
X91594054Y-93492409D01*
X91594060Y-93492410D01*
X91598093Y-93493212D01*
X91602198Y-93493481D01*
X91602205Y-93493482D01*
X91895881Y-93512730D01*
X91900000Y-93513000D01*
X91904119Y-93512730D01*
X92197795Y-93493482D01*
X92197802Y-93493481D01*
X92201907Y-93493212D01*
X92205940Y-93492410D01*
X92205946Y-93492409D01*
X92494598Y-93434992D01*
X92494604Y-93434990D01*
X92498648Y-93434186D01*
X92502557Y-93432859D01*
X92502561Y-93432858D01*
X92781241Y-93338259D01*
X92781242Y-93338258D01*
X92785147Y-93336933D01*
X92936616Y-93262237D01*
X93052796Y-93204944D01*
X93052801Y-93204941D01*
X93056500Y-93203117D01*
X93308065Y-93035026D01*
X93535538Y-92835538D01*
X93735026Y-92608065D01*
X93903117Y-92356500D01*
X93919522Y-92323235D01*
X94035109Y-92088845D01*
X94036933Y-92085147D01*
X94134186Y-91798648D01*
X94134992Y-91794598D01*
X94192409Y-91505946D01*
X94192410Y-91505940D01*
X94193212Y-91501907D01*
X94198239Y-91425222D01*
X94212730Y-91204119D01*
X94213000Y-91200000D01*
X94211720Y-91180475D01*
X94193482Y-90902205D01*
X94193481Y-90902198D01*
X94193212Y-90898093D01*
X94165028Y-90756400D01*
X94134992Y-90605402D01*
X94134990Y-90605396D01*
X94134186Y-90601352D01*
X94036933Y-90314853D01*
X93973592Y-90186409D01*
X93904944Y-90047204D01*
X93904941Y-90047199D01*
X93903117Y-90043500D01*
X93735026Y-89791935D01*
X93535538Y-89564462D01*
X93308065Y-89364974D01*
X93056500Y-89196883D01*
X93052801Y-89195059D01*
X93052796Y-89195056D01*
X92905447Y-89122392D01*
X92785147Y-89063067D01*
X92742764Y-89048680D01*
X92502561Y-88967142D01*
X92502557Y-88967141D01*
X92498648Y-88965814D01*
X92494604Y-88965010D01*
X92494598Y-88965008D01*
X92205946Y-88907591D01*
X92205940Y-88907590D01*
X92201907Y-88906788D01*
X92197802Y-88906519D01*
X92197795Y-88906518D01*
X91904119Y-88887270D01*
X91900000Y-88887000D01*
X91895881Y-88887270D01*
X91602205Y-88906518D01*
X91602198Y-88906519D01*
X91598093Y-88906788D01*
X91594060Y-88907590D01*
X91594054Y-88907591D01*
X91305402Y-88965008D01*
X91305396Y-88965010D01*
X91301352Y-88965814D01*
X91297443Y-88967141D01*
X91297439Y-88967142D01*
X91057236Y-89048680D01*
X91014853Y-89063067D01*
X90894553Y-89122392D01*
X90747204Y-89195056D01*
X90747199Y-89195059D01*
X90743500Y-89196883D01*
X90491935Y-89364974D01*
X90264462Y-89564462D01*
X90064974Y-89791935D01*
X89896883Y-90043500D01*
X89895059Y-90047199D01*
X89895056Y-90047204D01*
X89826408Y-90186409D01*
X89763067Y-90314853D01*
X89665814Y-90601352D01*
X89665010Y-90605396D01*
X89665008Y-90605402D01*
X89634973Y-90756400D01*
X89606788Y-90898093D01*
X89606519Y-90902198D01*
X89606518Y-90902205D01*
X89588280Y-91180475D01*
X89587000Y-91200000D01*
X70249458Y-91200000D01*
X67181513Y-88132056D01*
X67168672Y-88117022D01*
X67164167Y-88110822D01*
X67160284Y-88105477D01*
X67109017Y-88059316D01*
X67104232Y-88054775D01*
X67091090Y-88041633D01*
X67076642Y-88029934D01*
X67071625Y-88025648D01*
X67027158Y-87985609D01*
X67027153Y-87985605D01*
X67022247Y-87981188D01*
X67010626Y-87974478D01*
X66994334Y-87963281D01*
X66989042Y-87958996D01*
X66983911Y-87954841D01*
X66924726Y-87924685D01*
X66918930Y-87921538D01*
X66892365Y-87906201D01*
X66861386Y-87888315D01*
X66855110Y-87886276D01*
X66855104Y-87886273D01*
X66848618Y-87884165D01*
X66830363Y-87876604D01*
X66824288Y-87873509D01*
X66824285Y-87873508D01*
X66818409Y-87870514D01*
X66812040Y-87868808D01*
X66812039Y-87868807D01*
X66785676Y-87861743D01*
X66754229Y-87853317D01*
X66747928Y-87851450D01*
X66684730Y-87830916D01*
X66678167Y-87830226D01*
X66678157Y-87830224D01*
X66671383Y-87829512D01*
X66651952Y-87825911D01*
X66645372Y-87824148D01*
X66645368Y-87824147D01*
X66638992Y-87822439D01*
X66632401Y-87822094D01*
X66632397Y-87822093D01*
X66597256Y-87820252D01*
X66572657Y-87818963D01*
X66566088Y-87818446D01*
X66550870Y-87816846D01*
X66550857Y-87816845D01*
X66547572Y-87816500D01*
X66528960Y-87816500D01*
X66522366Y-87816327D01*
X66460092Y-87813063D01*
X66460088Y-87813063D01*
X66453500Y-87812718D01*
X66439413Y-87814949D01*
X66419704Y-87816500D01*
X65426328Y-87816500D01*
X65400131Y-87813747D01*
X65301944Y-87792876D01*
X65301939Y-87792876D01*
X65295487Y-87791504D01*
X65104513Y-87791504D01*
X65098061Y-87792876D01*
X65098056Y-87792876D01*
X65013451Y-87810860D01*
X64917713Y-87831210D01*
X64911683Y-87833895D01*
X64911682Y-87833895D01*
X64749280Y-87906201D01*
X64749278Y-87906202D01*
X64743250Y-87908886D01*
X64737909Y-87912766D01*
X64737908Y-87912767D01*
X64594093Y-88017254D01*
X64594091Y-88017256D01*
X64588749Y-88021137D01*
X64584328Y-88026047D01*
X64584327Y-88026048D01*
X64479564Y-88142400D01*
X64460963Y-88163058D01*
X64421323Y-88231716D01*
X64386141Y-88292654D01*
X64365476Y-88328446D01*
X64363434Y-88334731D01*
X64322979Y-88459240D01*
X64306462Y-88510073D01*
X64305772Y-88516636D01*
X64305772Y-88516637D01*
X64293044Y-88637733D01*
X64286500Y-88700000D01*
X64287190Y-88706565D01*
X64299243Y-88821238D01*
X64306462Y-88889927D01*
X64365476Y-89071554D01*
X64460963Y-89236942D01*
X64588749Y-89378863D01*
X64594091Y-89382744D01*
X64594093Y-89382746D01*
X64737908Y-89487233D01*
X64743250Y-89491114D01*
X64749278Y-89493798D01*
X64749280Y-89493799D01*
X64901892Y-89561746D01*
X64917713Y-89568790D01*
X64999869Y-89586253D01*
X65098056Y-89607124D01*
X65098061Y-89607124D01*
X65104513Y-89608496D01*
X65295487Y-89608496D01*
X65301939Y-89607124D01*
X65301944Y-89607124D01*
X65400131Y-89586253D01*
X65426328Y-89583500D01*
X66081853Y-89583500D01*
X66149974Y-89603502D01*
X66170948Y-89620405D01*
X69979596Y-93429054D01*
X70013622Y-93491366D01*
X70016501Y-93518149D01*
X70016501Y-94951761D01*
X69996499Y-95019882D01*
X69942843Y-95066375D01*
X69872569Y-95076479D01*
X69807989Y-95046985D01*
X69801406Y-95040857D01*
X68262974Y-93502427D01*
X68252107Y-93490035D01*
X68238836Y-93472740D01*
X68233810Y-93466190D01*
X68106750Y-93368693D01*
X68099119Y-93365532D01*
X67966413Y-93310564D01*
X67966409Y-93310563D01*
X67958785Y-93307405D01*
X67950605Y-93306328D01*
X67950601Y-93306327D01*
X67837989Y-93291501D01*
X67837980Y-93291500D01*
X67837977Y-93291500D01*
X67837965Y-93291499D01*
X67808189Y-93287579D01*
X67808188Y-93287579D01*
X67800000Y-93286501D01*
X67791812Y-93287579D01*
X67791811Y-93287579D01*
X67770216Y-93290422D01*
X67753770Y-93291500D01*
X66884565Y-93291500D01*
X66816444Y-93271498D01*
X66812049Y-93268333D01*
X66809742Y-93266009D01*
X66656615Y-93168831D01*
X66485763Y-93107994D01*
X66478771Y-93107160D01*
X66478770Y-93107160D01*
X66395721Y-93097257D01*
X66305679Y-93086520D01*
X66298676Y-93087256D01*
X66298675Y-93087256D01*
X66132321Y-93104740D01*
X66132317Y-93104741D01*
X66125313Y-93105477D01*
X66118642Y-93107748D01*
X65960299Y-93161652D01*
X65960296Y-93161653D01*
X65953629Y-93163923D01*
X65799159Y-93258953D01*
X65765923Y-93291500D01*
X65681962Y-93373722D01*
X65669583Y-93385844D01*
X65665772Y-93391758D01*
X65665770Y-93391760D01*
X65621042Y-93461164D01*
X65571338Y-93538289D01*
X65568927Y-93544914D01*
X65511720Y-93702089D01*
X65511719Y-93702093D01*
X65509310Y-93708712D01*
X65486579Y-93888642D01*
X65504277Y-94069136D01*
X65561523Y-94241224D01*
X65565170Y-94247246D01*
X65565171Y-94247248D01*
X65620910Y-94339284D01*
X65639089Y-94407913D01*
X65631535Y-94447649D01*
X65611720Y-94502089D01*
X65611719Y-94502094D01*
X65609310Y-94508712D01*
X65586579Y-94688642D01*
X65604277Y-94869136D01*
X65661523Y-95041224D01*
X65665170Y-95047246D01*
X65665171Y-95047248D01*
X65701207Y-95106750D01*
X65755472Y-95196353D01*
X65881456Y-95326813D01*
X65887348Y-95330668D01*
X65887352Y-95330672D01*
X65975361Y-95388263D01*
X66033211Y-95426119D01*
X66203197Y-95489336D01*
X66210178Y-95490267D01*
X66210180Y-95490268D01*
X66259766Y-95496884D01*
X66382963Y-95513322D01*
X66389974Y-95512684D01*
X66389978Y-95512684D01*
X66530059Y-95499934D01*
X66563577Y-95496884D01*
X66570279Y-95494706D01*
X66570281Y-95494706D01*
X66729361Y-95443018D01*
X66729364Y-95443017D01*
X66736060Y-95440841D01*
X66866690Y-95362970D01*
X66885789Y-95351585D01*
X66885791Y-95351584D01*
X66891841Y-95347977D01*
X66896942Y-95343120D01*
X66902555Y-95338859D01*
X66903337Y-95339889D01*
X66959930Y-95310761D01*
X66983693Y-95308500D01*
X67095763Y-95308500D01*
X67163884Y-95328502D01*
X67184858Y-95345405D01*
X67193016Y-95353563D01*
X67227042Y-95415875D01*
X67221977Y-95486690D01*
X67179430Y-95543526D01*
X67157568Y-95556667D01*
X67156035Y-95557388D01*
X67149365Y-95559659D01*
X66994895Y-95654689D01*
X66865319Y-95781580D01*
X66767074Y-95934025D01*
X66764663Y-95940650D01*
X66707456Y-96097825D01*
X66707455Y-96097829D01*
X66705046Y-96104448D01*
X66682315Y-96284378D01*
X66700013Y-96464872D01*
X66757259Y-96636960D01*
X66760906Y-96642982D01*
X66760907Y-96642984D01*
X66830039Y-96757134D01*
X66851208Y-96792089D01*
X66856098Y-96797153D01*
X66860400Y-96802739D01*
X66858044Y-96804553D01*
X66884812Y-96855708D01*
X66887236Y-96880305D01*
X66887237Y-101965500D01*
X66867235Y-102033621D01*
X66813579Y-102080114D01*
X66761237Y-102091500D01*
X62228942Y-102091500D01*
X62169599Y-102074258D01*
X62168898Y-102075695D01*
X62162561Y-102072605D01*
X62156615Y-102068831D01*
X61985763Y-102007994D01*
X61978771Y-102007160D01*
X61978770Y-102007160D01*
X61895721Y-101997257D01*
X61805679Y-101986520D01*
X61798676Y-101987256D01*
X61798675Y-101987256D01*
X61632321Y-102004740D01*
X61632317Y-102004741D01*
X61625313Y-102005477D01*
X61618642Y-102007748D01*
X61460299Y-102061652D01*
X61460296Y-102061653D01*
X61453629Y-102063923D01*
X61447630Y-102067613D01*
X61447629Y-102067614D01*
X61435168Y-102075280D01*
X61299159Y-102158953D01*
X61169583Y-102285844D01*
X61071338Y-102438289D01*
X61063905Y-102458712D01*
X61011720Y-102602089D01*
X61011719Y-102602093D01*
X61009310Y-102608712D01*
X60986579Y-102788642D01*
X61004277Y-102969136D01*
X61061523Y-103141224D01*
X61065170Y-103147246D01*
X61065171Y-103147248D01*
X61110283Y-103221736D01*
X61155472Y-103296353D01*
X61281456Y-103426813D01*
X61287348Y-103430668D01*
X61287352Y-103430672D01*
X61319311Y-103451585D01*
X61433211Y-103526119D01*
X61603197Y-103589336D01*
X61610178Y-103590267D01*
X61610180Y-103590268D01*
X61659766Y-103596884D01*
X61782963Y-103613322D01*
X61789974Y-103612684D01*
X61789978Y-103612684D01*
X61930059Y-103599934D01*
X61963577Y-103596884D01*
X61970279Y-103594706D01*
X61970281Y-103594706D01*
X62129361Y-103543018D01*
X62129364Y-103543017D01*
X62136060Y-103540841D01*
X62291841Y-103447977D01*
X62401812Y-103343253D01*
X62464936Y-103310762D01*
X62488703Y-103308500D01*
X67415909Y-103308500D01*
X67484902Y-103329068D01*
X67633211Y-103426119D01*
X67803197Y-103489336D01*
X67810178Y-103490267D01*
X67810180Y-103490268D01*
X67851297Y-103495754D01*
X67982963Y-103513322D01*
X67989974Y-103512684D01*
X67989978Y-103512684D01*
X68130059Y-103499934D01*
X68163577Y-103496884D01*
X68170279Y-103494706D01*
X68170281Y-103494706D01*
X68329361Y-103443018D01*
X68329364Y-103443017D01*
X68336060Y-103440841D01*
X68464211Y-103364448D01*
X68485789Y-103351585D01*
X68485791Y-103351584D01*
X68491841Y-103347977D01*
X68623177Y-103222908D01*
X68723540Y-103071849D01*
X68787942Y-102902309D01*
X68799360Y-102821067D01*
X68810059Y-102744944D01*
X68839348Y-102680271D01*
X68898952Y-102641698D01*
X68969948Y-102641473D01*
X69023928Y-102673385D01*
X69101987Y-102751445D01*
X69179596Y-102829054D01*
X69213621Y-102891366D01*
X69216500Y-102918149D01*
X69216501Y-104581852D01*
X69196499Y-104649973D01*
X69179596Y-104670947D01*
X69170948Y-104679595D01*
X69108636Y-104713621D01*
X69081853Y-104716500D01*
X61218148Y-104716500D01*
X61150027Y-104696498D01*
X61129053Y-104679595D01*
X60058384Y-103608927D01*
X60058367Y-103608909D01*
X59481510Y-103032053D01*
X59468669Y-103017018D01*
X59464167Y-103010821D01*
X59464165Y-103010819D01*
X59460284Y-103005477D01*
X59409017Y-102959316D01*
X59404232Y-102954775D01*
X59391090Y-102941633D01*
X59376642Y-102929934D01*
X59371625Y-102925648D01*
X59327158Y-102885609D01*
X59327153Y-102885605D01*
X59322247Y-102881188D01*
X59310626Y-102874478D01*
X59294334Y-102863281D01*
X59289042Y-102858996D01*
X59283911Y-102854841D01*
X59224726Y-102824685D01*
X59218930Y-102821538D01*
X59212402Y-102817769D01*
X59161386Y-102788315D01*
X59155110Y-102786276D01*
X59155104Y-102786273D01*
X59148618Y-102784165D01*
X59130363Y-102776604D01*
X59124288Y-102773509D01*
X59124285Y-102773508D01*
X59118409Y-102770514D01*
X59112040Y-102768808D01*
X59112039Y-102768807D01*
X59068549Y-102757154D01*
X59054229Y-102753317D01*
X59047928Y-102751450D01*
X58984730Y-102730916D01*
X58978167Y-102730226D01*
X58978157Y-102730224D01*
X58971383Y-102729512D01*
X58951952Y-102725911D01*
X58945372Y-102724148D01*
X58945368Y-102724147D01*
X58938992Y-102722439D01*
X58932401Y-102722094D01*
X58932397Y-102722093D01*
X58899691Y-102720380D01*
X58872657Y-102718963D01*
X58866088Y-102718446D01*
X58850870Y-102716846D01*
X58850857Y-102716845D01*
X58847572Y-102716500D01*
X58828960Y-102716500D01*
X58822366Y-102716327D01*
X58760092Y-102713063D01*
X58760088Y-102713063D01*
X58753500Y-102712718D01*
X58739413Y-102714949D01*
X58719704Y-102716500D01*
X53826328Y-102716500D01*
X53800131Y-102713747D01*
X53701944Y-102692876D01*
X53701939Y-102692876D01*
X53695487Y-102691504D01*
X53504513Y-102691504D01*
X53498061Y-102692876D01*
X53498056Y-102692876D01*
X53399869Y-102713747D01*
X53373672Y-102716500D01*
X52926328Y-102716500D01*
X52900131Y-102713747D01*
X52801944Y-102692876D01*
X52801939Y-102692876D01*
X52795487Y-102691504D01*
X52604513Y-102691504D01*
X52598061Y-102692876D01*
X52598056Y-102692876D01*
X52499869Y-102713747D01*
X52473672Y-102716500D01*
X52026328Y-102716500D01*
X52000131Y-102713747D01*
X51901944Y-102692876D01*
X51901939Y-102692876D01*
X51895487Y-102691504D01*
X51834499Y-102691504D01*
X51766378Y-102671502D01*
X51719885Y-102617846D01*
X51708499Y-102565504D01*
X51708499Y-96404239D01*
X51728501Y-96336118D01*
X51745404Y-96315143D01*
X51962723Y-96097825D01*
X52697579Y-95362970D01*
X52709970Y-95352103D01*
X52727259Y-95338837D01*
X52727260Y-95338836D01*
X52733810Y-95333810D01*
X52738836Y-95327260D01*
X52738839Y-95327257D01*
X52793553Y-95255952D01*
X52831307Y-95206750D01*
X52872728Y-95106750D01*
X52892596Y-95058786D01*
X52913500Y-94900000D01*
X52909578Y-94870208D01*
X52908500Y-94853762D01*
X52908500Y-93980538D01*
X52909578Y-93964091D01*
X52912422Y-93942489D01*
X52913500Y-93934301D01*
X52906568Y-93881648D01*
X52893673Y-93783702D01*
X52893673Y-93783701D01*
X52892595Y-93775515D01*
X52864924Y-93708712D01*
X52831307Y-93627551D01*
X52733810Y-93500491D01*
X52709966Y-93482195D01*
X52697582Y-93471334D01*
X51928673Y-92702427D01*
X51917806Y-92690035D01*
X51904535Y-92672740D01*
X51899509Y-92666190D01*
X51772449Y-92568693D01*
X51764818Y-92565532D01*
X51632112Y-92510564D01*
X51632108Y-92510563D01*
X51624484Y-92507405D01*
X51616304Y-92506328D01*
X51616300Y-92506327D01*
X51503688Y-92491501D01*
X51503679Y-92491500D01*
X51503676Y-92491500D01*
X51503664Y-92491499D01*
X51473888Y-92487579D01*
X51473887Y-92487579D01*
X51465699Y-92486501D01*
X51457511Y-92487579D01*
X51457510Y-92487579D01*
X51435915Y-92490422D01*
X51419469Y-92491500D01*
X50246229Y-92491500D01*
X50229783Y-92490422D01*
X50208188Y-92487579D01*
X50208187Y-92487579D01*
X50199999Y-92486501D01*
X50191811Y-92487579D01*
X50191809Y-92487579D01*
X50162032Y-92491499D01*
X50162019Y-92491500D01*
X50076833Y-92502716D01*
X50076832Y-92502716D01*
X50049400Y-92506327D01*
X50049398Y-92506328D01*
X50041213Y-92507405D01*
X49990441Y-92528436D01*
X49893250Y-92568693D01*
X49766190Y-92666190D01*
X49747894Y-92690034D01*
X49737033Y-92702418D01*
X49601198Y-92838254D01*
X49478288Y-92961164D01*
X49415975Y-92995189D01*
X49402363Y-92997379D01*
X49393448Y-92998316D01*
X49332321Y-93004740D01*
X49332317Y-93004741D01*
X49325313Y-93005477D01*
X49318642Y-93007748D01*
X49160299Y-93061652D01*
X49160296Y-93061653D01*
X49153629Y-93063923D01*
X49147630Y-93067613D01*
X49147629Y-93067614D01*
X49115542Y-93087354D01*
X48999159Y-93158953D01*
X48952195Y-93204944D01*
X48884233Y-93271498D01*
X48869583Y-93285844D01*
X48865772Y-93291758D01*
X48865770Y-93291760D01*
X48818227Y-93365532D01*
X48771338Y-93438289D01*
X48768927Y-93444914D01*
X48711720Y-93602089D01*
X48711719Y-93602093D01*
X48709310Y-93608712D01*
X48686579Y-93788642D01*
X26908000Y-93788642D01*
X26908000Y-91200000D01*
X39287000Y-91200000D01*
X39287270Y-91204119D01*
X39301762Y-91425222D01*
X39306788Y-91501907D01*
X39307590Y-91505940D01*
X39307591Y-91505946D01*
X39365008Y-91794598D01*
X39365814Y-91798648D01*
X39463067Y-92085147D01*
X39464891Y-92088845D01*
X39580479Y-92323235D01*
X39596883Y-92356500D01*
X39764974Y-92608065D01*
X39964462Y-92835538D01*
X40191935Y-93035026D01*
X40443500Y-93203117D01*
X40447199Y-93204941D01*
X40447204Y-93204944D01*
X40563384Y-93262237D01*
X40714853Y-93336933D01*
X40718758Y-93338258D01*
X40718759Y-93338259D01*
X40997439Y-93432858D01*
X40997443Y-93432859D01*
X41001352Y-93434186D01*
X41005396Y-93434990D01*
X41005402Y-93434992D01*
X41294054Y-93492409D01*
X41294060Y-93492410D01*
X41298093Y-93493212D01*
X41302198Y-93493481D01*
X41302205Y-93493482D01*
X41595881Y-93512730D01*
X41600000Y-93513000D01*
X41604119Y-93512730D01*
X41897795Y-93493482D01*
X41897802Y-93493481D01*
X41901907Y-93493212D01*
X41905940Y-93492410D01*
X41905946Y-93492409D01*
X42194598Y-93434992D01*
X42194604Y-93434990D01*
X42198648Y-93434186D01*
X42202557Y-93432859D01*
X42202561Y-93432858D01*
X42481241Y-93338259D01*
X42481242Y-93338258D01*
X42485147Y-93336933D01*
X42636616Y-93262237D01*
X42752796Y-93204944D01*
X42752801Y-93204941D01*
X42756500Y-93203117D01*
X43008065Y-93035026D01*
X43235538Y-92835538D01*
X43435026Y-92608065D01*
X43603117Y-92356500D01*
X43619522Y-92323235D01*
X43735109Y-92088845D01*
X43736933Y-92085147D01*
X43834186Y-91798648D01*
X43834992Y-91794598D01*
X43892409Y-91505946D01*
X43892410Y-91505940D01*
X43893212Y-91501907D01*
X43898239Y-91425222D01*
X43912730Y-91204119D01*
X43913000Y-91200000D01*
X43911720Y-91180475D01*
X43893482Y-90902205D01*
X43893481Y-90902198D01*
X43893212Y-90898093D01*
X43865028Y-90756400D01*
X43834992Y-90605402D01*
X43834990Y-90605396D01*
X43834186Y-90601352D01*
X43736933Y-90314853D01*
X43673592Y-90186409D01*
X43604944Y-90047204D01*
X43604941Y-90047199D01*
X43603117Y-90043500D01*
X43435026Y-89791935D01*
X43235538Y-89564462D01*
X43008065Y-89364974D01*
X42756500Y-89196883D01*
X42752801Y-89195059D01*
X42752796Y-89195056D01*
X42605447Y-89122392D01*
X42485147Y-89063067D01*
X42442764Y-89048680D01*
X42202561Y-88967142D01*
X42202557Y-88967141D01*
X42198648Y-88965814D01*
X42194604Y-88965010D01*
X42194598Y-88965008D01*
X41905946Y-88907591D01*
X41905940Y-88907590D01*
X41901907Y-88906788D01*
X41897802Y-88906519D01*
X41897795Y-88906518D01*
X41604119Y-88887270D01*
X41600000Y-88887000D01*
X41595881Y-88887270D01*
X41302205Y-88906518D01*
X41302198Y-88906519D01*
X41298093Y-88906788D01*
X41294060Y-88907590D01*
X41294054Y-88907591D01*
X41005402Y-88965008D01*
X41005396Y-88965010D01*
X41001352Y-88965814D01*
X40997443Y-88967141D01*
X40997439Y-88967142D01*
X40757236Y-89048680D01*
X40714853Y-89063067D01*
X40594553Y-89122392D01*
X40447204Y-89195056D01*
X40447199Y-89195059D01*
X40443500Y-89196883D01*
X40191935Y-89364974D01*
X39964462Y-89564462D01*
X39764974Y-89791935D01*
X39596883Y-90043500D01*
X39595059Y-90047199D01*
X39595056Y-90047204D01*
X39526408Y-90186409D01*
X39463067Y-90314853D01*
X39365814Y-90601352D01*
X39365010Y-90605396D01*
X39365008Y-90605402D01*
X39334973Y-90756400D01*
X39306788Y-90898093D01*
X39306519Y-90902198D01*
X39306518Y-90902205D01*
X39288280Y-91180475D01*
X39287000Y-91200000D01*
X26908000Y-91200000D01*
X26908000Y-89334000D01*
X26928002Y-89265879D01*
X26981658Y-89219386D01*
X27034000Y-89208000D01*
X32571808Y-89208000D01*
X32588560Y-89209119D01*
X32617819Y-89213044D01*
X32617821Y-89213044D01*
X32622643Y-89213691D01*
X32798595Y-89209978D01*
X32804953Y-89209844D01*
X32807279Y-89209816D01*
X32825174Y-89209769D01*
X32825177Y-89209769D01*
X32830031Y-89209756D01*
X32922842Y-89195056D01*
X33169417Y-89156002D01*
X33169420Y-89156001D01*
X33173848Y-89155300D01*
X33175518Y-89154785D01*
X33176509Y-89154545D01*
X33181316Y-89153771D01*
X33228069Y-89138580D01*
X33229626Y-89138087D01*
X33280485Y-89122392D01*
X33282636Y-89120971D01*
X33284307Y-89120308D01*
X33508117Y-89047588D01*
X33508123Y-89047585D01*
X33512381Y-89046202D01*
X33513928Y-89045443D01*
X33514905Y-89045037D01*
X33519521Y-89043523D01*
X33563230Y-89021252D01*
X33564902Y-89020416D01*
X33565045Y-89020346D01*
X33612558Y-88997018D01*
X33614461Y-88995277D01*
X33616005Y-88994362D01*
X33825694Y-88887521D01*
X33825699Y-88887518D01*
X33829683Y-88885488D01*
X33831098Y-88884492D01*
X33831989Y-88883944D01*
X33836316Y-88881725D01*
X33840249Y-88878867D01*
X33840253Y-88878865D01*
X33876050Y-88852857D01*
X33877571Y-88851769D01*
X33915436Y-88825108D01*
X33915438Y-88825107D01*
X33920932Y-88821238D01*
X33922540Y-88819220D01*
X33923914Y-88818081D01*
X34117937Y-88677115D01*
X34119187Y-88675901D01*
X34119973Y-88675228D01*
X34123898Y-88672361D01*
X34158526Y-88637733D01*
X34159856Y-88636421D01*
X34193192Y-88604059D01*
X34198011Y-88599381D01*
X34199281Y-88597140D01*
X34200475Y-88595784D01*
X34370043Y-88426216D01*
X34371082Y-88424830D01*
X34371753Y-88424042D01*
X34375188Y-88420589D01*
X34404079Y-88380823D01*
X34405186Y-88379324D01*
X34432944Y-88342287D01*
X34436972Y-88336913D01*
X34437876Y-88334501D01*
X34438834Y-88332989D01*
X34519398Y-88222101D01*
X34579798Y-88138968D01*
X34580616Y-88137420D01*
X34581146Y-88136553D01*
X34583999Y-88132604D01*
X34606276Y-88088882D01*
X34607131Y-88087235D01*
X34623048Y-88057110D01*
X34631932Y-88040296D01*
X34632448Y-88037769D01*
X34633158Y-88036125D01*
X34740003Y-87826431D01*
X34742035Y-87822443D01*
X34742600Y-87820788D01*
X34742989Y-87819844D01*
X34745189Y-87815499D01*
X34760338Y-87768875D01*
X34760929Y-87767100D01*
X34775917Y-87723199D01*
X34778092Y-87716829D01*
X34778207Y-87714250D01*
X34778653Y-87712507D01*
X34851372Y-87488700D01*
X34851372Y-87488699D01*
X34852758Y-87484434D01*
X34853056Y-87482716D01*
X34853293Y-87481724D01*
X34854787Y-87477085D01*
X34855551Y-87472264D01*
X34862469Y-87428592D01*
X34862774Y-87426751D01*
X34870700Y-87381100D01*
X34870700Y-87381095D01*
X34871849Y-87374480D01*
X34871559Y-87371918D01*
X34871726Y-87370134D01*
X34904826Y-87161160D01*
X34905211Y-87158869D01*
X34908326Y-87141304D01*
X34909177Y-87136507D01*
X34913622Y-86925920D01*
X34908923Y-86887320D01*
X34908000Y-86872094D01*
X34908000Y-81334000D01*
X34928002Y-81265879D01*
X34981658Y-81219386D01*
X35034000Y-81208000D01*
X98466000Y-81208000D01*
X98534121Y-81228002D01*
G37*
%TD.AperFunction*%
%TD*%
M02*
