%TF.GenerationSoftware,KiCad,Pcbnew,(5.99.0-7626-g1ca75c8fda)*%
%TF.CreationDate,2021-03-16T15:24:00+01:00*%
%TF.ProjectId,CDEM,4344454d-2e6b-4696-9361-645f70636258,rev?*%
%TF.SameCoordinates,Original*%
%TF.FileFunction,Copper,L1,Top*%
%TF.FilePolarity,Positive*%
%FSLAX46Y46*%
G04 Gerber Fmt 4.6, Leading zero omitted, Abs format (unit mm)*
G04 Created by KiCad (PCBNEW (5.99.0-7626-g1ca75c8fda)) date 2021-03-16 15:24:00*
%MOMM*%
%LPD*%
G01*
G04 APERTURE LIST*
G04 Aperture macros list*
%AMRoundRect*
0 Rectangle with rounded corners*
0 $1 Rounding radius*
0 $2 $3 $4 $5 $6 $7 $8 $9 X,Y pos of 4 corners*
0 Add a 4 corners polygon primitive as box body*
4,1,4,$2,$3,$4,$5,$6,$7,$8,$9,$2,$3,0*
0 Add four circle primitives for the rounded corners*
1,1,$1+$1,$2,$3,0*
1,1,$1+$1,$4,$5,0*
1,1,$1+$1,$6,$7,0*
1,1,$1+$1,$8,$9,0*
0 Add four rect primitives between the rounded corners*
20,1,$1+$1,$2,$3,$4,$5,0*
20,1,$1+$1,$4,$5,$6,$7,0*
20,1,$1+$1,$6,$7,$8,$9,0*
20,1,$1+$1,$8,$9,$2,$3,0*%
G04 Aperture macros list end*
%TA.AperFunction,SMDPad,CuDef*%
%ADD10RoundRect,0.200000X0.200000X0.275000X-0.200000X0.275000X-0.200000X-0.275000X0.200000X-0.275000X0*%
%TD*%
%TA.AperFunction,SMDPad,CuDef*%
%ADD11RoundRect,0.150000X0.150000X-0.512500X0.150000X0.512500X-0.150000X0.512500X-0.150000X-0.512500X0*%
%TD*%
%TA.AperFunction,SMDPad,CuDef*%
%ADD12RoundRect,0.200000X-0.200000X-0.275000X0.200000X-0.275000X0.200000X0.275000X-0.200000X0.275000X0*%
%TD*%
%TA.AperFunction,SMDPad,CuDef*%
%ADD13RoundRect,0.062500X-0.350000X-0.062500X0.350000X-0.062500X0.350000X0.062500X-0.350000X0.062500X0*%
%TD*%
%TA.AperFunction,SMDPad,CuDef*%
%ADD14RoundRect,0.062500X-0.062500X-0.350000X0.062500X-0.350000X0.062500X0.350000X-0.062500X0.350000X0*%
%TD*%
%TA.AperFunction,SMDPad,CuDef*%
%ADD15R,2.600000X2.600000*%
%TD*%
%TA.AperFunction,SMDPad,CuDef*%
%ADD16RoundRect,0.225000X-0.250000X0.225000X-0.250000X-0.225000X0.250000X-0.225000X0.250000X0.225000X0*%
%TD*%
%TA.AperFunction,SMDPad,CuDef*%
%ADD17RoundRect,0.250000X-0.250000X-0.475000X0.250000X-0.475000X0.250000X0.475000X-0.250000X0.475000X0*%
%TD*%
%TA.AperFunction,SMDPad,CuDef*%
%ADD18R,0.600000X1.450000*%
%TD*%
%TA.AperFunction,SMDPad,CuDef*%
%ADD19R,0.300000X1.450000*%
%TD*%
%TA.AperFunction,ComponentPad*%
%ADD20O,1.000000X1.600000*%
%TD*%
%TA.AperFunction,ComponentPad*%
%ADD21O,1.000000X2.100000*%
%TD*%
%TA.AperFunction,SMDPad,CuDef*%
%ADD22RoundRect,0.250000X0.250000X0.475000X-0.250000X0.475000X-0.250000X-0.475000X0.250000X-0.475000X0*%
%TD*%
%TA.AperFunction,SMDPad,CuDef*%
%ADD23RoundRect,0.218750X-0.218750X-0.256250X0.218750X-0.256250X0.218750X0.256250X-0.218750X0.256250X0*%
%TD*%
%TA.AperFunction,SMDPad,CuDef*%
%ADD24R,0.900000X1.200000*%
%TD*%
%TA.AperFunction,SMDPad,CuDef*%
%ADD25RoundRect,0.225000X-0.225000X-0.250000X0.225000X-0.250000X0.225000X0.250000X-0.225000X0.250000X0*%
%TD*%
%TA.AperFunction,ComponentPad*%
%ADD26R,1.700000X1.700000*%
%TD*%
%TA.AperFunction,ComponentPad*%
%ADD27O,1.700000X1.700000*%
%TD*%
%TA.AperFunction,SMDPad,CuDef*%
%ADD28R,1.500000X2.000000*%
%TD*%
%TA.AperFunction,SMDPad,CuDef*%
%ADD29R,3.800000X2.000000*%
%TD*%
%TA.AperFunction,SMDPad,CuDef*%
%ADD30RoundRect,0.225000X0.225000X0.250000X-0.225000X0.250000X-0.225000X-0.250000X0.225000X-0.250000X0*%
%TD*%
%TA.AperFunction,SMDPad,CuDef*%
%ADD31RoundRect,0.200000X-0.275000X0.200000X-0.275000X-0.200000X0.275000X-0.200000X0.275000X0.200000X0*%
%TD*%
%TA.AperFunction,SMDPad,CuDef*%
%ADD32RoundRect,0.237500X0.287500X0.237500X-0.287500X0.237500X-0.287500X-0.237500X0.287500X-0.237500X0*%
%TD*%
%TA.AperFunction,SMDPad,CuDef*%
%ADD33RoundRect,0.250000X-0.475000X0.250000X-0.475000X-0.250000X0.475000X-0.250000X0.475000X0.250000X0*%
%TD*%
%TA.AperFunction,SMDPad,CuDef*%
%ADD34R,0.900000X0.800000*%
%TD*%
%TA.AperFunction,SMDPad,CuDef*%
%ADD35R,1.000000X2.500000*%
%TD*%
%TA.AperFunction,SMDPad,CuDef*%
%ADD36R,1.800000X1.000000*%
%TD*%
%TA.AperFunction,SMDPad,CuDef*%
%ADD37R,1.700000X0.900000*%
%TD*%
%TA.AperFunction,ComponentPad*%
%ADD38R,1.520000X1.520000*%
%TD*%
%TA.AperFunction,ComponentPad*%
%ADD39C,1.520000*%
%TD*%
%TA.AperFunction,SMDPad,CuDef*%
%ADD40RoundRect,0.200000X0.275000X-0.200000X0.275000X0.200000X-0.275000X0.200000X-0.275000X-0.200000X0*%
%TD*%
%TA.AperFunction,ViaPad*%
%ADD41C,0.600000*%
%TD*%
%TA.AperFunction,ViaPad*%
%ADD42C,0.800000*%
%TD*%
%TA.AperFunction,Conductor*%
%ADD43C,0.200000*%
%TD*%
%TA.AperFunction,Conductor*%
%ADD44C,0.750000*%
%TD*%
%TA.AperFunction,Conductor*%
%ADD45C,0.400000*%
%TD*%
%TA.AperFunction,Conductor*%
%ADD46C,0.300000*%
%TD*%
%TA.AperFunction,Conductor*%
%ADD47C,0.500000*%
%TD*%
%TA.AperFunction,Conductor*%
%ADD48C,1.000000*%
%TD*%
G04 APERTURE END LIST*
D10*
%TO.P,R13,2*%
%TO.N,GND*%
X54775000Y-97600000D03*
%TO.P,R13,1*%
%TO.N,/SM-DATA*%
X56425000Y-97600000D03*
%TD*%
%TO.P,R1,1*%
%TO.N,VCC*%
X56425000Y-99100000D03*
%TO.P,R1,2*%
%TO.N,/SM-DATA-REQ*%
X54775000Y-99100000D03*
%TD*%
D11*
%TO.P,U2,1,I/O1*%
%TO.N,/USB-IN-D-*%
X58350000Y-110737500D03*
%TO.P,U2,2,GND*%
%TO.N,GND*%
X59300000Y-110737500D03*
%TO.P,U2,3,I/O2*%
%TO.N,/USB-IN-D+*%
X60250000Y-110737500D03*
%TO.P,U2,4,I/O2*%
%TO.N,/USB-D+*%
X60250000Y-108462500D03*
%TO.P,U2,5,VBUS*%
%TO.N,VBUS*%
X59300000Y-108462500D03*
%TO.P,U2,6,I/O1*%
%TO.N,/USB-D-*%
X58350000Y-108462500D03*
%TD*%
D12*
%TO.P,R4,1*%
%TO.N,+3V3*%
X54775000Y-106600000D03*
%TO.P,R4,2*%
%TO.N,Net-(D3-Pad2)*%
X56425000Y-106600000D03*
%TD*%
D13*
%TO.P,U3,1,RI*%
%TO.N,Net-(U3-Pad1)*%
X63362500Y-107350000D03*
%TO.P,U3,2,GND*%
%TO.N,GND*%
X63362500Y-107850000D03*
%TO.P,U3,3,D+*%
%TO.N,/USB-D+*%
X63362500Y-108350000D03*
%TO.P,U3,4,D-*%
%TO.N,/USB-D-*%
X63362500Y-108850000D03*
%TO.P,U3,5,VIO*%
%TO.N,Net-(C5-Pad1)*%
X63362500Y-109350000D03*
%TO.P,U3,6,VDD*%
X63362500Y-109850000D03*
D14*
%TO.P,U3,7,REGIN*%
%TO.N,VBUS*%
X64050000Y-110537500D03*
%TO.P,U3,8,VBUS*%
X64550000Y-110537500D03*
%TO.P,U3,9,~RST*%
%TO.N,Net-(U3-Pad9)*%
X65050000Y-110537500D03*
%TO.P,U3,10,VIO/NC*%
%TO.N,no_connect_56*%
X65550000Y-110537500D03*
%TO.P,U3,11,GPIO.3*%
%TO.N,Net-(U3-Pad11)*%
X66050000Y-110537500D03*
%TO.P,U3,12,GPIO.2*%
%TO.N,Net-(U3-Pad12)*%
X66550000Y-110537500D03*
D13*
%TO.P,U3,13,GPIO.1*%
%TO.N,Net-(U3-Pad13)*%
X67237500Y-109850000D03*
%TO.P,U3,14,GPIO.0*%
%TO.N,Net-(U3-Pad14)*%
X67237500Y-109350000D03*
%TO.P,U3,15,~SUSPEND*%
%TO.N,Net-(U3-Pad15)*%
X67237500Y-108850000D03*
%TO.P,U3,16,VPP*%
%TO.N,Net-(C9-Pad1)*%
X67237500Y-108350000D03*
%TO.P,U3,17,SUSPEND*%
%TO.N,Net-(U3-Pad17)*%
X67237500Y-107850000D03*
%TO.P,U3,18,CTS*%
%TO.N,Net-(U3-Pad18)*%
X67237500Y-107350000D03*
D14*
%TO.P,U3,19,RTS*%
%TO.N,/RTS*%
X66550000Y-106662500D03*
%TO.P,U3,20,RXD*%
%TO.N,/USB-RX*%
X66050000Y-106662500D03*
%TO.P,U3,21,TXD*%
%TO.N,/USB-TX*%
X65550000Y-106662500D03*
%TO.P,U3,22,DSR*%
%TO.N,Net-(U3-Pad22)*%
X65050000Y-106662500D03*
%TO.P,U3,23,DTR*%
%TO.N,/DTR*%
X64550000Y-106662500D03*
%TO.P,U3,24,DCD*%
%TO.N,Net-(U3-Pad24)*%
X64050000Y-106662500D03*
D15*
%TO.P,U3,25,PAD*%
%TO.N,GND*%
X65300000Y-108600000D03*
%TD*%
D16*
%TO.P,C7,1*%
%TO.N,+3V3*%
X77900000Y-97725000D03*
%TO.P,C7,2*%
%TO.N,GND*%
X77900000Y-99275000D03*
%TD*%
D12*
%TO.P,R3,1*%
%TO.N,+3V3*%
X54775000Y-109600000D03*
%TO.P,R3,2*%
%TO.N,Net-(R3-Pad2)*%
X56425000Y-109600000D03*
%TD*%
D17*
%TO.P,C1,1*%
%TO.N,Net-(C1-Pad1)*%
X50700000Y-107800000D03*
%TO.P,C1,2*%
%TO.N,GND*%
X52600000Y-107800000D03*
%TD*%
D18*
%TO.P,J1,A1,GND*%
%TO.N,GND*%
X58100000Y-124255000D03*
%TO.P,J1,A4,VBUS*%
%TO.N,VBUS*%
X58900000Y-124255000D03*
D19*
%TO.P,J1,A5,CC1*%
%TO.N,Net-(J1-PadA5)*%
X60100000Y-124255000D03*
%TO.P,J1,A6,D+*%
%TO.N,/USB-IN-D+*%
X61100000Y-124255000D03*
%TO.P,J1,A7,D-*%
%TO.N,/USB-IN-D-*%
X61600000Y-124255000D03*
%TO.P,J1,A8,SBU1*%
%TO.N,Net-(J1-PadA8)*%
X62600000Y-124255000D03*
D18*
%TO.P,J1,A9,VBUS*%
%TO.N,VBUS*%
X63800000Y-124255000D03*
%TO.P,J1,A12,GND*%
%TO.N,GND*%
X64600000Y-124255000D03*
%TO.P,J1,B1,GND*%
X64600000Y-124255000D03*
%TO.P,J1,B4,VBUS*%
%TO.N,VBUS*%
X63800000Y-124255000D03*
D19*
%TO.P,J1,B5,CC2*%
%TO.N,Net-(J1-PadB5)*%
X63100000Y-124255000D03*
%TO.P,J1,B6,D+*%
%TO.N,/USB-IN-D+*%
X62100000Y-124255000D03*
%TO.P,J1,B7,D-*%
%TO.N,/USB-IN-D-*%
X60600000Y-124255000D03*
%TO.P,J1,B8,SBU2*%
%TO.N,Net-(J1-PadB8)*%
X59600000Y-124255000D03*
D18*
%TO.P,J1,B9,VBUS*%
%TO.N,VBUS*%
X58900000Y-124255000D03*
%TO.P,J1,B12,GND*%
%TO.N,GND*%
X58100000Y-124255000D03*
D20*
%TO.P,J1,S1,SHIELD*%
X65670000Y-129350000D03*
D21*
X57030000Y-125170000D03*
D20*
X57030000Y-129350000D03*
D21*
X65670000Y-125170000D03*
%TD*%
D22*
%TO.P,C3,1*%
%TO.N,+3V3*%
X48800000Y-107800000D03*
%TO.P,C3,2*%
%TO.N,GND*%
X46900000Y-107800000D03*
%TD*%
D23*
%TO.P,D4,1,K*%
%TO.N,/LED-COMM*%
X47512500Y-85500000D03*
%TO.P,D4,2,A*%
%TO.N,Net-(D4-Pad2)*%
X49087500Y-85500000D03*
%TD*%
D24*
%TO.P,D1,1,K*%
%TO.N,Net-(C1-Pad1)*%
X50150000Y-112500000D03*
%TO.P,D1,2,A*%
%TO.N,VBUS*%
X46850000Y-112500000D03*
%TD*%
D23*
%TO.P,D3,1,K*%
%TO.N,GND*%
X47512500Y-83100000D03*
%TO.P,D3,2,A*%
%TO.N,Net-(D3-Pad2)*%
X49087500Y-83100000D03*
%TD*%
D25*
%TO.P,C4,1*%
%TO.N,VBUS*%
X63625000Y-114200000D03*
%TO.P,C4,2*%
%TO.N,GND*%
X65175000Y-114200000D03*
%TD*%
D26*
%TO.P,J3,1,Pin_1*%
%TO.N,+3V3*%
X71300000Y-117400000D03*
D27*
%TO.P,J3,2,Pin_2*%
%TO.N,/USB-TX*%
X71300000Y-119940000D03*
%TO.P,J3,3,Pin_3*%
%TO.N,/USB-RX*%
X71300000Y-122480000D03*
%TO.P,J3,4,Pin_4*%
%TO.N,GND*%
X71300000Y-125020000D03*
%TD*%
D12*
%TO.P,R9,1*%
%TO.N,+3V3*%
X54775000Y-103600000D03*
%TO.P,R9,2*%
%TO.N,/RESET*%
X56425000Y-103600000D03*
%TD*%
D28*
%TO.P,U1,1,GND*%
%TO.N,GND*%
X47450000Y-105350000D03*
%TO.P,U1,2,VO*%
%TO.N,+3V3*%
X49750000Y-105350000D03*
D29*
X49750000Y-99050000D03*
D28*
%TO.P,U1,3,VI*%
%TO.N,Net-(C1-Pad1)*%
X52050000Y-105350000D03*
%TD*%
D30*
%TO.P,C8,1*%
%TO.N,/GPIO0*%
X56375000Y-100600000D03*
%TO.P,C8,2*%
%TO.N,GND*%
X54825000Y-100600000D03*
%TD*%
D31*
%TO.P,R10,1*%
%TO.N,/RTS*%
X59500000Y-98725000D03*
%TO.P,R10,2*%
%TO.N,Net-(Q2-Pad1)*%
X59500000Y-100375000D03*
%TD*%
D12*
%TO.P,R7,1*%
%TO.N,+3V3*%
X54775000Y-108100000D03*
%TO.P,R7,2*%
%TO.N,Net-(D5-Pad2)*%
X56425000Y-108100000D03*
%TD*%
%TO.P,R12,1*%
%TO.N,VCC*%
X64875000Y-96700000D03*
%TO.P,R12,2*%
%TO.N,/SM-DATA*%
X66525000Y-96700000D03*
%TD*%
D32*
%TO.P,C9,1*%
%TO.N,Net-(C9-Pad1)*%
X68775000Y-112200000D03*
%TO.P,C9,2*%
%TO.N,GND*%
X67025000Y-112200000D03*
%TD*%
D16*
%TO.P,C5,1*%
%TO.N,Net-(C5-Pad1)*%
X61800000Y-111225000D03*
%TO.P,C5,2*%
%TO.N,GND*%
X61800000Y-112775000D03*
%TD*%
D10*
%TO.P,R2,1*%
%TO.N,+3V3*%
X66525000Y-101900000D03*
%TO.P,R2,2*%
%TO.N,/DATA*%
X64875000Y-101900000D03*
%TD*%
D33*
%TO.P,C6,1*%
%TO.N,+3V3*%
X79900000Y-97550000D03*
%TO.P,C6,2*%
%TO.N,GND*%
X79900000Y-99450000D03*
%TD*%
D23*
%TO.P,D5,1,K*%
%TO.N,/LED-DATA*%
X47512500Y-87700000D03*
%TO.P,D5,2,A*%
%TO.N,Net-(D5-Pad2)*%
X49087500Y-87700000D03*
%TD*%
D12*
%TO.P,R5,1*%
%TO.N,+3V3*%
X54775000Y-105100000D03*
%TO.P,R5,2*%
%TO.N,Net-(D4-Pad2)*%
X56425000Y-105100000D03*
%TD*%
D34*
%TO.P,Q1,1,G*%
%TO.N,/SM-DATA*%
X64900000Y-98350000D03*
%TO.P,Q1,2,S*%
%TO.N,GND*%
X64900000Y-100250000D03*
%TO.P,Q1,3,D*%
%TO.N,/DATA*%
X66900000Y-99300000D03*
%TD*%
%TO.P,Q2,1,B*%
%TO.N,Net-(Q2-Pad1)*%
X61000000Y-101850000D03*
%TO.P,Q2,2,E*%
%TO.N,/DTR*%
X61000000Y-103750000D03*
%TO.P,Q2,3,C*%
%TO.N,/GPIO0*%
X63000000Y-102800000D03*
%TD*%
D35*
%TO.P,U4,1,~RST*%
%TO.N,/RESET*%
X98100000Y-98200000D03*
%TO.P,U4,2,ADC*%
%TO.N,Net-(U4-Pad2)*%
X96100000Y-98200000D03*
%TO.P,U4,3,EN*%
%TO.N,Net-(R3-Pad2)*%
X94100000Y-98200000D03*
%TO.P,U4,4,GPIO16*%
%TO.N,Net-(U4-Pad4)*%
X92100000Y-98200000D03*
%TO.P,U4,5,GPIO14*%
%TO.N,/DATA*%
X90100000Y-98200000D03*
%TO.P,U4,6,GPIO12*%
%TO.N,/LED-DATA*%
X88100000Y-98200000D03*
%TO.P,U4,7,GPIO13*%
%TO.N,/SM-DATA-REQ*%
X86100000Y-98200000D03*
%TO.P,U4,8,VCC*%
%TO.N,+3V3*%
X84100000Y-98200000D03*
D36*
%TO.P,U4,9,CS0*%
%TO.N,Net-(U4-Pad9)*%
X82600000Y-100800000D03*
%TO.P,U4,10,MISO*%
%TO.N,Net-(U4-Pad10)*%
X82600000Y-102800000D03*
%TO.P,U4,11,GPIO9*%
%TO.N,Net-(U4-Pad11)*%
X82600000Y-104800000D03*
%TO.P,U4,12,GPIO10*%
%TO.N,Net-(U4-Pad12)*%
X82600000Y-106800000D03*
%TO.P,U4,13,MOSI*%
%TO.N,Net-(U4-Pad13)*%
X82600000Y-108800000D03*
%TO.P,U4,14,SCLK*%
%TO.N,Net-(U4-Pad14)*%
X82600000Y-110800000D03*
D35*
%TO.P,U4,15,GND*%
%TO.N,GND*%
X84100000Y-113400000D03*
%TO.P,U4,16,GPIO15*%
%TO.N,Net-(R6-Pad1)*%
X86100000Y-113400000D03*
%TO.P,U4,17,GPIO2*%
%TO.N,/SM-TX*%
X88100000Y-113400000D03*
%TO.P,U4,18,GPIO0*%
%TO.N,/GPIO0*%
X90100000Y-113400000D03*
%TO.P,U4,19,GPIO4*%
%TO.N,Net-(U4-Pad19)*%
X92100000Y-113400000D03*
%TO.P,U4,20,GPIO5*%
%TO.N,/LED-COMM*%
X94100000Y-113400000D03*
%TO.P,U4,21,GPIO3/RXD*%
%TO.N,/USB-TX*%
X96100000Y-113400000D03*
%TO.P,U4,22,GPIO1/TXD*%
%TO.N,/USB-RX*%
X98100000Y-113400000D03*
%TD*%
D24*
%TO.P,D2,1,K*%
%TO.N,Net-(C1-Pad1)*%
X50150000Y-110100000D03*
%TO.P,D2,2,A*%
%TO.N,VCC*%
X46850000Y-110100000D03*
%TD*%
D34*
%TO.P,Q3,1,B*%
%TO.N,Net-(Q3-Pad1)*%
X61000000Y-98350000D03*
%TO.P,Q3,2,E*%
%TO.N,/RTS*%
X61000000Y-100250000D03*
%TO.P,Q3,3,C*%
%TO.N,/RESET*%
X63000000Y-99300000D03*
%TD*%
D17*
%TO.P,C2,1*%
%TO.N,VBUS*%
X63450000Y-112400000D03*
%TO.P,C2,2*%
%TO.N,GND*%
X65350000Y-112400000D03*
%TD*%
D37*
%TO.P,SW2,1,1*%
%TO.N,/RESET*%
X65100000Y-82200000D03*
%TO.P,SW2,2,2*%
%TO.N,GND*%
X65100000Y-85600000D03*
%TD*%
D10*
%TO.P,R6,1*%
%TO.N,Net-(R6-Pad1)*%
X66525000Y-103500000D03*
%TO.P,R6,2*%
%TO.N,GND*%
X64875000Y-103500000D03*
%TD*%
D37*
%TO.P,SW1,1,1*%
%TO.N,+3V3*%
X65100000Y-87100000D03*
%TO.P,SW1,2,2*%
%TO.N,/GPIO0*%
X65100000Y-90500000D03*
%TD*%
D10*
%TO.P,R8,1*%
%TO.N,/GPIO0*%
X56425000Y-102100000D03*
%TO.P,R8,2*%
%TO.N,GND*%
X54775000Y-102100000D03*
%TD*%
D38*
%TO.P,J2,1*%
%TO.N,VCC*%
X43700000Y-102600000D03*
D39*
%TO.P,J2,2*%
%TO.N,/SM-DATA-REQ*%
X41160000Y-103870000D03*
%TO.P,J2,3*%
%TO.N,GND*%
X43700000Y-105140000D03*
%TO.P,J2,4*%
%TO.N,Net-(J2-Pad4)*%
X41160000Y-106410000D03*
%TO.P,J2,5*%
%TO.N,/SM-DATA*%
X43700000Y-107680000D03*
%TO.P,J2,6*%
%TO.N,GND*%
X41160000Y-108950000D03*
%TD*%
D40*
%TO.P,R11,1*%
%TO.N,/DTR*%
X59500000Y-103625000D03*
%TO.P,R11,2*%
%TO.N,Net-(Q3-Pad1)*%
X59500000Y-101975000D03*
%TD*%
D41*
%TO.N,GND*%
X69000000Y-105600000D03*
%TO.N,/RESET*%
X62000000Y-99200000D03*
X57600000Y-102700000D03*
%TO.N,Net-(R3-Pad2)*%
X62600000Y-105200000D03*
X69200000Y-103700000D03*
%TO.N,/RTS*%
X64000000Y-104800000D03*
X67700000Y-105300000D03*
%TO.N,GND*%
X53900000Y-97700000D03*
X77500000Y-109700000D03*
X92600000Y-115500000D03*
X71200000Y-100500000D03*
D42*
X80200000Y-100600000D03*
D41*
X93300000Y-102900000D03*
X79300000Y-115900000D03*
X98100000Y-100300000D03*
D42*
X47450000Y-103800000D03*
D41*
X75100000Y-104900000D03*
D42*
X66100000Y-109400000D03*
D41*
X97700000Y-130900000D03*
D42*
X64500000Y-107800000D03*
D41*
X60900000Y-114000000D03*
X62400000Y-101600000D03*
X27600000Y-122700000D03*
X72300000Y-93200000D03*
D42*
X66100000Y-107800000D03*
D41*
X49800000Y-89100000D03*
X47500000Y-94400000D03*
D42*
X48400000Y-103800000D03*
D41*
X71500000Y-108200000D03*
X53900000Y-102100000D03*
X57500000Y-85300000D03*
X41500000Y-81800000D03*
X56200000Y-82000000D03*
X82600000Y-82100000D03*
X73700000Y-98700000D03*
X63200000Y-98000000D03*
D42*
X53400000Y-107000000D03*
D41*
X84900000Y-106500000D03*
X34700000Y-88400000D03*
X69300000Y-108200000D03*
X66800000Y-113800000D03*
D42*
X64900000Y-104500000D03*
D41*
X69300000Y-113500000D03*
D42*
X77900000Y-100400000D03*
X80350000Y-113050000D03*
D41*
X53900000Y-100600000D03*
X98300000Y-119500000D03*
X53400000Y-94600000D03*
X84800000Y-95200000D03*
X93600000Y-117800000D03*
X56700000Y-87600000D03*
X64900000Y-92700000D03*
X76600000Y-131200000D03*
D42*
X64500000Y-109400000D03*
D41*
X98300000Y-91200000D03*
X71400000Y-81900000D03*
D42*
X79300000Y-100600000D03*
D41*
X35700000Y-131200000D03*
X98100000Y-103800000D03*
D42*
X48400000Y-109900000D03*
D41*
X27400000Y-94100000D03*
D42*
X46500000Y-103800000D03*
D41*
X78900000Y-108700000D03*
X57200000Y-111100000D03*
X27300000Y-89900000D03*
X46500000Y-98000000D03*
X93300000Y-82300000D03*
X27600000Y-113400000D03*
D42*
X52000000Y-109000000D03*
X79100000Y-111800000D03*
X79750000Y-112450000D03*
D41*
X58000000Y-99400000D03*
X98100000Y-111200000D03*
X74200000Y-111000000D03*
D42*
X65300000Y-108700000D03*
D41*
X85000000Y-108700000D03*
X46200000Y-83100000D03*
X41600000Y-131100000D03*
D42*
X59350000Y-112160050D03*
D41*
X35500000Y-81900000D03*
X88300000Y-131000000D03*
D42*
X53200000Y-109000000D03*
D41*
X98100000Y-107100000D03*
X98300000Y-88200000D03*
X72300000Y-95100000D03*
X50200000Y-131200000D03*
X45100000Y-110800000D03*
X98400000Y-123200000D03*
X69200000Y-93800000D03*
X84700000Y-93200000D03*
X35500000Y-123500000D03*
X27700000Y-104300000D03*
X93200000Y-111100000D03*
X72900000Y-105200000D03*
X65800000Y-100200000D03*
X95800000Y-96100000D03*
X63700000Y-94700000D03*
X87100000Y-117800000D03*
X98400000Y-95100000D03*
D42*
X61800000Y-113700000D03*
D41*
X98300000Y-116400000D03*
%TO.N,VBUS*%
X62700000Y-114800000D03*
X62700000Y-114100000D03*
X60000000Y-107200000D03*
X59300000Y-107200000D03*
D42*
%TO.N,+3V3*%
X69600000Y-101000000D03*
D41*
X59300000Y-120200000D03*
D42*
X65200000Y-88700000D03*
D41*
X65000000Y-120100000D03*
D42*
X52700000Y-103600000D03*
X51800000Y-103600000D03*
X53600000Y-103600000D03*
D41*
%TO.N,/GPIO0*%
X67495736Y-96800000D03*
X61800000Y-102800000D03*
X68000000Y-102700000D03*
%TO.N,Net-(D3-Pad2)*%
X51300000Y-93800000D03*
X57600000Y-106600000D03*
%TO.N,Net-(D4-Pad2)*%
X57500000Y-105100000D03*
X49500000Y-93800000D03*
%TO.N,Net-(D5-Pad2)*%
X55600000Y-110700000D03*
X50400000Y-93800000D03*
%TO.N,/LED-COMM*%
X66300000Y-93900000D03*
X70000000Y-96100000D03*
%TO.N,/SM-DATA-REQ*%
X55600000Y-105900000D03*
X79900000Y-106700000D03*
%TO.N,/USB-TX*%
X94400000Y-116000000D03*
X94400000Y-117500000D03*
%TO.N,/LED-DATA*%
X69900000Y-98400000D03*
X66400000Y-94700000D03*
%TD*%
D43*
%TO.N,/GPIO0*%
X67500000Y-92900000D02*
X67500000Y-95800000D01*
X67500000Y-95800000D02*
X67500000Y-96291472D01*
X67495736Y-96800000D02*
X67495736Y-95804264D01*
X67495736Y-95804264D02*
X67500000Y-95800000D01*
D44*
%TO.N,+3V3*%
X69600000Y-101000000D02*
X69600000Y-100100000D01*
X69600000Y-100100000D02*
X68600000Y-99100000D01*
X77900000Y-97725000D02*
X77699999Y-97524999D01*
X77699999Y-97524999D02*
X69479999Y-97524999D01*
X68600000Y-98404998D02*
X68600000Y-99100000D01*
X69479999Y-97524999D02*
X68600000Y-98404998D01*
D45*
X66525000Y-101900000D02*
X66600000Y-101900000D01*
X66600000Y-101900000D02*
X67500000Y-101000000D01*
X67500000Y-101000000D02*
X69600000Y-101000000D01*
D43*
%TO.N,/RESET*%
X70440002Y-94200000D02*
X70440002Y-94759998D01*
X70440002Y-94759998D02*
X66800000Y-98400000D01*
X66800000Y-98400000D02*
X66409998Y-98400000D01*
X65500000Y-99300000D02*
X63000000Y-99300000D01*
X66409998Y-98400000D02*
X66149999Y-98659999D01*
X66140001Y-98659999D02*
X65500000Y-99300000D01*
X66149999Y-98659999D02*
X66140001Y-98659999D01*
X62000000Y-99200000D02*
X62100000Y-99300000D01*
X62100000Y-99300000D02*
X63000000Y-99300000D01*
%TO.N,Net-(R3-Pad2)*%
X56425000Y-109600000D02*
X57600000Y-108425000D01*
X57600000Y-108425000D02*
X57600000Y-107500000D01*
X57600000Y-107500000D02*
X58700000Y-106400000D01*
X58700000Y-106400000D02*
X61400000Y-106400000D01*
X61400000Y-106400000D02*
X62600000Y-105200000D01*
%TO.N,/RESET*%
X57600000Y-103100000D02*
X57600000Y-102700000D01*
X57600000Y-103400000D02*
X57600000Y-103100000D01*
X57600000Y-103100000D02*
X57600000Y-102900000D01*
%TO.N,/GPIO0*%
X61800000Y-102800000D02*
X58750000Y-102800000D01*
X58050000Y-102100000D02*
X56425000Y-102100000D01*
X58750000Y-102800000D02*
X58050000Y-102100000D01*
%TO.N,/RESET*%
X57400000Y-103600000D02*
X57600000Y-103400000D01*
%TO.N,Net-(R6-Pad1)*%
X86100000Y-113400000D02*
X86100000Y-113225720D01*
X86100000Y-113225720D02*
X84474290Y-111600010D01*
X68400000Y-103500000D02*
X66525000Y-103500000D01*
X84474290Y-111600010D02*
X80031394Y-111600010D01*
X80031394Y-111600010D02*
X79031384Y-110600000D01*
X79031384Y-110600000D02*
X77231395Y-110600000D01*
X77231395Y-110600000D02*
X69731395Y-103100000D01*
X69731395Y-103100000D02*
X68800000Y-103100000D01*
X68800000Y-103100000D02*
X68400000Y-103500000D01*
%TO.N,Net-(R3-Pad2)*%
X69765699Y-103700000D02*
X69200000Y-103700000D01*
X70965679Y-104899980D02*
X69765699Y-103700000D01*
%TO.N,/USB-TX*%
X65550000Y-106662500D02*
X65550000Y-105750000D01*
X65550000Y-105750000D02*
X67000000Y-104300000D01*
X67000000Y-104300000D02*
X69800000Y-104300000D01*
X69800000Y-104300000D02*
X81900000Y-116400000D01*
X81900000Y-116400000D02*
X93274280Y-116400000D01*
X93274280Y-116400000D02*
X94637140Y-115037140D01*
%TO.N,/USB-RX*%
X66050000Y-106662500D02*
X66050000Y-105850000D01*
X69634301Y-104700000D02*
X81734311Y-116800010D01*
X66050000Y-105850000D02*
X67200000Y-104700000D01*
X67200000Y-104700000D02*
X69634301Y-104700000D01*
X81734311Y-116800010D02*
X94874270Y-116800010D01*
X94874270Y-116800010D02*
X95087140Y-116587140D01*
%TO.N,/RTS*%
X64000000Y-104800000D02*
X64000000Y-101500000D01*
X64000000Y-101500000D02*
X62750000Y-100250000D01*
X62750000Y-100250000D02*
X61000000Y-100250000D01*
X66550000Y-106662500D02*
X66550000Y-106050000D01*
X67300000Y-105300000D02*
X67500000Y-105300000D01*
X66550000Y-106050000D02*
X67300000Y-105300000D01*
%TO.N,/DTR*%
X64550000Y-106662500D02*
X64550000Y-106237332D01*
X64550000Y-106237332D02*
X62062668Y-103750000D01*
X62062668Y-103750000D02*
X61000000Y-103750000D01*
%TO.N,/SM-DATA*%
X56425000Y-97600000D02*
X56675010Y-97349990D01*
X56675010Y-97349990D02*
X63899990Y-97349990D01*
X63899990Y-97349990D02*
X64900000Y-98350000D01*
D45*
%TO.N,GND*%
X54775000Y-97600000D02*
X54000000Y-97600000D01*
X54000000Y-97600000D02*
X53900000Y-97700000D01*
%TO.N,VCC*%
X43851458Y-96100000D02*
X55000000Y-96100000D01*
X56025001Y-99100000D02*
X55575010Y-98650009D01*
X55000000Y-96100000D02*
X56800000Y-96100000D01*
X56425000Y-99100000D02*
X56025001Y-99100000D01*
X55575010Y-98650009D02*
X55575010Y-96675010D01*
X55575010Y-96675010D02*
X55000000Y-96100000D01*
X43700000Y-102600000D02*
X42539999Y-103760001D01*
X42539999Y-103760001D02*
X42539999Y-104206803D01*
X42539999Y-104206803D02*
X41716801Y-105030001D01*
X41716801Y-105030001D02*
X40330001Y-105030001D01*
X40330001Y-105030001D02*
X39999999Y-104699999D01*
X39999999Y-104699999D02*
X39999999Y-99951459D01*
X39999999Y-99951459D02*
X43851458Y-96100000D01*
X56800000Y-96100000D02*
X57400000Y-96700000D01*
X57400000Y-96700000D02*
X64875000Y-96700000D01*
%TO.N,/SM-DATA-REQ*%
X54775000Y-99100000D02*
X53700000Y-99100000D01*
X41160000Y-103870000D02*
X41160000Y-99640000D01*
X41160000Y-99640000D02*
X44100000Y-96700000D01*
X44100000Y-96700000D02*
X51300000Y-96700000D01*
X51300000Y-96700000D02*
X53700000Y-99100000D01*
D43*
%TO.N,GND*%
X63362500Y-107850000D02*
X64450000Y-107850000D01*
D46*
X54825000Y-100600000D02*
X54825000Y-102050000D01*
D47*
X46500000Y-103800000D02*
X48400000Y-103800000D01*
X64900000Y-104150000D02*
X64900000Y-104500000D01*
D48*
X79100000Y-111800000D02*
X78700000Y-111400000D01*
D47*
X61800000Y-112775000D02*
X61800000Y-113700000D01*
X64875000Y-103500000D02*
X64875000Y-104125000D01*
X48400000Y-104400000D02*
X47450000Y-105350000D01*
D43*
X64450000Y-107850000D02*
X64500000Y-107800000D01*
D45*
X64900000Y-100250000D02*
X64950000Y-100200000D01*
D48*
X80350000Y-113050000D02*
X79750000Y-112450000D01*
D45*
X53900000Y-100600000D02*
X54825000Y-100600000D01*
D47*
X52600000Y-107800000D02*
X53200000Y-108400000D01*
D48*
X79750000Y-112450000D02*
X79100000Y-111800000D01*
D47*
X78675000Y-99275000D02*
X78850000Y-99450000D01*
X47450000Y-105350000D02*
X47450000Y-103950000D01*
D48*
X80700000Y-113400000D02*
X80350000Y-113050000D01*
D47*
X65350000Y-112400000D02*
X65350000Y-113450000D01*
X52000000Y-108400000D02*
X52000000Y-109000000D01*
X52600000Y-107800000D02*
X52000000Y-108400000D01*
X65350000Y-112400000D02*
X65550000Y-112200000D01*
D46*
X54825000Y-102050000D02*
X54775000Y-102100000D01*
D47*
X46900000Y-107800000D02*
X48400000Y-109300000D01*
X46500000Y-104400000D02*
X47450000Y-105350000D01*
X59300000Y-110737500D02*
X59300000Y-112300000D01*
X53200000Y-108400000D02*
X53200000Y-109100000D01*
X65550000Y-112200000D02*
X67025000Y-112200000D01*
D45*
X53900000Y-102100000D02*
X54775000Y-102100000D01*
D48*
X84100000Y-113400000D02*
X80700000Y-113400000D01*
D47*
X46500000Y-103800000D02*
X46500000Y-104400000D01*
X65350000Y-113450000D02*
X65175000Y-113625000D01*
X64875000Y-104125000D02*
X64900000Y-104150000D01*
X77900000Y-99275000D02*
X78675000Y-99275000D01*
X78850000Y-99450000D02*
X79900000Y-99450000D01*
X52600000Y-107800000D02*
X53400000Y-107000000D01*
X48400000Y-109300000D02*
X48400000Y-109900000D01*
X65175000Y-113625000D02*
X65175000Y-114200000D01*
D45*
X64950000Y-100200000D02*
X65800000Y-100200000D01*
D47*
X59300000Y-112210050D02*
X59350000Y-112160050D01*
X48400000Y-103800000D02*
X48400000Y-104400000D01*
D48*
%TO.N,Net-(C1-Pad1)*%
X51200010Y-106199990D02*
X51200010Y-107299990D01*
X50700000Y-109550000D02*
X50150000Y-110100000D01*
X50700000Y-107800000D02*
X50700000Y-109550000D01*
X52050000Y-105350000D02*
X51200010Y-106199990D01*
X51200010Y-107299990D02*
X50700000Y-107800000D01*
X50150000Y-110100000D02*
X50150000Y-112500000D01*
D47*
%TO.N,VBUS*%
X59300000Y-108462500D02*
X59300000Y-107200000D01*
D45*
X58900000Y-124255000D02*
X58900000Y-125066998D01*
X63625000Y-115875000D02*
X63625000Y-118025000D01*
X64050000Y-110537500D02*
X63500000Y-111087500D01*
X63700000Y-114125000D02*
X63625000Y-114200000D01*
X63625000Y-118025000D02*
X63800000Y-118200000D01*
D44*
X49150000Y-114800000D02*
X51600000Y-114800000D01*
D45*
X62766998Y-126100000D02*
X63800000Y-125066998D01*
D47*
X62700000Y-114100000D02*
X63525000Y-114100000D01*
D45*
X63450000Y-112400000D02*
X63450000Y-113250000D01*
D47*
X58900000Y-122200000D02*
X58900000Y-124255000D01*
D45*
X59933002Y-126100000D02*
X62766998Y-126100000D01*
D46*
X64050000Y-110537500D02*
X64550000Y-110537500D01*
D47*
X62700000Y-114800000D02*
X63025000Y-114800000D01*
D45*
X63500000Y-112350000D02*
X63450000Y-112400000D01*
X63625000Y-115175000D02*
X63625000Y-115875000D01*
X63450000Y-113250000D02*
X63700000Y-113500000D01*
D47*
X63525000Y-114100000D02*
X63625000Y-114200000D01*
X60000000Y-107200000D02*
X59300000Y-107900000D01*
D45*
X63700000Y-113500000D02*
X63700000Y-114125000D01*
D44*
X58900000Y-122100000D02*
X58900000Y-123000000D01*
X51600000Y-114800000D02*
X58900000Y-122100000D01*
D47*
X63025000Y-114800000D02*
X63625000Y-114200000D01*
X59300000Y-107200000D02*
X60000000Y-107200000D01*
D45*
X63800000Y-125066998D02*
X63800000Y-124255000D01*
X63625000Y-114200000D02*
X63625000Y-115175000D01*
X58900000Y-125066998D02*
X59933002Y-126100000D01*
X63800000Y-118200000D02*
X63800000Y-124255000D01*
D44*
X46850000Y-112500000D02*
X49150000Y-114800000D01*
D47*
X59300000Y-107900000D02*
X59300000Y-108462500D01*
D45*
X63500000Y-111087500D02*
X63500000Y-112350000D01*
D47*
%TO.N,+3V3*%
X49750000Y-105263588D02*
X49750000Y-105350000D01*
D44*
X49750000Y-105350000D02*
X49750000Y-105086812D01*
X79900000Y-97550000D02*
X81250000Y-97550000D01*
D48*
X49750000Y-99050000D02*
X49750000Y-105350000D01*
D47*
X54775000Y-103600000D02*
X54925000Y-103600000D01*
D45*
X54775000Y-109600000D02*
X54775000Y-115675000D01*
D48*
X49750000Y-106125000D02*
X49750000Y-105350000D01*
X48800000Y-107800000D02*
X48800000Y-107075000D01*
D47*
X51413588Y-103600000D02*
X49750000Y-105263588D01*
X54775000Y-103600000D02*
X51413588Y-103600000D01*
D45*
X65200000Y-88700000D02*
X65200000Y-87200000D01*
D44*
X81250000Y-97550000D02*
X81900000Y-98200000D01*
D45*
X54775000Y-115675000D02*
X59300000Y-120200000D01*
X65000000Y-120100000D02*
X67700000Y-117400000D01*
X65200000Y-87200000D02*
X65100000Y-87100000D01*
D48*
X48800000Y-107075000D02*
X49750000Y-106125000D01*
D45*
X54775000Y-103600000D02*
X54775000Y-109600000D01*
D44*
X81900000Y-98200000D02*
X84100000Y-98200000D01*
X77900000Y-97725000D02*
X78675000Y-97725000D01*
X51236812Y-103600000D02*
X53600000Y-103600000D01*
X78850000Y-97550000D02*
X79900000Y-97550000D01*
D45*
X67700000Y-117400000D02*
X71300000Y-117400000D01*
D44*
X78675000Y-97725000D02*
X78850000Y-97550000D01*
X49750000Y-105086812D02*
X51236812Y-103600000D01*
D45*
%TO.N,Net-(C5-Pad1)*%
X61800000Y-111225000D02*
X61987500Y-111225000D01*
D46*
X63362500Y-109350000D02*
X63362500Y-109850000D01*
D45*
X61987500Y-111225000D02*
X63362500Y-109850000D01*
D43*
%TO.N,/GPIO0*%
X90100000Y-113400000D02*
X90100000Y-113225720D01*
X71697082Y-102700000D02*
X68000000Y-102700000D01*
X67500000Y-96291472D02*
X67495736Y-96295736D01*
X56375000Y-100600000D02*
X56375000Y-102050000D01*
X56375000Y-102050000D02*
X56425000Y-102100000D01*
X86474290Y-109600010D02*
X78597092Y-109600010D01*
X63000000Y-102800000D02*
X61800000Y-102800000D01*
X90100000Y-113225720D02*
X86474290Y-109600010D01*
X78597092Y-109600010D02*
X71697082Y-102700000D01*
X65100000Y-90500000D02*
X67500000Y-92900000D01*
D44*
%TO.N,VCC*%
X46850000Y-110100000D02*
X45300000Y-108550000D01*
X45300000Y-108550000D02*
X45300000Y-104200000D01*
X45300000Y-104200000D02*
X43700000Y-102600000D01*
D43*
%TO.N,Net-(D3-Pad2)*%
X48500000Y-93900000D02*
X49200000Y-94600000D01*
X50500000Y-94600000D02*
X51300000Y-93800000D01*
X56425000Y-106600000D02*
X57600000Y-106600000D01*
X49200000Y-94600000D02*
X50500000Y-94600000D01*
X49087500Y-83100000D02*
X47462510Y-84724990D01*
X46000000Y-91400000D02*
X48500000Y-93900000D01*
X47462510Y-84724990D02*
X46575010Y-84724990D01*
X46575010Y-84724990D02*
X46000000Y-85300000D01*
X46000000Y-85300000D02*
X46000000Y-91400000D01*
%TO.N,Net-(D4-Pad2)*%
X49500000Y-93400000D02*
X49500000Y-93800000D01*
X46775010Y-86924990D02*
X46500000Y-87200000D01*
X46500000Y-87200000D02*
X46500000Y-90400000D01*
X56425000Y-105100000D02*
X57500000Y-105100000D01*
X49087500Y-85500000D02*
X47662510Y-86924990D01*
X46500000Y-90400000D02*
X49500000Y-93400000D01*
X47662510Y-86924990D02*
X46775010Y-86924990D01*
D46*
%TO.N,Net-(C9-Pad1)*%
X68775000Y-109175000D02*
X68775000Y-112200000D01*
X67950000Y-108350000D02*
X68775000Y-109175000D01*
X67237500Y-108350000D02*
X67950000Y-108350000D01*
D43*
%TO.N,Net-(D5-Pad2)*%
X50400000Y-93300000D02*
X49087500Y-91987500D01*
X50400000Y-93800000D02*
X50400000Y-93300000D01*
X49087500Y-91987500D02*
X49087500Y-87700000D01*
X56425000Y-108100000D02*
X55600000Y-108925000D01*
X55600000Y-108925000D02*
X55600000Y-110700000D01*
%TO.N,/LED-COMM*%
X94900010Y-96825730D02*
X94174280Y-96100000D01*
X94174280Y-96100000D02*
X70000000Y-96100000D01*
X94100000Y-113400000D02*
X94100000Y-101565699D01*
X48287510Y-84724990D02*
X55424990Y-84724990D01*
X56400000Y-85700000D02*
X64600000Y-93900000D01*
X55424990Y-84724990D02*
X56400000Y-85700000D01*
X64600000Y-93900000D02*
X66300000Y-93900000D01*
X94900010Y-100765689D02*
X94900010Y-96825730D01*
X94100000Y-101565699D02*
X94900010Y-100765689D01*
X47512500Y-85500000D02*
X48287510Y-84724990D01*
%TO.N,/USB-IN-D-*%
X61360002Y-125500000D02*
X61600000Y-125260002D01*
X60600000Y-119400000D02*
X60600000Y-124255000D01*
X59100000Y-117900000D02*
X60600000Y-119400000D01*
X58350000Y-110737500D02*
X58350000Y-112650000D01*
X59100000Y-113400000D02*
X59100000Y-117900000D01*
X60600000Y-124255000D02*
X60600000Y-125300000D01*
X60600000Y-125300000D02*
X60800000Y-125500000D01*
X60800000Y-125500000D02*
X61360002Y-125500000D01*
X61600000Y-124255000D02*
X61600000Y-125260002D01*
X58350000Y-112650000D02*
X59100000Y-113400000D01*
%TO.N,/USB-IN-D+*%
X60250000Y-110737500D02*
X60250000Y-112650020D01*
X59550010Y-117713600D02*
X61050009Y-119213599D01*
X62100000Y-123100000D02*
X61100000Y-122100000D01*
X61100000Y-122100000D02*
X61100000Y-124255000D01*
X62100000Y-124255000D02*
X62100000Y-123100000D01*
X61100000Y-119300000D02*
X61100000Y-122100000D01*
X61050009Y-119213599D02*
X61050009Y-119250009D01*
X61050009Y-119250009D02*
X61100000Y-119300000D01*
X59550010Y-113350010D02*
X59550010Y-117713600D01*
X60250000Y-112650020D02*
X59550010Y-113350010D01*
%TO.N,/SM-DATA-REQ*%
X80600010Y-105999990D02*
X79900000Y-106700000D01*
D46*
X86100000Y-98200000D02*
X86100000Y-99200000D01*
D43*
X83800010Y-104599990D02*
X83800010Y-105424270D01*
X54775000Y-99100000D02*
X55575010Y-99900010D01*
X91000000Y-99474280D02*
X86174281Y-104299999D01*
X86100000Y-97300000D02*
X86800000Y-96600000D01*
X86100000Y-98200000D02*
X86100000Y-97300000D01*
X86800000Y-96600000D02*
X90674280Y-96600000D01*
X86174281Y-104299999D02*
X84100001Y-104299999D01*
X83224290Y-105999990D02*
X80600010Y-105999990D01*
X83800010Y-105424270D02*
X83224290Y-105999990D01*
X55575010Y-99900010D02*
X55575010Y-105775010D01*
X91000000Y-96925720D02*
X91000000Y-99474280D01*
X55600000Y-105800000D02*
X55600000Y-105900000D01*
X55575010Y-105775010D02*
X55600000Y-105800000D01*
X84100001Y-104299999D02*
X83800010Y-104599990D01*
X90674280Y-96600000D02*
X91000000Y-96925720D01*
D45*
%TO.N,/SM-DATA*%
X39200000Y-108706802D02*
X39200000Y-99902916D01*
X43239999Y-110160001D02*
X40653199Y-110160001D01*
X43602916Y-95500000D02*
X66400000Y-95500000D01*
D47*
X43700000Y-107680000D02*
X43700000Y-109700000D01*
D45*
X66500000Y-95600000D02*
X66500000Y-96675000D01*
X40653199Y-110160001D02*
X39200000Y-108706802D01*
X64900000Y-98350000D02*
X64900000Y-98325000D01*
X66500000Y-96675000D02*
X66525000Y-96700000D01*
X43700000Y-109700000D02*
X43239999Y-110160001D01*
X39200000Y-99902916D02*
X43602916Y-95500000D01*
X66400000Y-95500000D02*
X66500000Y-95600000D01*
X64900000Y-98325000D02*
X66525000Y-96700000D01*
D43*
%TO.N,Net-(R3-Pad2)*%
X82065697Y-116000000D02*
X90500000Y-116000000D01*
X94100000Y-100500000D02*
X94100000Y-98200000D01*
X91000000Y-115500000D02*
X90500000Y-116000000D01*
X91000000Y-103600000D02*
X93000000Y-101600000D01*
X93000000Y-101600000D02*
X94100000Y-100500000D01*
X76365697Y-110300000D02*
X82065697Y-116000000D01*
X70965679Y-104899980D02*
X71700016Y-105634319D01*
X91000000Y-115200000D02*
X91000000Y-115500000D01*
X75665697Y-109600000D02*
X76365697Y-110300000D01*
X91000000Y-115200000D02*
X91000000Y-103600000D01*
X71700016Y-105634319D02*
X75665697Y-109600000D01*
%TO.N,/RESET*%
X98100000Y-96800000D02*
X95500000Y-94200000D01*
X57400000Y-103600000D02*
X56425000Y-103600000D01*
X98100000Y-98200000D02*
X98100000Y-96800000D01*
X95500000Y-94200000D02*
X70440002Y-94200000D01*
X65100000Y-82200000D02*
X66300000Y-82200000D01*
X66300000Y-82200000D02*
X70440002Y-86340002D01*
X70440002Y-86340002D02*
X70440002Y-94200000D01*
%TO.N,/USB-D-*%
X58700010Y-109475010D02*
X62312322Y-109475010D01*
X62312322Y-109475010D02*
X62937332Y-108850000D01*
X58350000Y-109125000D02*
X58700010Y-109475010D01*
X58350000Y-108462500D02*
X58350000Y-109125000D01*
X62937332Y-108850000D02*
X63362500Y-108850000D01*
%TO.N,/USB-D+*%
X60250000Y-108462500D02*
X60362500Y-108350000D01*
X60362500Y-108350000D02*
X63362500Y-108350000D01*
%TO.N,/USB-TX*%
X94400000Y-116000000D02*
X94400000Y-115274280D01*
X71300000Y-119940000D02*
X72360000Y-121000000D01*
X93788002Y-118500000D02*
X94400000Y-117888002D01*
X96100000Y-113574280D02*
X96100000Y-113400000D01*
X94400000Y-117888002D02*
X94400000Y-117600000D01*
X85700000Y-121000000D02*
X88200000Y-118500000D01*
X94400000Y-115274280D02*
X94637140Y-115037140D01*
X72360000Y-121000000D02*
X85700000Y-121000000D01*
X88200000Y-118500000D02*
X93788002Y-118500000D01*
X94637140Y-115037140D02*
X96100000Y-113574280D01*
X94400000Y-117600000D02*
X94400000Y-117500000D01*
%TO.N,/USB-RX*%
X98100000Y-113574280D02*
X95087140Y-116587140D01*
X95300000Y-117600000D02*
X95300000Y-116800000D01*
X94000000Y-118900000D02*
X95300000Y-117600000D01*
X71300000Y-122480000D02*
X72380000Y-121400000D01*
X98100000Y-113400000D02*
X98100000Y-113574280D01*
X72380000Y-121400000D02*
X85900000Y-121400000D01*
X95300000Y-116800000D02*
X95087140Y-116587140D01*
X85900000Y-121400000D02*
X88400000Y-118900000D01*
X88400000Y-118900000D02*
X94000000Y-118900000D01*
%TO.N,/LED-DATA*%
X75300000Y-101700000D02*
X72000000Y-98400000D01*
X64800000Y-94700000D02*
X57024990Y-86924990D01*
X86300000Y-101700000D02*
X75300000Y-101700000D01*
X72000000Y-98400000D02*
X69900000Y-98400000D01*
X57024990Y-86924990D02*
X48287510Y-86924990D01*
X66400000Y-94700000D02*
X64800000Y-94700000D01*
X88100000Y-99900000D02*
X86300000Y-101700000D01*
X48287510Y-86924990D02*
X47512500Y-87700000D01*
X88100000Y-98200000D02*
X88100000Y-99900000D01*
D46*
%TO.N,/DTR*%
X60350000Y-103750000D02*
X61000000Y-103750000D01*
X59500000Y-103625000D02*
X60225000Y-103625000D01*
X60225000Y-103625000D02*
X60350000Y-103750000D01*
D43*
%TO.N,/DATA*%
X67136988Y-102675010D02*
X67805999Y-102005999D01*
D46*
X90100000Y-99600000D02*
X90100000Y-98200000D01*
D43*
X66900000Y-99988002D02*
X64988002Y-101900000D01*
D46*
X86049990Y-103650010D02*
X90100000Y-99600000D01*
X73505999Y-102005999D02*
X75150010Y-103650010D01*
D43*
X66900000Y-99300000D02*
X66900000Y-99988002D01*
D46*
X73549999Y-102049999D02*
X73505999Y-102005999D01*
X73505999Y-102005999D02*
X67805999Y-102005999D01*
D43*
X65650010Y-102675010D02*
X67136988Y-102675010D01*
X64875000Y-101900000D02*
X65650010Y-102675010D01*
X64988002Y-101900000D02*
X64875000Y-101900000D01*
D46*
X75150010Y-103650010D02*
X86049990Y-103650010D01*
D43*
%TO.N,Net-(U4-Pad12)*%
X82500000Y-106700000D02*
X82600000Y-106800000D01*
D46*
%TO.N,Net-(Q2-Pad1)*%
X60975000Y-101850000D02*
X59500000Y-100375000D01*
X61000000Y-101850000D02*
X60975000Y-101850000D01*
%TO.N,/RTS*%
X61000000Y-100250000D02*
X61000000Y-100225000D01*
X61000000Y-100225000D02*
X59500000Y-98725000D01*
%TO.N,Net-(Q3-Pad1)*%
X60450000Y-97800000D02*
X61000000Y-98350000D01*
X58674990Y-98297178D02*
X59172168Y-97800000D01*
X58674990Y-101149990D02*
X58674990Y-98297178D01*
X59500000Y-101975000D02*
X58674990Y-101149990D01*
X59172168Y-97800000D02*
X60450000Y-97800000D01*
%TD*%
%TA.AperFunction,Conductor*%
%TO.N,GND*%
G36*
X63839323Y-81228002D02*
G01*
X63885816Y-81281658D01*
X63895920Y-81351932D01*
X63866426Y-81416513D01*
X63823918Y-81465569D01*
X63823916Y-81465572D01*
X63818016Y-81472381D01*
X63757300Y-81605330D01*
X63756018Y-81614245D01*
X63756018Y-81614246D01*
X63737139Y-81745552D01*
X63737138Y-81745559D01*
X63736500Y-81750000D01*
X63736500Y-82650000D01*
X63741727Y-82723079D01*
X63743631Y-82729562D01*
X63777820Y-82846000D01*
X63782904Y-82863316D01*
X63787775Y-82870895D01*
X63857051Y-82978691D01*
X63857053Y-82978694D01*
X63861923Y-82986271D01*
X63868733Y-82992172D01*
X63965569Y-83076082D01*
X63965572Y-83076084D01*
X63972381Y-83081984D01*
X64105330Y-83142700D01*
X64114245Y-83143982D01*
X64114246Y-83143982D01*
X64245552Y-83162861D01*
X64245559Y-83162862D01*
X64250000Y-83163500D01*
X65950000Y-83163500D01*
X66023079Y-83158273D01*
X66101165Y-83135345D01*
X66154670Y-83119635D01*
X66154672Y-83119634D01*
X66163316Y-83117096D01*
X66170894Y-83112226D01*
X66170896Y-83112225D01*
X66195532Y-83096392D01*
X66263653Y-83076390D01*
X66331774Y-83096392D01*
X66352748Y-83113295D01*
X68076478Y-84837026D01*
X69794597Y-86555145D01*
X69828623Y-86617457D01*
X69831502Y-86644240D01*
X69831503Y-94153756D01*
X69830425Y-94170203D01*
X69826502Y-94200000D01*
X69827580Y-94208188D01*
X69830424Y-94229790D01*
X69831502Y-94246237D01*
X69831502Y-94455759D01*
X69811500Y-94523880D01*
X69794597Y-94544854D01*
X68991884Y-95347568D01*
X68323595Y-96015857D01*
X68261283Y-96049882D01*
X68190468Y-96044818D01*
X68133632Y-96002271D01*
X68108821Y-95935751D01*
X68108500Y-95926762D01*
X68108500Y-95846231D01*
X68109578Y-95829785D01*
X68112421Y-95808190D01*
X68112421Y-95808189D01*
X68113499Y-95800001D01*
X68109578Y-95770217D01*
X68108500Y-95753771D01*
X68108500Y-92946238D01*
X68109578Y-92929792D01*
X68112422Y-92908189D01*
X68112422Y-92908188D01*
X68113500Y-92900000D01*
X68105371Y-92838254D01*
X68093674Y-92749400D01*
X68093673Y-92749398D01*
X68092596Y-92741214D01*
X68037443Y-92608065D01*
X68037444Y-92608065D01*
X68037441Y-92608061D01*
X68036021Y-92604631D01*
X68031307Y-92593250D01*
X67982559Y-92529720D01*
X67938839Y-92472743D01*
X67938836Y-92472740D01*
X67933810Y-92466190D01*
X67909965Y-92447893D01*
X67897575Y-92437026D01*
X67232907Y-91772358D01*
X66500354Y-91039806D01*
X66466329Y-90977494D01*
X66464365Y-90950000D01*
X66463500Y-90950000D01*
X66463500Y-90050000D01*
X66458273Y-89976921D01*
X66417096Y-89836684D01*
X66371393Y-89765569D01*
X66342949Y-89721309D01*
X66342947Y-89721306D01*
X66338077Y-89713729D01*
X66331267Y-89707828D01*
X66234431Y-89623918D01*
X66234428Y-89623916D01*
X66227619Y-89618016D01*
X66110353Y-89564462D01*
X66102864Y-89561042D01*
X66102863Y-89561042D01*
X66094670Y-89557300D01*
X66085755Y-89556018D01*
X66085754Y-89556018D01*
X66056625Y-89551830D01*
X65950000Y-89536500D01*
X65945505Y-89536500D01*
X65943185Y-89536334D01*
X65876665Y-89511523D01*
X65834118Y-89454687D01*
X65829054Y-89383871D01*
X65858536Y-89326347D01*
X65939037Y-89236942D01*
X66034524Y-89071554D01*
X66093538Y-88889927D01*
X66100758Y-88821238D01*
X66112810Y-88706565D01*
X66113500Y-88700000D01*
X66106956Y-88637733D01*
X66094228Y-88516637D01*
X66094228Y-88516636D01*
X66093538Y-88510073D01*
X66077022Y-88459240D01*
X66036566Y-88334731D01*
X66034524Y-88328446D01*
X66013859Y-88292653D01*
X65979602Y-88233318D01*
X65962864Y-88164323D01*
X65986085Y-88097231D01*
X66041892Y-88053344D01*
X66053223Y-88049422D01*
X66154670Y-88019635D01*
X66154672Y-88019634D01*
X66163316Y-88017096D01*
X66227135Y-87976082D01*
X66278691Y-87942949D01*
X66278694Y-87942947D01*
X66286271Y-87938077D01*
X66306460Y-87914778D01*
X66376082Y-87834431D01*
X66376084Y-87834428D01*
X66381984Y-87827619D01*
X66442700Y-87694670D01*
X66456770Y-87596811D01*
X66462861Y-87554448D01*
X66462862Y-87554441D01*
X66463500Y-87550000D01*
X66463500Y-86650000D01*
X66458273Y-86576921D01*
X66417096Y-86436684D01*
X66412226Y-86429106D01*
X66412224Y-86429102D01*
X66404331Y-86416820D01*
X66384330Y-86348699D01*
X66395716Y-86296359D01*
X66438477Y-86202725D01*
X66443502Y-86185612D01*
X66462361Y-86054446D01*
X66463000Y-86045503D01*
X66463000Y-85872115D01*
X66458525Y-85856876D01*
X66457135Y-85855671D01*
X66449452Y-85854000D01*
X65354002Y-85853999D01*
X65353996Y-85854000D01*
X63755115Y-85853999D01*
X63739876Y-85858474D01*
X63738671Y-85859864D01*
X63737000Y-85867547D01*
X63737000Y-86047743D01*
X63737161Y-86052250D01*
X63741740Y-86116269D01*
X63744126Y-86129491D01*
X63780820Y-86254462D01*
X63788231Y-86270689D01*
X63795594Y-86282146D01*
X63815597Y-86350266D01*
X63804210Y-86402611D01*
X63788650Y-86436684D01*
X63757300Y-86505330D01*
X63756018Y-86514245D01*
X63756018Y-86514246D01*
X63737139Y-86645552D01*
X63737138Y-86645559D01*
X63736500Y-86650000D01*
X63736500Y-87550000D01*
X63741727Y-87623079D01*
X63743631Y-87629562D01*
X63780158Y-87753963D01*
X63782904Y-87763316D01*
X63787775Y-87770895D01*
X63857051Y-87878691D01*
X63857053Y-87878694D01*
X63861923Y-87886271D01*
X63868733Y-87892172D01*
X63965569Y-87976082D01*
X63965572Y-87976084D01*
X63972381Y-87981984D01*
X63980579Y-87985728D01*
X64023861Y-88005494D01*
X64105330Y-88042700D01*
X64114245Y-88043982D01*
X64114246Y-88043982D01*
X64245552Y-88062861D01*
X64245559Y-88062862D01*
X64250000Y-88063500D01*
X64300205Y-88063500D01*
X64368326Y-88083502D01*
X64414819Y-88137158D01*
X64424923Y-88207432D01*
X64409326Y-88252496D01*
X64365476Y-88328446D01*
X64363434Y-88334731D01*
X64322979Y-88459240D01*
X64306462Y-88510073D01*
X64305772Y-88516636D01*
X64305772Y-88516637D01*
X64293044Y-88637733D01*
X64286500Y-88700000D01*
X64287190Y-88706565D01*
X64299243Y-88821238D01*
X64306462Y-88889927D01*
X64365476Y-89071554D01*
X64460963Y-89236942D01*
X64465378Y-89241845D01*
X64465382Y-89241850D01*
X64541322Y-89326190D01*
X64572040Y-89390197D01*
X64563275Y-89460651D01*
X64517812Y-89515182D01*
X64447686Y-89536500D01*
X64250000Y-89536500D01*
X64176921Y-89541727D01*
X64123884Y-89557300D01*
X64045330Y-89580365D01*
X64045328Y-89580366D01*
X64036684Y-89582904D01*
X64029105Y-89587775D01*
X63921309Y-89657051D01*
X63921306Y-89657053D01*
X63913729Y-89661923D01*
X63907828Y-89668733D01*
X63823918Y-89765569D01*
X63823916Y-89765572D01*
X63818016Y-89772381D01*
X63757300Y-89905330D01*
X63756018Y-89914245D01*
X63756018Y-89914246D01*
X63737139Y-90045552D01*
X63737138Y-90045559D01*
X63736500Y-90050000D01*
X63736500Y-90950000D01*
X63741727Y-91023079D01*
X63782904Y-91163316D01*
X63787775Y-91170895D01*
X63857051Y-91278691D01*
X63857053Y-91278694D01*
X63861923Y-91286271D01*
X63868733Y-91292172D01*
X63965569Y-91376082D01*
X63965572Y-91376084D01*
X63972381Y-91381984D01*
X63980579Y-91385728D01*
X64067059Y-91425222D01*
X64105330Y-91442700D01*
X64114245Y-91443982D01*
X64114246Y-91443982D01*
X64245552Y-91462861D01*
X64245559Y-91462862D01*
X64250000Y-91463500D01*
X65150762Y-91463500D01*
X65218883Y-91483502D01*
X65239858Y-91500405D01*
X66652108Y-92912657D01*
X66686133Y-92974969D01*
X66681068Y-93045785D01*
X66638521Y-93102620D01*
X66572001Y-93127431D01*
X66520748Y-93120451D01*
X66485763Y-93107994D01*
X66478771Y-93107160D01*
X66478770Y-93107160D01*
X66395721Y-93097257D01*
X66305679Y-93086520D01*
X66298676Y-93087256D01*
X66298675Y-93087256D01*
X66132321Y-93104740D01*
X66132317Y-93104741D01*
X66125313Y-93105477D01*
X66118642Y-93107748D01*
X65960299Y-93161652D01*
X65960296Y-93161653D01*
X65953629Y-93163923D01*
X65947630Y-93167613D01*
X65947629Y-93167614D01*
X65889920Y-93203117D01*
X65799159Y-93258953D01*
X65794125Y-93263883D01*
X65792965Y-93264789D01*
X65726971Y-93290967D01*
X65715391Y-93291500D01*
X64904239Y-93291500D01*
X64836118Y-93271498D01*
X64815144Y-93254595D01*
X56857151Y-85296604D01*
X56857131Y-85296582D01*
X56857128Y-85296579D01*
X56715044Y-85154495D01*
X63737000Y-85154495D01*
X63737000Y-85327885D01*
X63741475Y-85343124D01*
X63742865Y-85344329D01*
X63750548Y-85346000D01*
X64827885Y-85346001D01*
X64843124Y-85341526D01*
X64844329Y-85340136D01*
X64846000Y-85332453D01*
X64846000Y-85327885D01*
X65353999Y-85327885D01*
X65358474Y-85343124D01*
X65359864Y-85344329D01*
X65367547Y-85346000D01*
X66444885Y-85346001D01*
X66460124Y-85341526D01*
X66461329Y-85340136D01*
X66463000Y-85332453D01*
X66463000Y-85152257D01*
X66462839Y-85147750D01*
X66458260Y-85083731D01*
X66455874Y-85070509D01*
X66419181Y-84945542D01*
X66411767Y-84929308D01*
X66342574Y-84821640D01*
X66330888Y-84808153D01*
X66234160Y-84724338D01*
X66219152Y-84714693D01*
X66102725Y-84661523D01*
X66085612Y-84656498D01*
X65954446Y-84637639D01*
X65945505Y-84637000D01*
X65372115Y-84637000D01*
X65356876Y-84641475D01*
X65355671Y-84642865D01*
X65354000Y-84650548D01*
X65353999Y-85327885D01*
X64846000Y-85327885D01*
X64846001Y-84655115D01*
X64841526Y-84639876D01*
X64840136Y-84638671D01*
X64832453Y-84637000D01*
X64252257Y-84637000D01*
X64247750Y-84637161D01*
X64183731Y-84641740D01*
X64170509Y-84644126D01*
X64045542Y-84680819D01*
X64029308Y-84688233D01*
X63921640Y-84757426D01*
X63908153Y-84769112D01*
X63824338Y-84865840D01*
X63814693Y-84880848D01*
X63761523Y-84997275D01*
X63756498Y-85014388D01*
X63737639Y-85145554D01*
X63737000Y-85154495D01*
X56715044Y-85154495D01*
X55887964Y-84327417D01*
X55877097Y-84315025D01*
X55863826Y-84297730D01*
X55858800Y-84291180D01*
X55731740Y-84193683D01*
X55724109Y-84190522D01*
X55591403Y-84135554D01*
X55591399Y-84135553D01*
X55583775Y-84132395D01*
X55575595Y-84131318D01*
X55575591Y-84131317D01*
X55462979Y-84116491D01*
X55462970Y-84116490D01*
X55462967Y-84116490D01*
X55462955Y-84116489D01*
X55433179Y-84112569D01*
X55433178Y-84112569D01*
X55424990Y-84111491D01*
X55416802Y-84112569D01*
X55416801Y-84112569D01*
X55395206Y-84115412D01*
X55378760Y-84116490D01*
X49880847Y-84116490D01*
X49812726Y-84096488D01*
X49766233Y-84042832D01*
X49756129Y-83972558D01*
X49789375Y-83903837D01*
X49887548Y-83800204D01*
X49887551Y-83800200D01*
X49892586Y-83794885D01*
X49977767Y-83648234D01*
X50026927Y-83485920D01*
X50033500Y-83412273D01*
X50033500Y-82800865D01*
X50018860Y-82675296D01*
X49960994Y-82515878D01*
X49868007Y-82374049D01*
X49744885Y-82257414D01*
X49598234Y-82172233D01*
X49435920Y-82123073D01*
X49429480Y-82122498D01*
X49429479Y-82122498D01*
X49365066Y-82116749D01*
X49365060Y-82116749D01*
X49362273Y-82116500D01*
X48825865Y-82116500D01*
X48753406Y-82124948D01*
X48707568Y-82130292D01*
X48707567Y-82130292D01*
X48700296Y-82131140D01*
X48693419Y-82133636D01*
X48693416Y-82133637D01*
X48576957Y-82175910D01*
X48540878Y-82189006D01*
X48399049Y-82281993D01*
X48394010Y-82287313D01*
X48394008Y-82287314D01*
X48389244Y-82292342D01*
X48327875Y-82328039D01*
X48256948Y-82324891D01*
X48211119Y-82297160D01*
X48174902Y-82262851D01*
X48163255Y-82254138D01*
X48029360Y-82176365D01*
X48016035Y-82170571D01*
X47867016Y-82125438D01*
X47854393Y-82122990D01*
X47790066Y-82117249D01*
X47784596Y-82117006D01*
X47769376Y-82121475D01*
X47768171Y-82122865D01*
X47766500Y-82130548D01*
X47766500Y-83228000D01*
X47746498Y-83296121D01*
X47692842Y-83342614D01*
X47640500Y-83354000D01*
X46585115Y-83354000D01*
X46569876Y-83358475D01*
X46568671Y-83359865D01*
X46567000Y-83367548D01*
X46567000Y-83395474D01*
X46567425Y-83402778D01*
X46580778Y-83517319D01*
X46584122Y-83531466D01*
X46636957Y-83677022D01*
X46643465Y-83690017D01*
X46728365Y-83819511D01*
X46737689Y-83830663D01*
X46809845Y-83899017D01*
X46845543Y-83960386D01*
X46842396Y-84031313D01*
X46801402Y-84089279D01*
X46735577Y-84115880D01*
X46723192Y-84116490D01*
X46621247Y-84116490D01*
X46604800Y-84115412D01*
X46583198Y-84112568D01*
X46575010Y-84111490D01*
X46416224Y-84132395D01*
X46390838Y-84142911D01*
X46390838Y-84142910D01*
X46390835Y-84142912D01*
X46321751Y-84171527D01*
X46275891Y-84190522D01*
X46275890Y-84190523D01*
X46268260Y-84193683D01*
X46141200Y-84291180D01*
X46122904Y-84315024D01*
X46112043Y-84327408D01*
X45602427Y-84837026D01*
X45590035Y-84847893D01*
X45572743Y-84861161D01*
X45572740Y-84861164D01*
X45566190Y-84866190D01*
X45561164Y-84872740D01*
X45561163Y-84872741D01*
X45517758Y-84929308D01*
X45468693Y-84993251D01*
X45465533Y-85000881D01*
X45465532Y-85000882D01*
X45410564Y-85133588D01*
X45410563Y-85133592D01*
X45407405Y-85141216D01*
X45406328Y-85149396D01*
X45406327Y-85149400D01*
X45391500Y-85262023D01*
X45391500Y-85262028D01*
X45386501Y-85300000D01*
X45387579Y-85308188D01*
X45387579Y-85308189D01*
X45390422Y-85329784D01*
X45391500Y-85346230D01*
X45391501Y-91353763D01*
X45390423Y-91370209D01*
X45386501Y-91400000D01*
X45407405Y-91558785D01*
X45432792Y-91620074D01*
X45468694Y-91706750D01*
X45566191Y-91833810D01*
X45572741Y-91838836D01*
X45590036Y-91852107D01*
X45602427Y-91862974D01*
X48096580Y-94357129D01*
X48096588Y-94357135D01*
X48315857Y-94576405D01*
X48349882Y-94638717D01*
X48344817Y-94709533D01*
X48302270Y-94766368D01*
X48235749Y-94791179D01*
X48226761Y-94791500D01*
X43628854Y-94791500D01*
X43620284Y-94791208D01*
X43573150Y-94787994D01*
X43573146Y-94787994D01*
X43565574Y-94787478D01*
X43502624Y-94798465D01*
X43496134Y-94799422D01*
X43432722Y-94807096D01*
X43425613Y-94809783D01*
X43423001Y-94810424D01*
X43406741Y-94814872D01*
X43404171Y-94815648D01*
X43396692Y-94816953D01*
X43389741Y-94820004D01*
X43389735Y-94820006D01*
X43338211Y-94842624D01*
X43332102Y-94845117D01*
X43279464Y-94865007D01*
X43279462Y-94865008D01*
X43272354Y-94867694D01*
X43266089Y-94872000D01*
X43263698Y-94873250D01*
X43248989Y-94881437D01*
X43246672Y-94882807D01*
X43239715Y-94885861D01*
X43233692Y-94890482D01*
X43233686Y-94890486D01*
X43189024Y-94924755D01*
X43183691Y-94928630D01*
X43131070Y-94964796D01*
X43126013Y-94970472D01*
X43091977Y-95008673D01*
X43086996Y-95013949D01*
X38717372Y-99383575D01*
X38711107Y-99389428D01*
X38669767Y-99425491D01*
X38649397Y-99454475D01*
X38633031Y-99477761D01*
X38629098Y-99483056D01*
X38595481Y-99525930D01*
X38589698Y-99533305D01*
X38586572Y-99540227D01*
X38585188Y-99542513D01*
X38576836Y-99557156D01*
X38575563Y-99559531D01*
X38571191Y-99565751D01*
X38568432Y-99572827D01*
X38568430Y-99572831D01*
X38547990Y-99625258D01*
X38545441Y-99631323D01*
X38519150Y-99689551D01*
X38517765Y-99697024D01*
X38516958Y-99699599D01*
X38512350Y-99715776D01*
X38511677Y-99718396D01*
X38508917Y-99725476D01*
X38500914Y-99786271D01*
X38500581Y-99788797D01*
X38499550Y-99795305D01*
X38487909Y-99858116D01*
X38488346Y-99865696D01*
X38488346Y-99865697D01*
X38491292Y-99916790D01*
X38491501Y-99924043D01*
X38491500Y-108680863D01*
X38491208Y-108689433D01*
X38487994Y-108736567D01*
X38487994Y-108736571D01*
X38487478Y-108744143D01*
X38498464Y-108807094D01*
X38499424Y-108813597D01*
X38505567Y-108864359D01*
X38507096Y-108876995D01*
X38509781Y-108884101D01*
X38510413Y-108886674D01*
X38514878Y-108902998D01*
X38515647Y-108905546D01*
X38516953Y-108913026D01*
X38520004Y-108919976D01*
X38520005Y-108919980D01*
X38542626Y-108971510D01*
X38545117Y-108977614D01*
X38548475Y-108986500D01*
X38564959Y-109030124D01*
X38567694Y-109037363D01*
X38571994Y-109043620D01*
X38573238Y-109045999D01*
X38581438Y-109060732D01*
X38582809Y-109063049D01*
X38585861Y-109070003D01*
X38624758Y-109120694D01*
X38628611Y-109125998D01*
X38660491Y-109172384D01*
X38660493Y-109172387D01*
X38664796Y-109178647D01*
X38694795Y-109205375D01*
X38708685Y-109217751D01*
X38713961Y-109222732D01*
X40133858Y-110642630D01*
X40139711Y-110648895D01*
X40175774Y-110690235D01*
X40228047Y-110726973D01*
X40233342Y-110730906D01*
X40283587Y-110770303D01*
X40290511Y-110773429D01*
X40292824Y-110774830D01*
X40307440Y-110783167D01*
X40309817Y-110784442D01*
X40316034Y-110788811D01*
X40323113Y-110791571D01*
X40323115Y-110791572D01*
X40351564Y-110802664D01*
X40375542Y-110812012D01*
X40381618Y-110814566D01*
X40432911Y-110837726D01*
X40432914Y-110837727D01*
X40439833Y-110840851D01*
X40447298Y-110842235D01*
X40449817Y-110843024D01*
X40466116Y-110847667D01*
X40468682Y-110848326D01*
X40475759Y-110851085D01*
X40510612Y-110855674D01*
X40539088Y-110859423D01*
X40545602Y-110860455D01*
X40600929Y-110870709D01*
X40600931Y-110870709D01*
X40608398Y-110872093D01*
X40615978Y-110871656D01*
X40615979Y-110871656D01*
X40647889Y-110869816D01*
X40667068Y-110868710D01*
X40674319Y-110868501D01*
X43214060Y-110868501D01*
X43222631Y-110868793D01*
X43277340Y-110872523D01*
X43340278Y-110861538D01*
X43346790Y-110860578D01*
X43410193Y-110852905D01*
X43417298Y-110850220D01*
X43419905Y-110849580D01*
X43436143Y-110845138D01*
X43438740Y-110844354D01*
X43446223Y-110843048D01*
X43453179Y-110839995D01*
X43453181Y-110839994D01*
X43504704Y-110817377D01*
X43510813Y-110814884D01*
X43563451Y-110794994D01*
X43563453Y-110794993D01*
X43570561Y-110792307D01*
X43576826Y-110788001D01*
X43579217Y-110786751D01*
X43593921Y-110778567D01*
X43596242Y-110777194D01*
X43603200Y-110774140D01*
X43653876Y-110735254D01*
X43659185Y-110731397D01*
X43711845Y-110695205D01*
X43750955Y-110651309D01*
X43755935Y-110646034D01*
X43992223Y-110409746D01*
X44031985Y-110382900D01*
X44040305Y-110379360D01*
X44078283Y-110363200D01*
X44220706Y-110258389D01*
X44335197Y-110123624D01*
X44415615Y-109966135D01*
X44418469Y-109954475D01*
X44439266Y-109869479D01*
X44457645Y-109794370D01*
X44458500Y-109780589D01*
X44458500Y-109264230D01*
X44478502Y-109196109D01*
X44532158Y-109149616D01*
X44602432Y-109139512D01*
X44667012Y-109169006D01*
X44678136Y-109179919D01*
X44687257Y-109190049D01*
X44705477Y-109210284D01*
X44710819Y-109214165D01*
X44710821Y-109214167D01*
X44717022Y-109218672D01*
X44732056Y-109231513D01*
X45849595Y-110349053D01*
X45883621Y-110411365D01*
X45886500Y-110438148D01*
X45886500Y-110700000D01*
X45891727Y-110773079D01*
X45908994Y-110831886D01*
X45920672Y-110871656D01*
X45932904Y-110913316D01*
X45937775Y-110920895D01*
X46007051Y-111028691D01*
X46007053Y-111028694D01*
X46011923Y-111036271D01*
X46018733Y-111042172D01*
X46115569Y-111126082D01*
X46115572Y-111126084D01*
X46122381Y-111131984D01*
X46237316Y-111184473D01*
X46241314Y-111186299D01*
X46294970Y-111232792D01*
X46314972Y-111300913D01*
X46294970Y-111369034D01*
X46241314Y-111415527D01*
X46224470Y-111421809D01*
X46195330Y-111430365D01*
X46195328Y-111430366D01*
X46186684Y-111432904D01*
X46169616Y-111443873D01*
X46071309Y-111507051D01*
X46071306Y-111507053D01*
X46063729Y-111511923D01*
X46057828Y-111518733D01*
X45973918Y-111615569D01*
X45973916Y-111615572D01*
X45968016Y-111622381D01*
X45964272Y-111630579D01*
X45919568Y-111728468D01*
X45907300Y-111755330D01*
X45906018Y-111764245D01*
X45906018Y-111764246D01*
X45887139Y-111895552D01*
X45887138Y-111895559D01*
X45886500Y-111900000D01*
X45886500Y-113100000D01*
X45891727Y-113173079D01*
X45932904Y-113313316D01*
X45940878Y-113325724D01*
X46007051Y-113428691D01*
X46007053Y-113428694D01*
X46011923Y-113436271D01*
X46018733Y-113442172D01*
X46115569Y-113526082D01*
X46115572Y-113526084D01*
X46122381Y-113531984D01*
X46130579Y-113535728D01*
X46240318Y-113585844D01*
X46255330Y-113592700D01*
X46264245Y-113593982D01*
X46264246Y-113593982D01*
X46395552Y-113612861D01*
X46395559Y-113612862D01*
X46400000Y-113613500D01*
X46661853Y-113613500D01*
X46729974Y-113633502D01*
X46750948Y-113650405D01*
X47674790Y-114574248D01*
X48468490Y-115367948D01*
X48481330Y-115382981D01*
X48489716Y-115394523D01*
X48540838Y-115440553D01*
X48540973Y-115440675D01*
X48545758Y-115445216D01*
X48558909Y-115458367D01*
X48573362Y-115470071D01*
X48578376Y-115474353D01*
X48627753Y-115518812D01*
X48633472Y-115522114D01*
X48633475Y-115522116D01*
X48639370Y-115525519D01*
X48655668Y-115536720D01*
X48666088Y-115545158D01*
X48671970Y-115548155D01*
X48671973Y-115548157D01*
X48725280Y-115575319D01*
X48731075Y-115578465D01*
X48788614Y-115611685D01*
X48794895Y-115613726D01*
X48794900Y-115613728D01*
X48801373Y-115615831D01*
X48819634Y-115623395D01*
X48825702Y-115626487D01*
X48825711Y-115626490D01*
X48831590Y-115629486D01*
X48837966Y-115631195D01*
X48837970Y-115631196D01*
X48895757Y-115646680D01*
X48902081Y-115648553D01*
X48933576Y-115658786D01*
X48965270Y-115669084D01*
X48971837Y-115669774D01*
X48971845Y-115669776D01*
X48978616Y-115670488D01*
X48998051Y-115674090D01*
X49004626Y-115675852D01*
X49004633Y-115675853D01*
X49011007Y-115677561D01*
X49017598Y-115677906D01*
X49017602Y-115677907D01*
X49055860Y-115679911D01*
X49077357Y-115681038D01*
X49083917Y-115681554D01*
X49091536Y-115682355D01*
X49099143Y-115683155D01*
X49099150Y-115683155D01*
X49102428Y-115683500D01*
X49121039Y-115683500D01*
X49127633Y-115683673D01*
X49189907Y-115686937D01*
X49189911Y-115686937D01*
X49196499Y-115687282D01*
X49210586Y-115685051D01*
X49230295Y-115683500D01*
X51181853Y-115683500D01*
X51249974Y-115703502D01*
X51270948Y-115720405D01*
X57979595Y-122429053D01*
X58013621Y-122491365D01*
X58016500Y-122518148D01*
X58016500Y-122900680D01*
X57996498Y-122968801D01*
X57942842Y-123015294D01*
X57872568Y-123025398D01*
X57863718Y-123023801D01*
X57832453Y-123017000D01*
X57802257Y-123017000D01*
X57797750Y-123017161D01*
X57733731Y-123021740D01*
X57720509Y-123024126D01*
X57595542Y-123060819D01*
X57579308Y-123068233D01*
X57471640Y-123137426D01*
X57458153Y-123149112D01*
X57374338Y-123245840D01*
X57364693Y-123260848D01*
X57311523Y-123377275D01*
X57306498Y-123394388D01*
X57287639Y-123525554D01*
X57287000Y-123534495D01*
X57287000Y-123620466D01*
X57284102Y-123633331D01*
X57285169Y-123633415D01*
X57284000Y-123648225D01*
X57284000Y-123982885D01*
X57288475Y-123998124D01*
X57289865Y-123999329D01*
X57297548Y-124001000D01*
X57827885Y-124001000D01*
X57843124Y-123996525D01*
X57865276Y-123970961D01*
X57925002Y-123932578D01*
X57995999Y-123932578D01*
X58055725Y-123970962D01*
X58085218Y-124035543D01*
X58086500Y-124053474D01*
X58086500Y-124383000D01*
X58066498Y-124451121D01*
X58012842Y-124497614D01*
X57960500Y-124509000D01*
X57302115Y-124509000D01*
X57286876Y-124513475D01*
X57285671Y-124514865D01*
X57284000Y-124522548D01*
X57284000Y-124897885D01*
X57288475Y-124913124D01*
X57289865Y-124914329D01*
X57297548Y-124916000D01*
X57755756Y-124916000D01*
X57823877Y-124936002D01*
X57870370Y-124989658D01*
X57880474Y-125059932D01*
X57851094Y-125120463D01*
X57852782Y-125121754D01*
X57793805Y-125198893D01*
X57742777Y-125265634D01*
X57739895Y-125271816D01*
X57739890Y-125271823D01*
X57702854Y-125351249D01*
X57655937Y-125404535D01*
X57588659Y-125424000D01*
X57302115Y-125424000D01*
X57286876Y-125428475D01*
X57285671Y-125429865D01*
X57284000Y-125437548D01*
X57284000Y-126678052D01*
X57287973Y-126691583D01*
X57295768Y-126692703D01*
X57403557Y-126660979D01*
X57414941Y-126656380D01*
X57579222Y-126570496D01*
X57589483Y-126563782D01*
X57733959Y-126447620D01*
X57742718Y-126439042D01*
X57785791Y-126387710D01*
X57844901Y-126348383D01*
X57915888Y-126347257D01*
X57964309Y-126373032D01*
X57981086Y-126387412D01*
X57981095Y-126387418D01*
X57986275Y-126391858D01*
X57992290Y-126395083D01*
X57992294Y-126395086D01*
X58139877Y-126474219D01*
X58145892Y-126477444D01*
X58233028Y-126502101D01*
X58313596Y-126524900D01*
X58313601Y-126524901D01*
X58320164Y-126526758D01*
X58326973Y-126527163D01*
X58326976Y-126527163D01*
X58463982Y-126535302D01*
X58500961Y-126537499D01*
X58580507Y-126524900D01*
X58673112Y-126510233D01*
X58673116Y-126510232D01*
X58679846Y-126509166D01*
X58686192Y-126506679D01*
X58686196Y-126506678D01*
X58842119Y-126445573D01*
X58842123Y-126445571D01*
X58848474Y-126443082D01*
X58931632Y-126387412D01*
X58993310Y-126346122D01*
X58993311Y-126346121D01*
X58998977Y-126342328D01*
X59003699Y-126337404D01*
X59004825Y-126336459D01*
X59069865Y-126307992D01*
X59139970Y-126319208D01*
X59174914Y-126343883D01*
X59413667Y-126582636D01*
X59419521Y-126588902D01*
X59455577Y-126630234D01*
X59491767Y-126655668D01*
X59507838Y-126666963D01*
X59513114Y-126670881D01*
X59563389Y-126710302D01*
X59570310Y-126713427D01*
X59572617Y-126714824D01*
X59587245Y-126723167D01*
X59589621Y-126724441D01*
X59595837Y-126728810D01*
X59602916Y-126731570D01*
X59602918Y-126731571D01*
X59655342Y-126752010D01*
X59661413Y-126754561D01*
X59719636Y-126780850D01*
X59727102Y-126782234D01*
X59729674Y-126783040D01*
X59745873Y-126787654D01*
X59748481Y-126788324D01*
X59755562Y-126791084D01*
X59776314Y-126793816D01*
X59818901Y-126799423D01*
X59825415Y-126800455D01*
X59880732Y-126810707D01*
X59880733Y-126810707D01*
X59888200Y-126812091D01*
X59895781Y-126811654D01*
X59895782Y-126811654D01*
X59946857Y-126808709D01*
X59954110Y-126808500D01*
X62741059Y-126808500D01*
X62749630Y-126808792D01*
X62804339Y-126812522D01*
X62867277Y-126801537D01*
X62873789Y-126800577D01*
X62937192Y-126792904D01*
X62944297Y-126790219D01*
X62946904Y-126789579D01*
X62963142Y-126785137D01*
X62965739Y-126784353D01*
X62973222Y-126783047D01*
X62980178Y-126779994D01*
X62980180Y-126779993D01*
X63031703Y-126757376D01*
X63037812Y-126754883D01*
X63090450Y-126734993D01*
X63090452Y-126734992D01*
X63097560Y-126732306D01*
X63103825Y-126728000D01*
X63106216Y-126726750D01*
X63120920Y-126718566D01*
X63123241Y-126717193D01*
X63130199Y-126714139D01*
X63180875Y-126675253D01*
X63186184Y-126671396D01*
X63238844Y-126635204D01*
X63277954Y-126591308D01*
X63282934Y-126586033D01*
X63528064Y-126340903D01*
X63590376Y-126306877D01*
X63661191Y-126311942D01*
X63699154Y-126334328D01*
X63733577Y-126363832D01*
X63761088Y-126387412D01*
X63766275Y-126391858D01*
X63772290Y-126395083D01*
X63772294Y-126395086D01*
X63919877Y-126474219D01*
X63925892Y-126477444D01*
X64013028Y-126502101D01*
X64093596Y-126524900D01*
X64093601Y-126524901D01*
X64100164Y-126526758D01*
X64106973Y-126527163D01*
X64106976Y-126527163D01*
X64243982Y-126535302D01*
X64280961Y-126537499D01*
X64360507Y-126524900D01*
X64453112Y-126510233D01*
X64453116Y-126510232D01*
X64459846Y-126509166D01*
X64466192Y-126506679D01*
X64466196Y-126506678D01*
X64622119Y-126445573D01*
X64622123Y-126445571D01*
X64628474Y-126443082D01*
X64746855Y-126363832D01*
X64814589Y-126342558D01*
X64883073Y-126361281D01*
X64914593Y-126388901D01*
X64947313Y-126429020D01*
X64955955Y-126437723D01*
X65098789Y-126555886D01*
X65108960Y-126562746D01*
X65272032Y-126650918D01*
X65283331Y-126655668D01*
X65398693Y-126691380D01*
X65412794Y-126691586D01*
X65416000Y-126684829D01*
X65416000Y-125442115D01*
X65414659Y-125437548D01*
X65924000Y-125437548D01*
X65924000Y-126678052D01*
X65927973Y-126691583D01*
X65935768Y-126692703D01*
X66043557Y-126660979D01*
X66054941Y-126656380D01*
X66219222Y-126570496D01*
X66229483Y-126563782D01*
X66373959Y-126447620D01*
X66382719Y-126439042D01*
X66501881Y-126297030D01*
X66508807Y-126286916D01*
X66598118Y-126124458D01*
X66602946Y-126113194D01*
X66659002Y-125936484D01*
X66661550Y-125924497D01*
X66677607Y-125781339D01*
X66678000Y-125774315D01*
X66678000Y-125442115D01*
X66673525Y-125426876D01*
X66672135Y-125425671D01*
X66664452Y-125424000D01*
X65942115Y-125424000D01*
X65926876Y-125428475D01*
X65925671Y-125429865D01*
X65924000Y-125437548D01*
X65414659Y-125437548D01*
X65411525Y-125426876D01*
X65410135Y-125425671D01*
X65402452Y-125424000D01*
X65115923Y-125424000D01*
X65047802Y-125403998D01*
X65002342Y-125351769D01*
X65001171Y-125348289D01*
X64967604Y-125292423D01*
X69968255Y-125292423D01*
X69976638Y-125344471D01*
X69979212Y-125354793D01*
X70050230Y-125562810D01*
X70054497Y-125572533D01*
X70159556Y-125765625D01*
X70165402Y-125774491D01*
X70301486Y-125947113D01*
X70308750Y-125954875D01*
X70471967Y-126102094D01*
X70480444Y-126108528D01*
X70666122Y-126226136D01*
X70675567Y-126231053D01*
X70878406Y-126315694D01*
X70888545Y-126318950D01*
X71028345Y-126351096D01*
X71042422Y-126350257D01*
X71046000Y-126340999D01*
X71046000Y-125292115D01*
X71044659Y-125287548D01*
X71554000Y-125287548D01*
X71554000Y-126339941D01*
X71558151Y-126354079D01*
X71568798Y-126355774D01*
X71572192Y-126355096D01*
X71783333Y-126293954D01*
X71793259Y-126290143D01*
X71991065Y-126194307D01*
X72000212Y-126188876D01*
X72179041Y-126061083D01*
X72187149Y-126054182D01*
X72341893Y-125898082D01*
X72348706Y-125889933D01*
X72474940Y-125709988D01*
X72480295Y-125700787D01*
X72574399Y-125502156D01*
X72578123Y-125492197D01*
X72635968Y-125285718D01*
X72634430Y-125277351D01*
X72622137Y-125274000D01*
X71572115Y-125274000D01*
X71556876Y-125278475D01*
X71555671Y-125279865D01*
X71554000Y-125287548D01*
X71044659Y-125287548D01*
X71041525Y-125276876D01*
X71040135Y-125275671D01*
X71032452Y-125274000D01*
X69983403Y-125274000D01*
X69970222Y-125277870D01*
X69968255Y-125292423D01*
X64967604Y-125292423D01*
X64907890Y-125193044D01*
X64846923Y-125128572D01*
X64814652Y-125065335D01*
X64821692Y-124994688D01*
X64865809Y-124939063D01*
X64938472Y-124916000D01*
X65397885Y-124916000D01*
X65413124Y-124911525D01*
X65414329Y-124910135D01*
X65416000Y-124902452D01*
X65416000Y-124527115D01*
X65411525Y-124511876D01*
X65410135Y-124510671D01*
X65402452Y-124509000D01*
X64739500Y-124509000D01*
X64671379Y-124488998D01*
X64624886Y-124435342D01*
X64613500Y-124383000D01*
X64613500Y-124040166D01*
X64633502Y-123972045D01*
X64687158Y-123925552D01*
X64757432Y-123915448D01*
X64822012Y-123944942D01*
X64853320Y-123993657D01*
X64859865Y-123999329D01*
X64867548Y-124001000D01*
X65397885Y-124001000D01*
X65413124Y-123996525D01*
X65414329Y-123995135D01*
X65416000Y-123987452D01*
X65416000Y-123655171D01*
X65924000Y-123655171D01*
X65924000Y-124897885D01*
X65928475Y-124913124D01*
X65929865Y-124914329D01*
X65937548Y-124916000D01*
X66659885Y-124916000D01*
X66675124Y-124911525D01*
X66676329Y-124910135D01*
X66678000Y-124902452D01*
X66678000Y-124572088D01*
X66677699Y-124565940D01*
X66664309Y-124429374D01*
X66661926Y-124417339D01*
X66608346Y-124239876D01*
X66603671Y-124228534D01*
X66516643Y-124064856D01*
X66509856Y-124054640D01*
X66392690Y-123910981D01*
X66384046Y-123902277D01*
X66241211Y-123784113D01*
X66231040Y-123777253D01*
X66067970Y-123689082D01*
X66056669Y-123684332D01*
X65941307Y-123648620D01*
X65927206Y-123648414D01*
X65924000Y-123655171D01*
X65416000Y-123655171D01*
X65416000Y-123654481D01*
X65413000Y-123633616D01*
X65413000Y-123532257D01*
X65412839Y-123527750D01*
X65408260Y-123463731D01*
X65405874Y-123450509D01*
X65369181Y-123325542D01*
X65361767Y-123309308D01*
X65292574Y-123201640D01*
X65280888Y-123188153D01*
X65184160Y-123104338D01*
X65169152Y-123094693D01*
X65052725Y-123041523D01*
X65035612Y-123036498D01*
X64904446Y-123017639D01*
X64895505Y-123017000D01*
X64872115Y-123017000D01*
X64856876Y-123021475D01*
X64855671Y-123022865D01*
X64854000Y-123030548D01*
X64854000Y-123417442D01*
X64833998Y-123485563D01*
X64780342Y-123532056D01*
X64710068Y-123542160D01*
X64645488Y-123512666D01*
X64607104Y-123452940D01*
X64569635Y-123325330D01*
X64569634Y-123325328D01*
X64567096Y-123316684D01*
X64528502Y-123256631D01*
X64508500Y-123188510D01*
X64508500Y-120961030D01*
X64528502Y-120892909D01*
X64582158Y-120846416D01*
X64652432Y-120836312D01*
X64678420Y-120842932D01*
X64803197Y-120889336D01*
X64810178Y-120890267D01*
X64810180Y-120890268D01*
X64859766Y-120896884D01*
X64982963Y-120913322D01*
X64989974Y-120912684D01*
X64989978Y-120912684D01*
X65130059Y-120899934D01*
X65163577Y-120896884D01*
X65170279Y-120894706D01*
X65170281Y-120894706D01*
X65329361Y-120843018D01*
X65329364Y-120843017D01*
X65336060Y-120840841D01*
X65491841Y-120747977D01*
X65623177Y-120622908D01*
X65723540Y-120471849D01*
X65771172Y-120346456D01*
X65799865Y-120302104D01*
X67956565Y-118145405D01*
X68018877Y-118111379D01*
X68045660Y-118108500D01*
X69810500Y-118108500D01*
X69878621Y-118128502D01*
X69925114Y-118182158D01*
X69936500Y-118234500D01*
X69936500Y-118250000D01*
X69941727Y-118323079D01*
X69943631Y-118329562D01*
X69975724Y-118438862D01*
X69982904Y-118463316D01*
X69987775Y-118470895D01*
X70057051Y-118578691D01*
X70057053Y-118578694D01*
X70061923Y-118586271D01*
X70068733Y-118592172D01*
X70165569Y-118676082D01*
X70165572Y-118676084D01*
X70172381Y-118681984D01*
X70305330Y-118742700D01*
X70311639Y-118743607D01*
X70370244Y-118781269D01*
X70399738Y-118845849D01*
X70389636Y-118916123D01*
X70357601Y-118958949D01*
X70349257Y-118966190D01*
X70322492Y-118989415D01*
X70319109Y-118993541D01*
X70319105Y-118993545D01*
X70246768Y-119081767D01*
X70176304Y-119167705D01*
X70173665Y-119172341D01*
X70173663Y-119172344D01*
X70084039Y-119329790D01*
X70062245Y-119368077D01*
X69983578Y-119584802D01*
X69982629Y-119590051D01*
X69982628Y-119590054D01*
X69960890Y-119710265D01*
X69942551Y-119811683D01*
X69942013Y-119867698D01*
X69941097Y-119963210D01*
X69940338Y-120042233D01*
X69977002Y-120269861D01*
X70051494Y-120488056D01*
X70054044Y-120492743D01*
X70054045Y-120492745D01*
X70081660Y-120543500D01*
X70161685Y-120690580D01*
X70304424Y-120871644D01*
X70350631Y-120913322D01*
X70471659Y-121022489D01*
X70471665Y-121022494D01*
X70475629Y-121026069D01*
X70480142Y-121028928D01*
X70480144Y-121028929D01*
X70598242Y-121103731D01*
X70645087Y-121157079D01*
X70655654Y-121227285D01*
X70626587Y-121292058D01*
X70596186Y-121317894D01*
X70501196Y-121375535D01*
X70501189Y-121375540D01*
X70496631Y-121378306D01*
X70492601Y-121381803D01*
X70329476Y-121523355D01*
X70322492Y-121529415D01*
X70319109Y-121533541D01*
X70319105Y-121533545D01*
X70221315Y-121652809D01*
X70176304Y-121707705D01*
X70173665Y-121712341D01*
X70173663Y-121712344D01*
X70122413Y-121802377D01*
X70062245Y-121908077D01*
X69983578Y-122124802D01*
X69982629Y-122130051D01*
X69982628Y-122130054D01*
X69979654Y-122146500D01*
X69942551Y-122351683D01*
X69942500Y-122357023D01*
X69941097Y-122503210D01*
X69940338Y-122582233D01*
X69977002Y-122809861D01*
X70051494Y-123028056D01*
X70161685Y-123230580D01*
X70304424Y-123411644D01*
X70308389Y-123415220D01*
X70471659Y-123562489D01*
X70471665Y-123562494D01*
X70475629Y-123566069D01*
X70480142Y-123568928D01*
X70480144Y-123568929D01*
X70598712Y-123644029D01*
X70645557Y-123697377D01*
X70656124Y-123767583D01*
X70627057Y-123832357D01*
X70596656Y-123858192D01*
X70501486Y-123915942D01*
X70492896Y-123922206D01*
X70326884Y-124066264D01*
X70319464Y-124073895D01*
X70180100Y-124243860D01*
X70174075Y-124252627D01*
X70065342Y-124443644D01*
X70060877Y-124453308D01*
X69985882Y-124659916D01*
X69983111Y-124670184D01*
X69969008Y-124748174D01*
X69970427Y-124761414D01*
X69985062Y-124766000D01*
X72619079Y-124766000D01*
X72632610Y-124762027D01*
X72633876Y-124753218D01*
X72586954Y-124572433D01*
X72583419Y-124562395D01*
X72493147Y-124361998D01*
X72487967Y-124352692D01*
X72365218Y-124170366D01*
X72358557Y-124162080D01*
X72206830Y-124003030D01*
X72198873Y-123995990D01*
X72022524Y-123864783D01*
X72009981Y-123857005D01*
X71962628Y-123804107D01*
X71951391Y-123734005D01*
X71979838Y-123668957D01*
X72003122Y-123647409D01*
X72183711Y-123518357D01*
X72346030Y-123354617D01*
X72433043Y-123230580D01*
X72475375Y-123170236D01*
X72475376Y-123170234D01*
X72478439Y-123165868D01*
X72577153Y-122957508D01*
X72639349Y-122735494D01*
X72643720Y-122693560D01*
X72646572Y-122666190D01*
X72663249Y-122506176D01*
X72663500Y-122480000D01*
X72644007Y-122250265D01*
X72622176Y-122166154D01*
X72624423Y-122095194D01*
X72664677Y-122036712D01*
X72730159Y-122009278D01*
X72744135Y-122008500D01*
X85853770Y-122008500D01*
X85870216Y-122009578D01*
X85891811Y-122012421D01*
X85891812Y-122012421D01*
X85900000Y-122013499D01*
X85908188Y-122012421D01*
X85908189Y-122012421D01*
X85937965Y-122008501D01*
X85937977Y-122008500D01*
X85937980Y-122008500D01*
X85937989Y-122008499D01*
X86050601Y-121993673D01*
X86050605Y-121993672D01*
X86058785Y-121992595D01*
X86066409Y-121989437D01*
X86066413Y-121989436D01*
X86199119Y-121934468D01*
X86199120Y-121934467D01*
X86206750Y-121931307D01*
X86333810Y-121833810D01*
X86352110Y-121809961D01*
X86362977Y-121797570D01*
X88615144Y-119545405D01*
X88677456Y-119511379D01*
X88704239Y-119508500D01*
X90610069Y-119508500D01*
X90678190Y-119528502D01*
X90724683Y-119582158D01*
X90734787Y-119652432D01*
X90705293Y-119717012D01*
X90680071Y-119739265D01*
X90491935Y-119864974D01*
X90264462Y-120064462D01*
X90064974Y-120291935D01*
X89896883Y-120543500D01*
X89895059Y-120547199D01*
X89895056Y-120547204D01*
X89857723Y-120622908D01*
X89763067Y-120814853D01*
X89761742Y-120818758D01*
X89761741Y-120818759D01*
X89670089Y-121088759D01*
X89665814Y-121101352D01*
X89665010Y-121105396D01*
X89665008Y-121105402D01*
X89622741Y-121317894D01*
X89606788Y-121398093D01*
X89606519Y-121402198D01*
X89606518Y-121402205D01*
X89592500Y-121616088D01*
X89587000Y-121700000D01*
X89587270Y-121704119D01*
X89606178Y-121992595D01*
X89606788Y-122001907D01*
X89607590Y-122005940D01*
X89607591Y-122005946D01*
X89639459Y-122166155D01*
X89665814Y-122298648D01*
X89667141Y-122302557D01*
X89667142Y-122302561D01*
X89728380Y-122482963D01*
X89763067Y-122585147D01*
X89764891Y-122588845D01*
X89880479Y-122823235D01*
X89896883Y-122856500D01*
X90064974Y-123108065D01*
X90264462Y-123335538D01*
X90491935Y-123535026D01*
X90743500Y-123703117D01*
X90747199Y-123704941D01*
X90747204Y-123704944D01*
X90844525Y-123752937D01*
X91014853Y-123836933D01*
X91018758Y-123838258D01*
X91018759Y-123838259D01*
X91297439Y-123932858D01*
X91297443Y-123932859D01*
X91301352Y-123934186D01*
X91305396Y-123934990D01*
X91305402Y-123934992D01*
X91594054Y-123992409D01*
X91594060Y-123992410D01*
X91598093Y-123993212D01*
X91602198Y-123993481D01*
X91602205Y-123993482D01*
X91895881Y-124012730D01*
X91900000Y-124013000D01*
X91904119Y-124012730D01*
X92197795Y-123993482D01*
X92197802Y-123993481D01*
X92201907Y-123993212D01*
X92205940Y-123992410D01*
X92205946Y-123992409D01*
X92494598Y-123934992D01*
X92494604Y-123934990D01*
X92498648Y-123934186D01*
X92502557Y-123932859D01*
X92502561Y-123932858D01*
X92781241Y-123838259D01*
X92781242Y-123838258D01*
X92785147Y-123836933D01*
X92955475Y-123752937D01*
X93052796Y-123704944D01*
X93052801Y-123704941D01*
X93056500Y-123703117D01*
X93308065Y-123535026D01*
X93535538Y-123335538D01*
X93735026Y-123108065D01*
X93903117Y-122856500D01*
X93919522Y-122823235D01*
X94035109Y-122588845D01*
X94036933Y-122585147D01*
X94071620Y-122482963D01*
X94132858Y-122302561D01*
X94132859Y-122302557D01*
X94134186Y-122298648D01*
X94160541Y-122166155D01*
X94192409Y-122005946D01*
X94192410Y-122005940D01*
X94193212Y-122001907D01*
X94193823Y-121992595D01*
X94212730Y-121704119D01*
X94213000Y-121700000D01*
X94207500Y-121616088D01*
X94193482Y-121402205D01*
X94193481Y-121402198D01*
X94193212Y-121398093D01*
X94177260Y-121317894D01*
X94134992Y-121105402D01*
X94134990Y-121105396D01*
X94134186Y-121101352D01*
X94129912Y-121088759D01*
X94038259Y-120818759D01*
X94038258Y-120818758D01*
X94036933Y-120814853D01*
X93942277Y-120622908D01*
X93904944Y-120547204D01*
X93904941Y-120547199D01*
X93903117Y-120543500D01*
X93735026Y-120291935D01*
X93535538Y-120064462D01*
X93308065Y-119864974D01*
X93119929Y-119739265D01*
X93074401Y-119684788D01*
X93065553Y-119614345D01*
X93096195Y-119550301D01*
X93156596Y-119512989D01*
X93189931Y-119508500D01*
X93953770Y-119508500D01*
X93970216Y-119509578D01*
X93991811Y-119512421D01*
X93991812Y-119512421D01*
X94000000Y-119513499D01*
X94008188Y-119512421D01*
X94008189Y-119512421D01*
X94037965Y-119508501D01*
X94037977Y-119508500D01*
X94037980Y-119508500D01*
X94037989Y-119508499D01*
X94150601Y-119493673D01*
X94150605Y-119493672D01*
X94158785Y-119492595D01*
X94166409Y-119489437D01*
X94166413Y-119489436D01*
X94299119Y-119434468D01*
X94299120Y-119434467D01*
X94306750Y-119431307D01*
X94433810Y-119333810D01*
X94452107Y-119309965D01*
X94462974Y-119297573D01*
X94771133Y-118989415D01*
X95381620Y-118378928D01*
X95697579Y-118062970D01*
X95709970Y-118052103D01*
X95727259Y-118038837D01*
X95727260Y-118038836D01*
X95733810Y-118033810D01*
X95738836Y-118027260D01*
X95738839Y-118027257D01*
X95786202Y-117965532D01*
X95831307Y-117906750D01*
X95872540Y-117807204D01*
X95892596Y-117758786D01*
X95913500Y-117600000D01*
X95909578Y-117570208D01*
X95908500Y-117553762D01*
X95908500Y-116846229D01*
X95909578Y-116829783D01*
X95912421Y-116808188D01*
X95912421Y-116808187D01*
X95913499Y-116799999D01*
X95908500Y-116762027D01*
X95908500Y-116762022D01*
X95900824Y-116703719D01*
X95911763Y-116633570D01*
X95936651Y-116598177D01*
X97355475Y-115179354D01*
X97417787Y-115145328D01*
X97462501Y-115143731D01*
X97595552Y-115162861D01*
X97595559Y-115162862D01*
X97600000Y-115163500D01*
X98600000Y-115163500D01*
X98673079Y-115158273D01*
X98773071Y-115128913D01*
X98804670Y-115119635D01*
X98804672Y-115119634D01*
X98813316Y-115117096D01*
X98859245Y-115087579D01*
X98927366Y-115067577D01*
X98995486Y-115087579D01*
X99041979Y-115141234D01*
X99053366Y-115193333D01*
X99071390Y-124511755D01*
X99051520Y-124579915D01*
X99047326Y-124586060D01*
X98925879Y-124753218D01*
X98920202Y-124761032D01*
X98919394Y-124762563D01*
X98918850Y-124763452D01*
X98916000Y-124767396D01*
X98913791Y-124771732D01*
X98913790Y-124771733D01*
X98893711Y-124811139D01*
X98892886Y-124812731D01*
X98868067Y-124859705D01*
X98867551Y-124862231D01*
X98866840Y-124863878D01*
X98779619Y-125035059D01*
X98757965Y-125077558D01*
X98757402Y-125079208D01*
X98757011Y-125080156D01*
X98754811Y-125084501D01*
X98753305Y-125089136D01*
X98739656Y-125131144D01*
X98739071Y-125132901D01*
X98721908Y-125183172D01*
X98721793Y-125185748D01*
X98721347Y-125187492D01*
X98651001Y-125403998D01*
X98647242Y-125415567D01*
X98646946Y-125417271D01*
X98646705Y-125418282D01*
X98645213Y-125422914D01*
X98642172Y-125442115D01*
X98637533Y-125471405D01*
X98637227Y-125473249D01*
X98628151Y-125525521D01*
X98628441Y-125528082D01*
X98628274Y-125529865D01*
X98595176Y-125738833D01*
X98594790Y-125741128D01*
X98590823Y-125763493D01*
X98590720Y-125768353D01*
X98590720Y-125768357D01*
X98590446Y-125781339D01*
X98586378Y-125974080D01*
X98586920Y-125978532D01*
X98591077Y-126012680D01*
X98592000Y-126027906D01*
X98592000Y-131566000D01*
X98571998Y-131634121D01*
X98518342Y-131680614D01*
X98466000Y-131692000D01*
X35034000Y-131692000D01*
X34965879Y-131671998D01*
X34919386Y-131618342D01*
X34908000Y-131566000D01*
X34908000Y-129617548D01*
X56022000Y-129617548D01*
X56022000Y-129697912D01*
X56022301Y-129704060D01*
X56035691Y-129840628D01*
X56038073Y-129852657D01*
X56091656Y-130030129D01*
X56096329Y-130041464D01*
X56183358Y-130205144D01*
X56190145Y-130215360D01*
X56307311Y-130359019D01*
X56315955Y-130367723D01*
X56458789Y-130485886D01*
X56468960Y-130492746D01*
X56632032Y-130580918D01*
X56643331Y-130585668D01*
X56758693Y-130621380D01*
X56772794Y-130621586D01*
X56776000Y-130614829D01*
X56776000Y-129622115D01*
X56774659Y-129617548D01*
X57284000Y-129617548D01*
X57284000Y-130608052D01*
X57287973Y-130621583D01*
X57295768Y-130622703D01*
X57403557Y-130590979D01*
X57414941Y-130586380D01*
X57579222Y-130500496D01*
X57589483Y-130493782D01*
X57733959Y-130377620D01*
X57742719Y-130369042D01*
X57861881Y-130227030D01*
X57868807Y-130216916D01*
X57958118Y-130054458D01*
X57962946Y-130043194D01*
X58019002Y-129866483D01*
X58021550Y-129854496D01*
X58037607Y-129711338D01*
X58038000Y-129704314D01*
X58038000Y-129622115D01*
X58036659Y-129617548D01*
X64662000Y-129617548D01*
X64662000Y-129697912D01*
X64662301Y-129704060D01*
X64675691Y-129840628D01*
X64678073Y-129852657D01*
X64731656Y-130030129D01*
X64736329Y-130041464D01*
X64823358Y-130205144D01*
X64830145Y-130215360D01*
X64947311Y-130359019D01*
X64955955Y-130367723D01*
X65098789Y-130485886D01*
X65108960Y-130492746D01*
X65272032Y-130580918D01*
X65283331Y-130585668D01*
X65398693Y-130621380D01*
X65412794Y-130621586D01*
X65416000Y-130614829D01*
X65416000Y-129622115D01*
X65414659Y-129617548D01*
X65924000Y-129617548D01*
X65924000Y-130608052D01*
X65927973Y-130621583D01*
X65935768Y-130622703D01*
X66043557Y-130590979D01*
X66054941Y-130586380D01*
X66219222Y-130500496D01*
X66229483Y-130493782D01*
X66373959Y-130377620D01*
X66382719Y-130369042D01*
X66501881Y-130227030D01*
X66508807Y-130216916D01*
X66598118Y-130054458D01*
X66602946Y-130043194D01*
X66659002Y-129866483D01*
X66661550Y-129854496D01*
X66677607Y-129711338D01*
X66678000Y-129704314D01*
X66678000Y-129622115D01*
X66673525Y-129606876D01*
X66672135Y-129605671D01*
X66664452Y-129604000D01*
X65942115Y-129604000D01*
X65926876Y-129608475D01*
X65925671Y-129609865D01*
X65924000Y-129617548D01*
X65414659Y-129617548D01*
X65411525Y-129606876D01*
X65410135Y-129605671D01*
X65402452Y-129604000D01*
X64680115Y-129604000D01*
X64664876Y-129608475D01*
X64663671Y-129609865D01*
X64662000Y-129617548D01*
X58036659Y-129617548D01*
X58033525Y-129606876D01*
X58032135Y-129605671D01*
X58024452Y-129604000D01*
X57302115Y-129604000D01*
X57286876Y-129608475D01*
X57285671Y-129609865D01*
X57284000Y-129617548D01*
X56774659Y-129617548D01*
X56771525Y-129606876D01*
X56770135Y-129605671D01*
X56762452Y-129604000D01*
X56040115Y-129604000D01*
X56024876Y-129608475D01*
X56023671Y-129609865D01*
X56022000Y-129617548D01*
X34908000Y-129617548D01*
X34908000Y-128995686D01*
X56022000Y-128995686D01*
X56022000Y-129077885D01*
X56026475Y-129093124D01*
X56027865Y-129094329D01*
X56035548Y-129096000D01*
X56757885Y-129096000D01*
X56773124Y-129091525D01*
X56774329Y-129090135D01*
X56776000Y-129082452D01*
X56776000Y-128091948D01*
X56774011Y-128085171D01*
X57284000Y-128085171D01*
X57284000Y-129077885D01*
X57288475Y-129093124D01*
X57289865Y-129094329D01*
X57297548Y-129096000D01*
X58019885Y-129096000D01*
X58035124Y-129091525D01*
X58036329Y-129090135D01*
X58038000Y-129082452D01*
X58038000Y-129002088D01*
X58037699Y-128995940D01*
X58037675Y-128995686D01*
X64662000Y-128995686D01*
X64662000Y-129077885D01*
X64666475Y-129093124D01*
X64667865Y-129094329D01*
X64675548Y-129096000D01*
X65397885Y-129096000D01*
X65413124Y-129091525D01*
X65414329Y-129090135D01*
X65416000Y-129082452D01*
X65416000Y-128091948D01*
X65414011Y-128085171D01*
X65924000Y-128085171D01*
X65924000Y-129077885D01*
X65928475Y-129093124D01*
X65929865Y-129094329D01*
X65937548Y-129096000D01*
X66659885Y-129096000D01*
X66675124Y-129091525D01*
X66676329Y-129090135D01*
X66678000Y-129082452D01*
X66678000Y-129002088D01*
X66677699Y-128995940D01*
X66664309Y-128859374D01*
X66661926Y-128847339D01*
X66608346Y-128669876D01*
X66603671Y-128658534D01*
X66516643Y-128494856D01*
X66509856Y-128484640D01*
X66392690Y-128340981D01*
X66384046Y-128332277D01*
X66241211Y-128214113D01*
X66231040Y-128207253D01*
X66067970Y-128119082D01*
X66056669Y-128114332D01*
X65941307Y-128078620D01*
X65927206Y-128078414D01*
X65924000Y-128085171D01*
X65414011Y-128085171D01*
X65412027Y-128078417D01*
X65404232Y-128077297D01*
X65296443Y-128109021D01*
X65285059Y-128113620D01*
X65120778Y-128199504D01*
X65110517Y-128206218D01*
X64966041Y-128322380D01*
X64957281Y-128330958D01*
X64838123Y-128472965D01*
X64831189Y-128483092D01*
X64741887Y-128645533D01*
X64737051Y-128656816D01*
X64680998Y-128833517D01*
X64678450Y-128845504D01*
X64662393Y-128988662D01*
X64662000Y-128995686D01*
X58037675Y-128995686D01*
X58024309Y-128859374D01*
X58021926Y-128847339D01*
X57968346Y-128669876D01*
X57963671Y-128658534D01*
X57876643Y-128494856D01*
X57869856Y-128484640D01*
X57752690Y-128340981D01*
X57744046Y-128332277D01*
X57601211Y-128214113D01*
X57591040Y-128207253D01*
X57427970Y-128119082D01*
X57416669Y-128114332D01*
X57301307Y-128078620D01*
X57287206Y-128078414D01*
X57284000Y-128085171D01*
X56774011Y-128085171D01*
X56772027Y-128078417D01*
X56764232Y-128077297D01*
X56656443Y-128109021D01*
X56645059Y-128113620D01*
X56480778Y-128199504D01*
X56470517Y-128206218D01*
X56326041Y-128322380D01*
X56317281Y-128330958D01*
X56198123Y-128472965D01*
X56191189Y-128483092D01*
X56101887Y-128645533D01*
X56097051Y-128656816D01*
X56040998Y-128833517D01*
X56038450Y-128845504D01*
X56022393Y-128988662D01*
X56022000Y-128995686D01*
X34908000Y-128995686D01*
X34908000Y-126028193D01*
X34909119Y-126011441D01*
X34913044Y-125982182D01*
X34913044Y-125982180D01*
X34913691Y-125977358D01*
X34909844Y-125795049D01*
X34909816Y-125792723D01*
X34909769Y-125774825D01*
X34909769Y-125774822D01*
X34909756Y-125769968D01*
X34871039Y-125525521D01*
X34857106Y-125437548D01*
X56022001Y-125437548D01*
X56022001Y-125767912D01*
X56022302Y-125774060D01*
X56035692Y-125910626D01*
X56038075Y-125922661D01*
X56091655Y-126100124D01*
X56096330Y-126111466D01*
X56183358Y-126275144D01*
X56190145Y-126285360D01*
X56307311Y-126429019D01*
X56315955Y-126437723D01*
X56458789Y-126555886D01*
X56468960Y-126562746D01*
X56632032Y-126650918D01*
X56643331Y-126655668D01*
X56758693Y-126691380D01*
X56772794Y-126691586D01*
X56776000Y-126684829D01*
X56776000Y-125442115D01*
X56771525Y-125426876D01*
X56770135Y-125425671D01*
X56762452Y-125424000D01*
X56040116Y-125424000D01*
X56024877Y-125428475D01*
X56023672Y-125429865D01*
X56022001Y-125437548D01*
X34857106Y-125437548D01*
X34856003Y-125430589D01*
X34856002Y-125430586D01*
X34855300Y-125426152D01*
X34854790Y-125424500D01*
X34854543Y-125423478D01*
X34853771Y-125418683D01*
X34838611Y-125372025D01*
X34838052Y-125370259D01*
X34830093Y-125344471D01*
X34822392Y-125319515D01*
X34820970Y-125317363D01*
X34820308Y-125315696D01*
X34746202Y-125087618D01*
X34745444Y-125086073D01*
X34745036Y-125085093D01*
X34743523Y-125080478D01*
X34721221Y-125036707D01*
X34720397Y-125035059D01*
X34699981Y-124993477D01*
X34697018Y-124987442D01*
X34695276Y-124985538D01*
X34694363Y-124983997D01*
X34587521Y-124774306D01*
X34587518Y-124774301D01*
X34585488Y-124770317D01*
X34584488Y-124768897D01*
X34583947Y-124768016D01*
X34581725Y-124763684D01*
X34552807Y-124723883D01*
X34551862Y-124722562D01*
X34521238Y-124679068D01*
X34519220Y-124677460D01*
X34518075Y-124676078D01*
X34437871Y-124565686D01*
X56022000Y-124565686D01*
X56022000Y-124897885D01*
X56026475Y-124913124D01*
X56027865Y-124914329D01*
X56035548Y-124916000D01*
X56757885Y-124916000D01*
X56773124Y-124911525D01*
X56774329Y-124910135D01*
X56776000Y-124902452D01*
X56776000Y-123661948D01*
X56772027Y-123648417D01*
X56764232Y-123647297D01*
X56656443Y-123679021D01*
X56645059Y-123683620D01*
X56480778Y-123769504D01*
X56470517Y-123776218D01*
X56326041Y-123892380D01*
X56317281Y-123900958D01*
X56198123Y-124042965D01*
X56191189Y-124053092D01*
X56101887Y-124215533D01*
X56097051Y-124226816D01*
X56040998Y-124403517D01*
X56038450Y-124415504D01*
X56022393Y-124558662D01*
X56022000Y-124565686D01*
X34437871Y-124565686D01*
X34379751Y-124485692D01*
X34379748Y-124485689D01*
X34377114Y-124482063D01*
X34375895Y-124480808D01*
X34375238Y-124480040D01*
X34372361Y-124476102D01*
X34337683Y-124441424D01*
X34336371Y-124440093D01*
X34304062Y-124406811D01*
X34299381Y-124401989D01*
X34297139Y-124400718D01*
X34295788Y-124399529D01*
X34126216Y-124229957D01*
X34124830Y-124228918D01*
X34124042Y-124228247D01*
X34120589Y-124224812D01*
X34116656Y-124221955D01*
X34116653Y-124221952D01*
X34080830Y-124195926D01*
X34079324Y-124194814D01*
X34036913Y-124163028D01*
X34034501Y-124162124D01*
X34032989Y-124161166D01*
X33842605Y-124022844D01*
X33842601Y-124022841D01*
X33838968Y-124020202D01*
X33837437Y-124019394D01*
X33836548Y-124018850D01*
X33832604Y-124016000D01*
X33828267Y-124013790D01*
X33788861Y-123993711D01*
X33787269Y-123992886D01*
X33740295Y-123968067D01*
X33737769Y-123967551D01*
X33736122Y-123966840D01*
X33526438Y-123860001D01*
X33526437Y-123860001D01*
X33522442Y-123857965D01*
X33520792Y-123857402D01*
X33519844Y-123857011D01*
X33515499Y-123854811D01*
X33468838Y-123839650D01*
X33467082Y-123839065D01*
X33464722Y-123838259D01*
X33440229Y-123829897D01*
X33423191Y-123824080D01*
X33423187Y-123824079D01*
X33416828Y-123821908D01*
X33414252Y-123821793D01*
X33412508Y-123821347D01*
X33188709Y-123748631D01*
X33188705Y-123748630D01*
X33184433Y-123747242D01*
X33182729Y-123746946D01*
X33181718Y-123746705D01*
X33177086Y-123745213D01*
X33128579Y-123737530D01*
X33126751Y-123737227D01*
X33123088Y-123736591D01*
X33074479Y-123728151D01*
X33071918Y-123728441D01*
X33070136Y-123728274D01*
X32861165Y-123695176D01*
X32858870Y-123694790D01*
X32836507Y-123690823D01*
X32831647Y-123690720D01*
X32831643Y-123690720D01*
X32727693Y-123688526D01*
X32625920Y-123686378D01*
X32587320Y-123691077D01*
X32572094Y-123692000D01*
X27034000Y-123692000D01*
X26965879Y-123671998D01*
X26919386Y-123618342D01*
X26908000Y-123566000D01*
X26908000Y-121700000D01*
X39287000Y-121700000D01*
X39287270Y-121704119D01*
X39306178Y-121992595D01*
X39306788Y-122001907D01*
X39307590Y-122005940D01*
X39307591Y-122005946D01*
X39339459Y-122166155D01*
X39365814Y-122298648D01*
X39367141Y-122302557D01*
X39367142Y-122302561D01*
X39428380Y-122482963D01*
X39463067Y-122585147D01*
X39464891Y-122588845D01*
X39580479Y-122823235D01*
X39596883Y-122856500D01*
X39764974Y-123108065D01*
X39964462Y-123335538D01*
X40191935Y-123535026D01*
X40443500Y-123703117D01*
X40447199Y-123704941D01*
X40447204Y-123704944D01*
X40544525Y-123752937D01*
X40714853Y-123836933D01*
X40718758Y-123838258D01*
X40718759Y-123838259D01*
X40997439Y-123932858D01*
X40997443Y-123932859D01*
X41001352Y-123934186D01*
X41005396Y-123934990D01*
X41005402Y-123934992D01*
X41294054Y-123992409D01*
X41294060Y-123992410D01*
X41298093Y-123993212D01*
X41302198Y-123993481D01*
X41302205Y-123993482D01*
X41595881Y-124012730D01*
X41600000Y-124013000D01*
X41604119Y-124012730D01*
X41897795Y-123993482D01*
X41897802Y-123993481D01*
X41901907Y-123993212D01*
X41905940Y-123992410D01*
X41905946Y-123992409D01*
X42194598Y-123934992D01*
X42194604Y-123934990D01*
X42198648Y-123934186D01*
X42202557Y-123932859D01*
X42202561Y-123932858D01*
X42481241Y-123838259D01*
X42481242Y-123838258D01*
X42485147Y-123836933D01*
X42655475Y-123752937D01*
X42752796Y-123704944D01*
X42752801Y-123704941D01*
X42756500Y-123703117D01*
X43008065Y-123535026D01*
X43235538Y-123335538D01*
X43435026Y-123108065D01*
X43603117Y-122856500D01*
X43619522Y-122823235D01*
X43735109Y-122588845D01*
X43736933Y-122585147D01*
X43771620Y-122482963D01*
X43832858Y-122302561D01*
X43832859Y-122302557D01*
X43834186Y-122298648D01*
X43860541Y-122166155D01*
X43892409Y-122005946D01*
X43892410Y-122005940D01*
X43893212Y-122001907D01*
X43893823Y-121992595D01*
X43912730Y-121704119D01*
X43913000Y-121700000D01*
X43907500Y-121616088D01*
X43893482Y-121402205D01*
X43893481Y-121402198D01*
X43893212Y-121398093D01*
X43877260Y-121317894D01*
X43834992Y-121105402D01*
X43834990Y-121105396D01*
X43834186Y-121101352D01*
X43829912Y-121088759D01*
X43738259Y-120818759D01*
X43738258Y-120818758D01*
X43736933Y-120814853D01*
X43642277Y-120622908D01*
X43604944Y-120547204D01*
X43604941Y-120547199D01*
X43603117Y-120543500D01*
X43435026Y-120291935D01*
X43235538Y-120064462D01*
X43008065Y-119864974D01*
X42756500Y-119696883D01*
X42752801Y-119695059D01*
X42752796Y-119695056D01*
X42529221Y-119584802D01*
X42485147Y-119563067D01*
X42481241Y-119561741D01*
X42202561Y-119467142D01*
X42202557Y-119467141D01*
X42198648Y-119465814D01*
X42194604Y-119465010D01*
X42194598Y-119465008D01*
X41905946Y-119407591D01*
X41905940Y-119407590D01*
X41901907Y-119406788D01*
X41897802Y-119406519D01*
X41897795Y-119406518D01*
X41604119Y-119387270D01*
X41600000Y-119387000D01*
X41595881Y-119387270D01*
X41302205Y-119406518D01*
X41302198Y-119406519D01*
X41298093Y-119406788D01*
X41294060Y-119407590D01*
X41294054Y-119407591D01*
X41005402Y-119465008D01*
X41005396Y-119465010D01*
X41001352Y-119465814D01*
X40997443Y-119467141D01*
X40997439Y-119467142D01*
X40718759Y-119561741D01*
X40714853Y-119563067D01*
X40670779Y-119584802D01*
X40447204Y-119695056D01*
X40447199Y-119695059D01*
X40443500Y-119696883D01*
X40191935Y-119864974D01*
X39964462Y-120064462D01*
X39764974Y-120291935D01*
X39596883Y-120543500D01*
X39595059Y-120547199D01*
X39595056Y-120547204D01*
X39557723Y-120622908D01*
X39463067Y-120814853D01*
X39461742Y-120818758D01*
X39461741Y-120818759D01*
X39370089Y-121088759D01*
X39365814Y-121101352D01*
X39365010Y-121105396D01*
X39365008Y-121105402D01*
X39322741Y-121317894D01*
X39306788Y-121398093D01*
X39306519Y-121402198D01*
X39306518Y-121402205D01*
X39292500Y-121616088D01*
X39287000Y-121700000D01*
X26908000Y-121700000D01*
X26908000Y-110827606D01*
X32671617Y-110827606D01*
X32688363Y-111118025D01*
X32689188Y-111122230D01*
X32689189Y-111122238D01*
X32721244Y-111285620D01*
X32744368Y-111403485D01*
X32745755Y-111407535D01*
X32745756Y-111407540D01*
X32837207Y-111674646D01*
X32838596Y-111678702D01*
X32856485Y-111714270D01*
X32961822Y-111923710D01*
X32969303Y-111938585D01*
X32971729Y-111942114D01*
X32971732Y-111942120D01*
X33059931Y-112070450D01*
X33134072Y-112178325D01*
X33329852Y-112393484D01*
X33333141Y-112396234D01*
X33549729Y-112577331D01*
X33549734Y-112577335D01*
X33553021Y-112580083D01*
X33610385Y-112616067D01*
X33795810Y-112732384D01*
X33795814Y-112732386D01*
X33799450Y-112734667D01*
X33886044Y-112773766D01*
X34060667Y-112852612D01*
X34060671Y-112852614D01*
X34064579Y-112854378D01*
X34068699Y-112855598D01*
X34068698Y-112855598D01*
X34339388Y-112935780D01*
X34339392Y-112935781D01*
X34343501Y-112936998D01*
X34347735Y-112937646D01*
X34347740Y-112937647D01*
X34600840Y-112976376D01*
X34631055Y-112981000D01*
X34779177Y-112983327D01*
X34917629Y-112985502D01*
X34917635Y-112985502D01*
X34921920Y-112985569D01*
X35210715Y-112950621D01*
X35492094Y-112876803D01*
X35496054Y-112875163D01*
X35496059Y-112875161D01*
X35681081Y-112798522D01*
X35760852Y-112765480D01*
X36012015Y-112618712D01*
X36240936Y-112439215D01*
X36282588Y-112396234D01*
X36393125Y-112282168D01*
X36443378Y-112230311D01*
X36445911Y-112226863D01*
X36445915Y-112226858D01*
X36613057Y-111999321D01*
X36615595Y-111995866D01*
X36640829Y-111949391D01*
X36752351Y-111743992D01*
X36752352Y-111743990D01*
X36754401Y-111740216D01*
X36857228Y-111468094D01*
X36922172Y-111184535D01*
X36948031Y-110894785D01*
X36948500Y-110850000D01*
X36948137Y-110844670D01*
X36929006Y-110564049D01*
X36929005Y-110564043D01*
X36928714Y-110559772D01*
X36912808Y-110482962D01*
X36882519Y-110336705D01*
X36869723Y-110274915D01*
X36772618Y-110000699D01*
X36639196Y-109742199D01*
X36471927Y-109504198D01*
X36469002Y-109501050D01*
X36276825Y-109294244D01*
X36276822Y-109294242D01*
X36273904Y-109291101D01*
X36270588Y-109288387D01*
X36270585Y-109288384D01*
X36072188Y-109125998D01*
X36048793Y-109106849D01*
X35800759Y-108954854D01*
X35796823Y-108953126D01*
X35538319Y-108839650D01*
X35538315Y-108839649D01*
X35534391Y-108837926D01*
X35254619Y-108758231D01*
X35000312Y-108722038D01*
X34970872Y-108717848D01*
X34970870Y-108717848D01*
X34966620Y-108717243D01*
X34813229Y-108716440D01*
X34680008Y-108715742D01*
X34680002Y-108715742D01*
X34675722Y-108715720D01*
X34671478Y-108716279D01*
X34671474Y-108716279D01*
X34588393Y-108727217D01*
X34387310Y-108753690D01*
X34383170Y-108754823D01*
X34383168Y-108754823D01*
X34346914Y-108764741D01*
X34106719Y-108830451D01*
X34102771Y-108832135D01*
X33843093Y-108942897D01*
X33843089Y-108942899D01*
X33839141Y-108944583D01*
X33735957Y-109006337D01*
X33593211Y-109091768D01*
X33593207Y-109091771D01*
X33589529Y-109093972D01*
X33586186Y-109096650D01*
X33586182Y-109096653D01*
X33511393Y-109156571D01*
X33362501Y-109275856D01*
X33162257Y-109486869D01*
X32992504Y-109723105D01*
X32964283Y-109776405D01*
X32875743Y-109943630D01*
X32856383Y-109980194D01*
X32854911Y-109984217D01*
X32854909Y-109984221D01*
X32766910Y-110224690D01*
X32756412Y-110253378D01*
X32694441Y-110537601D01*
X32692267Y-110565220D01*
X32672845Y-110812009D01*
X32671617Y-110827606D01*
X26908000Y-110827606D01*
X26908000Y-100667606D01*
X32671617Y-100667606D01*
X32688363Y-100958025D01*
X32689188Y-100962230D01*
X32689189Y-100962238D01*
X32714550Y-101091500D01*
X32744368Y-101243485D01*
X32745755Y-101247535D01*
X32745756Y-101247540D01*
X32837207Y-101514646D01*
X32838596Y-101518702D01*
X32840523Y-101522533D01*
X32963437Y-101766921D01*
X32969303Y-101778585D01*
X32971729Y-101782114D01*
X32971732Y-101782120D01*
X33073619Y-101930365D01*
X33134072Y-102018325D01*
X33136959Y-102021498D01*
X33136960Y-102021499D01*
X33161556Y-102048530D01*
X33329852Y-102233484D01*
X33333141Y-102236234D01*
X33549729Y-102417331D01*
X33549734Y-102417335D01*
X33553021Y-102420083D01*
X33576004Y-102434500D01*
X33795810Y-102572384D01*
X33795814Y-102572386D01*
X33799450Y-102574667D01*
X33894538Y-102617601D01*
X34060667Y-102692612D01*
X34060671Y-102692614D01*
X34064579Y-102694378D01*
X34088299Y-102701404D01*
X34339388Y-102775780D01*
X34339392Y-102775781D01*
X34343501Y-102776998D01*
X34347735Y-102777646D01*
X34347740Y-102777647D01*
X34600840Y-102816376D01*
X34631055Y-102821000D01*
X34779177Y-102823327D01*
X34917629Y-102825502D01*
X34917635Y-102825502D01*
X34921920Y-102825569D01*
X35210715Y-102790621D01*
X35492094Y-102716803D01*
X35496054Y-102715163D01*
X35496059Y-102715161D01*
X35696595Y-102632096D01*
X35760852Y-102605480D01*
X36012015Y-102458712D01*
X36240936Y-102279215D01*
X36279049Y-102239886D01*
X36440395Y-102073389D01*
X36443378Y-102070311D01*
X36445911Y-102066863D01*
X36445915Y-102066858D01*
X36613057Y-101839321D01*
X36615595Y-101835866D01*
X36625433Y-101817746D01*
X36752351Y-101583992D01*
X36752352Y-101583990D01*
X36754401Y-101580216D01*
X36857228Y-101308094D01*
X36922172Y-101024535D01*
X36941312Y-100810073D01*
X36947811Y-100737252D01*
X36947811Y-100737248D01*
X36948031Y-100734785D01*
X36948192Y-100719459D01*
X36948474Y-100692485D01*
X36948474Y-100692484D01*
X36948500Y-100690000D01*
X36939865Y-100563339D01*
X36929006Y-100404049D01*
X36929005Y-100404043D01*
X36928714Y-100399772D01*
X36925601Y-100384737D01*
X36878205Y-100155873D01*
X36869723Y-100114915D01*
X36772618Y-99840699D01*
X36639196Y-99582199D01*
X36471927Y-99344198D01*
X36464774Y-99336500D01*
X36276825Y-99134244D01*
X36276822Y-99134242D01*
X36273904Y-99131101D01*
X36270588Y-99128387D01*
X36270585Y-99128384D01*
X36087421Y-98978466D01*
X36048793Y-98946849D01*
X35800759Y-98794854D01*
X35782389Y-98786790D01*
X35538319Y-98679650D01*
X35538315Y-98679649D01*
X35534391Y-98677926D01*
X35254619Y-98598231D01*
X35040790Y-98567799D01*
X34970872Y-98557848D01*
X34970870Y-98557848D01*
X34966620Y-98557243D01*
X34813229Y-98556440D01*
X34680008Y-98555742D01*
X34680002Y-98555742D01*
X34675722Y-98555720D01*
X34671478Y-98556279D01*
X34671474Y-98556279D01*
X34548014Y-98572533D01*
X34387310Y-98593690D01*
X34383170Y-98594823D01*
X34383168Y-98594823D01*
X34333174Y-98608500D01*
X34106719Y-98670451D01*
X34102771Y-98672135D01*
X33843093Y-98782897D01*
X33843089Y-98782899D01*
X33839141Y-98784583D01*
X33764578Y-98829208D01*
X33593211Y-98931768D01*
X33593207Y-98931771D01*
X33589529Y-98933972D01*
X33586186Y-98936650D01*
X33586182Y-98936653D01*
X33512666Y-98995551D01*
X33362501Y-99115856D01*
X33162257Y-99326869D01*
X32992504Y-99563105D01*
X32930041Y-99681077D01*
X32861406Y-99810708D01*
X32856383Y-99820194D01*
X32854911Y-99824217D01*
X32854909Y-99824221D01*
X32760027Y-100083500D01*
X32756412Y-100093378D01*
X32694441Y-100377601D01*
X32671617Y-100667606D01*
X26908000Y-100667606D01*
X26908000Y-91200000D01*
X39287000Y-91200000D01*
X39287270Y-91204119D01*
X39305582Y-91483502D01*
X39306788Y-91501907D01*
X39307590Y-91505940D01*
X39307591Y-91505946D01*
X39365008Y-91794598D01*
X39365814Y-91798648D01*
X39367141Y-91802557D01*
X39367142Y-91802561D01*
X39445602Y-92033696D01*
X39463067Y-92085147D01*
X39464891Y-92088845D01*
X39580479Y-92323235D01*
X39596883Y-92356500D01*
X39764974Y-92608065D01*
X39964462Y-92835538D01*
X40191935Y-93035026D01*
X40443500Y-93203117D01*
X40447199Y-93204941D01*
X40447204Y-93204944D01*
X40568559Y-93264789D01*
X40714853Y-93336933D01*
X40718758Y-93338258D01*
X40718759Y-93338259D01*
X40997439Y-93432858D01*
X40997443Y-93432859D01*
X41001352Y-93434186D01*
X41005396Y-93434990D01*
X41005402Y-93434992D01*
X41294054Y-93492409D01*
X41294060Y-93492410D01*
X41298093Y-93493212D01*
X41302198Y-93493481D01*
X41302205Y-93493482D01*
X41595881Y-93512730D01*
X41600000Y-93513000D01*
X41604119Y-93512730D01*
X41897795Y-93493482D01*
X41897802Y-93493481D01*
X41901907Y-93493212D01*
X41905940Y-93492410D01*
X41905946Y-93492409D01*
X42194598Y-93434992D01*
X42194604Y-93434990D01*
X42198648Y-93434186D01*
X42202557Y-93432859D01*
X42202561Y-93432858D01*
X42481241Y-93338259D01*
X42481242Y-93338258D01*
X42485147Y-93336933D01*
X42631441Y-93264789D01*
X42752796Y-93204944D01*
X42752801Y-93204941D01*
X42756500Y-93203117D01*
X43008065Y-93035026D01*
X43235538Y-92835538D01*
X43435026Y-92608065D01*
X43603117Y-92356500D01*
X43619522Y-92323235D01*
X43735109Y-92088845D01*
X43736933Y-92085147D01*
X43754398Y-92033696D01*
X43832858Y-91802561D01*
X43832859Y-91802557D01*
X43834186Y-91798648D01*
X43834992Y-91794598D01*
X43892409Y-91505946D01*
X43892410Y-91505940D01*
X43893212Y-91501907D01*
X43894419Y-91483502D01*
X43912730Y-91204119D01*
X43913000Y-91200000D01*
X43910029Y-91154670D01*
X43893482Y-90902205D01*
X43893481Y-90902198D01*
X43893212Y-90898093D01*
X43865028Y-90756400D01*
X43834992Y-90605402D01*
X43834990Y-90605396D01*
X43834186Y-90601352D01*
X43736933Y-90314853D01*
X43628890Y-90095763D01*
X43604944Y-90047204D01*
X43604941Y-90047199D01*
X43603117Y-90043500D01*
X43435026Y-89791935D01*
X43235538Y-89564462D01*
X43008065Y-89364974D01*
X42756500Y-89196883D01*
X42752801Y-89195059D01*
X42752796Y-89195056D01*
X42605447Y-89122392D01*
X42485147Y-89063067D01*
X42442764Y-89048680D01*
X42202561Y-88967142D01*
X42202557Y-88967141D01*
X42198648Y-88965814D01*
X42194604Y-88965010D01*
X42194598Y-88965008D01*
X41905946Y-88907591D01*
X41905940Y-88907590D01*
X41901907Y-88906788D01*
X41897802Y-88906519D01*
X41897795Y-88906518D01*
X41604119Y-88887270D01*
X41600000Y-88887000D01*
X41595881Y-88887270D01*
X41302205Y-88906518D01*
X41302198Y-88906519D01*
X41298093Y-88906788D01*
X41294060Y-88907590D01*
X41294054Y-88907591D01*
X41005402Y-88965008D01*
X41005396Y-88965010D01*
X41001352Y-88965814D01*
X40997443Y-88967141D01*
X40997439Y-88967142D01*
X40757236Y-89048680D01*
X40714853Y-89063067D01*
X40594553Y-89122392D01*
X40447204Y-89195056D01*
X40447199Y-89195059D01*
X40443500Y-89196883D01*
X40191935Y-89364974D01*
X39964462Y-89564462D01*
X39764974Y-89791935D01*
X39596883Y-90043500D01*
X39595059Y-90047199D01*
X39595056Y-90047204D01*
X39571110Y-90095763D01*
X39463067Y-90314853D01*
X39365814Y-90601352D01*
X39365010Y-90605396D01*
X39365008Y-90605402D01*
X39334973Y-90756400D01*
X39306788Y-90898093D01*
X39306519Y-90902198D01*
X39306518Y-90902205D01*
X39289971Y-91154670D01*
X39287000Y-91200000D01*
X26908000Y-91200000D01*
X26908000Y-89334000D01*
X26928002Y-89265879D01*
X26981658Y-89219386D01*
X27034000Y-89208000D01*
X32571808Y-89208000D01*
X32588560Y-89209119D01*
X32617819Y-89213044D01*
X32617821Y-89213044D01*
X32622643Y-89213691D01*
X32798595Y-89209978D01*
X32804953Y-89209844D01*
X32807279Y-89209816D01*
X32825174Y-89209769D01*
X32825177Y-89209769D01*
X32830031Y-89209756D01*
X32922842Y-89195056D01*
X33169417Y-89156002D01*
X33169420Y-89156001D01*
X33173848Y-89155300D01*
X33175518Y-89154785D01*
X33176509Y-89154545D01*
X33181316Y-89153771D01*
X33228069Y-89138580D01*
X33229626Y-89138087D01*
X33280485Y-89122392D01*
X33282636Y-89120971D01*
X33284307Y-89120308D01*
X33508117Y-89047588D01*
X33508123Y-89047585D01*
X33512381Y-89046202D01*
X33513928Y-89045443D01*
X33514905Y-89045037D01*
X33519521Y-89043523D01*
X33563230Y-89021252D01*
X33564902Y-89020416D01*
X33565045Y-89020346D01*
X33612558Y-88997018D01*
X33614461Y-88995277D01*
X33616005Y-88994362D01*
X33825694Y-88887521D01*
X33825699Y-88887518D01*
X33829683Y-88885488D01*
X33831098Y-88884492D01*
X33831989Y-88883944D01*
X33836316Y-88881725D01*
X33840249Y-88878867D01*
X33840253Y-88878865D01*
X33876050Y-88852857D01*
X33877571Y-88851769D01*
X33915436Y-88825108D01*
X33915438Y-88825107D01*
X33920932Y-88821238D01*
X33922540Y-88819220D01*
X33923914Y-88818081D01*
X34117937Y-88677115D01*
X34119187Y-88675901D01*
X34119973Y-88675228D01*
X34123898Y-88672361D01*
X34158526Y-88637733D01*
X34159856Y-88636421D01*
X34193192Y-88604059D01*
X34198011Y-88599381D01*
X34199281Y-88597140D01*
X34200475Y-88595784D01*
X34370043Y-88426216D01*
X34371082Y-88424830D01*
X34371753Y-88424042D01*
X34375188Y-88420589D01*
X34404079Y-88380823D01*
X34405186Y-88379324D01*
X34432944Y-88342287D01*
X34436972Y-88336913D01*
X34437876Y-88334501D01*
X34438834Y-88332989D01*
X34519398Y-88222101D01*
X34579798Y-88138968D01*
X34580616Y-88137420D01*
X34581146Y-88136553D01*
X34583999Y-88132604D01*
X34606276Y-88088882D01*
X34607131Y-88087235D01*
X34620009Y-88062861D01*
X34631932Y-88040296D01*
X34632448Y-88037769D01*
X34633158Y-88036125D01*
X34740003Y-87826431D01*
X34742035Y-87822443D01*
X34742600Y-87820788D01*
X34742989Y-87819844D01*
X34745189Y-87815499D01*
X34755102Y-87784989D01*
X34760338Y-87768875D01*
X34760929Y-87767100D01*
X34775917Y-87723199D01*
X34778092Y-87716829D01*
X34778207Y-87714250D01*
X34778653Y-87712507D01*
X34851372Y-87488700D01*
X34851372Y-87488699D01*
X34852758Y-87484434D01*
X34853056Y-87482716D01*
X34853293Y-87481724D01*
X34854787Y-87477085D01*
X34855551Y-87472264D01*
X34862469Y-87428592D01*
X34862774Y-87426751D01*
X34870700Y-87381100D01*
X34870700Y-87381095D01*
X34871849Y-87374480D01*
X34871559Y-87371918D01*
X34871726Y-87370134D01*
X34904826Y-87161160D01*
X34905211Y-87158869D01*
X34908326Y-87141304D01*
X34909177Y-87136507D01*
X34913622Y-86925920D01*
X34908923Y-86887320D01*
X34908000Y-86872094D01*
X34908000Y-82790529D01*
X46567000Y-82790529D01*
X46567000Y-82827885D01*
X46571475Y-82843124D01*
X46572865Y-82844329D01*
X46580548Y-82846000D01*
X47240385Y-82846000D01*
X47255624Y-82841525D01*
X47256829Y-82840135D01*
X47258500Y-82832452D01*
X47258500Y-82135115D01*
X47254025Y-82119876D01*
X47252635Y-82118671D01*
X47247015Y-82117449D01*
X47132681Y-82130778D01*
X47118534Y-82134122D01*
X46972978Y-82186957D01*
X46959983Y-82193465D01*
X46830489Y-82278365D01*
X46819337Y-82287689D01*
X46712851Y-82400098D01*
X46704138Y-82411745D01*
X46626365Y-82545640D01*
X46620571Y-82558965D01*
X46575438Y-82707984D01*
X46572990Y-82720607D01*
X46567249Y-82784934D01*
X46567000Y-82790529D01*
X34908000Y-82790529D01*
X34908000Y-81334000D01*
X34928002Y-81265879D01*
X34981658Y-81219386D01*
X35034000Y-81208000D01*
X63771202Y-81208000D01*
X63839323Y-81228002D01*
G37*
%TD.AperFunction*%
%TA.AperFunction,Conductor*%
G36*
X61928000Y-112521001D02*
G01*
X61996121Y-112541003D01*
X62042614Y-112594659D01*
X62054000Y-112647001D01*
X62053999Y-113572941D01*
X62033910Y-113641197D01*
X61971338Y-113738289D01*
X61968927Y-113744914D01*
X61911720Y-113902089D01*
X61911719Y-113902093D01*
X61909310Y-113908712D01*
X61886579Y-114088642D01*
X61904277Y-114269136D01*
X61906502Y-114275824D01*
X61906502Y-114275825D01*
X61951849Y-114412145D01*
X61954372Y-114483096D01*
X61950693Y-114495009D01*
X61911718Y-114602094D01*
X61911717Y-114602100D01*
X61909310Y-114608712D01*
X61886579Y-114788642D01*
X61904277Y-114969136D01*
X61961523Y-115141224D01*
X61965170Y-115147246D01*
X61965171Y-115147248D01*
X62051322Y-115289500D01*
X62055472Y-115296353D01*
X62181456Y-115426813D01*
X62187348Y-115430668D01*
X62187352Y-115430672D01*
X62247561Y-115470071D01*
X62333211Y-115526119D01*
X62503197Y-115589336D01*
X62510178Y-115590267D01*
X62510180Y-115590268D01*
X62559766Y-115596884D01*
X62682963Y-115613322D01*
X62689974Y-115612684D01*
X62689977Y-115612684D01*
X62737453Y-115608363D01*
X62779080Y-115604574D01*
X62848733Y-115618319D01*
X62899898Y-115667540D01*
X62916500Y-115730055D01*
X62916500Y-115829847D01*
X62916501Y-117999046D01*
X62916209Y-118007617D01*
X62912478Y-118062341D01*
X62923467Y-118125309D01*
X62924425Y-118131799D01*
X62932097Y-118195194D01*
X62934783Y-118202302D01*
X62935424Y-118204912D01*
X62939881Y-118221205D01*
X62940647Y-118223744D01*
X62941953Y-118231224D01*
X62945005Y-118238176D01*
X62945005Y-118238177D01*
X62967631Y-118289721D01*
X62970124Y-118295830D01*
X62984476Y-118333810D01*
X62992695Y-118355562D01*
X62996996Y-118361820D01*
X62998245Y-118364209D01*
X63006437Y-118378928D01*
X63007808Y-118381246D01*
X63010861Y-118388201D01*
X63049761Y-118438896D01*
X63053615Y-118444201D01*
X63069341Y-118467083D01*
X63091500Y-118538449D01*
X63091501Y-120751585D01*
X63091501Y-122890500D01*
X63071499Y-122958621D01*
X63017843Y-123005114D01*
X62965501Y-123016500D01*
X62950000Y-123016500D01*
X62876921Y-123021727D01*
X62870438Y-123023631D01*
X62863796Y-123024829D01*
X62863548Y-123023452D01*
X62820019Y-123026567D01*
X62792378Y-123022592D01*
X62727798Y-122993097D01*
X62694758Y-122940318D01*
X62692596Y-122941214D01*
X62652808Y-122845159D01*
X62652807Y-122845157D01*
X62634468Y-122800881D01*
X62634467Y-122800880D01*
X62631307Y-122793250D01*
X62533810Y-122666190D01*
X62509966Y-122647894D01*
X62497582Y-122637033D01*
X61934881Y-122074333D01*
X61745405Y-121884858D01*
X61711380Y-121822545D01*
X61708500Y-121795762D01*
X61708500Y-119346237D01*
X61709578Y-119329790D01*
X61712422Y-119308188D01*
X61713500Y-119300000D01*
X61705250Y-119237334D01*
X61693673Y-119149399D01*
X61693672Y-119149395D01*
X61692595Y-119141215D01*
X61689437Y-119133591D01*
X61689436Y-119133587D01*
X61634468Y-119000881D01*
X61634467Y-119000880D01*
X61631307Y-118993250D01*
X61610543Y-118966190D01*
X61594096Y-118937704D01*
X61581316Y-118906849D01*
X61528721Y-118838306D01*
X61488848Y-118786342D01*
X61488845Y-118786339D01*
X61483819Y-118779789D01*
X61459979Y-118761496D01*
X61447588Y-118750629D01*
X60527729Y-117830771D01*
X60195415Y-117498458D01*
X60161390Y-117436145D01*
X60158510Y-117409362D01*
X60158510Y-113654249D01*
X60178512Y-113586128D01*
X60195415Y-113565153D01*
X60627626Y-113132943D01*
X60689938Y-113098918D01*
X60760754Y-113103983D01*
X60817589Y-113146530D01*
X60835160Y-113179048D01*
X60887617Y-113323566D01*
X60894127Y-113336565D01*
X60979820Y-113467269D01*
X60989144Y-113478421D01*
X61102607Y-113585905D01*
X61114252Y-113594616D01*
X61249393Y-113673112D01*
X61262731Y-113678912D01*
X61413118Y-113724459D01*
X61425754Y-113726910D01*
X61491189Y-113732751D01*
X61496779Y-113733000D01*
X61527885Y-113733000D01*
X61543124Y-113728525D01*
X61544329Y-113727135D01*
X61546000Y-113719452D01*
X61546001Y-112647000D01*
X61566003Y-112578879D01*
X61619659Y-112532386D01*
X61672001Y-112521000D01*
X61928000Y-112521001D01*
G37*
%TD.AperFunction*%
%TA.AperFunction,Conductor*%
G36*
X69398185Y-105328502D02*
G01*
X69419159Y-105345405D01*
X78335879Y-114262127D01*
X81271340Y-117197588D01*
X81282207Y-117209979D01*
X81300501Y-117233820D01*
X81427561Y-117331317D01*
X81544881Y-117379912D01*
X81575525Y-117392605D01*
X81595585Y-117395246D01*
X81696330Y-117408510D01*
X81696343Y-117408511D01*
X81726120Y-117412431D01*
X81726122Y-117412431D01*
X81734310Y-117413509D01*
X81742498Y-117412431D01*
X81742499Y-117412431D01*
X81764094Y-117409588D01*
X81780540Y-117408510D01*
X93464472Y-117408510D01*
X93532593Y-117428512D01*
X93579086Y-117482168D01*
X93589871Y-117522213D01*
X93604277Y-117669136D01*
X93606500Y-117675818D01*
X93606501Y-117675824D01*
X93618165Y-117710888D01*
X93620687Y-117781840D01*
X93587701Y-117839753D01*
X93572859Y-117854595D01*
X93510547Y-117888621D01*
X93483764Y-117891500D01*
X88246237Y-117891500D01*
X88229790Y-117890422D01*
X88208188Y-117887578D01*
X88200000Y-117886500D01*
X88041214Y-117907405D01*
X88015828Y-117917921D01*
X88015828Y-117917920D01*
X88015825Y-117917922D01*
X87981152Y-117932284D01*
X87900881Y-117965532D01*
X87900880Y-117965533D01*
X87893250Y-117968693D01*
X87766190Y-118066190D01*
X87761164Y-118072740D01*
X87747896Y-118090031D01*
X87737029Y-118102422D01*
X86022430Y-119817023D01*
X85484858Y-120354595D01*
X85422546Y-120388620D01*
X85395763Y-120391500D01*
X72750588Y-120391500D01*
X72682467Y-120371498D01*
X72635974Y-120317842D01*
X72625870Y-120247568D01*
X72629257Y-120231517D01*
X72639349Y-120195494D01*
X72663249Y-119966176D01*
X72663500Y-119940000D01*
X72657134Y-119864974D01*
X72644458Y-119715576D01*
X72644457Y-119715572D01*
X72644007Y-119710265D01*
X72637395Y-119684788D01*
X72592804Y-119512989D01*
X72586084Y-119487098D01*
X72577856Y-119468831D01*
X72493578Y-119281743D01*
X72493577Y-119281741D01*
X72491388Y-119276882D01*
X72362627Y-119085626D01*
X72267508Y-118985915D01*
X72230868Y-118947507D01*
X72198321Y-118884410D01*
X72205052Y-118813733D01*
X72248926Y-118757916D01*
X72286538Y-118739640D01*
X72319545Y-118729948D01*
X72354670Y-118719635D01*
X72354672Y-118719634D01*
X72363316Y-118717096D01*
X72427135Y-118676082D01*
X72478691Y-118642949D01*
X72478694Y-118642947D01*
X72486271Y-118638077D01*
X72526048Y-118592172D01*
X72576082Y-118534431D01*
X72576084Y-118534428D01*
X72581984Y-118527619D01*
X72642700Y-118394670D01*
X72648323Y-118355562D01*
X72662861Y-118254448D01*
X72662862Y-118254441D01*
X72663500Y-118250000D01*
X72663500Y-116550000D01*
X72658273Y-116476921D01*
X72617096Y-116336684D01*
X72571393Y-116265569D01*
X72542949Y-116221309D01*
X72542947Y-116221306D01*
X72538077Y-116213729D01*
X72531267Y-116207828D01*
X72434431Y-116123918D01*
X72434428Y-116123916D01*
X72427619Y-116118016D01*
X72419421Y-116114272D01*
X72302864Y-116061042D01*
X72302863Y-116061042D01*
X72294670Y-116057300D01*
X72285755Y-116056018D01*
X72285754Y-116056018D01*
X72154448Y-116037139D01*
X72154441Y-116037138D01*
X72150000Y-116036500D01*
X70450000Y-116036500D01*
X70376921Y-116041727D01*
X70323884Y-116057300D01*
X70245330Y-116080365D01*
X70245328Y-116080366D01*
X70236684Y-116082904D01*
X70198528Y-116107426D01*
X70121309Y-116157051D01*
X70121306Y-116157053D01*
X70113729Y-116161923D01*
X70107828Y-116168733D01*
X70023918Y-116265569D01*
X70023916Y-116265572D01*
X70018016Y-116272381D01*
X69957300Y-116405330D01*
X69956018Y-116414245D01*
X69956018Y-116414246D01*
X69937139Y-116545552D01*
X69937138Y-116545559D01*
X69936500Y-116550000D01*
X69936500Y-116565500D01*
X69916498Y-116633621D01*
X69862842Y-116680114D01*
X69810500Y-116691500D01*
X67725938Y-116691500D01*
X67717368Y-116691208D01*
X67670234Y-116687994D01*
X67670230Y-116687994D01*
X67662658Y-116687478D01*
X67599708Y-116698465D01*
X67593218Y-116699422D01*
X67529806Y-116707096D01*
X67522697Y-116709783D01*
X67520085Y-116710424D01*
X67503825Y-116714872D01*
X67501255Y-116715648D01*
X67493776Y-116716953D01*
X67486825Y-116720004D01*
X67486819Y-116720006D01*
X67435295Y-116742624D01*
X67429186Y-116745117D01*
X67376548Y-116765007D01*
X67376546Y-116765008D01*
X67369438Y-116767694D01*
X67363173Y-116772000D01*
X67360782Y-116773250D01*
X67346073Y-116781437D01*
X67343756Y-116782807D01*
X67336799Y-116785861D01*
X67330776Y-116790482D01*
X67330770Y-116790486D01*
X67286108Y-116824755D01*
X67280775Y-116828630D01*
X67228154Y-116864796D01*
X67223097Y-116870472D01*
X67189061Y-116908673D01*
X67184080Y-116913949D01*
X65380935Y-118717096D01*
X64796380Y-119301651D01*
X64747890Y-119331834D01*
X64729842Y-119337978D01*
X64675105Y-119356612D01*
X64604173Y-119359630D01*
X64542869Y-119323820D01*
X64510657Y-119260551D01*
X64508500Y-119237334D01*
X64508500Y-118225938D01*
X64508792Y-118217368D01*
X64512006Y-118170234D01*
X64512006Y-118170230D01*
X64512522Y-118162658D01*
X64501535Y-118099708D01*
X64500576Y-118093205D01*
X64500320Y-118091084D01*
X64492904Y-118029806D01*
X64490217Y-118022697D01*
X64489576Y-118020085D01*
X64485134Y-118003849D01*
X64484354Y-118001265D01*
X64483047Y-117993776D01*
X64457377Y-117935300D01*
X64454897Y-117929226D01*
X64432306Y-117869438D01*
X64428006Y-117863181D01*
X64426788Y-117860851D01*
X64418543Y-117846040D01*
X64417192Y-117843755D01*
X64414138Y-117836799D01*
X64409513Y-117830771D01*
X64375269Y-117786142D01*
X64371392Y-117780807D01*
X64355660Y-117757917D01*
X64333500Y-117686549D01*
X64333500Y-115158528D01*
X64353502Y-115090407D01*
X64407158Y-115043914D01*
X64477432Y-115033810D01*
X64522785Y-115049574D01*
X64649393Y-115123113D01*
X64662731Y-115128913D01*
X64813120Y-115174461D01*
X64825752Y-115176911D01*
X64891185Y-115182751D01*
X64896780Y-115183000D01*
X64902885Y-115183000D01*
X64918124Y-115178525D01*
X64919329Y-115177135D01*
X64921000Y-115169452D01*
X64921000Y-114467548D01*
X65429000Y-114467548D01*
X65429000Y-115164885D01*
X65433475Y-115180124D01*
X65434865Y-115181329D01*
X65441847Y-115182847D01*
X65446527Y-115182575D01*
X65562505Y-115169054D01*
X65576657Y-115165709D01*
X65723567Y-115112383D01*
X65736566Y-115105873D01*
X65867270Y-115020180D01*
X65878422Y-115010856D01*
X65985906Y-114897393D01*
X65994617Y-114885748D01*
X66073113Y-114750607D01*
X66078913Y-114737269D01*
X66124461Y-114586880D01*
X66126911Y-114574248D01*
X66132751Y-114508815D01*
X66133000Y-114503220D01*
X66133000Y-114472115D01*
X66128525Y-114456876D01*
X66127135Y-114455671D01*
X66119452Y-114454000D01*
X65447115Y-114454000D01*
X65431876Y-114458475D01*
X65430671Y-114459865D01*
X65429000Y-114467548D01*
X64921000Y-114467548D01*
X64921000Y-113686548D01*
X65429000Y-113686548D01*
X65429000Y-113927885D01*
X65433475Y-113943124D01*
X65434865Y-113944329D01*
X65442548Y-113946000D01*
X66114885Y-113946000D01*
X66130124Y-113941525D01*
X66131329Y-113940135D01*
X66133000Y-113932452D01*
X66133000Y-113910777D01*
X66132575Y-113903473D01*
X66119054Y-113787495D01*
X66115709Y-113773343D01*
X66062384Y-113626436D01*
X66055986Y-113613659D01*
X66043370Y-113543792D01*
X66070529Y-113478196D01*
X66087826Y-113460580D01*
X66094460Y-113455033D01*
X66205922Y-113337371D01*
X66214635Y-113325724D01*
X66296794Y-113184278D01*
X66348305Y-113135420D01*
X66418054Y-113122166D01*
X66442272Y-113126974D01*
X66598411Y-113174265D01*
X66611036Y-113176714D01*
X66678682Y-113182751D01*
X66684277Y-113183000D01*
X66752885Y-113183000D01*
X66768124Y-113178525D01*
X66769329Y-113177135D01*
X66771000Y-113169452D01*
X66771001Y-112472115D01*
X66766526Y-112456876D01*
X66765136Y-112455671D01*
X66757453Y-112454000D01*
X66416116Y-112453999D01*
X66400876Y-112458474D01*
X66399671Y-112459865D01*
X66398000Y-112467544D01*
X66398000Y-112528000D01*
X66377998Y-112596121D01*
X66324342Y-112642614D01*
X66272000Y-112654000D01*
X65622115Y-112654000D01*
X65606876Y-112658475D01*
X65605671Y-112659865D01*
X65604000Y-112667548D01*
X65604000Y-113547000D01*
X65583998Y-113615121D01*
X65530342Y-113661614D01*
X65478000Y-113673000D01*
X65447115Y-113673000D01*
X65431876Y-113677475D01*
X65430671Y-113678865D01*
X65429000Y-113686548D01*
X64921000Y-113686548D01*
X64921000Y-113303000D01*
X64941002Y-113234879D01*
X64994658Y-113188386D01*
X65047000Y-113177000D01*
X65077885Y-113177000D01*
X65093124Y-113172525D01*
X65094329Y-113171135D01*
X65096000Y-113163452D01*
X65096000Y-112272000D01*
X65116002Y-112203879D01*
X65169658Y-112157386D01*
X65222000Y-112146000D01*
X65933885Y-112146000D01*
X65949124Y-112141525D01*
X65950329Y-112140135D01*
X65952000Y-112132452D01*
X65952000Y-112072000D01*
X65972002Y-112003879D01*
X66025658Y-111957386D01*
X66078000Y-111946000D01*
X66770998Y-111946001D01*
X66771004Y-111946000D01*
X67153000Y-111946001D01*
X67221121Y-111966003D01*
X67267614Y-112019659D01*
X67279000Y-112072001D01*
X67278999Y-113164885D01*
X67283474Y-113180124D01*
X67284864Y-113181329D01*
X67292547Y-113183000D01*
X67351722Y-113183000D01*
X67359026Y-113182575D01*
X67477879Y-113168719D01*
X67492031Y-113165374D01*
X67641663Y-113111060D01*
X67654662Y-113104550D01*
X67787787Y-113017269D01*
X67798939Y-113007945D01*
X67809751Y-112996532D01*
X67871120Y-112960835D01*
X67942047Y-112963983D01*
X67987876Y-112991713D01*
X68037633Y-113038848D01*
X68188039Y-113126211D01*
X68195041Y-113128332D01*
X68195044Y-113128333D01*
X68310996Y-113163452D01*
X68354509Y-113176631D01*
X68360945Y-113177205D01*
X68360948Y-113177206D01*
X68428682Y-113183251D01*
X68428688Y-113183251D01*
X68431475Y-113183500D01*
X69105384Y-113183500D01*
X69109018Y-113183076D01*
X69109023Y-113183076D01*
X69227993Y-113169205D01*
X69235266Y-113168357D01*
X69295399Y-113146530D01*
X69391887Y-113111507D01*
X69391888Y-113111507D01*
X69398766Y-113109010D01*
X69544228Y-113013641D01*
X69663848Y-112887367D01*
X69751211Y-112736961D01*
X69759160Y-112710718D01*
X69799757Y-112576678D01*
X69801631Y-112570491D01*
X69802448Y-112561345D01*
X69808251Y-112496318D01*
X69808251Y-112496312D01*
X69808500Y-112493525D01*
X69808500Y-111919616D01*
X69806472Y-111902216D01*
X69794205Y-111797007D01*
X69793357Y-111789734D01*
X69734010Y-111626234D01*
X69638641Y-111480772D01*
X69512367Y-111361152D01*
X69506038Y-111357476D01*
X69506033Y-111357472D01*
X69496217Y-111351771D01*
X69447357Y-111300261D01*
X69433500Y-111242816D01*
X69433500Y-109254567D01*
X69433974Y-109244513D01*
X69435555Y-109237440D01*
X69433562Y-109174020D01*
X69433500Y-109170062D01*
X69433500Y-109135421D01*
X69432713Y-109129190D01*
X69431781Y-109117351D01*
X69431611Y-109111923D01*
X69430331Y-109071205D01*
X69427535Y-109061580D01*
X69424352Y-109050624D01*
X69420341Y-109031259D01*
X69419804Y-109027008D01*
X69417655Y-109009994D01*
X69414737Y-109002624D01*
X69414735Y-109002616D01*
X69400658Y-108967061D01*
X69396814Y-108955834D01*
X69386143Y-108919108D01*
X69386142Y-108919106D01*
X69383930Y-108911492D01*
X69379895Y-108904669D01*
X69373016Y-108893037D01*
X69364318Y-108875282D01*
X69363417Y-108873006D01*
X69356429Y-108855356D01*
X69329288Y-108818001D01*
X69322771Y-108808079D01*
X69302294Y-108773454D01*
X69302293Y-108773452D01*
X69299267Y-108768336D01*
X69296824Y-108765565D01*
X69283245Y-108751986D01*
X69270404Y-108736952D01*
X69263331Y-108727217D01*
X69258671Y-108720803D01*
X69224983Y-108692934D01*
X69216203Y-108684944D01*
X68471906Y-107940647D01*
X68465122Y-107933192D01*
X68461236Y-107927069D01*
X68414942Y-107883596D01*
X68412101Y-107880842D01*
X68387643Y-107856384D01*
X68382690Y-107852542D01*
X68373671Y-107844841D01*
X68339996Y-107813217D01*
X68333048Y-107809397D01*
X68321204Y-107802885D01*
X68304683Y-107792033D01*
X68294016Y-107783759D01*
X68294011Y-107783756D01*
X68287748Y-107778898D01*
X68245379Y-107760564D01*
X68234731Y-107755347D01*
X68209273Y-107741351D01*
X68159215Y-107691005D01*
X68147368Y-107654511D01*
X68147089Y-107654586D01*
X68145656Y-107649239D01*
X68145053Y-107647381D01*
X68144951Y-107646609D01*
X68143873Y-107638420D01*
X68141201Y-107631969D01*
X68141200Y-107568033D01*
X68143873Y-107561580D01*
X68145925Y-107546000D01*
X68157962Y-107454565D01*
X68157962Y-107454564D01*
X68158500Y-107450478D01*
X68158500Y-107249522D01*
X68143873Y-107138420D01*
X68138022Y-107124293D01*
X68093644Y-107017155D01*
X68086331Y-106999500D01*
X67994794Y-106880206D01*
X67875500Y-106788669D01*
X67774240Y-106746726D01*
X67744210Y-106734287D01*
X67744207Y-106734286D01*
X67736580Y-106731127D01*
X67645075Y-106719080D01*
X67629565Y-106717038D01*
X67629564Y-106717038D01*
X67625478Y-106716500D01*
X67309500Y-106716500D01*
X67241379Y-106696498D01*
X67194886Y-106642842D01*
X67183500Y-106590500D01*
X67183500Y-106329238D01*
X67203502Y-106261117D01*
X67220405Y-106240143D01*
X67349793Y-106110755D01*
X67412105Y-106076729D01*
X67482806Y-106081753D01*
X67503197Y-106089336D01*
X67682963Y-106113322D01*
X67689974Y-106112684D01*
X67689978Y-106112684D01*
X67830059Y-106099934D01*
X67863577Y-106096884D01*
X67870279Y-106094706D01*
X67870281Y-106094706D01*
X68029361Y-106043018D01*
X68029364Y-106043017D01*
X68036060Y-106040841D01*
X68161248Y-105966214D01*
X68185789Y-105951585D01*
X68185791Y-105951584D01*
X68191841Y-105947977D01*
X68323177Y-105822908D01*
X68396849Y-105712022D01*
X68419639Y-105677721D01*
X68419640Y-105677719D01*
X68423540Y-105671849D01*
X68487942Y-105502309D01*
X68499937Y-105416963D01*
X68529226Y-105352290D01*
X68588830Y-105313717D01*
X68624711Y-105308500D01*
X69330064Y-105308500D01*
X69398185Y-105328502D01*
G37*
%TD.AperFunction*%
%TA.AperFunction,Conductor*%
G36*
X57635738Y-109353976D02*
G01*
X57693642Y-109397971D01*
X57716329Y-109429197D01*
X57722437Y-109434250D01*
X57722438Y-109434251D01*
X57805832Y-109503241D01*
X57845570Y-109562074D01*
X57847191Y-109633052D01*
X57810182Y-109693640D01*
X57799576Y-109702261D01*
X57752221Y-109736666D01*
X57752217Y-109736670D01*
X57745804Y-109741329D01*
X57740751Y-109747437D01*
X57740750Y-109747438D01*
X57655338Y-109850683D01*
X57639788Y-109869479D01*
X57636413Y-109876650D01*
X57636413Y-109876651D01*
X57630469Y-109889283D01*
X57574666Y-110007872D01*
X57573434Y-110010490D01*
X57526332Y-110063611D01*
X57512717Y-110067440D01*
X57520437Y-110073613D01*
X57543115Y-110140890D01*
X57542654Y-110157726D01*
X57542614Y-110158149D01*
X57541500Y-110163989D01*
X57541500Y-111289579D01*
X57548264Y-111343119D01*
X57555890Y-111403485D01*
X57557345Y-111415006D01*
X57560262Y-111422372D01*
X57560262Y-111422374D01*
X57615653Y-111562273D01*
X57618571Y-111569644D01*
X57623229Y-111576055D01*
X57623230Y-111576057D01*
X57716329Y-111704197D01*
X57713839Y-111706006D01*
X57739403Y-111756541D01*
X57741501Y-111779438D01*
X57741501Y-112603763D01*
X57740423Y-112620209D01*
X57736501Y-112650000D01*
X57737579Y-112658188D01*
X57748279Y-112739462D01*
X57757405Y-112808785D01*
X57776290Y-112854375D01*
X57776291Y-112854378D01*
X57810513Y-112936998D01*
X57818694Y-112956750D01*
X57858272Y-113008329D01*
X57911162Y-113077257D01*
X57911165Y-113077260D01*
X57916191Y-113083810D01*
X57922742Y-113088837D01*
X57922743Y-113088838D01*
X57940034Y-113102106D01*
X57952424Y-113112972D01*
X58454596Y-113615145D01*
X58488621Y-113677457D01*
X58491500Y-113704240D01*
X58491501Y-117853763D01*
X58490423Y-117870209D01*
X58486501Y-117900000D01*
X58507405Y-118058785D01*
X58510566Y-118066416D01*
X58512703Y-118074391D01*
X58511135Y-118074811D01*
X58517707Y-118135913D01*
X58485931Y-118199402D01*
X58424875Y-118235633D01*
X58353923Y-118233102D01*
X58304613Y-118202643D01*
X55520405Y-115418436D01*
X55486379Y-115356124D01*
X55483500Y-115329341D01*
X55483500Y-111637427D01*
X55503502Y-111569306D01*
X55557158Y-111522813D01*
X55598079Y-111511946D01*
X55763577Y-111496884D01*
X55770279Y-111494706D01*
X55770281Y-111494706D01*
X55929361Y-111443018D01*
X55929364Y-111443017D01*
X55936060Y-111440841D01*
X56075913Y-111357472D01*
X56085789Y-111351585D01*
X56085791Y-111351584D01*
X56091841Y-111347977D01*
X56223177Y-111222908D01*
X56323540Y-111071849D01*
X56387942Y-110902309D01*
X56412319Y-110728865D01*
X56412632Y-110726636D01*
X56412632Y-110726633D01*
X56413183Y-110722714D01*
X56413392Y-110707741D01*
X56434343Y-110639906D01*
X56488643Y-110594167D01*
X56539380Y-110583500D01*
X56666317Y-110583500D01*
X56795194Y-110567904D01*
X56955562Y-110507306D01*
X56973633Y-110494886D01*
X57090587Y-110414506D01*
X57090589Y-110414505D01*
X57096846Y-110410204D01*
X57101899Y-110404533D01*
X57205836Y-110287877D01*
X57205838Y-110287875D01*
X57210890Y-110282204D01*
X57214442Y-110275495D01*
X57214445Y-110275491D01*
X57287555Y-110137411D01*
X57287556Y-110137408D01*
X57291110Y-110130696D01*
X57295009Y-110115173D01*
X57331003Y-110053977D01*
X57367600Y-110035483D01*
X57344222Y-110007872D01*
X57333795Y-109954475D01*
X57333500Y-109954475D01*
X57333500Y-109604238D01*
X57353502Y-109536117D01*
X57370405Y-109515143D01*
X57502611Y-109382937D01*
X57564923Y-109348911D01*
X57635738Y-109353976D01*
G37*
%TD.AperFunction*%
%TA.AperFunction,Conductor*%
G36*
X53465698Y-104500246D02*
G01*
X53498049Y-104507123D01*
X53498058Y-104507124D01*
X53504513Y-104508496D01*
X53695487Y-104508496D01*
X53701939Y-104507124D01*
X53701944Y-104507124D01*
X53739442Y-104499153D01*
X53810233Y-104504555D01*
X53866865Y-104547372D01*
X53891359Y-104614009D01*
X53887843Y-104653095D01*
X53885390Y-104662861D01*
X53867126Y-104735575D01*
X53866763Y-104741338D01*
X53866763Y-104741341D01*
X53866625Y-104743530D01*
X53866624Y-104743546D01*
X53866500Y-104745525D01*
X53866500Y-105416317D01*
X53882096Y-105545194D01*
X53942694Y-105705562D01*
X53946995Y-105711820D01*
X53990340Y-105774888D01*
X54012440Y-105842358D01*
X53994554Y-105911065D01*
X53993093Y-105913326D01*
X53989110Y-105917796D01*
X53985555Y-105924509D01*
X53985555Y-105924510D01*
X53914371Y-106058953D01*
X53908890Y-106069304D01*
X53907039Y-106076673D01*
X53901962Y-106096884D01*
X53867126Y-106235575D01*
X53866763Y-106241338D01*
X53866763Y-106241341D01*
X53866625Y-106243530D01*
X53866624Y-106243546D01*
X53866500Y-106245525D01*
X53866500Y-106916317D01*
X53882096Y-107045194D01*
X53942694Y-107205562D01*
X53946995Y-107211820D01*
X53990340Y-107274888D01*
X54012440Y-107342358D01*
X53994554Y-107411065D01*
X53993093Y-107413326D01*
X53989110Y-107417796D01*
X53985555Y-107424509D01*
X53985555Y-107424510D01*
X53912980Y-107561580D01*
X53908890Y-107569304D01*
X53867126Y-107735575D01*
X53866763Y-107741338D01*
X53866763Y-107741341D01*
X53866625Y-107743530D01*
X53866624Y-107743546D01*
X53866500Y-107745525D01*
X53866500Y-108416317D01*
X53882096Y-108545194D01*
X53942694Y-108705562D01*
X53946995Y-108711820D01*
X53990340Y-108774888D01*
X54012440Y-108842358D01*
X53994554Y-108911065D01*
X53993093Y-108913326D01*
X53989110Y-108917796D01*
X53985555Y-108924509D01*
X53985555Y-108924510D01*
X53912980Y-109061580D01*
X53908890Y-109069304D01*
X53867126Y-109235575D01*
X53866763Y-109241338D01*
X53866763Y-109241341D01*
X53866625Y-109243530D01*
X53866624Y-109243546D01*
X53866500Y-109245525D01*
X53866500Y-109916317D01*
X53882096Y-110045194D01*
X53942694Y-110205562D01*
X53946995Y-110211820D01*
X54039796Y-110346846D01*
X54038582Y-110347680D01*
X54065059Y-110404366D01*
X54066500Y-110423367D01*
X54066501Y-115649046D01*
X54066209Y-115657617D01*
X54062478Y-115712341D01*
X54060662Y-115712217D01*
X54046483Y-115771900D01*
X53995334Y-115821137D01*
X53925685Y-115834904D01*
X53859649Y-115808831D01*
X53847971Y-115798514D01*
X52281513Y-114232056D01*
X52268672Y-114217022D01*
X52264167Y-114210822D01*
X52260284Y-114205477D01*
X52209017Y-114159316D01*
X52204232Y-114154775D01*
X52191090Y-114141633D01*
X52176642Y-114129934D01*
X52171625Y-114125648D01*
X52127158Y-114085609D01*
X52127153Y-114085605D01*
X52122247Y-114081188D01*
X52110626Y-114074478D01*
X52094334Y-114063281D01*
X52089042Y-114058996D01*
X52083911Y-114054841D01*
X52024726Y-114024685D01*
X52018930Y-114021538D01*
X52012402Y-114017769D01*
X51961386Y-113988315D01*
X51955110Y-113986276D01*
X51955104Y-113986273D01*
X51948618Y-113984165D01*
X51930363Y-113976604D01*
X51924288Y-113973509D01*
X51924285Y-113973508D01*
X51918409Y-113970514D01*
X51912040Y-113968808D01*
X51912039Y-113968807D01*
X51885676Y-113961743D01*
X51854229Y-113953317D01*
X51847928Y-113951450D01*
X51784730Y-113930916D01*
X51778167Y-113930226D01*
X51778157Y-113930224D01*
X51771383Y-113929512D01*
X51751952Y-113925911D01*
X51745372Y-113924148D01*
X51745368Y-113924147D01*
X51738992Y-113922439D01*
X51732401Y-113922094D01*
X51732397Y-113922093D01*
X51699691Y-113920380D01*
X51672657Y-113918963D01*
X51666088Y-113918446D01*
X51650870Y-113916846D01*
X51650857Y-113916845D01*
X51647572Y-113916500D01*
X51628960Y-113916500D01*
X51622366Y-113916327D01*
X51560092Y-113913063D01*
X51560088Y-113913063D01*
X51553500Y-113912718D01*
X51539413Y-113914949D01*
X51519704Y-113916500D01*
X49568148Y-113916500D01*
X49500027Y-113896498D01*
X49479053Y-113879595D01*
X49380715Y-113781257D01*
X49346689Y-113718945D01*
X49351754Y-113648130D01*
X49394301Y-113591294D01*
X49460821Y-113566483D01*
X49522153Y-113577549D01*
X49547133Y-113588957D01*
X49547136Y-113588958D01*
X49555330Y-113592700D01*
X49564245Y-113593982D01*
X49564246Y-113593982D01*
X49695552Y-113612861D01*
X49695559Y-113612862D01*
X49700000Y-113613500D01*
X50600000Y-113613500D01*
X50673079Y-113608273D01*
X50751165Y-113585345D01*
X50804670Y-113569635D01*
X50804672Y-113569634D01*
X50813316Y-113567096D01*
X50877135Y-113526082D01*
X50928691Y-113492949D01*
X50928694Y-113492947D01*
X50936271Y-113488077D01*
X50944833Y-113478196D01*
X51026082Y-113384431D01*
X51026084Y-113384428D01*
X51031984Y-113377619D01*
X51065299Y-113304670D01*
X51088958Y-113252864D01*
X51088958Y-113252863D01*
X51092700Y-113244670D01*
X51096698Y-113216864D01*
X51112861Y-113104448D01*
X51112862Y-113104441D01*
X51113500Y-113100000D01*
X51113500Y-112818028D01*
X51119398Y-112779929D01*
X51139491Y-112716588D01*
X51139491Y-112716587D01*
X51141353Y-112710718D01*
X51158500Y-112557845D01*
X51158500Y-110569924D01*
X51178502Y-110501803D01*
X51195405Y-110480829D01*
X51368600Y-110307634D01*
X51378743Y-110298533D01*
X51399097Y-110282168D01*
X51409109Y-110274118D01*
X51415502Y-110266500D01*
X51442393Y-110234452D01*
X51445580Y-110230799D01*
X51446992Y-110229242D01*
X51449175Y-110227059D01*
X51475626Y-110194857D01*
X51476441Y-110193875D01*
X51532291Y-110127316D01*
X51532292Y-110127314D01*
X51536253Y-110122594D01*
X51538824Y-110117918D01*
X51542202Y-110113805D01*
X51545109Y-110108383D01*
X51545112Y-110108379D01*
X51586079Y-110031975D01*
X51586708Y-110030816D01*
X51592673Y-110019967D01*
X51631544Y-109949260D01*
X51633156Y-109944178D01*
X51635673Y-109939484D01*
X51662831Y-109850653D01*
X51663214Y-109849423D01*
X51689490Y-109766591D01*
X51691353Y-109760718D01*
X51691947Y-109755418D01*
X51693504Y-109750327D01*
X51702893Y-109657891D01*
X51703028Y-109656624D01*
X51704493Y-109643571D01*
X51708500Y-109607845D01*
X51708500Y-109604321D01*
X51708543Y-109603551D01*
X51708992Y-109597849D01*
X51712871Y-109559666D01*
X51712871Y-109559661D01*
X51713493Y-109553538D01*
X51709059Y-109506630D01*
X51708500Y-109494773D01*
X51708500Y-108997724D01*
X51728502Y-108929603D01*
X51782158Y-108883110D01*
X51852432Y-108873006D01*
X51897786Y-108888770D01*
X52039429Y-108971043D01*
X52052754Y-108976837D01*
X52208700Y-109024068D01*
X52221323Y-109026516D01*
X52291184Y-109032751D01*
X52296779Y-109033000D01*
X52327885Y-109033000D01*
X52343124Y-109028525D01*
X52344329Y-109027135D01*
X52346000Y-109019452D01*
X52346000Y-108067548D01*
X52854000Y-108067548D01*
X52854000Y-109014885D01*
X52858475Y-109030124D01*
X52859865Y-109031329D01*
X52867548Y-109033000D01*
X52889223Y-109033000D01*
X52896524Y-109032576D01*
X53018255Y-109018383D01*
X53032410Y-109015037D01*
X53184761Y-108959737D01*
X53197760Y-108953227D01*
X53333306Y-108864359D01*
X53344458Y-108855035D01*
X53455922Y-108737371D01*
X53464635Y-108725724D01*
X53546043Y-108585571D01*
X53551837Y-108572246D01*
X53599068Y-108416300D01*
X53601516Y-108403677D01*
X53607751Y-108333816D01*
X53608000Y-108328221D01*
X53608000Y-108072115D01*
X53603525Y-108056876D01*
X53602135Y-108055671D01*
X53594452Y-108054000D01*
X52872115Y-108054000D01*
X52856876Y-108058475D01*
X52855671Y-108059865D01*
X52854000Y-108067548D01*
X52346000Y-108067548D01*
X52346000Y-107672000D01*
X52366002Y-107603879D01*
X52419658Y-107557386D01*
X52472000Y-107546000D01*
X53589885Y-107546000D01*
X53605124Y-107541525D01*
X53606329Y-107540135D01*
X53608000Y-107532452D01*
X53608000Y-107285777D01*
X53607576Y-107278476D01*
X53593383Y-107156745D01*
X53590037Y-107142590D01*
X53534737Y-106990239D01*
X53528227Y-106977240D01*
X53439359Y-106841694D01*
X53430035Y-106830542D01*
X53312373Y-106719080D01*
X53302656Y-106711811D01*
X53260090Y-106654990D01*
X53255000Y-106584176D01*
X53263516Y-106558574D01*
X53288958Y-106502864D01*
X53288958Y-106502863D01*
X53292700Y-106494670D01*
X53293982Y-106485754D01*
X53312861Y-106354448D01*
X53312862Y-106354441D01*
X53313500Y-106350000D01*
X53313500Y-104623492D01*
X53333502Y-104555371D01*
X53387158Y-104508878D01*
X53457432Y-104498774D01*
X53465698Y-104500246D01*
G37*
%TD.AperFunction*%
%TA.AperFunction,Conductor*%
G36*
X93193880Y-114960570D02*
G01*
X93204652Y-114974958D01*
X93206839Y-114978360D01*
X93211923Y-114986271D01*
X93218733Y-114992172D01*
X93315569Y-115076082D01*
X93315572Y-115076084D01*
X93322381Y-115081984D01*
X93438333Y-115134938D01*
X93491988Y-115181430D01*
X93511990Y-115249551D01*
X93491988Y-115317672D01*
X93475086Y-115338646D01*
X93059138Y-115754595D01*
X92996825Y-115788620D01*
X92970042Y-115791500D01*
X91718798Y-115791500D01*
X91650677Y-115771498D01*
X91604184Y-115717842D01*
X91593876Y-115649053D01*
X91594189Y-115646680D01*
X91613500Y-115500000D01*
X91609578Y-115470210D01*
X91608500Y-115453763D01*
X91608500Y-115289500D01*
X91628502Y-115221379D01*
X91682158Y-115174886D01*
X91734500Y-115163500D01*
X92600000Y-115163500D01*
X92673079Y-115158273D01*
X92773071Y-115128913D01*
X92804670Y-115119635D01*
X92804672Y-115119634D01*
X92813316Y-115117096D01*
X92877788Y-115075662D01*
X92928691Y-115042949D01*
X92928694Y-115042947D01*
X92936271Y-115038077D01*
X92942501Y-115030888D01*
X93003432Y-114960570D01*
X93063158Y-114922186D01*
X93134154Y-114922186D01*
X93193880Y-114960570D01*
G37*
%TD.AperFunction*%
%TA.AperFunction,Conductor*%
G36*
X78795267Y-111228502D02*
G01*
X78816242Y-111245405D01*
X79384564Y-111813729D01*
X79568427Y-111997592D01*
X79579288Y-112009976D01*
X79597584Y-112033820D01*
X79724644Y-112131317D01*
X79732274Y-112134477D01*
X79732275Y-112134478D01*
X79829269Y-112174653D01*
X79829271Y-112174654D01*
X79864981Y-112189446D01*
X79864983Y-112189446D01*
X79872608Y-112192605D01*
X79880794Y-112193683D01*
X79880795Y-112193683D01*
X80023206Y-112212432D01*
X80031394Y-112213510D01*
X80039582Y-112212432D01*
X80061184Y-112209588D01*
X80077631Y-112208510D01*
X82961000Y-112208510D01*
X83029121Y-112228512D01*
X83075614Y-112282168D01*
X83087000Y-112334510D01*
X83087000Y-113127885D01*
X83091475Y-113143124D01*
X83092865Y-113144329D01*
X83100548Y-113146000D01*
X84228000Y-113146001D01*
X84296121Y-113166003D01*
X84342614Y-113219659D01*
X84354000Y-113272001D01*
X84353999Y-113528000D01*
X84333997Y-113596121D01*
X84280341Y-113642614D01*
X84227999Y-113654000D01*
X83105115Y-113653999D01*
X83089876Y-113658474D01*
X83088671Y-113659864D01*
X83087000Y-113667547D01*
X83087000Y-114647743D01*
X83087161Y-114652250D01*
X83091740Y-114716269D01*
X83094126Y-114729491D01*
X83130819Y-114854458D01*
X83138233Y-114870692D01*
X83207426Y-114978360D01*
X83219112Y-114991847D01*
X83315840Y-115075662D01*
X83330848Y-115085307D01*
X83447275Y-115138477D01*
X83468141Y-115144604D01*
X83527867Y-115182988D01*
X83557360Y-115247569D01*
X83547255Y-115317843D01*
X83500762Y-115371498D01*
X83432642Y-115391500D01*
X82369936Y-115391500D01*
X82301815Y-115371498D01*
X82280841Y-115354595D01*
X79340147Y-112413902D01*
X78349839Y-111423595D01*
X78315814Y-111361283D01*
X78320878Y-111290468D01*
X78363425Y-111233632D01*
X78429945Y-111208821D01*
X78438934Y-111208500D01*
X78727146Y-111208500D01*
X78795267Y-111228502D01*
G37*
%TD.AperFunction*%
%TA.AperFunction,Conductor*%
G36*
X47891215Y-108701655D02*
G01*
X47949181Y-108742649D01*
X47955763Y-108751773D01*
X47960255Y-108758624D01*
X47964269Y-108764746D01*
X48092645Y-108886358D01*
X48245555Y-108975175D01*
X48414796Y-109026433D01*
X48421236Y-109027008D01*
X48421237Y-109027008D01*
X48491185Y-109033251D01*
X48491191Y-109033251D01*
X48493978Y-109033500D01*
X49092885Y-109033500D01*
X49106927Y-109031863D01*
X49150443Y-109026790D01*
X49220421Y-109038769D01*
X49272815Y-109086680D01*
X49290988Y-109155311D01*
X49271585Y-109218262D01*
X49268016Y-109222381D01*
X49207300Y-109355330D01*
X49206018Y-109364245D01*
X49206018Y-109364246D01*
X49187139Y-109495552D01*
X49187138Y-109495559D01*
X49186500Y-109500000D01*
X49186500Y-109781973D01*
X49180602Y-109820072D01*
X49158647Y-109889283D01*
X49158053Y-109894583D01*
X49156496Y-109899674D01*
X49155873Y-109905809D01*
X49155872Y-109905813D01*
X49147107Y-109992108D01*
X49146974Y-109993360D01*
X49141500Y-110042156D01*
X49141500Y-110045680D01*
X49141458Y-110046431D01*
X49141009Y-110052131D01*
X49137128Y-110090334D01*
X49137128Y-110090340D01*
X49136506Y-110096463D01*
X49139601Y-110129203D01*
X49140941Y-110143380D01*
X49141500Y-110155238D01*
X49141501Y-111351585D01*
X49141501Y-112550994D01*
X49155803Y-112696857D01*
X49157585Y-112702759D01*
X49181122Y-112780717D01*
X49186500Y-112817135D01*
X49186500Y-113100000D01*
X49191727Y-113173079D01*
X49205404Y-113219659D01*
X49226896Y-113292854D01*
X49226896Y-113363850D01*
X49188512Y-113423577D01*
X49123932Y-113453070D01*
X49053658Y-113442966D01*
X49016905Y-113417447D01*
X47850405Y-112250948D01*
X47816380Y-112188636D01*
X47813500Y-112161853D01*
X47813500Y-111900000D01*
X47808273Y-111826921D01*
X47778029Y-111723918D01*
X47769635Y-111695330D01*
X47769634Y-111695328D01*
X47767096Y-111686684D01*
X47734948Y-111636661D01*
X47692949Y-111571309D01*
X47692947Y-111571306D01*
X47688077Y-111563729D01*
X47640858Y-111522813D01*
X47584431Y-111473918D01*
X47584428Y-111473916D01*
X47577619Y-111468016D01*
X47458686Y-111413701D01*
X47405030Y-111367208D01*
X47385028Y-111299087D01*
X47405030Y-111230966D01*
X47458686Y-111184473D01*
X47475530Y-111178191D01*
X47504670Y-111169635D01*
X47504672Y-111169634D01*
X47513316Y-111167096D01*
X47583116Y-111122238D01*
X47628691Y-111092949D01*
X47628694Y-111092947D01*
X47636271Y-111088077D01*
X47648701Y-111073732D01*
X47726082Y-110984431D01*
X47726084Y-110984428D01*
X47731984Y-110977619D01*
X47768687Y-110897252D01*
X47788958Y-110852864D01*
X47788958Y-110852863D01*
X47792700Y-110844670D01*
X47794538Y-110831886D01*
X47812861Y-110704448D01*
X47812862Y-110704441D01*
X47813500Y-110700000D01*
X47813500Y-109500000D01*
X47808273Y-109426921D01*
X47778494Y-109325501D01*
X47769635Y-109295330D01*
X47769634Y-109295328D01*
X47767096Y-109286684D01*
X47733964Y-109235130D01*
X47692949Y-109171309D01*
X47692947Y-109171306D01*
X47688077Y-109163729D01*
X47593810Y-109082045D01*
X47555427Y-109022320D01*
X47555427Y-108951324D01*
X47593811Y-108891597D01*
X47607237Y-108881450D01*
X47633309Y-108864356D01*
X47644457Y-108855035D01*
X47758919Y-108734206D01*
X47820288Y-108698508D01*
X47891215Y-108701655D01*
G37*
%TD.AperFunction*%
%TA.AperFunction,Conductor*%
G36*
X59315504Y-110483501D02*
G01*
X59383624Y-110503505D01*
X59430115Y-110557162D01*
X59441500Y-110609500D01*
X59441500Y-111289579D01*
X59448264Y-111343119D01*
X59455890Y-111403485D01*
X59457345Y-111415006D01*
X59460262Y-111422372D01*
X59460262Y-111422374D01*
X59462473Y-111427959D01*
X59518571Y-111569644D01*
X59523230Y-111576057D01*
X59523231Y-111576058D01*
X59529936Y-111585287D01*
X59553999Y-111659347D01*
X59553999Y-111881747D01*
X59558474Y-111896986D01*
X59574098Y-111910524D01*
X59598828Y-111922076D01*
X59636698Y-111982130D01*
X59641501Y-112016588D01*
X59641501Y-112345781D01*
X59621499Y-112413902D01*
X59604596Y-112434876D01*
X59389105Y-112650367D01*
X59326793Y-112684393D01*
X59255978Y-112679328D01*
X59210915Y-112650367D01*
X58995405Y-112434857D01*
X58961379Y-112372545D01*
X58958500Y-112345762D01*
X58958500Y-112017512D01*
X58978502Y-111949391D01*
X59014976Y-111917786D01*
X59014975Y-111917784D01*
X59015015Y-111917752D01*
X59032158Y-111902898D01*
X59034695Y-111902216D01*
X59040430Y-111897688D01*
X59046000Y-111880207D01*
X59046000Y-111662667D01*
X59062316Y-111606511D01*
X59060212Y-111605521D01*
X59063376Y-111598798D01*
X59131026Y-111455033D01*
X59132511Y-111447250D01*
X59132512Y-111447246D01*
X59157386Y-111316852D01*
X59157386Y-111316849D01*
X59158500Y-111311011D01*
X59158500Y-110609500D01*
X59178502Y-110541379D01*
X59232158Y-110494886D01*
X59284504Y-110483500D01*
X59315504Y-110483501D01*
G37*
%TD.AperFunction*%
%TA.AperFunction,Conductor*%
G36*
X97193880Y-99760570D02*
G01*
X97204652Y-99774958D01*
X97206430Y-99777724D01*
X97211923Y-99786271D01*
X97218733Y-99792172D01*
X97315569Y-99876082D01*
X97315572Y-99876084D01*
X97322381Y-99881984D01*
X97330579Y-99885728D01*
X97429757Y-99931021D01*
X97455330Y-99942700D01*
X97464245Y-99943982D01*
X97464246Y-99943982D01*
X97595552Y-99962861D01*
X97595559Y-99962862D01*
X97600000Y-99963500D01*
X98600000Y-99963500D01*
X98673079Y-99958273D01*
X98761130Y-99932419D01*
X98804670Y-99919635D01*
X98804672Y-99919634D01*
X98813316Y-99917096D01*
X98829880Y-99906451D01*
X98898000Y-99886448D01*
X98966121Y-99906449D01*
X99012615Y-99960104D01*
X99024002Y-100012204D01*
X99046413Y-111598798D01*
X99026543Y-111666958D01*
X98972977Y-111713554D01*
X98902723Y-111723794D01*
X98868070Y-111713655D01*
X98752867Y-111661043D01*
X98752864Y-111661042D01*
X98744670Y-111657300D01*
X98735755Y-111656018D01*
X98735754Y-111656018D01*
X98604448Y-111637139D01*
X98604441Y-111637138D01*
X98600000Y-111636500D01*
X97600000Y-111636500D01*
X97526921Y-111641727D01*
X97448835Y-111664655D01*
X97395330Y-111680365D01*
X97395328Y-111680366D01*
X97386684Y-111682904D01*
X97379105Y-111687775D01*
X97271309Y-111757051D01*
X97271306Y-111757053D01*
X97263729Y-111761923D01*
X97257827Y-111768734D01*
X97257825Y-111768736D01*
X97196568Y-111839430D01*
X97136842Y-111877814D01*
X97065846Y-111877814D01*
X97006120Y-111839430D01*
X96995348Y-111825042D01*
X96992950Y-111821311D01*
X96992949Y-111821310D01*
X96988077Y-111813729D01*
X96968779Y-111797007D01*
X96884431Y-111723918D01*
X96884428Y-111723916D01*
X96877619Y-111718016D01*
X96869421Y-111714272D01*
X96752864Y-111661042D01*
X96752863Y-111661042D01*
X96744670Y-111657300D01*
X96735755Y-111656018D01*
X96735754Y-111656018D01*
X96604448Y-111637139D01*
X96604441Y-111637138D01*
X96600000Y-111636500D01*
X95600000Y-111636500D01*
X95526921Y-111641727D01*
X95448835Y-111664655D01*
X95395330Y-111680365D01*
X95395328Y-111680366D01*
X95386684Y-111682904D01*
X95379105Y-111687775D01*
X95271309Y-111757051D01*
X95271306Y-111757053D01*
X95263729Y-111761923D01*
X95257827Y-111768734D01*
X95257825Y-111768736D01*
X95196568Y-111839430D01*
X95136842Y-111877814D01*
X95065846Y-111877814D01*
X95006120Y-111839430D01*
X94995348Y-111825042D01*
X94992950Y-111821311D01*
X94992949Y-111821310D01*
X94988077Y-111813729D01*
X94968779Y-111797007D01*
X94884431Y-111723918D01*
X94884428Y-111723916D01*
X94877619Y-111718016D01*
X94869422Y-111714272D01*
X94869418Y-111714270D01*
X94782157Y-111674419D01*
X94728502Y-111627926D01*
X94708500Y-111559806D01*
X94708500Y-101869936D01*
X94728502Y-101801815D01*
X94745405Y-101780841D01*
X95297581Y-101228665D01*
X95309974Y-101217796D01*
X95327271Y-101204524D01*
X95333820Y-101199499D01*
X95431317Y-101072439D01*
X95435040Y-101063452D01*
X95480484Y-100953737D01*
X95490529Y-100929486D01*
X95492605Y-100924475D01*
X95497384Y-100888172D01*
X95508510Y-100803667D01*
X95508510Y-100803661D01*
X95513509Y-100765689D01*
X95509588Y-100735905D01*
X95508510Y-100719459D01*
X95508510Y-100089500D01*
X95528512Y-100021379D01*
X95582168Y-99974886D01*
X95634510Y-99963500D01*
X96600000Y-99963500D01*
X96673079Y-99958273D01*
X96761130Y-99932419D01*
X96804670Y-99919635D01*
X96804672Y-99919634D01*
X96813316Y-99917096D01*
X96877135Y-99876082D01*
X96928691Y-99842949D01*
X96928694Y-99842947D01*
X96936271Y-99838077D01*
X96948278Y-99824221D01*
X97003432Y-99760570D01*
X97063158Y-99722186D01*
X97134154Y-99722186D01*
X97193880Y-99760570D01*
G37*
%TD.AperFunction*%
%TA.AperFunction,Conductor*%
G36*
X93409534Y-102155183D02*
G01*
X93466369Y-102197730D01*
X93491180Y-102264250D01*
X93491501Y-102273238D01*
X93491500Y-106915768D01*
X93491500Y-111557805D01*
X93471498Y-111625926D01*
X93417842Y-111672419D01*
X93401001Y-111678700D01*
X93386684Y-111682904D01*
X93379105Y-111687775D01*
X93379103Y-111687776D01*
X93271309Y-111757051D01*
X93271306Y-111757053D01*
X93263729Y-111761923D01*
X93257827Y-111768734D01*
X93257825Y-111768736D01*
X93196568Y-111839430D01*
X93136842Y-111877814D01*
X93065846Y-111877814D01*
X93006120Y-111839430D01*
X92995348Y-111825042D01*
X92992950Y-111821311D01*
X92992949Y-111821310D01*
X92988077Y-111813729D01*
X92968779Y-111797007D01*
X92884431Y-111723918D01*
X92884428Y-111723916D01*
X92877619Y-111718016D01*
X92869421Y-111714272D01*
X92752864Y-111661042D01*
X92752863Y-111661042D01*
X92744670Y-111657300D01*
X92735755Y-111656018D01*
X92735754Y-111656018D01*
X92604448Y-111637139D01*
X92604441Y-111637138D01*
X92600000Y-111636500D01*
X91734500Y-111636500D01*
X91666379Y-111616498D01*
X91619886Y-111562842D01*
X91608500Y-111510500D01*
X91608500Y-103904238D01*
X91628502Y-103836117D01*
X91645405Y-103815142D01*
X93276406Y-102184143D01*
X93338718Y-102150118D01*
X93409534Y-102155183D01*
G37*
%TD.AperFunction*%
%TA.AperFunction,Conductor*%
G36*
X93193880Y-99760570D02*
G01*
X93204652Y-99774958D01*
X93206430Y-99777724D01*
X93211923Y-99786271D01*
X93218733Y-99792172D01*
X93315569Y-99876082D01*
X93315572Y-99876084D01*
X93322381Y-99881984D01*
X93330578Y-99885728D01*
X93330582Y-99885730D01*
X93417843Y-99925581D01*
X93471498Y-99972074D01*
X93491500Y-100040194D01*
X93491500Y-100195760D01*
X93471498Y-100263881D01*
X93454596Y-100284855D01*
X92809967Y-100929486D01*
X92596587Y-101142866D01*
X92596579Y-101142872D01*
X92596557Y-101142894D01*
X90602427Y-103137026D01*
X90590036Y-103147893D01*
X90566191Y-103166190D01*
X90468694Y-103293250D01*
X90465534Y-103300880D01*
X90465533Y-103300881D01*
X90457755Y-103319659D01*
X90446026Y-103347977D01*
X90407405Y-103441215D01*
X90386501Y-103600000D01*
X90387579Y-103608188D01*
X90387579Y-103608189D01*
X90390423Y-103629792D01*
X90391501Y-103646238D01*
X90391500Y-111510500D01*
X90371498Y-111578621D01*
X90317842Y-111625114D01*
X90265500Y-111636500D01*
X89600000Y-111636500D01*
X89526921Y-111641727D01*
X89492586Y-111651809D01*
X89482415Y-111654795D01*
X89411418Y-111654795D01*
X89357822Y-111622994D01*
X86937267Y-109202440D01*
X86926400Y-109190049D01*
X86913126Y-109172750D01*
X86908100Y-109166200D01*
X86781040Y-109068703D01*
X86768689Y-109063587D01*
X86640703Y-109010574D01*
X86640699Y-109010573D01*
X86633075Y-109007415D01*
X86624895Y-109006338D01*
X86624891Y-109006337D01*
X86512279Y-108991511D01*
X86512270Y-108991510D01*
X86512267Y-108991510D01*
X86512255Y-108991509D01*
X86482479Y-108987589D01*
X86482478Y-108987589D01*
X86474290Y-108986511D01*
X86466102Y-108987589D01*
X86466101Y-108987589D01*
X86444506Y-108990432D01*
X86428060Y-108991510D01*
X84139500Y-108991510D01*
X84071379Y-108971508D01*
X84024886Y-108917852D01*
X84013500Y-108865510D01*
X84013500Y-108300000D01*
X84008273Y-108226921D01*
X83967096Y-108086684D01*
X83900958Y-107983772D01*
X83892949Y-107971309D01*
X83892947Y-107971306D01*
X83888077Y-107963729D01*
X83881266Y-107957827D01*
X83881264Y-107957825D01*
X83810570Y-107896568D01*
X83772186Y-107836842D01*
X83772186Y-107765846D01*
X83810570Y-107706120D01*
X83824958Y-107695348D01*
X83828689Y-107692950D01*
X83828690Y-107692949D01*
X83836271Y-107688077D01*
X83845135Y-107677848D01*
X83926082Y-107584431D01*
X83926084Y-107584428D01*
X83931984Y-107577619D01*
X83943047Y-107553394D01*
X83988958Y-107452864D01*
X83988958Y-107452863D01*
X83992700Y-107444670D01*
X83997532Y-107411065D01*
X84012861Y-107304448D01*
X84012862Y-107304441D01*
X84013500Y-107300000D01*
X84013500Y-106300000D01*
X84008273Y-106226921D01*
X83995205Y-106182415D01*
X83995205Y-106111418D01*
X84027006Y-106057821D01*
X84090120Y-105994708D01*
X84197588Y-105887240D01*
X84209979Y-105876374D01*
X84227270Y-105863106D01*
X84233820Y-105858080D01*
X84331317Y-105731020D01*
X84387097Y-105596353D01*
X84392605Y-105583056D01*
X84397845Y-105543251D01*
X84408510Y-105462248D01*
X84408510Y-105462243D01*
X84413509Y-105424271D01*
X84409588Y-105394487D01*
X84408510Y-105378041D01*
X84408510Y-105034499D01*
X84428512Y-104966378D01*
X84482168Y-104919885D01*
X84534510Y-104908499D01*
X86128051Y-104908499D01*
X86144497Y-104909577D01*
X86166092Y-104912420D01*
X86166093Y-104912420D01*
X86174281Y-104913498D01*
X86182469Y-104912420D01*
X86182470Y-104912420D01*
X86212246Y-104908500D01*
X86212258Y-104908499D01*
X86212261Y-104908499D01*
X86212270Y-104908498D01*
X86324882Y-104893672D01*
X86324886Y-104893671D01*
X86333066Y-104892594D01*
X86340690Y-104889436D01*
X86340694Y-104889435D01*
X86473400Y-104834467D01*
X86473401Y-104834466D01*
X86481031Y-104831306D01*
X86608091Y-104733809D01*
X86626391Y-104709960D01*
X86637258Y-104697569D01*
X91355475Y-99979354D01*
X91417787Y-99945328D01*
X91462501Y-99943731D01*
X91595552Y-99962861D01*
X91595559Y-99962862D01*
X91600000Y-99963500D01*
X92600000Y-99963500D01*
X92673079Y-99958273D01*
X92761130Y-99932419D01*
X92804670Y-99919635D01*
X92804672Y-99919634D01*
X92813316Y-99917096D01*
X92877135Y-99876082D01*
X92928691Y-99842949D01*
X92928694Y-99842947D01*
X92936271Y-99838077D01*
X92948278Y-99824221D01*
X93003432Y-99760570D01*
X93063158Y-99722186D01*
X93134154Y-99722186D01*
X93193880Y-99760570D01*
G37*
%TD.AperFunction*%
%TA.AperFunction,Conductor*%
G36*
X71460966Y-103328502D02*
G01*
X71481940Y-103345405D01*
X77912938Y-109776405D01*
X77946964Y-109838717D01*
X77941899Y-109909533D01*
X77899352Y-109966368D01*
X77832832Y-109991179D01*
X77823843Y-109991500D01*
X77535634Y-109991500D01*
X77467513Y-109971498D01*
X77446539Y-109954595D01*
X75882850Y-108390906D01*
X71015537Y-103523595D01*
X70981511Y-103461283D01*
X70986576Y-103390468D01*
X71029123Y-103333632D01*
X71095643Y-103308821D01*
X71104632Y-103308500D01*
X71392845Y-103308500D01*
X71460966Y-103328502D01*
G37*
%TD.AperFunction*%
%TA.AperFunction,Conductor*%
G36*
X43744032Y-104840924D02*
G01*
X43789095Y-104869885D01*
X43970115Y-105050905D01*
X44004141Y-105113217D01*
X43999076Y-105184032D01*
X43970115Y-105229095D01*
X43012612Y-106186598D01*
X43005852Y-106198978D01*
X43011133Y-106206032D01*
X43153139Y-106289014D01*
X43168329Y-106296162D01*
X43167565Y-106297785D01*
X43218142Y-106335172D01*
X43243353Y-106401542D01*
X43228679Y-106471006D01*
X43175519Y-106523253D01*
X43057483Y-106584176D01*
X43017625Y-106604748D01*
X42837998Y-106742580D01*
X42782646Y-106803411D01*
X42716758Y-106875822D01*
X42685619Y-106910043D01*
X42682638Y-106914794D01*
X42682638Y-106914795D01*
X42579871Y-107078620D01*
X42565303Y-107101843D01*
X42480854Y-107311918D01*
X42471345Y-107357835D01*
X42439687Y-107510708D01*
X42434940Y-107533628D01*
X42429013Y-107759964D01*
X42463260Y-107983772D01*
X42536600Y-108197979D01*
X42646713Y-108395813D01*
X42650265Y-108400153D01*
X42650268Y-108400157D01*
X42691590Y-108450642D01*
X42790119Y-108571021D01*
X42869034Y-108638420D01*
X42897331Y-108662588D01*
X42936140Y-108722038D01*
X42941501Y-108758399D01*
X42941501Y-109325501D01*
X42921499Y-109393622D01*
X42867843Y-109440115D01*
X42815501Y-109451501D01*
X42504030Y-109451501D01*
X42435909Y-109431499D01*
X42389416Y-109377843D01*
X42379312Y-109307569D01*
X42384402Y-109285938D01*
X42397603Y-109246022D01*
X42400157Y-109235130D01*
X42430743Y-109020219D01*
X42431350Y-109012996D01*
X42432905Y-108953631D01*
X42432677Y-108946379D01*
X42413380Y-108730166D01*
X42411398Y-108719152D01*
X42354640Y-108511679D01*
X42350746Y-108501206D01*
X42258142Y-108307057D01*
X42252447Y-108297428D01*
X42229292Y-108265205D01*
X42218500Y-108256792D01*
X42205463Y-108263747D01*
X41249095Y-109220115D01*
X41186783Y-109254141D01*
X41115968Y-109249076D01*
X41070905Y-109220115D01*
X40114544Y-108263754D01*
X40100600Y-108256140D01*
X40095595Y-108256497D01*
X40043488Y-108275932D01*
X39974114Y-108260840D01*
X39923912Y-108210637D01*
X39908500Y-108150253D01*
X39908500Y-107236519D01*
X39928502Y-107168398D01*
X39982158Y-107121905D01*
X40052432Y-107111801D01*
X40117012Y-107141295D01*
X40132004Y-107156713D01*
X40246566Y-107296681D01*
X40246571Y-107296686D01*
X40250119Y-107301021D01*
X40254382Y-107304662D01*
X40254383Y-107304663D01*
X40280317Y-107326813D01*
X40422285Y-107448065D01*
X40488711Y-107486881D01*
X40612923Y-107559465D01*
X40612926Y-107559466D01*
X40617770Y-107562297D01*
X40623040Y-107564226D01*
X40628118Y-107566615D01*
X40627385Y-107568174D01*
X40678161Y-107605693D01*
X40703386Y-107672057D01*
X40688727Y-107741524D01*
X40635555Y-107793795D01*
X40482875Y-107872599D01*
X40473442Y-107878586D01*
X40473303Y-107878693D01*
X40464839Y-107890285D01*
X40471471Y-107902261D01*
X41147188Y-108577978D01*
X41161132Y-108585592D01*
X41162965Y-108585461D01*
X41169580Y-108581210D01*
X41846022Y-107904768D01*
X41852247Y-107893369D01*
X41842437Y-107880938D01*
X41777929Y-107837592D01*
X41768139Y-107832210D01*
X41688469Y-107797237D01*
X41634133Y-107751541D01*
X41613128Y-107683723D01*
X41632122Y-107615314D01*
X41685086Y-107568034D01*
X41694574Y-107563998D01*
X41709017Y-107558540D01*
X41709019Y-107558539D01*
X41714267Y-107556556D01*
X41719551Y-107553394D01*
X41805061Y-107502217D01*
X41908545Y-107440283D01*
X42038618Y-107326813D01*
X42074930Y-107295136D01*
X42074931Y-107295135D01*
X42079162Y-107291444D01*
X42220725Y-107114744D01*
X42240827Y-107077721D01*
X42326087Y-106920694D01*
X42326089Y-106920688D01*
X42328761Y-106915768D01*
X42393809Y-106719080D01*
X42398093Y-106706127D01*
X42398093Y-106706126D01*
X42399853Y-106700805D01*
X42419320Y-106564023D01*
X42431244Y-106480241D01*
X42431244Y-106480240D01*
X42431755Y-106476650D01*
X42433500Y-106410000D01*
X42413373Y-106184483D01*
X42374372Y-106041918D01*
X42355111Y-105971509D01*
X42355110Y-105971505D01*
X42353629Y-105966093D01*
X42325800Y-105907748D01*
X42258570Y-105766798D01*
X42258567Y-105766793D01*
X42256155Y-105761736D01*
X42252884Y-105757183D01*
X42252881Y-105757179D01*
X42220436Y-105712028D01*
X42206748Y-105692979D01*
X42183240Y-105625988D01*
X42199681Y-105556922D01*
X42214993Y-105535635D01*
X42227755Y-105521311D01*
X42232737Y-105516034D01*
X42280428Y-105468343D01*
X42342740Y-105434317D01*
X42413555Y-105439382D01*
X42470391Y-105481929D01*
X42488730Y-105516625D01*
X42535238Y-105652465D01*
X42539788Y-105662682D01*
X42630496Y-105825653D01*
X42640548Y-105835544D01*
X42648152Y-105832638D01*
X43610905Y-104869885D01*
X43673217Y-104835859D01*
X43744032Y-104840924D01*
G37*
%TD.AperFunction*%
%TA.AperFunction,Conductor*%
G36*
X73249171Y-102684501D02*
G01*
X73270145Y-102701404D01*
X74628104Y-104059363D01*
X74634888Y-104066818D01*
X74638774Y-104072941D01*
X74644551Y-104078366D01*
X74685067Y-104116413D01*
X74687909Y-104119168D01*
X74712367Y-104143626D01*
X74715496Y-104146053D01*
X74717327Y-104147474D01*
X74726341Y-104155173D01*
X74733420Y-104161820D01*
X74760014Y-104186793D01*
X74766959Y-104190611D01*
X74778802Y-104197122D01*
X74795325Y-104207975D01*
X74812261Y-104221112D01*
X74819536Y-104224260D01*
X74854628Y-104239446D01*
X74865288Y-104244668D01*
X74898817Y-104263101D01*
X74898820Y-104263102D01*
X74905759Y-104266917D01*
X74926525Y-104272249D01*
X74945222Y-104278651D01*
X74957626Y-104284018D01*
X74957631Y-104284019D01*
X74964900Y-104287165D01*
X74972720Y-104288404D01*
X74972728Y-104288406D01*
X75010508Y-104294390D01*
X75022128Y-104296796D01*
X75061096Y-104306801D01*
X75061102Y-104306802D01*
X75066851Y-104308278D01*
X75070538Y-104308510D01*
X75089746Y-104308510D01*
X75109456Y-104310061D01*
X75129168Y-104313183D01*
X75137060Y-104312437D01*
X75172689Y-104309069D01*
X75184547Y-104308510D01*
X81060500Y-104308510D01*
X81128621Y-104328512D01*
X81175114Y-104382168D01*
X81186500Y-104434510D01*
X81186500Y-105265490D01*
X81166498Y-105333611D01*
X81112842Y-105380104D01*
X81060500Y-105391490D01*
X80646248Y-105391490D01*
X80629802Y-105390412D01*
X80608199Y-105387568D01*
X80608198Y-105387568D01*
X80600010Y-105386490D01*
X80441224Y-105407394D01*
X80359553Y-105441224D01*
X80308796Y-105462248D01*
X80293260Y-105468683D01*
X80166200Y-105566180D01*
X80147904Y-105590024D01*
X80137043Y-105602408D01*
X79996357Y-105743095D01*
X79878288Y-105861164D01*
X79815975Y-105895189D01*
X79802363Y-105897379D01*
X79793448Y-105898316D01*
X79732321Y-105904740D01*
X79732317Y-105904741D01*
X79725313Y-105905477D01*
X79718642Y-105907748D01*
X79560299Y-105961652D01*
X79560296Y-105961653D01*
X79553629Y-105963923D01*
X79399159Y-106058953D01*
X79269583Y-106185844D01*
X79265772Y-106191758D01*
X79265770Y-106191760D01*
X79231121Y-106245525D01*
X79171338Y-106338289D01*
X79168927Y-106344914D01*
X79111720Y-106502089D01*
X79111719Y-106502093D01*
X79109310Y-106508712D01*
X79086579Y-106688642D01*
X79104277Y-106869136D01*
X79106501Y-106875821D01*
X79106501Y-106875822D01*
X79126010Y-106934468D01*
X79161523Y-107041224D01*
X79165170Y-107047246D01*
X79165171Y-107047248D01*
X79231485Y-107156745D01*
X79255472Y-107196353D01*
X79381456Y-107326813D01*
X79387348Y-107330668D01*
X79387352Y-107330672D01*
X79475361Y-107388263D01*
X79533211Y-107426119D01*
X79703197Y-107489336D01*
X79710178Y-107490267D01*
X79710180Y-107490268D01*
X79759766Y-107496884D01*
X79882963Y-107513322D01*
X79889974Y-107512684D01*
X79889978Y-107512684D01*
X80030059Y-107499934D01*
X80063577Y-107496884D01*
X80070279Y-107494706D01*
X80070281Y-107494706D01*
X80229361Y-107443018D01*
X80229364Y-107443017D01*
X80236060Y-107440841D01*
X80375304Y-107357835D01*
X80385789Y-107351585D01*
X80385791Y-107351584D01*
X80391841Y-107347977D01*
X80523177Y-107222908D01*
X80606772Y-107097087D01*
X80619639Y-107077721D01*
X80619640Y-107077719D01*
X80623540Y-107071849D01*
X80687942Y-106902309D01*
X80697569Y-106833810D01*
X80703285Y-106793142D01*
X80732574Y-106728469D01*
X80738964Y-106721584D01*
X80815153Y-106645395D01*
X80877465Y-106611369D01*
X80904248Y-106608490D01*
X81060500Y-106608490D01*
X81128621Y-106628492D01*
X81175114Y-106682148D01*
X81186500Y-106734490D01*
X81186500Y-107300000D01*
X81191727Y-107373079D01*
X81211460Y-107440283D01*
X81227762Y-107495803D01*
X81232904Y-107513316D01*
X81237775Y-107520895D01*
X81307051Y-107628691D01*
X81307053Y-107628694D01*
X81311923Y-107636271D01*
X81318734Y-107642173D01*
X81318736Y-107642175D01*
X81389430Y-107703432D01*
X81427814Y-107763158D01*
X81427814Y-107834154D01*
X81389430Y-107893880D01*
X81375042Y-107904652D01*
X81374862Y-107904768D01*
X81363729Y-107911923D01*
X81357828Y-107918733D01*
X81273918Y-108015569D01*
X81273916Y-108015572D01*
X81268016Y-108022381D01*
X81264272Y-108030579D01*
X81215023Y-108138420D01*
X81207300Y-108155330D01*
X81206018Y-108164245D01*
X81206018Y-108164246D01*
X81187139Y-108295552D01*
X81187138Y-108295559D01*
X81186500Y-108300000D01*
X81186500Y-108865510D01*
X81166498Y-108933631D01*
X81112842Y-108980124D01*
X81060500Y-108991510D01*
X78901331Y-108991510D01*
X78833210Y-108971508D01*
X78812236Y-108954605D01*
X77294229Y-107436598D01*
X72737223Y-102879594D01*
X72703197Y-102817282D01*
X72708262Y-102746467D01*
X72750809Y-102689631D01*
X72817329Y-102664820D01*
X72826318Y-102664499D01*
X73181050Y-102664499D01*
X73249171Y-102684501D01*
G37*
%TD.AperFunction*%
%TA.AperFunction,Conductor*%
G36*
X65003000Y-103246001D02*
G01*
X65071121Y-103266003D01*
X65117614Y-103319659D01*
X65129000Y-103372001D01*
X65128999Y-104463350D01*
X65133104Y-104477332D01*
X65146270Y-104479375D01*
X65237533Y-104468331D01*
X65252176Y-104464735D01*
X65398226Y-104409547D01*
X65411587Y-104402562D01*
X65540255Y-104314131D01*
X65551567Y-104304158D01*
X65602745Y-104246717D01*
X65662995Y-104209161D01*
X65733985Y-104210141D01*
X65789018Y-104245712D01*
X65789796Y-104246845D01*
X65795465Y-104251896D01*
X65795466Y-104251897D01*
X65903158Y-104347847D01*
X65940714Y-104408097D01*
X65939734Y-104479087D01*
X65908434Y-104531018D01*
X65152423Y-105287029D01*
X65140032Y-105297896D01*
X65116191Y-105316190D01*
X65018694Y-105443250D01*
X65015534Y-105450880D01*
X65015533Y-105450881D01*
X65004416Y-105477721D01*
X64989605Y-105513479D01*
X64976468Y-105545194D01*
X64973047Y-105553453D01*
X64928497Y-105608733D01*
X64861133Y-105631152D01*
X64792343Y-105613592D01*
X64767544Y-105594327D01*
X64645384Y-105472167D01*
X64611358Y-105409855D01*
X64616423Y-105339040D01*
X64629531Y-105313345D01*
X64719639Y-105177721D01*
X64719640Y-105177719D01*
X64723540Y-105171849D01*
X64787942Y-105002309D01*
X64811827Y-104832365D01*
X64812632Y-104826636D01*
X64812632Y-104826633D01*
X64813183Y-104822714D01*
X64813500Y-104800000D01*
X64793284Y-104619770D01*
X64733641Y-104448498D01*
X64724901Y-104434510D01*
X64678383Y-104360067D01*
X64640146Y-104298874D01*
X64621000Y-104232105D01*
X64621001Y-103372000D01*
X64641003Y-103303879D01*
X64694659Y-103257386D01*
X64747001Y-103246000D01*
X65003000Y-103246001D01*
G37*
%TD.AperFunction*%
%TA.AperFunction,Conductor*%
G36*
X47547067Y-97428502D02*
G01*
X47593560Y-97482158D01*
X47603664Y-97552432D01*
X47574170Y-97617012D01*
X47547068Y-97640497D01*
X47513729Y-97661923D01*
X47507828Y-97668733D01*
X47423918Y-97765569D01*
X47423916Y-97765572D01*
X47418016Y-97772381D01*
X47414272Y-97780579D01*
X47385942Y-97842614D01*
X47357300Y-97905330D01*
X47356018Y-97914245D01*
X47356018Y-97914246D01*
X47337139Y-98045552D01*
X47337138Y-98045559D01*
X47336500Y-98050000D01*
X47336500Y-100050000D01*
X47341727Y-100123079D01*
X47358527Y-100180296D01*
X47377213Y-100243933D01*
X47382904Y-100263316D01*
X47398432Y-100287478D01*
X47457051Y-100378691D01*
X47457053Y-100378694D01*
X47461923Y-100386271D01*
X47468733Y-100392172D01*
X47565569Y-100476082D01*
X47565572Y-100476084D01*
X47572381Y-100481984D01*
X47705330Y-100542700D01*
X47714245Y-100543982D01*
X47714246Y-100543982D01*
X47845552Y-100562861D01*
X47845559Y-100562862D01*
X47850000Y-100563500D01*
X48615500Y-100563500D01*
X48683621Y-100583502D01*
X48730114Y-100637158D01*
X48741500Y-100689500D01*
X48741501Y-103843141D01*
X48721499Y-103911262D01*
X48683621Y-103949139D01*
X48664880Y-103961183D01*
X48596759Y-103981185D01*
X48528639Y-103961183D01*
X48514248Y-103950410D01*
X48484160Y-103924338D01*
X48469152Y-103914693D01*
X48352725Y-103861523D01*
X48335612Y-103856498D01*
X48204446Y-103837639D01*
X48195505Y-103837000D01*
X47722115Y-103837000D01*
X47706876Y-103841475D01*
X47705671Y-103842865D01*
X47704000Y-103850548D01*
X47703999Y-105478000D01*
X47683997Y-105546121D01*
X47630341Y-105592614D01*
X47577999Y-105604000D01*
X47322000Y-105603999D01*
X47253879Y-105583997D01*
X47207386Y-105530341D01*
X47196000Y-105477999D01*
X47196001Y-103855115D01*
X47191526Y-103839876D01*
X47190136Y-103838671D01*
X47182453Y-103837000D01*
X46702257Y-103837000D01*
X46697750Y-103837161D01*
X46633731Y-103841740D01*
X46620509Y-103844126D01*
X46495542Y-103880819D01*
X46479308Y-103888233D01*
X46371640Y-103957426D01*
X46358152Y-103969113D01*
X46356888Y-103970572D01*
X46355264Y-103971616D01*
X46351342Y-103975014D01*
X46350853Y-103974450D01*
X46297161Y-104008955D01*
X46226165Y-104008955D01*
X46166439Y-103970571D01*
X46139958Y-103920671D01*
X46131195Y-103887966D01*
X46131193Y-103887962D01*
X46129486Y-103881590D01*
X46126491Y-103875711D01*
X46126488Y-103875704D01*
X46123395Y-103869633D01*
X46115834Y-103851379D01*
X46113727Y-103844896D01*
X46113724Y-103844890D01*
X46111685Y-103838614D01*
X46078466Y-103781077D01*
X46075319Y-103775281D01*
X46048155Y-103721968D01*
X46045159Y-103716088D01*
X46041005Y-103710958D01*
X46041001Y-103710952D01*
X46036718Y-103705663D01*
X46025518Y-103689368D01*
X46022111Y-103683467D01*
X46018812Y-103677753D01*
X46014398Y-103672850D01*
X46014393Y-103672844D01*
X45974352Y-103628375D01*
X45970080Y-103623374D01*
X45958367Y-103608909D01*
X45945216Y-103595758D01*
X45940675Y-103590973D01*
X45898945Y-103544627D01*
X45898944Y-103544626D01*
X45894523Y-103539716D01*
X45882979Y-103531329D01*
X45867951Y-103518493D01*
X45458278Y-103108820D01*
X45010405Y-102660948D01*
X44976380Y-102598635D01*
X44973500Y-102571852D01*
X44973500Y-101840000D01*
X44968273Y-101766921D01*
X44927096Y-101626684D01*
X44899659Y-101583992D01*
X44852949Y-101511309D01*
X44852947Y-101511306D01*
X44848077Y-101503729D01*
X44810881Y-101471498D01*
X44744431Y-101413918D01*
X44744428Y-101413916D01*
X44737619Y-101408016D01*
X44697747Y-101389807D01*
X44612864Y-101351042D01*
X44612863Y-101351042D01*
X44604670Y-101347300D01*
X44595755Y-101346018D01*
X44595754Y-101346018D01*
X44464448Y-101327139D01*
X44464441Y-101327138D01*
X44460000Y-101326500D01*
X42940000Y-101326500D01*
X42866921Y-101331727D01*
X42793879Y-101353174D01*
X42735330Y-101370365D01*
X42735328Y-101370366D01*
X42726684Y-101372904D01*
X42709792Y-101383760D01*
X42611309Y-101447051D01*
X42611306Y-101447053D01*
X42603729Y-101451923D01*
X42597828Y-101458733D01*
X42513918Y-101555569D01*
X42513916Y-101555572D01*
X42508016Y-101562381D01*
X42504272Y-101570579D01*
X42498147Y-101583992D01*
X42447300Y-101695330D01*
X42446018Y-101704245D01*
X42446018Y-101704246D01*
X42427139Y-101835552D01*
X42427138Y-101835559D01*
X42426500Y-101840000D01*
X42426500Y-102819340D01*
X42406498Y-102887461D01*
X42389595Y-102908435D01*
X42280873Y-103017157D01*
X42218561Y-103051183D01*
X42147746Y-103046118D01*
X42104093Y-103018546D01*
X41965468Y-102884208D01*
X41965465Y-102884206D01*
X41961440Y-102880305D01*
X41924224Y-102855297D01*
X41878839Y-102800701D01*
X41868500Y-102750715D01*
X41868500Y-99985659D01*
X41888502Y-99917538D01*
X41905405Y-99896564D01*
X44356565Y-97445405D01*
X44418877Y-97411379D01*
X44445660Y-97408500D01*
X47478946Y-97408500D01*
X47547067Y-97428502D01*
G37*
%TD.AperFunction*%
%TA.AperFunction,Conductor*%
G36*
X52372012Y-98774436D02*
G01*
X52378578Y-98780549D01*
X53180681Y-99582652D01*
X53186520Y-99588903D01*
X53215608Y-99622247D01*
X53222575Y-99630234D01*
X53274843Y-99666969D01*
X53280127Y-99670893D01*
X53330388Y-99710302D01*
X53337312Y-99713428D01*
X53339625Y-99714829D01*
X53354241Y-99723166D01*
X53356618Y-99724441D01*
X53362835Y-99728810D01*
X53369914Y-99731570D01*
X53369916Y-99731571D01*
X53373610Y-99733011D01*
X53422348Y-99752013D01*
X53428417Y-99754563D01*
X53441720Y-99760570D01*
X53479711Y-99777724D01*
X53479713Y-99777725D01*
X53486635Y-99780850D01*
X53494105Y-99782234D01*
X53496670Y-99783038D01*
X53512902Y-99787662D01*
X53515483Y-99788325D01*
X53522560Y-99791084D01*
X53585896Y-99799422D01*
X53592388Y-99800450D01*
X53655199Y-99812092D01*
X53662779Y-99811655D01*
X53662780Y-99811655D01*
X53694690Y-99809815D01*
X53713869Y-99808709D01*
X53721120Y-99808500D01*
X53847910Y-99808500D01*
X53916031Y-99828502D01*
X53962524Y-99882158D01*
X53972628Y-99952432D01*
X53956864Y-99997785D01*
X53926889Y-100049391D01*
X53921088Y-100062732D01*
X53875538Y-100213124D01*
X53873089Y-100225750D01*
X53867250Y-100291179D01*
X53867000Y-100296780D01*
X53867000Y-100327885D01*
X53871475Y-100343124D01*
X53872865Y-100344329D01*
X53880548Y-100346000D01*
X54570998Y-100346001D01*
X54571004Y-100346000D01*
X54840510Y-100346001D01*
X54908631Y-100366003D01*
X54955124Y-100419659D01*
X54966510Y-100472001D01*
X54966510Y-102228000D01*
X54946508Y-102296121D01*
X54892852Y-102342614D01*
X54840510Y-102354000D01*
X53885115Y-102353999D01*
X53869876Y-102358474D01*
X53868671Y-102359864D01*
X53867000Y-102367547D01*
X53867000Y-102412528D01*
X53867456Y-102420083D01*
X53881668Y-102537526D01*
X53883915Y-102546675D01*
X53880739Y-102617601D01*
X53839723Y-102675551D01*
X53773888Y-102702126D01*
X53735356Y-102699978D01*
X53701946Y-102692877D01*
X53701947Y-102692877D01*
X53695487Y-102691504D01*
X53504513Y-102691504D01*
X53498061Y-102692876D01*
X53498056Y-102692876D01*
X53399869Y-102713747D01*
X53373672Y-102716500D01*
X52926328Y-102716500D01*
X52900131Y-102713747D01*
X52801944Y-102692876D01*
X52801939Y-102692876D01*
X52795487Y-102691504D01*
X52604513Y-102691504D01*
X52598061Y-102692876D01*
X52598056Y-102692876D01*
X52499869Y-102713747D01*
X52473672Y-102716500D01*
X52026328Y-102716500D01*
X52000131Y-102713747D01*
X51901944Y-102692876D01*
X51901939Y-102692876D01*
X51895487Y-102691504D01*
X51704513Y-102691504D01*
X51698061Y-102692876D01*
X51698056Y-102692876D01*
X51599869Y-102713747D01*
X51573672Y-102716500D01*
X51317108Y-102716500D01*
X51297399Y-102714949D01*
X51283312Y-102712718D01*
X51276724Y-102713063D01*
X51276720Y-102713063D01*
X51214446Y-102716327D01*
X51207852Y-102716500D01*
X51189240Y-102716500D01*
X51185955Y-102716845D01*
X51185942Y-102716846D01*
X51170724Y-102718446D01*
X51164155Y-102718963D01*
X51137189Y-102720376D01*
X51104414Y-102722093D01*
X51104410Y-102722094D01*
X51097819Y-102722439D01*
X51091445Y-102724147D01*
X51091438Y-102724148D01*
X51084863Y-102725910D01*
X51065428Y-102729512D01*
X51058657Y-102730224D01*
X51058649Y-102730226D01*
X51052082Y-102730916D01*
X51045801Y-102732957D01*
X51045800Y-102732957D01*
X50988893Y-102751447D01*
X50982569Y-102753320D01*
X50918402Y-102770514D01*
X50917703Y-102767907D01*
X50858875Y-102772670D01*
X50796246Y-102739232D01*
X50761637Y-102677242D01*
X50758500Y-102649303D01*
X50758500Y-100867547D01*
X53867000Y-100867547D01*
X53867000Y-100889222D01*
X53867425Y-100896526D01*
X53880946Y-101012504D01*
X53884291Y-101026656D01*
X53937617Y-101173566D01*
X53944127Y-101186565D01*
X53998167Y-101268990D01*
X54018790Y-101336925D01*
X53996262Y-101409981D01*
X53985968Y-101424793D01*
X53912913Y-101562770D01*
X53907508Y-101576850D01*
X53869028Y-101730040D01*
X53867259Y-101741400D01*
X53867126Y-101743527D01*
X53867000Y-101747518D01*
X53867000Y-101827885D01*
X53871475Y-101843124D01*
X53872865Y-101844329D01*
X53880548Y-101846000D01*
X54502885Y-101846001D01*
X54518124Y-101841526D01*
X54519329Y-101840136D01*
X54521000Y-101832453D01*
X54521001Y-101173904D01*
X54541003Y-101105783D01*
X54551776Y-101091392D01*
X54569329Y-101071135D01*
X54571000Y-101063452D01*
X54571001Y-100872116D01*
X54566526Y-100856876D01*
X54565135Y-100855671D01*
X54557456Y-100854000D01*
X53885115Y-100853999D01*
X53869876Y-100858474D01*
X53868671Y-100859864D01*
X53867000Y-100867547D01*
X50758500Y-100867547D01*
X50758500Y-100689500D01*
X50778502Y-100621379D01*
X50832158Y-100574886D01*
X50884500Y-100563500D01*
X51650000Y-100563500D01*
X51723079Y-100558273D01*
X51801165Y-100535345D01*
X51854670Y-100519635D01*
X51854672Y-100519634D01*
X51863316Y-100517096D01*
X51933485Y-100472001D01*
X51978691Y-100442949D01*
X51978694Y-100442947D01*
X51986271Y-100438077D01*
X51992172Y-100431267D01*
X52076082Y-100334431D01*
X52076084Y-100334428D01*
X52081984Y-100327619D01*
X52093011Y-100303473D01*
X52138958Y-100202864D01*
X52138958Y-100202863D01*
X52142700Y-100194670D01*
X52143982Y-100185754D01*
X52162861Y-100054448D01*
X52162862Y-100054441D01*
X52163500Y-100050000D01*
X52163500Y-98869660D01*
X52183502Y-98801539D01*
X52237158Y-98755046D01*
X52307432Y-98744942D01*
X52372012Y-98774436D01*
G37*
%TD.AperFunction*%
%TA.AperFunction,Conductor*%
G36*
X62513883Y-100878502D02*
G01*
X62534858Y-100895405D01*
X62730844Y-101091392D01*
X63310856Y-101671405D01*
X63344881Y-101733717D01*
X63339816Y-101804533D01*
X63297269Y-101861368D01*
X63230749Y-101886179D01*
X63221760Y-101886500D01*
X62550000Y-101886500D01*
X62476921Y-101891727D01*
X62410656Y-101911184D01*
X62345330Y-101930365D01*
X62345328Y-101930366D01*
X62336684Y-101932904D01*
X62329105Y-101937775D01*
X62221309Y-102007051D01*
X62221306Y-102007053D01*
X62213729Y-102011923D01*
X62207829Y-102018732D01*
X62207477Y-102019037D01*
X62142896Y-102048530D01*
X62082703Y-102042512D01*
X62047232Y-102029882D01*
X61989770Y-101988190D01*
X61963969Y-101922048D01*
X61963500Y-101911184D01*
X61963500Y-101450000D01*
X61958273Y-101376921D01*
X61920284Y-101247540D01*
X61919635Y-101245330D01*
X61919634Y-101245328D01*
X61917096Y-101236684D01*
X61911943Y-101228665D01*
X61839096Y-101115314D01*
X61819094Y-101047193D01*
X61839096Y-100979072D01*
X61849870Y-100964680D01*
X61876083Y-100934429D01*
X61881984Y-100927619D01*
X61885727Y-100919423D01*
X61887684Y-100916378D01*
X61941340Y-100869886D01*
X61993681Y-100858500D01*
X62445762Y-100858500D01*
X62513883Y-100878502D01*
G37*
%TD.AperFunction*%
%TA.AperFunction,Conductor*%
G36*
X57983794Y-97978492D02*
G01*
X58030287Y-98032148D01*
X58040391Y-98102422D01*
X58038776Y-98109896D01*
X58037836Y-98112069D01*
X58036596Y-98119897D01*
X58036595Y-98119901D01*
X58030613Y-98157676D01*
X58028209Y-98169285D01*
X58016723Y-98214019D01*
X58016491Y-98217706D01*
X58016491Y-98236915D01*
X58014940Y-98256625D01*
X58011818Y-98276337D01*
X58012564Y-98284229D01*
X58015932Y-98319860D01*
X58016491Y-98331717D01*
X58016490Y-101070422D01*
X58016016Y-101080476D01*
X58014435Y-101087549D01*
X58014684Y-101095472D01*
X58016428Y-101150969D01*
X58016490Y-101154927D01*
X58016490Y-101189568D01*
X58016987Y-101193501D01*
X58017277Y-101195799D01*
X58018209Y-101207633D01*
X58019659Y-101253784D01*
X58021872Y-101261399D01*
X58021872Y-101261402D01*
X58025638Y-101274365D01*
X58029649Y-101293729D01*
X58032335Y-101314995D01*
X58035254Y-101322367D01*
X58037225Y-101330045D01*
X58035018Y-101330612D01*
X58040448Y-101389807D01*
X58007681Y-101452789D01*
X57946064Y-101488058D01*
X57916815Y-101491500D01*
X57321578Y-101491500D01*
X57253457Y-101471498D01*
X57217739Y-101436869D01*
X57203787Y-101416569D01*
X57203106Y-101415578D01*
X57181006Y-101348111D01*
X57197992Y-101280925D01*
X57273573Y-101150803D01*
X57277248Y-101144476D01*
X57286081Y-101115314D01*
X57317219Y-101012504D01*
X57326828Y-100980777D01*
X57328192Y-100965500D01*
X57333251Y-100908815D01*
X57333251Y-100908809D01*
X57333500Y-100906022D01*
X57333500Y-100307114D01*
X57318693Y-100180109D01*
X57316154Y-100173112D01*
X57262830Y-100026210D01*
X57260333Y-100019331D01*
X57255661Y-100012204D01*
X57220618Y-99958755D01*
X57202434Y-99931020D01*
X57181811Y-99863086D01*
X57204341Y-99790026D01*
X57205835Y-99787876D01*
X57210889Y-99782204D01*
X57215721Y-99773079D01*
X57239737Y-99727720D01*
X57291109Y-99630696D01*
X57332874Y-99464425D01*
X57333237Y-99458662D01*
X57333375Y-99456470D01*
X57333376Y-99456454D01*
X57333500Y-99454475D01*
X57333500Y-98783684D01*
X57317904Y-98654807D01*
X57257306Y-98494439D01*
X57231586Y-98457016D01*
X57209659Y-98425112D01*
X57187559Y-98357643D01*
X57205445Y-98288936D01*
X57206908Y-98286672D01*
X57210889Y-98282204D01*
X57291109Y-98130696D01*
X57306262Y-98070370D01*
X57310426Y-98053794D01*
X57346421Y-97992598D01*
X57409787Y-97960578D01*
X57432630Y-97958490D01*
X57915673Y-97958490D01*
X57983794Y-97978492D01*
G37*
%TD.AperFunction*%
%TA.AperFunction,Conductor*%
G36*
X71763884Y-99028502D02*
G01*
X71784858Y-99045405D01*
X73959497Y-101220046D01*
X73993523Y-101282358D01*
X73988458Y-101353174D01*
X73945911Y-101410009D01*
X73879391Y-101434820D01*
X73820364Y-101424778D01*
X73801387Y-101416566D01*
X73790730Y-101411346D01*
X73757201Y-101392913D01*
X73757199Y-101392912D01*
X73750250Y-101389092D01*
X73729482Y-101383760D01*
X73710773Y-101377355D01*
X73709770Y-101376921D01*
X73691108Y-101368845D01*
X73683281Y-101367605D01*
X73683280Y-101367605D01*
X73645513Y-101361623D01*
X73633891Y-101359216D01*
X73610284Y-101353155D01*
X73589158Y-101347731D01*
X73585471Y-101347499D01*
X73566256Y-101347499D01*
X73546545Y-101345948D01*
X73534669Y-101344067D01*
X73526840Y-101342827D01*
X73518948Y-101343573D01*
X73483327Y-101346940D01*
X73471470Y-101347499D01*
X70614936Y-101347499D01*
X70546815Y-101327497D01*
X70500322Y-101273841D01*
X70490218Y-101203567D01*
X70491565Y-101195999D01*
X70493538Y-101189927D01*
X70497426Y-101152942D01*
X70512810Y-101006565D01*
X70513500Y-101000000D01*
X70501747Y-100888173D01*
X70494228Y-100816637D01*
X70494228Y-100816636D01*
X70493538Y-100810073D01*
X70489667Y-100798158D01*
X70483500Y-100759223D01*
X70483500Y-100180296D01*
X70485051Y-100160585D01*
X70486250Y-100153016D01*
X70487282Y-100146500D01*
X70486875Y-100138717D01*
X70483673Y-100077634D01*
X70483500Y-100071040D01*
X70483500Y-100052428D01*
X70483155Y-100049143D01*
X70483154Y-100049130D01*
X70481554Y-100033912D01*
X70481036Y-100027330D01*
X70480978Y-100026210D01*
X70478853Y-99985659D01*
X70477907Y-99967602D01*
X70477906Y-99967598D01*
X70477561Y-99961007D01*
X70475853Y-99954633D01*
X70475852Y-99954626D01*
X70474090Y-99948051D01*
X70470488Y-99928616D01*
X70469776Y-99921845D01*
X70469774Y-99921837D01*
X70469084Y-99915270D01*
X70466458Y-99907186D01*
X70448553Y-99852081D01*
X70446680Y-99845757D01*
X70431195Y-99787966D01*
X70431193Y-99787962D01*
X70429486Y-99781590D01*
X70426491Y-99775711D01*
X70426488Y-99775704D01*
X70423395Y-99769633D01*
X70415834Y-99751379D01*
X70413727Y-99744896D01*
X70413724Y-99744890D01*
X70411685Y-99738614D01*
X70378466Y-99681077D01*
X70375319Y-99675281D01*
X70348155Y-99621968D01*
X70345159Y-99616088D01*
X70341005Y-99610958D01*
X70341001Y-99610952D01*
X70336718Y-99605663D01*
X70325518Y-99589368D01*
X70322111Y-99583467D01*
X70318812Y-99577753D01*
X70314398Y-99572850D01*
X70314393Y-99572844D01*
X70274352Y-99528375D01*
X70270080Y-99523374D01*
X70258367Y-99508909D01*
X70245216Y-99495758D01*
X70240675Y-99490973D01*
X70198945Y-99444627D01*
X70198944Y-99444626D01*
X70194523Y-99439716D01*
X70182979Y-99431329D01*
X70167951Y-99418492D01*
X70120483Y-99371024D01*
X70086457Y-99308712D01*
X70091522Y-99237897D01*
X70134069Y-99181061D01*
X70170642Y-99162097D01*
X70185841Y-99157158D01*
X70229359Y-99143019D01*
X70229365Y-99143016D01*
X70236060Y-99140841D01*
X70352342Y-99071523D01*
X70385789Y-99051585D01*
X70385791Y-99051584D01*
X70391841Y-99047977D01*
X70396942Y-99043120D01*
X70402555Y-99038859D01*
X70403337Y-99039889D01*
X70459930Y-99010761D01*
X70483693Y-99008500D01*
X71695763Y-99008500D01*
X71763884Y-99028502D01*
G37*
%TD.AperFunction*%
%TA.AperFunction,Conductor*%
G36*
X77025811Y-98428501D02*
G01*
X77072304Y-98482157D01*
X77082408Y-98552431D01*
X77058584Y-98609973D01*
X77055386Y-98614248D01*
X76976888Y-98749393D01*
X76971088Y-98762731D01*
X76925541Y-98913118D01*
X76923090Y-98925754D01*
X76917249Y-98991189D01*
X76917000Y-98996779D01*
X76917000Y-99002885D01*
X76921475Y-99018124D01*
X76922865Y-99019329D01*
X76930548Y-99021000D01*
X77645998Y-99021001D01*
X77646004Y-99021000D01*
X78797000Y-99021001D01*
X78865121Y-99041003D01*
X78911614Y-99094659D01*
X78923000Y-99147001D01*
X78923000Y-99177885D01*
X78927475Y-99193124D01*
X78928865Y-99194329D01*
X78936548Y-99196000D01*
X79645998Y-99196001D01*
X79646004Y-99196000D01*
X81114885Y-99196001D01*
X81130124Y-99191526D01*
X81131329Y-99190136D01*
X81133000Y-99182453D01*
X81133000Y-99160778D01*
X81132576Y-99153477D01*
X81118383Y-99031746D01*
X81115037Y-99017591D01*
X81107037Y-98995551D01*
X81102596Y-98924693D01*
X81137169Y-98862683D01*
X81199779Y-98829208D01*
X81270547Y-98834897D01*
X81308896Y-98858379D01*
X81308907Y-98858365D01*
X81308909Y-98858367D01*
X81323374Y-98870080D01*
X81328375Y-98874352D01*
X81372844Y-98914393D01*
X81372850Y-98914398D01*
X81377753Y-98918812D01*
X81383467Y-98922111D01*
X81389368Y-98925518D01*
X81405663Y-98936718D01*
X81410952Y-98941001D01*
X81410958Y-98941005D01*
X81416088Y-98945159D01*
X81421968Y-98948155D01*
X81475281Y-98975319D01*
X81481077Y-98978466D01*
X81538614Y-99011685D01*
X81544890Y-99013724D01*
X81544896Y-99013727D01*
X81551379Y-99015834D01*
X81569633Y-99023395D01*
X81575704Y-99026488D01*
X81575711Y-99026491D01*
X81581590Y-99029486D01*
X81587962Y-99031193D01*
X81587966Y-99031195D01*
X81645757Y-99046680D01*
X81652082Y-99048553D01*
X81715270Y-99069084D01*
X81721837Y-99069774D01*
X81721845Y-99069776D01*
X81728616Y-99070488D01*
X81748051Y-99074090D01*
X81754626Y-99075852D01*
X81754633Y-99075853D01*
X81761007Y-99077561D01*
X81767598Y-99077906D01*
X81767602Y-99077907D01*
X81800377Y-99079624D01*
X81827343Y-99081037D01*
X81833912Y-99081554D01*
X81849130Y-99083154D01*
X81849143Y-99083155D01*
X81852428Y-99083500D01*
X81871040Y-99083500D01*
X81877634Y-99083673D01*
X81939908Y-99086937D01*
X81939912Y-99086937D01*
X81946500Y-99087282D01*
X81960587Y-99085051D01*
X81980296Y-99083500D01*
X82960500Y-99083500D01*
X83028621Y-99103502D01*
X83075114Y-99157158D01*
X83086500Y-99209500D01*
X83086500Y-99450000D01*
X83091727Y-99523079D01*
X83112748Y-99594670D01*
X83121654Y-99625002D01*
X83121654Y-99695999D01*
X83083270Y-99755725D01*
X83018689Y-99785218D01*
X83000758Y-99786500D01*
X81700000Y-99786500D01*
X81626921Y-99791727D01*
X81562277Y-99810708D01*
X81495330Y-99830365D01*
X81495328Y-99830366D01*
X81486684Y-99832904D01*
X81457207Y-99851848D01*
X81371309Y-99907051D01*
X81371306Y-99907053D01*
X81363729Y-99911923D01*
X81357827Y-99918734D01*
X81357826Y-99918735D01*
X81345968Y-99932419D01*
X81286241Y-99970801D01*
X81215245Y-99970799D01*
X81155520Y-99932414D01*
X81126028Y-99867833D01*
X81126826Y-99835195D01*
X81125941Y-99835116D01*
X81132751Y-99758816D01*
X81133000Y-99753221D01*
X81133000Y-99722115D01*
X81128525Y-99706876D01*
X81127135Y-99705671D01*
X81119452Y-99704000D01*
X80172115Y-99703999D01*
X80156876Y-99708474D01*
X80155671Y-99709864D01*
X80154000Y-99717547D01*
X80153999Y-100439885D01*
X80158474Y-100455124D01*
X80159864Y-100456329D01*
X80167547Y-100458000D01*
X80414222Y-100458000D01*
X80421523Y-100457576D01*
X80543254Y-100443383D01*
X80557409Y-100440037D01*
X80709760Y-100384737D01*
X80722759Y-100378227D01*
X80858305Y-100289359D01*
X80869457Y-100280035D01*
X80974011Y-100169665D01*
X81035380Y-100133967D01*
X81106307Y-100137114D01*
X81164273Y-100178108D01*
X81190874Y-100243933D01*
X81190202Y-100274248D01*
X81189370Y-100280035D01*
X81186500Y-100300000D01*
X81186500Y-100965500D01*
X81166498Y-101033621D01*
X81112842Y-101080114D01*
X81060500Y-101091500D01*
X75604239Y-101091500D01*
X75536118Y-101071498D01*
X75515144Y-101054595D01*
X74909616Y-100449067D01*
X74002395Y-99541846D01*
X76917153Y-99541846D01*
X76917425Y-99546526D01*
X76930946Y-99662504D01*
X76934291Y-99676656D01*
X76987617Y-99823566D01*
X76994127Y-99836565D01*
X77079820Y-99967269D01*
X77089144Y-99978421D01*
X77202607Y-100085905D01*
X77214252Y-100094616D01*
X77349393Y-100173112D01*
X77362731Y-100178912D01*
X77513118Y-100224459D01*
X77525754Y-100226910D01*
X77591189Y-100232751D01*
X77596779Y-100233000D01*
X77627885Y-100233000D01*
X77643124Y-100228525D01*
X77644329Y-100227135D01*
X77646000Y-100219452D01*
X77646000Y-100214885D01*
X78153999Y-100214885D01*
X78158474Y-100230124D01*
X78159864Y-100231329D01*
X78167547Y-100233000D01*
X78189222Y-100233000D01*
X78196526Y-100232575D01*
X78312504Y-100219054D01*
X78326656Y-100215709D01*
X78473566Y-100162383D01*
X78486565Y-100155873D01*
X78612749Y-100073144D01*
X78680685Y-100052521D01*
X78748985Y-100071901D01*
X78787206Y-100109430D01*
X78835644Y-100183309D01*
X78844965Y-100194457D01*
X78962629Y-100305921D01*
X78974276Y-100314634D01*
X79114429Y-100396042D01*
X79127754Y-100401836D01*
X79283700Y-100449067D01*
X79296323Y-100451515D01*
X79366184Y-100457750D01*
X79371779Y-100457999D01*
X79627885Y-100457999D01*
X79643124Y-100453524D01*
X79644329Y-100452134D01*
X79646000Y-100444451D01*
X79646001Y-99722115D01*
X79641526Y-99706876D01*
X79640136Y-99705671D01*
X79632453Y-99704000D01*
X78753000Y-99703999D01*
X78684879Y-99683997D01*
X78638386Y-99630341D01*
X78627000Y-99577999D01*
X78627000Y-99547115D01*
X78622525Y-99531876D01*
X78621135Y-99530671D01*
X78613452Y-99529000D01*
X78172115Y-99528999D01*
X78156875Y-99533474D01*
X78155671Y-99534864D01*
X78154000Y-99542546D01*
X78153999Y-100214885D01*
X77646000Y-100214885D01*
X77646001Y-99547115D01*
X77641526Y-99531876D01*
X77640136Y-99530671D01*
X77632453Y-99529000D01*
X76935115Y-99528999D01*
X76919876Y-99533474D01*
X76918671Y-99534864D01*
X76917153Y-99541846D01*
X74002395Y-99541846D01*
X73084141Y-98623594D01*
X73050116Y-98561282D01*
X73055180Y-98490467D01*
X73097727Y-98433631D01*
X73164247Y-98408820D01*
X73173236Y-98408499D01*
X76957690Y-98408499D01*
X77025811Y-98428501D01*
G37*
%TD.AperFunction*%
%TA.AperFunction,Conductor*%
G36*
X65096121Y-100016002D02*
G01*
X65142614Y-100069658D01*
X65154000Y-100122000D01*
X65154000Y-100378000D01*
X65133998Y-100446121D01*
X65080342Y-100492614D01*
X65028000Y-100504000D01*
X63937000Y-100504000D01*
X63937000Y-100503495D01*
X63885835Y-100503494D01*
X63832241Y-100471694D01*
X63691283Y-100330736D01*
X63657257Y-100268424D01*
X63662322Y-100197609D01*
X63704869Y-100140773D01*
X63712257Y-100135643D01*
X63714865Y-100133967D01*
X63786271Y-100088077D01*
X63796385Y-100076405D01*
X63830500Y-100037035D01*
X63890226Y-99998651D01*
X63937000Y-99996981D01*
X63937000Y-99996000D01*
X65028000Y-99996000D01*
X65096121Y-100016002D01*
G37*
%TD.AperFunction*%
%TA.AperFunction,Conductor*%
G36*
X63663873Y-97978492D02*
G01*
X63684848Y-97995395D01*
X63899596Y-98210144D01*
X63933621Y-98272456D01*
X63936500Y-98299239D01*
X63936500Y-98373111D01*
X63916498Y-98441232D01*
X63862842Y-98487725D01*
X63792568Y-98497829D01*
X63744026Y-98475654D01*
X63742011Y-98478790D01*
X63734430Y-98473918D01*
X63727619Y-98468016D01*
X63719421Y-98464272D01*
X63602864Y-98411042D01*
X63602863Y-98411042D01*
X63594670Y-98407300D01*
X63585755Y-98406018D01*
X63585754Y-98406018D01*
X63454448Y-98387139D01*
X63454441Y-98387138D01*
X63450000Y-98386500D01*
X62550000Y-98386500D01*
X62476921Y-98391727D01*
X62336684Y-98432904D01*
X62335958Y-98430431D01*
X62279157Y-98438602D01*
X62254815Y-98432582D01*
X62185763Y-98407994D01*
X62178771Y-98407160D01*
X62178770Y-98407160D01*
X62074581Y-98394736D01*
X62009308Y-98366808D01*
X61969495Y-98308025D01*
X61963500Y-98269622D01*
X61963500Y-98084490D01*
X61983502Y-98016369D01*
X62037158Y-97969876D01*
X62089500Y-97958490D01*
X63595752Y-97958490D01*
X63663873Y-97978492D01*
G37*
%TD.AperFunction*%
%TA.AperFunction,Conductor*%
G36*
X53906378Y-96828502D02*
G01*
X53952871Y-96882158D01*
X53962975Y-96952432D01*
X53949612Y-96993459D01*
X53912911Y-97062776D01*
X53907508Y-97076850D01*
X53869028Y-97230040D01*
X53867259Y-97241400D01*
X53867126Y-97243527D01*
X53867000Y-97247518D01*
X53867000Y-97327885D01*
X53871475Y-97343124D01*
X53872865Y-97344329D01*
X53880548Y-97346000D01*
X54740511Y-97346001D01*
X54808632Y-97366003D01*
X54855125Y-97419659D01*
X54866511Y-97471999D01*
X54866510Y-97616505D01*
X54866510Y-97728000D01*
X54846508Y-97796121D01*
X54792852Y-97842614D01*
X54740510Y-97854000D01*
X53885115Y-97853999D01*
X53869876Y-97858474D01*
X53868671Y-97859864D01*
X53867000Y-97867547D01*
X53867000Y-97912528D01*
X53867455Y-97920066D01*
X53871172Y-97950786D01*
X53859498Y-98020817D01*
X53811816Y-98073419D01*
X53743265Y-98091891D01*
X53675609Y-98070370D01*
X53656989Y-98055018D01*
X52625565Y-97023595D01*
X52591540Y-96961283D01*
X52596604Y-96890468D01*
X52639151Y-96833632D01*
X52705671Y-96808821D01*
X52714660Y-96808500D01*
X53838257Y-96808500D01*
X53906378Y-96828502D01*
G37*
%TD.AperFunction*%
%TA.AperFunction,Conductor*%
G36*
X98534121Y-81228002D02*
G01*
X98580614Y-81281658D01*
X98592000Y-81334000D01*
X98592000Y-86871808D01*
X98590881Y-86888560D01*
X98586956Y-86917819D01*
X98586309Y-86922643D01*
X98586412Y-86927504D01*
X98590156Y-87104953D01*
X98590184Y-87107279D01*
X98590244Y-87130031D01*
X98644700Y-87473848D01*
X98645215Y-87475518D01*
X98645455Y-87476509D01*
X98646229Y-87481316D01*
X98661420Y-87528069D01*
X98661913Y-87529626D01*
X98677608Y-87580485D01*
X98679029Y-87582636D01*
X98679692Y-87584307D01*
X98752412Y-87808117D01*
X98752415Y-87808123D01*
X98753798Y-87812381D01*
X98754557Y-87813928D01*
X98754963Y-87814905D01*
X98756477Y-87819521D01*
X98758684Y-87823852D01*
X98758685Y-87823855D01*
X98778748Y-87863231D01*
X98779584Y-87864902D01*
X98802982Y-87912558D01*
X98804723Y-87914461D01*
X98805638Y-87916005D01*
X98912479Y-88125694D01*
X98912482Y-88125699D01*
X98914512Y-88129683D01*
X98915508Y-88131098D01*
X98916056Y-88131989D01*
X98918275Y-88136316D01*
X98921133Y-88140249D01*
X98921135Y-88140253D01*
X98947143Y-88176050D01*
X98948231Y-88177571D01*
X98978357Y-88220357D01*
X99001333Y-88292653D01*
X99011991Y-93802430D01*
X99016963Y-96372739D01*
X99016987Y-96385359D01*
X98997117Y-96453519D01*
X98943551Y-96500115D01*
X98873297Y-96510355D01*
X98838645Y-96500217D01*
X98752864Y-96461042D01*
X98752863Y-96461042D01*
X98744670Y-96457300D01*
X98735755Y-96456018D01*
X98735754Y-96456018D01*
X98709851Y-96452294D01*
X98637034Y-96441825D01*
X98572454Y-96412332D01*
X98555007Y-96393814D01*
X98533810Y-96366190D01*
X98509969Y-96347896D01*
X98497578Y-96337029D01*
X95962977Y-93802430D01*
X95952110Y-93790039D01*
X95938836Y-93772740D01*
X95933810Y-93766190D01*
X95806750Y-93668693D01*
X95799119Y-93665532D01*
X95666413Y-93610564D01*
X95666409Y-93610563D01*
X95658785Y-93607405D01*
X95650605Y-93606328D01*
X95650601Y-93606327D01*
X95537989Y-93591501D01*
X95537980Y-93591500D01*
X95537977Y-93591500D01*
X95537965Y-93591499D01*
X95508189Y-93587579D01*
X95508188Y-93587579D01*
X95500000Y-93586501D01*
X95491812Y-93587579D01*
X95491811Y-93587579D01*
X95470216Y-93590422D01*
X95453770Y-93591500D01*
X92798387Y-93591500D01*
X92730266Y-93571498D01*
X92683773Y-93517842D01*
X92673669Y-93447568D01*
X92703163Y-93382988D01*
X92757884Y-93346187D01*
X92785147Y-93336933D01*
X92931441Y-93264789D01*
X93052796Y-93204944D01*
X93052801Y-93204941D01*
X93056500Y-93203117D01*
X93308065Y-93035026D01*
X93535538Y-92835538D01*
X93735026Y-92608065D01*
X93903117Y-92356500D01*
X93919522Y-92323235D01*
X94035109Y-92088845D01*
X94036933Y-92085147D01*
X94054398Y-92033696D01*
X94132858Y-91802561D01*
X94132859Y-91802557D01*
X94134186Y-91798648D01*
X94134992Y-91794598D01*
X94192409Y-91505946D01*
X94192410Y-91505940D01*
X94193212Y-91501907D01*
X94194419Y-91483502D01*
X94212730Y-91204119D01*
X94213000Y-91200000D01*
X94210029Y-91154670D01*
X94193482Y-90902205D01*
X94193481Y-90902198D01*
X94193212Y-90898093D01*
X94165028Y-90756400D01*
X94134992Y-90605402D01*
X94134990Y-90605396D01*
X94134186Y-90601352D01*
X94036933Y-90314853D01*
X93928890Y-90095763D01*
X93904944Y-90047204D01*
X93904941Y-90047199D01*
X93903117Y-90043500D01*
X93735026Y-89791935D01*
X93535538Y-89564462D01*
X93308065Y-89364974D01*
X93056500Y-89196883D01*
X93052801Y-89195059D01*
X93052796Y-89195056D01*
X92905447Y-89122392D01*
X92785147Y-89063067D01*
X92742764Y-89048680D01*
X92502561Y-88967142D01*
X92502557Y-88967141D01*
X92498648Y-88965814D01*
X92494604Y-88965010D01*
X92494598Y-88965008D01*
X92205946Y-88907591D01*
X92205940Y-88907590D01*
X92201907Y-88906788D01*
X92197802Y-88906519D01*
X92197795Y-88906518D01*
X91904119Y-88887270D01*
X91900000Y-88887000D01*
X91895881Y-88887270D01*
X91602205Y-88906518D01*
X91602198Y-88906519D01*
X91598093Y-88906788D01*
X91594060Y-88907590D01*
X91594054Y-88907591D01*
X91305402Y-88965008D01*
X91305396Y-88965010D01*
X91301352Y-88965814D01*
X91297443Y-88967141D01*
X91297439Y-88967142D01*
X91057236Y-89048680D01*
X91014853Y-89063067D01*
X90894553Y-89122392D01*
X90747204Y-89195056D01*
X90747199Y-89195059D01*
X90743500Y-89196883D01*
X90491935Y-89364974D01*
X90264462Y-89564462D01*
X90064974Y-89791935D01*
X89896883Y-90043500D01*
X89895059Y-90047199D01*
X89895056Y-90047204D01*
X89871110Y-90095763D01*
X89763067Y-90314853D01*
X89665814Y-90601352D01*
X89665010Y-90605396D01*
X89665008Y-90605402D01*
X89634973Y-90756400D01*
X89606788Y-90898093D01*
X89606519Y-90902198D01*
X89606518Y-90902205D01*
X89589971Y-91154670D01*
X89587000Y-91200000D01*
X89587270Y-91204119D01*
X89605582Y-91483502D01*
X89606788Y-91501907D01*
X89607590Y-91505940D01*
X89607591Y-91505946D01*
X89665008Y-91794598D01*
X89665814Y-91798648D01*
X89667141Y-91802557D01*
X89667142Y-91802561D01*
X89745602Y-92033696D01*
X89763067Y-92085147D01*
X89764891Y-92088845D01*
X89880479Y-92323235D01*
X89896883Y-92356500D01*
X90064974Y-92608065D01*
X90264462Y-92835538D01*
X90491935Y-93035026D01*
X90743500Y-93203117D01*
X90747199Y-93204941D01*
X90747204Y-93204944D01*
X90868559Y-93264789D01*
X91014853Y-93336933D01*
X91042115Y-93346187D01*
X91100191Y-93387024D01*
X91126969Y-93452777D01*
X91113948Y-93522570D01*
X91065261Y-93574243D01*
X91001613Y-93591500D01*
X71174502Y-93591500D01*
X71106381Y-93571498D01*
X71059888Y-93517842D01*
X71048502Y-93465500D01*
X71048502Y-86386239D01*
X71049580Y-86369792D01*
X71052424Y-86348190D01*
X71053502Y-86340002D01*
X71032597Y-86181216D01*
X71012960Y-86133809D01*
X70992380Y-86084122D01*
X70974470Y-86040883D01*
X70974469Y-86040882D01*
X70971309Y-86033252D01*
X70922561Y-85969722D01*
X70878841Y-85912745D01*
X70878838Y-85912742D01*
X70873812Y-85906192D01*
X70867262Y-85901166D01*
X70867258Y-85901162D01*
X70849965Y-85887893D01*
X70837573Y-85877025D01*
X66762977Y-81802430D01*
X66752110Y-81790039D01*
X66738836Y-81772740D01*
X66733810Y-81766190D01*
X66606750Y-81668693D01*
X66490660Y-81620608D01*
X66435379Y-81576060D01*
X66424378Y-81553070D01*
X66423378Y-81553527D01*
X66419635Y-81545330D01*
X66417096Y-81536684D01*
X66371393Y-81465569D01*
X66342949Y-81421309D01*
X66342947Y-81421306D01*
X66338077Y-81413729D01*
X66337156Y-81412931D01*
X66309299Y-81351929D01*
X66319404Y-81281656D01*
X66365898Y-81228001D01*
X66434017Y-81208000D01*
X98466000Y-81208000D01*
X98534121Y-81228002D01*
G37*
%TD.AperFunction*%
%TA.AperFunction,Conductor*%
G36*
X95263884Y-94828502D02*
G01*
X95284858Y-94845405D01*
X96660857Y-96221405D01*
X96694883Y-96283717D01*
X96689818Y-96354533D01*
X96647271Y-96411368D01*
X96580751Y-96436179D01*
X96571762Y-96436500D01*
X95600000Y-96436500D01*
X95526921Y-96441727D01*
X95520439Y-96443630D01*
X95520435Y-96443631D01*
X95483394Y-96454507D01*
X95412398Y-96454507D01*
X95352672Y-96416123D01*
X95347935Y-96410315D01*
X95338846Y-96398470D01*
X95333820Y-96391920D01*
X95309976Y-96373624D01*
X95297592Y-96362763D01*
X94637254Y-95702427D01*
X94626387Y-95690035D01*
X94613116Y-95672740D01*
X94608090Y-95666190D01*
X94481030Y-95568693D01*
X94473399Y-95565532D01*
X94340693Y-95510564D01*
X94340689Y-95510563D01*
X94333065Y-95507405D01*
X94324885Y-95506328D01*
X94324881Y-95506327D01*
X94212269Y-95491501D01*
X94212260Y-95491500D01*
X94212257Y-95491500D01*
X94212245Y-95491499D01*
X94182469Y-95487579D01*
X94182468Y-95487579D01*
X94174280Y-95486501D01*
X94166092Y-95487579D01*
X94166091Y-95487579D01*
X94144496Y-95490422D01*
X94128050Y-95491500D01*
X70873239Y-95491500D01*
X70805118Y-95471498D01*
X70758625Y-95417842D01*
X70748521Y-95347568D01*
X70778015Y-95282988D01*
X70784144Y-95276405D01*
X70837580Y-95222969D01*
X70849971Y-95212102D01*
X70867262Y-95198834D01*
X70873812Y-95193808D01*
X70971309Y-95066748D01*
X71023463Y-94940835D01*
X71032597Y-94918784D01*
X71033675Y-94910594D01*
X71035813Y-94902617D01*
X71039135Y-94903507D01*
X71061389Y-94853157D01*
X71120642Y-94814047D01*
X71157615Y-94808500D01*
X95195763Y-94808500D01*
X95263884Y-94828502D01*
G37*
%TD.AperFunction*%
%TA.AperFunction,Conductor*%
G36*
X56788874Y-87553492D02*
G01*
X56809848Y-87570395D01*
X63815856Y-94576405D01*
X63849882Y-94638717D01*
X63844817Y-94709533D01*
X63802270Y-94766368D01*
X63735750Y-94791179D01*
X63726761Y-94791500D01*
X51660143Y-94791500D01*
X51592022Y-94771498D01*
X51545529Y-94717842D01*
X51535425Y-94647568D01*
X51564919Y-94582988D01*
X51621207Y-94545667D01*
X51629361Y-94543018D01*
X51629364Y-94543017D01*
X51636060Y-94540841D01*
X51791841Y-94447977D01*
X51923177Y-94322908D01*
X52023540Y-94171849D01*
X52087942Y-94002309D01*
X52113183Y-93822714D01*
X52113500Y-93800000D01*
X52093284Y-93619770D01*
X52033641Y-93448498D01*
X51937535Y-93294696D01*
X51809742Y-93166009D01*
X51709858Y-93102620D01*
X51662570Y-93072610D01*
X51662569Y-93072609D01*
X51656615Y-93068831D01*
X51485763Y-93007994D01*
X51478771Y-93007160D01*
X51478770Y-93007160D01*
X51395721Y-92997257D01*
X51305679Y-92986520D01*
X51298676Y-92987256D01*
X51298675Y-92987256D01*
X51132321Y-93004740D01*
X51132317Y-93004741D01*
X51125313Y-93005477D01*
X51064477Y-93026187D01*
X50993548Y-93029205D01*
X50932244Y-92993395D01*
X50923912Y-92983613D01*
X50869466Y-92912657D01*
X50833810Y-92866190D01*
X50809966Y-92847894D01*
X50797582Y-92837033D01*
X50041789Y-92081241D01*
X49732905Y-91772358D01*
X49698880Y-91710045D01*
X49696000Y-91683262D01*
X49696000Y-88638482D01*
X49716002Y-88570361D01*
X49752915Y-88533110D01*
X49769832Y-88522019D01*
X49769833Y-88522018D01*
X49775951Y-88518007D01*
X49892586Y-88394885D01*
X49977767Y-88248234D01*
X50026927Y-88085920D01*
X50028985Y-88062861D01*
X50033251Y-88015066D01*
X50033251Y-88015060D01*
X50033500Y-88012273D01*
X50033500Y-87659490D01*
X50053502Y-87591369D01*
X50107158Y-87544876D01*
X50159500Y-87533490D01*
X56720753Y-87533490D01*
X56788874Y-87553492D01*
G37*
%TD.AperFunction*%
%TD*%
M02*
