%TF.GenerationSoftware,KiCad,Pcbnew,(5.99.0-7626-g1ca75c8fda)*%
%TF.CreationDate,2021-03-16T10:58:17+01:00*%
%TF.ProjectId,CDEM,4344454d-2e6b-4696-9361-645f70636258,rev?*%
%TF.SameCoordinates,Original*%
%TF.FileFunction,Paste,Top*%
%TF.FilePolarity,Positive*%
%FSLAX46Y46*%
G04 Gerber Fmt 4.6, Leading zero omitted, Abs format (unit mm)*
G04 Created by KiCad (PCBNEW (5.99.0-7626-g1ca75c8fda)) date 2021-03-16 10:58:17*
%MOMM*%
%LPD*%
G01*
G04 APERTURE LIST*
G04 Aperture macros list*
%AMRoundRect*
0 Rectangle with rounded corners*
0 $1 Rounding radius*
0 $2 $3 $4 $5 $6 $7 $8 $9 X,Y pos of 4 corners*
0 Add a 4 corners polygon primitive as box body*
4,1,4,$2,$3,$4,$5,$6,$7,$8,$9,$2,$3,0*
0 Add four circle primitives for the rounded corners*
1,1,$1+$1,$2,$3,0*
1,1,$1+$1,$4,$5,0*
1,1,$1+$1,$6,$7,0*
1,1,$1+$1,$8,$9,0*
0 Add four rect primitives between the rounded corners*
20,1,$1+$1,$2,$3,$4,$5,0*
20,1,$1+$1,$4,$5,$6,$7,0*
20,1,$1+$1,$6,$7,$8,$9,0*
20,1,$1+$1,$8,$9,$2,$3,0*%
G04 Aperture macros list end*
%ADD10RoundRect,0.200000X0.200000X0.275000X-0.200000X0.275000X-0.200000X-0.275000X0.200000X-0.275000X0*%
%ADD11RoundRect,0.150000X0.150000X-0.512500X0.150000X0.512500X-0.150000X0.512500X-0.150000X-0.512500X0*%
%ADD12RoundRect,0.200000X-0.200000X-0.275000X0.200000X-0.275000X0.200000X0.275000X-0.200000X0.275000X0*%
%ADD13RoundRect,0.250000X-0.275000X-0.275000X0.275000X-0.275000X0.275000X0.275000X-0.275000X0.275000X0*%
%ADD14RoundRect,0.062500X-0.350000X-0.062500X0.350000X-0.062500X0.350000X0.062500X-0.350000X0.062500X0*%
%ADD15RoundRect,0.062500X-0.062500X-0.350000X0.062500X-0.350000X0.062500X0.350000X-0.062500X0.350000X0*%
%ADD16RoundRect,0.225000X-0.250000X0.225000X-0.250000X-0.225000X0.250000X-0.225000X0.250000X0.225000X0*%
%ADD17RoundRect,0.250000X-0.250000X-0.475000X0.250000X-0.475000X0.250000X0.475000X-0.250000X0.475000X0*%
%ADD18R,0.600000X1.450000*%
%ADD19R,0.300000X1.450000*%
%ADD20RoundRect,0.250000X0.250000X0.475000X-0.250000X0.475000X-0.250000X-0.475000X0.250000X-0.475000X0*%
%ADD21RoundRect,0.218750X-0.218750X-0.256250X0.218750X-0.256250X0.218750X0.256250X-0.218750X0.256250X0*%
%ADD22R,0.900000X1.200000*%
%ADD23RoundRect,0.225000X-0.225000X-0.250000X0.225000X-0.250000X0.225000X0.250000X-0.225000X0.250000X0*%
%ADD24R,1.500000X2.000000*%
%ADD25R,3.800000X2.000000*%
%ADD26RoundRect,0.225000X0.225000X0.250000X-0.225000X0.250000X-0.225000X-0.250000X0.225000X-0.250000X0*%
%ADD27RoundRect,0.200000X-0.275000X0.200000X-0.275000X-0.200000X0.275000X-0.200000X0.275000X0.200000X0*%
%ADD28RoundRect,0.237500X0.287500X0.237500X-0.287500X0.237500X-0.287500X-0.237500X0.287500X-0.237500X0*%
%ADD29RoundRect,0.250000X-0.475000X0.250000X-0.475000X-0.250000X0.475000X-0.250000X0.475000X0.250000X0*%
%ADD30R,0.900000X0.800000*%
%ADD31R,1.000000X2.500000*%
%ADD32R,1.800000X1.000000*%
%ADD33R,1.700000X0.900000*%
%ADD34RoundRect,0.200000X0.275000X-0.200000X0.275000X0.200000X-0.275000X0.200000X-0.275000X-0.200000X0*%
G04 APERTURE END LIST*
D10*
%TO.C,R1*%
X56425000Y-99100000D03*
X54775000Y-99100000D03*
%TD*%
D11*
%TO.C,U2*%
X58350000Y-110737500D03*
X59300000Y-110737500D03*
X60250000Y-110737500D03*
X60250000Y-108462500D03*
X59300000Y-108462500D03*
X58350000Y-108462500D03*
%TD*%
D12*
%TO.C,R4*%
X54775000Y-106600000D03*
X56425000Y-106600000D03*
%TD*%
D13*
%TO.C,U3*%
X64650000Y-107950000D03*
X65950000Y-109250000D03*
X65950000Y-107950000D03*
X64650000Y-109250000D03*
D14*
X63362500Y-107350000D03*
X63362500Y-107850000D03*
X63362500Y-108350000D03*
X63362500Y-108850000D03*
X63362500Y-109350000D03*
X63362500Y-109850000D03*
D15*
X64050000Y-110537500D03*
X64550000Y-110537500D03*
X65050000Y-110537500D03*
X65550000Y-110537500D03*
X66050000Y-110537500D03*
X66550000Y-110537500D03*
D14*
X67237500Y-109850000D03*
X67237500Y-109350000D03*
X67237500Y-108850000D03*
X67237500Y-108350000D03*
X67237500Y-107850000D03*
X67237500Y-107350000D03*
D15*
X66550000Y-106662500D03*
X66050000Y-106662500D03*
X65550000Y-106662500D03*
X65050000Y-106662500D03*
X64550000Y-106662500D03*
X64050000Y-106662500D03*
%TD*%
D16*
%TO.C,C7*%
X77900000Y-97725000D03*
X77900000Y-99275000D03*
%TD*%
D12*
%TO.C,R3*%
X54775000Y-109600000D03*
X56425000Y-109600000D03*
%TD*%
D17*
%TO.C,C1*%
X50700000Y-107800000D03*
X52600000Y-107800000D03*
%TD*%
D18*
%TO.C,J1*%
X58100000Y-124255000D03*
X58900000Y-124255000D03*
D19*
X60100000Y-124255000D03*
X61100000Y-124255000D03*
X61600000Y-124255000D03*
X62600000Y-124255000D03*
D18*
X63800000Y-124255000D03*
X64600000Y-124255000D03*
X64600000Y-124255000D03*
X63800000Y-124255000D03*
D19*
X63100000Y-124255000D03*
X62100000Y-124255000D03*
X60600000Y-124255000D03*
X59600000Y-124255000D03*
D18*
X58900000Y-124255000D03*
X58100000Y-124255000D03*
%TD*%
D20*
%TO.C,C3*%
X48800000Y-107800000D03*
X46900000Y-107800000D03*
%TD*%
D21*
%TO.C,D4*%
X47512500Y-85500000D03*
X49087500Y-85500000D03*
%TD*%
D22*
%TO.C,D1*%
X50150000Y-112500000D03*
X46850000Y-112500000D03*
%TD*%
D21*
%TO.C,D3*%
X47512500Y-83100000D03*
X49087500Y-83100000D03*
%TD*%
D23*
%TO.C,C4*%
X63625000Y-114200000D03*
X65175000Y-114200000D03*
%TD*%
D12*
%TO.C,R9*%
X54775000Y-103600000D03*
X56425000Y-103600000D03*
%TD*%
D24*
%TO.C,U1*%
X47450000Y-105350000D03*
X49750000Y-105350000D03*
D25*
X49750000Y-99050000D03*
D24*
X52050000Y-105350000D03*
%TD*%
D26*
%TO.C,C8*%
X56375000Y-100600000D03*
X54825000Y-100600000D03*
%TD*%
D27*
%TO.C,R10*%
X59500000Y-98725000D03*
X59500000Y-100375000D03*
%TD*%
D12*
%TO.C,R7*%
X54775000Y-108100000D03*
X56425000Y-108100000D03*
%TD*%
%TO.C,R12*%
X64875000Y-96700000D03*
X66525000Y-96700000D03*
%TD*%
D28*
%TO.C,C9*%
X68775000Y-112200000D03*
X67025000Y-112200000D03*
%TD*%
D16*
%TO.C,C5*%
X61800000Y-111225000D03*
X61800000Y-112775000D03*
%TD*%
D10*
%TO.C,R2*%
X66525000Y-101900000D03*
X64875000Y-101900000D03*
%TD*%
D29*
%TO.C,C6*%
X79900000Y-97550000D03*
X79900000Y-99450000D03*
%TD*%
D21*
%TO.C,D5*%
X47512500Y-87700000D03*
X49087500Y-87700000D03*
%TD*%
D12*
%TO.C,R5*%
X54775000Y-105100000D03*
X56425000Y-105100000D03*
%TD*%
D30*
%TO.C,Q1*%
X64900000Y-98350000D03*
X64900000Y-100250000D03*
X66900000Y-99300000D03*
%TD*%
%TO.C,Q2*%
X61000000Y-101850000D03*
X61000000Y-103750000D03*
X63000000Y-102800000D03*
%TD*%
D31*
%TO.C,U4*%
X98100000Y-98200000D03*
X96100000Y-98200000D03*
X94100000Y-98200000D03*
X92100000Y-98200000D03*
X90100000Y-98200000D03*
X88100000Y-98200000D03*
X86100000Y-98200000D03*
X84100000Y-98200000D03*
D32*
X82600000Y-100800000D03*
X82600000Y-102800000D03*
X82600000Y-104800000D03*
X82600000Y-106800000D03*
X82600000Y-108800000D03*
X82600000Y-110800000D03*
D31*
X84100000Y-113400000D03*
X86100000Y-113400000D03*
X88100000Y-113400000D03*
X90100000Y-113400000D03*
X92100000Y-113400000D03*
X94100000Y-113400000D03*
X96100000Y-113400000D03*
X98100000Y-113400000D03*
%TD*%
D22*
%TO.C,D2*%
X50150000Y-110100000D03*
X46850000Y-110100000D03*
%TD*%
D30*
%TO.C,Q3*%
X61000000Y-98350000D03*
X61000000Y-100250000D03*
X63000000Y-99300000D03*
%TD*%
D17*
%TO.C,C2*%
X63450000Y-112400000D03*
X65350000Y-112400000D03*
%TD*%
D33*
%TO.C,SW2*%
X65100000Y-82200000D03*
X65100000Y-85600000D03*
%TD*%
D10*
%TO.C,R6*%
X66525000Y-103500000D03*
X64875000Y-103500000D03*
%TD*%
D33*
%TO.C,SW1*%
X65100000Y-87100000D03*
X65100000Y-90500000D03*
%TD*%
D10*
%TO.C,R8*%
X56425000Y-102100000D03*
X54775000Y-102100000D03*
%TD*%
D34*
%TO.C,R11*%
X59500000Y-103625000D03*
X59500000Y-101975000D03*
%TD*%
M02*
