M48
; DRILL file {KiCad (5.99.0-7626-g1ca75c8fda)} date 03/16/21 10:58:20
; FORMAT={-:-/ absolute / inch / decimal}
; #@! TF.CreationDate,2021-03-16T10:58:20+01:00
; #@! TF.GenerationSoftware,Kicad,Pcbnew,(5.99.0-7626-g1ca75c8fda)
FMAT,2
INCH
T1C0.0118
T2C0.0157
T3C0.0236
T4C0.0299
T5C0.0394
T6C0.0256
T7C0.1280
%
G90
G05
T1
X1.0748Y-3.5394
X1.0787Y-3.7047
X1.0866Y-4.4646
X1.0866Y-4.8307
X1.0906Y-4.1063
X1.3661Y-3.4803
X1.3976Y-3.2244
X1.3976Y-4.8622
X1.4055Y-5.1654
X1.6339Y-3.2205
X1.6378Y-5.1614
X1.7756Y-4.3622
X1.8189Y-3.2717
X1.8307Y-3.8583
X1.8701Y-3.7165
X1.9488Y-3.6929
X1.9606Y-3.5079
X1.9764Y-5.1654
X1.9843Y-3.6929
X2.0197Y-3.6929
X2.1024Y-3.7244
X2.122Y-3.9606
X2.122Y-4.0197
X2.189Y-4.1693
X2.189Y-4.3583
X2.2126Y-3.2283
X2.2323Y-3.4488
X2.2323Y-3.7913
X2.252Y-4.374
X2.2638Y-3.3583
X2.2638Y-4.1378
X2.2677Y-4.1969
X2.2835Y-3.8465
X2.3346Y-4.2205
X2.3346Y-4.7323
X2.3622Y-4.2205
X2.3976Y-4.4882
X2.4291Y-4.2362
X2.4331Y-4.0472
X2.4567Y-4.0
X2.4685Y-4.4921
X2.4685Y-4.5197
X2.4882Y-3.8583
X2.5079Y-3.7283
X2.5551Y-3.6496
X2.5591Y-4.7283
X2.5906Y-3.9449
X2.6102Y-3.6969
X2.6142Y-3.7283
X2.6299Y-4.4803
X2.6573Y-3.7912
X2.6772Y-4.0433
X2.7205Y-4.2402
X2.7244Y-3.6929
X2.7283Y-4.4685
X2.752Y-3.874
X2.7559Y-3.7835
X2.7953Y-4.2402
X2.8031Y-3.9567
X2.811Y-3.2244
X2.8189Y-4.0906
X2.8465Y-3.6693
X2.8465Y-3.7441
X2.9016Y-3.8858
X2.9213Y-4.3701
X2.9567Y-4.1299
X3.0157Y-5.1654
X3.0512Y-4.3189
X3.1063Y-4.2795
X3.122Y-4.563
X3.1457Y-4.2008
X3.252Y-3.2323
X3.3346Y-3.6693
X3.3386Y-3.748
X3.3425Y-4.1929
X3.3465Y-4.2795
X3.4291Y-4.6378
X3.4764Y-5.1575
X3.6457Y-4.5472
X3.6693Y-4.374
X3.6732Y-3.2402
X3.6732Y-4.0512
X3.685Y-4.6378
X3.7165Y-4.5669
X3.7165Y-4.626
X3.7717Y-3.7835
X3.8465Y-5.1535
X3.8622Y-3.9488
X3.8622Y-4.0866
X3.8622Y-4.2165
X3.8622Y-4.378
X3.8701Y-3.4724
X3.8701Y-3.5906
X3.8701Y-4.5827
X3.8701Y-4.7047
X3.874Y-3.7441
X3.874Y-4.8504
T2
X1.8307Y-4.0866
X1.8681Y-4.0866
X1.9055Y-4.0866
X1.9055Y-4.3268
X2.0394Y-4.0787
X2.0472Y-4.2913
X2.0748Y-4.0787
X2.0945Y-4.2913
X2.1024Y-4.2126
X2.1102Y-4.0787
X2.3366Y-4.4158
X2.4331Y-4.4764
X2.5394Y-4.2441
X2.5394Y-4.3071
X2.5551Y-4.1142
X2.5669Y-3.4921
X2.5709Y-4.2795
X2.6024Y-4.2441
X2.6024Y-4.3071
X2.7008Y-3.9764
X3.0669Y-3.9528
X3.1142Y-4.4016
X3.122Y-3.9606
X3.1398Y-4.4272
X3.1575Y-3.9606
X3.1634Y-4.4508
T4
X1.6205Y-4.0894
X1.6205Y-4.1894
X1.6205Y-4.2894
X1.7205Y-4.0394
X1.7205Y-4.1394
X1.7205Y-4.2394
T5
X2.8071Y-4.622
X2.8071Y-4.722
X2.8071Y-4.822
X2.8071Y-4.922
T6
X2.3016Y-4.9488
X2.5291Y-4.9488
T7
X1.3705Y-3.9642
X1.3705Y-4.3642
T3
G00X2.2453Y-4.9063
M15
G01X2.2453Y-4.9496
M16
G05
G00X2.2453Y-5.0807
M15
G01X2.2453Y-5.1043
M16
G05
G00X2.5854Y-4.9063
M15
G01X2.5854Y-4.9496
M16
G05
G00X2.5854Y-5.0807
M15
G01X2.5854Y-5.1043
M16
G05
T0
M30
