M48
; DRILL file {KiCad 5.99.0-unknown-4e273827f0~131~ubuntu20.04.1} date Tue Aug 17 12:47:07 2021
; FORMAT={-:-/ absolute / metric / decimal}
; #@! TF.CreationDate,2021-08-17T12:47:07+02:00
; #@! TF.GenerationSoftware,Kicad,Pcbnew,5.99.0-unknown-4e273827f0~131~ubuntu20.04.1
; #@! TF.FileFunction,Plated,1,2,PTH
FMAT,2
METRIC
; #@! TA.AperFunction,Plated,PTH,ViaDrill
T1C0.300
; #@! TA.AperFunction,Plated,PTH,ViaDrill
T2C0.400
; #@! TA.AperFunction,Plated,PTH,ComponentDrill
T3C0.600
; #@! TA.AperFunction,Plated,PTH,ComponentDrill
T4C0.760
; #@! TA.AperFunction,Plated,PTH,ComponentDrill
T5C1.000
%
G90
G05
T1
X27.3Y-89.9
X27.4Y-94.1
X27.6Y-113.4
X27.6Y-122.7
X27.7Y-104.3
X34.7Y-88.4
X35.5Y-81.9
X35.5Y-123.5
X35.7Y-131.2
X41.5Y-81.8
X41.6Y-131.1
X46.2Y-83.1
X46.482Y-114.275
X46.5Y-98.0
X46.711Y-103.048
X47.5Y-94.4
X48.616Y-103.048
X49.5Y-93.8
X49.657Y-106.553
X50.19Y-89.154
X50.2Y-131.2
X50.4Y-93.8
X51.13Y-116.307
X51.3Y-93.8
X52.553Y-109.677
X52.553Y-110.617
X52.553Y-111.608
X52.553Y-112.7
X53.442Y-94.183
X53.543Y-102.083
X53.569Y-100.609
X53.9Y-97.7
X55.067Y-120.269
X55.6Y-105.9
X55.6Y-110.7
X56.2Y-82.0
X56.54Y-88.011
X57.2Y-111.1
X57.5Y-85.3
X57.5Y-105.1
X57.6Y-102.7
X57.6Y-106.6
X57.963Y-117.297
X58.0Y-99.4
X59.3Y-107.2
X59.3Y-120.2
X60.0Y-107.2
X60.9Y-114.0
X61.8Y-102.8
X62.0Y-99.2
X62.4Y-101.6
X62.6Y-105.2
X62.7Y-114.1
X62.7Y-114.8
X63.043Y-94.336
X63.221Y-98.171
X63.703Y-100.203
X64.0Y-104.8
X64.9Y-92.7
X65.0Y-120.1
X65.8Y-100.2
X66.3Y-93.9
X66.4Y-94.7
X66.8Y-113.8
X67.496Y-96.8
X67.7Y-105.3
X67.869Y-87.122
X68.0Y-102.7
X68.707Y-105.639
X69.2Y-93.8
X69.2Y-103.7
X69.3Y-113.5
X69.571Y-108.433
X69.9Y-98.4
X70.206Y-96.088
X70.917Y-108.433
X71.4Y-81.9
X71.679Y-106.731
X71.755Y-100.584
X72.3Y-93.2
X72.3Y-95.1
X73.939Y-111.252
X74.168Y-99.06
X74.168Y-106.426
X75.1Y-104.9
X76.6Y-131.2
X76.835Y-109.017
X77.038Y-105.969
X78.842Y-116.103
X78.9Y-108.7
X80.569Y-104.877
X82.6Y-82.1
X84.7Y-93.2
X84.8Y-95.2
X84.988Y-106.883
X85.0Y-108.7
X87.1Y-117.8
X88.3Y-131.0
X92.507Y-111.049
X92.659Y-103.632
X93.3Y-82.3
X93.32Y-117.678
X94.386Y-116.103
X94.4Y-117.5
X95.8Y-96.1
X97.7Y-130.9
X98.1Y-100.3
X98.1Y-103.8
X98.1Y-107.1
X98.1Y-111.2
X98.3Y-88.2
X98.3Y-91.2
X98.3Y-116.4
X98.3Y-119.5
X98.4Y-95.1
X98.4Y-123.2
T2
X53.594Y-103.632
X59.35Y-112.16
X61.8Y-113.7
X62.23Y-82.245
X64.108Y-88.698
X64.5Y-107.8
X64.5Y-109.4
X64.9Y-104.5
X65.3Y-108.7
X66.1Y-107.8
X66.1Y-109.4
X69.6Y-101.0
X71.156Y-97.525
X71.628Y-89.992
X77.9Y-100.4
X79.1Y-111.8
X79.3Y-100.6
X79.75Y-112.45
X80.2Y-100.6
X80.35Y-113.05
T4
X41.16Y-103.87
X41.16Y-106.41
X41.16Y-108.95
X43.7Y-102.6
X43.7Y-105.14
X43.7Y-107.68
T5
X71.3Y-117.4
X71.3Y-119.94
X71.3Y-122.48
X71.3Y-125.02
X77.216Y-84.836
X77.216Y-87.376
X77.216Y-89.916
T3
G00X57.03Y-124.62
M15
G01X57.03Y-125.72
M16
G05
G00X57.03Y-129.05
M15
G01X57.03Y-129.65
M16
G05
G00X65.67Y-124.62
M15
G01X65.67Y-125.72
M16
G05
G00X65.67Y-129.05
M15
G01X65.67Y-129.65
M16
G05
T0
M30
