%FSLAX45Y45*%
G04 Gerber Fmt 4.5, Leading zero omitted, Abs format (unit mm)*
G04 Created by KiCad (PCBNEW 5.99.0-unknown-4e273827f0~131~ubuntu20.04.1) date 2021-08-17 12:47:08*
%MOMM*%
%LPD*%
G01*
G04 APERTURE LIST*
%TA.AperFunction,Profile*%
%ADD10C,0.100000*%
%TD*%
%ADD11C,0.200000*%
%ADD12C,0.065000*%
%ADD13C,0.325000*%
G04 APERTURE END LIST*
D10*
X9910000Y-12595000D02*
X9910000Y-13220000D01*
X4340000Y-9120000D02*
G75*
G03*
X4340000Y-9120000I-180000J0D01*
G01*
X4340000Y-12170000D02*
G75*
G03*
X4340000Y-12170000I-180000J0D01*
G01*
X3265000Y-12420000D02*
G75*
G02*
X3440000Y-12595000I0J-175000D01*
G01*
X9910000Y-13220000D02*
X3440000Y-13220000D01*
X10710000Y-8870000D02*
X10710000Y-12420000D01*
X3440000Y-13220000D02*
X3440000Y-12595000D01*
X9910000Y-12595000D02*
G75*
G02*
X10085000Y-12420000I175000J0D01*
G01*
X9910000Y-8070000D02*
X9910000Y-8695000D01*
X2640000Y-8870000D02*
X3265000Y-8870000D01*
X3440000Y-8695000D02*
X3440000Y-8070000D01*
X10085000Y-8870000D02*
G75*
G02*
X9910000Y-8695000I0J175000D01*
G01*
X3440000Y-8070000D02*
X9910000Y-8070000D01*
X3440000Y-8695000D02*
G75*
G02*
X3265000Y-8870000I-175000J0D01*
G01*
X9370000Y-9120000D02*
G75*
G03*
X9370000Y-9120000I-180000J0D01*
G01*
X10085000Y-8870000D02*
X10710000Y-8870000D01*
X10710000Y-12420000D02*
X10085000Y-12420000D01*
X2640000Y-12420000D02*
X2640000Y-8870000D01*
X3265000Y-12420000D02*
X2640000Y-12420000D01*
X9370000Y-12170000D02*
G75*
G03*
X9370000Y-12170000I-180000J0D01*
G01*
D11*
D12*
X5813500Y-12537500D02*
X5878500Y-12602500D01*
X5878500Y-12537500D02*
X5813500Y-12602500D01*
X6391500Y-12537500D02*
X6456500Y-12602500D01*
X6456500Y-12537500D02*
X6391500Y-12602500D01*
D13*
X3643500Y-10069000D02*
G75*
G03*
X3643500Y-10069000I-162500J0D01*
G01*
X3643500Y-11085000D02*
G75*
G03*
X3643500Y-11085000I-162500J0D01*
G01*
D11*
X2892619Y-13535476D02*
X2892619Y-13335476D01*
X2940238Y-13335476D01*
X2968809Y-13345000D01*
X2987857Y-13364048D01*
X2997381Y-13383095D01*
X3006905Y-13421190D01*
X3006905Y-13449762D01*
X2997381Y-13487857D01*
X2987857Y-13506905D01*
X2968809Y-13525952D01*
X2940238Y-13535476D01*
X2892619Y-13535476D01*
X3092619Y-13535476D02*
X3092619Y-13402143D01*
X3092619Y-13440238D02*
X3102143Y-13421190D01*
X3111667Y-13411667D01*
X3130714Y-13402143D01*
X3149762Y-13402143D01*
X3216428Y-13535476D02*
X3216428Y-13402143D01*
X3216428Y-13335476D02*
X3206905Y-13345000D01*
X3216428Y-13354524D01*
X3225952Y-13345000D01*
X3216428Y-13335476D01*
X3216428Y-13354524D01*
X3340238Y-13535476D02*
X3321190Y-13525952D01*
X3311667Y-13506905D01*
X3311667Y-13335476D01*
X3445000Y-13535476D02*
X3425952Y-13525952D01*
X3416428Y-13506905D01*
X3416428Y-13335476D01*
X3673571Y-13535476D02*
X3673571Y-13335476D01*
X3740238Y-13478333D01*
X3806905Y-13335476D01*
X3806905Y-13535476D01*
X3987857Y-13535476D02*
X3987857Y-13430714D01*
X3978333Y-13411667D01*
X3959286Y-13402143D01*
X3921190Y-13402143D01*
X3902143Y-13411667D01*
X3987857Y-13525952D02*
X3968809Y-13535476D01*
X3921190Y-13535476D01*
X3902143Y-13525952D01*
X3892619Y-13506905D01*
X3892619Y-13487857D01*
X3902143Y-13468809D01*
X3921190Y-13459286D01*
X3968809Y-13459286D01*
X3987857Y-13449762D01*
X4083095Y-13402143D02*
X4083095Y-13602143D01*
X4083095Y-13411667D02*
X4102143Y-13402143D01*
X4140238Y-13402143D01*
X4159286Y-13411667D01*
X4168809Y-13421190D01*
X4178333Y-13440238D01*
X4178333Y-13497381D01*
X4168809Y-13516428D01*
X4159286Y-13525952D01*
X4140238Y-13535476D01*
X4102143Y-13535476D01*
X4083095Y-13525952D01*
X4264048Y-13516428D02*
X4273571Y-13525952D01*
X4264048Y-13535476D01*
X4254524Y-13525952D01*
X4264048Y-13516428D01*
X4264048Y-13535476D01*
X4264048Y-13411667D02*
X4273571Y-13421190D01*
X4264048Y-13430714D01*
X4254524Y-13421190D01*
X4264048Y-13411667D01*
X4264048Y-13430714D01*
D12*
X2570000Y-13832500D02*
X2635000Y-13897500D01*
X2635000Y-13832500D02*
X2570000Y-13897500D01*
D11*
X2930714Y-13755476D02*
X2949762Y-13755476D01*
X2968809Y-13765000D01*
X2978333Y-13774524D01*
X2987857Y-13793571D01*
X2997381Y-13831667D01*
X2997381Y-13879286D01*
X2987857Y-13917381D01*
X2978333Y-13936428D01*
X2968809Y-13945952D01*
X2949762Y-13955476D01*
X2930714Y-13955476D01*
X2911667Y-13945952D01*
X2902143Y-13936428D01*
X2892619Y-13917381D01*
X2883095Y-13879286D01*
X2883095Y-13831667D01*
X2892619Y-13793571D01*
X2902143Y-13774524D01*
X2911667Y-13765000D01*
X2930714Y-13755476D01*
X3083095Y-13936428D02*
X3092619Y-13945952D01*
X3083095Y-13955476D01*
X3073571Y-13945952D01*
X3083095Y-13936428D01*
X3083095Y-13955476D01*
X3264048Y-13755476D02*
X3225952Y-13755476D01*
X3206905Y-13765000D01*
X3197381Y-13774524D01*
X3178333Y-13803095D01*
X3168809Y-13841190D01*
X3168809Y-13917381D01*
X3178333Y-13936428D01*
X3187857Y-13945952D01*
X3206905Y-13955476D01*
X3245000Y-13955476D01*
X3264048Y-13945952D01*
X3273571Y-13936428D01*
X3283095Y-13917381D01*
X3283095Y-13869762D01*
X3273571Y-13850714D01*
X3264048Y-13841190D01*
X3245000Y-13831667D01*
X3206905Y-13831667D01*
X3187857Y-13841190D01*
X3178333Y-13850714D01*
X3168809Y-13869762D01*
X3464048Y-13755476D02*
X3368809Y-13755476D01*
X3359286Y-13850714D01*
X3368809Y-13841190D01*
X3387857Y-13831667D01*
X3435476Y-13831667D01*
X3454524Y-13841190D01*
X3464048Y-13850714D01*
X3473571Y-13869762D01*
X3473571Y-13917381D01*
X3464048Y-13936428D01*
X3454524Y-13945952D01*
X3435476Y-13955476D01*
X3387857Y-13955476D01*
X3368809Y-13945952D01*
X3359286Y-13936428D01*
X3597381Y-13755476D02*
X3616428Y-13755476D01*
X3635476Y-13765000D01*
X3645000Y-13774524D01*
X3654524Y-13793571D01*
X3664048Y-13831667D01*
X3664048Y-13879286D01*
X3654524Y-13917381D01*
X3645000Y-13936428D01*
X3635476Y-13945952D01*
X3616428Y-13955476D01*
X3597381Y-13955476D01*
X3578333Y-13945952D01*
X3568809Y-13936428D01*
X3559286Y-13917381D01*
X3549762Y-13879286D01*
X3549762Y-13831667D01*
X3559286Y-13793571D01*
X3568809Y-13774524D01*
X3578333Y-13765000D01*
X3597381Y-13755476D01*
X3749762Y-13955476D02*
X3749762Y-13822143D01*
X3749762Y-13841190D02*
X3759286Y-13831667D01*
X3778333Y-13822143D01*
X3806905Y-13822143D01*
X3825952Y-13831667D01*
X3835476Y-13850714D01*
X3835476Y-13955476D01*
X3835476Y-13850714D02*
X3845000Y-13831667D01*
X3864048Y-13822143D01*
X3892619Y-13822143D01*
X3911667Y-13831667D01*
X3921190Y-13850714D01*
X3921190Y-13955476D01*
X4016428Y-13955476D02*
X4016428Y-13822143D01*
X4016428Y-13841190D02*
X4025952Y-13831667D01*
X4045000Y-13822143D01*
X4073571Y-13822143D01*
X4092619Y-13831667D01*
X4102143Y-13850714D01*
X4102143Y-13955476D01*
X4102143Y-13850714D02*
X4111667Y-13831667D01*
X4130714Y-13822143D01*
X4159286Y-13822143D01*
X4178333Y-13831667D01*
X4187857Y-13850714D01*
X4187857Y-13955476D01*
X4578333Y-13745952D02*
X4406905Y-14003095D01*
X4835476Y-13755476D02*
X4854524Y-13755476D01*
X4873571Y-13765000D01*
X4883095Y-13774524D01*
X4892619Y-13793571D01*
X4902143Y-13831667D01*
X4902143Y-13879286D01*
X4892619Y-13917381D01*
X4883095Y-13936428D01*
X4873571Y-13945952D01*
X4854524Y-13955476D01*
X4835476Y-13955476D01*
X4816429Y-13945952D01*
X4806905Y-13936428D01*
X4797381Y-13917381D01*
X4787857Y-13879286D01*
X4787857Y-13831667D01*
X4797381Y-13793571D01*
X4806905Y-13774524D01*
X4816429Y-13765000D01*
X4835476Y-13755476D01*
X4987857Y-13936428D02*
X4997381Y-13945952D01*
X4987857Y-13955476D01*
X4978333Y-13945952D01*
X4987857Y-13936428D01*
X4987857Y-13955476D01*
X5121190Y-13755476D02*
X5140238Y-13755476D01*
X5159286Y-13765000D01*
X5168810Y-13774524D01*
X5178333Y-13793571D01*
X5187857Y-13831667D01*
X5187857Y-13879286D01*
X5178333Y-13917381D01*
X5168810Y-13936428D01*
X5159286Y-13945952D01*
X5140238Y-13955476D01*
X5121190Y-13955476D01*
X5102143Y-13945952D01*
X5092619Y-13936428D01*
X5083095Y-13917381D01*
X5073571Y-13879286D01*
X5073571Y-13831667D01*
X5083095Y-13793571D01*
X5092619Y-13774524D01*
X5102143Y-13765000D01*
X5121190Y-13755476D01*
X5264048Y-13774524D02*
X5273571Y-13765000D01*
X5292619Y-13755476D01*
X5340238Y-13755476D01*
X5359286Y-13765000D01*
X5368810Y-13774524D01*
X5378333Y-13793571D01*
X5378333Y-13812619D01*
X5368810Y-13841190D01*
X5254524Y-13955476D01*
X5378333Y-13955476D01*
X5559286Y-13755476D02*
X5464048Y-13755476D01*
X5454524Y-13850714D01*
X5464048Y-13841190D01*
X5483095Y-13831667D01*
X5530714Y-13831667D01*
X5549762Y-13841190D01*
X5559286Y-13850714D01*
X5568810Y-13869762D01*
X5568810Y-13917381D01*
X5559286Y-13936428D01*
X5549762Y-13945952D01*
X5530714Y-13955476D01*
X5483095Y-13955476D01*
X5464048Y-13945952D01*
X5454524Y-13936428D01*
X5740238Y-13755476D02*
X5702143Y-13755476D01*
X5683095Y-13765000D01*
X5673571Y-13774524D01*
X5654524Y-13803095D01*
X5645000Y-13841190D01*
X5645000Y-13917381D01*
X5654524Y-13936428D01*
X5664048Y-13945952D01*
X5683095Y-13955476D01*
X5721190Y-13955476D01*
X5740238Y-13945952D01*
X5749762Y-13936428D01*
X5759286Y-13917381D01*
X5759286Y-13869762D01*
X5749762Y-13850714D01*
X5740238Y-13841190D01*
X5721190Y-13831667D01*
X5683095Y-13831667D01*
X5664048Y-13841190D01*
X5654524Y-13850714D01*
X5645000Y-13869762D01*
X5835476Y-13755476D02*
X5835476Y-13793571D01*
X5911667Y-13755476D02*
X5911667Y-13793571D01*
X6206905Y-14031667D02*
X6197381Y-14022143D01*
X6178333Y-13993571D01*
X6168809Y-13974524D01*
X6159286Y-13945952D01*
X6149762Y-13898333D01*
X6149762Y-13860238D01*
X6159286Y-13812619D01*
X6168809Y-13784048D01*
X6178333Y-13765000D01*
X6197381Y-13736428D01*
X6206905Y-13726905D01*
X6273571Y-13774524D02*
X6283095Y-13765000D01*
X6302143Y-13755476D01*
X6349762Y-13755476D01*
X6368809Y-13765000D01*
X6378333Y-13774524D01*
X6387857Y-13793571D01*
X6387857Y-13812619D01*
X6378333Y-13841190D01*
X6264048Y-13955476D01*
X6387857Y-13955476D01*
X6625952Y-13955476D02*
X6625952Y-13755476D01*
X6711667Y-13955476D02*
X6711667Y-13850714D01*
X6702143Y-13831667D01*
X6683095Y-13822143D01*
X6654524Y-13822143D01*
X6635476Y-13831667D01*
X6625952Y-13841190D01*
X6835476Y-13955476D02*
X6816428Y-13945952D01*
X6806905Y-13936428D01*
X6797381Y-13917381D01*
X6797381Y-13860238D01*
X6806905Y-13841190D01*
X6816428Y-13831667D01*
X6835476Y-13822143D01*
X6864048Y-13822143D01*
X6883095Y-13831667D01*
X6892619Y-13841190D01*
X6902143Y-13860238D01*
X6902143Y-13917381D01*
X6892619Y-13936428D01*
X6883095Y-13945952D01*
X6864048Y-13955476D01*
X6835476Y-13955476D01*
X7016428Y-13955476D02*
X6997381Y-13945952D01*
X6987857Y-13926905D01*
X6987857Y-13755476D01*
X7168809Y-13945952D02*
X7149762Y-13955476D01*
X7111667Y-13955476D01*
X7092619Y-13945952D01*
X7083095Y-13926905D01*
X7083095Y-13850714D01*
X7092619Y-13831667D01*
X7111667Y-13822143D01*
X7149762Y-13822143D01*
X7168809Y-13831667D01*
X7178333Y-13850714D01*
X7178333Y-13869762D01*
X7083095Y-13888809D01*
X7254524Y-13945952D02*
X7273571Y-13955476D01*
X7311667Y-13955476D01*
X7330714Y-13945952D01*
X7340238Y-13926905D01*
X7340238Y-13917381D01*
X7330714Y-13898333D01*
X7311667Y-13888809D01*
X7283095Y-13888809D01*
X7264048Y-13879286D01*
X7254524Y-13860238D01*
X7254524Y-13850714D01*
X7264048Y-13831667D01*
X7283095Y-13822143D01*
X7311667Y-13822143D01*
X7330714Y-13831667D01*
X7406905Y-14031667D02*
X7416428Y-14022143D01*
X7435476Y-13993571D01*
X7445000Y-13974524D01*
X7454524Y-13945952D01*
X7464048Y-13898333D01*
X7464048Y-13860238D01*
X7454524Y-13812619D01*
X7445000Y-13784048D01*
X7435476Y-13765000D01*
X7416428Y-13736428D01*
X7406905Y-13726905D01*
X7768809Y-14031667D02*
X7759286Y-14022143D01*
X7740238Y-13993571D01*
X7730714Y-13974524D01*
X7721190Y-13945952D01*
X7711667Y-13898333D01*
X7711667Y-13860238D01*
X7721190Y-13812619D01*
X7730714Y-13784048D01*
X7740238Y-13765000D01*
X7759286Y-13736428D01*
X7768809Y-13726905D01*
X7845000Y-13822143D02*
X7845000Y-13955476D01*
X7845000Y-13841190D02*
X7854524Y-13831667D01*
X7873571Y-13822143D01*
X7902143Y-13822143D01*
X7921190Y-13831667D01*
X7930714Y-13850714D01*
X7930714Y-13955476D01*
X8054524Y-13955476D02*
X8035476Y-13945952D01*
X8025952Y-13936428D01*
X8016428Y-13917381D01*
X8016428Y-13860238D01*
X8025952Y-13841190D01*
X8035476Y-13831667D01*
X8054524Y-13822143D01*
X8083095Y-13822143D01*
X8102143Y-13831667D01*
X8111667Y-13841190D01*
X8121190Y-13860238D01*
X8121190Y-13917381D01*
X8111667Y-13936428D01*
X8102143Y-13945952D01*
X8083095Y-13955476D01*
X8054524Y-13955476D01*
X8178333Y-13822143D02*
X8254524Y-13822143D01*
X8206905Y-13755476D02*
X8206905Y-13926905D01*
X8216428Y-13945952D01*
X8235476Y-13955476D01*
X8254524Y-13955476D01*
X8473571Y-13822143D02*
X8473571Y-14022143D01*
X8473571Y-13831667D02*
X8492619Y-13822143D01*
X8530714Y-13822143D01*
X8549762Y-13831667D01*
X8559286Y-13841190D01*
X8568810Y-13860238D01*
X8568810Y-13917381D01*
X8559286Y-13936428D01*
X8549762Y-13945952D01*
X8530714Y-13955476D01*
X8492619Y-13955476D01*
X8473571Y-13945952D01*
X8683095Y-13955476D02*
X8664048Y-13945952D01*
X8654524Y-13926905D01*
X8654524Y-13755476D01*
X8845000Y-13955476D02*
X8845000Y-13850714D01*
X8835476Y-13831667D01*
X8816429Y-13822143D01*
X8778333Y-13822143D01*
X8759286Y-13831667D01*
X8845000Y-13945952D02*
X8825952Y-13955476D01*
X8778333Y-13955476D01*
X8759286Y-13945952D01*
X8749762Y-13926905D01*
X8749762Y-13907857D01*
X8759286Y-13888809D01*
X8778333Y-13879286D01*
X8825952Y-13879286D01*
X8845000Y-13869762D01*
X8911667Y-13822143D02*
X8987857Y-13822143D01*
X8940238Y-13755476D02*
X8940238Y-13926905D01*
X8949762Y-13945952D01*
X8968810Y-13955476D01*
X8987857Y-13955476D01*
X9130714Y-13945952D02*
X9111667Y-13955476D01*
X9073571Y-13955476D01*
X9054524Y-13945952D01*
X9045000Y-13926905D01*
X9045000Y-13850714D01*
X9054524Y-13831667D01*
X9073571Y-13822143D01*
X9111667Y-13822143D01*
X9130714Y-13831667D01*
X9140238Y-13850714D01*
X9140238Y-13869762D01*
X9045000Y-13888809D01*
X9311667Y-13955476D02*
X9311667Y-13755476D01*
X9311667Y-13945952D02*
X9292619Y-13955476D01*
X9254524Y-13955476D01*
X9235476Y-13945952D01*
X9225952Y-13936428D01*
X9216429Y-13917381D01*
X9216429Y-13860238D01*
X9225952Y-13841190D01*
X9235476Y-13831667D01*
X9254524Y-13822143D01*
X9292619Y-13822143D01*
X9311667Y-13831667D01*
X9387857Y-14031667D02*
X9397381Y-14022143D01*
X9416429Y-13993571D01*
X9425952Y-13974524D01*
X9435476Y-13945952D01*
X9445000Y-13898333D01*
X9445000Y-13860238D01*
X9435476Y-13812619D01*
X9425952Y-13784048D01*
X9416429Y-13765000D01*
X9397381Y-13736428D01*
X9387857Y-13726905D01*
X2635000Y-14129000D02*
G75*
G03*
X2635000Y-14129000I-100000J0D01*
G01*
X2873571Y-14019476D02*
X2997381Y-14019476D01*
X2930714Y-14095667D01*
X2959286Y-14095667D01*
X2978333Y-14105190D01*
X2987857Y-14114714D01*
X2997381Y-14133762D01*
X2997381Y-14181381D01*
X2987857Y-14200428D01*
X2978333Y-14209952D01*
X2959286Y-14219476D01*
X2902143Y-14219476D01*
X2883095Y-14209952D01*
X2873571Y-14200428D01*
X3083095Y-14200428D02*
X3092619Y-14209952D01*
X3083095Y-14219476D01*
X3073571Y-14209952D01*
X3083095Y-14200428D01*
X3083095Y-14219476D01*
X3168809Y-14038524D02*
X3178333Y-14029000D01*
X3197381Y-14019476D01*
X3245000Y-14019476D01*
X3264048Y-14029000D01*
X3273571Y-14038524D01*
X3283095Y-14057571D01*
X3283095Y-14076619D01*
X3273571Y-14105190D01*
X3159286Y-14219476D01*
X3283095Y-14219476D01*
X3464048Y-14019476D02*
X3368809Y-14019476D01*
X3359286Y-14114714D01*
X3368809Y-14105190D01*
X3387857Y-14095667D01*
X3435476Y-14095667D01*
X3454524Y-14105190D01*
X3464048Y-14114714D01*
X3473571Y-14133762D01*
X3473571Y-14181381D01*
X3464048Y-14200428D01*
X3454524Y-14209952D01*
X3435476Y-14219476D01*
X3387857Y-14219476D01*
X3368809Y-14209952D01*
X3359286Y-14200428D01*
X3597381Y-14019476D02*
X3616428Y-14019476D01*
X3635476Y-14029000D01*
X3645000Y-14038524D01*
X3654524Y-14057571D01*
X3664048Y-14095667D01*
X3664048Y-14143286D01*
X3654524Y-14181381D01*
X3645000Y-14200428D01*
X3635476Y-14209952D01*
X3616428Y-14219476D01*
X3597381Y-14219476D01*
X3578333Y-14209952D01*
X3568809Y-14200428D01*
X3559286Y-14181381D01*
X3549762Y-14143286D01*
X3549762Y-14095667D01*
X3559286Y-14057571D01*
X3568809Y-14038524D01*
X3578333Y-14029000D01*
X3597381Y-14019476D01*
X3749762Y-14219476D02*
X3749762Y-14086143D01*
X3749762Y-14105190D02*
X3759286Y-14095667D01*
X3778333Y-14086143D01*
X3806905Y-14086143D01*
X3825952Y-14095667D01*
X3835476Y-14114714D01*
X3835476Y-14219476D01*
X3835476Y-14114714D02*
X3845000Y-14095667D01*
X3864048Y-14086143D01*
X3892619Y-14086143D01*
X3911667Y-14095667D01*
X3921190Y-14114714D01*
X3921190Y-14219476D01*
X4016428Y-14219476D02*
X4016428Y-14086143D01*
X4016428Y-14105190D02*
X4025952Y-14095667D01*
X4045000Y-14086143D01*
X4073571Y-14086143D01*
X4092619Y-14095667D01*
X4102143Y-14114714D01*
X4102143Y-14219476D01*
X4102143Y-14114714D02*
X4111667Y-14095667D01*
X4130714Y-14086143D01*
X4159286Y-14086143D01*
X4178333Y-14095667D01*
X4187857Y-14114714D01*
X4187857Y-14219476D01*
X4578333Y-14009952D02*
X4406905Y-14267095D01*
X4835476Y-14019476D02*
X4854524Y-14019476D01*
X4873571Y-14029000D01*
X4883095Y-14038524D01*
X4892619Y-14057571D01*
X4902143Y-14095667D01*
X4902143Y-14143286D01*
X4892619Y-14181381D01*
X4883095Y-14200428D01*
X4873571Y-14209952D01*
X4854524Y-14219476D01*
X4835476Y-14219476D01*
X4816429Y-14209952D01*
X4806905Y-14200428D01*
X4797381Y-14181381D01*
X4787857Y-14143286D01*
X4787857Y-14095667D01*
X4797381Y-14057571D01*
X4806905Y-14038524D01*
X4816429Y-14029000D01*
X4835476Y-14019476D01*
X4987857Y-14200428D02*
X4997381Y-14209952D01*
X4987857Y-14219476D01*
X4978333Y-14209952D01*
X4987857Y-14200428D01*
X4987857Y-14219476D01*
X5187857Y-14219476D02*
X5073571Y-14219476D01*
X5130714Y-14219476D02*
X5130714Y-14019476D01*
X5111667Y-14048048D01*
X5092619Y-14067095D01*
X5073571Y-14076619D01*
X5264048Y-14038524D02*
X5273571Y-14029000D01*
X5292619Y-14019476D01*
X5340238Y-14019476D01*
X5359286Y-14029000D01*
X5368810Y-14038524D01*
X5378333Y-14057571D01*
X5378333Y-14076619D01*
X5368810Y-14105190D01*
X5254524Y-14219476D01*
X5378333Y-14219476D01*
X5492619Y-14105190D02*
X5473571Y-14095667D01*
X5464048Y-14086143D01*
X5454524Y-14067095D01*
X5454524Y-14057571D01*
X5464048Y-14038524D01*
X5473571Y-14029000D01*
X5492619Y-14019476D01*
X5530714Y-14019476D01*
X5549762Y-14029000D01*
X5559286Y-14038524D01*
X5568810Y-14057571D01*
X5568810Y-14067095D01*
X5559286Y-14086143D01*
X5549762Y-14095667D01*
X5530714Y-14105190D01*
X5492619Y-14105190D01*
X5473571Y-14114714D01*
X5464048Y-14124238D01*
X5454524Y-14143286D01*
X5454524Y-14181381D01*
X5464048Y-14200428D01*
X5473571Y-14209952D01*
X5492619Y-14219476D01*
X5530714Y-14219476D01*
X5549762Y-14209952D01*
X5559286Y-14200428D01*
X5568810Y-14181381D01*
X5568810Y-14143286D01*
X5559286Y-14124238D01*
X5549762Y-14114714D01*
X5530714Y-14105190D01*
X5692619Y-14019476D02*
X5711667Y-14019476D01*
X5730714Y-14029000D01*
X5740238Y-14038524D01*
X5749762Y-14057571D01*
X5759286Y-14095667D01*
X5759286Y-14143286D01*
X5749762Y-14181381D01*
X5740238Y-14200428D01*
X5730714Y-14209952D01*
X5711667Y-14219476D01*
X5692619Y-14219476D01*
X5673571Y-14209952D01*
X5664048Y-14200428D01*
X5654524Y-14181381D01*
X5645000Y-14143286D01*
X5645000Y-14095667D01*
X5654524Y-14057571D01*
X5664048Y-14038524D01*
X5673571Y-14029000D01*
X5692619Y-14019476D01*
X5835476Y-14019476D02*
X5835476Y-14057571D01*
X5911667Y-14019476D02*
X5911667Y-14057571D01*
X6206905Y-14295667D02*
X6197381Y-14286143D01*
X6178333Y-14257571D01*
X6168809Y-14238524D01*
X6159286Y-14209952D01*
X6149762Y-14162333D01*
X6149762Y-14124238D01*
X6159286Y-14076619D01*
X6168809Y-14048048D01*
X6178333Y-14029000D01*
X6197381Y-14000428D01*
X6206905Y-13990905D01*
X6273571Y-14038524D02*
X6283095Y-14029000D01*
X6302143Y-14019476D01*
X6349762Y-14019476D01*
X6368809Y-14029000D01*
X6378333Y-14038524D01*
X6387857Y-14057571D01*
X6387857Y-14076619D01*
X6378333Y-14105190D01*
X6264048Y-14219476D01*
X6387857Y-14219476D01*
X6625952Y-14219476D02*
X6625952Y-14019476D01*
X6711667Y-14219476D02*
X6711667Y-14114714D01*
X6702143Y-14095667D01*
X6683095Y-14086143D01*
X6654524Y-14086143D01*
X6635476Y-14095667D01*
X6625952Y-14105190D01*
X6835476Y-14219476D02*
X6816428Y-14209952D01*
X6806905Y-14200428D01*
X6797381Y-14181381D01*
X6797381Y-14124238D01*
X6806905Y-14105190D01*
X6816428Y-14095667D01*
X6835476Y-14086143D01*
X6864048Y-14086143D01*
X6883095Y-14095667D01*
X6892619Y-14105190D01*
X6902143Y-14124238D01*
X6902143Y-14181381D01*
X6892619Y-14200428D01*
X6883095Y-14209952D01*
X6864048Y-14219476D01*
X6835476Y-14219476D01*
X7016428Y-14219476D02*
X6997381Y-14209952D01*
X6987857Y-14190905D01*
X6987857Y-14019476D01*
X7168809Y-14209952D02*
X7149762Y-14219476D01*
X7111667Y-14219476D01*
X7092619Y-14209952D01*
X7083095Y-14190905D01*
X7083095Y-14114714D01*
X7092619Y-14095667D01*
X7111667Y-14086143D01*
X7149762Y-14086143D01*
X7168809Y-14095667D01*
X7178333Y-14114714D01*
X7178333Y-14133762D01*
X7083095Y-14152809D01*
X7254524Y-14209952D02*
X7273571Y-14219476D01*
X7311667Y-14219476D01*
X7330714Y-14209952D01*
X7340238Y-14190905D01*
X7340238Y-14181381D01*
X7330714Y-14162333D01*
X7311667Y-14152809D01*
X7283095Y-14152809D01*
X7264048Y-14143286D01*
X7254524Y-14124238D01*
X7254524Y-14114714D01*
X7264048Y-14095667D01*
X7283095Y-14086143D01*
X7311667Y-14086143D01*
X7330714Y-14095667D01*
X7406905Y-14295667D02*
X7416428Y-14286143D01*
X7435476Y-14257571D01*
X7445000Y-14238524D01*
X7454524Y-14209952D01*
X7464048Y-14162333D01*
X7464048Y-14124238D01*
X7454524Y-14076619D01*
X7445000Y-14048048D01*
X7435476Y-14029000D01*
X7416428Y-14000428D01*
X7406905Y-13990905D01*
X7768809Y-14295667D02*
X7759286Y-14286143D01*
X7740238Y-14257571D01*
X7730714Y-14238524D01*
X7721190Y-14209952D01*
X7711667Y-14162333D01*
X7711667Y-14124238D01*
X7721190Y-14076619D01*
X7730714Y-14048048D01*
X7740238Y-14029000D01*
X7759286Y-14000428D01*
X7768809Y-13990905D01*
X7845000Y-14086143D02*
X7845000Y-14219476D01*
X7845000Y-14105190D02*
X7854524Y-14095667D01*
X7873571Y-14086143D01*
X7902143Y-14086143D01*
X7921190Y-14095667D01*
X7930714Y-14114714D01*
X7930714Y-14219476D01*
X8054524Y-14219476D02*
X8035476Y-14209952D01*
X8025952Y-14200428D01*
X8016428Y-14181381D01*
X8016428Y-14124238D01*
X8025952Y-14105190D01*
X8035476Y-14095667D01*
X8054524Y-14086143D01*
X8083095Y-14086143D01*
X8102143Y-14095667D01*
X8111667Y-14105190D01*
X8121190Y-14124238D01*
X8121190Y-14181381D01*
X8111667Y-14200428D01*
X8102143Y-14209952D01*
X8083095Y-14219476D01*
X8054524Y-14219476D01*
X8178333Y-14086143D02*
X8254524Y-14086143D01*
X8206905Y-14019476D02*
X8206905Y-14190905D01*
X8216428Y-14209952D01*
X8235476Y-14219476D01*
X8254524Y-14219476D01*
X8473571Y-14086143D02*
X8473571Y-14286143D01*
X8473571Y-14095667D02*
X8492619Y-14086143D01*
X8530714Y-14086143D01*
X8549762Y-14095667D01*
X8559286Y-14105190D01*
X8568810Y-14124238D01*
X8568810Y-14181381D01*
X8559286Y-14200428D01*
X8549762Y-14209952D01*
X8530714Y-14219476D01*
X8492619Y-14219476D01*
X8473571Y-14209952D01*
X8683095Y-14219476D02*
X8664048Y-14209952D01*
X8654524Y-14190905D01*
X8654524Y-14019476D01*
X8845000Y-14219476D02*
X8845000Y-14114714D01*
X8835476Y-14095667D01*
X8816429Y-14086143D01*
X8778333Y-14086143D01*
X8759286Y-14095667D01*
X8845000Y-14209952D02*
X8825952Y-14219476D01*
X8778333Y-14219476D01*
X8759286Y-14209952D01*
X8749762Y-14190905D01*
X8749762Y-14171857D01*
X8759286Y-14152809D01*
X8778333Y-14143286D01*
X8825952Y-14143286D01*
X8845000Y-14133762D01*
X8911667Y-14086143D02*
X8987857Y-14086143D01*
X8940238Y-14019476D02*
X8940238Y-14190905D01*
X8949762Y-14209952D01*
X8968810Y-14219476D01*
X8987857Y-14219476D01*
X9130714Y-14209952D02*
X9111667Y-14219476D01*
X9073571Y-14219476D01*
X9054524Y-14209952D01*
X9045000Y-14190905D01*
X9045000Y-14114714D01*
X9054524Y-14095667D01*
X9073571Y-14086143D01*
X9111667Y-14086143D01*
X9130714Y-14095667D01*
X9140238Y-14114714D01*
X9140238Y-14133762D01*
X9045000Y-14152809D01*
X9311667Y-14219476D02*
X9311667Y-14019476D01*
X9311667Y-14209952D02*
X9292619Y-14219476D01*
X9254524Y-14219476D01*
X9235476Y-14209952D01*
X9225952Y-14200428D01*
X9216429Y-14181381D01*
X9216429Y-14124238D01*
X9225952Y-14105190D01*
X9235476Y-14095667D01*
X9254524Y-14086143D01*
X9292619Y-14086143D01*
X9311667Y-14095667D01*
X9387857Y-14295667D02*
X9397381Y-14286143D01*
X9416429Y-14257571D01*
X9425952Y-14238524D01*
X9435476Y-14209952D01*
X9445000Y-14162333D01*
X9445000Y-14124238D01*
X9435476Y-14076619D01*
X9425952Y-14048048D01*
X9416429Y-14029000D01*
X9397381Y-14000428D01*
X9387857Y-13990905D01*
M02*
