%TF.GenerationSoftware,KiCad,Pcbnew,5.99.0-unknown-4e273827f0~131~ubuntu20.04.1*%
%TF.CreationDate,2021-08-17T12:46:56+02:00*%
%TF.ProjectId,CDEM,4344454d-2e6b-4696-9361-645f70636258,rev?*%
%TF.SameCoordinates,Original*%
%TF.FileFunction,Soldermask,Top*%
%TF.FilePolarity,Negative*%
%FSLAX46Y46*%
G04 Gerber Fmt 4.6, Leading zero omitted, Abs format (unit mm)*
G04 Created by KiCad (PCBNEW 5.99.0-unknown-4e273827f0~131~ubuntu20.04.1) date 2021-08-17 12:46:56*
%MOMM*%
%LPD*%
G01*
G04 APERTURE LIST*
G04 Aperture macros list*
%AMRoundRect*
0 Rectangle with rounded corners*
0 $1 Rounding radius*
0 $2 $3 $4 $5 $6 $7 $8 $9 X,Y pos of 4 corners*
0 Add a 4 corners polygon primitive as box body*
4,1,4,$2,$3,$4,$5,$6,$7,$8,$9,$2,$3,0*
0 Add four circle primitives for the rounded corners*
1,1,$1+$1,$2,$3*
1,1,$1+$1,$4,$5*
1,1,$1+$1,$6,$7*
1,1,$1+$1,$8,$9*
0 Add four rect primitives between the rounded corners*
20,1,$1+$1,$2,$3,$4,$5,0*
20,1,$1+$1,$4,$5,$6,$7,0*
20,1,$1+$1,$6,$7,$8,$9,0*
20,1,$1+$1,$8,$9,$2,$3,0*%
G04 Aperture macros list end*
%ADD10RoundRect,0.200000X0.200000X0.275000X-0.200000X0.275000X-0.200000X-0.275000X0.200000X-0.275000X0*%
%ADD11RoundRect,0.150000X0.150000X-0.512500X0.150000X0.512500X-0.150000X0.512500X-0.150000X-0.512500X0*%
%ADD12RoundRect,0.200000X-0.200000X-0.275000X0.200000X-0.275000X0.200000X0.275000X-0.200000X0.275000X0*%
%ADD13RoundRect,0.062500X-0.350000X-0.062500X0.350000X-0.062500X0.350000X0.062500X-0.350000X0.062500X0*%
%ADD14RoundRect,0.062500X-0.062500X-0.350000X0.062500X-0.350000X0.062500X0.350000X-0.062500X0.350000X0*%
%ADD15R,2.600000X2.600000*%
%ADD16RoundRect,0.225000X-0.250000X0.225000X-0.250000X-0.225000X0.250000X-0.225000X0.250000X0.225000X0*%
%ADD17R,0.900000X1.200000*%
%ADD18RoundRect,0.250000X-0.250000X-0.475000X0.250000X-0.475000X0.250000X0.475000X-0.250000X0.475000X0*%
%ADD19C,0.650000*%
%ADD20R,0.600000X1.450000*%
%ADD21R,0.300000X1.450000*%
%ADD22O,1.000000X1.600000*%
%ADD23O,1.000000X2.100000*%
%ADD24RoundRect,0.250000X0.250000X0.475000X-0.250000X0.475000X-0.250000X-0.475000X0.250000X-0.475000X0*%
%ADD25RoundRect,0.218750X-0.218750X-0.256250X0.218750X-0.256250X0.218750X0.256250X-0.218750X0.256250X0*%
%ADD26RoundRect,0.225000X-0.225000X-0.250000X0.225000X-0.250000X0.225000X0.250000X-0.225000X0.250000X0*%
%ADD27R,1.700000X1.700000*%
%ADD28O,1.700000X1.700000*%
%ADD29RoundRect,0.225000X0.225000X0.250000X-0.225000X0.250000X-0.225000X-0.250000X0.225000X-0.250000X0*%
%ADD30RoundRect,0.200000X-0.275000X0.200000X-0.275000X-0.200000X0.275000X-0.200000X0.275000X0.200000X0*%
%ADD31RoundRect,0.250000X-0.475000X0.250000X-0.475000X-0.250000X0.475000X-0.250000X0.475000X0.250000X0*%
%ADD32RoundRect,0.150000X-0.587500X-0.150000X0.587500X-0.150000X0.587500X0.150000X-0.587500X0.150000X0*%
%ADD33R,1.000000X2.500000*%
%ADD34R,1.800000X1.000000*%
%ADD35R,1.700000X0.900000*%
%ADD36R,1.500000X2.000000*%
%ADD37R,3.800000X2.000000*%
%ADD38C,3.250000*%
%ADD39R,1.520000X1.520000*%
%ADD40C,1.520000*%
%ADD41RoundRect,0.200000X0.275000X-0.200000X0.275000X0.200000X-0.275000X0.200000X-0.275000X-0.200000X0*%
G04 APERTURE END LIST*
D10*
%TO.C,R1*%
X56425000Y-99100000D03*
X54775000Y-99100000D03*
%TD*%
D11*
%TO.C,U2*%
X58350000Y-110737500D03*
X59300000Y-110737500D03*
X60250000Y-110737500D03*
X60250000Y-108462500D03*
X59300000Y-108462500D03*
X58350000Y-108462500D03*
%TD*%
D12*
%TO.C,R4*%
X54775000Y-106600000D03*
X56425000Y-106600000D03*
%TD*%
D13*
%TO.C,U3*%
X63362500Y-107350000D03*
X63362500Y-107850000D03*
X63362500Y-108350000D03*
X63362500Y-108850000D03*
X63362500Y-109350000D03*
X63362500Y-109850000D03*
D14*
X64050000Y-110537500D03*
X64550000Y-110537500D03*
X65050000Y-110537500D03*
X65550000Y-110537500D03*
X66050000Y-110537500D03*
X66550000Y-110537500D03*
D13*
X67237500Y-109850000D03*
X67237500Y-109350000D03*
X67237500Y-108850000D03*
X67237500Y-108350000D03*
X67237500Y-107850000D03*
X67237500Y-107350000D03*
D14*
X66550000Y-106662500D03*
X66050000Y-106662500D03*
X65550000Y-106662500D03*
X65050000Y-106662500D03*
X64550000Y-106662500D03*
X64050000Y-106662500D03*
D15*
X65300000Y-108600000D03*
%TD*%
D16*
%TO.C,C7*%
X77900000Y-97725000D03*
X77900000Y-99275000D03*
%TD*%
D12*
%TO.C,R3*%
X54775000Y-109600000D03*
X56425000Y-109600000D03*
%TD*%
D17*
%TO.C,D1*%
X50164000Y-112522000D03*
X46864000Y-112522000D03*
%TD*%
D18*
%TO.C,C1*%
X46903600Y-107721400D03*
X48803600Y-107721400D03*
%TD*%
D19*
%TO.C,J1*%
X64240000Y-125700000D03*
X58460000Y-125700000D03*
D20*
X58100000Y-124255000D03*
X58900000Y-124255000D03*
D21*
X60100000Y-124255000D03*
X61100000Y-124255000D03*
X61600000Y-124255000D03*
X62600000Y-124255000D03*
D20*
X63800000Y-124255000D03*
X64600000Y-124255000D03*
X64600000Y-124255000D03*
X63800000Y-124255000D03*
D21*
X63100000Y-124255000D03*
X62100000Y-124255000D03*
X60600000Y-124255000D03*
X59600000Y-124255000D03*
D20*
X58900000Y-124255000D03*
X58100000Y-124255000D03*
D22*
X65670000Y-129350000D03*
D23*
X65670000Y-125170000D03*
X57030000Y-125170000D03*
D22*
X57030000Y-129350000D03*
%TD*%
D24*
%TO.C,C3*%
X52639000Y-107721400D03*
X50739000Y-107721400D03*
%TD*%
D25*
%TO.C,D4*%
X47512500Y-85500000D03*
X49087500Y-85500000D03*
%TD*%
%TO.C,D3*%
X47512500Y-83100000D03*
X49087500Y-83100000D03*
%TD*%
D26*
%TO.C,C4*%
X63625000Y-114200000D03*
X65175000Y-114200000D03*
%TD*%
D27*
%TO.C,J3*%
X71300000Y-117400000D03*
D28*
X71300000Y-119940000D03*
X71300000Y-122480000D03*
X71300000Y-125020000D03*
%TD*%
D12*
%TO.C,R9*%
X54775000Y-103600000D03*
X56425000Y-103600000D03*
%TD*%
D29*
%TO.C,C8*%
X56375000Y-100600000D03*
X54825000Y-100600000D03*
%TD*%
D27*
%TO.C,J4*%
X77216000Y-84836000D03*
D28*
X77216000Y-87376000D03*
X77216000Y-89916000D03*
%TD*%
D30*
%TO.C,R10*%
X59500000Y-98725000D03*
X59500000Y-100375000D03*
%TD*%
D12*
%TO.C,R7*%
X54775000Y-108100000D03*
X56425000Y-108100000D03*
%TD*%
%TO.C,R12*%
X64875000Y-96700000D03*
X66525000Y-96700000D03*
%TD*%
D24*
%TO.C,C9*%
X68850000Y-112200000D03*
X66950000Y-112200000D03*
%TD*%
D16*
%TO.C,C5*%
X61800000Y-111225000D03*
X61800000Y-112775000D03*
%TD*%
D10*
%TO.C,R2*%
X66525000Y-101900000D03*
X64875000Y-101900000D03*
%TD*%
D31*
%TO.C,C6*%
X79900000Y-97550000D03*
X79900000Y-99450000D03*
%TD*%
D25*
%TO.C,D5*%
X47512500Y-87700000D03*
X49087500Y-87700000D03*
%TD*%
D12*
%TO.C,R5*%
X54775000Y-105100000D03*
X56425000Y-105100000D03*
%TD*%
D32*
%TO.C,Q1*%
X64962500Y-98350000D03*
X64962500Y-100250000D03*
X66837500Y-99300000D03*
%TD*%
%TO.C,Q2*%
X61062500Y-101850000D03*
X61062500Y-103750000D03*
X62937500Y-102800000D03*
%TD*%
D33*
%TO.C,U4*%
X98100000Y-98200000D03*
X96100000Y-98200000D03*
X94100000Y-98200000D03*
X92100000Y-98200000D03*
X90100000Y-98200000D03*
X88100000Y-98200000D03*
X86100000Y-98200000D03*
X84100000Y-98200000D03*
D34*
X82600000Y-100800000D03*
X82600000Y-102800000D03*
X82600000Y-104800000D03*
X82600000Y-106800000D03*
X82600000Y-108800000D03*
X82600000Y-110800000D03*
D33*
X84100000Y-113400000D03*
X86100000Y-113400000D03*
X88100000Y-113400000D03*
X90100000Y-113400000D03*
X92100000Y-113400000D03*
X94100000Y-113400000D03*
X96100000Y-113400000D03*
X98100000Y-113400000D03*
%TD*%
D32*
%TO.C,Q3*%
X61062500Y-98350000D03*
X61062500Y-100250000D03*
X62937500Y-99300000D03*
%TD*%
D18*
%TO.C,C2*%
X63450000Y-112400000D03*
X65350000Y-112400000D03*
%TD*%
D35*
%TO.C,SW2*%
X64008000Y-82198000D03*
X64008000Y-85598000D03*
%TD*%
D10*
%TO.C,R6*%
X66525000Y-103500000D03*
X64875000Y-103500000D03*
%TD*%
D35*
%TO.C,SW1*%
X64008000Y-87098000D03*
X64008000Y-90498000D03*
%TD*%
D10*
%TO.C,R8*%
X56425000Y-102100000D03*
X54775000Y-102100000D03*
%TD*%
D17*
%TO.C,D2*%
X50164000Y-110083600D03*
X46864000Y-110083600D03*
%TD*%
D36*
%TO.C,U1*%
X47357000Y-105004000D03*
X49657000Y-105004000D03*
D37*
X49657000Y-98704000D03*
D36*
X51957000Y-105004000D03*
%TD*%
D38*
%TO.C,J2*%
X34810000Y-100690000D03*
X34810000Y-110850000D03*
D39*
X43700000Y-102600000D03*
D40*
X41160000Y-103870000D03*
X43700000Y-105140000D03*
X41160000Y-106410000D03*
X43700000Y-107680000D03*
X41160000Y-108950000D03*
%TD*%
D41*
%TO.C,R11*%
X59500000Y-103625000D03*
X59500000Y-101975000D03*
%TD*%
D10*
%TO.C,R13*%
X56425000Y-97600000D03*
X54775000Y-97600000D03*
%TD*%
M02*
