%TF.GenerationSoftware,KiCad,Pcbnew,5.99.0-unknown-4e273827f0~131~ubuntu20.04.1*%
%TF.CreationDate,2021-08-17T12:46:56+02:00*%
%TF.ProjectId,CDEM,4344454d-2e6b-4696-9361-645f70636258,rev?*%
%TF.SameCoordinates,Original*%
%TF.FileFunction,Legend,Bot*%
%TF.FilePolarity,Positive*%
%FSLAX46Y46*%
G04 Gerber Fmt 4.6, Leading zero omitted, Abs format (unit mm)*
G04 Created by KiCad (PCBNEW 5.99.0-unknown-4e273827f0~131~ubuntu20.04.1) date 2021-08-17 12:46:56*
%MOMM*%
%LPD*%
G01*
G04 APERTURE LIST*
%ADD10C,0.150000*%
%ADD11C,0.650000*%
%ADD12O,1.000000X1.600000*%
%ADD13O,1.000000X2.100000*%
%ADD14R,1.700000X1.700000*%
%ADD15O,1.700000X1.700000*%
%ADD16C,3.250000*%
%ADD17R,1.520000X1.520000*%
%ADD18C,1.520000*%
G04 APERTURE END LIST*
D10*
X89009523Y-125694761D02*
X88866666Y-125742380D01*
X88628571Y-125742380D01*
X88533333Y-125694761D01*
X88485714Y-125647142D01*
X88438095Y-125551904D01*
X88438095Y-125456666D01*
X88485714Y-125361428D01*
X88533333Y-125313809D01*
X88628571Y-125266190D01*
X88819047Y-125218571D01*
X88914285Y-125170952D01*
X88961904Y-125123333D01*
X89009523Y-125028095D01*
X89009523Y-124932857D01*
X88961904Y-124837619D01*
X88914285Y-124790000D01*
X88819047Y-124742380D01*
X88580952Y-124742380D01*
X88438095Y-124790000D01*
X88009523Y-125742380D02*
X88009523Y-125075714D01*
X88009523Y-124742380D02*
X88057142Y-124790000D01*
X88009523Y-124837619D01*
X87961904Y-124790000D01*
X88009523Y-124742380D01*
X88009523Y-124837619D01*
X87390476Y-125742380D02*
X87485714Y-125694761D01*
X87533333Y-125599523D01*
X87533333Y-124742380D01*
X86866666Y-125742380D02*
X86961904Y-125694761D01*
X87009523Y-125599523D01*
X87009523Y-124742380D01*
X86104761Y-125694761D02*
X86200000Y-125742380D01*
X86390476Y-125742380D01*
X86485714Y-125694761D01*
X86533333Y-125599523D01*
X86533333Y-125218571D01*
X86485714Y-125123333D01*
X86390476Y-125075714D01*
X86200000Y-125075714D01*
X86104761Y-125123333D01*
X86057142Y-125218571D01*
X86057142Y-125313809D01*
X86533333Y-125409047D01*
X85009523Y-124742380D02*
X84676190Y-125742380D01*
X84342857Y-124742380D01*
X83580952Y-125742380D02*
X83580952Y-125218571D01*
X83628571Y-125123333D01*
X83723809Y-125075714D01*
X83914285Y-125075714D01*
X84009523Y-125123333D01*
X83580952Y-125694761D02*
X83676190Y-125742380D01*
X83914285Y-125742380D01*
X84009523Y-125694761D01*
X84057142Y-125599523D01*
X84057142Y-125504285D01*
X84009523Y-125409047D01*
X83914285Y-125361428D01*
X83676190Y-125361428D01*
X83580952Y-125313809D01*
X83104761Y-125075714D02*
X83104761Y-125742380D01*
X83104761Y-125170952D02*
X83057142Y-125123333D01*
X82961904Y-125075714D01*
X82819047Y-125075714D01*
X82723809Y-125123333D01*
X82676190Y-125218571D01*
X82676190Y-125742380D01*
X80961904Y-125742380D02*
X81438095Y-125742380D01*
X81438095Y-124742380D01*
X80200000Y-125742380D02*
X80200000Y-125218571D01*
X80247619Y-125123333D01*
X80342857Y-125075714D01*
X80533333Y-125075714D01*
X80628571Y-125123333D01*
X80200000Y-125694761D02*
X80295238Y-125742380D01*
X80533333Y-125742380D01*
X80628571Y-125694761D01*
X80676190Y-125599523D01*
X80676190Y-125504285D01*
X80628571Y-125409047D01*
X80533333Y-125361428D01*
X80295238Y-125361428D01*
X80200000Y-125313809D01*
X79723809Y-125075714D02*
X79723809Y-125742380D01*
X79723809Y-125170952D02*
X79676190Y-125123333D01*
X79580952Y-125075714D01*
X79438095Y-125075714D01*
X79342857Y-125123333D01*
X79295238Y-125218571D01*
X79295238Y-125742380D01*
X78390476Y-125742380D02*
X78390476Y-124742380D01*
X78390476Y-125694761D02*
X78485714Y-125742380D01*
X78676190Y-125742380D01*
X78771428Y-125694761D01*
X78819047Y-125647142D01*
X78866666Y-125551904D01*
X78866666Y-125266190D01*
X78819047Y-125170952D01*
X78771428Y-125123333D01*
X78676190Y-125075714D01*
X78485714Y-125075714D01*
X78390476Y-125123333D01*
X77961904Y-125694761D02*
X77866666Y-125742380D01*
X77676190Y-125742380D01*
X77580952Y-125694761D01*
X77533333Y-125599523D01*
X77533333Y-125551904D01*
X77580952Y-125456666D01*
X77676190Y-125409047D01*
X77819047Y-125409047D01*
X77914285Y-125361428D01*
X77961904Y-125266190D01*
X77961904Y-125218571D01*
X77914285Y-125123333D01*
X77819047Y-125075714D01*
X77676190Y-125075714D01*
X77580952Y-125123333D01*
X76676190Y-125694761D02*
X76771428Y-125742380D01*
X76961904Y-125742380D01*
X77057142Y-125694761D01*
X77104761Y-125647142D01*
X77152380Y-125551904D01*
X77152380Y-125266190D01*
X77104761Y-125170952D01*
X77057142Y-125123333D01*
X76961904Y-125075714D01*
X76771428Y-125075714D01*
X76676190Y-125123333D01*
X76247619Y-125742380D02*
X76247619Y-124742380D01*
X75819047Y-125742380D02*
X75819047Y-125218571D01*
X75866666Y-125123333D01*
X75961904Y-125075714D01*
X76104761Y-125075714D01*
X76200000Y-125123333D01*
X76247619Y-125170952D01*
X75200000Y-125742380D02*
X75295238Y-125694761D01*
X75342857Y-125647142D01*
X75390476Y-125551904D01*
X75390476Y-125266190D01*
X75342857Y-125170952D01*
X75295238Y-125123333D01*
X75200000Y-125075714D01*
X75057142Y-125075714D01*
X74961904Y-125123333D01*
X74914285Y-125170952D01*
X74866666Y-125266190D01*
X74866666Y-125551904D01*
X74914285Y-125647142D01*
X74961904Y-125694761D01*
X75057142Y-125742380D01*
X75200000Y-125742380D01*
X74295238Y-125742380D02*
X74390476Y-125694761D01*
X74438095Y-125647142D01*
X74485714Y-125551904D01*
X74485714Y-125266190D01*
X74438095Y-125170952D01*
X74390476Y-125123333D01*
X74295238Y-125075714D01*
X74152380Y-125075714D01*
X74057142Y-125123333D01*
X74009523Y-125170952D01*
X73961904Y-125266190D01*
X73961904Y-125551904D01*
X74009523Y-125647142D01*
X74057142Y-125694761D01*
X74152380Y-125742380D01*
X74295238Y-125742380D01*
X73676190Y-125075714D02*
X73295238Y-125075714D01*
X73533333Y-124742380D02*
X73533333Y-125599523D01*
X73485714Y-125694761D01*
X73390476Y-125742380D01*
X73295238Y-125742380D01*
X86104761Y-127352380D02*
X86104761Y-126352380D01*
X85533333Y-127352380D01*
X85533333Y-126352380D01*
X85057142Y-127352380D02*
X85057142Y-126685714D01*
X85057142Y-126352380D02*
X85104761Y-126400000D01*
X85057142Y-126447619D01*
X85009523Y-126400000D01*
X85057142Y-126352380D01*
X85057142Y-126447619D01*
X84152380Y-127304761D02*
X84247619Y-127352380D01*
X84438095Y-127352380D01*
X84533333Y-127304761D01*
X84580952Y-127257142D01*
X84628571Y-127161904D01*
X84628571Y-126876190D01*
X84580952Y-126780952D01*
X84533333Y-126733333D01*
X84438095Y-126685714D01*
X84247619Y-126685714D01*
X84152380Y-126733333D01*
X83580952Y-127352380D02*
X83676190Y-127304761D01*
X83723809Y-127257142D01*
X83771428Y-127161904D01*
X83771428Y-126876190D01*
X83723809Y-126780952D01*
X83676190Y-126733333D01*
X83580952Y-126685714D01*
X83438095Y-126685714D01*
X83342857Y-126733333D01*
X83295238Y-126780952D01*
X83247619Y-126876190D01*
X83247619Y-127161904D01*
X83295238Y-127257142D01*
X83342857Y-127304761D01*
X83438095Y-127352380D01*
X83580952Y-127352380D01*
X82057142Y-127352380D02*
X82057142Y-126352380D01*
X81819047Y-126352380D01*
X81676190Y-126400000D01*
X81580952Y-126495238D01*
X81533333Y-126590476D01*
X81485714Y-126780952D01*
X81485714Y-126923809D01*
X81533333Y-127114285D01*
X81580952Y-127209523D01*
X81676190Y-127304761D01*
X81819047Y-127352380D01*
X82057142Y-127352380D01*
X80676190Y-127304761D02*
X80771428Y-127352380D01*
X80961904Y-127352380D01*
X81057142Y-127304761D01*
X81104761Y-127209523D01*
X81104761Y-126828571D01*
X81057142Y-126733333D01*
X80961904Y-126685714D01*
X80771428Y-126685714D01*
X80676190Y-126733333D01*
X80628571Y-126828571D01*
X80628571Y-126923809D01*
X81104761Y-127019047D01*
X79533333Y-126352380D02*
X79295238Y-127352380D01*
X79104761Y-126638095D01*
X78914285Y-127352380D01*
X78676190Y-126352380D01*
X78295238Y-127352380D02*
X78295238Y-126685714D01*
X78295238Y-126352380D02*
X78342857Y-126400000D01*
X78295238Y-126447619D01*
X78247619Y-126400000D01*
X78295238Y-126352380D01*
X78295238Y-126447619D01*
X77961904Y-126685714D02*
X77580952Y-126685714D01*
X77819047Y-126352380D02*
X77819047Y-127209523D01*
X77771428Y-127304761D01*
X77676190Y-127352380D01*
X77580952Y-127352380D01*
X77390476Y-126685714D02*
X77009523Y-126685714D01*
X77247619Y-126352380D02*
X77247619Y-127209523D01*
X77200000Y-127304761D01*
X77104761Y-127352380D01*
X77009523Y-127352380D01*
X76295238Y-127304761D02*
X76390476Y-127352380D01*
X76580952Y-127352380D01*
X76676190Y-127304761D01*
X76723809Y-127209523D01*
X76723809Y-126828571D01*
X76676190Y-126733333D01*
X76580952Y-126685714D01*
X76390476Y-126685714D01*
X76295238Y-126733333D01*
X76247619Y-126828571D01*
X76247619Y-126923809D01*
X76723809Y-127019047D01*
X84842857Y-128962380D02*
X85176190Y-128486190D01*
X85414285Y-128962380D02*
X85414285Y-127962380D01*
X85033333Y-127962380D01*
X84938095Y-128010000D01*
X84890476Y-128057619D01*
X84842857Y-128152857D01*
X84842857Y-128295714D01*
X84890476Y-128390952D01*
X84938095Y-128438571D01*
X85033333Y-128486190D01*
X85414285Y-128486190D01*
X84271428Y-128962380D02*
X84366666Y-128914761D01*
X84414285Y-128867142D01*
X84461904Y-128771904D01*
X84461904Y-128486190D01*
X84414285Y-128390952D01*
X84366666Y-128343333D01*
X84271428Y-128295714D01*
X84128571Y-128295714D01*
X84033333Y-128343333D01*
X83985714Y-128390952D01*
X83938095Y-128486190D01*
X83938095Y-128771904D01*
X83985714Y-128867142D01*
X84033333Y-128914761D01*
X84128571Y-128962380D01*
X84271428Y-128962380D01*
X83509523Y-128295714D02*
X83509523Y-128962380D01*
X83509523Y-128390952D02*
X83461904Y-128343333D01*
X83366666Y-128295714D01*
X83223809Y-128295714D01*
X83128571Y-128343333D01*
X83080952Y-128438571D01*
X83080952Y-128962380D01*
X82604761Y-128295714D02*
X82604761Y-128962380D01*
X82604761Y-128390952D02*
X82557142Y-128343333D01*
X82461904Y-128295714D01*
X82319047Y-128295714D01*
X82223809Y-128343333D01*
X82176190Y-128438571D01*
X82176190Y-128962380D01*
X81795238Y-128295714D02*
X81557142Y-128962380D01*
X81319047Y-128295714D02*
X81557142Y-128962380D01*
X81652380Y-129200476D01*
X81700000Y-129248095D01*
X81795238Y-129295714D01*
X80176190Y-128962380D02*
X80176190Y-127962380D01*
X79842857Y-128676666D01*
X79509523Y-127962380D01*
X79509523Y-128962380D01*
X78652380Y-128914761D02*
X78747619Y-128962380D01*
X78938095Y-128962380D01*
X79033333Y-128914761D01*
X79080952Y-128819523D01*
X79080952Y-128438571D01*
X79033333Y-128343333D01*
X78938095Y-128295714D01*
X78747619Y-128295714D01*
X78652380Y-128343333D01*
X78604761Y-128438571D01*
X78604761Y-128533809D01*
X79080952Y-128629047D01*
X77795238Y-128914761D02*
X77890476Y-128962380D01*
X78080952Y-128962380D01*
X78176190Y-128914761D01*
X78223809Y-128819523D01*
X78223809Y-128438571D01*
X78176190Y-128343333D01*
X78080952Y-128295714D01*
X77890476Y-128295714D01*
X77795238Y-128343333D01*
X77747619Y-128438571D01*
X77747619Y-128533809D01*
X78223809Y-128629047D01*
X77366666Y-128914761D02*
X77271428Y-128962380D01*
X77080952Y-128962380D01*
X76985714Y-128914761D01*
X76938095Y-128819523D01*
X76938095Y-128771904D01*
X76985714Y-128676666D01*
X77080952Y-128629047D01*
X77223809Y-128629047D01*
X77319047Y-128581428D01*
X77366666Y-128486190D01*
X77366666Y-128438571D01*
X77319047Y-128343333D01*
X77223809Y-128295714D01*
X77080952Y-128295714D01*
X76985714Y-128343333D01*
%LPC*%
D11*
%TO.C,J1*%
X64240000Y-125700000D03*
X58460000Y-125700000D03*
D12*
X65670000Y-129350000D03*
D13*
X65670000Y-125170000D03*
X57030000Y-125170000D03*
D12*
X57030000Y-129350000D03*
%TD*%
D14*
%TO.C,J3*%
X71300000Y-117400000D03*
D15*
X71300000Y-119940000D03*
X71300000Y-122480000D03*
X71300000Y-125020000D03*
%TD*%
D14*
%TO.C,J4*%
X77216000Y-84836000D03*
D15*
X77216000Y-87376000D03*
X77216000Y-89916000D03*
%TD*%
D16*
%TO.C,J2*%
X34810000Y-100690000D03*
X34810000Y-110850000D03*
D17*
X43700000Y-102600000D03*
D18*
X41160000Y-103870000D03*
X43700000Y-105140000D03*
X41160000Y-106410000D03*
X43700000Y-107680000D03*
X41160000Y-108950000D03*
%TD*%
M02*
