%TF.GenerationSoftware,KiCad,Pcbnew,5.99.0-unknown-4e273827f0~131~ubuntu20.04.1*%
%TF.CreationDate,2021-08-17T12:46:55+02:00*%
%TF.ProjectId,CDEM,4344454d-2e6b-4696-9361-645f70636258,rev?*%
%TF.SameCoordinates,Original*%
%TF.FileFunction,Copper,L1,Top*%
%TF.FilePolarity,Positive*%
%FSLAX46Y46*%
G04 Gerber Fmt 4.6, Leading zero omitted, Abs format (unit mm)*
G04 Created by KiCad (PCBNEW 5.99.0-unknown-4e273827f0~131~ubuntu20.04.1) date 2021-08-17 12:46:55*
%MOMM*%
%LPD*%
G01*
G04 APERTURE LIST*
G04 Aperture macros list*
%AMRoundRect*
0 Rectangle with rounded corners*
0 $1 Rounding radius*
0 $2 $3 $4 $5 $6 $7 $8 $9 X,Y pos of 4 corners*
0 Add a 4 corners polygon primitive as box body*
4,1,4,$2,$3,$4,$5,$6,$7,$8,$9,$2,$3,0*
0 Add four circle primitives for the rounded corners*
1,1,$1+$1,$2,$3*
1,1,$1+$1,$4,$5*
1,1,$1+$1,$6,$7*
1,1,$1+$1,$8,$9*
0 Add four rect primitives between the rounded corners*
20,1,$1+$1,$2,$3,$4,$5,0*
20,1,$1+$1,$4,$5,$6,$7,0*
20,1,$1+$1,$6,$7,$8,$9,0*
20,1,$1+$1,$8,$9,$2,$3,0*%
G04 Aperture macros list end*
%TA.AperFunction,SMDPad,CuDef*%
%ADD10RoundRect,0.200000X0.200000X0.275000X-0.200000X0.275000X-0.200000X-0.275000X0.200000X-0.275000X0*%
%TD*%
%TA.AperFunction,SMDPad,CuDef*%
%ADD11RoundRect,0.150000X0.150000X-0.512500X0.150000X0.512500X-0.150000X0.512500X-0.150000X-0.512500X0*%
%TD*%
%TA.AperFunction,SMDPad,CuDef*%
%ADD12RoundRect,0.200000X-0.200000X-0.275000X0.200000X-0.275000X0.200000X0.275000X-0.200000X0.275000X0*%
%TD*%
%TA.AperFunction,SMDPad,CuDef*%
%ADD13RoundRect,0.062500X-0.350000X-0.062500X0.350000X-0.062500X0.350000X0.062500X-0.350000X0.062500X0*%
%TD*%
%TA.AperFunction,SMDPad,CuDef*%
%ADD14RoundRect,0.062500X-0.062500X-0.350000X0.062500X-0.350000X0.062500X0.350000X-0.062500X0.350000X0*%
%TD*%
%TA.AperFunction,SMDPad,CuDef*%
%ADD15R,2.600000X2.600000*%
%TD*%
%TA.AperFunction,SMDPad,CuDef*%
%ADD16RoundRect,0.225000X-0.250000X0.225000X-0.250000X-0.225000X0.250000X-0.225000X0.250000X0.225000X0*%
%TD*%
%TA.AperFunction,SMDPad,CuDef*%
%ADD17R,0.900000X1.200000*%
%TD*%
%TA.AperFunction,SMDPad,CuDef*%
%ADD18RoundRect,0.250000X-0.250000X-0.475000X0.250000X-0.475000X0.250000X0.475000X-0.250000X0.475000X0*%
%TD*%
%TA.AperFunction,SMDPad,CuDef*%
%ADD19R,0.600000X1.450000*%
%TD*%
%TA.AperFunction,SMDPad,CuDef*%
%ADD20R,0.300000X1.450000*%
%TD*%
%TA.AperFunction,ComponentPad*%
%ADD21O,1.000000X1.600000*%
%TD*%
%TA.AperFunction,ComponentPad*%
%ADD22O,1.000000X2.100000*%
%TD*%
%TA.AperFunction,SMDPad,CuDef*%
%ADD23RoundRect,0.250000X0.250000X0.475000X-0.250000X0.475000X-0.250000X-0.475000X0.250000X-0.475000X0*%
%TD*%
%TA.AperFunction,SMDPad,CuDef*%
%ADD24RoundRect,0.218750X-0.218750X-0.256250X0.218750X-0.256250X0.218750X0.256250X-0.218750X0.256250X0*%
%TD*%
%TA.AperFunction,SMDPad,CuDef*%
%ADD25RoundRect,0.225000X-0.225000X-0.250000X0.225000X-0.250000X0.225000X0.250000X-0.225000X0.250000X0*%
%TD*%
%TA.AperFunction,ComponentPad*%
%ADD26R,1.700000X1.700000*%
%TD*%
%TA.AperFunction,ComponentPad*%
%ADD27O,1.700000X1.700000*%
%TD*%
%TA.AperFunction,SMDPad,CuDef*%
%ADD28RoundRect,0.225000X0.225000X0.250000X-0.225000X0.250000X-0.225000X-0.250000X0.225000X-0.250000X0*%
%TD*%
%TA.AperFunction,SMDPad,CuDef*%
%ADD29RoundRect,0.200000X-0.275000X0.200000X-0.275000X-0.200000X0.275000X-0.200000X0.275000X0.200000X0*%
%TD*%
%TA.AperFunction,SMDPad,CuDef*%
%ADD30RoundRect,0.250000X-0.475000X0.250000X-0.475000X-0.250000X0.475000X-0.250000X0.475000X0.250000X0*%
%TD*%
%TA.AperFunction,SMDPad,CuDef*%
%ADD31RoundRect,0.150000X-0.587500X-0.150000X0.587500X-0.150000X0.587500X0.150000X-0.587500X0.150000X0*%
%TD*%
%TA.AperFunction,SMDPad,CuDef*%
%ADD32R,1.000000X2.500000*%
%TD*%
%TA.AperFunction,SMDPad,CuDef*%
%ADD33R,1.800000X1.000000*%
%TD*%
%TA.AperFunction,SMDPad,CuDef*%
%ADD34R,1.700000X0.900000*%
%TD*%
%TA.AperFunction,SMDPad,CuDef*%
%ADD35R,1.500000X2.000000*%
%TD*%
%TA.AperFunction,SMDPad,CuDef*%
%ADD36R,3.800000X2.000000*%
%TD*%
%TA.AperFunction,ComponentPad*%
%ADD37R,1.520000X1.520000*%
%TD*%
%TA.AperFunction,ComponentPad*%
%ADD38C,1.520000*%
%TD*%
%TA.AperFunction,SMDPad,CuDef*%
%ADD39RoundRect,0.200000X0.275000X-0.200000X0.275000X0.200000X-0.275000X0.200000X-0.275000X-0.200000X0*%
%TD*%
%TA.AperFunction,ViaPad*%
%ADD40C,0.600000*%
%TD*%
%TA.AperFunction,ViaPad*%
%ADD41C,0.800000*%
%TD*%
%TA.AperFunction,Conductor*%
%ADD42C,0.400000*%
%TD*%
%TA.AperFunction,Conductor*%
%ADD43C,0.200000*%
%TD*%
%TA.AperFunction,Conductor*%
%ADD44C,0.300000*%
%TD*%
%TA.AperFunction,Conductor*%
%ADD45C,0.500000*%
%TD*%
%TA.AperFunction,Conductor*%
%ADD46C,0.750000*%
%TD*%
%TA.AperFunction,Conductor*%
%ADD47C,1.000000*%
%TD*%
G04 APERTURE END LIST*
D10*
%TO.P,R1,1*%
%TO.N,VCC*%
X56425000Y-99100000D03*
%TO.P,R1,2*%
%TO.N,/SM-DATA-REQ*%
X54775000Y-99100000D03*
%TD*%
D11*
%TO.P,U2,1,I/O1*%
%TO.N,/USB-IN-D-*%
X58350000Y-110737500D03*
%TO.P,U2,2,GND*%
%TO.N,GND*%
X59300000Y-110737500D03*
%TO.P,U2,3,I/O2*%
%TO.N,/USB-IN-D+*%
X60250000Y-110737500D03*
%TO.P,U2,4,I/O2*%
%TO.N,/USB-D+*%
X60250000Y-108462500D03*
%TO.P,U2,5,VBUS*%
%TO.N,VBUS*%
X59300000Y-108462500D03*
%TO.P,U2,6,I/O1*%
%TO.N,/USB-D-*%
X58350000Y-108462500D03*
%TD*%
D12*
%TO.P,R4,1*%
%TO.N,+3V3*%
X54775000Y-106600000D03*
%TO.P,R4,2*%
%TO.N,Net-(D3-Pad2)*%
X56425000Y-106600000D03*
%TD*%
D13*
%TO.P,U3,1,RI*%
%TO.N,unconnected-(U3-Pad1)*%
X63362500Y-107350000D03*
%TO.P,U3,2,GND*%
%TO.N,GND*%
X63362500Y-107850000D03*
%TO.P,U3,3,D+*%
%TO.N,/USB-D+*%
X63362500Y-108350000D03*
%TO.P,U3,4,D-*%
%TO.N,/USB-D-*%
X63362500Y-108850000D03*
%TO.P,U3,5,VIO*%
%TO.N,Net-(C5-Pad1)*%
X63362500Y-109350000D03*
%TO.P,U3,6,VDD*%
X63362500Y-109850000D03*
D14*
%TO.P,U3,7,REGIN*%
%TO.N,VBUS*%
X64050000Y-110537500D03*
%TO.P,U3,8,VBUS*%
X64550000Y-110537500D03*
%TO.P,U3,9,~{RST}*%
%TO.N,unconnected-(U3-Pad9)*%
X65050000Y-110537500D03*
%TO.P,U3,10,VIO/NC*%
%TO.N,unconnected-(U3-Pad10)*%
X65550000Y-110537500D03*
%TO.P,U3,11,GPIO.3*%
%TO.N,unconnected-(U3-Pad11)*%
X66050000Y-110537500D03*
%TO.P,U3,12,GPIO.2*%
%TO.N,unconnected-(U3-Pad12)*%
X66550000Y-110537500D03*
D13*
%TO.P,U3,13,GPIO.1*%
%TO.N,unconnected-(U3-Pad13)*%
X67237500Y-109850000D03*
%TO.P,U3,14,GPIO.0*%
%TO.N,unconnected-(U3-Pad14)*%
X67237500Y-109350000D03*
%TO.P,U3,15,~{SUSPEND}*%
%TO.N,unconnected-(U3-Pad15)*%
X67237500Y-108850000D03*
%TO.P,U3,16,VPP*%
%TO.N,Net-(C9-Pad1)*%
X67237500Y-108350000D03*
%TO.P,U3,17,SUSPEND*%
%TO.N,unconnected-(U3-Pad17)*%
X67237500Y-107850000D03*
%TO.P,U3,18,CTS*%
%TO.N,unconnected-(U3-Pad18)*%
X67237500Y-107350000D03*
D14*
%TO.P,U3,19,RTS*%
%TO.N,/RTS*%
X66550000Y-106662500D03*
%TO.P,U3,20,RXD*%
%TO.N,/USB-RX*%
X66050000Y-106662500D03*
%TO.P,U3,21,TXD*%
%TO.N,/USB-TX*%
X65550000Y-106662500D03*
%TO.P,U3,22,DSR*%
%TO.N,unconnected-(U3-Pad22)*%
X65050000Y-106662500D03*
%TO.P,U3,23,DTR*%
%TO.N,/DTR*%
X64550000Y-106662500D03*
%TO.P,U3,24,DCD*%
%TO.N,unconnected-(U3-Pad24)*%
X64050000Y-106662500D03*
D15*
%TO.P,U3,25,PAD*%
%TO.N,GND*%
X65300000Y-108600000D03*
%TD*%
D16*
%TO.P,C7,1*%
%TO.N,+3V3*%
X77900000Y-97725000D03*
%TO.P,C7,2*%
%TO.N,GND*%
X77900000Y-99275000D03*
%TD*%
D12*
%TO.P,R3,1*%
%TO.N,+3V3*%
X54775000Y-109600000D03*
%TO.P,R3,2*%
%TO.N,Net-(R3-Pad2)*%
X56425000Y-109600000D03*
%TD*%
D17*
%TO.P,D1,1,K*%
%TO.N,Net-(C1-Pad1)*%
X50164000Y-112522000D03*
%TO.P,D1,2,A*%
%TO.N,VBUS*%
X46864000Y-112522000D03*
%TD*%
D18*
%TO.P,C1,1*%
%TO.N,Net-(C1-Pad1)*%
X46903600Y-107721400D03*
%TO.P,C1,2*%
%TO.N,GND*%
X48803600Y-107721400D03*
%TD*%
D19*
%TO.P,J1,A1,GND*%
%TO.N,GND*%
X58100000Y-124255000D03*
%TO.P,J1,A4,VBUS*%
%TO.N,VBUS*%
X58900000Y-124255000D03*
D20*
%TO.P,J1,A5,CC1*%
%TO.N,unconnected-(J1-PadA5)*%
X60100000Y-124255000D03*
%TO.P,J1,A6,D+*%
%TO.N,/USB-IN-D+*%
X61100000Y-124255000D03*
%TO.P,J1,A7,D-*%
%TO.N,/USB-IN-D-*%
X61600000Y-124255000D03*
%TO.P,J1,A8,SBU1*%
%TO.N,unconnected-(J1-PadA8)*%
X62600000Y-124255000D03*
D19*
%TO.P,J1,A9,VBUS*%
%TO.N,VBUS*%
X63800000Y-124255000D03*
%TO.P,J1,A12,GND*%
%TO.N,GND*%
X64600000Y-124255000D03*
%TO.P,J1,B1,GND*%
X64600000Y-124255000D03*
%TO.P,J1,B4,VBUS*%
%TO.N,VBUS*%
X63800000Y-124255000D03*
D20*
%TO.P,J1,B5,CC2*%
%TO.N,unconnected-(J1-PadB5)*%
X63100000Y-124255000D03*
%TO.P,J1,B6,D+*%
%TO.N,/USB-IN-D+*%
X62100000Y-124255000D03*
%TO.P,J1,B7,D-*%
%TO.N,/USB-IN-D-*%
X60600000Y-124255000D03*
%TO.P,J1,B8,SBU2*%
%TO.N,unconnected-(J1-PadB8)*%
X59600000Y-124255000D03*
D19*
%TO.P,J1,B9,VBUS*%
%TO.N,VBUS*%
X58900000Y-124255000D03*
%TO.P,J1,B12,GND*%
%TO.N,GND*%
X58100000Y-124255000D03*
D21*
%TO.P,J1,S1,SHIELD*%
X65670000Y-129350000D03*
D22*
X65670000Y-125170000D03*
X57030000Y-125170000D03*
D21*
X57030000Y-129350000D03*
%TD*%
D23*
%TO.P,C3,1*%
%TO.N,+3V3*%
X52639000Y-107721400D03*
%TO.P,C3,2*%
%TO.N,GND*%
X50739000Y-107721400D03*
%TD*%
D24*
%TO.P,D4,1,K*%
%TO.N,/LED-COMM*%
X47512500Y-85500000D03*
%TO.P,D4,2,A*%
%TO.N,Net-(D4-Pad2)*%
X49087500Y-85500000D03*
%TD*%
%TO.P,D3,1,K*%
%TO.N,GND*%
X47512500Y-83100000D03*
%TO.P,D3,2,A*%
%TO.N,Net-(D3-Pad2)*%
X49087500Y-83100000D03*
%TD*%
D25*
%TO.P,C4,1*%
%TO.N,VBUS*%
X63625000Y-114200000D03*
%TO.P,C4,2*%
%TO.N,GND*%
X65175000Y-114200000D03*
%TD*%
D26*
%TO.P,J3,1,Pin_1*%
%TO.N,+3V3*%
X71300000Y-117400000D03*
D27*
%TO.P,J3,2,Pin_2*%
%TO.N,/SM-USB-TX*%
X71300000Y-119940000D03*
%TO.P,J3,3,Pin_3*%
%TO.N,/USB-RX*%
X71300000Y-122480000D03*
%TO.P,J3,4,Pin_4*%
%TO.N,GND*%
X71300000Y-125020000D03*
%TD*%
D12*
%TO.P,R9,1*%
%TO.N,+3V3*%
X54775000Y-103600000D03*
%TO.P,R9,2*%
%TO.N,/RESET*%
X56425000Y-103600000D03*
%TD*%
D28*
%TO.P,C8,1*%
%TO.N,/GPIO0*%
X56375000Y-100600000D03*
%TO.P,C8,2*%
%TO.N,GND*%
X54825000Y-100600000D03*
%TD*%
D26*
%TO.P,J4,1,Pin_1*%
%TO.N,/SM-DATA*%
X77216000Y-84836000D03*
D27*
%TO.P,J4,2,Pin_2*%
%TO.N,/SM-USB-TX*%
X77216000Y-87376000D03*
%TO.P,J4,3,Pin_3*%
%TO.N,/USB-TX*%
X77216000Y-89916000D03*
%TD*%
D29*
%TO.P,R10,1*%
%TO.N,/RTS*%
X59500000Y-98725000D03*
%TO.P,R10,2*%
%TO.N,Net-(Q2-Pad1)*%
X59500000Y-100375000D03*
%TD*%
D12*
%TO.P,R7,1*%
%TO.N,+3V3*%
X54775000Y-108100000D03*
%TO.P,R7,2*%
%TO.N,Net-(D5-Pad2)*%
X56425000Y-108100000D03*
%TD*%
%TO.P,R12,1*%
%TO.N,VCC*%
X64875000Y-96700000D03*
%TO.P,R12,2*%
%TO.N,/SM-DATA-ORIGINAL*%
X66525000Y-96700000D03*
%TD*%
D23*
%TO.P,C9,1*%
%TO.N,Net-(C9-Pad1)*%
X68850000Y-112200000D03*
%TO.P,C9,2*%
%TO.N,GND*%
X66950000Y-112200000D03*
%TD*%
D16*
%TO.P,C5,1*%
%TO.N,Net-(C5-Pad1)*%
X61800000Y-111225000D03*
%TO.P,C5,2*%
%TO.N,GND*%
X61800000Y-112775000D03*
%TD*%
D10*
%TO.P,R2,1*%
%TO.N,+3V3*%
X66525000Y-101900000D03*
%TO.P,R2,2*%
%TO.N,/SM-DATA*%
X64875000Y-101900000D03*
%TD*%
D30*
%TO.P,C6,1*%
%TO.N,+3V3*%
X79900000Y-97550000D03*
%TO.P,C6,2*%
%TO.N,GND*%
X79900000Y-99450000D03*
%TD*%
D24*
%TO.P,D5,1,K*%
%TO.N,/LED-DATA*%
X47512500Y-87700000D03*
%TO.P,D5,2,A*%
%TO.N,Net-(D5-Pad2)*%
X49087500Y-87700000D03*
%TD*%
D12*
%TO.P,R5,1*%
%TO.N,+3V3*%
X54775000Y-105100000D03*
%TO.P,R5,2*%
%TO.N,Net-(D4-Pad2)*%
X56425000Y-105100000D03*
%TD*%
D31*
%TO.P,Q1,1,G*%
%TO.N,/SM-DATA-ORIGINAL*%
X64962500Y-98350000D03*
%TO.P,Q1,2,S*%
%TO.N,GND*%
X64962500Y-100250000D03*
%TO.P,Q1,3,D*%
%TO.N,/SM-DATA*%
X66837500Y-99300000D03*
%TD*%
%TO.P,Q2,1,B*%
%TO.N,Net-(Q2-Pad1)*%
X61062500Y-101850000D03*
%TO.P,Q2,2,E*%
%TO.N,/DTR*%
X61062500Y-103750000D03*
%TO.P,Q2,3,C*%
%TO.N,/GPIO0*%
X62937500Y-102800000D03*
%TD*%
D32*
%TO.P,U4,1,~{RST}*%
%TO.N,/RESET*%
X98100000Y-98200000D03*
%TO.P,U4,2,ADC*%
%TO.N,unconnected-(U4-Pad2)*%
X96100000Y-98200000D03*
%TO.P,U4,3,EN*%
%TO.N,Net-(R3-Pad2)*%
X94100000Y-98200000D03*
%TO.P,U4,4,GPIO16*%
%TO.N,unconnected-(U4-Pad4)*%
X92100000Y-98200000D03*
%TO.P,U4,5,GPIO14*%
%TO.N,unconnected-(U4-Pad5)*%
X90100000Y-98200000D03*
%TO.P,U4,6,GPIO12*%
%TO.N,/LED-DATA*%
X88100000Y-98200000D03*
%TO.P,U4,7,GPIO13*%
%TO.N,/SM-DATA-REQ*%
X86100000Y-98200000D03*
%TO.P,U4,8,VCC*%
%TO.N,+3V3*%
X84100000Y-98200000D03*
D33*
%TO.P,U4,9,CS0*%
%TO.N,unconnected-(U4-Pad9)*%
X82600000Y-100800000D03*
%TO.P,U4,10,MISO*%
%TO.N,unconnected-(U4-Pad10)*%
X82600000Y-102800000D03*
%TO.P,U4,11,GPIO9*%
%TO.N,unconnected-(U4-Pad11)*%
X82600000Y-104800000D03*
%TO.P,U4,12,GPIO10*%
%TO.N,unconnected-(U4-Pad12)*%
X82600000Y-106800000D03*
%TO.P,U4,13,MOSI*%
%TO.N,unconnected-(U4-Pad13)*%
X82600000Y-108800000D03*
%TO.P,U4,14,SCLK*%
%TO.N,unconnected-(U4-Pad14)*%
X82600000Y-110800000D03*
D32*
%TO.P,U4,15,GND*%
%TO.N,GND*%
X84100000Y-113400000D03*
%TO.P,U4,16,GPIO15*%
%TO.N,Net-(R6-Pad1)*%
X86100000Y-113400000D03*
%TO.P,U4,17,GPIO2*%
%TO.N,unconnected-(U4-Pad17)*%
X88100000Y-113400000D03*
%TO.P,U4,18,GPIO0*%
%TO.N,/GPIO0*%
X90100000Y-113400000D03*
%TO.P,U4,19,GPIO4*%
%TO.N,unconnected-(U4-Pad19)*%
X92100000Y-113400000D03*
%TO.P,U4,20,GPIO5*%
%TO.N,/LED-COMM*%
X94100000Y-113400000D03*
%TO.P,U4,21,GPIO3/RXD*%
%TO.N,/SM-USB-TX*%
X96100000Y-113400000D03*
%TO.P,U4,22,GPIO1/TXD*%
%TO.N,/USB-RX*%
X98100000Y-113400000D03*
%TD*%
D31*
%TO.P,Q3,1,B*%
%TO.N,Net-(Q3-Pad1)*%
X61062500Y-98350000D03*
%TO.P,Q3,2,E*%
%TO.N,/RTS*%
X61062500Y-100250000D03*
%TO.P,Q3,3,C*%
%TO.N,/RESET*%
X62937500Y-99300000D03*
%TD*%
D18*
%TO.P,C2,1*%
%TO.N,VBUS*%
X63450000Y-112400000D03*
%TO.P,C2,2*%
%TO.N,GND*%
X65350000Y-112400000D03*
%TD*%
D34*
%TO.P,SW2,1,1*%
%TO.N,/RESET*%
X64008000Y-82198000D03*
%TO.P,SW2,2,2*%
%TO.N,GND*%
X64008000Y-85598000D03*
%TD*%
D10*
%TO.P,R6,1*%
%TO.N,Net-(R6-Pad1)*%
X66525000Y-103500000D03*
%TO.P,R6,2*%
%TO.N,GND*%
X64875000Y-103500000D03*
%TD*%
D34*
%TO.P,SW1,1,1*%
%TO.N,+3V3*%
X64008000Y-87098000D03*
%TO.P,SW1,2,2*%
%TO.N,/GPIO0*%
X64008000Y-90498000D03*
%TD*%
D10*
%TO.P,R8,1*%
%TO.N,/GPIO0*%
X56425000Y-102100000D03*
%TO.P,R8,2*%
%TO.N,GND*%
X54775000Y-102100000D03*
%TD*%
D17*
%TO.P,D2,1,K*%
%TO.N,Net-(C1-Pad1)*%
X50164000Y-110083600D03*
%TO.P,D2,2,A*%
%TO.N,VCC*%
X46864000Y-110083600D03*
%TD*%
D35*
%TO.P,U1,1,VI*%
%TO.N,Net-(C1-Pad1)*%
X47357000Y-105004000D03*
%TO.P,U1,2,GND*%
%TO.N,GND*%
X49657000Y-105004000D03*
D36*
X49657000Y-98704000D03*
D35*
%TO.P,U1,3,VO*%
%TO.N,+3V3*%
X51957000Y-105004000D03*
%TD*%
D37*
%TO.P,J2,1*%
%TO.N,VCC*%
X43700000Y-102600000D03*
D38*
%TO.P,J2,2*%
%TO.N,/SM-DATA-REQ*%
X41160000Y-103870000D03*
%TO.P,J2,3*%
%TO.N,GND*%
X43700000Y-105140000D03*
%TO.P,J2,4*%
%TO.N,unconnected-(J2-Pad4)*%
X41160000Y-106410000D03*
%TO.P,J2,5*%
%TO.N,/SM-DATA-ORIGINAL*%
X43700000Y-107680000D03*
%TO.P,J2,6*%
%TO.N,GND*%
X41160000Y-108950000D03*
%TD*%
D39*
%TO.P,R11,1*%
%TO.N,/DTR*%
X59500000Y-103625000D03*
%TO.P,R11,2*%
%TO.N,Net-(Q3-Pad1)*%
X59500000Y-101975000D03*
%TD*%
D10*
%TO.P,R13,1*%
%TO.N,/SM-DATA-ORIGINAL*%
X56425000Y-97600000D03*
%TO.P,R13,2*%
%TO.N,GND*%
X54775000Y-97600000D03*
%TD*%
D40*
%TO.N,GND*%
X76835000Y-109016800D03*
X71755000Y-100584000D03*
D41*
X80200000Y-100600000D03*
D40*
X92659200Y-103632000D03*
X57962800Y-117297200D03*
X78841600Y-116103400D03*
X98100000Y-100300000D03*
X55067200Y-120269000D03*
X75100000Y-104900000D03*
D41*
X66100000Y-109400000D03*
D40*
X97700000Y-130900000D03*
D41*
X64500000Y-107800000D03*
D40*
X80568800Y-104876600D03*
X60900000Y-114000000D03*
X62400000Y-101600000D03*
X27600000Y-122700000D03*
X72300000Y-93200000D03*
D41*
X66100000Y-107800000D03*
D40*
X50190400Y-89154000D03*
X47500000Y-94400000D03*
X70916800Y-108432600D03*
X53543200Y-102082600D03*
X57500000Y-85300000D03*
X41500000Y-81800000D03*
X56200000Y-82000000D03*
X82600000Y-82100000D03*
X74168000Y-99060000D03*
X67868800Y-87122000D03*
X63220600Y-98171000D03*
X84988400Y-106883200D03*
X34700000Y-88400000D03*
X69570600Y-108432600D03*
X66800000Y-113800000D03*
D41*
X64900000Y-104500000D03*
D40*
X69300000Y-113500000D03*
D41*
X77900000Y-100400000D03*
X80350000Y-113050000D03*
D40*
X53568600Y-100609400D03*
X98300000Y-119500000D03*
X53441600Y-94183200D03*
X68707000Y-105638600D03*
X84800000Y-95200000D03*
X93319600Y-117678200D03*
X56540400Y-88011000D03*
X64900000Y-92700000D03*
X76600000Y-131200000D03*
X52552600Y-110617000D03*
D41*
X64500000Y-109400000D03*
D40*
X98300000Y-91200000D03*
X71400000Y-81900000D03*
D41*
X79300000Y-100600000D03*
D40*
X35700000Y-131200000D03*
X98100000Y-103800000D03*
X52552600Y-109677200D03*
X27400000Y-94100000D03*
X78900000Y-108700000D03*
X52552600Y-111607600D03*
X52552600Y-112699800D03*
X57200000Y-111100000D03*
X27300000Y-89900000D03*
X46500000Y-98000000D03*
X93300000Y-82300000D03*
X51130200Y-116306600D03*
X27600000Y-113400000D03*
D41*
X79100000Y-111800000D03*
X79750000Y-112450000D03*
D40*
X58000000Y-99400000D03*
X98100000Y-111200000D03*
X73939400Y-111252000D03*
D41*
X65300000Y-108700000D03*
D40*
X85000000Y-108700000D03*
X46200000Y-83100000D03*
X41600000Y-131100000D03*
D41*
X59350000Y-112160050D03*
D40*
X35500000Y-81900000D03*
X88300000Y-131000000D03*
X46710600Y-103047800D03*
X98100000Y-107100000D03*
X98300000Y-88200000D03*
X72300000Y-95100000D03*
X49657000Y-106553000D03*
X50200000Y-131200000D03*
X48615600Y-103047800D03*
X98400000Y-123200000D03*
X69200000Y-93800000D03*
X63703200Y-100203000D03*
X84700000Y-93200000D03*
X53900000Y-97700000D03*
X35500000Y-123500000D03*
X27700000Y-104300000D03*
X92506800Y-111048800D03*
X74168000Y-106426000D03*
X65800000Y-100200000D03*
X95800000Y-96100000D03*
X63042800Y-94335600D03*
X87100000Y-117800000D03*
X46482000Y-114274600D03*
X98400000Y-95100000D03*
D41*
X61800000Y-113700000D03*
D40*
X98300000Y-116400000D03*
%TO.N,VBUS*%
X62700000Y-114800000D03*
X62700000Y-114100000D03*
X60000000Y-107200000D03*
X59300000Y-107200000D03*
D41*
%TO.N,+3V3*%
X53594000Y-103632000D03*
X69600000Y-101000000D03*
D40*
X59300000Y-120200000D03*
D41*
X71156401Y-97524999D03*
X64108000Y-88698000D03*
D40*
X65000000Y-120100000D03*
%TO.N,/GPIO0*%
X67495736Y-96800000D03*
X61800000Y-102800000D03*
X68000000Y-102700000D03*
%TO.N,Net-(D3-Pad2)*%
X51300000Y-93800000D03*
X57600000Y-106600000D03*
%TO.N,Net-(D4-Pad2)*%
X57500000Y-105100000D03*
X49500000Y-93800000D03*
%TO.N,Net-(D5-Pad2)*%
X55600000Y-110700000D03*
X50400000Y-93800000D03*
%TO.N,/LED-COMM*%
X66300000Y-93900000D03*
X70205600Y-96088200D03*
%TO.N,/SM-DATA-REQ*%
X55600000Y-105900000D03*
X77038200Y-105968800D03*
%TO.N,Net-(R3-Pad2)*%
X62600000Y-105200000D03*
X69200000Y-103700000D03*
%TO.N,/RESET*%
X62000000Y-99200000D03*
D41*
X62230000Y-82245200D03*
X71628000Y-89992200D03*
D40*
X57600000Y-102700000D03*
%TO.N,/SM-USB-TX*%
X94386400Y-116103400D03*
X94400000Y-117500000D03*
%TO.N,/USB-TX*%
X71678800Y-106730800D03*
%TO.N,/LED-DATA*%
X69900000Y-98400000D03*
X66400000Y-94700000D03*
%TO.N,/RTS*%
X67700000Y-105300000D03*
X64000000Y-104800000D03*
%TD*%
D42*
%TO.N,GND*%
X54775000Y-97600000D02*
X54000000Y-97600000D01*
D43*
X63362500Y-107850000D02*
X64450000Y-107850000D01*
D44*
X54825000Y-100600000D02*
X54825000Y-102050000D01*
D42*
X53568600Y-100609400D02*
X53578000Y-100600000D01*
D45*
X64900000Y-104150000D02*
X64900000Y-104500000D01*
X61800000Y-112775000D02*
X61800000Y-113700000D01*
D46*
X48803600Y-107721400D02*
X49707800Y-107721400D01*
D45*
X64875000Y-103500000D02*
X64875000Y-104125000D01*
D43*
X64450000Y-107850000D02*
X64500000Y-107800000D01*
D42*
X64900000Y-100250000D02*
X64950000Y-100200000D01*
X53543200Y-102082600D02*
X53560600Y-102100000D01*
D46*
X49707800Y-107721400D02*
X50739000Y-107721400D01*
D47*
X80350000Y-113050000D02*
X79750000Y-112450000D01*
X49657000Y-105004000D02*
X49657000Y-105029000D01*
X49657000Y-105029000D02*
X49885600Y-105257600D01*
D46*
X49707800Y-107721400D02*
X49657000Y-107670600D01*
D47*
X79750000Y-112450000D02*
X79100000Y-111800000D01*
D45*
X78675000Y-99275000D02*
X78850000Y-99450000D01*
D46*
X49657000Y-107670600D02*
X49657000Y-105004000D01*
D47*
X80700000Y-113400000D02*
X80350000Y-113050000D01*
D45*
X65350000Y-112400000D02*
X65350000Y-113450000D01*
X65350000Y-112400000D02*
X65550000Y-112200000D01*
D44*
X54825000Y-102050000D02*
X54775000Y-102100000D01*
D42*
X53560600Y-102100000D02*
X54775000Y-102100000D01*
D45*
X59300000Y-110737500D02*
X59300000Y-112300000D01*
D42*
X53578000Y-100600000D02*
X54825000Y-100600000D01*
D45*
X65550000Y-112200000D02*
X67025000Y-112200000D01*
D47*
X84100000Y-113400000D02*
X80700000Y-113400000D01*
D45*
X65350000Y-113450000D02*
X65175000Y-113625000D01*
X64875000Y-104125000D02*
X64900000Y-104150000D01*
X77900000Y-99275000D02*
X78675000Y-99275000D01*
X78850000Y-99450000D02*
X79900000Y-99450000D01*
X65175000Y-113625000D02*
X65175000Y-114200000D01*
D42*
X64950000Y-100200000D02*
X65800000Y-100200000D01*
D45*
X59300000Y-112210050D02*
X59350000Y-112160050D01*
D42*
X54000000Y-97600000D02*
X53900000Y-97700000D01*
D45*
%TO.N,VBUS*%
X59300000Y-108462500D02*
X59300000Y-107200000D01*
D42*
X58900000Y-124255000D02*
X58900000Y-125066998D01*
X64050000Y-110537500D02*
X63500000Y-111087500D01*
X63700000Y-114125000D02*
X63625000Y-114200000D01*
D46*
X49150000Y-114800000D02*
X51600000Y-114800000D01*
D42*
X62766998Y-126100000D02*
X63800000Y-125066998D01*
X63800000Y-114375000D02*
X63800000Y-124255000D01*
D45*
X62700000Y-114100000D02*
X63525000Y-114100000D01*
D42*
X63450000Y-112400000D02*
X63450000Y-113250000D01*
D45*
X58900000Y-122200000D02*
X58900000Y-124255000D01*
D42*
X59933002Y-126100000D02*
X62766998Y-126100000D01*
D44*
X64050000Y-110537500D02*
X64550000Y-110537500D01*
D45*
X62700000Y-114800000D02*
X63025000Y-114800000D01*
D42*
X63500000Y-112350000D02*
X63450000Y-112400000D01*
X63450000Y-113250000D02*
X63700000Y-113500000D01*
D45*
X63525000Y-114100000D02*
X63625000Y-114200000D01*
X60000000Y-107200000D02*
X59300000Y-107900000D01*
D42*
X63700000Y-113500000D02*
X63700000Y-114125000D01*
X63625000Y-114200000D02*
X63800000Y-114375000D01*
D46*
X58900000Y-122100000D02*
X58900000Y-123000000D01*
X51600000Y-114800000D02*
X58900000Y-122100000D01*
D45*
X63025000Y-114800000D02*
X63625000Y-114200000D01*
X59300000Y-107200000D02*
X60000000Y-107200000D01*
D42*
X63800000Y-125066998D02*
X63800000Y-124255000D01*
X58900000Y-125066998D02*
X59933002Y-126100000D01*
D46*
X46850000Y-112500000D02*
X49150000Y-114800000D01*
D45*
X59300000Y-107900000D02*
X59300000Y-108462500D01*
D42*
X63500000Y-111087500D02*
X63500000Y-112350000D01*
D46*
%TO.N,+3V3*%
X52639000Y-107721400D02*
X52639000Y-105686000D01*
D42*
X66525000Y-101900000D02*
X66600000Y-101900000D01*
D46*
X79900000Y-97550000D02*
X81250000Y-97550000D01*
D45*
X54775000Y-103600000D02*
X54925000Y-103600000D01*
D42*
X54775000Y-109600000D02*
X54775000Y-115675000D01*
X54775000Y-103600000D02*
X53626000Y-103600000D01*
X64108000Y-88698000D02*
X64108000Y-87198000D01*
D46*
X81250000Y-97550000D02*
X81900000Y-98200000D01*
D42*
X54775000Y-115675000D02*
X59300000Y-120200000D01*
X65000000Y-120100000D02*
X67700000Y-117400000D01*
X53626000Y-103600000D02*
X53594000Y-103632000D01*
X64108000Y-87198000D02*
X64008000Y-87098000D01*
D46*
X52639000Y-105686000D02*
X52639000Y-104587000D01*
D42*
X67500000Y-101000000D02*
X69600000Y-101000000D01*
X54775000Y-103600000D02*
X54775000Y-109600000D01*
D46*
X71156401Y-97524999D02*
X71145400Y-97536000D01*
X77699999Y-97524999D02*
X71156401Y-97524999D01*
X81900000Y-98200000D02*
X84100000Y-98200000D01*
X77900000Y-97725000D02*
X78675000Y-97725000D01*
X52639000Y-104587000D02*
X53594000Y-103632000D01*
X78850000Y-97550000D02*
X79900000Y-97550000D01*
D42*
X66600000Y-101900000D02*
X67500000Y-101000000D01*
X67700000Y-117400000D02*
X71300000Y-117400000D01*
D46*
X77900000Y-97725000D02*
X77699999Y-97524999D01*
X78675000Y-97725000D02*
X78850000Y-97550000D01*
X52639000Y-105686000D02*
X51957000Y-105004000D01*
D43*
%TO.N,/GPIO0*%
X90100000Y-113400000D02*
X90100000Y-113225720D01*
X71697082Y-102700000D02*
X68000000Y-102700000D01*
X67500000Y-96291472D02*
X67495736Y-96295736D01*
X58050000Y-102100000D02*
X56425000Y-102100000D01*
X61800000Y-102800000D02*
X58750000Y-102800000D01*
X67500000Y-92900000D02*
X67500000Y-95800000D01*
X58750000Y-102800000D02*
X58050000Y-102100000D01*
X56375000Y-100600000D02*
X56375000Y-102050000D01*
X56375000Y-102050000D02*
X56425000Y-102100000D01*
X67495736Y-95804264D02*
X67500000Y-95800000D01*
X86474290Y-109600010D02*
X78597092Y-109600010D01*
X63000000Y-102800000D02*
X61800000Y-102800000D01*
X90100000Y-113225720D02*
X86474290Y-109600010D01*
X67500000Y-95800000D02*
X67500000Y-96291472D01*
X67495736Y-96800000D02*
X67495736Y-95804264D01*
X78597092Y-109600010D02*
X71697082Y-102700000D01*
X65100000Y-90500000D02*
X67500000Y-92900000D01*
D42*
%TO.N,VCC*%
X56800000Y-96100000D02*
X57400000Y-96700000D01*
X39999999Y-99951459D02*
X43851458Y-96100000D01*
X42539999Y-104206803D02*
X41716801Y-105030001D01*
X55000000Y-96100000D02*
X56800000Y-96100000D01*
D46*
X46850000Y-110100000D02*
X45300000Y-108550000D01*
D42*
X57400000Y-96700000D02*
X64875000Y-96700000D01*
X43851458Y-96100000D02*
X55000000Y-96100000D01*
X40330001Y-105030001D02*
X39999999Y-104699999D01*
X39999999Y-104699999D02*
X39999999Y-99951459D01*
X55575010Y-96100190D02*
X55575200Y-96100000D01*
X41716801Y-105030001D02*
X40330001Y-105030001D01*
D46*
X45300000Y-108550000D02*
X45300000Y-104200000D01*
X45300000Y-104200000D02*
X43700000Y-102600000D01*
D42*
X56025001Y-99100000D02*
X55575010Y-98650009D01*
X43700000Y-102600000D02*
X42539999Y-103760001D01*
X42539999Y-103760001D02*
X42539999Y-104206803D01*
X55575010Y-98650009D02*
X55575010Y-96100190D01*
X56425000Y-99100000D02*
X56025001Y-99100000D01*
D43*
%TO.N,Net-(D3-Pad2)*%
X48500000Y-93900000D02*
X49200000Y-94600000D01*
X50500000Y-94600000D02*
X51300000Y-93800000D01*
X56425000Y-106600000D02*
X57600000Y-106600000D01*
X49200000Y-94600000D02*
X50500000Y-94600000D01*
X49087500Y-83100000D02*
X47462510Y-84724990D01*
X46000000Y-91400000D02*
X48500000Y-93900000D01*
X47462510Y-84724990D02*
X46575010Y-84724990D01*
X46575010Y-84724990D02*
X46000000Y-85300000D01*
X46000000Y-85300000D02*
X46000000Y-91400000D01*
%TO.N,Net-(D4-Pad2)*%
X49500000Y-93400000D02*
X49500000Y-93800000D01*
X46775010Y-86924990D02*
X46500000Y-87200000D01*
X46500000Y-87200000D02*
X46500000Y-90400000D01*
X56425000Y-105100000D02*
X57500000Y-105100000D01*
X49087500Y-85500000D02*
X47662510Y-86924990D01*
X46500000Y-90400000D02*
X49500000Y-93400000D01*
X47662510Y-86924990D02*
X46775010Y-86924990D01*
%TO.N,Net-(D5-Pad2)*%
X50400000Y-93300000D02*
X49087500Y-91987500D01*
X50400000Y-93800000D02*
X50400000Y-93300000D01*
X49087500Y-91987500D02*
X49087500Y-87700000D01*
X56425000Y-108100000D02*
X55600000Y-108925000D01*
X55600000Y-108925000D02*
X55600000Y-110700000D01*
%TO.N,/LED-COMM*%
X70205600Y-96088200D02*
X70217400Y-96100000D01*
X94100000Y-101565699D02*
X94100000Y-113400000D01*
X70217400Y-96100000D02*
X94174280Y-96100000D01*
X48287510Y-84724990D02*
X55424990Y-84724990D01*
X94900010Y-96825730D02*
X94900010Y-100765689D01*
X56400000Y-85700000D02*
X64600000Y-93900000D01*
X94900010Y-100765689D02*
X94100000Y-101565699D01*
X55424990Y-84724990D02*
X56400000Y-85700000D01*
X64600000Y-93900000D02*
X66300000Y-93900000D01*
X94174280Y-96100000D02*
X94900010Y-96825730D01*
X47512500Y-85500000D02*
X48287510Y-84724990D01*
%TO.N,/USB-IN-D-*%
X61360002Y-125500000D02*
X61600000Y-125260002D01*
X60600000Y-119400000D02*
X60600000Y-124255000D01*
X59100000Y-117900000D02*
X60600000Y-119400000D01*
X58350000Y-110737500D02*
X58350000Y-112650000D01*
X59100000Y-113400000D02*
X59100000Y-117900000D01*
X60600000Y-124255000D02*
X60600000Y-125300000D01*
X60600000Y-125300000D02*
X60800000Y-125500000D01*
X60800000Y-125500000D02*
X61360002Y-125500000D01*
X61600000Y-124255000D02*
X61600000Y-125260002D01*
X58350000Y-112650000D02*
X59100000Y-113400000D01*
%TO.N,/USB-IN-D+*%
X60250000Y-110737500D02*
X60250000Y-112650020D01*
X59550010Y-117713600D02*
X61050009Y-119213599D01*
X62100000Y-123100000D02*
X61100000Y-122100000D01*
X61100000Y-122100000D02*
X61100000Y-124255000D01*
X62100000Y-124255000D02*
X62100000Y-123100000D01*
X61100000Y-119300000D02*
X61100000Y-122100000D01*
X61050009Y-119213599D02*
X61050009Y-119250009D01*
X61050009Y-119250009D02*
X61100000Y-119300000D01*
X59550010Y-113350010D02*
X59550010Y-117713600D01*
X60250000Y-112650020D02*
X59550010Y-113350010D01*
D44*
%TO.N,/SM-DATA-REQ*%
X86100000Y-98200000D02*
X86100000Y-99200000D01*
D42*
X54775000Y-99100000D02*
X53700000Y-99100000D01*
D43*
X54775000Y-99100000D02*
X55575010Y-99900010D01*
X86800000Y-96600000D02*
X86100000Y-97300000D01*
D42*
X41160000Y-103870000D02*
X41160000Y-99640000D01*
D43*
X77069390Y-105999990D02*
X84474290Y-105999990D01*
D42*
X51300000Y-96700000D02*
X53700000Y-99100000D01*
D43*
X91000000Y-99474280D02*
X91000000Y-96925720D01*
X55575010Y-99900010D02*
X55575010Y-105775010D01*
X55600000Y-105800000D02*
X55600000Y-105900000D01*
X55575010Y-105775010D02*
X55600000Y-105800000D01*
X77038200Y-105968800D02*
X77069390Y-105999990D01*
X90674280Y-96600000D02*
X86800000Y-96600000D01*
D42*
X44100000Y-96700000D02*
X51300000Y-96700000D01*
D43*
X91000000Y-96925720D02*
X90674280Y-96600000D01*
X84474290Y-105999990D02*
X91000000Y-99474280D01*
D42*
X41160000Y-99640000D02*
X44100000Y-96700000D01*
D43*
X86100000Y-97300000D02*
X86100000Y-98200000D01*
%TO.N,/SM-DATA*%
X67136988Y-102675010D02*
X67805999Y-102005999D01*
D44*
X90100000Y-99600000D02*
X90100000Y-98200000D01*
D43*
X64988002Y-101900000D02*
X66900000Y-99988002D01*
X66900000Y-99988002D02*
X66900000Y-98479400D01*
X66900000Y-98479400D02*
X70434200Y-94945200D01*
D44*
X86049990Y-103650010D02*
X90100000Y-99600000D01*
X73505999Y-102005999D02*
X75150010Y-103650010D01*
D43*
X72796400Y-84836000D02*
X77216000Y-84836000D01*
D44*
X73549999Y-102049999D02*
X73505999Y-102005999D01*
D43*
X70434200Y-94945200D02*
X70434200Y-87198200D01*
D44*
X73505999Y-102005999D02*
X67805999Y-102005999D01*
D43*
X65650010Y-102675010D02*
X67136988Y-102675010D01*
X70434200Y-87198200D02*
X72796400Y-84836000D01*
X64875000Y-101900000D02*
X65650010Y-102675010D01*
X64875000Y-101900000D02*
X64988002Y-101900000D01*
D44*
X75150010Y-103650010D02*
X86049990Y-103650010D01*
D43*
%TO.N,Net-(R3-Pad2)*%
X91000000Y-103600000D02*
X94100000Y-100500000D01*
X69765699Y-103700000D02*
X81635699Y-115570000D01*
X90424000Y-115570000D02*
X91000000Y-114994000D01*
X69200000Y-103700000D02*
X69765699Y-103700000D01*
X58700000Y-106400000D02*
X61400000Y-106400000D01*
X91000000Y-114994000D02*
X91000000Y-103600000D01*
X61400000Y-106400000D02*
X62600000Y-105200000D01*
X57600000Y-108425000D02*
X57600000Y-107500000D01*
X94100000Y-100500000D02*
X94100000Y-98200000D01*
X57600000Y-107500000D02*
X58700000Y-106400000D01*
X56425000Y-109600000D02*
X57600000Y-108425000D01*
X81635699Y-115570000D02*
X90424000Y-115570000D01*
%TO.N,/RESET*%
X98100000Y-96800000D02*
X98100000Y-98200000D01*
X62000000Y-99200000D02*
X62100000Y-99300000D01*
X57400000Y-103600000D02*
X56425000Y-103600000D01*
X62230000Y-82245200D02*
X63960800Y-82245200D01*
X57600000Y-103100000D02*
X57600000Y-102900000D01*
X57600000Y-103100000D02*
X57600000Y-102700000D01*
X75835800Y-94200000D02*
X95500000Y-94200000D01*
X57400000Y-103600000D02*
X57600000Y-103400000D01*
X95500000Y-94200000D02*
X98100000Y-96800000D01*
X62100000Y-99300000D02*
X63000000Y-99300000D01*
X63960800Y-82245200D02*
X64008000Y-82198000D01*
X57600000Y-103400000D02*
X57600000Y-103100000D01*
X71628000Y-89992200D02*
X75835800Y-94200000D01*
%TO.N,/USB-D-*%
X58700010Y-109475010D02*
X62312322Y-109475010D01*
X62312322Y-109475010D02*
X62937332Y-108850000D01*
X58350000Y-109125000D02*
X58700010Y-109475010D01*
X58350000Y-108462500D02*
X58350000Y-109125000D01*
X62937332Y-108850000D02*
X63362500Y-108850000D01*
%TO.N,/USB-D+*%
X60250000Y-108462500D02*
X60362500Y-108350000D01*
X60362500Y-108350000D02*
X63362500Y-108350000D01*
D42*
%TO.N,/SM-DATA-ORIGINAL*%
X43239999Y-110160001D02*
X40653199Y-110160001D01*
X39200000Y-108706802D02*
X39200000Y-99902916D01*
D43*
X63899990Y-97349990D02*
X64900000Y-98350000D01*
D42*
X43602916Y-95500000D02*
X65375600Y-95500000D01*
X65375600Y-95500000D02*
X66525000Y-96649400D01*
D45*
X43700000Y-107680000D02*
X43700000Y-109700000D01*
D42*
X64900000Y-98350000D02*
X64900000Y-98325000D01*
X43700000Y-109700000D02*
X43239999Y-110160001D01*
X66525000Y-96649400D02*
X66525000Y-96700000D01*
D43*
X56675010Y-97349990D02*
X63899990Y-97349990D01*
D42*
X40653199Y-110160001D02*
X39200000Y-108706802D01*
D43*
X56425000Y-97600000D02*
X56675010Y-97349990D01*
D42*
X64900000Y-98325000D02*
X66525000Y-96700000D01*
X39200000Y-99902916D02*
X43602916Y-95500000D01*
D43*
%TO.N,/SM-USB-TX*%
X71300000Y-119940000D02*
X72360000Y-121000000D01*
X94386400Y-115900200D02*
X96100000Y-114186600D01*
X93788002Y-118500000D02*
X94400000Y-117888002D01*
X96100000Y-114186600D02*
X96100000Y-113400000D01*
X94400000Y-117888002D02*
X94400000Y-117600000D01*
X85700000Y-121000000D02*
X88200000Y-118500000D01*
X72360000Y-121000000D02*
X85700000Y-121000000D01*
X88200000Y-118500000D02*
X93788002Y-118500000D01*
X94386400Y-116103400D02*
X94386400Y-115900200D01*
X94400000Y-117600000D02*
X94400000Y-117500000D01*
%TO.N,/USB-TX*%
X65550000Y-106662500D02*
X65550000Y-105750000D01*
X69223080Y-104300480D02*
X66999520Y-104300480D01*
X65550000Y-105750000D02*
X66854000Y-104446000D01*
X66854000Y-104446000D02*
X67007600Y-104292400D01*
X66999520Y-104300480D02*
X66854000Y-104446000D01*
X71653400Y-106730800D02*
X69223080Y-104300480D01*
X71678800Y-106730800D02*
X71653400Y-106730800D01*
%TO.N,/USB-RX*%
X71300000Y-122480000D02*
X72380000Y-121400000D01*
X68632000Y-104700000D02*
X80732010Y-116800010D01*
X67200000Y-104700000D02*
X68632000Y-104700000D01*
X66050000Y-106662500D02*
X66050000Y-105850000D01*
X85900000Y-121400000D02*
X88400000Y-118900000D01*
X95493200Y-116800000D02*
X95300000Y-116800000D01*
X95493200Y-117663600D02*
X95493200Y-116800000D01*
X98100000Y-113400000D02*
X98100000Y-114193200D01*
X80732010Y-116800010D02*
X95300010Y-116800010D01*
X98100000Y-114193200D02*
X95493200Y-116800000D01*
X88400000Y-118900000D02*
X94256800Y-118900000D01*
X66050000Y-105850000D02*
X67200000Y-104700000D01*
X72380000Y-121400000D02*
X85900000Y-121400000D01*
X94256800Y-118900000D02*
X95493200Y-117663600D01*
X95300010Y-116800010D02*
X95300000Y-116800000D01*
%TO.N,/LED-DATA*%
X75300000Y-101700000D02*
X72000000Y-98400000D01*
X64800000Y-94700000D02*
X57024990Y-86924990D01*
X86300000Y-101700000D02*
X75300000Y-101700000D01*
X72000000Y-98400000D02*
X69900000Y-98400000D01*
X57024990Y-86924990D02*
X48287510Y-86924990D01*
X66400000Y-94700000D02*
X64800000Y-94700000D01*
X88100000Y-99900000D02*
X86300000Y-101700000D01*
X48287510Y-86924990D02*
X47512500Y-87700000D01*
X88100000Y-98200000D02*
X88100000Y-99900000D01*
D44*
%TO.N,/DTR*%
X60350000Y-103750000D02*
X61000000Y-103750000D01*
D43*
X62062668Y-103750000D02*
X61000000Y-103750000D01*
X64550000Y-106662500D02*
X64550000Y-106237332D01*
X64550000Y-106237332D02*
X62062668Y-103750000D01*
D44*
X59500000Y-103625000D02*
X60225000Y-103625000D01*
X60225000Y-103625000D02*
X60350000Y-103750000D01*
D43*
%TO.N,unconnected-(U4-Pad12)*%
X82500000Y-106700000D02*
X82600000Y-106800000D01*
D44*
%TO.N,Net-(Q2-Pad1)*%
X60975000Y-101850000D02*
X59500000Y-100375000D01*
X61000000Y-101850000D02*
X60975000Y-101850000D01*
D43*
%TO.N,/RTS*%
X64000000Y-101500000D02*
X62750000Y-100250000D01*
D44*
X61000000Y-100250000D02*
X61000000Y-100225000D01*
D43*
X67300000Y-105300000D02*
X67500000Y-105300000D01*
D44*
X61000000Y-100225000D02*
X59500000Y-98725000D01*
D43*
X66550000Y-106050000D02*
X67300000Y-105300000D01*
X66550000Y-106662500D02*
X66550000Y-106050000D01*
X62750000Y-100250000D02*
X61000000Y-100250000D01*
X64000000Y-104800000D02*
X64000000Y-101500000D01*
D44*
%TO.N,Net-(Q3-Pad1)*%
X60450000Y-97800000D02*
X61000000Y-98350000D01*
X58674990Y-98297178D02*
X59172168Y-97800000D01*
X58674990Y-101149990D02*
X58674990Y-98297178D01*
X59500000Y-101975000D02*
X58674990Y-101149990D01*
X59172168Y-97800000D02*
X60450000Y-97800000D01*
D46*
%TO.N,Net-(C1-Pad1)*%
X46903600Y-108016000D02*
X48987600Y-110100000D01*
X46903600Y-107721400D02*
X46990000Y-107635000D01*
X48987600Y-110100000D02*
X50150000Y-110100000D01*
X46903600Y-107721400D02*
X46903600Y-108016000D01*
X46990000Y-107635000D02*
X46990000Y-105371000D01*
X46990000Y-105371000D02*
X47357000Y-105004000D01*
D47*
X50150000Y-110100000D02*
X50150000Y-112500000D01*
D42*
%TO.N,Net-(C5-Pad1)*%
X61800000Y-111225000D02*
X61987500Y-111225000D01*
D44*
X63362500Y-109350000D02*
X63362500Y-109850000D01*
D42*
X61987500Y-111225000D02*
X63362500Y-109850000D01*
D43*
%TO.N,Net-(R6-Pad1)*%
X86100000Y-113400000D02*
X86100000Y-113225720D01*
X79031384Y-110600000D02*
X77231395Y-110600000D01*
X80031394Y-111600010D02*
X79031384Y-110600000D01*
X68800000Y-103100000D02*
X68400000Y-103500000D01*
X86100000Y-113225720D02*
X84474290Y-111600010D01*
X84474290Y-111600010D02*
X80031394Y-111600010D01*
X77231395Y-110600000D02*
X69731395Y-103100000D01*
X68400000Y-103500000D02*
X66525000Y-103500000D01*
X69731395Y-103100000D02*
X68800000Y-103100000D01*
D44*
%TO.N,Net-(C9-Pad1)*%
X68775000Y-109175000D02*
X68775000Y-112200000D01*
X67950000Y-108350000D02*
X68775000Y-109175000D01*
X67237500Y-108350000D02*
X67950000Y-108350000D01*
%TD*%
%TA.AperFunction,Conductor*%
%TO.N,GND*%
G36*
X61801294Y-81228002D02*
G01*
X61847787Y-81281658D01*
X61857891Y-81351932D01*
X61828397Y-81416512D01*
X61784422Y-81449107D01*
X61779278Y-81451397D01*
X61779276Y-81451398D01*
X61773248Y-81454082D01*
X61618747Y-81566334D01*
X61490960Y-81708256D01*
X61395473Y-81873644D01*
X61336458Y-82055272D01*
X61335768Y-82061833D01*
X61335768Y-82061835D01*
X61328665Y-82129421D01*
X61316496Y-82245200D01*
X61336458Y-82435128D01*
X61395473Y-82616756D01*
X61490960Y-82782144D01*
X61495378Y-82787051D01*
X61495379Y-82787052D01*
X61614325Y-82919155D01*
X61618747Y-82924066D01*
X61773248Y-83036318D01*
X61779276Y-83039002D01*
X61779278Y-83039003D01*
X61941681Y-83111309D01*
X61947712Y-83113994D01*
X62041113Y-83133847D01*
X62128056Y-83152328D01*
X62128061Y-83152328D01*
X62134513Y-83153700D01*
X62325487Y-83153700D01*
X62331939Y-83152328D01*
X62331944Y-83152328D01*
X62418887Y-83133847D01*
X62512288Y-83113994D01*
X62539751Y-83101767D01*
X62680719Y-83039004D01*
X62680721Y-83039003D01*
X62686752Y-83036318D01*
X62692096Y-83032435D01*
X62694014Y-83031328D01*
X62763009Y-83014590D01*
X62832579Y-83039621D01*
X62911295Y-83098615D01*
X63047684Y-83149745D01*
X63109866Y-83156500D01*
X64906134Y-83156500D01*
X64968316Y-83149745D01*
X65104705Y-83098615D01*
X65221261Y-83011261D01*
X65308615Y-82894705D01*
X65359745Y-82758316D01*
X65366500Y-82696134D01*
X65366500Y-81699866D01*
X65359745Y-81637684D01*
X65308615Y-81501295D01*
X65239867Y-81409565D01*
X65215019Y-81343059D01*
X65230072Y-81273676D01*
X65280246Y-81223446D01*
X65340693Y-81208000D01*
X98466000Y-81208000D01*
X98534121Y-81228002D01*
X98580614Y-81281658D01*
X98592000Y-81334000D01*
X98592000Y-86900672D01*
X98590500Y-86920057D01*
X98588648Y-86931954D01*
X98586814Y-86943730D01*
X98587978Y-86952632D01*
X98587964Y-86953806D01*
X98588344Y-86957786D01*
X98602391Y-87190011D01*
X98604366Y-87222669D01*
X98624731Y-87333799D01*
X98646072Y-87450249D01*
X98653606Y-87491362D01*
X98734875Y-87752161D01*
X98736436Y-87755630D01*
X98736437Y-87755632D01*
X98806480Y-87911261D01*
X98846986Y-88001263D01*
X98848954Y-88004518D01*
X98848960Y-88004530D01*
X98983159Y-88226522D01*
X99001331Y-88291461D01*
X99004227Y-89788864D01*
X99016978Y-96381183D01*
X98997108Y-96449343D01*
X98943542Y-96495939D01*
X98873288Y-96506179D01*
X98847425Y-96497465D01*
X98846705Y-96499385D01*
X98710316Y-96448255D01*
X98648134Y-96441500D01*
X98647063Y-96441500D01*
X98580548Y-96417992D01*
X98554341Y-96392539D01*
X98533987Y-96366013D01*
X98525541Y-96359532D01*
X98508621Y-96346548D01*
X98496230Y-96335681D01*
X95964315Y-93803766D01*
X95953448Y-93791375D01*
X95939013Y-93772563D01*
X95933987Y-93766013D01*
X95902075Y-93741526D01*
X95902072Y-93741523D01*
X95806876Y-93668476D01*
X95658851Y-93607162D01*
X95650664Y-93606084D01*
X95650663Y-93606084D01*
X95639458Y-93604609D01*
X95608262Y-93600502D01*
X95539885Y-93591500D01*
X95539882Y-93591500D01*
X95539874Y-93591499D01*
X95508189Y-93587328D01*
X95500000Y-93586250D01*
X95468307Y-93590422D01*
X95451864Y-93591500D01*
X92798238Y-93591500D01*
X92730117Y-93571498D01*
X92683624Y-93517842D01*
X92673520Y-93447568D01*
X92703014Y-93382988D01*
X92757737Y-93346187D01*
X92781222Y-93338215D01*
X92781223Y-93338214D01*
X92785128Y-93336889D01*
X92952004Y-93254595D01*
X93052772Y-93204902D01*
X93052777Y-93204899D01*
X93056476Y-93203075D01*
X93180416Y-93120261D01*
X93304605Y-93037281D01*
X93304610Y-93037277D01*
X93308036Y-93034988D01*
X93535504Y-92835504D01*
X93734988Y-92608036D01*
X93749331Y-92586571D01*
X93900781Y-92359909D01*
X93903075Y-92356476D01*
X94036889Y-92085128D01*
X94111844Y-91864319D01*
X94132814Y-91802543D01*
X94132815Y-91802540D01*
X94134140Y-91798636D01*
X94139368Y-91772356D01*
X94192360Y-91505944D01*
X94192360Y-91505941D01*
X94193164Y-91501901D01*
X94196765Y-91446971D01*
X94212682Y-91204119D01*
X94212952Y-91200000D01*
X94198247Y-90975647D01*
X94193434Y-90902214D01*
X94193433Y-90902210D01*
X94193164Y-90898099D01*
X94192360Y-90894056D01*
X94134945Y-90605409D01*
X94134943Y-90605403D01*
X94134140Y-90601364D01*
X94108500Y-90525829D01*
X94038215Y-90318778D01*
X94038214Y-90318777D01*
X94036889Y-90314872D01*
X93954573Y-90147951D01*
X93904902Y-90047228D01*
X93904899Y-90047223D01*
X93903075Y-90043524D01*
X93817866Y-89916000D01*
X93737281Y-89795395D01*
X93737277Y-89795390D01*
X93734988Y-89791964D01*
X93535504Y-89564496D01*
X93308036Y-89365012D01*
X93304610Y-89362723D01*
X93304605Y-89362719D01*
X93080640Y-89213071D01*
X93056476Y-89196925D01*
X93052777Y-89195101D01*
X93052772Y-89195098D01*
X92904612Y-89122034D01*
X92785128Y-89063111D01*
X92709330Y-89037381D01*
X92502543Y-88967186D01*
X92502540Y-88967185D01*
X92498636Y-88965860D01*
X92494597Y-88965057D01*
X92494591Y-88965055D01*
X92205944Y-88907640D01*
X92205941Y-88907640D01*
X92201901Y-88906836D01*
X92197790Y-88906567D01*
X92197786Y-88906566D01*
X91904119Y-88887318D01*
X91900000Y-88887048D01*
X91895881Y-88887318D01*
X91602214Y-88906566D01*
X91602210Y-88906567D01*
X91598099Y-88906836D01*
X91594059Y-88907640D01*
X91594056Y-88907640D01*
X91305409Y-88965055D01*
X91305403Y-88965057D01*
X91301364Y-88965860D01*
X91297460Y-88967185D01*
X91297457Y-88967186D01*
X91090670Y-89037381D01*
X91014872Y-89063111D01*
X90895388Y-89122034D01*
X90747228Y-89195098D01*
X90747223Y-89195101D01*
X90743524Y-89196925D01*
X90719360Y-89213071D01*
X90495395Y-89362719D01*
X90495390Y-89362723D01*
X90491964Y-89365012D01*
X90264496Y-89564496D01*
X90065012Y-89791964D01*
X90062723Y-89795390D01*
X90062719Y-89795395D01*
X89982134Y-89916000D01*
X89896925Y-90043524D01*
X89895101Y-90047223D01*
X89895098Y-90047228D01*
X89845427Y-90147951D01*
X89763111Y-90314872D01*
X89761786Y-90318777D01*
X89761785Y-90318778D01*
X89691501Y-90525829D01*
X89665860Y-90601364D01*
X89665057Y-90605403D01*
X89665055Y-90605409D01*
X89607640Y-90894056D01*
X89606836Y-90898099D01*
X89606567Y-90902210D01*
X89606566Y-90902214D01*
X89601753Y-90975647D01*
X89587048Y-91200000D01*
X89587318Y-91204119D01*
X89603236Y-91446971D01*
X89606836Y-91501901D01*
X89607640Y-91505941D01*
X89607640Y-91505944D01*
X89660633Y-91772356D01*
X89665860Y-91798636D01*
X89667185Y-91802540D01*
X89667186Y-91802543D01*
X89688156Y-91864319D01*
X89763111Y-92085128D01*
X89896925Y-92356476D01*
X89899219Y-92359909D01*
X90050670Y-92586571D01*
X90065012Y-92608036D01*
X90264496Y-92835504D01*
X90491964Y-93034988D01*
X90495390Y-93037277D01*
X90495395Y-93037281D01*
X90619584Y-93120261D01*
X90743524Y-93203075D01*
X90747223Y-93204899D01*
X90747228Y-93204902D01*
X90847996Y-93254595D01*
X91014872Y-93336889D01*
X91018777Y-93338214D01*
X91018778Y-93338215D01*
X91042263Y-93346187D01*
X91100340Y-93387024D01*
X91127118Y-93452777D01*
X91114097Y-93522569D01*
X91065410Y-93574242D01*
X91001762Y-93591500D01*
X76140039Y-93591500D01*
X76071918Y-93571498D01*
X76050944Y-93554595D01*
X72577719Y-90081370D01*
X72543693Y-90019058D01*
X72541159Y-89995484D01*
X72541504Y-89992200D01*
X72521542Y-89802272D01*
X72462527Y-89620644D01*
X72449099Y-89597385D01*
X72379422Y-89476702D01*
X72367040Y-89455256D01*
X72296458Y-89376866D01*
X72243675Y-89318245D01*
X72243674Y-89318244D01*
X72239253Y-89313334D01*
X72101335Y-89213130D01*
X72090094Y-89204963D01*
X72090093Y-89204962D01*
X72084752Y-89201082D01*
X72078724Y-89198398D01*
X72078722Y-89198397D01*
X71916319Y-89126091D01*
X71916318Y-89126091D01*
X71910288Y-89123406D01*
X71816888Y-89103553D01*
X71729944Y-89085072D01*
X71729939Y-89085072D01*
X71723487Y-89083700D01*
X71532513Y-89083700D01*
X71526061Y-89085072D01*
X71526056Y-89085072D01*
X71439112Y-89103553D01*
X71345712Y-89123406D01*
X71339682Y-89126091D01*
X71339681Y-89126091D01*
X71219949Y-89179399D01*
X71149582Y-89188833D01*
X71085285Y-89158726D01*
X71047471Y-89098638D01*
X71042700Y-89064292D01*
X71042700Y-87502439D01*
X71062702Y-87434318D01*
X71079605Y-87413344D01*
X73011544Y-85481405D01*
X73073856Y-85447379D01*
X73100639Y-85444500D01*
X75731500Y-85444500D01*
X75799621Y-85464502D01*
X75846114Y-85518158D01*
X75857500Y-85570500D01*
X75857500Y-85734134D01*
X75864255Y-85796316D01*
X75915385Y-85932705D01*
X76002739Y-86049261D01*
X76119295Y-86136615D01*
X76127704Y-86139767D01*
X76127705Y-86139768D01*
X76236451Y-86180535D01*
X76293216Y-86223176D01*
X76317916Y-86289738D01*
X76302709Y-86359087D01*
X76283316Y-86385568D01*
X76156629Y-86518138D01*
X76153715Y-86522410D01*
X76153714Y-86522411D01*
X76135838Y-86548617D01*
X76030743Y-86702680D01*
X75999141Y-86770761D01*
X75943178Y-86891324D01*
X75936688Y-86905305D01*
X75876989Y-87120570D01*
X75853251Y-87342695D01*
X75853548Y-87347848D01*
X75853548Y-87347851D01*
X75861823Y-87491362D01*
X75866110Y-87565715D01*
X75867247Y-87570761D01*
X75867248Y-87570767D01*
X75885208Y-87650460D01*
X75915222Y-87783639D01*
X75999266Y-87990616D01*
X76034752Y-88048524D01*
X76106196Y-88165110D01*
X76115987Y-88181088D01*
X76262250Y-88349938D01*
X76434126Y-88492632D01*
X76504595Y-88533811D01*
X76507445Y-88535476D01*
X76556169Y-88587114D01*
X76569240Y-88656897D01*
X76542509Y-88722669D01*
X76502055Y-88756027D01*
X76489607Y-88762507D01*
X76485474Y-88765610D01*
X76485471Y-88765612D01*
X76315100Y-88893530D01*
X76310965Y-88896635D01*
X76156629Y-89058138D01*
X76153715Y-89062410D01*
X76153714Y-89062411D01*
X76073910Y-89179399D01*
X76030743Y-89242680D01*
X76015003Y-89276590D01*
X75960876Y-89393197D01*
X75936688Y-89445305D01*
X75876989Y-89660570D01*
X75853251Y-89882695D01*
X75853548Y-89887848D01*
X75853548Y-89887851D01*
X75859565Y-89992200D01*
X75866110Y-90105715D01*
X75867247Y-90110761D01*
X75867248Y-90110767D01*
X75875628Y-90147951D01*
X75915222Y-90323639D01*
X75999266Y-90530616D01*
X76001965Y-90535020D01*
X76096889Y-90689922D01*
X76115987Y-90721088D01*
X76262250Y-90889938D01*
X76434126Y-91032632D01*
X76627000Y-91145338D01*
X76835692Y-91225030D01*
X76840760Y-91226061D01*
X76840763Y-91226062D01*
X76948017Y-91247883D01*
X77054597Y-91269567D01*
X77059772Y-91269757D01*
X77059774Y-91269757D01*
X77272673Y-91277564D01*
X77272677Y-91277564D01*
X77277837Y-91277753D01*
X77282957Y-91277097D01*
X77282959Y-91277097D01*
X77494288Y-91250025D01*
X77494289Y-91250025D01*
X77499416Y-91249368D01*
X77504366Y-91247883D01*
X77708429Y-91186661D01*
X77708434Y-91186659D01*
X77713384Y-91185174D01*
X77913994Y-91086896D01*
X78095860Y-90957173D01*
X78153908Y-90899328D01*
X78248070Y-90805494D01*
X78254096Y-90799489D01*
X78313594Y-90716689D01*
X78381435Y-90622277D01*
X78384453Y-90618077D01*
X78483430Y-90417811D01*
X78548370Y-90204069D01*
X78577529Y-89982590D01*
X78579156Y-89916000D01*
X78560852Y-89693361D01*
X78506431Y-89476702D01*
X78417354Y-89271840D01*
X78344177Y-89158726D01*
X78298822Y-89088617D01*
X78298820Y-89088614D01*
X78296014Y-89084277D01*
X78145670Y-88919051D01*
X78141619Y-88915852D01*
X78141615Y-88915848D01*
X77974414Y-88783800D01*
X77974410Y-88783798D01*
X77970359Y-88780598D01*
X77929053Y-88757796D01*
X77879084Y-88707364D01*
X77864312Y-88637921D01*
X77889428Y-88571516D01*
X77916780Y-88544909D01*
X77977225Y-88501794D01*
X78095860Y-88417173D01*
X78254096Y-88259489D01*
X78272336Y-88234106D01*
X78381435Y-88082277D01*
X78384453Y-88078077D01*
X78395300Y-88056131D01*
X78481136Y-87882453D01*
X78481137Y-87882451D01*
X78483430Y-87877811D01*
X78548370Y-87664069D01*
X78577529Y-87442590D01*
X78579156Y-87376000D01*
X78560852Y-87153361D01*
X78506431Y-86936702D01*
X78417354Y-86731840D01*
X78296014Y-86544277D01*
X78290015Y-86537684D01*
X78148798Y-86382488D01*
X78117746Y-86318642D01*
X78126141Y-86248143D01*
X78171317Y-86193375D01*
X78197761Y-86179706D01*
X78304297Y-86139767D01*
X78312705Y-86136615D01*
X78429261Y-86049261D01*
X78516615Y-85932705D01*
X78567745Y-85796316D01*
X78574500Y-85734134D01*
X78574500Y-83937866D01*
X78567745Y-83875684D01*
X78516615Y-83739295D01*
X78429261Y-83622739D01*
X78312705Y-83535385D01*
X78176316Y-83484255D01*
X78114134Y-83477500D01*
X76317866Y-83477500D01*
X76255684Y-83484255D01*
X76119295Y-83535385D01*
X76002739Y-83622739D01*
X75915385Y-83739295D01*
X75864255Y-83875684D01*
X75857500Y-83937866D01*
X75857500Y-84101500D01*
X75837498Y-84169621D01*
X75783842Y-84216114D01*
X75731500Y-84227500D01*
X72844536Y-84227500D01*
X72828090Y-84226422D01*
X72804588Y-84223328D01*
X72796400Y-84222250D01*
X72788212Y-84223328D01*
X72756529Y-84227499D01*
X72756520Y-84227500D01*
X72756515Y-84227500D01*
X72637550Y-84243162D01*
X72489525Y-84304476D01*
X72489523Y-84304477D01*
X72489524Y-84304477D01*
X72394328Y-84377523D01*
X72394325Y-84377526D01*
X72362413Y-84402013D01*
X72357383Y-84408568D01*
X72342948Y-84427379D01*
X72332081Y-84439770D01*
X70037966Y-86733885D01*
X70025575Y-86744752D01*
X70000213Y-86764213D01*
X69975726Y-86796125D01*
X69975723Y-86796128D01*
X69902676Y-86891324D01*
X69841362Y-87039349D01*
X69841362Y-87039350D01*
X69825700Y-87158315D01*
X69825700Y-87158320D01*
X69820450Y-87198200D01*
X69821528Y-87206388D01*
X69824622Y-87229890D01*
X69825700Y-87246336D01*
X69825700Y-94640961D01*
X69805698Y-94709082D01*
X69788795Y-94730056D01*
X68323595Y-96195256D01*
X68261283Y-96229282D01*
X68190468Y-96224217D01*
X68133632Y-96181670D01*
X68108821Y-96115150D01*
X68108500Y-96106161D01*
X68108500Y-95848136D01*
X68109578Y-95831690D01*
X68112672Y-95808188D01*
X68113750Y-95800000D01*
X68109578Y-95768307D01*
X68108500Y-95751864D01*
X68108500Y-92948144D01*
X68109578Y-92931698D01*
X68112673Y-92908188D01*
X68113751Y-92900000D01*
X68092838Y-92741149D01*
X68031524Y-92593124D01*
X67958478Y-92497929D01*
X67958474Y-92497925D01*
X67953928Y-92492000D01*
X67939016Y-92472566D01*
X67939013Y-92472563D01*
X67933987Y-92466013D01*
X67927432Y-92460983D01*
X67908621Y-92446548D01*
X67896230Y-92435681D01*
X65502072Y-90041523D01*
X65443357Y-89996469D01*
X65413432Y-89973506D01*
X65413429Y-89973504D01*
X65406876Y-89968476D01*
X65400680Y-89965909D01*
X65352184Y-89915047D01*
X65346196Y-89901542D01*
X65311767Y-89809703D01*
X65308615Y-89801295D01*
X65221261Y-89684739D01*
X65104705Y-89597385D01*
X64968316Y-89546255D01*
X64906134Y-89539500D01*
X64855817Y-89539500D01*
X64787696Y-89519498D01*
X64741203Y-89465842D01*
X64731099Y-89395568D01*
X64762181Y-89329190D01*
X64842621Y-89239852D01*
X64842622Y-89239851D01*
X64847040Y-89234944D01*
X64912229Y-89122034D01*
X64939223Y-89075279D01*
X64939224Y-89075278D01*
X64942527Y-89069556D01*
X65001542Y-88887928D01*
X65009555Y-88811694D01*
X65020814Y-88704565D01*
X65021504Y-88698000D01*
X65005414Y-88544909D01*
X65002232Y-88514635D01*
X65002232Y-88514633D01*
X65001542Y-88508072D01*
X64942527Y-88326444D01*
X64922330Y-88291461D01*
X64889216Y-88234106D01*
X64872478Y-88165110D01*
X64895699Y-88098019D01*
X64951506Y-88054132D01*
X64963787Y-88050237D01*
X64968316Y-88049745D01*
X65104705Y-87998615D01*
X65221261Y-87911261D01*
X65308615Y-87794705D01*
X65359745Y-87658316D01*
X65366500Y-87596134D01*
X65366500Y-86599866D01*
X65359745Y-86537684D01*
X65308615Y-86401295D01*
X65309307Y-86401036D01*
X65295657Y-86338626D01*
X65308580Y-86294615D01*
X65308172Y-86294462D01*
X65310262Y-86288888D01*
X65310826Y-86286966D01*
X65311321Y-86286061D01*
X65356478Y-86165606D01*
X65360105Y-86150351D01*
X65365631Y-86099486D01*
X65366000Y-86092672D01*
X65366000Y-85870115D01*
X65361525Y-85854876D01*
X65360135Y-85853671D01*
X65352452Y-85852000D01*
X62668116Y-85852000D01*
X62652877Y-85856475D01*
X62651672Y-85857865D01*
X62650001Y-85865548D01*
X62650001Y-86092669D01*
X62650371Y-86099490D01*
X62655895Y-86150352D01*
X62659521Y-86165604D01*
X62704679Y-86286061D01*
X62705174Y-86286966D01*
X62705393Y-86287966D01*
X62707828Y-86294462D01*
X62706890Y-86294814D01*
X62720343Y-86356323D01*
X62707162Y-86401212D01*
X62707385Y-86401295D01*
X62706244Y-86404337D01*
X62706242Y-86404344D01*
X62656255Y-86537684D01*
X62649500Y-86599866D01*
X62649500Y-87596134D01*
X62656255Y-87658316D01*
X62707385Y-87794705D01*
X62794739Y-87911261D01*
X62911295Y-87998615D01*
X63047684Y-88049745D01*
X63109866Y-88056500D01*
X63211087Y-88056500D01*
X63279208Y-88076502D01*
X63325701Y-88130158D01*
X63335805Y-88200432D01*
X63320206Y-88245500D01*
X63307428Y-88267633D01*
X63273473Y-88326444D01*
X63214458Y-88508072D01*
X63213768Y-88514633D01*
X63213768Y-88514635D01*
X63210586Y-88544909D01*
X63194496Y-88698000D01*
X63195186Y-88704565D01*
X63206446Y-88811694D01*
X63214458Y-88887928D01*
X63273473Y-89069556D01*
X63276776Y-89075278D01*
X63276777Y-89075279D01*
X63303771Y-89122034D01*
X63368960Y-89234944D01*
X63373378Y-89239851D01*
X63373379Y-89239852D01*
X63453819Y-89329190D01*
X63484537Y-89393197D01*
X63475772Y-89463651D01*
X63430309Y-89518182D01*
X63360183Y-89539500D01*
X63109866Y-89539500D01*
X63047684Y-89546255D01*
X62911295Y-89597385D01*
X62794739Y-89684739D01*
X62707385Y-89801295D01*
X62656255Y-89937684D01*
X62649500Y-89999866D01*
X62649500Y-90784761D01*
X62629498Y-90852882D01*
X62575842Y-90899375D01*
X62505568Y-90909479D01*
X62440988Y-90879985D01*
X62434405Y-90873856D01*
X56663877Y-85103328D01*
X62650000Y-85103328D01*
X62650000Y-85325885D01*
X62654475Y-85341124D01*
X62655865Y-85342329D01*
X62663548Y-85344000D01*
X63735885Y-85344000D01*
X63751124Y-85339525D01*
X63752329Y-85338135D01*
X63754000Y-85330452D01*
X63754000Y-84658116D01*
X63752659Y-84653548D01*
X64262000Y-84653548D01*
X64262000Y-85325885D01*
X64266475Y-85341124D01*
X64267865Y-85342329D01*
X64275548Y-85344000D01*
X65347884Y-85344000D01*
X65363123Y-85339525D01*
X65364328Y-85338135D01*
X65365999Y-85330452D01*
X65365999Y-85103331D01*
X65365629Y-85096510D01*
X65360105Y-85045648D01*
X65356479Y-85030396D01*
X65311324Y-84909946D01*
X65302786Y-84894351D01*
X65226285Y-84792276D01*
X65213724Y-84779715D01*
X65111649Y-84703214D01*
X65096054Y-84694676D01*
X64975606Y-84649522D01*
X64960351Y-84645895D01*
X64909486Y-84640369D01*
X64902672Y-84640000D01*
X64280115Y-84640000D01*
X64264876Y-84644475D01*
X64263671Y-84645865D01*
X64262000Y-84653548D01*
X63752659Y-84653548D01*
X63749525Y-84642877D01*
X63748135Y-84641672D01*
X63740452Y-84640001D01*
X63113331Y-84640001D01*
X63106510Y-84640371D01*
X63055648Y-84645895D01*
X63040396Y-84649521D01*
X62919946Y-84694676D01*
X62904351Y-84703214D01*
X62802276Y-84779715D01*
X62789715Y-84792276D01*
X62713214Y-84894351D01*
X62704676Y-84909946D01*
X62659522Y-85030394D01*
X62655895Y-85045649D01*
X62650369Y-85096514D01*
X62650000Y-85103328D01*
X56663877Y-85103328D01*
X55889305Y-84328756D01*
X55878438Y-84316365D01*
X55864003Y-84297553D01*
X55858977Y-84291003D01*
X55827065Y-84266516D01*
X55827062Y-84266513D01*
X55776220Y-84227500D01*
X55738419Y-84198494D01*
X55738417Y-84198493D01*
X55731866Y-84193466D01*
X55583841Y-84132152D01*
X55575654Y-84131074D01*
X55575653Y-84131074D01*
X55564448Y-84129599D01*
X55533252Y-84125492D01*
X55464875Y-84116490D01*
X55464872Y-84116490D01*
X55464864Y-84116489D01*
X55433179Y-84112318D01*
X55424990Y-84111240D01*
X55393297Y-84115412D01*
X55376854Y-84116490D01*
X49878777Y-84116490D01*
X49810656Y-84096488D01*
X49764163Y-84042832D01*
X49754059Y-83972558D01*
X49783553Y-83907978D01*
X49789604Y-83901472D01*
X49875693Y-83815233D01*
X49880864Y-83810053D01*
X49969849Y-83665692D01*
X50011284Y-83540771D01*
X50021072Y-83511262D01*
X50021072Y-83511260D01*
X50023238Y-83504731D01*
X50033500Y-83404572D01*
X50033500Y-82795428D01*
X50031529Y-82776426D01*
X50023689Y-82700874D01*
X50022978Y-82694018D01*
X49969308Y-82533151D01*
X49880071Y-82388945D01*
X49760053Y-82269136D01*
X49615692Y-82180151D01*
X49608743Y-82177846D01*
X49461262Y-82128928D01*
X49461260Y-82128928D01*
X49454731Y-82126762D01*
X49354572Y-82116500D01*
X48820428Y-82116500D01*
X48817182Y-82116837D01*
X48817178Y-82116837D01*
X48787890Y-82119876D01*
X48719018Y-82127022D01*
X48558151Y-82180692D01*
X48413945Y-82269929D01*
X48408776Y-82275107D01*
X48388759Y-82295159D01*
X48326477Y-82329238D01*
X48255657Y-82324235D01*
X48210568Y-82295314D01*
X48189920Y-82274702D01*
X48178509Y-82265690D01*
X48046709Y-82184447D01*
X48033532Y-82178303D01*
X47886157Y-82129421D01*
X47872790Y-82126555D01*
X47783300Y-82117386D01*
X47769376Y-82121475D01*
X47768171Y-82122865D01*
X47766500Y-82130548D01*
X47766500Y-83228000D01*
X47746498Y-83296121D01*
X47692842Y-83342614D01*
X47640500Y-83354000D01*
X46585115Y-83354000D01*
X46569876Y-83358475D01*
X46568671Y-83359865D01*
X46567000Y-83367548D01*
X46567000Y-83401266D01*
X46567337Y-83407782D01*
X46576804Y-83499021D01*
X46579697Y-83512417D01*
X46628830Y-83659687D01*
X46635004Y-83672866D01*
X46716470Y-83804514D01*
X46725506Y-83815915D01*
X46811057Y-83901317D01*
X46845136Y-83963599D01*
X46840133Y-84034420D01*
X46797636Y-84091292D01*
X46731137Y-84116161D01*
X46722039Y-84116490D01*
X46623146Y-84116490D01*
X46606703Y-84115412D01*
X46575010Y-84111240D01*
X46566821Y-84112318D01*
X46535136Y-84116489D01*
X46535127Y-84116490D01*
X46535125Y-84116490D01*
X46535119Y-84116491D01*
X46535117Y-84116491D01*
X46435553Y-84129599D01*
X46424346Y-84131074D01*
X46424344Y-84131075D01*
X46416159Y-84132152D01*
X46268134Y-84193466D01*
X46230623Y-84222250D01*
X46141023Y-84291003D01*
X46121562Y-84316365D01*
X46121560Y-84316368D01*
X46110694Y-84328756D01*
X45603766Y-84835684D01*
X45591376Y-84846551D01*
X45566013Y-84866013D01*
X45541526Y-84897925D01*
X45541523Y-84897928D01*
X45468476Y-84993124D01*
X45407162Y-85141149D01*
X45407162Y-85141150D01*
X45391500Y-85260115D01*
X45391500Y-85260120D01*
X45386250Y-85300000D01*
X45387328Y-85308188D01*
X45390422Y-85331690D01*
X45391500Y-85348136D01*
X45391500Y-91351864D01*
X45390422Y-91368307D01*
X45386250Y-91400000D01*
X45391500Y-91439880D01*
X45391500Y-91439885D01*
X45399665Y-91501901D01*
X45407162Y-91558851D01*
X45468476Y-91706876D01*
X45473503Y-91713427D01*
X45473504Y-91713429D01*
X45541520Y-91802069D01*
X45541526Y-91802075D01*
X45566013Y-91833987D01*
X45572568Y-91839017D01*
X45591379Y-91853452D01*
X45603770Y-91864319D01*
X48041520Y-94302068D01*
X48041523Y-94302072D01*
X48315856Y-94576405D01*
X48349882Y-94638717D01*
X48344817Y-94709532D01*
X48302270Y-94766368D01*
X48235750Y-94791179D01*
X48226761Y-94791500D01*
X43631843Y-94791500D01*
X43623274Y-94791208D01*
X43573141Y-94787790D01*
X43573137Y-94787790D01*
X43565564Y-94787274D01*
X43502597Y-94798264D01*
X43496085Y-94799224D01*
X43432674Y-94806898D01*
X43425573Y-94809581D01*
X43422964Y-94810222D01*
X43406644Y-94814687D01*
X43404111Y-94815452D01*
X43396633Y-94816757D01*
X43338106Y-94842448D01*
X43332024Y-94844930D01*
X43311669Y-94852622D01*
X43279365Y-94864828D01*
X43279363Y-94864829D01*
X43272260Y-94867513D01*
X43266001Y-94871814D01*
X43263636Y-94873051D01*
X43248864Y-94881273D01*
X43246572Y-94882628D01*
X43239611Y-94885684D01*
X43233584Y-94890309D01*
X43233580Y-94890311D01*
X43188903Y-94924593D01*
X43183578Y-94928462D01*
X43130935Y-94964643D01*
X43125883Y-94970313D01*
X43125882Y-94970314D01*
X43089489Y-95011161D01*
X43084508Y-95016437D01*
X38719480Y-99381466D01*
X38713215Y-99387320D01*
X38669615Y-99425355D01*
X38663170Y-99434526D01*
X38632872Y-99477635D01*
X38628939Y-99482930D01*
X38589524Y-99533198D01*
X38586401Y-99540114D01*
X38585017Y-99542400D01*
X38576643Y-99557081D01*
X38575378Y-99559441D01*
X38571010Y-99565655D01*
X38568250Y-99572734D01*
X38568249Y-99572736D01*
X38547798Y-99625191D01*
X38545247Y-99631260D01*
X38518955Y-99689489D01*
X38517571Y-99696956D01*
X38516770Y-99699511D01*
X38512141Y-99715764D01*
X38511478Y-99718344D01*
X38508718Y-99725425D01*
X38500498Y-99787867D01*
X38500379Y-99788768D01*
X38499348Y-99795275D01*
X38487704Y-99858102D01*
X38488141Y-99865682D01*
X38488141Y-99865683D01*
X38491291Y-99920308D01*
X38491500Y-99927562D01*
X38491500Y-108677890D01*
X38491208Y-108686460D01*
X38488441Y-108727055D01*
X38487275Y-108744154D01*
X38488580Y-108751631D01*
X38488580Y-108751632D01*
X38498261Y-108807101D01*
X38499223Y-108813623D01*
X38506898Y-108877044D01*
X38509581Y-108884145D01*
X38510222Y-108886754D01*
X38514685Y-108903064D01*
X38515450Y-108905600D01*
X38516757Y-108913086D01*
X38519811Y-108920043D01*
X38542442Y-108971597D01*
X38544933Y-108977701D01*
X38549744Y-108990432D01*
X38562732Y-109024804D01*
X38567513Y-109037458D01*
X38571817Y-109043721D01*
X38573054Y-109046087D01*
X38581299Y-109060899D01*
X38582632Y-109063153D01*
X38585685Y-109070107D01*
X38624231Y-109120339D01*
X38624579Y-109120793D01*
X38628459Y-109126134D01*
X38660339Y-109172522D01*
X38660344Y-109172527D01*
X38664643Y-109178783D01*
X38670313Y-109183834D01*
X38670314Y-109183836D01*
X38711170Y-109220237D01*
X38716446Y-109225218D01*
X40131749Y-110640521D01*
X40137603Y-110646786D01*
X40175638Y-110690386D01*
X40227222Y-110726639D01*
X40227896Y-110727113D01*
X40233192Y-110731046D01*
X40283481Y-110770478D01*
X40290403Y-110773603D01*
X40292651Y-110774965D01*
X40307384Y-110783369D01*
X40309723Y-110784623D01*
X40315938Y-110788991D01*
X40323014Y-110791750D01*
X40323018Y-110791752D01*
X40375468Y-110812201D01*
X40381533Y-110814750D01*
X40439772Y-110841046D01*
X40447237Y-110842430D01*
X40449781Y-110843227D01*
X40466047Y-110847860D01*
X40468627Y-110848522D01*
X40475708Y-110851283D01*
X40483241Y-110852275D01*
X40483242Y-110852275D01*
X40496460Y-110854015D01*
X40539056Y-110859623D01*
X40545554Y-110860651D01*
X40608386Y-110872297D01*
X40615966Y-110871860D01*
X40615967Y-110871860D01*
X40670597Y-110868710D01*
X40677850Y-110868501D01*
X43211087Y-110868501D01*
X43219657Y-110868793D01*
X43269775Y-110872210D01*
X43269779Y-110872210D01*
X43277351Y-110872726D01*
X43284828Y-110871421D01*
X43284829Y-110871421D01*
X43318697Y-110865510D01*
X43340302Y-110861739D01*
X43346820Y-110860778D01*
X43410241Y-110853103D01*
X43417342Y-110850420D01*
X43419951Y-110849779D01*
X43436261Y-110845316D01*
X43438797Y-110844551D01*
X43446283Y-110843244D01*
X43504799Y-110817557D01*
X43510903Y-110815066D01*
X43512976Y-110814283D01*
X43570655Y-110792488D01*
X43576918Y-110788184D01*
X43579284Y-110786947D01*
X43594096Y-110778702D01*
X43596350Y-110777369D01*
X43603304Y-110774316D01*
X43654001Y-110735414D01*
X43659331Y-110731542D01*
X43705719Y-110699662D01*
X43705724Y-110699657D01*
X43711980Y-110695358D01*
X43729619Y-110675561D01*
X43753434Y-110648831D01*
X43758415Y-110643555D01*
X43991916Y-110410054D01*
X44031677Y-110383209D01*
X44071629Y-110366209D01*
X44071630Y-110366208D01*
X44078364Y-110363343D01*
X44220818Y-110258508D01*
X44225557Y-110252930D01*
X44225560Y-110252927D01*
X44330594Y-110129294D01*
X44330597Y-110129290D01*
X44335333Y-110123715D01*
X44379476Y-110037267D01*
X44412442Y-109972708D01*
X44412443Y-109972706D01*
X44415769Y-109966192D01*
X44418613Y-109954573D01*
X44446961Y-109838717D01*
X44457808Y-109794390D01*
X44458500Y-109783236D01*
X44458500Y-109264031D01*
X44478502Y-109195910D01*
X44532158Y-109149417D01*
X44602432Y-109139313D01*
X44667012Y-109168807D01*
X44678129Y-109179713D01*
X44705566Y-109210185D01*
X44716426Y-109218075D01*
X44731454Y-109230912D01*
X45868595Y-110368053D01*
X45902621Y-110430365D01*
X45905500Y-110457148D01*
X45905500Y-110731734D01*
X45912255Y-110793916D01*
X45963385Y-110930305D01*
X46050739Y-111046861D01*
X46167295Y-111134215D01*
X46175703Y-111137367D01*
X46302278Y-111184818D01*
X46359042Y-111227460D01*
X46383742Y-111294021D01*
X46368535Y-111363370D01*
X46318249Y-111413488D01*
X46302278Y-111420782D01*
X46264341Y-111435004D01*
X46167295Y-111471385D01*
X46050739Y-111558739D01*
X46045358Y-111565919D01*
X45978714Y-111654842D01*
X45963385Y-111675295D01*
X45912255Y-111811684D01*
X45905500Y-111873866D01*
X45905500Y-113170134D01*
X45912255Y-113232316D01*
X45963385Y-113368705D01*
X46050739Y-113485261D01*
X46167295Y-113572615D01*
X46303684Y-113623745D01*
X46365866Y-113630500D01*
X46678852Y-113630500D01*
X46746973Y-113650502D01*
X46767947Y-113667405D01*
X48469088Y-115368546D01*
X48481925Y-115383574D01*
X48489815Y-115394434D01*
X48494725Y-115398855D01*
X48494726Y-115398856D01*
X48539184Y-115438886D01*
X48543969Y-115443427D01*
X48558014Y-115457472D01*
X48560588Y-115459556D01*
X48560591Y-115459559D01*
X48573446Y-115469969D01*
X48578462Y-115474253D01*
X48622920Y-115514283D01*
X48622925Y-115514287D01*
X48627831Y-115518704D01*
X48639097Y-115525209D01*
X48639448Y-115525411D01*
X48655741Y-115536609D01*
X48666161Y-115545047D01*
X48725363Y-115575213D01*
X48731133Y-115578346D01*
X48782945Y-115608260D01*
X48782950Y-115608262D01*
X48788669Y-115611564D01*
X48794949Y-115613605D01*
X48794957Y-115613608D01*
X48801421Y-115615708D01*
X48819683Y-115623272D01*
X48825749Y-115626363D01*
X48825758Y-115626366D01*
X48831637Y-115629362D01*
X48838015Y-115631071D01*
X48895804Y-115646556D01*
X48902106Y-115648422D01*
X48965298Y-115668954D01*
X48978205Y-115670311D01*
X48978628Y-115670355D01*
X48998071Y-115673958D01*
X49011029Y-115677430D01*
X49017620Y-115677775D01*
X49017624Y-115677776D01*
X49077354Y-115680906D01*
X49083929Y-115681423D01*
X49099126Y-115683020D01*
X49103694Y-115683500D01*
X49123568Y-115683500D01*
X49130162Y-115683673D01*
X49189901Y-115686804D01*
X49189905Y-115686804D01*
X49196493Y-115687149D01*
X49203008Y-115686117D01*
X49203011Y-115686117D01*
X49209740Y-115685051D01*
X49229450Y-115683500D01*
X51181852Y-115683500D01*
X51249973Y-115703502D01*
X51270947Y-115720405D01*
X57979595Y-122429053D01*
X58013621Y-122491365D01*
X58016500Y-122518148D01*
X58016500Y-122905681D01*
X57996498Y-122973802D01*
X57942842Y-123020295D01*
X57872568Y-123030399D01*
X57863718Y-123028802D01*
X57832453Y-123022001D01*
X57755331Y-123022001D01*
X57748510Y-123022371D01*
X57697648Y-123027895D01*
X57682396Y-123031521D01*
X57561946Y-123076676D01*
X57546351Y-123085214D01*
X57444276Y-123161715D01*
X57431715Y-123174276D01*
X57355214Y-123276351D01*
X57346676Y-123291946D01*
X57301522Y-123412394D01*
X57297895Y-123427649D01*
X57292369Y-123478514D01*
X57292000Y-123485328D01*
X57292000Y-123610066D01*
X57284335Y-123644108D01*
X57284000Y-123648352D01*
X57284000Y-123982885D01*
X57288475Y-123998124D01*
X57289865Y-123999329D01*
X57297548Y-124001000D01*
X57827885Y-124001000D01*
X57843124Y-123996525D01*
X57852290Y-123985947D01*
X57876404Y-123941786D01*
X57938716Y-123907761D01*
X58009532Y-123912825D01*
X58066368Y-123955372D01*
X58091179Y-124021892D01*
X58091500Y-124030881D01*
X58091500Y-124383000D01*
X58071498Y-124451121D01*
X58017842Y-124497614D01*
X57965500Y-124509000D01*
X57302115Y-124509000D01*
X57286876Y-124513475D01*
X57285671Y-124514865D01*
X57284000Y-124522548D01*
X57284000Y-124897885D01*
X57288475Y-124913124D01*
X57289865Y-124914329D01*
X57297548Y-124916000D01*
X57761331Y-124916000D01*
X57829452Y-124936002D01*
X57875945Y-124989658D01*
X57886049Y-125059932D01*
X57854967Y-125126311D01*
X57781970Y-125207382D01*
X57778670Y-125213098D01*
X57778667Y-125213102D01*
X57694366Y-125359118D01*
X57692194Y-125357864D01*
X57653532Y-125403347D01*
X57584409Y-125424000D01*
X57302115Y-125424000D01*
X57286876Y-125428475D01*
X57285671Y-125429865D01*
X57284000Y-125437548D01*
X57284000Y-126677924D01*
X57287973Y-126691455D01*
X57295768Y-126692575D01*
X57403521Y-126660862D01*
X57414889Y-126656269D01*
X57579154Y-126570393D01*
X57589415Y-126563679D01*
X57733873Y-126447532D01*
X57742632Y-126438954D01*
X57786947Y-126386142D01*
X57846057Y-126346815D01*
X57917044Y-126345689D01*
X57957530Y-126365197D01*
X58035612Y-126421927D01*
X58040954Y-126425808D01*
X58046982Y-126428492D01*
X58046984Y-126428493D01*
X58194985Y-126494387D01*
X58201016Y-126497072D01*
X58286706Y-126515286D01*
X58365939Y-126532128D01*
X58365943Y-126532128D01*
X58372396Y-126533500D01*
X58547604Y-126533500D01*
X58554057Y-126532128D01*
X58554061Y-126532128D01*
X58633294Y-126515286D01*
X58718984Y-126497072D01*
X58725015Y-126494387D01*
X58873016Y-126428493D01*
X58873018Y-126428492D01*
X58879046Y-126425808D01*
X59010800Y-126330083D01*
X59077666Y-126306225D01*
X59146818Y-126322305D01*
X59173955Y-126342923D01*
X59325418Y-126494387D01*
X59411567Y-126580536D01*
X59417420Y-126586801D01*
X59455441Y-126630385D01*
X59507731Y-126667136D01*
X59512973Y-126671028D01*
X59563284Y-126710476D01*
X59570203Y-126713600D01*
X59572495Y-126714988D01*
X59587167Y-126723357D01*
X59589527Y-126724622D01*
X59595741Y-126728990D01*
X59602820Y-126731750D01*
X59602822Y-126731751D01*
X59655277Y-126752202D01*
X59661346Y-126754753D01*
X59719575Y-126781045D01*
X59727048Y-126782430D01*
X59729614Y-126783234D01*
X59745837Y-126787855D01*
X59748429Y-126788520D01*
X59755511Y-126791282D01*
X59763046Y-126792274D01*
X59818863Y-126799622D01*
X59825379Y-126800654D01*
X59863772Y-126807770D01*
X59888188Y-126812295D01*
X59895768Y-126811858D01*
X59895769Y-126811858D01*
X59950382Y-126808709D01*
X59957635Y-126808500D01*
X62738086Y-126808500D01*
X62746656Y-126808792D01*
X62796774Y-126812209D01*
X62796778Y-126812209D01*
X62804350Y-126812725D01*
X62811827Y-126811420D01*
X62811828Y-126811420D01*
X62838306Y-126806799D01*
X62867301Y-126801738D01*
X62873819Y-126800777D01*
X62937240Y-126793102D01*
X62944341Y-126790419D01*
X62946950Y-126789778D01*
X62963260Y-126785315D01*
X62965796Y-126784550D01*
X62973282Y-126783243D01*
X63031798Y-126757556D01*
X63037902Y-126755065D01*
X63090546Y-126735173D01*
X63090547Y-126735172D01*
X63097654Y-126732487D01*
X63103917Y-126728183D01*
X63106283Y-126726946D01*
X63121095Y-126718701D01*
X63123349Y-126717368D01*
X63130303Y-126714315D01*
X63181000Y-126675413D01*
X63186330Y-126671541D01*
X63232718Y-126639661D01*
X63232723Y-126639656D01*
X63238979Y-126635357D01*
X63280434Y-126588829D01*
X63285414Y-126583554D01*
X63526044Y-126342924D01*
X63588356Y-126308898D01*
X63659171Y-126313963D01*
X63689200Y-126330083D01*
X63815612Y-126421927D01*
X63820954Y-126425808D01*
X63826982Y-126428492D01*
X63826984Y-126428493D01*
X63974985Y-126494387D01*
X63981016Y-126497072D01*
X64066706Y-126515286D01*
X64145939Y-126532128D01*
X64145943Y-126532128D01*
X64152396Y-126533500D01*
X64327604Y-126533500D01*
X64334057Y-126532128D01*
X64334061Y-126532128D01*
X64413294Y-126515286D01*
X64498984Y-126497072D01*
X64505015Y-126494387D01*
X64653016Y-126428493D01*
X64653018Y-126428492D01*
X64659046Y-126425808D01*
X64742113Y-126365456D01*
X64808978Y-126341599D01*
X64878130Y-126357679D01*
X64913815Y-126387757D01*
X64947397Y-126428932D01*
X64956041Y-126437637D01*
X65098856Y-126555784D01*
X65109027Y-126562644D01*
X65272076Y-126650804D01*
X65283381Y-126655556D01*
X65398692Y-126691250D01*
X65412795Y-126691456D01*
X65416000Y-126684701D01*
X65416000Y-125442115D01*
X65414659Y-125437548D01*
X65924000Y-125437548D01*
X65924000Y-126677924D01*
X65927973Y-126691455D01*
X65935768Y-126692575D01*
X66043521Y-126660862D01*
X66054889Y-126656269D01*
X66219154Y-126570393D01*
X66229415Y-126563679D01*
X66373873Y-126447532D01*
X66382632Y-126438954D01*
X66501778Y-126296961D01*
X66508708Y-126286841D01*
X66598002Y-126124415D01*
X66602834Y-126113142D01*
X66658880Y-125936462D01*
X66661430Y-125924468D01*
X66677607Y-125780239D01*
X66678000Y-125773215D01*
X66678000Y-125442115D01*
X66673525Y-125426876D01*
X66672135Y-125425671D01*
X66664452Y-125424000D01*
X65942115Y-125424000D01*
X65926876Y-125428475D01*
X65925671Y-125429865D01*
X65924000Y-125437548D01*
X65414659Y-125437548D01*
X65411525Y-125426876D01*
X65410135Y-125425671D01*
X65402452Y-125424000D01*
X65115591Y-125424000D01*
X65047470Y-125403998D01*
X65007853Y-125357837D01*
X65005634Y-125359118D01*
X64964555Y-125287966D01*
X69968257Y-125287966D01*
X69998565Y-125422446D01*
X70001645Y-125432275D01*
X70081770Y-125629603D01*
X70086413Y-125638794D01*
X70197694Y-125820388D01*
X70203777Y-125828699D01*
X70343213Y-125989667D01*
X70350580Y-125996883D01*
X70514434Y-126132916D01*
X70522881Y-126138831D01*
X70706756Y-126246279D01*
X70716042Y-126250729D01*
X70915001Y-126326703D01*
X70924899Y-126329579D01*
X71028250Y-126350606D01*
X71042299Y-126349410D01*
X71046000Y-126339065D01*
X71046000Y-125292115D01*
X71044659Y-125287548D01*
X71554000Y-125287548D01*
X71554000Y-126338517D01*
X71558064Y-126352359D01*
X71571478Y-126354393D01*
X71578184Y-126353534D01*
X71588262Y-126351392D01*
X71792255Y-126290191D01*
X71801842Y-126286433D01*
X71993095Y-126192739D01*
X72001945Y-126187464D01*
X72175328Y-126063792D01*
X72183200Y-126057139D01*
X72334052Y-125906812D01*
X72340730Y-125898965D01*
X72465003Y-125726020D01*
X72470313Y-125717183D01*
X72564670Y-125526267D01*
X72568469Y-125516672D01*
X72630377Y-125312910D01*
X72632555Y-125302837D01*
X72633986Y-125291962D01*
X72631775Y-125277778D01*
X72618617Y-125274000D01*
X71572115Y-125274000D01*
X71556876Y-125278475D01*
X71555671Y-125279865D01*
X71554000Y-125287548D01*
X71044659Y-125287548D01*
X71041525Y-125276876D01*
X71040135Y-125275671D01*
X71032452Y-125274000D01*
X69983225Y-125274000D01*
X69969694Y-125277973D01*
X69968257Y-125287966D01*
X64964555Y-125287966D01*
X64921333Y-125213102D01*
X64921330Y-125213098D01*
X64918030Y-125207382D01*
X64845033Y-125126311D01*
X64814316Y-125062303D01*
X64823079Y-124991850D01*
X64868542Y-124937318D01*
X64938669Y-124916000D01*
X65397885Y-124916000D01*
X65413124Y-124911525D01*
X65414329Y-124910135D01*
X65416000Y-124902452D01*
X65416000Y-124527115D01*
X65411525Y-124511876D01*
X65410135Y-124510671D01*
X65402452Y-124509000D01*
X64734500Y-124509000D01*
X64666379Y-124488998D01*
X64619886Y-124435342D01*
X64608500Y-124383000D01*
X64608500Y-124023137D01*
X64628502Y-123955016D01*
X64682158Y-123908523D01*
X64752432Y-123898419D01*
X64817012Y-123927913D01*
X64855396Y-123987639D01*
X64858475Y-123998124D01*
X64859865Y-123999329D01*
X64867548Y-124001000D01*
X65397885Y-124001000D01*
X65413124Y-123996525D01*
X65414329Y-123995135D01*
X65416000Y-123987452D01*
X65416000Y-123662076D01*
X65414010Y-123655299D01*
X65924000Y-123655299D01*
X65924000Y-124897885D01*
X65928475Y-124913124D01*
X65929865Y-124914329D01*
X65937548Y-124916000D01*
X66659885Y-124916000D01*
X66675124Y-124911525D01*
X66676329Y-124910135D01*
X66678000Y-124902452D01*
X66678000Y-124573343D01*
X66677699Y-124567195D01*
X66664188Y-124429397D01*
X66661805Y-124417362D01*
X66608233Y-124239924D01*
X66603559Y-124228584D01*
X66516540Y-124064923D01*
X66509751Y-124054706D01*
X66392603Y-123911067D01*
X66383959Y-123902363D01*
X66241144Y-123784216D01*
X66230973Y-123777356D01*
X66067924Y-123689196D01*
X66056619Y-123684444D01*
X65941308Y-123648750D01*
X65927205Y-123648544D01*
X65924000Y-123655299D01*
X65414010Y-123655299D01*
X65413103Y-123652210D01*
X65407999Y-123616712D01*
X65407999Y-123485331D01*
X65407629Y-123478510D01*
X65402105Y-123427648D01*
X65398479Y-123412396D01*
X65353324Y-123291946D01*
X65344786Y-123276351D01*
X65268285Y-123174276D01*
X65255724Y-123161715D01*
X65153649Y-123085214D01*
X65138054Y-123076676D01*
X65017606Y-123031522D01*
X65002351Y-123027895D01*
X64951486Y-123022369D01*
X64944672Y-123022000D01*
X64872115Y-123022000D01*
X64856876Y-123026475D01*
X64855671Y-123027865D01*
X64854000Y-123035548D01*
X64854000Y-123415208D01*
X64833998Y-123483329D01*
X64780342Y-123529822D01*
X64710068Y-123539926D01*
X64645488Y-123510432D01*
X64607104Y-123450706D01*
X64602737Y-123428815D01*
X64602599Y-123427540D01*
X64602598Y-123427536D01*
X64601745Y-123419684D01*
X64550615Y-123283295D01*
X64533673Y-123260689D01*
X64508826Y-123194185D01*
X64508500Y-123185126D01*
X64508500Y-120961151D01*
X64528502Y-120893030D01*
X64582158Y-120846537D01*
X64652432Y-120836433D01*
X64678414Y-120843052D01*
X64803168Y-120889448D01*
X64886995Y-120900633D01*
X64975980Y-120912507D01*
X64975984Y-120912507D01*
X64982961Y-120913438D01*
X64989972Y-120912800D01*
X64989976Y-120912800D01*
X65132459Y-120899832D01*
X65163600Y-120896998D01*
X65170302Y-120894820D01*
X65170304Y-120894820D01*
X65329409Y-120843124D01*
X65329412Y-120843123D01*
X65336108Y-120840947D01*
X65491912Y-120748069D01*
X65623266Y-120622982D01*
X65723643Y-120471902D01*
X65768204Y-120354595D01*
X65771372Y-120346256D01*
X65800065Y-120301905D01*
X67956565Y-118145405D01*
X68018877Y-118111379D01*
X68045660Y-118108500D01*
X69815500Y-118108500D01*
X69883621Y-118128502D01*
X69930114Y-118182158D01*
X69941500Y-118234500D01*
X69941500Y-118298134D01*
X69948255Y-118360316D01*
X69999385Y-118496705D01*
X70086739Y-118613261D01*
X70203295Y-118700615D01*
X70211704Y-118703767D01*
X70211705Y-118703768D01*
X70320451Y-118744535D01*
X70377216Y-118787176D01*
X70401916Y-118853738D01*
X70386709Y-118923087D01*
X70367316Y-118949568D01*
X70240629Y-119082138D01*
X70114743Y-119266680D01*
X70083500Y-119333987D01*
X70043024Y-119421187D01*
X70020688Y-119469305D01*
X69960989Y-119684570D01*
X69937251Y-119906695D01*
X69937548Y-119911848D01*
X69937548Y-119911851D01*
X69946528Y-120067585D01*
X69950110Y-120129715D01*
X69951247Y-120134761D01*
X69951248Y-120134767D01*
X69971119Y-120222939D01*
X69999222Y-120347639D01*
X70083266Y-120554616D01*
X70199987Y-120745088D01*
X70346250Y-120913938D01*
X70518126Y-121056632D01*
X70587990Y-121097457D01*
X70591445Y-121099476D01*
X70640169Y-121151114D01*
X70653240Y-121220897D01*
X70626509Y-121286669D01*
X70586055Y-121320027D01*
X70573607Y-121326507D01*
X70569474Y-121329610D01*
X70569471Y-121329612D01*
X70399100Y-121457530D01*
X70394965Y-121460635D01*
X70240629Y-121622138D01*
X70114743Y-121806680D01*
X70090701Y-121858474D01*
X70024125Y-122001901D01*
X70020688Y-122009305D01*
X69960989Y-122224570D01*
X69937251Y-122446695D01*
X69937548Y-122451848D01*
X69937548Y-122451851D01*
X69943011Y-122546590D01*
X69950110Y-122669715D01*
X69951247Y-122674761D01*
X69951248Y-122674767D01*
X69956467Y-122697925D01*
X69999222Y-122887639D01*
X70083266Y-123094616D01*
X70124384Y-123161715D01*
X70164453Y-123227101D01*
X70199987Y-123285088D01*
X70346250Y-123453938D01*
X70518126Y-123596632D01*
X70591955Y-123639774D01*
X70640679Y-123691412D01*
X70653750Y-123761195D01*
X70627019Y-123826967D01*
X70586562Y-123860327D01*
X70578457Y-123864546D01*
X70569738Y-123870036D01*
X70399433Y-123997905D01*
X70391726Y-124004748D01*
X70244590Y-124158717D01*
X70238104Y-124166727D01*
X70118098Y-124342649D01*
X70113000Y-124351623D01*
X70023338Y-124544783D01*
X70019775Y-124554470D01*
X69964389Y-124754183D01*
X69965912Y-124762607D01*
X69978292Y-124766000D01*
X72618344Y-124766000D01*
X72631875Y-124762027D01*
X72633180Y-124752947D01*
X72591214Y-124585875D01*
X72587894Y-124576124D01*
X72502972Y-124380814D01*
X72498105Y-124371739D01*
X72382426Y-124192926D01*
X72376136Y-124184757D01*
X72232806Y-124027240D01*
X72225273Y-124020215D01*
X72058139Y-123888222D01*
X72049556Y-123882520D01*
X72012602Y-123862120D01*
X71962631Y-123811687D01*
X71947859Y-123742245D01*
X71972975Y-123675839D01*
X72000327Y-123649232D01*
X72055236Y-123610066D01*
X72179860Y-123521173D01*
X72215828Y-123485331D01*
X72289129Y-123412285D01*
X72338096Y-123363489D01*
X72342990Y-123356679D01*
X72465435Y-123186277D01*
X72468453Y-123182077D01*
X72472309Y-123174276D01*
X72565136Y-122986453D01*
X72565137Y-122986451D01*
X72567430Y-122981811D01*
X72632370Y-122768069D01*
X72661529Y-122546590D01*
X72662224Y-122518148D01*
X72663074Y-122483365D01*
X72663074Y-122483361D01*
X72663156Y-122480000D01*
X72644852Y-122257361D01*
X72637906Y-122229707D01*
X72621702Y-122165195D01*
X72624506Y-122094254D01*
X72665219Y-122036091D01*
X72730915Y-122009172D01*
X72743906Y-122008500D01*
X85851864Y-122008500D01*
X85868307Y-122009578D01*
X85900000Y-122013750D01*
X85908189Y-122012672D01*
X85939874Y-122008501D01*
X85939884Y-122008500D01*
X85939885Y-122008500D01*
X85969433Y-122004610D01*
X86039457Y-121995391D01*
X86050664Y-121993916D01*
X86050666Y-121993915D01*
X86058851Y-121992838D01*
X86206876Y-121931524D01*
X86216222Y-121924353D01*
X86302072Y-121858477D01*
X86302075Y-121858474D01*
X86327434Y-121839015D01*
X86333987Y-121833987D01*
X86342768Y-121822544D01*
X86353452Y-121808621D01*
X86364319Y-121796230D01*
X88615143Y-119545405D01*
X88677455Y-119511380D01*
X88704238Y-119508500D01*
X90610156Y-119508500D01*
X90678277Y-119528502D01*
X90724770Y-119582158D01*
X90734874Y-119652432D01*
X90705380Y-119717012D01*
X90680158Y-119739265D01*
X90495395Y-119862719D01*
X90495390Y-119862723D01*
X90491964Y-119865012D01*
X90264496Y-120064496D01*
X90065012Y-120291964D01*
X90062723Y-120295390D01*
X90062719Y-120295395D01*
X90028735Y-120346256D01*
X89896925Y-120543524D01*
X89895101Y-120547223D01*
X89895098Y-120547228D01*
X89855344Y-120627841D01*
X89763111Y-120814872D01*
X89761786Y-120818777D01*
X89761785Y-120818778D01*
X89680159Y-121059242D01*
X89665860Y-121101364D01*
X89665057Y-121105403D01*
X89665055Y-121105409D01*
X89621076Y-121326507D01*
X89606836Y-121398099D01*
X89606567Y-121402210D01*
X89606566Y-121402214D01*
X89594681Y-121583548D01*
X89587048Y-121700000D01*
X89587318Y-121704119D01*
X89606313Y-121993916D01*
X89606836Y-122001901D01*
X89607640Y-122005941D01*
X89607640Y-122005944D01*
X89658677Y-122262522D01*
X89665860Y-122298636D01*
X89667185Y-122302540D01*
X89667186Y-122302543D01*
X89722658Y-122465958D01*
X89763111Y-122585128D01*
X89818734Y-122697921D01*
X89862452Y-122786571D01*
X89896925Y-122856476D01*
X89920945Y-122892425D01*
X90058988Y-123099020D01*
X90065012Y-123108036D01*
X90264496Y-123335504D01*
X90491964Y-123534988D01*
X90495390Y-123537277D01*
X90495395Y-123537281D01*
X90661914Y-123648545D01*
X90743524Y-123703075D01*
X90747223Y-123704899D01*
X90747228Y-123704902D01*
X90845991Y-123753606D01*
X91014872Y-123836889D01*
X91018777Y-123838214D01*
X91018778Y-123838215D01*
X91297457Y-123932814D01*
X91297460Y-123932815D01*
X91301364Y-123934140D01*
X91305403Y-123934943D01*
X91305409Y-123934945D01*
X91594056Y-123992360D01*
X91594059Y-123992360D01*
X91598099Y-123993164D01*
X91602210Y-123993433D01*
X91602214Y-123993434D01*
X91895881Y-124012682D01*
X91900000Y-124012952D01*
X91904119Y-124012682D01*
X92197786Y-123993434D01*
X92197790Y-123993433D01*
X92201901Y-123993164D01*
X92205941Y-123992360D01*
X92205944Y-123992360D01*
X92494591Y-123934945D01*
X92494597Y-123934943D01*
X92498636Y-123934140D01*
X92502540Y-123932815D01*
X92502543Y-123932814D01*
X92781222Y-123838215D01*
X92781223Y-123838214D01*
X92785128Y-123836889D01*
X92954009Y-123753606D01*
X93052772Y-123704902D01*
X93052777Y-123704899D01*
X93056476Y-123703075D01*
X93138086Y-123648545D01*
X93304605Y-123537281D01*
X93304610Y-123537277D01*
X93308036Y-123534988D01*
X93535504Y-123335504D01*
X93734988Y-123108036D01*
X93741013Y-123099020D01*
X93879055Y-122892425D01*
X93903075Y-122856476D01*
X93937549Y-122786571D01*
X93981266Y-122697921D01*
X94036889Y-122585128D01*
X94077342Y-122465958D01*
X94132814Y-122302543D01*
X94132815Y-122302540D01*
X94134140Y-122298636D01*
X94141324Y-122262522D01*
X94192360Y-122005944D01*
X94192360Y-122005941D01*
X94193164Y-122001901D01*
X94193688Y-121993916D01*
X94212682Y-121704119D01*
X94212952Y-121700000D01*
X94205319Y-121583548D01*
X94193434Y-121402214D01*
X94193433Y-121402210D01*
X94193164Y-121398099D01*
X94178924Y-121326507D01*
X94134945Y-121105409D01*
X94134943Y-121105403D01*
X94134140Y-121101364D01*
X94119842Y-121059242D01*
X94038215Y-120818778D01*
X94038214Y-120818777D01*
X94036889Y-120814872D01*
X93944656Y-120627841D01*
X93904902Y-120547228D01*
X93904899Y-120547223D01*
X93903075Y-120543524D01*
X93771265Y-120346256D01*
X93737281Y-120295395D01*
X93737277Y-120295390D01*
X93734988Y-120291964D01*
X93535504Y-120064496D01*
X93308036Y-119865012D01*
X93304610Y-119862723D01*
X93304605Y-119862719D01*
X93119842Y-119739265D01*
X93074314Y-119684788D01*
X93065466Y-119614345D01*
X93096107Y-119550301D01*
X93156509Y-119512990D01*
X93189844Y-119508500D01*
X94208664Y-119508500D01*
X94225107Y-119509578D01*
X94256800Y-119513750D01*
X94264989Y-119512672D01*
X94296674Y-119508501D01*
X94296684Y-119508500D01*
X94296685Y-119508500D01*
X94396257Y-119495391D01*
X94407464Y-119493916D01*
X94407466Y-119493915D01*
X94415651Y-119492838D01*
X94563676Y-119431524D01*
X94577148Y-119421187D01*
X94658872Y-119358477D01*
X94658875Y-119358474D01*
X94661461Y-119356490D01*
X94690787Y-119333987D01*
X94699831Y-119322201D01*
X94710252Y-119308621D01*
X94721119Y-119296230D01*
X95889434Y-118127915D01*
X95901825Y-118117048D01*
X95920637Y-118102613D01*
X95927187Y-118097587D01*
X95951674Y-118065675D01*
X95951678Y-118065671D01*
X96024724Y-117970476D01*
X96086038Y-117822451D01*
X96106951Y-117663600D01*
X96102778Y-117631901D01*
X96101700Y-117615456D01*
X96101700Y-117104239D01*
X96121702Y-117036118D01*
X96138605Y-117015144D01*
X97958343Y-115195405D01*
X98020655Y-115161380D01*
X98047438Y-115158500D01*
X98648134Y-115158500D01*
X98710316Y-115151745D01*
X98846705Y-115100615D01*
X98853892Y-115095229D01*
X98861760Y-115090921D01*
X98862738Y-115092706D01*
X98918319Y-115071942D01*
X98987701Y-115086997D01*
X99037930Y-115137172D01*
X99053374Y-115197372D01*
X99070829Y-124221545D01*
X99071397Y-124515183D01*
X99051527Y-124583343D01*
X99044582Y-124593134D01*
X99011224Y-124635713D01*
X98988306Y-124664965D01*
X98986339Y-124668219D01*
X98848956Y-124895477D01*
X98848951Y-124895486D01*
X98846986Y-124898737D01*
X98845426Y-124902202D01*
X98845425Y-124902205D01*
X98774438Y-125059932D01*
X98734875Y-125147839D01*
X98653606Y-125408638D01*
X98652920Y-125412383D01*
X98652918Y-125412390D01*
X98649716Y-125429865D01*
X98604366Y-125677331D01*
X98604137Y-125681121D01*
X98604136Y-125681127D01*
X98589524Y-125922703D01*
X98588254Y-125934477D01*
X98588196Y-125934853D01*
X98586814Y-125943730D01*
X98587978Y-125952632D01*
X98587978Y-125952635D01*
X98590936Y-125975251D01*
X98592000Y-125991589D01*
X98592000Y-131566000D01*
X98571998Y-131634121D01*
X98518342Y-131680614D01*
X98466000Y-131692000D01*
X35034000Y-131692000D01*
X34965879Y-131671998D01*
X34919386Y-131618342D01*
X34908000Y-131566000D01*
X34908000Y-129617548D01*
X56022000Y-129617548D01*
X56022000Y-129696657D01*
X56022301Y-129702805D01*
X56035812Y-129840603D01*
X56038195Y-129852638D01*
X56091767Y-130030076D01*
X56096441Y-130041416D01*
X56183460Y-130205077D01*
X56190249Y-130215294D01*
X56307397Y-130358933D01*
X56316041Y-130367637D01*
X56458856Y-130485784D01*
X56469027Y-130492644D01*
X56632076Y-130580804D01*
X56643381Y-130585556D01*
X56758692Y-130621250D01*
X56772795Y-130621456D01*
X56776000Y-130614701D01*
X56776000Y-129622115D01*
X56774659Y-129617548D01*
X57284000Y-129617548D01*
X57284000Y-130607924D01*
X57287973Y-130621455D01*
X57295768Y-130622575D01*
X57403521Y-130590862D01*
X57414889Y-130586269D01*
X57579154Y-130500393D01*
X57589415Y-130493679D01*
X57733873Y-130377532D01*
X57742632Y-130368954D01*
X57861778Y-130226961D01*
X57868708Y-130216841D01*
X57958002Y-130054415D01*
X57962834Y-130043142D01*
X58018880Y-129866462D01*
X58021430Y-129854468D01*
X58037607Y-129710239D01*
X58038000Y-129703215D01*
X58038000Y-129622115D01*
X58036659Y-129617548D01*
X64662000Y-129617548D01*
X64662000Y-129696657D01*
X64662301Y-129702805D01*
X64675812Y-129840603D01*
X64678195Y-129852638D01*
X64731767Y-130030076D01*
X64736441Y-130041416D01*
X64823460Y-130205077D01*
X64830249Y-130215294D01*
X64947397Y-130358933D01*
X64956041Y-130367637D01*
X65098856Y-130485784D01*
X65109027Y-130492644D01*
X65272076Y-130580804D01*
X65283381Y-130585556D01*
X65398692Y-130621250D01*
X65412795Y-130621456D01*
X65416000Y-130614701D01*
X65416000Y-129622115D01*
X65414659Y-129617548D01*
X65924000Y-129617548D01*
X65924000Y-130607924D01*
X65927973Y-130621455D01*
X65935768Y-130622575D01*
X66043521Y-130590862D01*
X66054889Y-130586269D01*
X66219154Y-130500393D01*
X66229415Y-130493679D01*
X66373873Y-130377532D01*
X66382632Y-130368954D01*
X66501778Y-130226961D01*
X66508708Y-130216841D01*
X66598002Y-130054415D01*
X66602834Y-130043142D01*
X66658880Y-129866462D01*
X66661430Y-129854468D01*
X66677607Y-129710239D01*
X66678000Y-129703215D01*
X66678000Y-129622115D01*
X66673525Y-129606876D01*
X66672135Y-129605671D01*
X66664452Y-129604000D01*
X65942115Y-129604000D01*
X65926876Y-129608475D01*
X65925671Y-129609865D01*
X65924000Y-129617548D01*
X65414659Y-129617548D01*
X65411525Y-129606876D01*
X65410135Y-129605671D01*
X65402452Y-129604000D01*
X64680115Y-129604000D01*
X64664876Y-129608475D01*
X64663671Y-129609865D01*
X64662000Y-129617548D01*
X58036659Y-129617548D01*
X58033525Y-129606876D01*
X58032135Y-129605671D01*
X58024452Y-129604000D01*
X57302115Y-129604000D01*
X57286876Y-129608475D01*
X57285671Y-129609865D01*
X57284000Y-129617548D01*
X56774659Y-129617548D01*
X56771525Y-129606876D01*
X56770135Y-129605671D01*
X56762452Y-129604000D01*
X56040115Y-129604000D01*
X56024876Y-129608475D01*
X56023671Y-129609865D01*
X56022000Y-129617548D01*
X34908000Y-129617548D01*
X34908000Y-128996785D01*
X56022000Y-128996785D01*
X56022000Y-129077885D01*
X56026475Y-129093124D01*
X56027865Y-129094329D01*
X56035548Y-129096000D01*
X56757885Y-129096000D01*
X56773124Y-129091525D01*
X56774329Y-129090135D01*
X56776000Y-129082452D01*
X56776000Y-128092076D01*
X56774010Y-128085299D01*
X57284000Y-128085299D01*
X57284000Y-129077885D01*
X57288475Y-129093124D01*
X57289865Y-129094329D01*
X57297548Y-129096000D01*
X58019885Y-129096000D01*
X58035124Y-129091525D01*
X58036329Y-129090135D01*
X58038000Y-129082452D01*
X58038000Y-129003343D01*
X58037699Y-128997195D01*
X58037659Y-128996785D01*
X64662000Y-128996785D01*
X64662000Y-129077885D01*
X64666475Y-129093124D01*
X64667865Y-129094329D01*
X64675548Y-129096000D01*
X65397885Y-129096000D01*
X65413124Y-129091525D01*
X65414329Y-129090135D01*
X65416000Y-129082452D01*
X65416000Y-128092076D01*
X65414010Y-128085299D01*
X65924000Y-128085299D01*
X65924000Y-129077885D01*
X65928475Y-129093124D01*
X65929865Y-129094329D01*
X65937548Y-129096000D01*
X66659885Y-129096000D01*
X66675124Y-129091525D01*
X66676329Y-129090135D01*
X66678000Y-129082452D01*
X66678000Y-129003343D01*
X66677699Y-128997195D01*
X66664188Y-128859397D01*
X66661805Y-128847362D01*
X66608233Y-128669924D01*
X66603559Y-128658584D01*
X66516540Y-128494923D01*
X66509751Y-128484706D01*
X66392603Y-128341067D01*
X66383959Y-128332363D01*
X66241144Y-128214216D01*
X66230973Y-128207356D01*
X66067924Y-128119196D01*
X66056619Y-128114444D01*
X65941308Y-128078750D01*
X65927205Y-128078544D01*
X65924000Y-128085299D01*
X65414010Y-128085299D01*
X65412027Y-128078545D01*
X65404232Y-128077425D01*
X65296479Y-128109138D01*
X65285111Y-128113731D01*
X65120846Y-128199607D01*
X65110585Y-128206321D01*
X64966127Y-128322468D01*
X64957368Y-128331046D01*
X64838222Y-128473039D01*
X64831292Y-128483159D01*
X64741998Y-128645585D01*
X64737166Y-128656858D01*
X64681120Y-128833538D01*
X64678570Y-128845532D01*
X64662393Y-128989761D01*
X64662000Y-128996785D01*
X58037659Y-128996785D01*
X58024188Y-128859397D01*
X58021805Y-128847362D01*
X57968233Y-128669924D01*
X57963559Y-128658584D01*
X57876540Y-128494923D01*
X57869751Y-128484706D01*
X57752603Y-128341067D01*
X57743959Y-128332363D01*
X57601144Y-128214216D01*
X57590973Y-128207356D01*
X57427924Y-128119196D01*
X57416619Y-128114444D01*
X57301308Y-128078750D01*
X57287205Y-128078544D01*
X57284000Y-128085299D01*
X56774010Y-128085299D01*
X56772027Y-128078545D01*
X56764232Y-128077425D01*
X56656479Y-128109138D01*
X56645111Y-128113731D01*
X56480846Y-128199607D01*
X56470585Y-128206321D01*
X56326127Y-128322468D01*
X56317368Y-128331046D01*
X56198222Y-128473039D01*
X56191292Y-128483159D01*
X56101998Y-128645585D01*
X56097166Y-128656858D01*
X56041120Y-128833538D01*
X56038570Y-128845532D01*
X56022393Y-128989761D01*
X56022000Y-128996785D01*
X34908000Y-128996785D01*
X34908000Y-126003207D01*
X34909746Y-125982303D01*
X34912264Y-125967335D01*
X34913071Y-125962539D01*
X34913224Y-125950000D01*
X34912056Y-125941843D01*
X34911013Y-125931585D01*
X34895864Y-125681129D01*
X34895863Y-125681125D01*
X34895634Y-125677331D01*
X34875269Y-125566201D01*
X34851692Y-125437548D01*
X56022000Y-125437548D01*
X56022000Y-125766657D01*
X56022301Y-125772805D01*
X56035812Y-125910603D01*
X56038195Y-125922638D01*
X56091767Y-126100076D01*
X56096441Y-126111416D01*
X56183460Y-126275077D01*
X56190249Y-126285294D01*
X56307397Y-126428933D01*
X56316041Y-126437637D01*
X56458856Y-126555784D01*
X56469027Y-126562644D01*
X56632076Y-126650804D01*
X56643381Y-126655556D01*
X56758692Y-126691250D01*
X56772795Y-126691456D01*
X56776000Y-126684701D01*
X56776000Y-125442115D01*
X56771525Y-125426876D01*
X56770135Y-125425671D01*
X56762452Y-125424000D01*
X56040115Y-125424000D01*
X56024876Y-125428475D01*
X56023671Y-125429865D01*
X56022000Y-125437548D01*
X34851692Y-125437548D01*
X34847082Y-125412390D01*
X34847080Y-125412383D01*
X34846394Y-125408638D01*
X34765125Y-125147839D01*
X34725562Y-125059932D01*
X34654575Y-124902205D01*
X34654574Y-124902202D01*
X34653014Y-124898737D01*
X34651049Y-124895486D01*
X34651044Y-124895477D01*
X34513661Y-124668219D01*
X34511694Y-124664965D01*
X34488777Y-124635713D01*
X34434775Y-124566785D01*
X56022000Y-124566785D01*
X56022000Y-124897885D01*
X56026475Y-124913124D01*
X56027865Y-124914329D01*
X56035548Y-124916000D01*
X56757885Y-124916000D01*
X56773124Y-124911525D01*
X56774329Y-124910135D01*
X56776000Y-124902452D01*
X56776000Y-123662076D01*
X56772027Y-123648545D01*
X56764232Y-123647425D01*
X56656479Y-123679138D01*
X56645111Y-123683731D01*
X56480846Y-123769607D01*
X56470585Y-123776321D01*
X56326127Y-123892468D01*
X56317368Y-123901046D01*
X56198222Y-124043039D01*
X56191292Y-124053159D01*
X56101998Y-124215585D01*
X56097166Y-124226858D01*
X56041120Y-124403538D01*
X56038570Y-124415532D01*
X56022393Y-124559761D01*
X56022000Y-124566785D01*
X34434775Y-124566785D01*
X34345579Y-124452935D01*
X34345576Y-124452932D01*
X34343226Y-124449932D01*
X34150068Y-124256774D01*
X34128561Y-124239924D01*
X33938026Y-124090649D01*
X33938023Y-124090647D01*
X33935035Y-124088306D01*
X33860154Y-124043039D01*
X33704523Y-123948956D01*
X33704514Y-123948951D01*
X33701263Y-123946986D01*
X33672721Y-123934140D01*
X33455632Y-123836437D01*
X33455630Y-123836436D01*
X33452161Y-123834875D01*
X33191362Y-123753606D01*
X33187617Y-123752920D01*
X33187610Y-123752918D01*
X33024302Y-123722991D01*
X32922669Y-123704366D01*
X32918875Y-123704137D01*
X32918871Y-123704136D01*
X32824775Y-123698445D01*
X32685021Y-123689991D01*
X32671735Y-123688476D01*
X32662539Y-123686929D01*
X32656184Y-123686851D01*
X32654859Y-123686835D01*
X32654855Y-123686835D01*
X32650000Y-123686776D01*
X32622412Y-123690727D01*
X32604549Y-123692000D01*
X27034000Y-123692000D01*
X26965879Y-123671998D01*
X26919386Y-123618342D01*
X26908000Y-123566000D01*
X26908000Y-121700000D01*
X39287048Y-121700000D01*
X39287318Y-121704119D01*
X39306313Y-121993916D01*
X39306836Y-122001901D01*
X39307640Y-122005941D01*
X39307640Y-122005944D01*
X39358677Y-122262522D01*
X39365860Y-122298636D01*
X39367185Y-122302540D01*
X39367186Y-122302543D01*
X39422658Y-122465958D01*
X39463111Y-122585128D01*
X39518734Y-122697921D01*
X39562452Y-122786571D01*
X39596925Y-122856476D01*
X39620945Y-122892425D01*
X39758988Y-123099020D01*
X39765012Y-123108036D01*
X39964496Y-123335504D01*
X40191964Y-123534988D01*
X40195390Y-123537277D01*
X40195395Y-123537281D01*
X40361914Y-123648545D01*
X40443524Y-123703075D01*
X40447223Y-123704899D01*
X40447228Y-123704902D01*
X40545991Y-123753606D01*
X40714872Y-123836889D01*
X40718777Y-123838214D01*
X40718778Y-123838215D01*
X40997457Y-123932814D01*
X40997460Y-123932815D01*
X41001364Y-123934140D01*
X41005403Y-123934943D01*
X41005409Y-123934945D01*
X41294056Y-123992360D01*
X41294059Y-123992360D01*
X41298099Y-123993164D01*
X41302210Y-123993433D01*
X41302214Y-123993434D01*
X41595881Y-124012682D01*
X41600000Y-124012952D01*
X41604119Y-124012682D01*
X41897786Y-123993434D01*
X41897790Y-123993433D01*
X41901901Y-123993164D01*
X41905941Y-123992360D01*
X41905944Y-123992360D01*
X42194591Y-123934945D01*
X42194597Y-123934943D01*
X42198636Y-123934140D01*
X42202540Y-123932815D01*
X42202543Y-123932814D01*
X42481222Y-123838215D01*
X42481223Y-123838214D01*
X42485128Y-123836889D01*
X42654009Y-123753606D01*
X42752772Y-123704902D01*
X42752777Y-123704899D01*
X42756476Y-123703075D01*
X42838086Y-123648545D01*
X43004605Y-123537281D01*
X43004610Y-123537277D01*
X43008036Y-123534988D01*
X43235504Y-123335504D01*
X43434988Y-123108036D01*
X43441013Y-123099020D01*
X43579055Y-122892425D01*
X43603075Y-122856476D01*
X43637549Y-122786571D01*
X43681266Y-122697921D01*
X43736889Y-122585128D01*
X43777342Y-122465958D01*
X43832814Y-122302543D01*
X43832815Y-122302540D01*
X43834140Y-122298636D01*
X43841324Y-122262522D01*
X43892360Y-122005944D01*
X43892360Y-122005941D01*
X43893164Y-122001901D01*
X43893688Y-121993916D01*
X43912682Y-121704119D01*
X43912952Y-121700000D01*
X43905319Y-121583548D01*
X43893434Y-121402214D01*
X43893433Y-121402210D01*
X43893164Y-121398099D01*
X43878924Y-121326507D01*
X43834945Y-121105409D01*
X43834943Y-121105403D01*
X43834140Y-121101364D01*
X43819842Y-121059242D01*
X43738215Y-120818778D01*
X43738214Y-120818777D01*
X43736889Y-120814872D01*
X43644656Y-120627841D01*
X43604902Y-120547228D01*
X43604899Y-120547223D01*
X43603075Y-120543524D01*
X43471265Y-120346256D01*
X43437281Y-120295395D01*
X43437277Y-120295390D01*
X43434988Y-120291964D01*
X43235504Y-120064496D01*
X43008036Y-119865012D01*
X43004610Y-119862723D01*
X43004605Y-119862719D01*
X42759909Y-119699219D01*
X42756476Y-119696925D01*
X42752777Y-119695101D01*
X42752772Y-119695098D01*
X42589020Y-119614345D01*
X42485128Y-119563111D01*
X42432968Y-119545405D01*
X42202543Y-119467186D01*
X42202540Y-119467185D01*
X42198636Y-119465860D01*
X42194597Y-119465057D01*
X42194591Y-119465055D01*
X41905944Y-119407640D01*
X41905941Y-119407640D01*
X41901901Y-119406836D01*
X41897790Y-119406567D01*
X41897786Y-119406566D01*
X41604119Y-119387318D01*
X41600000Y-119387048D01*
X41595881Y-119387318D01*
X41302214Y-119406566D01*
X41302210Y-119406567D01*
X41298099Y-119406836D01*
X41294059Y-119407640D01*
X41294056Y-119407640D01*
X41005409Y-119465055D01*
X41005403Y-119465057D01*
X41001364Y-119465860D01*
X40997460Y-119467185D01*
X40997457Y-119467186D01*
X40767032Y-119545405D01*
X40714872Y-119563111D01*
X40610980Y-119614345D01*
X40447228Y-119695098D01*
X40447223Y-119695101D01*
X40443524Y-119696925D01*
X40440091Y-119699219D01*
X40195395Y-119862719D01*
X40195390Y-119862723D01*
X40191964Y-119865012D01*
X39964496Y-120064496D01*
X39765012Y-120291964D01*
X39762723Y-120295390D01*
X39762719Y-120295395D01*
X39728735Y-120346256D01*
X39596925Y-120543524D01*
X39595101Y-120547223D01*
X39595098Y-120547228D01*
X39555344Y-120627841D01*
X39463111Y-120814872D01*
X39461786Y-120818777D01*
X39461785Y-120818778D01*
X39380159Y-121059242D01*
X39365860Y-121101364D01*
X39365057Y-121105403D01*
X39365055Y-121105409D01*
X39321076Y-121326507D01*
X39306836Y-121398099D01*
X39306567Y-121402210D01*
X39306566Y-121402214D01*
X39294681Y-121583548D01*
X39287048Y-121700000D01*
X26908000Y-121700000D01*
X26908000Y-110827606D01*
X32671632Y-110827606D01*
X32688378Y-111118023D01*
X32689203Y-111122228D01*
X32689204Y-111122236D01*
X32713445Y-111245793D01*
X32744382Y-111403481D01*
X32745769Y-111407532D01*
X32745770Y-111407536D01*
X32837220Y-111674641D01*
X32837224Y-111674650D01*
X32838609Y-111678696D01*
X32883944Y-111768834D01*
X32963178Y-111926372D01*
X32969316Y-111938577D01*
X33038805Y-112039684D01*
X33130533Y-112173149D01*
X33134083Y-112178315D01*
X33136970Y-112181488D01*
X33136971Y-112181489D01*
X33166336Y-112213761D01*
X33329862Y-112393473D01*
X33333151Y-112396223D01*
X33549738Y-112577319D01*
X33549743Y-112577323D01*
X33553030Y-112580071D01*
X33618058Y-112620863D01*
X33795817Y-112732371D01*
X33795821Y-112732373D01*
X33799457Y-112734654D01*
X34064584Y-112854363D01*
X34068703Y-112855583D01*
X34339391Y-112935765D01*
X34339396Y-112935766D01*
X34343504Y-112936983D01*
X34347738Y-112937631D01*
X34347743Y-112937632D01*
X34603635Y-112976789D01*
X34631056Y-112980985D01*
X34779176Y-112983312D01*
X34917629Y-112985487D01*
X34917635Y-112985487D01*
X34921920Y-112985554D01*
X35210712Y-112950607D01*
X35492090Y-112876789D01*
X35760846Y-112765466D01*
X35963576Y-112647000D01*
X36008304Y-112620863D01*
X36008305Y-112620862D01*
X36012007Y-112618699D01*
X36240926Y-112439204D01*
X36245121Y-112434876D01*
X36440383Y-112233380D01*
X36443366Y-112230302D01*
X36615583Y-111995858D01*
X36620883Y-111986097D01*
X36752338Y-111743986D01*
X36752339Y-111743984D01*
X36754388Y-111740210D01*
X36857213Y-111468090D01*
X36896439Y-111296824D01*
X36921200Y-111188713D01*
X36921201Y-111188708D01*
X36922157Y-111184533D01*
X36948016Y-110894785D01*
X36948485Y-110850000D01*
X36948316Y-110847519D01*
X36928991Y-110564051D01*
X36928990Y-110564045D01*
X36928699Y-110559774D01*
X36921596Y-110525472D01*
X36888121Y-110363830D01*
X36869709Y-110274919D01*
X36772605Y-110000705D01*
X36663225Y-109788785D01*
X36641149Y-109746014D01*
X36641149Y-109746013D01*
X36639184Y-109742207D01*
X36625765Y-109723113D01*
X36474378Y-109507713D01*
X36471915Y-109504208D01*
X36357553Y-109381140D01*
X36276815Y-109294255D01*
X36276812Y-109294252D01*
X36273894Y-109291112D01*
X36270578Y-109288398D01*
X36270575Y-109288395D01*
X36088432Y-109139313D01*
X36048784Y-109106861D01*
X35800752Y-108954867D01*
X35796835Y-108953148D01*
X35796832Y-108953146D01*
X35648310Y-108887950D01*
X35534386Y-108837941D01*
X35530258Y-108836765D01*
X35530255Y-108836764D01*
X35396742Y-108798732D01*
X35254616Y-108758246D01*
X35250374Y-108757642D01*
X35250368Y-108757641D01*
X34970870Y-108717863D01*
X34966619Y-108717258D01*
X34813232Y-108716455D01*
X34680009Y-108715757D01*
X34680003Y-108715757D01*
X34675723Y-108715735D01*
X34671479Y-108716294D01*
X34671475Y-108716294D01*
X34589739Y-108727055D01*
X34387313Y-108753705D01*
X34383173Y-108754838D01*
X34383171Y-108754838D01*
X34353204Y-108763036D01*
X34106724Y-108830465D01*
X34102776Y-108832149D01*
X33843100Y-108942910D01*
X33843096Y-108942912D01*
X33839148Y-108944596D01*
X33589538Y-109093985D01*
X33586187Y-109096669D01*
X33586185Y-109096671D01*
X33496144Y-109168807D01*
X33362511Y-109275867D01*
X33262611Y-109381140D01*
X33195841Y-109451501D01*
X33162269Y-109486878D01*
X32992517Y-109723113D01*
X32990513Y-109726898D01*
X32866352Y-109961399D01*
X32856397Y-109980200D01*
X32854925Y-109984223D01*
X32854923Y-109984227D01*
X32757901Y-110249351D01*
X32756426Y-110253382D01*
X32694456Y-110537604D01*
X32686404Y-110639907D01*
X32674284Y-110793916D01*
X32671632Y-110827606D01*
X26908000Y-110827606D01*
X26908000Y-100667606D01*
X32671632Y-100667606D01*
X32688378Y-100958023D01*
X32689203Y-100962228D01*
X32689204Y-100962236D01*
X32717367Y-101105784D01*
X32744382Y-101243481D01*
X32745769Y-101247532D01*
X32745770Y-101247536D01*
X32837220Y-101514641D01*
X32837224Y-101514650D01*
X32838609Y-101518696D01*
X32870910Y-101582919D01*
X32965661Y-101771309D01*
X32969316Y-101778577D01*
X33032107Y-101869938D01*
X33115654Y-101991500D01*
X33134083Y-102018315D01*
X33329862Y-102233473D01*
X33333151Y-102236223D01*
X33549738Y-102417319D01*
X33549743Y-102417323D01*
X33553030Y-102420071D01*
X33618058Y-102460863D01*
X33795817Y-102572371D01*
X33795821Y-102572373D01*
X33799457Y-102574654D01*
X34064584Y-102694363D01*
X34068703Y-102695583D01*
X34339391Y-102775765D01*
X34339396Y-102775766D01*
X34343504Y-102776983D01*
X34347738Y-102777631D01*
X34347743Y-102777632D01*
X34587631Y-102814340D01*
X34631056Y-102820985D01*
X34779176Y-102823312D01*
X34917629Y-102825487D01*
X34917635Y-102825487D01*
X34921920Y-102825554D01*
X35210712Y-102790607D01*
X35492090Y-102716789D01*
X35760846Y-102605466D01*
X36012007Y-102458699D01*
X36240926Y-102279204D01*
X36246707Y-102273239D01*
X36440383Y-102073380D01*
X36443366Y-102070302D01*
X36615583Y-101835858D01*
X36688428Y-101701694D01*
X36752338Y-101583986D01*
X36752339Y-101583984D01*
X36754388Y-101580210D01*
X36857213Y-101308090D01*
X36905915Y-101095449D01*
X36921200Y-101028713D01*
X36921201Y-101028708D01*
X36922157Y-101024533D01*
X36948016Y-100734785D01*
X36948197Y-100717553D01*
X36948459Y-100692485D01*
X36948459Y-100692484D01*
X36948485Y-100690000D01*
X36944717Y-100634729D01*
X36928991Y-100404051D01*
X36928990Y-100404045D01*
X36928699Y-100399774D01*
X36916968Y-100343124D01*
X36897258Y-100247951D01*
X36869709Y-100114919D01*
X36772605Y-99840705D01*
X36639184Y-99582207D01*
X36636228Y-99578000D01*
X36533360Y-99431635D01*
X36471915Y-99344208D01*
X36328103Y-99189448D01*
X36276815Y-99134255D01*
X36276812Y-99134252D01*
X36273894Y-99131112D01*
X36270578Y-99128398D01*
X36270575Y-99128395D01*
X36127835Y-99011564D01*
X36048784Y-98946861D01*
X35800752Y-98794867D01*
X35796835Y-98793148D01*
X35796832Y-98793146D01*
X35670257Y-98737584D01*
X35534386Y-98677941D01*
X35530258Y-98676765D01*
X35530255Y-98676764D01*
X35370150Y-98631157D01*
X35254616Y-98598246D01*
X35250374Y-98597642D01*
X35250368Y-98597641D01*
X34970870Y-98557863D01*
X34966619Y-98557258D01*
X34813232Y-98556455D01*
X34680009Y-98555757D01*
X34680003Y-98555757D01*
X34675723Y-98555735D01*
X34671479Y-98556294D01*
X34671475Y-98556294D01*
X34573750Y-98569160D01*
X34387313Y-98593705D01*
X34383173Y-98594838D01*
X34383171Y-98594838D01*
X34342077Y-98606080D01*
X34106724Y-98670465D01*
X34091956Y-98676764D01*
X33843100Y-98782910D01*
X33843096Y-98782912D01*
X33839148Y-98784596D01*
X33589538Y-98933985D01*
X33586187Y-98936669D01*
X33586185Y-98936671D01*
X33484515Y-99018124D01*
X33362511Y-99115867D01*
X33162269Y-99326878D01*
X32992517Y-99563113D01*
X32990513Y-99566898D01*
X32858949Y-99815381D01*
X32856397Y-99820200D01*
X32854925Y-99824223D01*
X32854923Y-99824227D01*
X32777157Y-100036732D01*
X32756426Y-100093382D01*
X32694456Y-100377604D01*
X32692711Y-100399774D01*
X32674220Y-100634729D01*
X32671632Y-100667606D01*
X26908000Y-100667606D01*
X26908000Y-91200000D01*
X39287048Y-91200000D01*
X39287318Y-91204119D01*
X39303236Y-91446971D01*
X39306836Y-91501901D01*
X39307640Y-91505941D01*
X39307640Y-91505944D01*
X39360633Y-91772356D01*
X39365860Y-91798636D01*
X39367185Y-91802540D01*
X39367186Y-91802543D01*
X39388156Y-91864319D01*
X39463111Y-92085128D01*
X39596925Y-92356476D01*
X39599219Y-92359909D01*
X39750670Y-92586571D01*
X39765012Y-92608036D01*
X39964496Y-92835504D01*
X40191964Y-93034988D01*
X40195390Y-93037277D01*
X40195395Y-93037281D01*
X40319584Y-93120261D01*
X40443524Y-93203075D01*
X40447223Y-93204899D01*
X40447228Y-93204902D01*
X40547996Y-93254595D01*
X40714872Y-93336889D01*
X40718777Y-93338214D01*
X40718778Y-93338215D01*
X40997457Y-93432814D01*
X40997460Y-93432815D01*
X41001364Y-93434140D01*
X41005403Y-93434943D01*
X41005409Y-93434945D01*
X41294056Y-93492360D01*
X41294059Y-93492360D01*
X41298099Y-93493164D01*
X41302210Y-93493433D01*
X41302214Y-93493434D01*
X41595881Y-93512682D01*
X41600000Y-93512952D01*
X41604119Y-93512682D01*
X41897786Y-93493434D01*
X41897790Y-93493433D01*
X41901901Y-93493164D01*
X41905941Y-93492360D01*
X41905944Y-93492360D01*
X42194591Y-93434945D01*
X42194597Y-93434943D01*
X42198636Y-93434140D01*
X42202540Y-93432815D01*
X42202543Y-93432814D01*
X42481222Y-93338215D01*
X42481223Y-93338214D01*
X42485128Y-93336889D01*
X42652004Y-93254595D01*
X42752772Y-93204902D01*
X42752777Y-93204899D01*
X42756476Y-93203075D01*
X42880416Y-93120261D01*
X43004605Y-93037281D01*
X43004610Y-93037277D01*
X43008036Y-93034988D01*
X43235504Y-92835504D01*
X43434988Y-92608036D01*
X43449331Y-92586571D01*
X43600781Y-92359909D01*
X43603075Y-92356476D01*
X43736889Y-92085128D01*
X43811844Y-91864319D01*
X43832814Y-91802543D01*
X43832815Y-91802540D01*
X43834140Y-91798636D01*
X43839368Y-91772356D01*
X43892360Y-91505944D01*
X43892360Y-91505941D01*
X43893164Y-91501901D01*
X43896765Y-91446971D01*
X43912682Y-91204119D01*
X43912952Y-91200000D01*
X43898247Y-90975647D01*
X43893434Y-90902214D01*
X43893433Y-90902210D01*
X43893164Y-90898099D01*
X43892360Y-90894056D01*
X43834945Y-90605409D01*
X43834943Y-90605403D01*
X43834140Y-90601364D01*
X43808500Y-90525829D01*
X43738215Y-90318778D01*
X43738214Y-90318777D01*
X43736889Y-90314872D01*
X43654573Y-90147951D01*
X43604902Y-90047228D01*
X43604899Y-90047223D01*
X43603075Y-90043524D01*
X43517866Y-89916000D01*
X43437281Y-89795395D01*
X43437277Y-89795390D01*
X43434988Y-89791964D01*
X43235504Y-89564496D01*
X43008036Y-89365012D01*
X43004610Y-89362723D01*
X43004605Y-89362719D01*
X42780640Y-89213071D01*
X42756476Y-89196925D01*
X42752777Y-89195101D01*
X42752772Y-89195098D01*
X42604612Y-89122034D01*
X42485128Y-89063111D01*
X42409330Y-89037381D01*
X42202543Y-88967186D01*
X42202540Y-88967185D01*
X42198636Y-88965860D01*
X42194597Y-88965057D01*
X42194591Y-88965055D01*
X41905944Y-88907640D01*
X41905941Y-88907640D01*
X41901901Y-88906836D01*
X41897790Y-88906567D01*
X41897786Y-88906566D01*
X41604119Y-88887318D01*
X41600000Y-88887048D01*
X41595881Y-88887318D01*
X41302214Y-88906566D01*
X41302210Y-88906567D01*
X41298099Y-88906836D01*
X41294059Y-88907640D01*
X41294056Y-88907640D01*
X41005409Y-88965055D01*
X41005403Y-88965057D01*
X41001364Y-88965860D01*
X40997460Y-88967185D01*
X40997457Y-88967186D01*
X40790670Y-89037381D01*
X40714872Y-89063111D01*
X40595388Y-89122034D01*
X40447228Y-89195098D01*
X40447223Y-89195101D01*
X40443524Y-89196925D01*
X40419360Y-89213071D01*
X40195395Y-89362719D01*
X40195390Y-89362723D01*
X40191964Y-89365012D01*
X39964496Y-89564496D01*
X39765012Y-89791964D01*
X39762723Y-89795390D01*
X39762719Y-89795395D01*
X39682134Y-89916000D01*
X39596925Y-90043524D01*
X39595101Y-90047223D01*
X39595098Y-90047228D01*
X39545427Y-90147951D01*
X39463111Y-90314872D01*
X39461786Y-90318777D01*
X39461785Y-90318778D01*
X39391501Y-90525829D01*
X39365860Y-90601364D01*
X39365057Y-90605403D01*
X39365055Y-90605409D01*
X39307640Y-90894056D01*
X39306836Y-90898099D01*
X39306567Y-90902210D01*
X39306566Y-90902214D01*
X39301753Y-90975647D01*
X39287048Y-91200000D01*
X26908000Y-91200000D01*
X26908000Y-89334000D01*
X26928002Y-89265879D01*
X26981658Y-89219386D01*
X27034000Y-89208000D01*
X32596793Y-89208000D01*
X32617697Y-89209746D01*
X32637461Y-89213071D01*
X32643627Y-89213146D01*
X32645135Y-89213165D01*
X32645140Y-89213165D01*
X32650000Y-89213224D01*
X32658157Y-89212056D01*
X32668409Y-89211014D01*
X32788439Y-89203753D01*
X32918871Y-89195864D01*
X32918875Y-89195863D01*
X32922669Y-89195634D01*
X33024302Y-89177009D01*
X33187610Y-89147082D01*
X33187617Y-89147080D01*
X33191362Y-89146394D01*
X33452161Y-89065125D01*
X33455632Y-89063563D01*
X33697795Y-88954575D01*
X33697798Y-88954574D01*
X33701263Y-88953014D01*
X33704514Y-88951049D01*
X33704523Y-88951044D01*
X33931781Y-88813661D01*
X33935035Y-88811694D01*
X33977910Y-88778104D01*
X34147065Y-88645579D01*
X34147068Y-88645576D01*
X34150068Y-88643226D01*
X34343226Y-88450068D01*
X34368998Y-88417173D01*
X34509351Y-88238026D01*
X34509353Y-88238023D01*
X34511694Y-88235035D01*
X34574457Y-88131212D01*
X34651044Y-88004523D01*
X34651049Y-88004514D01*
X34653014Y-88001263D01*
X34693521Y-87911261D01*
X34763563Y-87755632D01*
X34763564Y-87755630D01*
X34765125Y-87752161D01*
X34846394Y-87491362D01*
X34853929Y-87450249D01*
X34892810Y-87238080D01*
X34895634Y-87222669D01*
X34897610Y-87190011D01*
X34902111Y-87115588D01*
X34910009Y-86985021D01*
X34911525Y-86971726D01*
X34913071Y-86962539D01*
X34913224Y-86950000D01*
X34909273Y-86922412D01*
X34908000Y-86904549D01*
X34908000Y-82798685D01*
X46567000Y-82798685D01*
X46567000Y-82827885D01*
X46571475Y-82843124D01*
X46572865Y-82844329D01*
X46580548Y-82846000D01*
X47240385Y-82846000D01*
X47255624Y-82841525D01*
X47256829Y-82840135D01*
X47258500Y-82832452D01*
X47258500Y-82135115D01*
X47254025Y-82119876D01*
X47252635Y-82118671D01*
X47245679Y-82117158D01*
X47242218Y-82117337D01*
X47150979Y-82126804D01*
X47137583Y-82129697D01*
X46990313Y-82178830D01*
X46977134Y-82185004D01*
X46845486Y-82266470D01*
X46834085Y-82275506D01*
X46724702Y-82385080D01*
X46715690Y-82396491D01*
X46634447Y-82528291D01*
X46628303Y-82541468D01*
X46579421Y-82688843D01*
X46576555Y-82702210D01*
X46567328Y-82792270D01*
X46567000Y-82798685D01*
X34908000Y-82798685D01*
X34908000Y-81334000D01*
X34928002Y-81265879D01*
X34981658Y-81219386D01*
X35034000Y-81208000D01*
X61733173Y-81208000D01*
X61801294Y-81228002D01*
G37*
%TD.AperFunction*%
%TA.AperFunction,Conductor*%
G36*
X61996121Y-112541002D02*
G01*
X62042614Y-112594658D01*
X62054000Y-112647000D01*
X62054000Y-113572727D01*
X62033911Y-113640982D01*
X61975054Y-113732310D01*
X61975050Y-113732319D01*
X61971235Y-113738238D01*
X61968826Y-113744858D01*
X61968825Y-113744859D01*
X61911606Y-113902066D01*
X61909197Y-113908685D01*
X61886463Y-114088640D01*
X61904163Y-114269160D01*
X61906387Y-114275845D01*
X61951728Y-114412145D01*
X61954251Y-114483097D01*
X61950571Y-114495012D01*
X61912447Y-114599757D01*
X61909197Y-114608685D01*
X61886463Y-114788640D01*
X61904163Y-114969160D01*
X61961418Y-115141273D01*
X61965065Y-115147295D01*
X61965066Y-115147297D01*
X61986689Y-115183000D01*
X62055380Y-115296424D01*
X62060269Y-115301487D01*
X62060270Y-115301488D01*
X62123745Y-115367218D01*
X62181382Y-115426902D01*
X62333159Y-115526222D01*
X62339763Y-115528678D01*
X62339765Y-115528679D01*
X62496558Y-115586990D01*
X62496560Y-115586990D01*
X62503168Y-115589448D01*
X62586995Y-115600633D01*
X62675980Y-115612507D01*
X62675984Y-115612507D01*
X62682961Y-115613438D01*
X62689972Y-115612800D01*
X62689976Y-115612800D01*
X62832459Y-115599832D01*
X62863600Y-115596998D01*
X62870300Y-115594821D01*
X62870305Y-115594820D01*
X62926564Y-115576540D01*
X62997532Y-115574513D01*
X63058330Y-115611175D01*
X63089655Y-115674888D01*
X63091500Y-115696373D01*
X63091500Y-122895500D01*
X63071498Y-122963621D01*
X63017842Y-123010114D01*
X62965500Y-123021500D01*
X62901866Y-123021500D01*
X62898471Y-123021869D01*
X62898467Y-123021869D01*
X62872469Y-123024693D01*
X62863606Y-123025656D01*
X62836394Y-123025656D01*
X62798134Y-123021500D01*
X62798277Y-123020183D01*
X62736380Y-122998325D01*
X62693011Y-122942460D01*
X62692838Y-122941149D01*
X62631524Y-122793124D01*
X62558478Y-122697929D01*
X62558474Y-122697925D01*
X62552185Y-122689729D01*
X62539016Y-122672566D01*
X62539013Y-122672563D01*
X62533987Y-122666013D01*
X62527432Y-122660983D01*
X62508621Y-122646548D01*
X62496230Y-122635681D01*
X61745405Y-121884856D01*
X61711379Y-121822544D01*
X61708500Y-121795761D01*
X61708500Y-119348136D01*
X61709578Y-119331690D01*
X61712672Y-119308188D01*
X61713750Y-119300000D01*
X61708500Y-119260120D01*
X61708500Y-119260115D01*
X61692838Y-119141150D01*
X61679222Y-119108277D01*
X61631524Y-118993124D01*
X61626495Y-118986570D01*
X61626493Y-118986567D01*
X61610762Y-118966067D01*
X61594315Y-118937582D01*
X61587295Y-118920635D01*
X61581533Y-118906723D01*
X61519873Y-118826367D01*
X61483996Y-118779612D01*
X61458629Y-118760147D01*
X61446238Y-118749280D01*
X60195415Y-117498456D01*
X60161389Y-117436144D01*
X60158510Y-117409361D01*
X60158510Y-113654249D01*
X60178512Y-113586128D01*
X60195415Y-113565154D01*
X60628965Y-113131604D01*
X60691277Y-113097578D01*
X60762092Y-113102643D01*
X60818928Y-113145190D01*
X60837584Y-113180824D01*
X60879380Y-113306105D01*
X60885555Y-113319286D01*
X60967788Y-113452173D01*
X60976824Y-113463574D01*
X61087429Y-113573986D01*
X61098840Y-113582998D01*
X61231880Y-113665004D01*
X61245061Y-113671151D01*
X61393814Y-113720491D01*
X61407190Y-113723358D01*
X61498097Y-113732672D01*
X61504513Y-113733000D01*
X61527885Y-113733000D01*
X61543124Y-113728525D01*
X61544329Y-113727135D01*
X61546000Y-113719452D01*
X61546000Y-112647000D01*
X61566002Y-112578879D01*
X61619658Y-112532386D01*
X61672000Y-112521000D01*
X61928000Y-112521000D01*
X61996121Y-112541002D01*
G37*
%TD.AperFunction*%
%TA.AperFunction,Conductor*%
G36*
X68621333Y-105556800D02*
G01*
X68649377Y-105577926D01*
X80267695Y-117196244D01*
X80278562Y-117208635D01*
X80298023Y-117233997D01*
X80329935Y-117258484D01*
X80329938Y-117258487D01*
X80425134Y-117331534D01*
X80485355Y-117356478D01*
X80573160Y-117392848D01*
X80692125Y-117408510D01*
X80692130Y-117408510D01*
X80692139Y-117408511D01*
X80723822Y-117412682D01*
X80732010Y-117413760D01*
X80763703Y-117409588D01*
X80780146Y-117408510D01*
X93464356Y-117408510D01*
X93532477Y-117428512D01*
X93578970Y-117482168D01*
X93589755Y-117522215D01*
X93604163Y-117669160D01*
X93618074Y-117710977D01*
X93620596Y-117781929D01*
X93587610Y-117839843D01*
X93572858Y-117854595D01*
X93510546Y-117888621D01*
X93483763Y-117891500D01*
X88248136Y-117891500D01*
X88231693Y-117890422D01*
X88200000Y-117886250D01*
X88191811Y-117887328D01*
X88160126Y-117891499D01*
X88160117Y-117891500D01*
X88160115Y-117891500D01*
X88160109Y-117891501D01*
X88160107Y-117891501D01*
X88060543Y-117904609D01*
X88049336Y-117906084D01*
X88049334Y-117906085D01*
X88041149Y-117907162D01*
X87967136Y-117937819D01*
X87900752Y-117965316D01*
X87900750Y-117965317D01*
X87893124Y-117968476D01*
X87822092Y-118022982D01*
X87766013Y-118066013D01*
X87760987Y-118072563D01*
X87746548Y-118091380D01*
X87735681Y-118103771D01*
X85484856Y-120354595D01*
X85422544Y-120388621D01*
X85395761Y-120391500D01*
X72752684Y-120391500D01*
X72684563Y-120371498D01*
X72638070Y-120317842D01*
X72627966Y-120247568D01*
X72630067Y-120238131D01*
X72629774Y-120238068D01*
X72630865Y-120233024D01*
X72632370Y-120228069D01*
X72661529Y-120006590D01*
X72663156Y-119940000D01*
X72644852Y-119717361D01*
X72590431Y-119500702D01*
X72501354Y-119295840D01*
X72401281Y-119141150D01*
X72382822Y-119112617D01*
X72382820Y-119112614D01*
X72380014Y-119108277D01*
X72376532Y-119104450D01*
X72232798Y-118946488D01*
X72201746Y-118882642D01*
X72210141Y-118812143D01*
X72255317Y-118757375D01*
X72281761Y-118743706D01*
X72388297Y-118703767D01*
X72396705Y-118700615D01*
X72513261Y-118613261D01*
X72600615Y-118496705D01*
X72651745Y-118360316D01*
X72658500Y-118298134D01*
X72658500Y-116501866D01*
X72651745Y-116439684D01*
X72600615Y-116303295D01*
X72513261Y-116186739D01*
X72396705Y-116099385D01*
X72260316Y-116048255D01*
X72198134Y-116041500D01*
X70401866Y-116041500D01*
X70339684Y-116048255D01*
X70203295Y-116099385D01*
X70086739Y-116186739D01*
X69999385Y-116303295D01*
X69948255Y-116439684D01*
X69941500Y-116501866D01*
X69941500Y-116565500D01*
X69921498Y-116633621D01*
X69867842Y-116680114D01*
X69815500Y-116691500D01*
X67728927Y-116691500D01*
X67720358Y-116691208D01*
X67670225Y-116687790D01*
X67670221Y-116687790D01*
X67662648Y-116687274D01*
X67599681Y-116698264D01*
X67593169Y-116699224D01*
X67529758Y-116706898D01*
X67522657Y-116709581D01*
X67520048Y-116710222D01*
X67503728Y-116714687D01*
X67501195Y-116715452D01*
X67493717Y-116716757D01*
X67435190Y-116742448D01*
X67429108Y-116744930D01*
X67408753Y-116752622D01*
X67376449Y-116764828D01*
X67376447Y-116764829D01*
X67369344Y-116767513D01*
X67363085Y-116771814D01*
X67360720Y-116773051D01*
X67345948Y-116781273D01*
X67343656Y-116782628D01*
X67336695Y-116785684D01*
X67330668Y-116790309D01*
X67330664Y-116790311D01*
X67285987Y-116824593D01*
X67280662Y-116828462D01*
X67228019Y-116864643D01*
X67222967Y-116870313D01*
X67222966Y-116870314D01*
X67186573Y-116911161D01*
X67181592Y-116916437D01*
X65980982Y-118117048D01*
X64796563Y-119301467D01*
X64748073Y-119331650D01*
X64675105Y-119356490D01*
X64604173Y-119359508D01*
X64542869Y-119323697D01*
X64510657Y-119260429D01*
X64508500Y-119237212D01*
X64508500Y-115250398D01*
X64528502Y-115182277D01*
X64582158Y-115135784D01*
X64652432Y-115125680D01*
X64674168Y-115130805D01*
X64793814Y-115170491D01*
X64807190Y-115173358D01*
X64898097Y-115182672D01*
X64903126Y-115182929D01*
X64918124Y-115178525D01*
X64919329Y-115177135D01*
X64921000Y-115169452D01*
X64921000Y-114467548D01*
X65429000Y-114467548D01*
X65429000Y-115164885D01*
X65433475Y-115180124D01*
X65434865Y-115181329D01*
X65442548Y-115183000D01*
X65445438Y-115183000D01*
X65451953Y-115182663D01*
X65544057Y-115173106D01*
X65557456Y-115170212D01*
X65706107Y-115120619D01*
X65719286Y-115114445D01*
X65852173Y-115032212D01*
X65863574Y-115023176D01*
X65973986Y-114912571D01*
X65982998Y-114901160D01*
X66065004Y-114768120D01*
X66071151Y-114754939D01*
X66120491Y-114606186D01*
X66123358Y-114592810D01*
X66132672Y-114501903D01*
X66133000Y-114495487D01*
X66133000Y-114472115D01*
X66128525Y-114456876D01*
X66127135Y-114455671D01*
X66119452Y-114454000D01*
X65447115Y-114454000D01*
X65431876Y-114458475D01*
X65430671Y-114459865D01*
X65429000Y-114467548D01*
X64921000Y-114467548D01*
X64921000Y-113686548D01*
X65429000Y-113686548D01*
X65429000Y-113927885D01*
X65433475Y-113943124D01*
X65434865Y-113944329D01*
X65442548Y-113946000D01*
X66114885Y-113946000D01*
X66130124Y-113941525D01*
X66131329Y-113940135D01*
X66133000Y-113932452D01*
X66133000Y-113904562D01*
X66132663Y-113898047D01*
X66123106Y-113805943D01*
X66120212Y-113792544D01*
X66070619Y-113643893D01*
X66064447Y-113630717D01*
X66060356Y-113624107D01*
X66041517Y-113555656D01*
X66062677Y-113487885D01*
X66078326Y-113468784D01*
X66184967Y-113361958D01*
X66247250Y-113327879D01*
X66318070Y-113332882D01*
X66340256Y-113343716D01*
X66371243Y-113362816D01*
X66384424Y-113368963D01*
X66538710Y-113420138D01*
X66552086Y-113423005D01*
X66646438Y-113432672D01*
X66652854Y-113433000D01*
X66677885Y-113433000D01*
X66693124Y-113428525D01*
X66694329Y-113427135D01*
X66696000Y-113419452D01*
X66696000Y-112472115D01*
X66691525Y-112456876D01*
X66690135Y-112455671D01*
X66682452Y-112454000D01*
X66416115Y-112454000D01*
X66400876Y-112458475D01*
X66399671Y-112459865D01*
X66398000Y-112467548D01*
X66398000Y-112528000D01*
X66377998Y-112596121D01*
X66324342Y-112642614D01*
X66272000Y-112654000D01*
X65622115Y-112654000D01*
X65606876Y-112658475D01*
X65605671Y-112659865D01*
X65604000Y-112667548D01*
X65604000Y-113547000D01*
X65583998Y-113615121D01*
X65530342Y-113661614D01*
X65478000Y-113673000D01*
X65447115Y-113673000D01*
X65431876Y-113677475D01*
X65430671Y-113678865D01*
X65429000Y-113686548D01*
X64921000Y-113686548D01*
X64921000Y-113303000D01*
X64941002Y-113234879D01*
X64994658Y-113188386D01*
X65047000Y-113177000D01*
X65077885Y-113177000D01*
X65093124Y-113172525D01*
X65094329Y-113171135D01*
X65096000Y-113163452D01*
X65096000Y-112272000D01*
X65116002Y-112203879D01*
X65169658Y-112157386D01*
X65222000Y-112146000D01*
X65883885Y-112146000D01*
X65899124Y-112141525D01*
X65900329Y-112140135D01*
X65902000Y-112132452D01*
X65902000Y-112072000D01*
X65922002Y-112003879D01*
X65975658Y-111957386D01*
X66028000Y-111946000D01*
X67078000Y-111946000D01*
X67146121Y-111966002D01*
X67192614Y-112019658D01*
X67204000Y-112072000D01*
X67204000Y-113414884D01*
X67208475Y-113430123D01*
X67209865Y-113431328D01*
X67217548Y-113432999D01*
X67247095Y-113432999D01*
X67253614Y-113432662D01*
X67349206Y-113422743D01*
X67362600Y-113419851D01*
X67516784Y-113368412D01*
X67529962Y-113362239D01*
X67667807Y-113276937D01*
X67679208Y-113267901D01*
X67793738Y-113153172D01*
X67800794Y-113144238D01*
X67858712Y-113103177D01*
X67929635Y-113099947D01*
X67991046Y-113135574D01*
X67997846Y-113143407D01*
X68001522Y-113149348D01*
X68126697Y-113274305D01*
X68132927Y-113278145D01*
X68132928Y-113278146D01*
X68270288Y-113362816D01*
X68277262Y-113367115D01*
X68303721Y-113375891D01*
X68438611Y-113420632D01*
X68438613Y-113420632D01*
X68445139Y-113422797D01*
X68451975Y-113423497D01*
X68451978Y-113423498D01*
X68495031Y-113427909D01*
X68549600Y-113433500D01*
X69150400Y-113433500D01*
X69153646Y-113433163D01*
X69153650Y-113433163D01*
X69249308Y-113423238D01*
X69249312Y-113423237D01*
X69256166Y-113422526D01*
X69262702Y-113420345D01*
X69262704Y-113420345D01*
X69395948Y-113375891D01*
X69423946Y-113366550D01*
X69574348Y-113273478D01*
X69699305Y-113148303D01*
X69707151Y-113135574D01*
X69788275Y-113003968D01*
X69788276Y-113003966D01*
X69792115Y-112997738D01*
X69832232Y-112876789D01*
X69845632Y-112836389D01*
X69845632Y-112836387D01*
X69847797Y-112829861D01*
X69858500Y-112725400D01*
X69858500Y-111674600D01*
X69858020Y-111669970D01*
X69848238Y-111575692D01*
X69848237Y-111575688D01*
X69847526Y-111568834D01*
X69829045Y-111513438D01*
X69793868Y-111408002D01*
X69791550Y-111401054D01*
X69698478Y-111250652D01*
X69573303Y-111125695D01*
X69553901Y-111113735D01*
X69493384Y-111076432D01*
X69445891Y-111023660D01*
X69433500Y-110969172D01*
X69433500Y-109257056D01*
X69434059Y-109245200D01*
X69434059Y-109245197D01*
X69435788Y-109237463D01*
X69433562Y-109166631D01*
X69433500Y-109162673D01*
X69433500Y-109133568D01*
X69432944Y-109129168D01*
X69432012Y-109117330D01*
X69431769Y-109109577D01*
X69430562Y-109071169D01*
X69424580Y-109050579D01*
X69420570Y-109031216D01*
X69418875Y-109017796D01*
X69418875Y-109017795D01*
X69417882Y-109009936D01*
X69414966Y-109002571D01*
X69414965Y-109002567D01*
X69400874Y-108966979D01*
X69397035Y-108955769D01*
X69384145Y-108911400D01*
X69373229Y-108892943D01*
X69364534Y-108875193D01*
X69356635Y-108855244D01*
X69344064Y-108837941D01*
X69329477Y-108817864D01*
X69322960Y-108807943D01*
X69317994Y-108799546D01*
X69299452Y-108768193D01*
X69284291Y-108753032D01*
X69271449Y-108737997D01*
X69270418Y-108736578D01*
X69258841Y-108720643D01*
X69223248Y-108691198D01*
X69214467Y-108683208D01*
X68473651Y-107942391D01*
X68465663Y-107933612D01*
X68461416Y-107926920D01*
X68409741Y-107878394D01*
X68406900Y-107875640D01*
X68386333Y-107855073D01*
X68382826Y-107852353D01*
X68373804Y-107844647D01*
X68354853Y-107826851D01*
X68340133Y-107813028D01*
X68333181Y-107809206D01*
X68321342Y-107802697D01*
X68304818Y-107791843D01*
X68294132Y-107783555D01*
X68287868Y-107778696D01*
X68280596Y-107775549D01*
X68280594Y-107775548D01*
X68245465Y-107760346D01*
X68234807Y-107755125D01*
X68221035Y-107747554D01*
X68209158Y-107741024D01*
X68159100Y-107690681D01*
X68147358Y-107654512D01*
X68147018Y-107654603D01*
X68145272Y-107648084D01*
X68144937Y-107647054D01*
X68144881Y-107646625D01*
X68144880Y-107646622D01*
X68143803Y-107638439D01*
X68141125Y-107631974D01*
X68141125Y-107568026D01*
X68143803Y-107561561D01*
X68158500Y-107449925D01*
X68158499Y-107250076D01*
X68156694Y-107236360D01*
X68144881Y-107146626D01*
X68144880Y-107146624D01*
X68143803Y-107138439D01*
X68086267Y-106999536D01*
X68022343Y-106916228D01*
X67999769Y-106886809D01*
X67999768Y-106886808D01*
X67994742Y-106880258D01*
X67875463Y-106788733D01*
X67736561Y-106731197D01*
X67728377Y-106730120D01*
X67728375Y-106730119D01*
X67629012Y-106717038D01*
X67629011Y-106717038D01*
X67624925Y-106716500D01*
X67610942Y-106716500D01*
X67309499Y-106716501D01*
X67241380Y-106696499D01*
X67194887Y-106642844D01*
X67183500Y-106590501D01*
X67183499Y-106329240D01*
X67203501Y-106261120D01*
X67220404Y-106240145D01*
X67349703Y-106110846D01*
X67412015Y-106076820D01*
X67482717Y-106081843D01*
X67496563Y-106086992D01*
X67496566Y-106086993D01*
X67503168Y-106089448D01*
X67510149Y-106090379D01*
X67510151Y-106090380D01*
X67675980Y-106112507D01*
X67675984Y-106112507D01*
X67682961Y-106113438D01*
X67689972Y-106112800D01*
X67689976Y-106112800D01*
X67832459Y-106099832D01*
X67863600Y-106096998D01*
X67870302Y-106094820D01*
X67870304Y-106094820D01*
X68029409Y-106043124D01*
X68029412Y-106043123D01*
X68036108Y-106040947D01*
X68138683Y-105979800D01*
X68185860Y-105951677D01*
X68185862Y-105951676D01*
X68191912Y-105948069D01*
X68323266Y-105822982D01*
X68423643Y-105671902D01*
X68442494Y-105622277D01*
X68485383Y-105565699D01*
X68552052Y-105541290D01*
X68621333Y-105556800D01*
G37*
%TD.AperFunction*%
%TA.AperFunction,Conductor*%
G36*
X57633676Y-109356038D02*
G01*
X57678739Y-109384999D01*
X57793193Y-109499453D01*
X57797002Y-109501706D01*
X57837655Y-109557996D01*
X57841506Y-109628888D01*
X57806418Y-109690609D01*
X57798724Y-109697276D01*
X57793193Y-109700547D01*
X57675547Y-109818193D01*
X57671511Y-109825017D01*
X57671509Y-109825020D01*
X57628787Y-109897260D01*
X57590855Y-109961399D01*
X57588644Y-109969010D01*
X57588643Y-109969012D01*
X57577205Y-110008382D01*
X57538992Y-110068218D01*
X57524199Y-110075025D01*
X57542564Y-110142030D01*
X57542197Y-110149634D01*
X57541694Y-110156031D01*
X57541500Y-110158498D01*
X57541500Y-111316502D01*
X57544438Y-111353831D01*
X57558863Y-111403481D01*
X57585399Y-111494820D01*
X57590855Y-111513601D01*
X57594892Y-111520427D01*
X57671509Y-111649980D01*
X57671511Y-111649983D01*
X57675547Y-111656807D01*
X57704595Y-111685855D01*
X57738621Y-111748167D01*
X57741500Y-111774950D01*
X57741500Y-112601864D01*
X57740422Y-112618307D01*
X57736250Y-112650000D01*
X57741500Y-112689880D01*
X57741500Y-112689885D01*
X57754187Y-112786249D01*
X57757162Y-112808851D01*
X57760322Y-112816481D01*
X57760323Y-112816483D01*
X57771405Y-112843237D01*
X57818476Y-112956876D01*
X57823503Y-112963427D01*
X57823504Y-112963429D01*
X57891520Y-113052069D01*
X57891526Y-113052075D01*
X57916013Y-113083987D01*
X57922568Y-113089017D01*
X57941379Y-113103452D01*
X57953770Y-113114319D01*
X58454595Y-113615144D01*
X58488621Y-113677456D01*
X58491500Y-113704239D01*
X58491500Y-117851864D01*
X58490422Y-117868307D01*
X58486250Y-117900000D01*
X58491500Y-117939880D01*
X58491500Y-117939885D01*
X58502110Y-118020475D01*
X58507162Y-118058851D01*
X58510322Y-118066479D01*
X58512460Y-118074460D01*
X58510734Y-118074922D01*
X58517243Y-118135455D01*
X58485465Y-118198942D01*
X58424407Y-118235171D01*
X58353456Y-118232638D01*
X58304150Y-118202180D01*
X55520405Y-115418435D01*
X55486379Y-115356123D01*
X55483500Y-115329340D01*
X55483500Y-111637543D01*
X55503502Y-111569422D01*
X55557158Y-111522929D01*
X55598080Y-111512062D01*
X55763600Y-111496998D01*
X55770302Y-111494820D01*
X55770304Y-111494820D01*
X55929409Y-111443124D01*
X55929412Y-111443123D01*
X55936108Y-111440947D01*
X56041468Y-111378140D01*
X56085860Y-111351677D01*
X56085862Y-111351676D01*
X56091912Y-111348069D01*
X56223266Y-111222982D01*
X56323643Y-111071902D01*
X56371886Y-110944902D01*
X56385555Y-110908920D01*
X56385556Y-110908918D01*
X56388055Y-110902338D01*
X56392289Y-110872210D01*
X56412748Y-110726639D01*
X56412748Y-110726636D01*
X56413299Y-110722717D01*
X56413508Y-110707742D01*
X56434459Y-110639907D01*
X56488758Y-110594167D01*
X56539495Y-110583500D01*
X56675918Y-110583499D01*
X56681634Y-110583499D01*
X56684492Y-110583236D01*
X56684501Y-110583236D01*
X56720004Y-110579974D01*
X56755062Y-110576753D01*
X56809242Y-110559774D01*
X56911450Y-110527744D01*
X56911452Y-110527743D01*
X56918699Y-110525472D01*
X57065381Y-110436639D01*
X57186639Y-110315381D01*
X57275472Y-110168699D01*
X57284031Y-110141389D01*
X57296351Y-110102073D01*
X57335808Y-110043051D01*
X57349104Y-110037267D01*
X57330209Y-109973588D01*
X57330736Y-109961711D01*
X57333500Y-109931635D01*
X57333499Y-109604239D01*
X57353501Y-109536119D01*
X57370404Y-109515144D01*
X57500549Y-109384999D01*
X57562861Y-109350973D01*
X57633676Y-109356038D01*
G37*
%TD.AperFunction*%
%TA.AperFunction,Conductor*%
G36*
X53797075Y-108325229D02*
G01*
X53849086Y-108373553D01*
X53866490Y-108431635D01*
X53866501Y-108431634D01*
X53873247Y-108505062D01*
X53875246Y-108511440D01*
X53875246Y-108511441D01*
X53921363Y-108658598D01*
X53924528Y-108668699D01*
X53984784Y-108768193D01*
X53994798Y-108784729D01*
X54012977Y-108853358D01*
X53994798Y-108915270D01*
X53924528Y-109031301D01*
X53922257Y-109038548D01*
X53922256Y-109038550D01*
X53908080Y-109083787D01*
X53873247Y-109194938D01*
X53866500Y-109268365D01*
X53866500Y-109271263D01*
X53866501Y-109600860D01*
X53866501Y-109931634D01*
X53866764Y-109934492D01*
X53866764Y-109934501D01*
X53869263Y-109961698D01*
X53873247Y-110005062D01*
X53875246Y-110011440D01*
X53875246Y-110011441D01*
X53915970Y-110141389D01*
X53924528Y-110168699D01*
X54013361Y-110315381D01*
X54029595Y-110331615D01*
X54063621Y-110393927D01*
X54066500Y-110420710D01*
X54066500Y-115646088D01*
X54066208Y-115654658D01*
X54062275Y-115712352D01*
X54060394Y-115712224D01*
X54046268Y-115771685D01*
X53995118Y-115820921D01*
X53925469Y-115834688D01*
X53859433Y-115808614D01*
X53847756Y-115798298D01*
X52280912Y-114231454D01*
X52268075Y-114216426D01*
X52260185Y-114205566D01*
X52210816Y-114161114D01*
X52206031Y-114156573D01*
X52191986Y-114142528D01*
X52189409Y-114140441D01*
X52176554Y-114130031D01*
X52171538Y-114125747D01*
X52127080Y-114085717D01*
X52127075Y-114085713D01*
X52122169Y-114081296D01*
X52110552Y-114074589D01*
X52094259Y-114063391D01*
X52088971Y-114059109D01*
X52083839Y-114054953D01*
X52024637Y-114024787D01*
X52018867Y-114021654D01*
X51967055Y-113991740D01*
X51967050Y-113991738D01*
X51961331Y-113988436D01*
X51955051Y-113986395D01*
X51955043Y-113986392D01*
X51948579Y-113984292D01*
X51930317Y-113976728D01*
X51924251Y-113973637D01*
X51924242Y-113973634D01*
X51918363Y-113970638D01*
X51907672Y-113967773D01*
X51854196Y-113953444D01*
X51847894Y-113951578D01*
X51784702Y-113931046D01*
X51771372Y-113929645D01*
X51751929Y-113926042D01*
X51738971Y-113922570D01*
X51732381Y-113922225D01*
X51732377Y-113922224D01*
X51688427Y-113919921D01*
X51672628Y-113919093D01*
X51666069Y-113918577D01*
X51646306Y-113916500D01*
X51626445Y-113916500D01*
X51619850Y-113916327D01*
X51560098Y-113913195D01*
X51560094Y-113913195D01*
X51553507Y-113912850D01*
X51540253Y-113914949D01*
X51520544Y-113916500D01*
X49568148Y-113916500D01*
X49500027Y-113896498D01*
X49479053Y-113879595D01*
X49406245Y-113806787D01*
X49372219Y-113744475D01*
X49377284Y-113673660D01*
X49419831Y-113616824D01*
X49486351Y-113592013D01*
X49539569Y-113599710D01*
X49596282Y-113620971D01*
X49596288Y-113620973D01*
X49603684Y-113623745D01*
X49665866Y-113630500D01*
X50662134Y-113630500D01*
X50724316Y-113623745D01*
X50860705Y-113572615D01*
X50977261Y-113485261D01*
X51064615Y-113368705D01*
X51115745Y-113232316D01*
X51122500Y-113170134D01*
X51122500Y-112789260D01*
X51128398Y-112751161D01*
X51141235Y-112710694D01*
X51158500Y-112556773D01*
X51158500Y-110050231D01*
X51144080Y-109903167D01*
X51127878Y-109849503D01*
X51122500Y-109813086D01*
X51122500Y-109435466D01*
X51115745Y-109373284D01*
X51064615Y-109236895D01*
X50999710Y-109150292D01*
X50974862Y-109083787D01*
X50989915Y-109014404D01*
X51040089Y-108964174D01*
X51087533Y-108949401D01*
X51138206Y-108944143D01*
X51151600Y-108941251D01*
X51305784Y-108889812D01*
X51318962Y-108883639D01*
X51456807Y-108798337D01*
X51468208Y-108789301D01*
X51582738Y-108674572D01*
X51589794Y-108665638D01*
X51647712Y-108624577D01*
X51718635Y-108621347D01*
X51780046Y-108656974D01*
X51786846Y-108664807D01*
X51790522Y-108670748D01*
X51915697Y-108795705D01*
X51921927Y-108799545D01*
X51921928Y-108799546D01*
X52059942Y-108884619D01*
X52066262Y-108888515D01*
X52084593Y-108894595D01*
X52227611Y-108942032D01*
X52227613Y-108942032D01*
X52234139Y-108944197D01*
X52240975Y-108944897D01*
X52240978Y-108944898D01*
X52284031Y-108949309D01*
X52338600Y-108954900D01*
X52939400Y-108954900D01*
X52942646Y-108954563D01*
X52942650Y-108954563D01*
X53038308Y-108944638D01*
X53038312Y-108944637D01*
X53045166Y-108943926D01*
X53051702Y-108941745D01*
X53051704Y-108941745D01*
X53197971Y-108892946D01*
X53212946Y-108887950D01*
X53363348Y-108794878D01*
X53488305Y-108669703D01*
X53492340Y-108663157D01*
X53577275Y-108525368D01*
X53577276Y-108525366D01*
X53581115Y-108519138D01*
X53621198Y-108398292D01*
X53661629Y-108339932D01*
X53727193Y-108312695D01*
X53797075Y-108325229D01*
G37*
%TD.AperFunction*%
%TA.AperFunction,Conductor*%
G36*
X78795266Y-111228502D02*
G01*
X78816240Y-111245405D01*
X79567079Y-111996244D01*
X79577946Y-112008635D01*
X79597407Y-112033997D01*
X79603957Y-112039023D01*
X79629315Y-112058481D01*
X79629331Y-112058495D01*
X79678699Y-112096376D01*
X79724518Y-112131534D01*
X79872543Y-112192848D01*
X80031394Y-112213761D01*
X80063093Y-112209588D01*
X80079538Y-112208510D01*
X82966000Y-112208510D01*
X83034121Y-112228512D01*
X83080614Y-112282168D01*
X83092000Y-112334510D01*
X83092000Y-113127885D01*
X83096475Y-113143124D01*
X83097865Y-113144329D01*
X83105548Y-113146000D01*
X84228000Y-113146000D01*
X84296121Y-113166002D01*
X84342614Y-113219658D01*
X84354000Y-113272000D01*
X84354000Y-113528000D01*
X84333998Y-113596121D01*
X84280342Y-113642614D01*
X84228000Y-113654000D01*
X83110116Y-113654000D01*
X83094877Y-113658475D01*
X83093672Y-113659865D01*
X83092001Y-113667548D01*
X83092001Y-114694669D01*
X83092371Y-114701490D01*
X83097895Y-114752352D01*
X83101522Y-114767606D01*
X83110393Y-114791271D01*
X83115576Y-114862078D01*
X83081655Y-114924447D01*
X83019400Y-114958576D01*
X82992411Y-114961500D01*
X81939938Y-114961500D01*
X81871817Y-114941498D01*
X81850843Y-114924595D01*
X78349843Y-111423595D01*
X78315817Y-111361283D01*
X78320882Y-111290468D01*
X78363429Y-111233632D01*
X78429949Y-111208821D01*
X78438938Y-111208500D01*
X78727145Y-111208500D01*
X78795266Y-111228502D01*
G37*
%TD.AperFunction*%
%TA.AperFunction,Conductor*%
G36*
X59383621Y-110503502D02*
G01*
X59430114Y-110557158D01*
X59441500Y-110609500D01*
X59441500Y-111316502D01*
X59444438Y-111353831D01*
X59458863Y-111403481D01*
X59485399Y-111494820D01*
X59490855Y-111513601D01*
X59494892Y-111520427D01*
X59536453Y-111590703D01*
X59554000Y-111654842D01*
X59554000Y-111886878D01*
X59558475Y-111902117D01*
X59573602Y-111915225D01*
X59598011Y-111926372D01*
X59636396Y-111986097D01*
X59641500Y-112021597D01*
X59641500Y-112345781D01*
X59621498Y-112413902D01*
X59604595Y-112434876D01*
X59389105Y-112650366D01*
X59326793Y-112684392D01*
X59255978Y-112679327D01*
X59210915Y-112650366D01*
X58995405Y-112434856D01*
X58961379Y-112372544D01*
X58958500Y-112345761D01*
X58958500Y-112024069D01*
X58978502Y-111955948D01*
X59016078Y-111918266D01*
X59041970Y-111901522D01*
X59046000Y-111892630D01*
X59046000Y-111654842D01*
X59063547Y-111590703D01*
X59105108Y-111520427D01*
X59109145Y-111513601D01*
X59114602Y-111494820D01*
X59141137Y-111403481D01*
X59155562Y-111353831D01*
X59158500Y-111316502D01*
X59158500Y-110609500D01*
X59178502Y-110541379D01*
X59232158Y-110494886D01*
X59284500Y-110483500D01*
X59315500Y-110483500D01*
X59383621Y-110503502D01*
G37*
%TD.AperFunction*%
%TA.AperFunction,Conductor*%
G36*
X97189145Y-99751861D02*
G01*
X97200817Y-99765330D01*
X97236739Y-99813261D01*
X97353295Y-99900615D01*
X97489684Y-99951745D01*
X97551866Y-99958500D01*
X98648134Y-99958500D01*
X98710316Y-99951745D01*
X98846705Y-99900615D01*
X98847251Y-99902072D01*
X98906854Y-99889036D01*
X98973402Y-99913771D01*
X99016013Y-99970559D01*
X99024006Y-100014477D01*
X99038306Y-107407512D01*
X99046410Y-111597297D01*
X99026540Y-111665457D01*
X98972974Y-111712053D01*
X98902720Y-111722293D01*
X98859899Y-111708060D01*
X98853891Y-111704771D01*
X98846705Y-111699385D01*
X98710316Y-111648255D01*
X98648134Y-111641500D01*
X97551866Y-111641500D01*
X97489684Y-111648255D01*
X97353295Y-111699385D01*
X97236739Y-111786739D01*
X97200824Y-111834660D01*
X97143967Y-111877173D01*
X97073149Y-111882199D01*
X97010855Y-111848139D01*
X96999183Y-111834670D01*
X96963261Y-111786739D01*
X96846705Y-111699385D01*
X96710316Y-111648255D01*
X96648134Y-111641500D01*
X95551866Y-111641500D01*
X95489684Y-111648255D01*
X95353295Y-111699385D01*
X95236739Y-111786739D01*
X95200824Y-111834660D01*
X95143967Y-111877173D01*
X95073149Y-111882199D01*
X95010855Y-111848139D01*
X94999183Y-111834670D01*
X94963261Y-111786739D01*
X94846705Y-111699385D01*
X94810614Y-111685855D01*
X94790270Y-111678228D01*
X94733505Y-111635586D01*
X94708806Y-111569024D01*
X94708500Y-111560246D01*
X94708500Y-101869938D01*
X94728502Y-101801817D01*
X94745405Y-101780843D01*
X95296244Y-101230004D01*
X95308635Y-101219137D01*
X95327447Y-101204702D01*
X95333997Y-101199676D01*
X95358484Y-101167764D01*
X95358490Y-101167758D01*
X95426506Y-101079118D01*
X95426507Y-101079116D01*
X95431534Y-101072565D01*
X95492848Y-100924540D01*
X95501163Y-100861379D01*
X95505608Y-100827617D01*
X95505608Y-100827615D01*
X95508510Y-100805574D01*
X95508511Y-100805560D01*
X95508744Y-100803794D01*
X95513760Y-100765689D01*
X95509588Y-100733996D01*
X95508510Y-100717553D01*
X95508510Y-100084500D01*
X95528512Y-100016379D01*
X95582168Y-99969886D01*
X95634510Y-99958500D01*
X96648134Y-99958500D01*
X96710316Y-99951745D01*
X96846705Y-99900615D01*
X96963261Y-99813261D01*
X96999176Y-99765340D01*
X97056033Y-99722827D01*
X97126851Y-99717801D01*
X97189145Y-99751861D01*
G37*
%TD.AperFunction*%
%TA.AperFunction,Conductor*%
G36*
X93409532Y-102155183D02*
G01*
X93466368Y-102197730D01*
X93491179Y-102264250D01*
X93491500Y-102273239D01*
X93491500Y-111560246D01*
X93471498Y-111628367D01*
X93417842Y-111674860D01*
X93409730Y-111678228D01*
X93389386Y-111685855D01*
X93353295Y-111699385D01*
X93236739Y-111786739D01*
X93200824Y-111834660D01*
X93143967Y-111877173D01*
X93073149Y-111882199D01*
X93010855Y-111848139D01*
X92999183Y-111834670D01*
X92963261Y-111786739D01*
X92846705Y-111699385D01*
X92710316Y-111648255D01*
X92648134Y-111641500D01*
X91734500Y-111641500D01*
X91666379Y-111621498D01*
X91619886Y-111567842D01*
X91608500Y-111515500D01*
X91608500Y-103904239D01*
X91628502Y-103836118D01*
X91645405Y-103815144D01*
X93276405Y-102184144D01*
X93338717Y-102150118D01*
X93409532Y-102155183D01*
G37*
%TD.AperFunction*%
%TA.AperFunction,Conductor*%
G36*
X93189145Y-99751861D02*
G01*
X93200817Y-99765330D01*
X93236739Y-99813261D01*
X93353295Y-99900615D01*
X93361703Y-99903767D01*
X93409730Y-99921772D01*
X93466495Y-99964414D01*
X93491194Y-100030976D01*
X93491500Y-100039754D01*
X93491500Y-100195761D01*
X93471498Y-100263882D01*
X93454595Y-100284856D01*
X90603766Y-103135685D01*
X90591375Y-103146552D01*
X90566013Y-103166013D01*
X90541526Y-103197925D01*
X90541523Y-103197928D01*
X90541517Y-103197936D01*
X90474344Y-103285477D01*
X90468476Y-103293124D01*
X90407162Y-103441149D01*
X90406908Y-103443076D01*
X90391500Y-103560115D01*
X90391500Y-103560120D01*
X90386250Y-103600000D01*
X90387328Y-103608188D01*
X90390422Y-103631690D01*
X90391500Y-103648136D01*
X90391500Y-111515500D01*
X90371498Y-111583621D01*
X90317842Y-111630114D01*
X90265500Y-111641500D01*
X89551866Y-111641500D01*
X89548469Y-111641869D01*
X89497534Y-111647402D01*
X89497532Y-111647402D01*
X89489684Y-111648255D01*
X89482290Y-111651027D01*
X89474602Y-111652855D01*
X89473895Y-111649882D01*
X89417326Y-111654033D01*
X89354787Y-111619958D01*
X86938605Y-109203776D01*
X86927738Y-109191385D01*
X86913303Y-109172573D01*
X86908277Y-109166023D01*
X86876365Y-109141536D01*
X86876362Y-109141533D01*
X86844820Y-109117330D01*
X86787719Y-109073514D01*
X86787717Y-109073513D01*
X86781166Y-109068486D01*
X86633141Y-109007172D01*
X86624954Y-109006094D01*
X86624953Y-109006094D01*
X86613748Y-109004619D01*
X86582552Y-109000512D01*
X86514175Y-108991510D01*
X86514172Y-108991510D01*
X86514164Y-108991509D01*
X86482479Y-108987338D01*
X86474290Y-108986260D01*
X86442597Y-108990432D01*
X86426154Y-108991510D01*
X84134500Y-108991510D01*
X84066379Y-108971508D01*
X84019886Y-108917852D01*
X84008500Y-108865510D01*
X84008500Y-108251866D01*
X84001745Y-108189684D01*
X83950615Y-108053295D01*
X83863261Y-107936739D01*
X83815340Y-107900824D01*
X83772827Y-107843967D01*
X83767801Y-107773149D01*
X83801861Y-107710855D01*
X83815330Y-107699183D01*
X83863261Y-107663261D01*
X83950615Y-107546705D01*
X84001745Y-107410316D01*
X84008500Y-107348134D01*
X84008500Y-106734490D01*
X84028502Y-106666369D01*
X84082158Y-106619876D01*
X84134500Y-106608490D01*
X84426154Y-106608490D01*
X84442597Y-106609568D01*
X84474290Y-106613740D01*
X84482479Y-106612662D01*
X84514164Y-106608491D01*
X84514174Y-106608490D01*
X84514175Y-106608490D01*
X84516219Y-106608221D01*
X84613747Y-106595381D01*
X84624954Y-106593906D01*
X84624956Y-106593905D01*
X84633141Y-106592828D01*
X84781166Y-106531514D01*
X84791066Y-106523918D01*
X84876362Y-106458467D01*
X84876365Y-106458464D01*
X84901724Y-106439005D01*
X84908277Y-106433977D01*
X84921539Y-106416694D01*
X84927742Y-106408611D01*
X84938609Y-106396220D01*
X91354787Y-99980042D01*
X91417099Y-99946016D01*
X91473888Y-99950137D01*
X91474600Y-99947144D01*
X91482284Y-99948971D01*
X91489684Y-99951745D01*
X91551866Y-99958500D01*
X92648134Y-99958500D01*
X92710316Y-99951745D01*
X92846705Y-99900615D01*
X92963261Y-99813261D01*
X92999176Y-99765340D01*
X93056033Y-99722827D01*
X93126851Y-99717801D01*
X93189145Y-99751861D01*
G37*
%TD.AperFunction*%
%TA.AperFunction,Conductor*%
G36*
X71460964Y-103328502D02*
G01*
X71481938Y-103345405D01*
X77912938Y-109776405D01*
X77946964Y-109838717D01*
X77941899Y-109909532D01*
X77899352Y-109966368D01*
X77832832Y-109991179D01*
X77823843Y-109991500D01*
X77535634Y-109991500D01*
X77467513Y-109971498D01*
X77446539Y-109954595D01*
X71015539Y-103523595D01*
X70981513Y-103461283D01*
X70986578Y-103390468D01*
X71029125Y-103333632D01*
X71095645Y-103308821D01*
X71104634Y-103308500D01*
X71392843Y-103308500D01*
X71460964Y-103328502D01*
G37*
%TD.AperFunction*%
%TA.AperFunction,Conductor*%
G36*
X43744032Y-104840924D02*
G01*
X43789095Y-104869885D01*
X43970115Y-105050905D01*
X44004141Y-105113217D01*
X43999076Y-105184032D01*
X43970115Y-105229095D01*
X43013643Y-106185567D01*
X43007213Y-106197342D01*
X43016509Y-106209357D01*
X43059069Y-106239158D01*
X43068565Y-106244641D01*
X43177697Y-106295530D01*
X43230982Y-106342448D01*
X43250443Y-106410725D01*
X43229901Y-106478685D01*
X43177698Y-106523919D01*
X43123878Y-106549016D01*
X43068315Y-106574925D01*
X43068310Y-106574928D01*
X43063328Y-106577251D01*
X43058821Y-106580407D01*
X43058819Y-106580408D01*
X42886021Y-106701402D01*
X42886018Y-106701404D01*
X42881510Y-106704561D01*
X42724561Y-106861510D01*
X42721404Y-106866018D01*
X42721402Y-106866021D01*
X42613764Y-107019745D01*
X42597251Y-107043328D01*
X42594928Y-107048310D01*
X42594925Y-107048315D01*
X42513600Y-107222717D01*
X42503447Y-107244490D01*
X42502025Y-107249798D01*
X42502024Y-107249800D01*
X42448401Y-107449924D01*
X42446000Y-107458886D01*
X42426655Y-107680000D01*
X42446000Y-107901114D01*
X42447424Y-107906427D01*
X42447424Y-107906429D01*
X42489030Y-108061703D01*
X42503447Y-108115510D01*
X42505769Y-108120490D01*
X42505770Y-108120492D01*
X42594925Y-108311685D01*
X42594928Y-108311690D01*
X42597251Y-108316672D01*
X42600407Y-108321179D01*
X42600408Y-108321181D01*
X42690556Y-108449925D01*
X42724561Y-108498490D01*
X42881510Y-108655439D01*
X42886019Y-108658596D01*
X42886021Y-108658598D01*
X42887771Y-108659823D01*
X42888361Y-108660562D01*
X42890234Y-108662133D01*
X42889918Y-108662509D01*
X42932099Y-108715280D01*
X42941500Y-108763036D01*
X42941500Y-109325501D01*
X42921498Y-109393622D01*
X42867842Y-109440115D01*
X42815500Y-109451501D01*
X42502561Y-109451501D01*
X42434440Y-109431499D01*
X42387947Y-109377843D01*
X42377843Y-109307569D01*
X42380854Y-109292890D01*
X42412083Y-109176340D01*
X42413986Y-109165547D01*
X42432365Y-108955475D01*
X42432365Y-108944525D01*
X42413986Y-108734453D01*
X42412083Y-108723660D01*
X42357505Y-108519972D01*
X42353759Y-108509680D01*
X42264641Y-108318565D01*
X42259158Y-108309069D01*
X42228770Y-108265671D01*
X42218293Y-108257296D01*
X42204845Y-108264365D01*
X41249095Y-109220115D01*
X41186783Y-109254141D01*
X41115968Y-109249076D01*
X41070905Y-109220115D01*
X40114433Y-108263643D01*
X40100489Y-108256029D01*
X40096149Y-108256339D01*
X40045482Y-108276158D01*
X39975878Y-108262170D01*
X39924885Y-108212771D01*
X39908500Y-108150638D01*
X39908500Y-107233855D01*
X39928502Y-107165734D01*
X39982158Y-107119241D01*
X40052432Y-107109137D01*
X40117012Y-107138631D01*
X40137713Y-107161584D01*
X40180519Y-107222717D01*
X40184561Y-107228490D01*
X40341510Y-107385439D01*
X40346018Y-107388596D01*
X40346021Y-107388598D01*
X40365644Y-107402338D01*
X40523327Y-107512749D01*
X40528309Y-107515072D01*
X40528314Y-107515075D01*
X40637697Y-107566081D01*
X40690982Y-107612999D01*
X40710443Y-107681276D01*
X40689901Y-107749236D01*
X40637696Y-107794471D01*
X40528569Y-107845357D01*
X40519069Y-107850842D01*
X40475671Y-107881230D01*
X40467296Y-107891707D01*
X40474365Y-107905155D01*
X41147188Y-108577978D01*
X41161132Y-108585592D01*
X41162965Y-108585461D01*
X41169580Y-108581210D01*
X41846357Y-107904433D01*
X41852787Y-107892658D01*
X41843491Y-107880643D01*
X41800931Y-107850842D01*
X41791431Y-107845357D01*
X41682304Y-107794471D01*
X41629018Y-107747554D01*
X41609557Y-107679277D01*
X41630099Y-107611317D01*
X41682303Y-107566081D01*
X41791686Y-107515075D01*
X41791691Y-107515072D01*
X41796673Y-107512749D01*
X41954356Y-107402338D01*
X41973979Y-107388598D01*
X41973982Y-107388596D01*
X41978490Y-107385439D01*
X42135439Y-107228490D01*
X42139482Y-107222717D01*
X42259592Y-107051181D01*
X42259593Y-107051179D01*
X42262749Y-107046672D01*
X42265072Y-107041690D01*
X42265075Y-107041685D01*
X42354230Y-106850492D01*
X42354231Y-106850490D01*
X42356553Y-106845510D01*
X42358294Y-106839015D01*
X42412576Y-106636429D01*
X42412576Y-106636427D01*
X42414000Y-106631114D01*
X42433345Y-106410000D01*
X42414000Y-106188886D01*
X42410668Y-106176452D01*
X42357976Y-105979800D01*
X42357975Y-105979798D01*
X42356553Y-105974490D01*
X42351510Y-105963675D01*
X42265072Y-105778309D01*
X42265070Y-105778306D01*
X42262749Y-105773328D01*
X42205837Y-105692049D01*
X42183149Y-105624776D01*
X42200434Y-105555915D01*
X42214969Y-105535967D01*
X42230252Y-105518814D01*
X42235217Y-105513555D01*
X42279761Y-105469011D01*
X42342073Y-105434985D01*
X42412888Y-105440050D01*
X42469724Y-105482597D01*
X42490563Y-105525496D01*
X42502494Y-105570026D01*
X42506241Y-105580320D01*
X42595359Y-105771435D01*
X42600842Y-105780931D01*
X42631230Y-105824329D01*
X42641707Y-105832704D01*
X42655155Y-105825635D01*
X43610905Y-104869885D01*
X43673217Y-104835859D01*
X43744032Y-104840924D01*
G37*
%TD.AperFunction*%
%TA.AperFunction,Conductor*%
G36*
X81133621Y-106628492D02*
G01*
X81180114Y-106682148D01*
X81191500Y-106734490D01*
X81191500Y-107348134D01*
X81198255Y-107410316D01*
X81249385Y-107546705D01*
X81336739Y-107663261D01*
X81384660Y-107699176D01*
X81427173Y-107756033D01*
X81432199Y-107826851D01*
X81398139Y-107889145D01*
X81384670Y-107900817D01*
X81336739Y-107936739D01*
X81249385Y-108053295D01*
X81198255Y-108189684D01*
X81191500Y-108251866D01*
X81191500Y-108865510D01*
X81171498Y-108933631D01*
X81117842Y-108980124D01*
X81065500Y-108991510D01*
X78901331Y-108991510D01*
X78833210Y-108971508D01*
X78812236Y-108954605D01*
X76844381Y-106986750D01*
X76810355Y-106924438D01*
X76815420Y-106853623D01*
X76857967Y-106796787D01*
X76924487Y-106771976D01*
X76950140Y-106772762D01*
X77014179Y-106781307D01*
X77014184Y-106781307D01*
X77021161Y-106782238D01*
X77028172Y-106781600D01*
X77028176Y-106781600D01*
X77186483Y-106767192D01*
X77201800Y-106765798D01*
X77208502Y-106763620D01*
X77208504Y-106763620D01*
X77367609Y-106711924D01*
X77367612Y-106711923D01*
X77374308Y-106709747D01*
X77497300Y-106636429D01*
X77514357Y-106626261D01*
X77578874Y-106608490D01*
X81065500Y-106608490D01*
X81133621Y-106628492D01*
G37*
%TD.AperFunction*%
%TA.AperFunction,Conductor*%
G36*
X50935121Y-107487402D02*
G01*
X50981614Y-107541058D01*
X50993000Y-107593400D01*
X50993000Y-107849400D01*
X50972998Y-107917521D01*
X50919342Y-107964014D01*
X50867000Y-107975400D01*
X48675600Y-107975400D01*
X48607479Y-107955398D01*
X48560986Y-107901742D01*
X48549600Y-107849400D01*
X48549600Y-107593400D01*
X48569602Y-107525279D01*
X48623258Y-107478786D01*
X48675600Y-107467400D01*
X50867000Y-107467400D01*
X50935121Y-107487402D01*
G37*
%TD.AperFunction*%
%TA.AperFunction,Conductor*%
G36*
X47211534Y-97428502D02*
G01*
X47258027Y-97482158D01*
X47268131Y-97552432D01*
X47261395Y-97578730D01*
X47258522Y-97586395D01*
X47254895Y-97601649D01*
X47249369Y-97652514D01*
X47249000Y-97659328D01*
X47249000Y-98431885D01*
X47253475Y-98447124D01*
X47254865Y-98448329D01*
X47262548Y-98450000D01*
X51995840Y-98450000D01*
X52063961Y-98470002D01*
X52084935Y-98486905D01*
X53178550Y-99580520D01*
X53184404Y-99586785D01*
X53222439Y-99630385D01*
X53228657Y-99634755D01*
X53274697Y-99667112D01*
X53279993Y-99671045D01*
X53330282Y-99710477D01*
X53337201Y-99713601D01*
X53339452Y-99714964D01*
X53354185Y-99723368D01*
X53356524Y-99724622D01*
X53362739Y-99728990D01*
X53369815Y-99731749D01*
X53369819Y-99731751D01*
X53422274Y-99752202D01*
X53428352Y-99754757D01*
X53486574Y-99781045D01*
X53494045Y-99782429D01*
X53496599Y-99783230D01*
X53512878Y-99787867D01*
X53515433Y-99788523D01*
X53522509Y-99791282D01*
X53544705Y-99794204D01*
X53585851Y-99799621D01*
X53592367Y-99800653D01*
X53634706Y-99808500D01*
X53655187Y-99812296D01*
X53662767Y-99811859D01*
X53662768Y-99811859D01*
X53717398Y-99808709D01*
X53724651Y-99808500D01*
X53847007Y-99808500D01*
X53915128Y-99828502D01*
X53961621Y-99882158D01*
X53971725Y-99952432D01*
X53954267Y-100000616D01*
X53934996Y-100031880D01*
X53928849Y-100045061D01*
X53879509Y-100193814D01*
X53876642Y-100207190D01*
X53867328Y-100298097D01*
X53867000Y-100304514D01*
X53867000Y-100327885D01*
X53871475Y-100343124D01*
X53872865Y-100344329D01*
X53880548Y-100346000D01*
X54840510Y-100346000D01*
X54908631Y-100366002D01*
X54955124Y-100419658D01*
X54966510Y-100472000D01*
X54966510Y-102228000D01*
X54946508Y-102296121D01*
X54892852Y-102342614D01*
X54840510Y-102354000D01*
X53885116Y-102354000D01*
X53869877Y-102358475D01*
X53868672Y-102359865D01*
X53867001Y-102367548D01*
X53867001Y-102428705D01*
X53867264Y-102434454D01*
X53873132Y-102498315D01*
X53875741Y-102511345D01*
X53895783Y-102575300D01*
X53897066Y-102646285D01*
X53859768Y-102706695D01*
X53795731Y-102737351D01*
X53749350Y-102736224D01*
X53695951Y-102724873D01*
X53695942Y-102724872D01*
X53689487Y-102723500D01*
X53498513Y-102723500D01*
X53492061Y-102724872D01*
X53492056Y-102724872D01*
X53405113Y-102743353D01*
X53311712Y-102763206D01*
X53305682Y-102765891D01*
X53305681Y-102765891D01*
X53143278Y-102838197D01*
X53143276Y-102838198D01*
X53137248Y-102840882D01*
X53131907Y-102844762D01*
X53131906Y-102844763D01*
X53101947Y-102866530D01*
X52982747Y-102953134D01*
X52978326Y-102958044D01*
X52978325Y-102958045D01*
X52898305Y-103046917D01*
X52854960Y-103095056D01*
X52851659Y-103100774D01*
X52827018Y-103143453D01*
X52806994Y-103169548D01*
X52517947Y-103458595D01*
X52455635Y-103492621D01*
X52428852Y-103495500D01*
X51158866Y-103495500D01*
X51096684Y-103502255D01*
X50960295Y-103553385D01*
X50906131Y-103593979D01*
X50882148Y-103611953D01*
X50815642Y-103636801D01*
X50746259Y-103621748D01*
X50731018Y-103611953D01*
X50660648Y-103559214D01*
X50645054Y-103550676D01*
X50524606Y-103505522D01*
X50509351Y-103501895D01*
X50458486Y-103496369D01*
X50451672Y-103496000D01*
X49929115Y-103496000D01*
X49913876Y-103500475D01*
X49912671Y-103501865D01*
X49911000Y-103509548D01*
X49911000Y-106493884D01*
X49915475Y-106509123D01*
X49941137Y-106531360D01*
X49979520Y-106591086D01*
X49979520Y-106662083D01*
X49947797Y-106715602D01*
X49895261Y-106768229D01*
X49886247Y-106779643D01*
X49878491Y-106792225D01*
X49825719Y-106839718D01*
X49755647Y-106851140D01*
X49690523Y-106822866D01*
X49664088Y-106792412D01*
X49655534Y-106778590D01*
X49646501Y-106767192D01*
X49531771Y-106652661D01*
X49520357Y-106643647D01*
X49462885Y-106608221D01*
X49415391Y-106555450D01*
X49403000Y-106500961D01*
X49403000Y-103514116D01*
X49398525Y-103498877D01*
X49397135Y-103497672D01*
X49389452Y-103496001D01*
X48862331Y-103496001D01*
X48855510Y-103496371D01*
X48804648Y-103501895D01*
X48789396Y-103505521D01*
X48668946Y-103550676D01*
X48653352Y-103559214D01*
X48582982Y-103611953D01*
X48516476Y-103636801D01*
X48447093Y-103621748D01*
X48431852Y-103611953D01*
X48407869Y-103593979D01*
X48353705Y-103553385D01*
X48217316Y-103502255D01*
X48155134Y-103495500D01*
X46558866Y-103495500D01*
X46496684Y-103502255D01*
X46360295Y-103553385D01*
X46243739Y-103640739D01*
X46217757Y-103675407D01*
X46160898Y-103717920D01*
X46090080Y-103722945D01*
X46027787Y-103688885D01*
X46019443Y-103679111D01*
X46018704Y-103677831D01*
X46014287Y-103672925D01*
X46014283Y-103672920D01*
X45974253Y-103628462D01*
X45969969Y-103623447D01*
X45959548Y-103610579D01*
X45957472Y-103608015D01*
X45943436Y-103593979D01*
X45938895Y-103589194D01*
X45898856Y-103544726D01*
X45898855Y-103544725D01*
X45894434Y-103539815D01*
X45883574Y-103531925D01*
X45868545Y-103519088D01*
X45005404Y-102655946D01*
X44971379Y-102593634D01*
X44968500Y-102566851D01*
X44968500Y-101791866D01*
X44961745Y-101729684D01*
X44910615Y-101593295D01*
X44823261Y-101476739D01*
X44706705Y-101389385D01*
X44570316Y-101338255D01*
X44508134Y-101331500D01*
X42891866Y-101331500D01*
X42829684Y-101338255D01*
X42693295Y-101389385D01*
X42576739Y-101476739D01*
X42489385Y-101593295D01*
X42438255Y-101729684D01*
X42431500Y-101791866D01*
X42431500Y-102814340D01*
X42411498Y-102882461D01*
X42394600Y-102903430D01*
X42280072Y-103017958D01*
X42217764Y-103051981D01*
X42146948Y-103046917D01*
X42101885Y-103017956D01*
X41978490Y-102894561D01*
X41973980Y-102891403D01*
X41973974Y-102891398D01*
X41922230Y-102855167D01*
X41877901Y-102799711D01*
X41868500Y-102751954D01*
X41868500Y-100867548D01*
X53867000Y-100867548D01*
X53867000Y-100895438D01*
X53867337Y-100901953D01*
X53876894Y-100994057D01*
X53879788Y-101007456D01*
X53929381Y-101156107D01*
X53935555Y-101169286D01*
X54000490Y-101274220D01*
X54019328Y-101342672D01*
X54001122Y-101405795D01*
X53928921Y-101525012D01*
X53922715Y-101538757D01*
X53875744Y-101688644D01*
X53873131Y-101701694D01*
X53867266Y-101765521D01*
X53867000Y-101771309D01*
X53867000Y-101827885D01*
X53871475Y-101843124D01*
X53872865Y-101844329D01*
X53880548Y-101846000D01*
X54502885Y-101846000D01*
X54518124Y-101841525D01*
X54519329Y-101840135D01*
X54521000Y-101832452D01*
X54521000Y-101173905D01*
X54541002Y-101105784D01*
X54551775Y-101091393D01*
X54569329Y-101071135D01*
X54571000Y-101063452D01*
X54571000Y-100872115D01*
X54566525Y-100856876D01*
X54565135Y-100855671D01*
X54557452Y-100854000D01*
X53885115Y-100854000D01*
X53869876Y-100858475D01*
X53868671Y-100859865D01*
X53867000Y-100867548D01*
X41868500Y-100867548D01*
X41868500Y-99985660D01*
X41888502Y-99917539D01*
X41905405Y-99896565D01*
X42830422Y-98971548D01*
X47249001Y-98971548D01*
X47249001Y-99748669D01*
X47249371Y-99755490D01*
X47254895Y-99806352D01*
X47258521Y-99821604D01*
X47303676Y-99942054D01*
X47312214Y-99957649D01*
X47388715Y-100059724D01*
X47401276Y-100072285D01*
X47503351Y-100148786D01*
X47518946Y-100157324D01*
X47639394Y-100202478D01*
X47654649Y-100206105D01*
X47705514Y-100211631D01*
X47712328Y-100212000D01*
X49384885Y-100212000D01*
X49400124Y-100207525D01*
X49401329Y-100206135D01*
X49403000Y-100198452D01*
X49403000Y-98976115D01*
X49401659Y-98971548D01*
X49911000Y-98971548D01*
X49911000Y-100193884D01*
X49915475Y-100209123D01*
X49916865Y-100210328D01*
X49924548Y-100211999D01*
X51601669Y-100211999D01*
X51608490Y-100211629D01*
X51659352Y-100206105D01*
X51674604Y-100202479D01*
X51795054Y-100157324D01*
X51810649Y-100148786D01*
X51912724Y-100072285D01*
X51925285Y-100059724D01*
X52001786Y-99957649D01*
X52010324Y-99942054D01*
X52055478Y-99821606D01*
X52059105Y-99806351D01*
X52064631Y-99755486D01*
X52065000Y-99748672D01*
X52065000Y-98976115D01*
X52060525Y-98960876D01*
X52059135Y-98959671D01*
X52051452Y-98958000D01*
X49929115Y-98958000D01*
X49913876Y-98962475D01*
X49912671Y-98963865D01*
X49911000Y-98971548D01*
X49401659Y-98971548D01*
X49398525Y-98960876D01*
X49397135Y-98959671D01*
X49389452Y-98958000D01*
X47267116Y-98958000D01*
X47251877Y-98962475D01*
X47250672Y-98963865D01*
X47249001Y-98971548D01*
X42830422Y-98971548D01*
X44356565Y-97445405D01*
X44418877Y-97411379D01*
X44445660Y-97408500D01*
X47143413Y-97408500D01*
X47211534Y-97428502D01*
G37*
%TD.AperFunction*%
%TA.AperFunction,Conductor*%
G36*
X73249170Y-102684501D02*
G01*
X73270144Y-102701404D01*
X74626355Y-104057615D01*
X74634345Y-104066395D01*
X74638594Y-104073090D01*
X74644372Y-104078516D01*
X74644373Y-104078517D01*
X74690267Y-104121614D01*
X74693109Y-104124369D01*
X74713677Y-104144937D01*
X74717180Y-104147654D01*
X74726205Y-104155362D01*
X74759877Y-104186982D01*
X74766828Y-104190803D01*
X74766829Y-104190804D01*
X74778668Y-104197313D01*
X74795192Y-104208167D01*
X74804493Y-104215381D01*
X74812142Y-104221314D01*
X74819414Y-104224461D01*
X74819416Y-104224462D01*
X74854545Y-104239664D01*
X74865205Y-104244886D01*
X74877447Y-104251616D01*
X74905673Y-104267134D01*
X74926451Y-104272469D01*
X74945141Y-104278868D01*
X74964834Y-104287390D01*
X75008606Y-104294323D01*
X75010458Y-104294616D01*
X75022081Y-104297023D01*
X75050082Y-104304212D01*
X75066822Y-104308510D01*
X75088269Y-104308510D01*
X75107979Y-104310061D01*
X75129162Y-104313416D01*
X75175151Y-104309069D01*
X75187006Y-104308510D01*
X81065500Y-104308510D01*
X81133621Y-104328512D01*
X81180114Y-104382168D01*
X81191500Y-104434510D01*
X81191500Y-105265490D01*
X81171498Y-105333611D01*
X81117842Y-105380104D01*
X81065500Y-105391490D01*
X77656841Y-105391490D01*
X77588720Y-105371488D01*
X77567435Y-105354274D01*
X77552978Y-105339715D01*
X77552974Y-105339712D01*
X77548015Y-105334718D01*
X77536897Y-105327662D01*
X77470751Y-105285685D01*
X77394866Y-105237527D01*
X77365663Y-105227128D01*
X77230625Y-105179043D01*
X77230620Y-105179042D01*
X77223990Y-105176681D01*
X77217002Y-105175848D01*
X77216999Y-105175847D01*
X77093898Y-105161168D01*
X77043880Y-105155204D01*
X77036877Y-105155940D01*
X77036876Y-105155940D01*
X76870488Y-105173428D01*
X76870486Y-105173429D01*
X76863488Y-105174164D01*
X76691779Y-105232618D01*
X76685775Y-105236312D01*
X76543295Y-105323966D01*
X76543292Y-105323968D01*
X76537288Y-105327662D01*
X76532253Y-105332593D01*
X76532250Y-105332595D01*
X76426074Y-105436571D01*
X76407693Y-105454571D01*
X76309435Y-105607038D01*
X76307026Y-105613658D01*
X76307024Y-105613661D01*
X76255728Y-105754595D01*
X76247397Y-105777485D01*
X76224663Y-105957440D01*
X76229350Y-106005241D01*
X76234850Y-106061335D01*
X76221590Y-106131082D01*
X76172728Y-106182589D01*
X76103775Y-106199502D01*
X76036625Y-106176452D01*
X76020356Y-106162725D01*
X72737225Y-102879594D01*
X72703199Y-102817282D01*
X72708264Y-102746467D01*
X72750811Y-102689631D01*
X72817331Y-102664820D01*
X72826320Y-102664499D01*
X73181049Y-102664499D01*
X73249170Y-102684501D01*
G37*
%TD.AperFunction*%
%TA.AperFunction,Conductor*%
G36*
X65071121Y-103266002D02*
G01*
X65117614Y-103319658D01*
X65129000Y-103372000D01*
X65129000Y-104464884D01*
X65133475Y-104480123D01*
X65134865Y-104481328D01*
X65139294Y-104482291D01*
X65198315Y-104476868D01*
X65211351Y-104474257D01*
X65361243Y-104427285D01*
X65374988Y-104421079D01*
X65508574Y-104340176D01*
X65520443Y-104330869D01*
X65610551Y-104240761D01*
X65672863Y-104206735D01*
X65743678Y-104211800D01*
X65788741Y-104240761D01*
X65884619Y-104336639D01*
X65891120Y-104340576D01*
X65895692Y-104344161D01*
X65936957Y-104401934D01*
X65940437Y-104472845D01*
X65907041Y-104532410D01*
X65153766Y-105285685D01*
X65141375Y-105296552D01*
X65116013Y-105316013D01*
X65091526Y-105347925D01*
X65091523Y-105347928D01*
X65091517Y-105347936D01*
X65025093Y-105434501D01*
X65018476Y-105443124D01*
X64972857Y-105553259D01*
X64928309Y-105608540D01*
X64860946Y-105630961D01*
X64792154Y-105613403D01*
X64767353Y-105594136D01*
X64645467Y-105472250D01*
X64611441Y-105409938D01*
X64616506Y-105339123D01*
X64629614Y-105313428D01*
X64681613Y-105235162D01*
X64723643Y-105171902D01*
X64788055Y-105002338D01*
X64813299Y-104822717D01*
X64813616Y-104800000D01*
X64793397Y-104619745D01*
X64782909Y-104589627D01*
X64736064Y-104455106D01*
X64736062Y-104455103D01*
X64733745Y-104448448D01*
X64640146Y-104298657D01*
X64621000Y-104231888D01*
X64621000Y-103372000D01*
X64641002Y-103303879D01*
X64694658Y-103257386D01*
X64747000Y-103246000D01*
X65003000Y-103246000D01*
X65071121Y-103266002D01*
G37*
%TD.AperFunction*%
%TA.AperFunction,Conductor*%
G36*
X62513881Y-100878502D02*
G01*
X62534855Y-100895404D01*
X63354595Y-101715143D01*
X63388620Y-101777456D01*
X63391500Y-101804239D01*
X63391500Y-101865500D01*
X63371498Y-101933621D01*
X63317842Y-101980114D01*
X63265500Y-101991500D01*
X62434500Y-101991500D01*
X62366379Y-101971498D01*
X62319886Y-101917842D01*
X62308500Y-101865500D01*
X62308500Y-101633498D01*
X62305562Y-101596169D01*
X62269342Y-101471498D01*
X62261357Y-101444012D01*
X62261356Y-101444010D01*
X62259145Y-101436399D01*
X62218327Y-101367379D01*
X62178491Y-101300020D01*
X62178489Y-101300017D01*
X62174453Y-101293193D01*
X62056807Y-101175547D01*
X62027901Y-101158452D01*
X61979450Y-101106560D01*
X61966745Y-101036709D01*
X61993821Y-100971079D01*
X62027901Y-100941548D01*
X62056807Y-100924453D01*
X62085855Y-100895405D01*
X62148167Y-100861379D01*
X62174950Y-100858500D01*
X62445760Y-100858500D01*
X62513881Y-100878502D01*
G37*
%TD.AperFunction*%
%TA.AperFunction,Conductor*%
G36*
X57983549Y-97978492D02*
G01*
X58030042Y-98032148D01*
X58040146Y-98102422D01*
X58038541Y-98109851D01*
X58037610Y-98112002D01*
X58033814Y-98135968D01*
X58030384Y-98157626D01*
X58027977Y-98169249D01*
X58026622Y-98174528D01*
X58016490Y-98213990D01*
X58016490Y-98235437D01*
X58014939Y-98255147D01*
X58011584Y-98276330D01*
X58012330Y-98284221D01*
X58015931Y-98322316D01*
X58016490Y-98334174D01*
X58016490Y-101067934D01*
X58015931Y-101079790D01*
X58014202Y-101087527D01*
X58014451Y-101095449D01*
X58016428Y-101158359D01*
X58016490Y-101162317D01*
X58016490Y-101191422D01*
X58017046Y-101195822D01*
X58017978Y-101207654D01*
X58019428Y-101253821D01*
X58025245Y-101273841D01*
X58025409Y-101274406D01*
X58029420Y-101293772D01*
X58032108Y-101315054D01*
X58035024Y-101322419D01*
X58036997Y-101330103D01*
X58034776Y-101330673D01*
X58040194Y-101389823D01*
X58007418Y-101452802D01*
X57945796Y-101488062D01*
X57916564Y-101491500D01*
X57322365Y-101491500D01*
X57254244Y-101471498D01*
X57214588Y-101430769D01*
X57199510Y-101405871D01*
X57181332Y-101337241D01*
X57200027Y-101274486D01*
X57265462Y-101168331D01*
X57265463Y-101168329D01*
X57269302Y-101162101D01*
X57323149Y-100999757D01*
X57333500Y-100898732D01*
X57333500Y-100301268D01*
X57322887Y-100198981D01*
X57307232Y-100152059D01*
X57271073Y-100043676D01*
X57271072Y-100043674D01*
X57268756Y-100036732D01*
X57200094Y-99925776D01*
X57181258Y-99857326D01*
X57199464Y-99794204D01*
X57275472Y-99668699D01*
X57278996Y-99657456D01*
X57301384Y-99586014D01*
X57326753Y-99505062D01*
X57333500Y-99431635D01*
X57333499Y-98768366D01*
X57331564Y-98747297D01*
X57327364Y-98701592D01*
X57326753Y-98694938D01*
X57321967Y-98679666D01*
X57277744Y-98538550D01*
X57277743Y-98538548D01*
X57275472Y-98531301D01*
X57205202Y-98415270D01*
X57187023Y-98346642D01*
X57205202Y-98284729D01*
X57223118Y-98255147D01*
X57275472Y-98168699D01*
X57313670Y-98046810D01*
X57353128Y-97987788D01*
X57418232Y-97959468D01*
X57433904Y-97958490D01*
X57915428Y-97958490D01*
X57983549Y-97978492D01*
G37*
%TD.AperFunction*%
%TA.AperFunction,Conductor*%
G36*
X69650865Y-96693250D02*
G01*
X69684844Y-96712889D01*
X69686982Y-96715102D01*
X69692872Y-96718956D01*
X69692874Y-96718958D01*
X69832863Y-96810564D01*
X69838759Y-96814422D01*
X69845363Y-96816878D01*
X69845365Y-96816879D01*
X70002158Y-96875190D01*
X70002160Y-96875190D01*
X70008768Y-96877648D01*
X70092595Y-96888833D01*
X70181580Y-96900707D01*
X70181584Y-96900707D01*
X70188561Y-96901638D01*
X70195572Y-96901000D01*
X70195576Y-96901000D01*
X70232484Y-96897641D01*
X70240631Y-96896899D01*
X70310284Y-96910644D01*
X70361449Y-96959865D01*
X70377880Y-97028934D01*
X70361170Y-97085380D01*
X70321874Y-97153443D01*
X70262859Y-97335071D01*
X70262169Y-97341632D01*
X70262169Y-97341634D01*
X70245472Y-97500500D01*
X70218459Y-97566157D01*
X70160237Y-97606787D01*
X70091700Y-97609985D01*
X70085790Y-97607881D01*
X69905680Y-97586404D01*
X69898677Y-97587140D01*
X69898676Y-97587140D01*
X69732288Y-97604628D01*
X69732286Y-97604629D01*
X69725288Y-97605364D01*
X69553579Y-97663818D01*
X69547575Y-97667512D01*
X69405095Y-97755166D01*
X69405092Y-97755168D01*
X69399088Y-97758862D01*
X69394053Y-97763793D01*
X69394050Y-97763795D01*
X69274525Y-97880843D01*
X69269493Y-97885771D01*
X69171235Y-98038238D01*
X69168826Y-98044858D01*
X69168824Y-98044861D01*
X69121629Y-98174528D01*
X69109197Y-98208685D01*
X69086463Y-98388640D01*
X69104163Y-98569160D01*
X69161418Y-98741273D01*
X69165065Y-98747295D01*
X69165066Y-98747297D01*
X69249309Y-98886399D01*
X69255380Y-98896424D01*
X69260269Y-98901487D01*
X69260270Y-98901488D01*
X69314844Y-98958000D01*
X69381382Y-99026902D01*
X69412720Y-99047409D01*
X69522100Y-99118985D01*
X69533159Y-99126222D01*
X69539763Y-99128678D01*
X69539765Y-99128679D01*
X69696558Y-99186990D01*
X69696560Y-99186990D01*
X69703168Y-99189448D01*
X69786995Y-99200633D01*
X69875980Y-99212507D01*
X69875984Y-99212507D01*
X69882961Y-99213438D01*
X69889972Y-99212800D01*
X69889976Y-99212800D01*
X70032459Y-99199832D01*
X70063600Y-99196998D01*
X70070302Y-99194820D01*
X70070304Y-99194820D01*
X70229409Y-99143124D01*
X70229412Y-99143123D01*
X70236108Y-99140947D01*
X70391912Y-99048069D01*
X70397013Y-99043212D01*
X70402626Y-99038951D01*
X70403385Y-99039952D01*
X70460090Y-99010762D01*
X70483860Y-99008500D01*
X71695761Y-99008500D01*
X71763882Y-99028502D01*
X71784856Y-99045405D01*
X73959047Y-101219596D01*
X73993073Y-101281908D01*
X73988008Y-101352723D01*
X73945461Y-101409559D01*
X73878941Y-101434370D01*
X73819910Y-101424327D01*
X73801463Y-101416344D01*
X73790804Y-101411123D01*
X73757283Y-101392694D01*
X73757281Y-101392693D01*
X73750336Y-101388875D01*
X73729558Y-101383540D01*
X73710868Y-101377141D01*
X73691175Y-101368619D01*
X73645551Y-101361393D01*
X73633928Y-101358986D01*
X73605927Y-101351797D01*
X73589187Y-101347499D01*
X73567740Y-101347499D01*
X73548030Y-101345948D01*
X73534676Y-101343833D01*
X73526847Y-101342593D01*
X73480858Y-101346940D01*
X73469003Y-101347499D01*
X70614941Y-101347499D01*
X70546820Y-101327497D01*
X70500327Y-101273841D01*
X70490223Y-101203567D01*
X70491571Y-101195993D01*
X70493542Y-101189928D01*
X70513504Y-101000000D01*
X70503197Y-100901930D01*
X70494232Y-100816635D01*
X70494232Y-100816633D01*
X70493542Y-100810072D01*
X70434527Y-100628444D01*
X70339040Y-100463056D01*
X70276829Y-100393963D01*
X70215675Y-100326045D01*
X70215674Y-100326044D01*
X70211253Y-100321134D01*
X70093207Y-100235368D01*
X70062094Y-100212763D01*
X70062093Y-100212762D01*
X70056752Y-100208882D01*
X70050724Y-100206198D01*
X70050722Y-100206197D01*
X69888319Y-100133891D01*
X69888318Y-100133891D01*
X69882288Y-100131206D01*
X69786667Y-100110881D01*
X69701944Y-100092872D01*
X69701939Y-100092872D01*
X69695487Y-100091500D01*
X69504513Y-100091500D01*
X69498061Y-100092872D01*
X69498056Y-100092872D01*
X69413333Y-100110881D01*
X69317712Y-100131206D01*
X69311682Y-100133891D01*
X69311681Y-100133891D01*
X69149278Y-100206197D01*
X69149276Y-100206198D01*
X69143248Y-100208882D01*
X69137907Y-100212762D01*
X69137906Y-100212763D01*
X69062656Y-100267436D01*
X68995789Y-100291294D01*
X68988595Y-100291500D01*
X67756288Y-100291500D01*
X67688167Y-100271498D01*
X67641674Y-100217842D01*
X67631570Y-100147568D01*
X67661064Y-100082988D01*
X67692149Y-100057047D01*
X67824980Y-99978491D01*
X67824983Y-99978489D01*
X67831807Y-99974453D01*
X67949453Y-99856807D01*
X67953489Y-99849983D01*
X67953491Y-99849980D01*
X68030108Y-99720427D01*
X68034145Y-99713601D01*
X68036935Y-99704000D01*
X68071212Y-99586014D01*
X68080562Y-99553831D01*
X68082165Y-99533475D01*
X68083307Y-99518958D01*
X68083307Y-99518950D01*
X68083500Y-99516502D01*
X68083500Y-99083498D01*
X68083050Y-99077776D01*
X68081067Y-99052579D01*
X68081066Y-99052574D01*
X68080562Y-99046169D01*
X68048750Y-98936671D01*
X68036357Y-98894012D01*
X68036356Y-98894010D01*
X68034145Y-98886399D01*
X68003494Y-98834571D01*
X67953491Y-98750020D01*
X67953489Y-98750017D01*
X67949453Y-98743193D01*
X67831807Y-98625547D01*
X67824980Y-98621510D01*
X67821589Y-98618879D01*
X67780024Y-98561321D01*
X67776175Y-98490429D01*
X67809723Y-98430226D01*
X69517738Y-96722211D01*
X69580050Y-96688185D01*
X69650865Y-96693250D01*
G37*
%TD.AperFunction*%
%TA.AperFunction,Conductor*%
G36*
X77026769Y-98428501D02*
G01*
X77073262Y-98482157D01*
X77083366Y-98552431D01*
X77065908Y-98600615D01*
X76984996Y-98731880D01*
X76978849Y-98745061D01*
X76929509Y-98893814D01*
X76926642Y-98907190D01*
X76917328Y-98998097D01*
X76917071Y-99003126D01*
X76921475Y-99018124D01*
X76922865Y-99019329D01*
X76930548Y-99021000D01*
X78797000Y-99021000D01*
X78865121Y-99041002D01*
X78911614Y-99094658D01*
X78923000Y-99147000D01*
X78923000Y-99177885D01*
X78927475Y-99193124D01*
X78928865Y-99194329D01*
X78936548Y-99196000D01*
X81114884Y-99196000D01*
X81130123Y-99191525D01*
X81131328Y-99190135D01*
X81132999Y-99182452D01*
X81132999Y-99152905D01*
X81132662Y-99146386D01*
X81122743Y-99050794D01*
X81119851Y-99037400D01*
X81104334Y-98990890D01*
X81101750Y-98919941D01*
X81137933Y-98858857D01*
X81201397Y-98827032D01*
X81271993Y-98834571D01*
X81307499Y-98856956D01*
X81308015Y-98857472D01*
X81320358Y-98867467D01*
X81323443Y-98869966D01*
X81328453Y-98874246D01*
X81372921Y-98914284D01*
X81372926Y-98914288D01*
X81377831Y-98918704D01*
X81383543Y-98922002D01*
X81383546Y-98922004D01*
X81389446Y-98925410D01*
X81405742Y-98936610D01*
X81416161Y-98945047D01*
X81475363Y-98975213D01*
X81481133Y-98978346D01*
X81532945Y-99008260D01*
X81532950Y-99008262D01*
X81538669Y-99011564D01*
X81544949Y-99013605D01*
X81544957Y-99013608D01*
X81551421Y-99015708D01*
X81569683Y-99023272D01*
X81575749Y-99026363D01*
X81575758Y-99026366D01*
X81581637Y-99029362D01*
X81588015Y-99031071D01*
X81645804Y-99046556D01*
X81652106Y-99048422D01*
X81715298Y-99068954D01*
X81728205Y-99070311D01*
X81728628Y-99070355D01*
X81748071Y-99073958D01*
X81761029Y-99077430D01*
X81767619Y-99077775D01*
X81767623Y-99077776D01*
X81811573Y-99080079D01*
X81827372Y-99080907D01*
X81833931Y-99081423D01*
X81853694Y-99083500D01*
X81873555Y-99083500D01*
X81880150Y-99083673D01*
X81939902Y-99086805D01*
X81939906Y-99086805D01*
X81946493Y-99087150D01*
X81959747Y-99085051D01*
X81979456Y-99083500D01*
X82965500Y-99083500D01*
X83033621Y-99103502D01*
X83080114Y-99157158D01*
X83091500Y-99209500D01*
X83091500Y-99498134D01*
X83098255Y-99560316D01*
X83106462Y-99582207D01*
X83121106Y-99621270D01*
X83126289Y-99692077D01*
X83092369Y-99754446D01*
X83030113Y-99788575D01*
X83003124Y-99791500D01*
X81651866Y-99791500D01*
X81589684Y-99798255D01*
X81453295Y-99849385D01*
X81336739Y-99936739D01*
X81335653Y-99938188D01*
X81276504Y-99970487D01*
X81205689Y-99965422D01*
X81148853Y-99922875D01*
X81124042Y-99856355D01*
X81124377Y-99834523D01*
X81132672Y-99753560D01*
X81133000Y-99747146D01*
X81133000Y-99722115D01*
X81128525Y-99706876D01*
X81127135Y-99705671D01*
X81119452Y-99704000D01*
X80172115Y-99704000D01*
X80156876Y-99708475D01*
X80155671Y-99709865D01*
X80154000Y-99717548D01*
X80154000Y-100439884D01*
X80158475Y-100455123D01*
X80159865Y-100456328D01*
X80167548Y-100457999D01*
X80422095Y-100457999D01*
X80428614Y-100457662D01*
X80524206Y-100447743D01*
X80537600Y-100444851D01*
X80691784Y-100393412D01*
X80704962Y-100387239D01*
X80842807Y-100301937D01*
X80854208Y-100292901D01*
X80973910Y-100172991D01*
X80975488Y-100174566D01*
X81024544Y-100139791D01*
X81095467Y-100136564D01*
X81156876Y-100172194D01*
X81189274Y-100235368D01*
X81191500Y-100258949D01*
X81191500Y-100965500D01*
X81171498Y-101033621D01*
X81117842Y-101080114D01*
X81065500Y-101091500D01*
X75604239Y-101091500D01*
X75536118Y-101071498D01*
X75515144Y-101054595D01*
X74003097Y-99542548D01*
X76917000Y-99542548D01*
X76917000Y-99545438D01*
X76917337Y-99551953D01*
X76926894Y-99644057D01*
X76929788Y-99657456D01*
X76979381Y-99806107D01*
X76985555Y-99819286D01*
X77067788Y-99952173D01*
X77076824Y-99963574D01*
X77187429Y-100073986D01*
X77198840Y-100082998D01*
X77331880Y-100165004D01*
X77345061Y-100171151D01*
X77493814Y-100220491D01*
X77507190Y-100223358D01*
X77598097Y-100232672D01*
X77604513Y-100233000D01*
X77627885Y-100233000D01*
X77643124Y-100228525D01*
X77644329Y-100227135D01*
X77646000Y-100219452D01*
X77646000Y-99547115D01*
X77644659Y-99542548D01*
X78154000Y-99542548D01*
X78154000Y-100214885D01*
X78158475Y-100230124D01*
X78159865Y-100231329D01*
X78167548Y-100233000D01*
X78195438Y-100233000D01*
X78201953Y-100232663D01*
X78294057Y-100223106D01*
X78307456Y-100220212D01*
X78456107Y-100170619D01*
X78469286Y-100164445D01*
X78602178Y-100082209D01*
X78603914Y-100080833D01*
X78605323Y-100080263D01*
X78608401Y-100078358D01*
X78608727Y-100078885D01*
X78669725Y-100054198D01*
X78739489Y-100067371D01*
X78789319Y-100113278D01*
X78823063Y-100167807D01*
X78832099Y-100179208D01*
X78946829Y-100293739D01*
X78958240Y-100302751D01*
X79096243Y-100387816D01*
X79109424Y-100393963D01*
X79263710Y-100445138D01*
X79277086Y-100448005D01*
X79371438Y-100457672D01*
X79377854Y-100458000D01*
X79627885Y-100458000D01*
X79643124Y-100453525D01*
X79644329Y-100452135D01*
X79646000Y-100444452D01*
X79646000Y-99722115D01*
X79641525Y-99706876D01*
X79640135Y-99705671D01*
X79632452Y-99704000D01*
X78753000Y-99704000D01*
X78684879Y-99683998D01*
X78638386Y-99630342D01*
X78627000Y-99578000D01*
X78627000Y-99547115D01*
X78622525Y-99531876D01*
X78621135Y-99530671D01*
X78613452Y-99529000D01*
X78172115Y-99529000D01*
X78156876Y-99533475D01*
X78155671Y-99534865D01*
X78154000Y-99542548D01*
X77644659Y-99542548D01*
X77641525Y-99531876D01*
X77640135Y-99530671D01*
X77632452Y-99529000D01*
X76935115Y-99529000D01*
X76919876Y-99533475D01*
X76918671Y-99534865D01*
X76917000Y-99542548D01*
X74003097Y-99542548D01*
X73084143Y-98623594D01*
X73050117Y-98561282D01*
X73055182Y-98490467D01*
X73097729Y-98433631D01*
X73164249Y-98408820D01*
X73173238Y-98408499D01*
X76958648Y-98408499D01*
X77026769Y-98428501D01*
G37*
%TD.AperFunction*%
%TA.AperFunction,Conductor*%
G36*
X65533621Y-99178502D02*
G01*
X65580114Y-99232158D01*
X65591500Y-99284500D01*
X65591500Y-99316000D01*
X65571498Y-99384121D01*
X65517842Y-99430614D01*
X65465500Y-99442000D01*
X65234615Y-99442000D01*
X65219376Y-99446475D01*
X65218171Y-99447865D01*
X65216500Y-99455548D01*
X65216500Y-100378000D01*
X65196498Y-100446121D01*
X65142842Y-100492614D01*
X65090500Y-100504000D01*
X64834500Y-100504000D01*
X64766379Y-100483998D01*
X64719886Y-100430342D01*
X64708500Y-100378000D01*
X64708500Y-99460116D01*
X64704025Y-99444877D01*
X64702635Y-99443672D01*
X64694952Y-99442001D01*
X64309500Y-99442001D01*
X64241379Y-99421999D01*
X64194886Y-99368343D01*
X64183500Y-99316001D01*
X64183500Y-99284500D01*
X64203502Y-99216379D01*
X64257158Y-99169886D01*
X64309500Y-99158500D01*
X65465500Y-99158500D01*
X65533621Y-99178502D01*
G37*
%TD.AperFunction*%
%TA.AperFunction,Conductor*%
G36*
X63662274Y-97978492D02*
G01*
X63708767Y-98032148D01*
X63716719Y-98095955D01*
X63719438Y-98096169D01*
X63716500Y-98133498D01*
X63716500Y-98365500D01*
X63696498Y-98433621D01*
X63642842Y-98480114D01*
X63590500Y-98491500D01*
X62434500Y-98491500D01*
X62366379Y-98471498D01*
X62319886Y-98417842D01*
X62308500Y-98365500D01*
X62308500Y-98133498D01*
X62305562Y-98096169D01*
X62308067Y-98095972D01*
X62314347Y-98036492D01*
X62358790Y-97981127D01*
X62430847Y-97958490D01*
X63594153Y-97958490D01*
X63662274Y-97978492D01*
G37*
%TD.AperFunction*%
%TA.AperFunction,Conductor*%
G36*
X53904552Y-96828502D02*
G01*
X53951045Y-96882158D01*
X53961149Y-96952432D01*
X53944207Y-96999771D01*
X53928923Y-97025008D01*
X53922715Y-97038757D01*
X53875744Y-97188644D01*
X53873131Y-97201694D01*
X53867266Y-97265521D01*
X53867000Y-97271309D01*
X53867000Y-97327885D01*
X53871475Y-97343124D01*
X53872865Y-97344329D01*
X53880548Y-97346000D01*
X54740510Y-97346000D01*
X54808631Y-97366002D01*
X54855124Y-97419658D01*
X54866510Y-97472000D01*
X54866510Y-97728000D01*
X54846508Y-97796121D01*
X54792852Y-97842614D01*
X54740510Y-97854000D01*
X53885116Y-97854000D01*
X53869877Y-97858475D01*
X53868672Y-97859865D01*
X53867001Y-97867548D01*
X53867001Y-97928705D01*
X53867265Y-97934470D01*
X53868847Y-97951685D01*
X53855163Y-98021350D01*
X53805987Y-98072558D01*
X53736932Y-98089050D01*
X53669924Y-98065591D01*
X53654281Y-98052310D01*
X52625565Y-97023595D01*
X52591540Y-96961283D01*
X52596604Y-96890468D01*
X52639151Y-96833632D01*
X52705671Y-96808821D01*
X52714660Y-96808500D01*
X53836431Y-96808500D01*
X53904552Y-96828502D01*
G37*
%TD.AperFunction*%
%TA.AperFunction,Conductor*%
G36*
X71219949Y-90805001D02*
G01*
X71345712Y-90860994D01*
X71406223Y-90873856D01*
X71526056Y-90899328D01*
X71526061Y-90899328D01*
X71532513Y-90900700D01*
X71623761Y-90900700D01*
X71691882Y-90920702D01*
X71712856Y-90937605D01*
X75371485Y-94596234D01*
X75382352Y-94608625D01*
X75401813Y-94633987D01*
X75408363Y-94639013D01*
X75433721Y-94658471D01*
X75433737Y-94658485D01*
X75483105Y-94696366D01*
X75528924Y-94731524D01*
X75676949Y-94792838D01*
X75685136Y-94793916D01*
X75685137Y-94793916D01*
X75696342Y-94795391D01*
X75718150Y-94798262D01*
X75795915Y-94808500D01*
X75795918Y-94808500D01*
X75795926Y-94808501D01*
X75827611Y-94812672D01*
X75835800Y-94813750D01*
X75867493Y-94809578D01*
X75883936Y-94808500D01*
X95195761Y-94808500D01*
X95263882Y-94828502D01*
X95284856Y-94845405D01*
X96665856Y-96226405D01*
X96699882Y-96288717D01*
X96694817Y-96359532D01*
X96652270Y-96416368D01*
X96585750Y-96441179D01*
X96576761Y-96441500D01*
X95551866Y-96441500D01*
X95548469Y-96441869D01*
X95497534Y-96447402D01*
X95497532Y-96447402D01*
X95489684Y-96448255D01*
X95482290Y-96451027D01*
X95474766Y-96452816D01*
X95403866Y-96449115D01*
X95345658Y-96406940D01*
X95333997Y-96391743D01*
X95327442Y-96386713D01*
X95308631Y-96372278D01*
X95296240Y-96361411D01*
X94638595Y-95703766D01*
X94627728Y-95691375D01*
X94613293Y-95672563D01*
X94608267Y-95666013D01*
X94576355Y-95641526D01*
X94576352Y-95641523D01*
X94481156Y-95568476D01*
X94333131Y-95507162D01*
X94324944Y-95506084D01*
X94324943Y-95506084D01*
X94313738Y-95504609D01*
X94282542Y-95500502D01*
X94214165Y-95491500D01*
X94214162Y-95491500D01*
X94214154Y-95491499D01*
X94182469Y-95487328D01*
X94174280Y-95486250D01*
X94142587Y-95490422D01*
X94126144Y-95491500D01*
X71037510Y-95491500D01*
X70969389Y-95471498D01*
X70922896Y-95417842D01*
X70912792Y-95347568D01*
X70937546Y-95288798D01*
X70965724Y-95252076D01*
X71027038Y-95104051D01*
X71047951Y-94945200D01*
X71043778Y-94913501D01*
X71042700Y-94897056D01*
X71042700Y-90920108D01*
X71062702Y-90851987D01*
X71116358Y-90805494D01*
X71186632Y-90795390D01*
X71219949Y-90805001D01*
G37*
%TD.AperFunction*%
%TA.AperFunction,Conductor*%
G36*
X56788872Y-87553492D02*
G01*
X56809846Y-87570395D01*
X63815856Y-94576405D01*
X63849882Y-94638717D01*
X63844817Y-94709532D01*
X63802270Y-94766368D01*
X63735750Y-94791179D01*
X63726761Y-94791500D01*
X51660517Y-94791500D01*
X51592396Y-94771498D01*
X51545903Y-94717842D01*
X51535799Y-94647568D01*
X51565293Y-94582988D01*
X51621582Y-94545667D01*
X51629406Y-94543125D01*
X51629409Y-94543124D01*
X51636108Y-94540947D01*
X51791912Y-94448069D01*
X51923266Y-94322982D01*
X52023643Y-94171902D01*
X52088055Y-94002338D01*
X52113299Y-93822717D01*
X52113616Y-93800000D01*
X52093397Y-93619745D01*
X52076596Y-93571498D01*
X52036064Y-93455106D01*
X52036062Y-93455103D01*
X52033745Y-93448448D01*
X52030009Y-93442469D01*
X51941359Y-93300598D01*
X51937626Y-93294624D01*
X51909120Y-93265918D01*
X51814778Y-93170915D01*
X51814774Y-93170912D01*
X51809815Y-93165918D01*
X51802928Y-93161547D01*
X51709772Y-93102429D01*
X51656666Y-93068727D01*
X51591698Y-93045593D01*
X51492425Y-93010243D01*
X51492420Y-93010242D01*
X51485790Y-93007881D01*
X51478802Y-93007048D01*
X51478799Y-93007047D01*
X51355698Y-92992368D01*
X51305680Y-92986404D01*
X51298677Y-92987140D01*
X51298676Y-92987140D01*
X51132288Y-93004628D01*
X51132286Y-93004629D01*
X51125288Y-93005364D01*
X51064652Y-93026006D01*
X50993721Y-93029024D01*
X50932417Y-92993214D01*
X50924097Y-92983446D01*
X50910720Y-92966013D01*
X50858477Y-92897928D01*
X50858474Y-92897925D01*
X50833987Y-92866013D01*
X50827432Y-92860983D01*
X50808621Y-92846548D01*
X50796230Y-92835681D01*
X49732905Y-91772356D01*
X49698879Y-91710044D01*
X49696000Y-91683261D01*
X49696000Y-88640532D01*
X49716002Y-88572411D01*
X49749719Y-88539263D01*
X49749092Y-88538472D01*
X49754835Y-88533920D01*
X49761055Y-88530071D01*
X49880864Y-88410053D01*
X49969849Y-88265692D01*
X49974439Y-88251853D01*
X50021072Y-88111262D01*
X50021072Y-88111260D01*
X50023238Y-88104731D01*
X50033500Y-88004572D01*
X50033500Y-87659490D01*
X50053502Y-87591369D01*
X50107158Y-87544876D01*
X50159500Y-87533490D01*
X56720751Y-87533490D01*
X56788872Y-87553492D01*
G37*
%TD.AperFunction*%
%TA.AperFunction,Conductor*%
G36*
X65186333Y-91446882D02*
G01*
X66651917Y-92912466D01*
X66685943Y-92974778D01*
X66680878Y-93045593D01*
X66638331Y-93102429D01*
X66571811Y-93127240D01*
X66520558Y-93120261D01*
X66485790Y-93107881D01*
X66478802Y-93107048D01*
X66478799Y-93107047D01*
X66355698Y-93092368D01*
X66305680Y-93086404D01*
X66298677Y-93087140D01*
X66298676Y-93087140D01*
X66132288Y-93104628D01*
X66132286Y-93104629D01*
X66125288Y-93105364D01*
X65953579Y-93163818D01*
X65799088Y-93258862D01*
X65794054Y-93263791D01*
X65792776Y-93264790D01*
X65726782Y-93290967D01*
X65715204Y-93291500D01*
X64904239Y-93291500D01*
X64836118Y-93271498D01*
X64815144Y-93254595D01*
X63232144Y-91671595D01*
X63198118Y-91609283D01*
X63203183Y-91538468D01*
X63245730Y-91481632D01*
X63312250Y-91456821D01*
X63321239Y-91456500D01*
X64906134Y-91456500D01*
X64968316Y-91449745D01*
X65053009Y-91417995D01*
X65123815Y-91412812D01*
X65186333Y-91446882D01*
G37*
%TD.AperFunction*%
%TD*%
M02*
