%FSLAX45Y45*%
G04 Gerber Fmt 4.5, Leading zero omitted, Abs format (unit mm)*
G04 Created by KiCad (PCBNEW 5.99.0-unknown-4e273827f0~131~ubuntu20.04.1) date 2021-08-17 12:47:08*
%MOMM*%
%LPD*%
G01*
G04 APERTURE LIST*
%TA.AperFunction,Profile*%
%ADD10C,0.100000*%
%TD*%
%ADD11C,0.200000*%
%ADD12C,0.030000*%
%ADD13C,0.040000*%
%ADD14C,0.060000*%
%ADD15C,0.076000*%
%ADD16C,0.100000*%
G04 APERTURE END LIST*
D10*
X9910000Y-12595000D02*
X9910000Y-13220000D01*
X4340000Y-9120000D02*
G75*
G03*
X4340000Y-9120000I-180000J0D01*
G01*
X4340000Y-12170000D02*
G75*
G03*
X4340000Y-12170000I-180000J0D01*
G01*
X3265000Y-12420000D02*
G75*
G02*
X3440000Y-12595000I0J-175000D01*
G01*
X9910000Y-13220000D02*
X3440000Y-13220000D01*
X10710000Y-8870000D02*
X10710000Y-12420000D01*
X3440000Y-13220000D02*
X3440000Y-12595000D01*
X9910000Y-12595000D02*
G75*
G02*
X10085000Y-12420000I175000J0D01*
G01*
X9910000Y-8070000D02*
X9910000Y-8695000D01*
X2640000Y-8870000D02*
X3265000Y-8870000D01*
X3440000Y-8695000D02*
X3440000Y-8070000D01*
X10085000Y-8870000D02*
G75*
G02*
X9910000Y-8695000I0J175000D01*
G01*
X3440000Y-8070000D02*
X9910000Y-8070000D01*
X3440000Y-8695000D02*
G75*
G02*
X3265000Y-8870000I-175000J0D01*
G01*
X9370000Y-9120000D02*
G75*
G03*
X9370000Y-9120000I-180000J0D01*
G01*
X10085000Y-8870000D02*
X10710000Y-8870000D01*
X10710000Y-12420000D02*
X10085000Y-12420000D01*
X2640000Y-12420000D02*
X2640000Y-8870000D01*
X3265000Y-12420000D02*
X2640000Y-12420000D01*
X9370000Y-12170000D02*
G75*
G03*
X9370000Y-12170000I-180000J0D01*
G01*
D11*
D12*
X2715000Y-8975000D02*
X2745000Y-9005000D01*
X2745000Y-8975000D02*
X2715000Y-9005000D01*
X2725000Y-9395000D02*
X2755000Y-9425000D01*
X2755000Y-9395000D02*
X2725000Y-9425000D01*
X2745000Y-11325000D02*
X2775000Y-11355000D01*
X2775000Y-11325000D02*
X2745000Y-11355000D01*
X2745000Y-12255000D02*
X2775000Y-12285000D01*
X2775000Y-12255000D02*
X2745000Y-12285000D01*
X2755000Y-10415000D02*
X2785000Y-10445000D01*
X2785000Y-10415000D02*
X2755000Y-10445000D01*
X3455000Y-8825000D02*
X3485000Y-8855000D01*
X3485000Y-8825000D02*
X3455000Y-8855000D01*
X3535000Y-8175000D02*
X3565000Y-8205000D01*
X3565000Y-8175000D02*
X3535000Y-8205000D01*
X3535000Y-12335000D02*
X3565000Y-12365000D01*
X3565000Y-12335000D02*
X3535000Y-12365000D01*
X3555000Y-13105000D02*
X3585000Y-13135000D01*
X3585000Y-13105000D02*
X3555000Y-13135000D01*
X4135000Y-8165000D02*
X4165000Y-8195000D01*
X4165000Y-8165000D02*
X4135000Y-8195000D01*
X4145000Y-13095000D02*
X4175000Y-13125000D01*
X4175000Y-13095000D02*
X4145000Y-13125000D01*
X4605000Y-8295000D02*
X4635000Y-8325000D01*
X4635000Y-8295000D02*
X4605000Y-8325000D01*
X4633200Y-11412460D02*
X4663200Y-11442460D01*
X4663200Y-11412460D02*
X4633200Y-11442460D01*
X4635000Y-9785000D02*
X4665000Y-9815000D01*
X4665000Y-9785000D02*
X4635000Y-9815000D01*
X4656060Y-10289780D02*
X4686060Y-10319780D01*
X4686060Y-10289780D02*
X4656060Y-10319780D01*
X4735000Y-9425000D02*
X4765000Y-9455000D01*
X4765000Y-9425000D02*
X4735000Y-9455000D01*
X4846560Y-10289780D02*
X4876560Y-10319780D01*
X4876560Y-10289780D02*
X4846560Y-10319780D01*
X4935000Y-9365000D02*
X4965000Y-9395000D01*
X4965000Y-9365000D02*
X4935000Y-9395000D01*
X4950700Y-10640300D02*
X4980700Y-10670300D01*
X4980700Y-10640300D02*
X4950700Y-10670300D01*
X5004040Y-8900400D02*
X5034040Y-8930400D01*
X5034040Y-8900400D02*
X5004040Y-8930400D01*
X5005000Y-13105000D02*
X5035000Y-13135000D01*
X5035000Y-13105000D02*
X5005000Y-13135000D01*
X5025000Y-9365000D02*
X5055000Y-9395000D01*
X5055000Y-9365000D02*
X5025000Y-9395000D01*
X5098020Y-11615660D02*
X5128020Y-11645660D01*
X5128020Y-11615660D02*
X5098020Y-11645660D01*
X5115000Y-9365000D02*
X5145000Y-9395000D01*
X5145000Y-9365000D02*
X5115000Y-9395000D01*
X5240260Y-10952720D02*
X5270260Y-10982720D01*
X5270260Y-10952720D02*
X5240260Y-10982720D01*
X5240260Y-11046700D02*
X5270260Y-11076700D01*
X5270260Y-11046700D02*
X5240260Y-11076700D01*
X5240260Y-11145760D02*
X5270260Y-11175760D01*
X5270260Y-11145760D02*
X5240260Y-11175760D01*
X5240260Y-11254980D02*
X5270260Y-11284980D01*
X5270260Y-11254980D02*
X5240260Y-11284980D01*
X5329160Y-9403320D02*
X5359160Y-9433320D01*
X5359160Y-9403320D02*
X5329160Y-9433320D01*
X5339320Y-10193260D02*
X5369320Y-10223260D01*
X5369320Y-10193260D02*
X5339320Y-10223260D01*
X5341860Y-10045940D02*
X5371860Y-10075940D01*
X5371860Y-10045940D02*
X5341860Y-10075940D01*
X5375000Y-9755000D02*
X5405000Y-9785000D01*
X5405000Y-9755000D02*
X5375000Y-9785000D01*
X5491720Y-12011900D02*
X5521720Y-12041900D01*
X5521720Y-12011900D02*
X5491720Y-12041900D01*
X5545000Y-10575000D02*
X5575000Y-10605000D01*
X5575000Y-10575000D02*
X5545000Y-10605000D01*
X5545000Y-11055000D02*
X5575000Y-11085000D01*
X5575000Y-11055000D02*
X5545000Y-11085000D01*
X5605000Y-8185000D02*
X5635000Y-8215000D01*
X5635000Y-8185000D02*
X5605000Y-8215000D01*
X5639040Y-8786100D02*
X5669040Y-8816100D01*
X5669040Y-8786100D02*
X5639040Y-8816100D01*
X5705000Y-11095000D02*
X5735000Y-11125000D01*
X5735000Y-11095000D02*
X5705000Y-11125000D01*
X5735000Y-8515000D02*
X5765000Y-8545000D01*
X5765000Y-8515000D02*
X5735000Y-8545000D01*
X5735000Y-10495000D02*
X5765000Y-10525000D01*
X5765000Y-10495000D02*
X5735000Y-10525000D01*
X5745000Y-10255000D02*
X5775000Y-10285000D01*
X5775000Y-10255000D02*
X5745000Y-10285000D01*
X5745000Y-10645000D02*
X5775000Y-10675000D01*
X5775000Y-10645000D02*
X5745000Y-10675000D01*
X5781280Y-11714720D02*
X5811280Y-11744720D01*
X5811280Y-11714720D02*
X5781280Y-11744720D01*
X5785000Y-9925000D02*
X5815000Y-9955000D01*
X5815000Y-9925000D02*
X5785000Y-9955000D01*
X5915000Y-10705000D02*
X5945000Y-10735000D01*
X5945000Y-10705000D02*
X5915000Y-10735000D01*
X5915000Y-12005000D02*
X5945000Y-12035000D01*
X5945000Y-12005000D02*
X5915000Y-12035000D01*
X5985000Y-10705000D02*
X6015000Y-10735000D01*
X6015000Y-10705000D02*
X5985000Y-10735000D01*
X6075000Y-11385000D02*
X6105000Y-11415000D01*
X6105000Y-11385000D02*
X6075000Y-11415000D01*
X6165000Y-10265000D02*
X6195000Y-10295000D01*
X6195000Y-10265000D02*
X6165000Y-10295000D01*
X6185000Y-9905000D02*
X6215000Y-9935000D01*
X6215000Y-9905000D02*
X6185000Y-9935000D01*
X6225000Y-10145000D02*
X6255000Y-10175000D01*
X6255000Y-10145000D02*
X6225000Y-10175000D01*
X6245000Y-10505000D02*
X6275000Y-10535000D01*
X6275000Y-10505000D02*
X6245000Y-10535000D01*
X6255000Y-11395000D02*
X6285000Y-11425000D01*
X6285000Y-11395000D02*
X6255000Y-11425000D01*
X6255000Y-11465000D02*
X6285000Y-11495000D01*
X6285000Y-11465000D02*
X6255000Y-11495000D01*
X6289280Y-9418560D02*
X6319280Y-9448560D01*
X6319280Y-9418560D02*
X6289280Y-9448560D01*
X6307060Y-9802100D02*
X6337060Y-9832100D01*
X6337060Y-9802100D02*
X6307060Y-9832100D01*
X6355320Y-10005300D02*
X6385320Y-10035300D01*
X6385320Y-10005300D02*
X6355320Y-10035300D01*
X6385000Y-10465000D02*
X6415000Y-10495000D01*
X6415000Y-10465000D02*
X6385000Y-10495000D01*
X6475000Y-9255000D02*
X6505000Y-9285000D01*
X6505000Y-9255000D02*
X6475000Y-9285000D01*
X6485000Y-11995000D02*
X6515000Y-12025000D01*
X6515000Y-11995000D02*
X6485000Y-12025000D01*
X6565000Y-10005000D02*
X6595000Y-10035000D01*
X6595000Y-10005000D02*
X6565000Y-10035000D01*
X6615000Y-9375000D02*
X6645000Y-9405000D01*
X6645000Y-9375000D02*
X6615000Y-9405000D01*
X6625000Y-9455000D02*
X6655000Y-9485000D01*
X6655000Y-9455000D02*
X6625000Y-9485000D01*
X6665000Y-11365000D02*
X6695000Y-11395000D01*
X6695000Y-11365000D02*
X6665000Y-11395000D01*
X6734574Y-9665000D02*
X6764574Y-9695000D01*
X6764574Y-9665000D02*
X6734574Y-9695000D01*
X6755000Y-10515000D02*
X6785000Y-10545000D01*
X6785000Y-10515000D02*
X6755000Y-10545000D01*
X6771880Y-8697200D02*
X6801880Y-8727200D01*
X6801880Y-8697200D02*
X6771880Y-8727200D01*
X6785000Y-10255000D02*
X6815000Y-10285000D01*
X6815000Y-10255000D02*
X6785000Y-10285000D01*
X6855700Y-10548860D02*
X6885700Y-10578860D01*
X6885700Y-10548860D02*
X6855700Y-10578860D01*
X6905000Y-9365000D02*
X6935000Y-9395000D01*
X6935000Y-9365000D02*
X6905000Y-9395000D01*
X6905000Y-10355000D02*
X6935000Y-10385000D01*
X6935000Y-10355000D02*
X6905000Y-10385000D01*
X6915000Y-11335000D02*
X6945000Y-11365000D01*
X6945000Y-11335000D02*
X6915000Y-11365000D01*
X6942060Y-10828260D02*
X6972060Y-10858260D01*
X6972060Y-10828260D02*
X6942060Y-10858260D01*
X6975000Y-9825000D02*
X7005000Y-9855000D01*
X7005000Y-9825000D02*
X6975000Y-9855000D01*
X7005560Y-9593820D02*
X7035560Y-9623820D01*
X7035560Y-9593820D02*
X7005560Y-9623820D01*
X7076680Y-10828260D02*
X7106680Y-10858260D01*
X7106680Y-10828260D02*
X7076680Y-10858260D01*
X7125000Y-8175000D02*
X7155000Y-8205000D01*
X7155000Y-8175000D02*
X7125000Y-8205000D01*
X7152880Y-10658080D02*
X7182880Y-10688080D01*
X7182880Y-10658080D02*
X7152880Y-10688080D01*
X7160500Y-10043400D02*
X7190500Y-10073400D01*
X7190500Y-10043400D02*
X7160500Y-10073400D01*
X7215000Y-9305000D02*
X7245000Y-9335000D01*
X7245000Y-9305000D02*
X7215000Y-9335000D01*
X7215000Y-9495000D02*
X7245000Y-9525000D01*
X7245000Y-9495000D02*
X7215000Y-9525000D01*
X7378940Y-11110200D02*
X7408940Y-11140200D01*
X7408940Y-11110200D02*
X7378940Y-11140200D01*
X7401800Y-9891000D02*
X7431800Y-9921000D01*
X7431800Y-9891000D02*
X7401800Y-9921000D01*
X7401800Y-10627600D02*
X7431800Y-10657600D01*
X7431800Y-10627600D02*
X7401800Y-10657600D01*
X7495000Y-10475000D02*
X7525000Y-10505000D01*
X7525000Y-10475000D02*
X7495000Y-10505000D01*
X7645000Y-13105000D02*
X7675000Y-13135000D01*
X7675000Y-13105000D02*
X7645000Y-13135000D01*
X7668500Y-10886680D02*
X7698500Y-10916680D01*
X7698500Y-10886680D02*
X7668500Y-10916680D01*
X7688820Y-10581880D02*
X7718820Y-10611880D01*
X7718820Y-10581880D02*
X7688820Y-10611880D01*
X7869160Y-11595340D02*
X7899160Y-11625340D01*
X7899160Y-11595340D02*
X7869160Y-11625340D01*
X7875000Y-10855000D02*
X7905000Y-10885000D01*
X7905000Y-10855000D02*
X7875000Y-10885000D01*
X8041880Y-10472660D02*
X8071880Y-10502660D01*
X8071880Y-10472660D02*
X8041880Y-10502660D01*
X8245000Y-8195000D02*
X8275000Y-8225000D01*
X8275000Y-8195000D02*
X8245000Y-8225000D01*
X8455000Y-9305000D02*
X8485000Y-9335000D01*
X8485000Y-9305000D02*
X8455000Y-9335000D01*
X8465000Y-9505000D02*
X8495000Y-9535000D01*
X8495000Y-9505000D02*
X8465000Y-9535000D01*
X8483840Y-10673320D02*
X8513840Y-10703320D01*
X8513840Y-10673320D02*
X8483840Y-10703320D01*
X8485000Y-10855000D02*
X8515000Y-10885000D01*
X8515000Y-10855000D02*
X8485000Y-10885000D01*
X8695000Y-11765000D02*
X8725000Y-11795000D01*
X8725000Y-11765000D02*
X8695000Y-11795000D01*
X8815000Y-13085000D02*
X8845000Y-13115000D01*
X8845000Y-13085000D02*
X8815000Y-13115000D01*
X9235680Y-11089880D02*
X9265680Y-11119880D01*
X9265680Y-11089880D02*
X9235680Y-11119880D01*
X9250920Y-10348200D02*
X9280920Y-10378200D01*
X9280920Y-10348200D02*
X9250920Y-10378200D01*
X9315000Y-8215000D02*
X9345000Y-8245000D01*
X9345000Y-8215000D02*
X9315000Y-8245000D01*
X9316960Y-11752820D02*
X9346960Y-11782820D01*
X9346960Y-11752820D02*
X9316960Y-11782820D01*
X9423640Y-11595340D02*
X9453640Y-11625340D01*
X9453640Y-11595340D02*
X9423640Y-11625340D01*
X9425000Y-11735000D02*
X9455000Y-11765000D01*
X9455000Y-11735000D02*
X9425000Y-11765000D01*
X9565000Y-9595000D02*
X9595000Y-9625000D01*
X9595000Y-9595000D02*
X9565000Y-9625000D01*
X9755000Y-13075000D02*
X9785000Y-13105000D01*
X9785000Y-13075000D02*
X9755000Y-13105000D01*
X9795000Y-10015000D02*
X9825000Y-10045000D01*
X9825000Y-10015000D02*
X9795000Y-10045000D01*
X9795000Y-10365000D02*
X9825000Y-10395000D01*
X9825000Y-10365000D02*
X9795000Y-10395000D01*
X9795000Y-10695000D02*
X9825000Y-10725000D01*
X9825000Y-10695000D02*
X9795000Y-10725000D01*
X9795000Y-11105000D02*
X9825000Y-11135000D01*
X9825000Y-11105000D02*
X9795000Y-11135000D01*
X9815000Y-8805000D02*
X9845000Y-8835000D01*
X9845000Y-8805000D02*
X9815000Y-8835000D01*
X9815000Y-9105000D02*
X9845000Y-9135000D01*
X9845000Y-9105000D02*
X9815000Y-9135000D01*
X9815000Y-11625000D02*
X9845000Y-11655000D01*
X9845000Y-11625000D02*
X9815000Y-11655000D01*
X9815000Y-11935000D02*
X9845000Y-11965000D01*
X9845000Y-11935000D02*
X9815000Y-11965000D01*
X9825000Y-9495000D02*
X9855000Y-9525000D01*
X9855000Y-9495000D02*
X9825000Y-9525000D01*
X9825000Y-12305000D02*
X9855000Y-12335000D01*
X9855000Y-12305000D02*
X9825000Y-12335000D01*
D13*
X5379400Y-10363200D02*
G75*
G03*
X5379400Y-10363200I-20000J0D01*
G01*
X5955000Y-11216005D02*
G75*
G03*
X5955000Y-11216005I-20000J0D01*
G01*
X6200000Y-11370000D02*
G75*
G03*
X6200000Y-11370000I-20000J0D01*
G01*
X6243000Y-8224520D02*
G75*
G03*
X6243000Y-8224520I-20000J0D01*
G01*
X6430800Y-8869800D02*
G75*
G03*
X6430800Y-8869800I-20000J0D01*
G01*
X6470000Y-10780000D02*
G75*
G03*
X6470000Y-10780000I-20000J0D01*
G01*
X6470000Y-10940000D02*
G75*
G03*
X6470000Y-10940000I-20000J0D01*
G01*
X6510000Y-10450000D02*
G75*
G03*
X6510000Y-10450000I-20000J0D01*
G01*
X6550000Y-10870000D02*
G75*
G03*
X6550000Y-10870000I-20000J0D01*
G01*
X6630000Y-10780000D02*
G75*
G03*
X6630000Y-10780000I-20000J0D01*
G01*
X6630000Y-10940000D02*
G75*
G03*
X6630000Y-10940000I-20000J0D01*
G01*
X6980000Y-10100000D02*
G75*
G03*
X6980000Y-10100000I-20000J0D01*
G01*
X7135640Y-9752500D02*
G75*
G03*
X7135640Y-9752500I-20000J0D01*
G01*
X7182800Y-8999220D02*
G75*
G03*
X7182800Y-8999220I-20000J0D01*
G01*
X7810000Y-10040000D02*
G75*
G03*
X7810000Y-10040000I-20000J0D01*
G01*
X7930000Y-11180000D02*
G75*
G03*
X7930000Y-11180000I-20000J0D01*
G01*
X7950000Y-10060000D02*
G75*
G03*
X7950000Y-10060000I-20000J0D01*
G01*
X7995000Y-11245000D02*
G75*
G03*
X7995000Y-11245000I-20000J0D01*
G01*
X8040000Y-10060000D02*
G75*
G03*
X8040000Y-10060000I-20000J0D01*
G01*
X8055000Y-11305000D02*
G75*
G03*
X8055000Y-11305000I-20000J0D01*
G01*
D14*
X5703000Y-12487000D02*
X5703000Y-12547000D01*
X5673000Y-12517000D02*
X5733000Y-12517000D01*
D11*
X5683000Y-12462000D02*
X5683000Y-12572000D01*
X5723000Y-12462000D02*
X5723000Y-12572000D01*
X5683000Y-12572000D02*
G75*
G03*
X5723000Y-12572000I20000J0D01*
G01*
X5723000Y-12462000D02*
G75*
G03*
X5683000Y-12462000I-20000J0D01*
G01*
D14*
X5703000Y-12905000D02*
X5703000Y-12965000D01*
X5673000Y-12935000D02*
X5733000Y-12935000D01*
D11*
X5683000Y-12905000D02*
X5683000Y-12965000D01*
X5723000Y-12905000D02*
X5723000Y-12965000D01*
X5683000Y-12965000D02*
G75*
G03*
X5723000Y-12965000I20000J0D01*
G01*
X5723000Y-12905000D02*
G75*
G03*
X5683000Y-12905000I-20000J0D01*
G01*
D14*
X6567000Y-12487000D02*
X6567000Y-12547000D01*
X6537000Y-12517000D02*
X6597000Y-12517000D01*
D11*
X6547000Y-12462000D02*
X6547000Y-12572000D01*
X6587000Y-12462000D02*
X6587000Y-12572000D01*
X6547000Y-12572000D02*
G75*
G03*
X6587000Y-12572000I20000J0D01*
G01*
X6587000Y-12462000D02*
G75*
G03*
X6547000Y-12462000I-20000J0D01*
G01*
D14*
X6567000Y-12905000D02*
X6567000Y-12965000D01*
X6537000Y-12935000D02*
X6597000Y-12935000D01*
D11*
X6547000Y-12905000D02*
X6547000Y-12965000D01*
X6587000Y-12905000D02*
X6587000Y-12965000D01*
X6547000Y-12965000D02*
G75*
G03*
X6587000Y-12965000I20000J0D01*
G01*
X6587000Y-12905000D02*
G75*
G03*
X6547000Y-12905000I-20000J0D01*
G01*
D15*
X4142870Y-10413870D02*
X4142870Y-10360130D01*
X4089130Y-10360130D01*
X4089130Y-10413870D01*
X4142870Y-10413870D01*
X4142870Y-10667870D02*
X4142870Y-10614130D01*
X4089130Y-10614130D01*
X4089130Y-10667870D01*
X4142870Y-10667870D01*
X4142870Y-10921870D02*
X4142870Y-10868130D01*
X4089130Y-10868130D01*
X4089130Y-10921870D01*
X4142870Y-10921870D01*
X4396870Y-10286870D02*
X4396870Y-10233130D01*
X4343130Y-10233130D01*
X4343130Y-10286870D01*
X4396870Y-10286870D01*
X4396870Y-10540870D02*
X4396870Y-10487130D01*
X4343130Y-10487130D01*
X4343130Y-10540870D01*
X4396870Y-10540870D01*
X4396870Y-10794870D02*
X4396870Y-10741130D01*
X4343130Y-10741130D01*
X4343130Y-10794870D01*
X4396870Y-10794870D01*
D16*
X7130000Y-11790000D02*
X7180000Y-11740000D01*
X7130000Y-11690000D01*
X7080000Y-11740000D01*
X7130000Y-11790000D01*
X7130000Y-12044000D02*
X7180000Y-11994000D01*
X7130000Y-11944000D01*
X7080000Y-11994000D01*
X7130000Y-12044000D01*
X7130000Y-12298000D02*
X7180000Y-12248000D01*
X7130000Y-12198000D01*
X7080000Y-12248000D01*
X7130000Y-12298000D01*
X7130000Y-12552000D02*
X7180000Y-12502000D01*
X7130000Y-12452000D01*
X7080000Y-12502000D01*
X7130000Y-12552000D01*
X7721600Y-8533600D02*
X7771600Y-8483600D01*
X7721600Y-8433600D01*
X7671600Y-8483600D01*
X7721600Y-8533600D01*
X7721600Y-8787600D02*
X7771600Y-8737600D01*
X7721600Y-8687600D01*
X7671600Y-8737600D01*
X7721600Y-8787600D01*
X7721600Y-9041600D02*
X7771600Y-8991600D01*
X7721600Y-8941600D01*
X7671600Y-8991600D01*
X7721600Y-9041600D01*
D11*
X2892619Y-13535476D02*
X2892619Y-13335476D01*
X2940238Y-13335476D01*
X2968809Y-13345000D01*
X2987857Y-13364048D01*
X2997381Y-13383095D01*
X3006905Y-13421190D01*
X3006905Y-13449762D01*
X2997381Y-13487857D01*
X2987857Y-13506905D01*
X2968809Y-13525952D01*
X2940238Y-13535476D01*
X2892619Y-13535476D01*
X3092619Y-13535476D02*
X3092619Y-13402143D01*
X3092619Y-13440238D02*
X3102143Y-13421190D01*
X3111667Y-13411667D01*
X3130714Y-13402143D01*
X3149762Y-13402143D01*
X3216428Y-13535476D02*
X3216428Y-13402143D01*
X3216428Y-13335476D02*
X3206905Y-13345000D01*
X3216428Y-13354524D01*
X3225952Y-13345000D01*
X3216428Y-13335476D01*
X3216428Y-13354524D01*
X3340238Y-13535476D02*
X3321190Y-13525952D01*
X3311667Y-13506905D01*
X3311667Y-13335476D01*
X3445000Y-13535476D02*
X3425952Y-13525952D01*
X3416428Y-13506905D01*
X3416428Y-13335476D01*
X3673571Y-13535476D02*
X3673571Y-13335476D01*
X3740238Y-13478333D01*
X3806905Y-13335476D01*
X3806905Y-13535476D01*
X3987857Y-13535476D02*
X3987857Y-13430714D01*
X3978333Y-13411667D01*
X3959286Y-13402143D01*
X3921190Y-13402143D01*
X3902143Y-13411667D01*
X3987857Y-13525952D02*
X3968809Y-13535476D01*
X3921190Y-13535476D01*
X3902143Y-13525952D01*
X3892619Y-13506905D01*
X3892619Y-13487857D01*
X3902143Y-13468809D01*
X3921190Y-13459286D01*
X3968809Y-13459286D01*
X3987857Y-13449762D01*
X4083095Y-13402143D02*
X4083095Y-13602143D01*
X4083095Y-13411667D02*
X4102143Y-13402143D01*
X4140238Y-13402143D01*
X4159286Y-13411667D01*
X4168809Y-13421190D01*
X4178333Y-13440238D01*
X4178333Y-13497381D01*
X4168809Y-13516428D01*
X4159286Y-13525952D01*
X4140238Y-13535476D01*
X4102143Y-13535476D01*
X4083095Y-13525952D01*
X4264048Y-13516428D02*
X4273571Y-13525952D01*
X4264048Y-13535476D01*
X4254524Y-13525952D01*
X4264048Y-13516428D01*
X4264048Y-13535476D01*
X4264048Y-13411667D02*
X4273571Y-13421190D01*
X4264048Y-13430714D01*
X4254524Y-13421190D01*
X4264048Y-13411667D01*
X4264048Y-13430714D01*
D12*
X2605000Y-13850000D02*
X2635000Y-13880000D01*
X2635000Y-13850000D02*
X2605000Y-13880000D01*
D11*
X2930714Y-13755476D02*
X2949762Y-13755476D01*
X2968809Y-13765000D01*
X2978333Y-13774524D01*
X2987857Y-13793571D01*
X2997381Y-13831667D01*
X2997381Y-13879286D01*
X2987857Y-13917381D01*
X2978333Y-13936428D01*
X2968809Y-13945952D01*
X2949762Y-13955476D01*
X2930714Y-13955476D01*
X2911667Y-13945952D01*
X2902143Y-13936428D01*
X2892619Y-13917381D01*
X2883095Y-13879286D01*
X2883095Y-13831667D01*
X2892619Y-13793571D01*
X2902143Y-13774524D01*
X2911667Y-13765000D01*
X2930714Y-13755476D01*
X3083095Y-13936428D02*
X3092619Y-13945952D01*
X3083095Y-13955476D01*
X3073571Y-13945952D01*
X3083095Y-13936428D01*
X3083095Y-13955476D01*
X3159286Y-13755476D02*
X3283095Y-13755476D01*
X3216428Y-13831667D01*
X3245000Y-13831667D01*
X3264048Y-13841190D01*
X3273571Y-13850714D01*
X3283095Y-13869762D01*
X3283095Y-13917381D01*
X3273571Y-13936428D01*
X3264048Y-13945952D01*
X3245000Y-13955476D01*
X3187857Y-13955476D01*
X3168809Y-13945952D01*
X3159286Y-13936428D01*
X3406905Y-13755476D02*
X3425952Y-13755476D01*
X3445000Y-13765000D01*
X3454524Y-13774524D01*
X3464048Y-13793571D01*
X3473571Y-13831667D01*
X3473571Y-13879286D01*
X3464048Y-13917381D01*
X3454524Y-13936428D01*
X3445000Y-13945952D01*
X3425952Y-13955476D01*
X3406905Y-13955476D01*
X3387857Y-13945952D01*
X3378333Y-13936428D01*
X3368809Y-13917381D01*
X3359286Y-13879286D01*
X3359286Y-13831667D01*
X3368809Y-13793571D01*
X3378333Y-13774524D01*
X3387857Y-13765000D01*
X3406905Y-13755476D01*
X3597381Y-13755476D02*
X3616428Y-13755476D01*
X3635476Y-13765000D01*
X3645000Y-13774524D01*
X3654524Y-13793571D01*
X3664048Y-13831667D01*
X3664048Y-13879286D01*
X3654524Y-13917381D01*
X3645000Y-13936428D01*
X3635476Y-13945952D01*
X3616428Y-13955476D01*
X3597381Y-13955476D01*
X3578333Y-13945952D01*
X3568809Y-13936428D01*
X3559286Y-13917381D01*
X3549762Y-13879286D01*
X3549762Y-13831667D01*
X3559286Y-13793571D01*
X3568809Y-13774524D01*
X3578333Y-13765000D01*
X3597381Y-13755476D01*
X3749762Y-13955476D02*
X3749762Y-13822143D01*
X3749762Y-13841190D02*
X3759286Y-13831667D01*
X3778333Y-13822143D01*
X3806905Y-13822143D01*
X3825952Y-13831667D01*
X3835476Y-13850714D01*
X3835476Y-13955476D01*
X3835476Y-13850714D02*
X3845000Y-13831667D01*
X3864048Y-13822143D01*
X3892619Y-13822143D01*
X3911667Y-13831667D01*
X3921190Y-13850714D01*
X3921190Y-13955476D01*
X4016428Y-13955476D02*
X4016428Y-13822143D01*
X4016428Y-13841190D02*
X4025952Y-13831667D01*
X4045000Y-13822143D01*
X4073571Y-13822143D01*
X4092619Y-13831667D01*
X4102143Y-13850714D01*
X4102143Y-13955476D01*
X4102143Y-13850714D02*
X4111667Y-13831667D01*
X4130714Y-13822143D01*
X4159286Y-13822143D01*
X4178333Y-13831667D01*
X4187857Y-13850714D01*
X4187857Y-13955476D01*
X4578333Y-13745952D02*
X4406905Y-14003095D01*
X4835476Y-13755476D02*
X4854524Y-13755476D01*
X4873571Y-13765000D01*
X4883095Y-13774524D01*
X4892619Y-13793571D01*
X4902143Y-13831667D01*
X4902143Y-13879286D01*
X4892619Y-13917381D01*
X4883095Y-13936428D01*
X4873571Y-13945952D01*
X4854524Y-13955476D01*
X4835476Y-13955476D01*
X4816429Y-13945952D01*
X4806905Y-13936428D01*
X4797381Y-13917381D01*
X4787857Y-13879286D01*
X4787857Y-13831667D01*
X4797381Y-13793571D01*
X4806905Y-13774524D01*
X4816429Y-13765000D01*
X4835476Y-13755476D01*
X4987857Y-13936428D02*
X4997381Y-13945952D01*
X4987857Y-13955476D01*
X4978333Y-13945952D01*
X4987857Y-13936428D01*
X4987857Y-13955476D01*
X5121190Y-13755476D02*
X5140238Y-13755476D01*
X5159286Y-13765000D01*
X5168810Y-13774524D01*
X5178333Y-13793571D01*
X5187857Y-13831667D01*
X5187857Y-13879286D01*
X5178333Y-13917381D01*
X5168810Y-13936428D01*
X5159286Y-13945952D01*
X5140238Y-13955476D01*
X5121190Y-13955476D01*
X5102143Y-13945952D01*
X5092619Y-13936428D01*
X5083095Y-13917381D01*
X5073571Y-13879286D01*
X5073571Y-13831667D01*
X5083095Y-13793571D01*
X5092619Y-13774524D01*
X5102143Y-13765000D01*
X5121190Y-13755476D01*
X5378333Y-13955476D02*
X5264048Y-13955476D01*
X5321190Y-13955476D02*
X5321190Y-13755476D01*
X5302143Y-13784048D01*
X5283095Y-13803095D01*
X5264048Y-13812619D01*
X5568810Y-13955476D02*
X5454524Y-13955476D01*
X5511667Y-13955476D02*
X5511667Y-13755476D01*
X5492619Y-13784048D01*
X5473571Y-13803095D01*
X5454524Y-13812619D01*
X5683095Y-13841190D02*
X5664048Y-13831667D01*
X5654524Y-13822143D01*
X5645000Y-13803095D01*
X5645000Y-13793571D01*
X5654524Y-13774524D01*
X5664048Y-13765000D01*
X5683095Y-13755476D01*
X5721190Y-13755476D01*
X5740238Y-13765000D01*
X5749762Y-13774524D01*
X5759286Y-13793571D01*
X5759286Y-13803095D01*
X5749762Y-13822143D01*
X5740238Y-13831667D01*
X5721190Y-13841190D01*
X5683095Y-13841190D01*
X5664048Y-13850714D01*
X5654524Y-13860238D01*
X5645000Y-13879286D01*
X5645000Y-13917381D01*
X5654524Y-13936428D01*
X5664048Y-13945952D01*
X5683095Y-13955476D01*
X5721190Y-13955476D01*
X5740238Y-13945952D01*
X5749762Y-13936428D01*
X5759286Y-13917381D01*
X5759286Y-13879286D01*
X5749762Y-13860238D01*
X5740238Y-13850714D01*
X5721190Y-13841190D01*
X5835476Y-13755476D02*
X5835476Y-13793571D01*
X5911667Y-13755476D02*
X5911667Y-13793571D01*
X6206905Y-14031667D02*
X6197381Y-14022143D01*
X6178333Y-13993571D01*
X6168809Y-13974524D01*
X6159286Y-13945952D01*
X6149762Y-13898333D01*
X6149762Y-13860238D01*
X6159286Y-13812619D01*
X6168809Y-13784048D01*
X6178333Y-13765000D01*
X6197381Y-13736428D01*
X6206905Y-13726905D01*
X6387857Y-13955476D02*
X6273571Y-13955476D01*
X6330714Y-13955476D02*
X6330714Y-13755476D01*
X6311667Y-13784048D01*
X6292619Y-13803095D01*
X6273571Y-13812619D01*
X6578333Y-13955476D02*
X6464048Y-13955476D01*
X6521190Y-13955476D02*
X6521190Y-13755476D01*
X6502143Y-13784048D01*
X6483095Y-13803095D01*
X6464048Y-13812619D01*
X6749762Y-13755476D02*
X6711667Y-13755476D01*
X6692619Y-13765000D01*
X6683095Y-13774524D01*
X6664048Y-13803095D01*
X6654524Y-13841190D01*
X6654524Y-13917381D01*
X6664048Y-13936428D01*
X6673571Y-13945952D01*
X6692619Y-13955476D01*
X6730714Y-13955476D01*
X6749762Y-13945952D01*
X6759286Y-13936428D01*
X6768809Y-13917381D01*
X6768809Y-13869762D01*
X6759286Y-13850714D01*
X6749762Y-13841190D01*
X6730714Y-13831667D01*
X6692619Y-13831667D01*
X6673571Y-13841190D01*
X6664048Y-13850714D01*
X6654524Y-13869762D01*
X7006905Y-13955476D02*
X7006905Y-13755476D01*
X7092619Y-13955476D02*
X7092619Y-13850714D01*
X7083095Y-13831667D01*
X7064048Y-13822143D01*
X7035476Y-13822143D01*
X7016428Y-13831667D01*
X7006905Y-13841190D01*
X7216428Y-13955476D02*
X7197381Y-13945952D01*
X7187857Y-13936428D01*
X7178333Y-13917381D01*
X7178333Y-13860238D01*
X7187857Y-13841190D01*
X7197381Y-13831667D01*
X7216428Y-13822143D01*
X7245000Y-13822143D01*
X7264048Y-13831667D01*
X7273571Y-13841190D01*
X7283095Y-13860238D01*
X7283095Y-13917381D01*
X7273571Y-13936428D01*
X7264048Y-13945952D01*
X7245000Y-13955476D01*
X7216428Y-13955476D01*
X7397381Y-13955476D02*
X7378333Y-13945952D01*
X7368809Y-13926905D01*
X7368809Y-13755476D01*
X7549762Y-13945952D02*
X7530714Y-13955476D01*
X7492619Y-13955476D01*
X7473571Y-13945952D01*
X7464048Y-13926905D01*
X7464048Y-13850714D01*
X7473571Y-13831667D01*
X7492619Y-13822143D01*
X7530714Y-13822143D01*
X7549762Y-13831667D01*
X7559286Y-13850714D01*
X7559286Y-13869762D01*
X7464048Y-13888809D01*
X7635476Y-13945952D02*
X7654524Y-13955476D01*
X7692619Y-13955476D01*
X7711667Y-13945952D01*
X7721190Y-13926905D01*
X7721190Y-13917381D01*
X7711667Y-13898333D01*
X7692619Y-13888809D01*
X7664048Y-13888809D01*
X7645000Y-13879286D01*
X7635476Y-13860238D01*
X7635476Y-13850714D01*
X7645000Y-13831667D01*
X7664048Y-13822143D01*
X7692619Y-13822143D01*
X7711667Y-13831667D01*
X7787857Y-14031667D02*
X7797381Y-14022143D01*
X7816428Y-13993571D01*
X7825952Y-13974524D01*
X7835476Y-13945952D01*
X7845000Y-13898333D01*
X7845000Y-13860238D01*
X7835476Y-13812619D01*
X7825952Y-13784048D01*
X7816428Y-13765000D01*
X7797381Y-13736428D01*
X7787857Y-13726905D01*
D13*
X2635000Y-14129000D02*
G75*
G03*
X2635000Y-14129000I-20000J0D01*
G01*
D11*
X2930714Y-14019476D02*
X2949762Y-14019476D01*
X2968809Y-14029000D01*
X2978333Y-14038524D01*
X2987857Y-14057571D01*
X2997381Y-14095667D01*
X2997381Y-14143286D01*
X2987857Y-14181381D01*
X2978333Y-14200428D01*
X2968809Y-14209952D01*
X2949762Y-14219476D01*
X2930714Y-14219476D01*
X2911667Y-14209952D01*
X2902143Y-14200428D01*
X2892619Y-14181381D01*
X2883095Y-14143286D01*
X2883095Y-14095667D01*
X2892619Y-14057571D01*
X2902143Y-14038524D01*
X2911667Y-14029000D01*
X2930714Y-14019476D01*
X3083095Y-14200428D02*
X3092619Y-14209952D01*
X3083095Y-14219476D01*
X3073571Y-14209952D01*
X3083095Y-14200428D01*
X3083095Y-14219476D01*
X3264048Y-14086143D02*
X3264048Y-14219476D01*
X3216428Y-14009952D02*
X3168809Y-14152809D01*
X3292619Y-14152809D01*
X3406905Y-14019476D02*
X3425952Y-14019476D01*
X3445000Y-14029000D01*
X3454524Y-14038524D01*
X3464048Y-14057571D01*
X3473571Y-14095667D01*
X3473571Y-14143286D01*
X3464048Y-14181381D01*
X3454524Y-14200428D01*
X3445000Y-14209952D01*
X3425952Y-14219476D01*
X3406905Y-14219476D01*
X3387857Y-14209952D01*
X3378333Y-14200428D01*
X3368809Y-14181381D01*
X3359286Y-14143286D01*
X3359286Y-14095667D01*
X3368809Y-14057571D01*
X3378333Y-14038524D01*
X3387857Y-14029000D01*
X3406905Y-14019476D01*
X3597381Y-14019476D02*
X3616428Y-14019476D01*
X3635476Y-14029000D01*
X3645000Y-14038524D01*
X3654524Y-14057571D01*
X3664048Y-14095667D01*
X3664048Y-14143286D01*
X3654524Y-14181381D01*
X3645000Y-14200428D01*
X3635476Y-14209952D01*
X3616428Y-14219476D01*
X3597381Y-14219476D01*
X3578333Y-14209952D01*
X3568809Y-14200428D01*
X3559286Y-14181381D01*
X3549762Y-14143286D01*
X3549762Y-14095667D01*
X3559286Y-14057571D01*
X3568809Y-14038524D01*
X3578333Y-14029000D01*
X3597381Y-14019476D01*
X3749762Y-14219476D02*
X3749762Y-14086143D01*
X3749762Y-14105190D02*
X3759286Y-14095667D01*
X3778333Y-14086143D01*
X3806905Y-14086143D01*
X3825952Y-14095667D01*
X3835476Y-14114714D01*
X3835476Y-14219476D01*
X3835476Y-14114714D02*
X3845000Y-14095667D01*
X3864048Y-14086143D01*
X3892619Y-14086143D01*
X3911667Y-14095667D01*
X3921190Y-14114714D01*
X3921190Y-14219476D01*
X4016428Y-14219476D02*
X4016428Y-14086143D01*
X4016428Y-14105190D02*
X4025952Y-14095667D01*
X4045000Y-14086143D01*
X4073571Y-14086143D01*
X4092619Y-14095667D01*
X4102143Y-14114714D01*
X4102143Y-14219476D01*
X4102143Y-14114714D02*
X4111667Y-14095667D01*
X4130714Y-14086143D01*
X4159286Y-14086143D01*
X4178333Y-14095667D01*
X4187857Y-14114714D01*
X4187857Y-14219476D01*
X4578333Y-14009952D02*
X4406905Y-14267095D01*
X4835476Y-14019476D02*
X4854524Y-14019476D01*
X4873571Y-14029000D01*
X4883095Y-14038524D01*
X4892619Y-14057571D01*
X4902143Y-14095667D01*
X4902143Y-14143286D01*
X4892619Y-14181381D01*
X4883095Y-14200428D01*
X4873571Y-14209952D01*
X4854524Y-14219476D01*
X4835476Y-14219476D01*
X4816429Y-14209952D01*
X4806905Y-14200428D01*
X4797381Y-14181381D01*
X4787857Y-14143286D01*
X4787857Y-14095667D01*
X4797381Y-14057571D01*
X4806905Y-14038524D01*
X4816429Y-14029000D01*
X4835476Y-14019476D01*
X4987857Y-14200428D02*
X4997381Y-14209952D01*
X4987857Y-14219476D01*
X4978333Y-14209952D01*
X4987857Y-14200428D01*
X4987857Y-14219476D01*
X5121190Y-14019476D02*
X5140238Y-14019476D01*
X5159286Y-14029000D01*
X5168810Y-14038524D01*
X5178333Y-14057571D01*
X5187857Y-14095667D01*
X5187857Y-14143286D01*
X5178333Y-14181381D01*
X5168810Y-14200428D01*
X5159286Y-14209952D01*
X5140238Y-14219476D01*
X5121190Y-14219476D01*
X5102143Y-14209952D01*
X5092619Y-14200428D01*
X5083095Y-14181381D01*
X5073571Y-14143286D01*
X5073571Y-14095667D01*
X5083095Y-14057571D01*
X5092619Y-14038524D01*
X5102143Y-14029000D01*
X5121190Y-14019476D01*
X5378333Y-14219476D02*
X5264048Y-14219476D01*
X5321190Y-14219476D02*
X5321190Y-14019476D01*
X5302143Y-14048048D01*
X5283095Y-14067095D01*
X5264048Y-14076619D01*
X5559286Y-14019476D02*
X5464048Y-14019476D01*
X5454524Y-14114714D01*
X5464048Y-14105190D01*
X5483095Y-14095667D01*
X5530714Y-14095667D01*
X5549762Y-14105190D01*
X5559286Y-14114714D01*
X5568810Y-14133762D01*
X5568810Y-14181381D01*
X5559286Y-14200428D01*
X5549762Y-14209952D01*
X5530714Y-14219476D01*
X5483095Y-14219476D01*
X5464048Y-14209952D01*
X5454524Y-14200428D01*
X5635476Y-14019476D02*
X5768809Y-14019476D01*
X5683095Y-14219476D01*
X5835476Y-14019476D02*
X5835476Y-14057571D01*
X5911667Y-14019476D02*
X5911667Y-14057571D01*
X6206905Y-14295667D02*
X6197381Y-14286143D01*
X6178333Y-14257571D01*
X6168809Y-14238524D01*
X6159286Y-14209952D01*
X6149762Y-14162333D01*
X6149762Y-14124238D01*
X6159286Y-14076619D01*
X6168809Y-14048048D01*
X6178333Y-14029000D01*
X6197381Y-14000428D01*
X6206905Y-13990905D01*
X6273571Y-14038524D02*
X6283095Y-14029000D01*
X6302143Y-14019476D01*
X6349762Y-14019476D01*
X6368809Y-14029000D01*
X6378333Y-14038524D01*
X6387857Y-14057571D01*
X6387857Y-14076619D01*
X6378333Y-14105190D01*
X6264048Y-14219476D01*
X6387857Y-14219476D01*
X6511667Y-14019476D02*
X6530714Y-14019476D01*
X6549762Y-14029000D01*
X6559286Y-14038524D01*
X6568809Y-14057571D01*
X6578333Y-14095667D01*
X6578333Y-14143286D01*
X6568809Y-14181381D01*
X6559286Y-14200428D01*
X6549762Y-14209952D01*
X6530714Y-14219476D01*
X6511667Y-14219476D01*
X6492619Y-14209952D01*
X6483095Y-14200428D01*
X6473571Y-14181381D01*
X6464048Y-14143286D01*
X6464048Y-14095667D01*
X6473571Y-14057571D01*
X6483095Y-14038524D01*
X6492619Y-14029000D01*
X6511667Y-14019476D01*
X6816428Y-14219476D02*
X6816428Y-14019476D01*
X6902143Y-14219476D02*
X6902143Y-14114714D01*
X6892619Y-14095667D01*
X6873571Y-14086143D01*
X6845000Y-14086143D01*
X6825952Y-14095667D01*
X6816428Y-14105190D01*
X7025952Y-14219476D02*
X7006905Y-14209952D01*
X6997381Y-14200428D01*
X6987857Y-14181381D01*
X6987857Y-14124238D01*
X6997381Y-14105190D01*
X7006905Y-14095667D01*
X7025952Y-14086143D01*
X7054524Y-14086143D01*
X7073571Y-14095667D01*
X7083095Y-14105190D01*
X7092619Y-14124238D01*
X7092619Y-14181381D01*
X7083095Y-14200428D01*
X7073571Y-14209952D01*
X7054524Y-14219476D01*
X7025952Y-14219476D01*
X7206905Y-14219476D02*
X7187857Y-14209952D01*
X7178333Y-14190905D01*
X7178333Y-14019476D01*
X7359286Y-14209952D02*
X7340238Y-14219476D01*
X7302143Y-14219476D01*
X7283095Y-14209952D01*
X7273571Y-14190905D01*
X7273571Y-14114714D01*
X7283095Y-14095667D01*
X7302143Y-14086143D01*
X7340238Y-14086143D01*
X7359286Y-14095667D01*
X7368809Y-14114714D01*
X7368809Y-14133762D01*
X7273571Y-14152809D01*
X7445000Y-14209952D02*
X7464048Y-14219476D01*
X7502143Y-14219476D01*
X7521190Y-14209952D01*
X7530714Y-14190905D01*
X7530714Y-14181381D01*
X7521190Y-14162333D01*
X7502143Y-14152809D01*
X7473571Y-14152809D01*
X7454524Y-14143286D01*
X7445000Y-14124238D01*
X7445000Y-14114714D01*
X7454524Y-14095667D01*
X7473571Y-14086143D01*
X7502143Y-14086143D01*
X7521190Y-14095667D01*
X7597381Y-14295667D02*
X7606905Y-14286143D01*
X7625952Y-14257571D01*
X7635476Y-14238524D01*
X7645000Y-14209952D01*
X7654524Y-14162333D01*
X7654524Y-14124238D01*
X7645000Y-14076619D01*
X7635476Y-14048048D01*
X7625952Y-14029000D01*
X7606905Y-14000428D01*
X7597381Y-13990905D01*
D14*
X2605000Y-14363000D02*
X2605000Y-14423000D01*
X2575000Y-14393000D02*
X2635000Y-14393000D01*
D11*
X2930714Y-14283476D02*
X2949762Y-14283476D01*
X2968809Y-14293000D01*
X2978333Y-14302524D01*
X2987857Y-14321571D01*
X2997381Y-14359667D01*
X2997381Y-14407286D01*
X2987857Y-14445381D01*
X2978333Y-14464428D01*
X2968809Y-14473952D01*
X2949762Y-14483476D01*
X2930714Y-14483476D01*
X2911667Y-14473952D01*
X2902143Y-14464428D01*
X2892619Y-14445381D01*
X2883095Y-14407286D01*
X2883095Y-14359667D01*
X2892619Y-14321571D01*
X2902143Y-14302524D01*
X2911667Y-14293000D01*
X2930714Y-14283476D01*
X3083095Y-14464428D02*
X3092619Y-14473952D01*
X3083095Y-14483476D01*
X3073571Y-14473952D01*
X3083095Y-14464428D01*
X3083095Y-14483476D01*
X3264048Y-14283476D02*
X3225952Y-14283476D01*
X3206905Y-14293000D01*
X3197381Y-14302524D01*
X3178333Y-14331095D01*
X3168809Y-14369190D01*
X3168809Y-14445381D01*
X3178333Y-14464428D01*
X3187857Y-14473952D01*
X3206905Y-14483476D01*
X3245000Y-14483476D01*
X3264048Y-14473952D01*
X3273571Y-14464428D01*
X3283095Y-14445381D01*
X3283095Y-14397762D01*
X3273571Y-14378714D01*
X3264048Y-14369190D01*
X3245000Y-14359667D01*
X3206905Y-14359667D01*
X3187857Y-14369190D01*
X3178333Y-14378714D01*
X3168809Y-14397762D01*
X3406905Y-14283476D02*
X3425952Y-14283476D01*
X3445000Y-14293000D01*
X3454524Y-14302524D01*
X3464048Y-14321571D01*
X3473571Y-14359667D01*
X3473571Y-14407286D01*
X3464048Y-14445381D01*
X3454524Y-14464428D01*
X3445000Y-14473952D01*
X3425952Y-14483476D01*
X3406905Y-14483476D01*
X3387857Y-14473952D01*
X3378333Y-14464428D01*
X3368809Y-14445381D01*
X3359286Y-14407286D01*
X3359286Y-14359667D01*
X3368809Y-14321571D01*
X3378333Y-14302524D01*
X3387857Y-14293000D01*
X3406905Y-14283476D01*
X3597381Y-14283476D02*
X3616428Y-14283476D01*
X3635476Y-14293000D01*
X3645000Y-14302524D01*
X3654524Y-14321571D01*
X3664048Y-14359667D01*
X3664048Y-14407286D01*
X3654524Y-14445381D01*
X3645000Y-14464428D01*
X3635476Y-14473952D01*
X3616428Y-14483476D01*
X3597381Y-14483476D01*
X3578333Y-14473952D01*
X3568809Y-14464428D01*
X3559286Y-14445381D01*
X3549762Y-14407286D01*
X3549762Y-14359667D01*
X3559286Y-14321571D01*
X3568809Y-14302524D01*
X3578333Y-14293000D01*
X3597381Y-14283476D01*
X3749762Y-14483476D02*
X3749762Y-14350143D01*
X3749762Y-14369190D02*
X3759286Y-14359667D01*
X3778333Y-14350143D01*
X3806905Y-14350143D01*
X3825952Y-14359667D01*
X3835476Y-14378714D01*
X3835476Y-14483476D01*
X3835476Y-14378714D02*
X3845000Y-14359667D01*
X3864048Y-14350143D01*
X3892619Y-14350143D01*
X3911667Y-14359667D01*
X3921190Y-14378714D01*
X3921190Y-14483476D01*
X4016428Y-14483476D02*
X4016428Y-14350143D01*
X4016428Y-14369190D02*
X4025952Y-14359667D01*
X4045000Y-14350143D01*
X4073571Y-14350143D01*
X4092619Y-14359667D01*
X4102143Y-14378714D01*
X4102143Y-14483476D01*
X4102143Y-14378714D02*
X4111667Y-14359667D01*
X4130714Y-14350143D01*
X4159286Y-14350143D01*
X4178333Y-14359667D01*
X4187857Y-14378714D01*
X4187857Y-14483476D01*
X4578333Y-14273952D02*
X4406905Y-14531095D01*
X4835476Y-14283476D02*
X4854524Y-14283476D01*
X4873571Y-14293000D01*
X4883095Y-14302524D01*
X4892619Y-14321571D01*
X4902143Y-14359667D01*
X4902143Y-14407286D01*
X4892619Y-14445381D01*
X4883095Y-14464428D01*
X4873571Y-14473952D01*
X4854524Y-14483476D01*
X4835476Y-14483476D01*
X4816429Y-14473952D01*
X4806905Y-14464428D01*
X4797381Y-14445381D01*
X4787857Y-14407286D01*
X4787857Y-14359667D01*
X4797381Y-14321571D01*
X4806905Y-14302524D01*
X4816429Y-14293000D01*
X4835476Y-14283476D01*
X4987857Y-14464428D02*
X4997381Y-14473952D01*
X4987857Y-14483476D01*
X4978333Y-14473952D01*
X4987857Y-14464428D01*
X4987857Y-14483476D01*
X5121190Y-14283476D02*
X5140238Y-14283476D01*
X5159286Y-14293000D01*
X5168810Y-14302524D01*
X5178333Y-14321571D01*
X5187857Y-14359667D01*
X5187857Y-14407286D01*
X5178333Y-14445381D01*
X5168810Y-14464428D01*
X5159286Y-14473952D01*
X5140238Y-14483476D01*
X5121190Y-14483476D01*
X5102143Y-14473952D01*
X5092619Y-14464428D01*
X5083095Y-14445381D01*
X5073571Y-14407286D01*
X5073571Y-14359667D01*
X5083095Y-14321571D01*
X5092619Y-14302524D01*
X5102143Y-14293000D01*
X5121190Y-14283476D01*
X5264048Y-14302524D02*
X5273571Y-14293000D01*
X5292619Y-14283476D01*
X5340238Y-14283476D01*
X5359286Y-14293000D01*
X5368810Y-14302524D01*
X5378333Y-14321571D01*
X5378333Y-14340619D01*
X5368810Y-14369190D01*
X5254524Y-14483476D01*
X5378333Y-14483476D01*
X5445000Y-14283476D02*
X5568810Y-14283476D01*
X5502143Y-14359667D01*
X5530714Y-14359667D01*
X5549762Y-14369190D01*
X5559286Y-14378714D01*
X5568810Y-14397762D01*
X5568810Y-14445381D01*
X5559286Y-14464428D01*
X5549762Y-14473952D01*
X5530714Y-14483476D01*
X5473571Y-14483476D01*
X5454524Y-14473952D01*
X5445000Y-14464428D01*
X5740238Y-14283476D02*
X5702143Y-14283476D01*
X5683095Y-14293000D01*
X5673571Y-14302524D01*
X5654524Y-14331095D01*
X5645000Y-14369190D01*
X5645000Y-14445381D01*
X5654524Y-14464428D01*
X5664048Y-14473952D01*
X5683095Y-14483476D01*
X5721190Y-14483476D01*
X5740238Y-14473952D01*
X5749762Y-14464428D01*
X5759286Y-14445381D01*
X5759286Y-14397762D01*
X5749762Y-14378714D01*
X5740238Y-14369190D01*
X5721190Y-14359667D01*
X5683095Y-14359667D01*
X5664048Y-14369190D01*
X5654524Y-14378714D01*
X5645000Y-14397762D01*
X5835476Y-14283476D02*
X5835476Y-14321571D01*
X5911667Y-14283476D02*
X5911667Y-14321571D01*
X6206905Y-14559667D02*
X6197381Y-14550143D01*
X6178333Y-14521571D01*
X6168809Y-14502524D01*
X6159286Y-14473952D01*
X6149762Y-14426333D01*
X6149762Y-14388238D01*
X6159286Y-14340619D01*
X6168809Y-14312048D01*
X6178333Y-14293000D01*
X6197381Y-14264428D01*
X6206905Y-14254905D01*
X6321190Y-14283476D02*
X6340238Y-14283476D01*
X6359286Y-14293000D01*
X6368809Y-14302524D01*
X6378333Y-14321571D01*
X6387857Y-14359667D01*
X6387857Y-14407286D01*
X6378333Y-14445381D01*
X6368809Y-14464428D01*
X6359286Y-14473952D01*
X6340238Y-14483476D01*
X6321190Y-14483476D01*
X6302143Y-14473952D01*
X6292619Y-14464428D01*
X6283095Y-14445381D01*
X6273571Y-14407286D01*
X6273571Y-14359667D01*
X6283095Y-14321571D01*
X6292619Y-14302524D01*
X6302143Y-14293000D01*
X6321190Y-14283476D01*
X6625952Y-14483476D02*
X6625952Y-14283476D01*
X6711667Y-14483476D02*
X6711667Y-14378714D01*
X6702143Y-14359667D01*
X6683095Y-14350143D01*
X6654524Y-14350143D01*
X6635476Y-14359667D01*
X6625952Y-14369190D01*
X6835476Y-14483476D02*
X6816428Y-14473952D01*
X6806905Y-14464428D01*
X6797381Y-14445381D01*
X6797381Y-14388238D01*
X6806905Y-14369190D01*
X6816428Y-14359667D01*
X6835476Y-14350143D01*
X6864048Y-14350143D01*
X6883095Y-14359667D01*
X6892619Y-14369190D01*
X6902143Y-14388238D01*
X6902143Y-14445381D01*
X6892619Y-14464428D01*
X6883095Y-14473952D01*
X6864048Y-14483476D01*
X6835476Y-14483476D01*
X7016428Y-14483476D02*
X6997381Y-14473952D01*
X6987857Y-14454905D01*
X6987857Y-14283476D01*
X7168809Y-14473952D02*
X7149762Y-14483476D01*
X7111667Y-14483476D01*
X7092619Y-14473952D01*
X7083095Y-14454905D01*
X7083095Y-14378714D01*
X7092619Y-14359667D01*
X7111667Y-14350143D01*
X7149762Y-14350143D01*
X7168809Y-14359667D01*
X7178333Y-14378714D01*
X7178333Y-14397762D01*
X7083095Y-14416809D01*
X7254524Y-14473952D02*
X7273571Y-14483476D01*
X7311667Y-14483476D01*
X7330714Y-14473952D01*
X7340238Y-14454905D01*
X7340238Y-14445381D01*
X7330714Y-14426333D01*
X7311667Y-14416809D01*
X7283095Y-14416809D01*
X7264048Y-14407286D01*
X7254524Y-14388238D01*
X7254524Y-14378714D01*
X7264048Y-14359667D01*
X7283095Y-14350143D01*
X7311667Y-14350143D01*
X7330714Y-14359667D01*
X7578333Y-14407286D02*
X7730714Y-14407286D01*
X7654524Y-14483476D02*
X7654524Y-14331095D01*
X8064048Y-14350143D02*
X8064048Y-14483476D01*
X8016428Y-14273952D02*
X7968809Y-14416809D01*
X8092619Y-14416809D01*
X8311667Y-14473952D02*
X8330714Y-14483476D01*
X8368809Y-14483476D01*
X8387857Y-14473952D01*
X8397381Y-14454905D01*
X8397381Y-14445381D01*
X8387857Y-14426333D01*
X8368809Y-14416809D01*
X8340238Y-14416809D01*
X8321190Y-14407286D01*
X8311667Y-14388238D01*
X8311667Y-14378714D01*
X8321190Y-14359667D01*
X8340238Y-14350143D01*
X8368809Y-14350143D01*
X8387857Y-14359667D01*
X8511667Y-14483476D02*
X8492619Y-14473952D01*
X8483095Y-14454905D01*
X8483095Y-14283476D01*
X8616429Y-14483476D02*
X8597381Y-14473952D01*
X8587857Y-14464428D01*
X8578333Y-14445381D01*
X8578333Y-14388238D01*
X8587857Y-14369190D01*
X8597381Y-14359667D01*
X8616429Y-14350143D01*
X8645000Y-14350143D01*
X8664048Y-14359667D01*
X8673571Y-14369190D01*
X8683095Y-14388238D01*
X8683095Y-14445381D01*
X8673571Y-14464428D01*
X8664048Y-14473952D01*
X8645000Y-14483476D01*
X8616429Y-14483476D01*
X8740238Y-14350143D02*
X8816429Y-14350143D01*
X8768810Y-14283476D02*
X8768810Y-14454905D01*
X8778333Y-14473952D01*
X8797381Y-14483476D01*
X8816429Y-14483476D01*
X8873571Y-14473952D02*
X8892619Y-14483476D01*
X8930714Y-14483476D01*
X8949762Y-14473952D01*
X8959286Y-14454905D01*
X8959286Y-14445381D01*
X8949762Y-14426333D01*
X8930714Y-14416809D01*
X8902143Y-14416809D01*
X8883095Y-14407286D01*
X8873571Y-14388238D01*
X8873571Y-14378714D01*
X8883095Y-14359667D01*
X8902143Y-14350143D01*
X8930714Y-14350143D01*
X8949762Y-14359667D01*
X9025952Y-14559667D02*
X9035476Y-14550143D01*
X9054524Y-14521571D01*
X9064048Y-14502524D01*
X9073571Y-14473952D01*
X9083095Y-14426333D01*
X9083095Y-14388238D01*
X9073571Y-14340619D01*
X9064048Y-14312048D01*
X9054524Y-14293000D01*
X9035476Y-14264428D01*
X9025952Y-14254905D01*
D15*
X2623870Y-14683870D02*
X2623870Y-14630130D01*
X2570130Y-14630130D01*
X2570130Y-14683870D01*
X2623870Y-14683870D01*
D11*
X2930714Y-14547476D02*
X2949762Y-14547476D01*
X2968809Y-14557000D01*
X2978333Y-14566524D01*
X2987857Y-14585571D01*
X2997381Y-14623667D01*
X2997381Y-14671286D01*
X2987857Y-14709381D01*
X2978333Y-14728428D01*
X2968809Y-14737952D01*
X2949762Y-14747476D01*
X2930714Y-14747476D01*
X2911667Y-14737952D01*
X2902143Y-14728428D01*
X2892619Y-14709381D01*
X2883095Y-14671286D01*
X2883095Y-14623667D01*
X2892619Y-14585571D01*
X2902143Y-14566524D01*
X2911667Y-14557000D01*
X2930714Y-14547476D01*
X3083095Y-14728428D02*
X3092619Y-14737952D01*
X3083095Y-14747476D01*
X3073571Y-14737952D01*
X3083095Y-14728428D01*
X3083095Y-14747476D01*
X3159286Y-14547476D02*
X3292619Y-14547476D01*
X3206905Y-14747476D01*
X3454524Y-14547476D02*
X3416428Y-14547476D01*
X3397381Y-14557000D01*
X3387857Y-14566524D01*
X3368809Y-14595095D01*
X3359286Y-14633190D01*
X3359286Y-14709381D01*
X3368809Y-14728428D01*
X3378333Y-14737952D01*
X3397381Y-14747476D01*
X3435476Y-14747476D01*
X3454524Y-14737952D01*
X3464048Y-14728428D01*
X3473571Y-14709381D01*
X3473571Y-14661762D01*
X3464048Y-14642714D01*
X3454524Y-14633190D01*
X3435476Y-14623667D01*
X3397381Y-14623667D01*
X3378333Y-14633190D01*
X3368809Y-14642714D01*
X3359286Y-14661762D01*
X3597381Y-14547476D02*
X3616428Y-14547476D01*
X3635476Y-14557000D01*
X3645000Y-14566524D01*
X3654524Y-14585571D01*
X3664048Y-14623667D01*
X3664048Y-14671286D01*
X3654524Y-14709381D01*
X3645000Y-14728428D01*
X3635476Y-14737952D01*
X3616428Y-14747476D01*
X3597381Y-14747476D01*
X3578333Y-14737952D01*
X3568809Y-14728428D01*
X3559286Y-14709381D01*
X3549762Y-14671286D01*
X3549762Y-14623667D01*
X3559286Y-14585571D01*
X3568809Y-14566524D01*
X3578333Y-14557000D01*
X3597381Y-14547476D01*
X3749762Y-14747476D02*
X3749762Y-14614143D01*
X3749762Y-14633190D02*
X3759286Y-14623667D01*
X3778333Y-14614143D01*
X3806905Y-14614143D01*
X3825952Y-14623667D01*
X3835476Y-14642714D01*
X3835476Y-14747476D01*
X3835476Y-14642714D02*
X3845000Y-14623667D01*
X3864048Y-14614143D01*
X3892619Y-14614143D01*
X3911667Y-14623667D01*
X3921190Y-14642714D01*
X3921190Y-14747476D01*
X4016428Y-14747476D02*
X4016428Y-14614143D01*
X4016428Y-14633190D02*
X4025952Y-14623667D01*
X4045000Y-14614143D01*
X4073571Y-14614143D01*
X4092619Y-14623667D01*
X4102143Y-14642714D01*
X4102143Y-14747476D01*
X4102143Y-14642714D02*
X4111667Y-14623667D01*
X4130714Y-14614143D01*
X4159286Y-14614143D01*
X4178333Y-14623667D01*
X4187857Y-14642714D01*
X4187857Y-14747476D01*
X4578333Y-14537952D02*
X4406905Y-14795095D01*
X4835476Y-14547476D02*
X4854524Y-14547476D01*
X4873571Y-14557000D01*
X4883095Y-14566524D01*
X4892619Y-14585571D01*
X4902143Y-14623667D01*
X4902143Y-14671286D01*
X4892619Y-14709381D01*
X4883095Y-14728428D01*
X4873571Y-14737952D01*
X4854524Y-14747476D01*
X4835476Y-14747476D01*
X4816429Y-14737952D01*
X4806905Y-14728428D01*
X4797381Y-14709381D01*
X4787857Y-14671286D01*
X4787857Y-14623667D01*
X4797381Y-14585571D01*
X4806905Y-14566524D01*
X4816429Y-14557000D01*
X4835476Y-14547476D01*
X4987857Y-14728428D02*
X4997381Y-14737952D01*
X4987857Y-14747476D01*
X4978333Y-14737952D01*
X4987857Y-14728428D01*
X4987857Y-14747476D01*
X5121190Y-14547476D02*
X5140238Y-14547476D01*
X5159286Y-14557000D01*
X5168810Y-14566524D01*
X5178333Y-14585571D01*
X5187857Y-14623667D01*
X5187857Y-14671286D01*
X5178333Y-14709381D01*
X5168810Y-14728428D01*
X5159286Y-14737952D01*
X5140238Y-14747476D01*
X5121190Y-14747476D01*
X5102143Y-14737952D01*
X5092619Y-14728428D01*
X5083095Y-14709381D01*
X5073571Y-14671286D01*
X5073571Y-14623667D01*
X5083095Y-14585571D01*
X5092619Y-14566524D01*
X5102143Y-14557000D01*
X5121190Y-14547476D01*
X5264048Y-14566524D02*
X5273571Y-14557000D01*
X5292619Y-14547476D01*
X5340238Y-14547476D01*
X5359286Y-14557000D01*
X5368810Y-14566524D01*
X5378333Y-14585571D01*
X5378333Y-14604619D01*
X5368810Y-14633190D01*
X5254524Y-14747476D01*
X5378333Y-14747476D01*
X5473571Y-14747476D02*
X5511667Y-14747476D01*
X5530714Y-14737952D01*
X5540238Y-14728428D01*
X5559286Y-14699857D01*
X5568810Y-14661762D01*
X5568810Y-14585571D01*
X5559286Y-14566524D01*
X5549762Y-14557000D01*
X5530714Y-14547476D01*
X5492619Y-14547476D01*
X5473571Y-14557000D01*
X5464048Y-14566524D01*
X5454524Y-14585571D01*
X5454524Y-14633190D01*
X5464048Y-14652238D01*
X5473571Y-14661762D01*
X5492619Y-14671286D01*
X5530714Y-14671286D01*
X5549762Y-14661762D01*
X5559286Y-14652238D01*
X5568810Y-14633190D01*
X5664048Y-14747476D02*
X5702143Y-14747476D01*
X5721190Y-14737952D01*
X5730714Y-14728428D01*
X5749762Y-14699857D01*
X5759286Y-14661762D01*
X5759286Y-14585571D01*
X5749762Y-14566524D01*
X5740238Y-14557000D01*
X5721190Y-14547476D01*
X5683095Y-14547476D01*
X5664048Y-14557000D01*
X5654524Y-14566524D01*
X5645000Y-14585571D01*
X5645000Y-14633190D01*
X5654524Y-14652238D01*
X5664048Y-14661762D01*
X5683095Y-14671286D01*
X5721190Y-14671286D01*
X5740238Y-14661762D01*
X5749762Y-14652238D01*
X5759286Y-14633190D01*
X5835476Y-14547476D02*
X5835476Y-14585571D01*
X5911667Y-14547476D02*
X5911667Y-14585571D01*
X6206905Y-14823667D02*
X6197381Y-14814143D01*
X6178333Y-14785571D01*
X6168809Y-14766524D01*
X6159286Y-14737952D01*
X6149762Y-14690333D01*
X6149762Y-14652238D01*
X6159286Y-14604619D01*
X6168809Y-14576048D01*
X6178333Y-14557000D01*
X6197381Y-14528428D01*
X6206905Y-14518905D01*
X6368809Y-14547476D02*
X6330714Y-14547476D01*
X6311667Y-14557000D01*
X6302143Y-14566524D01*
X6283095Y-14595095D01*
X6273571Y-14633190D01*
X6273571Y-14709381D01*
X6283095Y-14728428D01*
X6292619Y-14737952D01*
X6311667Y-14747476D01*
X6349762Y-14747476D01*
X6368809Y-14737952D01*
X6378333Y-14728428D01*
X6387857Y-14709381D01*
X6387857Y-14661762D01*
X6378333Y-14642714D01*
X6368809Y-14633190D01*
X6349762Y-14623667D01*
X6311667Y-14623667D01*
X6292619Y-14633190D01*
X6283095Y-14642714D01*
X6273571Y-14661762D01*
X6625952Y-14747476D02*
X6625952Y-14547476D01*
X6711667Y-14747476D02*
X6711667Y-14642714D01*
X6702143Y-14623667D01*
X6683095Y-14614143D01*
X6654524Y-14614143D01*
X6635476Y-14623667D01*
X6625952Y-14633190D01*
X6835476Y-14747476D02*
X6816428Y-14737952D01*
X6806905Y-14728428D01*
X6797381Y-14709381D01*
X6797381Y-14652238D01*
X6806905Y-14633190D01*
X6816428Y-14623667D01*
X6835476Y-14614143D01*
X6864048Y-14614143D01*
X6883095Y-14623667D01*
X6892619Y-14633190D01*
X6902143Y-14652238D01*
X6902143Y-14709381D01*
X6892619Y-14728428D01*
X6883095Y-14737952D01*
X6864048Y-14747476D01*
X6835476Y-14747476D01*
X7016428Y-14747476D02*
X6997381Y-14737952D01*
X6987857Y-14718905D01*
X6987857Y-14547476D01*
X7168809Y-14737952D02*
X7149762Y-14747476D01*
X7111667Y-14747476D01*
X7092619Y-14737952D01*
X7083095Y-14718905D01*
X7083095Y-14642714D01*
X7092619Y-14623667D01*
X7111667Y-14614143D01*
X7149762Y-14614143D01*
X7168809Y-14623667D01*
X7178333Y-14642714D01*
X7178333Y-14661762D01*
X7083095Y-14680809D01*
X7254524Y-14737952D02*
X7273571Y-14747476D01*
X7311667Y-14747476D01*
X7330714Y-14737952D01*
X7340238Y-14718905D01*
X7340238Y-14709381D01*
X7330714Y-14690333D01*
X7311667Y-14680809D01*
X7283095Y-14680809D01*
X7264048Y-14671286D01*
X7254524Y-14652238D01*
X7254524Y-14642714D01*
X7264048Y-14623667D01*
X7283095Y-14614143D01*
X7311667Y-14614143D01*
X7330714Y-14623667D01*
X7406905Y-14823667D02*
X7416428Y-14814143D01*
X7435476Y-14785571D01*
X7445000Y-14766524D01*
X7454524Y-14737952D01*
X7464048Y-14690333D01*
X7464048Y-14652238D01*
X7454524Y-14604619D01*
X7445000Y-14576048D01*
X7435476Y-14557000D01*
X7416428Y-14528428D01*
X7406905Y-14518905D01*
D16*
X2585000Y-14971000D02*
X2635000Y-14921000D01*
X2585000Y-14871000D01*
X2535000Y-14921000D01*
X2585000Y-14971000D01*
D11*
X2997381Y-15011476D02*
X2883095Y-15011476D01*
X2940238Y-15011476D02*
X2940238Y-14811476D01*
X2921190Y-14840048D01*
X2902143Y-14859095D01*
X2883095Y-14868619D01*
X3083095Y-14992428D02*
X3092619Y-15001952D01*
X3083095Y-15011476D01*
X3073571Y-15001952D01*
X3083095Y-14992428D01*
X3083095Y-15011476D01*
X3216428Y-14811476D02*
X3235476Y-14811476D01*
X3254524Y-14821000D01*
X3264048Y-14830524D01*
X3273571Y-14849571D01*
X3283095Y-14887667D01*
X3283095Y-14935286D01*
X3273571Y-14973381D01*
X3264048Y-14992428D01*
X3254524Y-15001952D01*
X3235476Y-15011476D01*
X3216428Y-15011476D01*
X3197381Y-15001952D01*
X3187857Y-14992428D01*
X3178333Y-14973381D01*
X3168809Y-14935286D01*
X3168809Y-14887667D01*
X3178333Y-14849571D01*
X3187857Y-14830524D01*
X3197381Y-14821000D01*
X3216428Y-14811476D01*
X3406905Y-14811476D02*
X3425952Y-14811476D01*
X3445000Y-14821000D01*
X3454524Y-14830524D01*
X3464048Y-14849571D01*
X3473571Y-14887667D01*
X3473571Y-14935286D01*
X3464048Y-14973381D01*
X3454524Y-14992428D01*
X3445000Y-15001952D01*
X3425952Y-15011476D01*
X3406905Y-15011476D01*
X3387857Y-15001952D01*
X3378333Y-14992428D01*
X3368809Y-14973381D01*
X3359286Y-14935286D01*
X3359286Y-14887667D01*
X3368809Y-14849571D01*
X3378333Y-14830524D01*
X3387857Y-14821000D01*
X3406905Y-14811476D01*
X3597381Y-14811476D02*
X3616428Y-14811476D01*
X3635476Y-14821000D01*
X3645000Y-14830524D01*
X3654524Y-14849571D01*
X3664048Y-14887667D01*
X3664048Y-14935286D01*
X3654524Y-14973381D01*
X3645000Y-14992428D01*
X3635476Y-15001952D01*
X3616428Y-15011476D01*
X3597381Y-15011476D01*
X3578333Y-15001952D01*
X3568809Y-14992428D01*
X3559286Y-14973381D01*
X3549762Y-14935286D01*
X3549762Y-14887667D01*
X3559286Y-14849571D01*
X3568809Y-14830524D01*
X3578333Y-14821000D01*
X3597381Y-14811476D01*
X3749762Y-15011476D02*
X3749762Y-14878143D01*
X3749762Y-14897190D02*
X3759286Y-14887667D01*
X3778333Y-14878143D01*
X3806905Y-14878143D01*
X3825952Y-14887667D01*
X3835476Y-14906714D01*
X3835476Y-15011476D01*
X3835476Y-14906714D02*
X3845000Y-14887667D01*
X3864048Y-14878143D01*
X3892619Y-14878143D01*
X3911667Y-14887667D01*
X3921190Y-14906714D01*
X3921190Y-15011476D01*
X4016428Y-15011476D02*
X4016428Y-14878143D01*
X4016428Y-14897190D02*
X4025952Y-14887667D01*
X4045000Y-14878143D01*
X4073571Y-14878143D01*
X4092619Y-14887667D01*
X4102143Y-14906714D01*
X4102143Y-15011476D01*
X4102143Y-14906714D02*
X4111667Y-14887667D01*
X4130714Y-14878143D01*
X4159286Y-14878143D01*
X4178333Y-14887667D01*
X4187857Y-14906714D01*
X4187857Y-15011476D01*
X4578333Y-14801952D02*
X4406905Y-15059095D01*
X4835476Y-14811476D02*
X4854524Y-14811476D01*
X4873571Y-14821000D01*
X4883095Y-14830524D01*
X4892619Y-14849571D01*
X4902143Y-14887667D01*
X4902143Y-14935286D01*
X4892619Y-14973381D01*
X4883095Y-14992428D01*
X4873571Y-15001952D01*
X4854524Y-15011476D01*
X4835476Y-15011476D01*
X4816429Y-15001952D01*
X4806905Y-14992428D01*
X4797381Y-14973381D01*
X4787857Y-14935286D01*
X4787857Y-14887667D01*
X4797381Y-14849571D01*
X4806905Y-14830524D01*
X4816429Y-14821000D01*
X4835476Y-14811476D01*
X4987857Y-14992428D02*
X4997381Y-15001952D01*
X4987857Y-15011476D01*
X4978333Y-15001952D01*
X4987857Y-14992428D01*
X4987857Y-15011476D01*
X5121190Y-14811476D02*
X5140238Y-14811476D01*
X5159286Y-14821000D01*
X5168810Y-14830524D01*
X5178333Y-14849571D01*
X5187857Y-14887667D01*
X5187857Y-14935286D01*
X5178333Y-14973381D01*
X5168810Y-14992428D01*
X5159286Y-15001952D01*
X5140238Y-15011476D01*
X5121190Y-15011476D01*
X5102143Y-15001952D01*
X5092619Y-14992428D01*
X5083095Y-14973381D01*
X5073571Y-14935286D01*
X5073571Y-14887667D01*
X5083095Y-14849571D01*
X5092619Y-14830524D01*
X5102143Y-14821000D01*
X5121190Y-14811476D01*
X5254524Y-14811476D02*
X5378333Y-14811476D01*
X5311667Y-14887667D01*
X5340238Y-14887667D01*
X5359286Y-14897190D01*
X5368810Y-14906714D01*
X5378333Y-14925762D01*
X5378333Y-14973381D01*
X5368810Y-14992428D01*
X5359286Y-15001952D01*
X5340238Y-15011476D01*
X5283095Y-15011476D01*
X5264048Y-15001952D01*
X5254524Y-14992428D01*
X5473571Y-15011476D02*
X5511667Y-15011476D01*
X5530714Y-15001952D01*
X5540238Y-14992428D01*
X5559286Y-14963857D01*
X5568810Y-14925762D01*
X5568810Y-14849571D01*
X5559286Y-14830524D01*
X5549762Y-14821000D01*
X5530714Y-14811476D01*
X5492619Y-14811476D01*
X5473571Y-14821000D01*
X5464048Y-14830524D01*
X5454524Y-14849571D01*
X5454524Y-14897190D01*
X5464048Y-14916238D01*
X5473571Y-14925762D01*
X5492619Y-14935286D01*
X5530714Y-14935286D01*
X5549762Y-14925762D01*
X5559286Y-14916238D01*
X5568810Y-14897190D01*
X5740238Y-14878143D02*
X5740238Y-15011476D01*
X5692619Y-14801952D02*
X5645000Y-14944809D01*
X5768809Y-14944809D01*
X5835476Y-14811476D02*
X5835476Y-14849571D01*
X5911667Y-14811476D02*
X5911667Y-14849571D01*
X6206905Y-15087667D02*
X6197381Y-15078143D01*
X6178333Y-15049571D01*
X6168809Y-15030524D01*
X6159286Y-15001952D01*
X6149762Y-14954333D01*
X6149762Y-14916238D01*
X6159286Y-14868619D01*
X6168809Y-14840048D01*
X6178333Y-14821000D01*
X6197381Y-14792428D01*
X6206905Y-14782905D01*
X6264048Y-14811476D02*
X6397381Y-14811476D01*
X6311667Y-15011476D01*
X6625952Y-15011476D02*
X6625952Y-14811476D01*
X6711667Y-15011476D02*
X6711667Y-14906714D01*
X6702143Y-14887667D01*
X6683095Y-14878143D01*
X6654524Y-14878143D01*
X6635476Y-14887667D01*
X6625952Y-14897190D01*
X6835476Y-15011476D02*
X6816428Y-15001952D01*
X6806905Y-14992428D01*
X6797381Y-14973381D01*
X6797381Y-14916238D01*
X6806905Y-14897190D01*
X6816428Y-14887667D01*
X6835476Y-14878143D01*
X6864048Y-14878143D01*
X6883095Y-14887667D01*
X6892619Y-14897190D01*
X6902143Y-14916238D01*
X6902143Y-14973381D01*
X6892619Y-14992428D01*
X6883095Y-15001952D01*
X6864048Y-15011476D01*
X6835476Y-15011476D01*
X7016428Y-15011476D02*
X6997381Y-15001952D01*
X6987857Y-14982905D01*
X6987857Y-14811476D01*
X7168809Y-15001952D02*
X7149762Y-15011476D01*
X7111667Y-15011476D01*
X7092619Y-15001952D01*
X7083095Y-14982905D01*
X7083095Y-14906714D01*
X7092619Y-14887667D01*
X7111667Y-14878143D01*
X7149762Y-14878143D01*
X7168809Y-14887667D01*
X7178333Y-14906714D01*
X7178333Y-14925762D01*
X7083095Y-14944809D01*
X7254524Y-15001952D02*
X7273571Y-15011476D01*
X7311667Y-15011476D01*
X7330714Y-15001952D01*
X7340238Y-14982905D01*
X7340238Y-14973381D01*
X7330714Y-14954333D01*
X7311667Y-14944809D01*
X7283095Y-14944809D01*
X7264048Y-14935286D01*
X7254524Y-14916238D01*
X7254524Y-14906714D01*
X7264048Y-14887667D01*
X7283095Y-14878143D01*
X7311667Y-14878143D01*
X7330714Y-14887667D01*
X7406905Y-15087667D02*
X7416428Y-15078143D01*
X7435476Y-15049571D01*
X7445000Y-15030524D01*
X7454524Y-15001952D01*
X7464048Y-14954333D01*
X7464048Y-14916238D01*
X7454524Y-14868619D01*
X7445000Y-14840048D01*
X7435476Y-14821000D01*
X7416428Y-14792428D01*
X7406905Y-14782905D01*
M02*
