%TF.GenerationSoftware,KiCad,Pcbnew,5.99.0-unknown-4e273827f0~131~ubuntu20.04.1*%
%TF.CreationDate,2021-08-17T12:46:56+02:00*%
%TF.ProjectId,CDEM,4344454d-2e6b-4696-9361-645f70636258,rev?*%
%TF.SameCoordinates,Original*%
%TF.FileFunction,Profile,NP*%
%FSLAX46Y46*%
G04 Gerber Fmt 4.6, Leading zero omitted, Abs format (unit mm)*
G04 Created by KiCad (PCBNEW 5.99.0-unknown-4e273827f0~131~ubuntu20.04.1) date 2021-08-17 12:46:56*
%MOMM*%
%LPD*%
G01*
G04 APERTURE LIST*
%TA.AperFunction,Profile*%
%ADD10C,0.100000*%
%TD*%
G04 APERTURE END LIST*
D10*
X99100000Y-125950000D02*
X99100000Y-132200000D01*
X43400000Y-91200000D02*
G75*
G03*
X43400000Y-91200000I-1800000J0D01*
G01*
X43400000Y-121700000D02*
G75*
G03*
X43400000Y-121700000I-1800000J0D01*
G01*
X32650000Y-124200000D02*
G75*
G02*
X34400000Y-125950000I0J-1750000D01*
G01*
X99100000Y-132200000D02*
X34400000Y-132200000D01*
X107100000Y-88700000D02*
X107100000Y-124200000D01*
X34400000Y-132200000D02*
X34400000Y-125950000D01*
X99100000Y-125950000D02*
G75*
G02*
X100850000Y-124200000I1750000J0D01*
G01*
X99100000Y-80700000D02*
X99100000Y-86950000D01*
X26400000Y-88700000D02*
X32650000Y-88700000D01*
X34400000Y-86950000D02*
X34400000Y-80700000D01*
X100850000Y-88700000D02*
G75*
G02*
X99100000Y-86950000I0J1750000D01*
G01*
X34400000Y-80700000D02*
X99100000Y-80700000D01*
X34400000Y-86950000D02*
G75*
G02*
X32650000Y-88700000I-1750000J0D01*
G01*
X93700000Y-91200000D02*
G75*
G03*
X93700000Y-91200000I-1800000J0D01*
G01*
X100850000Y-88700000D02*
X107100000Y-88700000D01*
X107100000Y-124200000D02*
X100850000Y-124200000D01*
X26400000Y-124200000D02*
X26400000Y-88700000D01*
X32650000Y-124200000D02*
X26400000Y-124200000D01*
X93700000Y-121700000D02*
G75*
G03*
X93700000Y-121700000I-1800000J0D01*
G01*
M02*
